# Tiled2Unity generated file. Do not modify by hand.
# Wavefront file for 'MainMenu_mesh_0009.obj'

# Vertices (Count = 12)
v 0 -16 0
v -16 -16 0
v -16 0 0
v 0 0 0
v 0 -32 0
v -16 -32 0
v -16 -16 0
v 0 -16 0
v 0 -48 0
v -16 -48 0
v -16 -32 0
v 0 -32 0

# Texture cooridinates (Count = 4)
vt 0.03125 0.921875
vt 0.03515625 0.921875
vt 0.03515625 0.9375
vt 0.03125 0.9375

# Normal
vn 0 0 -1

# Mesh description
g MainMenu_mesh_0009

# Faces
f 1/1/1 2/2/1 3/3/1 4/4/1
f 5/1/1 6/2/1 7/3/1 8/4/1
f 9/1/1 10/2/1 11/3/1 12/4/1

