# Tiled2Unity generated file. Do not modify by hand.
# Wavefront file for 'MainMenu_mesh_0014.obj'

# Vertices (Count = 240)
v -208 -16 0
v -224 -16 0
v -224 0 0
v -208 0 0
v -224 -16 0
v -240 -16 0
v -240 0 0
v -224 0 0
v -240 -16 0
v -256 -16 0
v -256 0 0
v -240 0 0
v -208 -32 0
v -224 -32 0
v -224 -16 0
v -208 -16 0
v -224 -32 0
v -240 -32 0
v -240 -16 0
v -224 -16 0
v -240 -32 0
v -256 -32 0
v -256 -16 0
v -240 -16 0
v -208 -48 0
v -224 -48 0
v -224 -32 0
v -208 -32 0
v -224 -48 0
v -240 -48 0
v -240 -32 0
v -224 -32 0
v -240 -48 0
v -256 -48 0
v -256 -32 0
v -240 -32 0
v -208 -64 0
v -224 -64 0
v -224 -48 0
v -208 -48 0
v -224 -64 0
v -240 -64 0
v -240 -48 0
v -224 -48 0
v -240 -64 0
v -256 -64 0
v -256 -48 0
v -240 -48 0
v -128 -80 0
v -144 -80 0
v -144 -64 0
v -128 -64 0
v -144 -80 0
v -160 -80 0
v -160 -64 0
v -144 -64 0
v -160 -80 0
v -176 -80 0
v -176 -64 0
v -160 -64 0
v -176 -80 0
v -192 -80 0
v -192 -64 0
v -176 -64 0
v -192 -80 0
v -208 -80 0
v -208 -64 0
v -192 -64 0
v -208 -80 0
v -224 -80 0
v -224 -64 0
v -208 -64 0
v -224 -80 0
v -240 -80 0
v -240 -64 0
v -224 -64 0
v -240 -80 0
v -256 -80 0
v -256 -64 0
v -240 -64 0
v -128 -96 0
v -144 -96 0
v -144 -80 0
v -128 -80 0
v -144 -96 0
v -160 -96 0
v -160 -80 0
v -144 -80 0
v -160 -96 0
v -176 -96 0
v -176 -80 0
v -160 -80 0
v -176 -96 0
v -192 -96 0
v -192 -80 0
v -176 -80 0
v -192 -96 0
v -208 -96 0
v -208 -80 0
v -192 -80 0
v -208 -96 0
v -224 -96 0
v -224 -80 0
v -208 -80 0
v -224 -96 0
v -240 -96 0
v -240 -80 0
v -224 -80 0
v -240 -96 0
v -256 -96 0
v -256 -80 0
v -240 -80 0
v -128 -112 0
v -144 -112 0
v -144 -96 0
v -128 -96 0
v -144 -112 0
v -160 -112 0
v -160 -96 0
v -144 -96 0
v -160 -112 0
v -176 -112 0
v -176 -96 0
v -160 -96 0
v -176 -112 0
v -192 -112 0
v -192 -96 0
v -176 -96 0
v -192 -112 0
v -208 -112 0
v -208 -96 0
v -192 -96 0
v -208 -112 0
v -224 -112 0
v -224 -96 0
v -208 -96 0
v -224 -112 0
v -240 -112 0
v -240 -96 0
v -224 -96 0
v -240 -112 0
v -256 -112 0
v -256 -96 0
v -240 -96 0
v -128 -128 0
v -144 -128 0
v -144 -112 0
v -128 -112 0
v -144 -128 0
v -160 -128 0
v -160 -112 0
v -144 -112 0
v -160 -128 0
v -176 -128 0
v -176 -112 0
v -160 -112 0
v -176 -128 0
v -192 -128 0
v -192 -112 0
v -176 -112 0
v -192 -128 0
v -208 -128 0
v -208 -112 0
v -192 -112 0
v -208 -128 0
v -224 -128 0
v -224 -112 0
v -208 -112 0
v -224 -128 0
v -240 -128 0
v -240 -112 0
v -224 -112 0
v -240 -128 0
v -256 -128 0
v -256 -112 0
v -240 -112 0
v -128 -144 0
v -144 -144 0
v -144 -128 0
v -128 -128 0
v -144 -144 0
v -160 -144 0
v -160 -128 0
v -144 -128 0
v -160 -144 0
v -176 -144 0
v -176 -128 0
v -160 -128 0
v -176 -144 0
v -192 -144 0
v -192 -128 0
v -176 -128 0
v -192 -144 0
v -208 -144 0
v -208 -128 0
v -192 -128 0
v -208 -144 0
v -224 -144 0
v -224 -128 0
v -208 -128 0
v -224 -144 0
v -240 -144 0
v -240 -128 0
v -224 -128 0
v -240 -144 0
v -256 -144 0
v -256 -128 0
v -240 -128 0
v -128 -160 0
v -144 -160 0
v -144 -144 0
v -128 -144 0
v -144 -160 0
v -160 -160 0
v -160 -144 0
v -144 -144 0
v -160 -160 0
v -176 -160 0
v -176 -144 0
v -160 -144 0
v -176 -160 0
v -192 -160 0
v -192 -144 0
v -176 -144 0
v -192 -160 0
v -208 -160 0
v -208 -144 0
v -192 -144 0
v -208 -160 0
v -224 -160 0
v -224 -144 0
v -208 -144 0
v -224 -160 0
v -240 -160 0
v -240 -144 0
v -224 -144 0
v -240 -160 0
v -256 -160 0
v -256 -144 0
v -240 -144 0

# Texture cooridinates (Count = 40)
vt 0 0.921875
vt 0.00390625 0.921875
vt 0.00390625 0.9375
vt 0 0.9375
vt 0.0078125 0.921875
vt 0.0078125 0.9375
vt 0.0234375 0.90625
vt 0.02734375 0.90625
vt 0.02734375 0.921875
vt 0.0234375 0.921875
vt 0.03125 0.90625
vt 0.03125 0.921875
vt 0.75 0.296875
vt 0.7539063 0.296875
vt 0.7539063 0.3125
vt 0.75 0.3125
vt 0.7539063 0.328125
vt 0.75 0.328125
vt 0.75 0.265625
vt 0.7539063 0.265625
vt 0.7539063 0.28125
vt 0.75 0.28125
vt 0.75 0.25
vt 0.7539063 0.25
vt 0.5 0.28125
vt 0.5039063 0.28125
vt 0.5039063 0.296875
vt 0.5 0.296875
vt 0.5 0.3125
vt 0.5039063 0.3125
vt 0.5039063 0.328125
vt 0.5 0.328125
vt 0.5 0.265625
vt 0.5039063 0.265625
vt 0.015625 0.90625
vt 0.01953125 0.90625
vt 0.01953125 0.921875
vt 0.015625 0.921875
vt 0.5 0.25
vt 0.5039063 0.25

# Normal
vn 0 0 -1

# Mesh description
g MainMenu_mesh_0014

# Faces
f 1/1/1 2/2/1 3/3/1 4/4/1
f 5/2/1 6/5/1 7/6/1 8/3/1
f 9/2/1 10/5/1 11/6/1 12/3/1
f 13/1/1 14/2/1 15/3/1 16/4/1
f 17/2/1 18/5/1 19/6/1 20/3/1
f 21/2/1 22/5/1 23/6/1 24/3/1
f 25/1/1 26/2/1 27/3/1 28/4/1
f 29/2/1 30/5/1 31/6/1 32/3/1
f 33/2/1 34/5/1 35/6/1 36/3/1
f 37/1/1 38/2/1 39/3/1 40/4/1
f 41/2/1 42/5/1 43/6/1 44/3/1
f 45/2/1 46/5/1 47/6/1 48/3/1
f 49/7/1 50/8/1 51/9/1 52/10/1
f 53/8/1 54/11/1 55/12/1 56/9/1
f 57/8/1 58/11/1 59/12/1 60/9/1
f 61/8/1 62/11/1 63/12/1 64/9/1
f 65/8/1 66/11/1 67/12/1 68/9/1
f 69/1/1 70/2/1 71/3/1 72/4/1
f 73/2/1 74/5/1 75/6/1 76/3/1
f 77/2/1 78/5/1 79/6/1 80/3/1
f 81/13/1 82/14/1 83/15/1 84/16/1
f 85/16/1 86/15/1 87/17/1 88/18/1
f 89/19/1 90/20/1 91/21/1 92/22/1
f 93/13/1 94/14/1 95/15/1 96/16/1
f 97/16/1 98/15/1 99/17/1 100/18/1
f 101/7/1 102/8/1 103/9/1 104/10/1
f 105/8/1 106/11/1 107/12/1 108/9/1
f 109/8/1 110/11/1 111/12/1 112/9/1
f 113/23/1 114/24/1 115/20/1 116/19/1
f 117/13/1 118/14/1 119/15/1 120/16/1
f 121/23/1 122/24/1 123/20/1 124/19/1
f 125/13/1 126/14/1 127/15/1 128/16/1
f 129/19/1 130/20/1 131/21/1 132/22/1
f 133/23/1 134/24/1 135/20/1 136/19/1
f 137/25/1 138/26/1 139/27/1 140/28/1
f 141/29/1 142/30/1 143/31/1 144/32/1
f 145/23/1 146/24/1 147/20/1 148/19/1
f 149/22/1 150/21/1 151/14/1 152/13/1
f 153/16/1 154/15/1 155/17/1 156/18/1
f 157/23/1 158/24/1 159/20/1 160/19/1
f 161/16/1 162/15/1 163/17/1 164/18/1
f 165/29/1 166/30/1 167/31/1 168/32/1
f 169/33/1 170/34/1 171/26/1 172/25/1
f 173/33/1 174/34/1 175/26/1 176/25/1
f 177/19/1 178/20/1 179/21/1 180/22/1
f 181/13/1 182/14/1 183/15/1 184/16/1
f 185/16/1 186/15/1 187/17/1 188/18/1
f 189/13/1 190/14/1 191/15/1 192/16/1
f 193/23/1 194/24/1 195/20/1 196/19/1
f 197/35/1 198/36/1 199/37/1 200/38/1
f 201/25/1 202/26/1 203/27/1 204/28/1
f 205/25/1 206/26/1 207/27/1 208/28/1
f 209/23/1 210/24/1 211/20/1 212/19/1
f 213/13/1 214/14/1 215/15/1 216/16/1
f 217/13/1 218/14/1 219/15/1 220/16/1
f 221/22/1 222/21/1 223/14/1 224/13/1
f 225/13/1 226/14/1 227/15/1 228/16/1
f 229/29/1 230/30/1 231/31/1 232/32/1
f 233/39/1 234/40/1 235/34/1 236/33/1
f 237/25/1 238/26/1 239/27/1 240/28/1

