# Tiled2Unity generated file. Do not modify by hand.
# Wavefront file for 'MainMenu_mesh_0022.obj'

# Vertices (Count = 24)
v -224 -80 0
v -240 -80 0
v -240 -64 0
v -224 -64 0
v -224 -96 0
v -240 -96 0
v -240 -80 0
v -224 -80 0
v -224 -112 0
v -240 -112 0
v -240 -96 0
v -224 -96 0
v -224 -128 0
v -240 -128 0
v -240 -112 0
v -224 -112 0
v -224 -144 0
v -240 -144 0
v -240 -128 0
v -224 -128 0
v -224 -160 0
v -240 -160 0
v -240 -144 0
v -224 -144 0

# Texture cooridinates (Count = 12)
vt 0.00390625 0.90625
vt 0.0078125 0.90625
vt 0.0078125 0.921875
vt 0.00390625 0.921875
vt 0.03125 0.890625
vt 0.03515625 0.890625
vt 0.03515625 0.90625
vt 0.03125 0.90625
vt 0.03125 0.859375
vt 0.03515625 0.859375
vt 0.03515625 0.875
vt 0.03125 0.875

# Normal
vn 0 0 -1

# Mesh description
g MainMenu_mesh_0022

# Faces
f 1/1/1 2/2/1 3/3/1 4/4/1
f 5/1/1 6/2/1 7/3/1 8/4/1
f 9/5/1 10/6/1 11/7/1 12/8/1
f 13/1/1 14/2/1 15/3/1 16/4/1
f 17/9/1 18/10/1 19/11/1 20/12/1
f 21/1/1 22/2/1 23/3/1 24/4/1

