# Tiled2Unity generated file. Do not modify by hand.
# Wavefront file for 'MainMenu_mesh_0010.obj'

# Vertices (Count = 60)
v -208 -64 0
v -224 -64 0
v -224 -48 0
v -208 -48 0
v -224 -64 0
v -240 -64 0
v -240 -48 0
v -224 -48 0
v -240 -64 0
v -256 -64 0
v -256 -48 0
v -240 -48 0
v -208 -80 0
v -224 -80 0
v -224 -64 0
v -208 -64 0
v -208 -96 0
v -224 -96 0
v -224 -80 0
v -208 -80 0
v -208 -112 0
v -224 -112 0
v -224 -96 0
v -208 -96 0
v -208 -128 0
v -224 -128 0
v -224 -112 0
v -208 -112 0
v -208 -144 0
v -224 -144 0
v -224 -128 0
v -208 -128 0
v -208 -160 0
v -224 -160 0
v -224 -144 0
v -208 -144 0
v -208 -176 0
v -224 -176 0
v -224 -160 0
v -208 -160 0
v -208 -192 0
v -224 -192 0
v -224 -176 0
v -208 -176 0
v -208 -208 0
v -224 -208 0
v -224 -192 0
v -208 -192 0
v -208 -224 0
v -224 -224 0
v -224 -208 0
v -208 -208 0
v -208 -240 0
v -224 -240 0
v -224 -224 0
v -208 -224 0
v -208 -256 0
v -224 -256 0
v -224 -240 0
v -208 -240 0

# Texture cooridinates (Count = 14)
vt 0 0.890625
vt 0.00390625 0.890625
vt 0.00390625 0.90625
vt 0 0.90625
vt 0.01953125 0.84375
vt 0.0234375 0.84375
vt 0.0234375 0.859375
vt 0.01953125 0.859375
vt 0.02734375 0.859375
vt 0.03125 0.859375
vt 0.03125 0.875
vt 0.02734375 0.875
vt 0.03125 0.890625
vt 0.02734375 0.890625

# Normal
vn 0 0 -1

# Mesh description
g MainMenu_mesh_0010

# Faces
f 1/1/1 2/2/1 3/3/1 4/4/1
f 5/5/1 6/6/1 7/7/1 8/8/1
f 9/5/1 10/6/1 11/7/1 12/8/1
f 13/9/1 14/10/1 15/11/1 16/12/1
f 17/9/1 18/10/1 19/11/1 20/12/1
f 21/9/1 22/10/1 23/11/1 24/12/1
f 25/9/1 26/10/1 27/11/1 28/12/1
f 29/12/1 30/11/1 31/13/1 32/14/1
f 33/9/1 34/10/1 35/11/1 36/12/1
f 37/9/1 38/10/1 39/11/1 40/12/1
f 41/12/1 42/11/1 43/13/1 44/14/1
f 45/9/1 46/10/1 47/11/1 48/12/1
f 49/9/1 50/10/1 51/11/1 52/12/1
f 53/9/1 54/10/1 55/11/1 56/12/1
f 57/12/1 58/11/1 59/13/1 60/14/1

