# Tiled2Unity generated file. Do not modify by hand.
# Wavefront file for 'MainMenu_mesh_0015.obj'

# Vertices (Count = 616)
v 0 -16 0
v -16 -16 0
v -16 0 0
v 0 0 0
v -16 -16 0
v -32 -16 0
v -32 0 0
v -16 0 0
v -32 -16 0
v -48 -16 0
v -48 0 0
v -32 0 0
v -48 -16 0
v -64 -16 0
v -64 0 0
v -48 0 0
v -64 -16 0
v -80 -16 0
v -80 0 0
v -64 0 0
v -80 -16 0
v -96 -16 0
v -96 0 0
v -80 0 0
v -96 -16 0
v -112 -16 0
v -112 0 0
v -96 0 0
v -112 -16 0
v -128 -16 0
v -128 0 0
v -112 0 0
v -128 -16 0
v -144 -16 0
v -144 0 0
v -128 0 0
v -144 -16 0
v -160 -16 0
v -160 0 0
v -144 0 0
v -160 -16 0
v -176 -16 0
v -176 0 0
v -160 0 0
v -176 -16 0
v -192 -16 0
v -192 0 0
v -176 0 0
v -192 -16 0
v -208 -16 0
v -208 0 0
v -192 0 0
v -208 -16 0
v -224 -16 0
v -224 0 0
v -208 0 0
v 0 -32 0
v -16 -32 0
v -16 -16 0
v 0 -16 0
v -16 -32 0
v -32 -32 0
v -32 -16 0
v -16 -16 0
v -32 -32 0
v -48 -32 0
v -48 -16 0
v -32 -16 0
v -48 -32 0
v -64 -32 0
v -64 -16 0
v -48 -16 0
v -64 -32 0
v -80 -32 0
v -80 -16 0
v -64 -16 0
v -80 -32 0
v -96 -32 0
v -96 -16 0
v -80 -16 0
v -96 -32 0
v -112 -32 0
v -112 -16 0
v -96 -16 0
v -112 -32 0
v -128 -32 0
v -128 -16 0
v -112 -16 0
v -128 -32 0
v -144 -32 0
v -144 -16 0
v -128 -16 0
v -144 -32 0
v -160 -32 0
v -160 -16 0
v -144 -16 0
v -160 -32 0
v -176 -32 0
v -176 -16 0
v -160 -16 0
v -176 -32 0
v -192 -32 0
v -192 -16 0
v -176 -16 0
v -192 -32 0
v -208 -32 0
v -208 -16 0
v -192 -16 0
v -208 -32 0
v -224 -32 0
v -224 -16 0
v -208 -16 0
v 0 -48 0
v -16 -48 0
v -16 -32 0
v 0 -32 0
v -16 -48 0
v -32 -48 0
v -32 -32 0
v -16 -32 0
v -32 -48 0
v -48 -48 0
v -48 -32 0
v -32 -32 0
v -48 -48 0
v -64 -48 0
v -64 -32 0
v -48 -32 0
v -64 -48 0
v -80 -48 0
v -80 -32 0
v -64 -32 0
v -80 -48 0
v -96 -48 0
v -96 -32 0
v -80 -32 0
v -96 -48 0
v -112 -48 0
v -112 -32 0
v -96 -32 0
v -112 -48 0
v -128 -48 0
v -128 -32 0
v -112 -32 0
v -128 -48 0
v -144 -48 0
v -144 -32 0
v -128 -32 0
v -144 -48 0
v -160 -48 0
v -160 -32 0
v -144 -32 0
v -160 -48 0
v -176 -48 0
v -176 -32 0
v -160 -32 0
v -176 -48 0
v -192 -48 0
v -192 -32 0
v -176 -32 0
v -192 -48 0
v -208 -48 0
v -208 -32 0
v -192 -32 0
v -208 -48 0
v -224 -48 0
v -224 -32 0
v -208 -32 0
v 0 -64 0
v -16 -64 0
v -16 -48 0
v 0 -48 0
v -16 -64 0
v -32 -64 0
v -32 -48 0
v -16 -48 0
v -32 -64 0
v -48 -64 0
v -48 -48 0
v -32 -48 0
v -48 -64 0
v -64 -64 0
v -64 -48 0
v -48 -48 0
v -64 -64 0
v -80 -64 0
v -80 -48 0
v -64 -48 0
v -80 -64 0
v -96 -64 0
v -96 -48 0
v -80 -48 0
v -96 -64 0
v -112 -64 0
v -112 -48 0
v -96 -48 0
v -112 -64 0
v -128 -64 0
v -128 -48 0
v -112 -48 0
v -128 -64 0
v -144 -64 0
v -144 -48 0
v -128 -48 0
v -144 -64 0
v -160 -64 0
v -160 -48 0
v -144 -48 0
v -160 -64 0
v -176 -64 0
v -176 -48 0
v -160 -48 0
v -176 -64 0
v -192 -64 0
v -192 -48 0
v -176 -48 0
v -192 -64 0
v -208 -64 0
v -208 -48 0
v -192 -48 0
v -208 -64 0
v -224 -64 0
v -224 -48 0
v -208 -48 0
v -224 -64 0
v -240 -64 0
v -240 -48 0
v -224 -48 0
v -240 -64 0
v -256 -64 0
v -256 -48 0
v -240 -48 0
v 0 -80 0
v -16 -80 0
v -16 -64 0
v 0 -64 0
v -16 -80 0
v -32 -80 0
v -32 -64 0
v -16 -64 0
v -32 -80 0
v -48 -80 0
v -48 -64 0
v -32 -64 0
v -48 -80 0
v -64 -80 0
v -64 -64 0
v -48 -64 0
v -64 -80 0
v -80 -80 0
v -80 -64 0
v -64 -64 0
v -80 -80 0
v -96 -80 0
v -96 -64 0
v -80 -64 0
v -96 -80 0
v -112 -80 0
v -112 -64 0
v -96 -64 0
v -112 -80 0
v -128 -80 0
v -128 -64 0
v -112 -64 0
v -128 -80 0
v -144 -80 0
v -144 -64 0
v -128 -64 0
v -144 -80 0
v -160 -80 0
v -160 -64 0
v -144 -64 0
v -160 -80 0
v -176 -80 0
v -176 -64 0
v -160 -64 0
v -176 -80 0
v -192 -80 0
v -192 -64 0
v -176 -64 0
v -192 -80 0
v -208 -80 0
v -208 -64 0
v -192 -64 0
v -208 -80 0
v -224 -80 0
v -224 -64 0
v -208 -64 0
v -224 -80 0
v -240 -80 0
v -240 -64 0
v -224 -64 0
v -240 -80 0
v -256 -80 0
v -256 -64 0
v -240 -64 0
v 0 -96 0
v -16 -96 0
v -16 -80 0
v 0 -80 0
v -16 -96 0
v -32 -96 0
v -32 -80 0
v -16 -80 0
v -32 -96 0
v -48 -96 0
v -48 -80 0
v -32 -80 0
v -48 -96 0
v -64 -96 0
v -64 -80 0
v -48 -80 0
v -64 -96 0
v -80 -96 0
v -80 -80 0
v -64 -80 0
v -80 -96 0
v -96 -96 0
v -96 -80 0
v -80 -80 0
v -96 -96 0
v -112 -96 0
v -112 -80 0
v -96 -80 0
v -112 -96 0
v -128 -96 0
v -128 -80 0
v -112 -80 0
v -128 -96 0
v -144 -96 0
v -144 -80 0
v -128 -80 0
v -144 -96 0
v -160 -96 0
v -160 -80 0
v -144 -80 0
v -160 -96 0
v -176 -96 0
v -176 -80 0
v -160 -80 0
v -176 -96 0
v -192 -96 0
v -192 -80 0
v -176 -80 0
v -192 -96 0
v -208 -96 0
v -208 -80 0
v -192 -80 0
v -208 -96 0
v -224 -96 0
v -224 -80 0
v -208 -80 0
v -224 -96 0
v -240 -96 0
v -240 -80 0
v -224 -80 0
v -240 -96 0
v -256 -96 0
v -256 -80 0
v -240 -80 0
v 0 -112 0
v -16 -112 0
v -16 -96 0
v 0 -96 0
v -16 -112 0
v -32 -112 0
v -32 -96 0
v -16 -96 0
v -32 -112 0
v -48 -112 0
v -48 -96 0
v -32 -96 0
v -48 -112 0
v -64 -112 0
v -64 -96 0
v -48 -96 0
v -64 -112 0
v -80 -112 0
v -80 -96 0
v -64 -96 0
v -80 -112 0
v -96 -112 0
v -96 -96 0
v -80 -96 0
v -96 -112 0
v -112 -112 0
v -112 -96 0
v -96 -96 0
v -112 -112 0
v -128 -112 0
v -128 -96 0
v -112 -96 0
v -128 -112 0
v -144 -112 0
v -144 -96 0
v -128 -96 0
v -144 -112 0
v -160 -112 0
v -160 -96 0
v -144 -96 0
v -160 -112 0
v -176 -112 0
v -176 -96 0
v -160 -96 0
v -176 -112 0
v -192 -112 0
v -192 -96 0
v -176 -96 0
v -192 -112 0
v -208 -112 0
v -208 -96 0
v -192 -96 0
v -208 -112 0
v -224 -112 0
v -224 -96 0
v -208 -96 0
v -224 -112 0
v -240 -112 0
v -240 -96 0
v -224 -96 0
v -240 -112 0
v -256 -112 0
v -256 -96 0
v -240 -96 0
v 0 -128 0
v -16 -128 0
v -16 -112 0
v 0 -112 0
v -16 -128 0
v -32 -128 0
v -32 -112 0
v -16 -112 0
v -32 -128 0
v -48 -128 0
v -48 -112 0
v -32 -112 0
v -48 -128 0
v -64 -128 0
v -64 -112 0
v -48 -112 0
v -64 -128 0
v -80 -128 0
v -80 -112 0
v -64 -112 0
v -80 -128 0
v -96 -128 0
v -96 -112 0
v -80 -112 0
v -96 -128 0
v -112 -128 0
v -112 -112 0
v -96 -112 0
v -112 -128 0
v -128 -128 0
v -128 -112 0
v -112 -112 0
v -128 -128 0
v -144 -128 0
v -144 -112 0
v -128 -112 0
v -144 -128 0
v -160 -128 0
v -160 -112 0
v -144 -112 0
v -160 -128 0
v -176 -128 0
v -176 -112 0
v -160 -112 0
v -176 -128 0
v -192 -128 0
v -192 -112 0
v -176 -112 0
v -192 -128 0
v -208 -128 0
v -208 -112 0
v -192 -112 0
v -208 -128 0
v -224 -128 0
v -224 -112 0
v -208 -112 0
v -224 -128 0
v -240 -128 0
v -240 -112 0
v -224 -112 0
v -240 -128 0
v -256 -128 0
v -256 -112 0
v -240 -112 0
v 0 -144 0
v -16 -144 0
v -16 -128 0
v 0 -128 0
v -16 -144 0
v -32 -144 0
v -32 -128 0
v -16 -128 0
v -32 -144 0
v -48 -144 0
v -48 -128 0
v -32 -128 0
v -48 -144 0
v -64 -144 0
v -64 -128 0
v -48 -128 0
v -64 -144 0
v -80 -144 0
v -80 -128 0
v -64 -128 0
v -80 -144 0
v -96 -144 0
v -96 -128 0
v -80 -128 0
v -96 -144 0
v -112 -144 0
v -112 -128 0
v -96 -128 0
v -112 -144 0
v -128 -144 0
v -128 -128 0
v -112 -128 0
v -128 -144 0
v -144 -144 0
v -144 -128 0
v -128 -128 0
v -144 -144 0
v -160 -144 0
v -160 -128 0
v -144 -128 0
v -160 -144 0
v -176 -144 0
v -176 -128 0
v -160 -128 0
v -176 -144 0
v -192 -144 0
v -192 -128 0
v -176 -128 0
v -192 -144 0
v -208 -144 0
v -208 -128 0
v -192 -128 0
v -208 -144 0
v -224 -144 0
v -224 -128 0
v -208 -128 0
v -224 -144 0
v -240 -144 0
v -240 -128 0
v -224 -128 0
v -240 -144 0
v -256 -144 0
v -256 -128 0
v -240 -128 0
v 0 -160 0
v -16 -160 0
v -16 -144 0
v 0 -144 0
v -16 -160 0
v -32 -160 0
v -32 -144 0
v -16 -144 0
v -32 -160 0
v -48 -160 0
v -48 -144 0
v -32 -144 0
v -48 -160 0
v -64 -160 0
v -64 -144 0
v -48 -144 0
v -64 -160 0
v -80 -160 0
v -80 -144 0
v -64 -144 0
v -80 -160 0
v -96 -160 0
v -96 -144 0
v -80 -144 0
v -96 -160 0
v -112 -160 0
v -112 -144 0
v -96 -144 0
v -112 -160 0
v -128 -160 0
v -128 -144 0
v -112 -144 0
v -128 -160 0
v -144 -160 0
v -144 -144 0
v -128 -144 0
v -144 -160 0
v -160 -160 0
v -160 -144 0
v -144 -144 0
v -160 -160 0
v -176 -160 0
v -176 -144 0
v -160 -144 0
v -176 -160 0
v -192 -160 0
v -192 -144 0
v -176 -144 0
v -192 -160 0
v -208 -160 0
v -208 -144 0
v -192 -144 0
v -208 -160 0
v -224 -160 0
v -224 -144 0
v -208 -144 0
v -224 -160 0
v -240 -160 0
v -240 -144 0
v -224 -144 0
v -240 -160 0
v -256 -160 0
v -256 -144 0
v -240 -144 0

# Texture cooridinates (Count = 53)
vt 0.00390625 0.921875
vt 0.0078125 0.921875
vt 0.0078125 0.9375
vt 0.00390625 0.9375
vt 0.01171875 0.921875
vt 0.01171875 0.9375
vt 0.015625 0.921875
vt 0.015625 0.9375
vt 0.01953125 0.921875
vt 0.01953125 0.9375
vt 0.0234375 0.921875
vt 0.0234375 0.9375
vt 0.02734375 0.921875
vt 0.02734375 0.9375
vt 0.03125 0.921875
vt 0.03125 0.9375
vt 0.03515625 0.921875
vt 0.03515625 0.9375
vt 0.0234375 0.953125
vt 0.01953125 0.953125
vt 0.02734375 0.90625
vt 0.03125 0.90625
vt 0.75 0.3125
vt 0.7539063 0.3125
vt 0.7539063 0.328125
vt 0.75 0.328125
vt 0.75 0.265625
vt 0.7539063 0.265625
vt 0.7539063 0.28125
vt 0.75 0.28125
vt 0.03515625 0.90625
vt 0.01953125 0.90625
vt 0.0234375 0.90625
vt 0.75 0.25
vt 0.7539063 0.25
vt 0.5 0.28125
vt 0.5039063 0.28125
vt 0.5039063 0.296875
vt 0.5 0.296875
vt 0.00390625 0.90625
vt 0.0078125 0.90625
vt 0.01171875 0.90625
vt 0.015625 0.90625
vt 0.5 0.25
vt 0.5039063 0.25
vt 0.5039063 0.265625
vt 0.5 0.265625
vt 0.5 0.3125
vt 0.5039063 0.3125
vt 0.5039063 0.328125
vt 0.5 0.328125
vt 0.7539063 0.296875
vt 0.75 0.296875

# Normal
vn 0 0 -1

# Mesh description
g MainMenu_mesh_0015

# Faces
f 1/1/1 2/2/1 3/3/1 4/4/1
f 5/2/1 6/5/1 7/6/1 8/3/1
f 9/5/1 10/7/1 11/8/1 12/6/1
f 13/7/1 14/9/1 15/10/1 16/8/1
f 17/9/1 18/11/1 19/12/1 20/10/1
f 21/9/1 22/11/1 23/12/1 24/10/1
f 25/9/1 26/11/1 27/12/1 28/10/1
f 29/11/1 30/13/1 31/14/1 32/12/1
f 33/13/1 34/15/1 35/16/1 36/14/1
f 37/13/1 38/15/1 39/16/1 40/14/1
f 41/13/1 42/15/1 43/16/1 44/14/1
f 45/13/1 46/15/1 47/16/1 48/14/1
f 49/13/1 50/15/1 51/16/1 52/14/1
f 53/15/1 54/17/1 55/18/1 56/16/1
f 57/1/1 58/2/1 59/3/1 60/4/1
f 61/2/1 62/5/1 63/6/1 64/3/1
f 65/5/1 66/7/1 67/8/1 68/6/1
f 69/7/1 70/9/1 71/10/1 72/8/1
f 73/10/1 74/12/1 75/19/1 76/20/1
f 77/10/1 78/12/1 79/19/1 80/20/1
f 81/9/1 82/11/1 83/12/1 84/10/1
f 85/11/1 86/13/1 87/14/1 88/12/1
f 89/13/1 90/15/1 91/16/1 92/14/1
f 93/13/1 94/15/1 95/16/1 96/14/1
f 97/13/1 98/15/1 99/16/1 100/14/1
f 101/13/1 102/15/1 103/16/1 104/14/1
f 105/13/1 106/15/1 107/16/1 108/14/1
f 109/15/1 110/17/1 111/18/1 112/16/1
f 113/1/1 114/2/1 115/3/1 116/4/1
f 117/2/1 118/5/1 119/6/1 120/3/1
f 121/5/1 122/7/1 123/8/1 124/6/1
f 125/7/1 126/9/1 127/10/1 128/8/1
f 129/9/1 130/11/1 131/12/1 132/10/1
f 133/9/1 134/11/1 135/12/1 136/10/1
f 137/9/1 138/11/1 139/12/1 140/10/1
f 141/11/1 142/13/1 143/14/1 144/12/1
f 145/13/1 146/15/1 147/16/1 148/14/1
f 149/13/1 150/15/1 151/16/1 152/14/1
f 153/13/1 154/15/1 155/16/1 156/14/1
f 157/13/1 158/15/1 159/16/1 160/14/1
f 161/13/1 162/15/1 163/16/1 164/14/1
f 165/15/1 166/17/1 167/18/1 168/16/1
f 169/1/1 170/2/1 171/3/1 172/4/1
f 173/2/1 174/5/1 175/6/1 176/3/1
f 177/5/1 178/7/1 179/8/1 180/6/1
f 181/7/1 182/9/1 183/10/1 184/8/1
f 185/9/1 186/11/1 187/12/1 188/10/1
f 189/10/1 190/12/1 191/19/1 192/20/1
f 193/10/1 194/12/1 195/19/1 196/20/1
f 197/11/1 198/13/1 199/14/1 200/12/1
f 201/13/1 202/15/1 203/16/1 204/14/1
f 205/13/1 206/15/1 207/16/1 208/14/1
f 209/13/1 210/15/1 211/16/1 212/14/1
f 213/13/1 214/15/1 215/16/1 216/14/1
f 217/13/1 218/15/1 219/16/1 220/14/1
f 221/15/1 222/17/1 223/18/1 224/16/1
f 225/21/1 226/22/1 227/15/1 228/13/1
f 229/21/1 230/22/1 231/15/1 232/13/1
f 233/1/1 234/2/1 235/3/1 236/4/1
f 237/2/1 238/5/1 239/6/1 240/3/1
f 241/5/1 242/7/1 243/8/1 244/6/1
f 245/7/1 246/9/1 247/10/1 248/8/1
f 249/9/1 250/11/1 251/12/1 252/10/1
f 253/9/1 254/11/1 255/12/1 256/10/1
f 257/9/1 258/11/1 259/12/1 260/10/1
f 261/11/1 262/13/1 263/14/1 264/12/1
f 265/13/1 266/15/1 267/16/1 268/14/1
f 269/13/1 270/15/1 271/16/1 272/14/1
f 273/13/1 274/15/1 275/16/1 276/14/1
f 277/13/1 278/15/1 279/16/1 280/14/1
f 281/13/1 282/15/1 283/16/1 284/14/1
f 285/15/1 286/17/1 287/18/1 288/16/1
f 289/23/1 290/24/1 291/25/1 292/26/1
f 293/27/1 294/28/1 295/29/1 296/30/1
f 297/21/1 298/22/1 299/15/1 300/13/1
f 301/21/1 302/22/1 303/15/1 304/13/1
f 305/21/1 306/22/1 307/15/1 308/13/1
f 309/22/1 310/31/1 311/17/1 312/15/1
f 313/32/1 314/33/1 315/11/1 316/9/1
f 317/32/1 318/33/1 319/11/1 320/9/1
f 321/32/1 322/33/1 323/11/1 324/9/1
f 325/33/1 326/21/1 327/13/1 328/11/1
f 329/21/1 330/22/1 331/15/1 332/13/1
f 333/21/1 334/22/1 335/15/1 336/13/1
f 337/21/1 338/22/1 339/15/1 340/13/1
f 341/21/1 342/22/1 343/15/1 344/13/1
f 345/21/1 346/22/1 347/15/1 348/13/1
f 349/22/1 350/31/1 351/17/1 352/15/1
f 353/34/1 354/35/1 355/28/1 356/27/1
f 357/34/1 358/35/1 359/28/1 360/27/1
f 361/36/1 362/37/1 363/38/1 364/39/1
f 365/36/1 366/37/1 367/38/1 368/39/1
f 369/40/1 370/41/1 371/2/1 372/1/1
f 373/41/1 374/42/1 375/5/1 376/2/1
f 377/42/1 378/43/1 379/7/1 380/5/1
f 381/44/1 382/45/1 383/46/1 384/47/1
f 385/36/1 386/37/1 387/38/1 388/39/1
f 389/48/1 390/49/1 391/50/1 392/51/1
f 393/36/1 394/37/1 395/38/1 396/39/1
f 397/47/1 398/46/1 399/37/1 400/36/1
f 401/39/1 402/38/1 403/49/1 404/48/1
f 405/44/1 406/45/1 407/46/1 408/47/1
f 409/42/1 410/43/1 411/7/1 412/5/1
f 413/48/1 414/49/1 415/50/1 416/51/1
f 417/30/1 418/29/1 419/52/1 420/53/1
f 421/30/1 422/29/1 423/52/1 424/53/1
f 425/42/1 426/43/1 427/7/1 428/5/1
f 429/39/1 430/38/1 431/49/1 432/48/1
f 433/42/1 434/43/1 435/7/1 436/5/1
f 437/47/1 438/46/1 439/37/1 440/36/1
f 441/48/1 442/49/1 443/50/1 444/51/1
f 445/48/1 446/49/1 447/50/1 448/51/1
f 449/42/1 450/43/1 451/7/1 452/5/1
f 453/48/1 454/49/1 455/50/1 456/51/1
f 457/44/1 458/45/1 459/46/1 460/47/1
f 461/44/1 462/45/1 463/46/1 464/47/1
f 465/47/1 466/46/1 467/37/1 468/36/1
f 469/48/1 470/49/1 471/50/1 472/51/1
f 473/48/1 474/49/1 475/50/1 476/51/1
f 477/36/1 478/37/1 479/38/1 480/39/1
f 481/53/1 482/52/1 483/24/1 484/23/1
f 485/53/1 486/52/1 487/24/1 488/23/1
f 489/42/1 490/43/1 491/7/1 492/5/1
f 493/36/1 494/37/1 495/38/1 496/39/1
f 497/39/1 498/38/1 499/49/1 500/48/1
f 501/48/1 502/49/1 503/50/1 504/51/1
f 505/47/1 506/46/1 507/37/1 508/36/1
f 509/44/1 510/45/1 511/46/1 512/47/1
f 513/47/1 514/46/1 515/37/1 516/36/1
f 517/36/1 518/37/1 519/38/1 520/39/1
f 521/44/1 522/45/1 523/46/1 524/47/1
f 525/41/1 526/42/1 527/5/1 528/2/1
f 529/42/1 530/43/1 531/7/1 532/5/1
f 533/36/1 534/37/1 535/38/1 536/39/1
f 537/47/1 538/46/1 539/37/1 540/36/1
f 541/39/1 542/38/1 543/49/1 544/48/1
f 545/53/1 546/52/1 547/24/1 548/23/1
f 549/34/1 550/35/1 551/28/1 552/27/1
f 553/36/1 554/37/1 555/38/1 556/39/1
f 557/36/1 558/37/1 559/38/1 560/39/1
f 561/48/1 562/49/1 563/50/1 564/51/1
f 565/41/1 566/42/1 567/5/1 568/2/1
f 569/42/1 570/43/1 571/7/1 572/5/1
f 573/43/1 574/32/1 575/9/1 576/7/1
f 577/36/1 578/37/1 579/38/1 580/39/1
f 581/36/1 582/37/1 583/38/1 584/39/1
f 585/44/1 586/45/1 587/46/1 588/47/1
f 589/39/1 590/38/1 591/49/1 592/48/1
f 593/41/1 594/42/1 595/5/1 596/2/1
f 597/42/1 598/43/1 599/7/1 600/5/1
f 601/39/1 602/38/1 603/49/1 604/48/1
f 605/48/1 606/49/1 607/50/1 608/51/1
f 609/30/1 610/29/1 611/52/1 612/53/1
f 613/53/1 614/52/1 615/24/1 616/23/1

