# Tiled2Unity generated file. Do not modify by hand.
# Wavefront file for 'MainMenu_mesh_0021.obj'

# Vertices (Count = 144)
v 0 -32 0
v -16 -32 0
v -16 -16 0
v 0 -16 0
v -16 -32 0
v -32 -32 0
v -32 -16 0
v -16 -16 0
v -176 -32 0
v -192 -32 0
v -192 -16 0
v -176 -16 0
v 0 -48 0
v -16 -48 0
v -16 -32 0
v 0 -32 0
v -16 -48 0
v -32 -48 0
v -32 -32 0
v -16 -32 0
v -176 -48 0
v -192 -48 0
v -192 -32 0
v -176 -32 0
v 0 -64 0
v -16 -64 0
v -16 -48 0
v 0 -48 0
v -16 -64 0
v -32 -64 0
v -32 -48 0
v -16 -48 0
v -96 -64 0
v -112 -64 0
v -112 -48 0
v -96 -48 0
v -112 -64 0
v -128 -64 0
v -128 -48 0
v -112 -48 0
v -128 -64 0
v -144 -64 0
v -144 -48 0
v -128 -48 0
v -176 -64 0
v -192 -64 0
v -192 -48 0
v -176 -48 0
v 0 -80 0
v -16 -80 0
v -16 -64 0
v 0 -64 0
v -16 -80 0
v -32 -80 0
v -32 -64 0
v -16 -64 0
v -96 -80 0
v -112 -80 0
v -112 -64 0
v -96 -64 0
v -112 -80 0
v -128 -80 0
v -128 -64 0
v -112 -64 0
v -128 -80 0
v -144 -80 0
v -144 -64 0
v -128 -64 0
v -176 -80 0
v -192 -80 0
v -192 -64 0
v -176 -64 0
v 0 -96 0
v -16 -96 0
v -16 -80 0
v 0 -80 0
v -16 -96 0
v -32 -96 0
v -32 -80 0
v -16 -80 0
v -96 -96 0
v -112 -96 0
v -112 -80 0
v -96 -80 0
v -112 -96 0
v -128 -96 0
v -128 -80 0
v -112 -80 0
v -128 -96 0
v -144 -96 0
v -144 -80 0
v -128 -80 0
v -176 -96 0
v -192 -96 0
v -192 -80 0
v -176 -80 0
v 0 -112 0
v -16 -112 0
v -16 -96 0
v 0 -96 0
v -96 -112 0
v -112 -112 0
v -112 -96 0
v -96 -96 0
v -112 -112 0
v -128 -112 0
v -128 -96 0
v -112 -96 0
v -128 -112 0
v -144 -112 0
v -144 -96 0
v -128 -96 0
v -176 -112 0
v -192 -112 0
v -192 -96 0
v -176 -96 0
v 0 -128 0
v -16 -128 0
v -16 -112 0
v 0 -112 0
v -176 -128 0
v -192 -128 0
v -192 -112 0
v -176 -112 0
v 0 -144 0
v -16 -144 0
v -16 -128 0
v 0 -128 0
v -176 -144 0
v -192 -144 0
v -192 -128 0
v -176 -128 0
v 0 -160 0
v -16 -160 0
v -16 -144 0
v 0 -144 0
v -176 -160 0
v -192 -160 0
v -192 -144 0
v -176 -144 0
v 0 -176 0
v -16 -176 0
v -16 -160 0
v 0 -160 0

# Texture cooridinates (Count = 28)
vt 0.9453125 0.6875
vt 0.9492188 0.6875
vt 0.9492188 0.703125
vt 0.9453125 0.703125
vt 0.9453125 0.671875
vt 0.9492188 0.671875
vt 0.8554688 0.875
vt 0.859375 0.875
vt 0.859375 0.890625
vt 0.8554688 0.890625
vt 0.8632813 0.875
vt 0.8632813 0.890625
vt 0.8671875 0.875
vt 0.8671875 0.890625
vt 0.9453125 0.65625
vt 0.9492188 0.65625
vt 0.8554688 0.859375
vt 0.859375 0.859375
vt 0.8632813 0.859375
vt 0.8671875 0.859375
vt 0.8554688 0.84375
vt 0.859375 0.84375
vt 0.8632813 0.84375
vt 0.8671875 0.84375
vt 0.8554688 0.828125
vt 0.859375 0.828125
vt 0.8632813 0.828125
vt 0.8671875 0.828125

# Normal
vn 0 0 -1

# Mesh description
g MainMenu_mesh_0021

# Faces
f 1/1/1 2/2/1 3/3/1 4/4/1
f 5/1/1 6/2/1 7/3/1 8/4/1
f 9/1/1 10/2/1 11/3/1 12/4/1
f 13/1/1 14/2/1 15/3/1 16/4/1
f 17/1/1 18/2/1 19/3/1 20/4/1
f 21/5/1 22/6/1 23/2/1 24/1/1
f 25/1/1 26/2/1 27/3/1 28/4/1
f 29/1/1 30/2/1 31/3/1 32/4/1
f 33/7/1 34/8/1 35/9/1 36/10/1
f 37/8/1 38/11/1 39/12/1 40/9/1
f 41/11/1 42/13/1 43/14/1 44/12/1
f 45/15/1 46/16/1 47/6/1 48/5/1
f 49/1/1 50/2/1 51/3/1 52/4/1
f 53/5/1 54/6/1 55/2/1 56/1/1
f 57/17/1 58/18/1 59/8/1 60/7/1
f 61/18/1 62/19/1 63/11/1 64/8/1
f 65/19/1 66/20/1 67/13/1 68/11/1
f 69/15/1 70/16/1 71/6/1 72/5/1
f 73/1/1 74/2/1 75/3/1 76/4/1
f 77/15/1 78/16/1 79/6/1 80/5/1
f 81/21/1 82/22/1 83/18/1 84/17/1
f 85/22/1 86/23/1 87/19/1 88/18/1
f 89/23/1 90/24/1 91/20/1 92/19/1
f 93/15/1 94/16/1 95/6/1 96/5/1
f 97/1/1 98/2/1 99/3/1 100/4/1
f 101/25/1 102/26/1 103/22/1 104/21/1
f 105/26/1 106/27/1 107/23/1 108/22/1
f 109/27/1 110/28/1 111/24/1 112/23/1
f 113/15/1 114/16/1 115/6/1 116/5/1
f 117/1/1 118/2/1 119/3/1 120/4/1
f 121/15/1 122/16/1 123/6/1 124/5/1
f 125/1/1 126/2/1 127/3/1 128/4/1
f 129/15/1 130/16/1 131/6/1 132/5/1
f 133/5/1 134/6/1 135/2/1 136/1/1
f 137/15/1 138/16/1 139/6/1 140/5/1
f 141/15/1 142/16/1 143/6/1 144/5/1

