# Tiled2Unity generated file. Do not modify by hand.
# Wavefront file for 'TitleIntro_mesh_0050.obj'

# Vertices (Count = 1024)
v 0 -16 0
v -16 -16 0
v -16 0 0
v 0 0 0
v -16 -16 0
v -32 -16 0
v -32 0 0
v -16 0 0
v -32 -16 0
v -48 -16 0
v -48 0 0
v -32 0 0
v -48 -16 0
v -64 -16 0
v -64 0 0
v -48 0 0
v -64 -16 0
v -80 -16 0
v -80 0 0
v -64 0 0
v -80 -16 0
v -96 -16 0
v -96 0 0
v -80 0 0
v -96 -16 0
v -112 -16 0
v -112 0 0
v -96 0 0
v -112 -16 0
v -128 -16 0
v -128 0 0
v -112 0 0
v -128 -16 0
v -144 -16 0
v -144 0 0
v -128 0 0
v -144 -16 0
v -160 -16 0
v -160 0 0
v -144 0 0
v -160 -16 0
v -176 -16 0
v -176 0 0
v -160 0 0
v -176 -16 0
v -192 -16 0
v -192 0 0
v -176 0 0
v -192 -16 0
v -208 -16 0
v -208 0 0
v -192 0 0
v -208 -16 0
v -224 -16 0
v -224 0 0
v -208 0 0
v -224 -16 0
v -240 -16 0
v -240 0 0
v -224 0 0
v -240 -16 0
v -256 -16 0
v -256 0 0
v -240 0 0
v 0 -32 0
v -16 -32 0
v -16 -16 0
v 0 -16 0
v -16 -32 0
v -32 -32 0
v -32 -16 0
v -16 -16 0
v -32 -32 0
v -48 -32 0
v -48 -16 0
v -32 -16 0
v -48 -32 0
v -64 -32 0
v -64 -16 0
v -48 -16 0
v -64 -32 0
v -80 -32 0
v -80 -16 0
v -64 -16 0
v -80 -32 0
v -96 -32 0
v -96 -16 0
v -80 -16 0
v -96 -32 0
v -112 -32 0
v -112 -16 0
v -96 -16 0
v -112 -32 0
v -128 -32 0
v -128 -16 0
v -112 -16 0
v -128 -32 0
v -144 -32 0
v -144 -16 0
v -128 -16 0
v -144 -32 0
v -160 -32 0
v -160 -16 0
v -144 -16 0
v -160 -32 0
v -176 -32 0
v -176 -16 0
v -160 -16 0
v -176 -32 0
v -192 -32 0
v -192 -16 0
v -176 -16 0
v -192 -32 0
v -208 -32 0
v -208 -16 0
v -192 -16 0
v -208 -32 0
v -224 -32 0
v -224 -16 0
v -208 -16 0
v -224 -32 0
v -240 -32 0
v -240 -16 0
v -224 -16 0
v -240 -32 0
v -256 -32 0
v -256 -16 0
v -240 -16 0
v 0 -48 0
v -16 -48 0
v -16 -32 0
v 0 -32 0
v -16 -48 0
v -32 -48 0
v -32 -32 0
v -16 -32 0
v -32 -48 0
v -48 -48 0
v -48 -32 0
v -32 -32 0
v -48 -48 0
v -64 -48 0
v -64 -32 0
v -48 -32 0
v -64 -48 0
v -80 -48 0
v -80 -32 0
v -64 -32 0
v -80 -48 0
v -96 -48 0
v -96 -32 0
v -80 -32 0
v -96 -48 0
v -112 -48 0
v -112 -32 0
v -96 -32 0
v -112 -48 0
v -128 -48 0
v -128 -32 0
v -112 -32 0
v -128 -48 0
v -144 -48 0
v -144 -32 0
v -128 -32 0
v -144 -48 0
v -160 -48 0
v -160 -32 0
v -144 -32 0
v -160 -48 0
v -176 -48 0
v -176 -32 0
v -160 -32 0
v -176 -48 0
v -192 -48 0
v -192 -32 0
v -176 -32 0
v -192 -48 0
v -208 -48 0
v -208 -32 0
v -192 -32 0
v -208 -48 0
v -224 -48 0
v -224 -32 0
v -208 -32 0
v -224 -48 0
v -240 -48 0
v -240 -32 0
v -224 -32 0
v -240 -48 0
v -256 -48 0
v -256 -32 0
v -240 -32 0
v 0 -64 0
v -16 -64 0
v -16 -48 0
v 0 -48 0
v -16 -64 0
v -32 -64 0
v -32 -48 0
v -16 -48 0
v -32 -64 0
v -48 -64 0
v -48 -48 0
v -32 -48 0
v -48 -64 0
v -64 -64 0
v -64 -48 0
v -48 -48 0
v -64 -64 0
v -80 -64 0
v -80 -48 0
v -64 -48 0
v -80 -64 0
v -96 -64 0
v -96 -48 0
v -80 -48 0
v -96 -64 0
v -112 -64 0
v -112 -48 0
v -96 -48 0
v -112 -64 0
v -128 -64 0
v -128 -48 0
v -112 -48 0
v -128 -64 0
v -144 -64 0
v -144 -48 0
v -128 -48 0
v -144 -64 0
v -160 -64 0
v -160 -48 0
v -144 -48 0
v -160 -64 0
v -176 -64 0
v -176 -48 0
v -160 -48 0
v -176 -64 0
v -192 -64 0
v -192 -48 0
v -176 -48 0
v -192 -64 0
v -208 -64 0
v -208 -48 0
v -192 -48 0
v -208 -64 0
v -224 -64 0
v -224 -48 0
v -208 -48 0
v -224 -64 0
v -240 -64 0
v -240 -48 0
v -224 -48 0
v -240 -64 0
v -256 -64 0
v -256 -48 0
v -240 -48 0
v 0 -80 0
v -16 -80 0
v -16 -64 0
v 0 -64 0
v -16 -80 0
v -32 -80 0
v -32 -64 0
v -16 -64 0
v -32 -80 0
v -48 -80 0
v -48 -64 0
v -32 -64 0
v -48 -80 0
v -64 -80 0
v -64 -64 0
v -48 -64 0
v -64 -80 0
v -80 -80 0
v -80 -64 0
v -64 -64 0
v -80 -80 0
v -96 -80 0
v -96 -64 0
v -80 -64 0
v -96 -80 0
v -112 -80 0
v -112 -64 0
v -96 -64 0
v -112 -80 0
v -128 -80 0
v -128 -64 0
v -112 -64 0
v -128 -80 0
v -144 -80 0
v -144 -64 0
v -128 -64 0
v -144 -80 0
v -160 -80 0
v -160 -64 0
v -144 -64 0
v -160 -80 0
v -176 -80 0
v -176 -64 0
v -160 -64 0
v -176 -80 0
v -192 -80 0
v -192 -64 0
v -176 -64 0
v -192 -80 0
v -208 -80 0
v -208 -64 0
v -192 -64 0
v -208 -80 0
v -224 -80 0
v -224 -64 0
v -208 -64 0
v -224 -80 0
v -240 -80 0
v -240 -64 0
v -224 -64 0
v -240 -80 0
v -256 -80 0
v -256 -64 0
v -240 -64 0
v 0 -96 0
v -16 -96 0
v -16 -80 0
v 0 -80 0
v -16 -96 0
v -32 -96 0
v -32 -80 0
v -16 -80 0
v -32 -96 0
v -48 -96 0
v -48 -80 0
v -32 -80 0
v -48 -96 0
v -64 -96 0
v -64 -80 0
v -48 -80 0
v -64 -96 0
v -80 -96 0
v -80 -80 0
v -64 -80 0
v -80 -96 0
v -96 -96 0
v -96 -80 0
v -80 -80 0
v -96 -96 0
v -112 -96 0
v -112 -80 0
v -96 -80 0
v -112 -96 0
v -128 -96 0
v -128 -80 0
v -112 -80 0
v -128 -96 0
v -144 -96 0
v -144 -80 0
v -128 -80 0
v -144 -96 0
v -160 -96 0
v -160 -80 0
v -144 -80 0
v -160 -96 0
v -176 -96 0
v -176 -80 0
v -160 -80 0
v -176 -96 0
v -192 -96 0
v -192 -80 0
v -176 -80 0
v -192 -96 0
v -208 -96 0
v -208 -80 0
v -192 -80 0
v -208 -96 0
v -224 -96 0
v -224 -80 0
v -208 -80 0
v -224 -96 0
v -240 -96 0
v -240 -80 0
v -224 -80 0
v -240 -96 0
v -256 -96 0
v -256 -80 0
v -240 -80 0
v 0 -112 0
v -16 -112 0
v -16 -96 0
v 0 -96 0
v -16 -112 0
v -32 -112 0
v -32 -96 0
v -16 -96 0
v -32 -112 0
v -48 -112 0
v -48 -96 0
v -32 -96 0
v -48 -112 0
v -64 -112 0
v -64 -96 0
v -48 -96 0
v -64 -112 0
v -80 -112 0
v -80 -96 0
v -64 -96 0
v -80 -112 0
v -96 -112 0
v -96 -96 0
v -80 -96 0
v -96 -112 0
v -112 -112 0
v -112 -96 0
v -96 -96 0
v -112 -112 0
v -128 -112 0
v -128 -96 0
v -112 -96 0
v -128 -112 0
v -144 -112 0
v -144 -96 0
v -128 -96 0
v -144 -112 0
v -160 -112 0
v -160 -96 0
v -144 -96 0
v -160 -112 0
v -176 -112 0
v -176 -96 0
v -160 -96 0
v -176 -112 0
v -192 -112 0
v -192 -96 0
v -176 -96 0
v -192 -112 0
v -208 -112 0
v -208 -96 0
v -192 -96 0
v -208 -112 0
v -224 -112 0
v -224 -96 0
v -208 -96 0
v -224 -112 0
v -240 -112 0
v -240 -96 0
v -224 -96 0
v -240 -112 0
v -256 -112 0
v -256 -96 0
v -240 -96 0
v 0 -128 0
v -16 -128 0
v -16 -112 0
v 0 -112 0
v -16 -128 0
v -32 -128 0
v -32 -112 0
v -16 -112 0
v -32 -128 0
v -48 -128 0
v -48 -112 0
v -32 -112 0
v -48 -128 0
v -64 -128 0
v -64 -112 0
v -48 -112 0
v -64 -128 0
v -80 -128 0
v -80 -112 0
v -64 -112 0
v -80 -128 0
v -96 -128 0
v -96 -112 0
v -80 -112 0
v -96 -128 0
v -112 -128 0
v -112 -112 0
v -96 -112 0
v -112 -128 0
v -128 -128 0
v -128 -112 0
v -112 -112 0
v -128 -128 0
v -144 -128 0
v -144 -112 0
v -128 -112 0
v -144 -128 0
v -160 -128 0
v -160 -112 0
v -144 -112 0
v -160 -128 0
v -176 -128 0
v -176 -112 0
v -160 -112 0
v -176 -128 0
v -192 -128 0
v -192 -112 0
v -176 -112 0
v -192 -128 0
v -208 -128 0
v -208 -112 0
v -192 -112 0
v -208 -128 0
v -224 -128 0
v -224 -112 0
v -208 -112 0
v -224 -128 0
v -240 -128 0
v -240 -112 0
v -224 -112 0
v -240 -128 0
v -256 -128 0
v -256 -112 0
v -240 -112 0
v 0 -144 0
v -16 -144 0
v -16 -128 0
v 0 -128 0
v -16 -144 0
v -32 -144 0
v -32 -128 0
v -16 -128 0
v -32 -144 0
v -48 -144 0
v -48 -128 0
v -32 -128 0
v -48 -144 0
v -64 -144 0
v -64 -128 0
v -48 -128 0
v -64 -144 0
v -80 -144 0
v -80 -128 0
v -64 -128 0
v -80 -144 0
v -96 -144 0
v -96 -128 0
v -80 -128 0
v -96 -144 0
v -112 -144 0
v -112 -128 0
v -96 -128 0
v -112 -144 0
v -128 -144 0
v -128 -128 0
v -112 -128 0
v -128 -144 0
v -144 -144 0
v -144 -128 0
v -128 -128 0
v -144 -144 0
v -160 -144 0
v -160 -128 0
v -144 -128 0
v -160 -144 0
v -176 -144 0
v -176 -128 0
v -160 -128 0
v -176 -144 0
v -192 -144 0
v -192 -128 0
v -176 -128 0
v -192 -144 0
v -208 -144 0
v -208 -128 0
v -192 -128 0
v -208 -144 0
v -224 -144 0
v -224 -128 0
v -208 -128 0
v -224 -144 0
v -240 -144 0
v -240 -128 0
v -224 -128 0
v -240 -144 0
v -256 -144 0
v -256 -128 0
v -240 -128 0
v 0 -160 0
v -16 -160 0
v -16 -144 0
v 0 -144 0
v -16 -160 0
v -32 -160 0
v -32 -144 0
v -16 -144 0
v -32 -160 0
v -48 -160 0
v -48 -144 0
v -32 -144 0
v -48 -160 0
v -64 -160 0
v -64 -144 0
v -48 -144 0
v -64 -160 0
v -80 -160 0
v -80 -144 0
v -64 -144 0
v -80 -160 0
v -96 -160 0
v -96 -144 0
v -80 -144 0
v -96 -160 0
v -112 -160 0
v -112 -144 0
v -96 -144 0
v -112 -160 0
v -128 -160 0
v -128 -144 0
v -112 -144 0
v -128 -160 0
v -144 -160 0
v -144 -144 0
v -128 -144 0
v -144 -160 0
v -160 -160 0
v -160 -144 0
v -144 -144 0
v -160 -160 0
v -176 -160 0
v -176 -144 0
v -160 -144 0
v -176 -160 0
v -192 -160 0
v -192 -144 0
v -176 -144 0
v -192 -160 0
v -208 -160 0
v -208 -144 0
v -192 -144 0
v -208 -160 0
v -224 -160 0
v -224 -144 0
v -208 -144 0
v -224 -160 0
v -240 -160 0
v -240 -144 0
v -224 -144 0
v -240 -160 0
v -256 -160 0
v -256 -144 0
v -240 -144 0
v 0 -176 0
v -16 -176 0
v -16 -160 0
v 0 -160 0
v -16 -176 0
v -32 -176 0
v -32 -160 0
v -16 -160 0
v -32 -176 0
v -48 -176 0
v -48 -160 0
v -32 -160 0
v -48 -176 0
v -64 -176 0
v -64 -160 0
v -48 -160 0
v -64 -176 0
v -80 -176 0
v -80 -160 0
v -64 -160 0
v -80 -176 0
v -96 -176 0
v -96 -160 0
v -80 -160 0
v -96 -176 0
v -112 -176 0
v -112 -160 0
v -96 -160 0
v -112 -176 0
v -128 -176 0
v -128 -160 0
v -112 -160 0
v -128 -176 0
v -144 -176 0
v -144 -160 0
v -128 -160 0
v -144 -176 0
v -160 -176 0
v -160 -160 0
v -144 -160 0
v -160 -176 0
v -176 -176 0
v -176 -160 0
v -160 -160 0
v -176 -176 0
v -192 -176 0
v -192 -160 0
v -176 -160 0
v -192 -176 0
v -208 -176 0
v -208 -160 0
v -192 -160 0
v -208 -176 0
v -224 -176 0
v -224 -160 0
v -208 -160 0
v -224 -176 0
v -240 -176 0
v -240 -160 0
v -224 -160 0
v -240 -176 0
v -256 -176 0
v -256 -160 0
v -240 -160 0
v 0 -192 0
v -16 -192 0
v -16 -176 0
v 0 -176 0
v -16 -192 0
v -32 -192 0
v -32 -176 0
v -16 -176 0
v -32 -192 0
v -48 -192 0
v -48 -176 0
v -32 -176 0
v -48 -192 0
v -64 -192 0
v -64 -176 0
v -48 -176 0
v -64 -192 0
v -80 -192 0
v -80 -176 0
v -64 -176 0
v -80 -192 0
v -96 -192 0
v -96 -176 0
v -80 -176 0
v -96 -192 0
v -112 -192 0
v -112 -176 0
v -96 -176 0
v -112 -192 0
v -128 -192 0
v -128 -176 0
v -112 -176 0
v -128 -192 0
v -144 -192 0
v -144 -176 0
v -128 -176 0
v -144 -192 0
v -160 -192 0
v -160 -176 0
v -144 -176 0
v -160 -192 0
v -176 -192 0
v -176 -176 0
v -160 -176 0
v -176 -192 0
v -192 -192 0
v -192 -176 0
v -176 -176 0
v -192 -192 0
v -208 -192 0
v -208 -176 0
v -192 -176 0
v -208 -192 0
v -224 -192 0
v -224 -176 0
v -208 -176 0
v -224 -192 0
v -240 -192 0
v -240 -176 0
v -224 -176 0
v -240 -192 0
v -256 -192 0
v -256 -176 0
v -240 -176 0
v 0 -208 0
v -16 -208 0
v -16 -192 0
v 0 -192 0
v -16 -208 0
v -32 -208 0
v -32 -192 0
v -16 -192 0
v -32 -208 0
v -48 -208 0
v -48 -192 0
v -32 -192 0
v -48 -208 0
v -64 -208 0
v -64 -192 0
v -48 -192 0
v -64 -208 0
v -80 -208 0
v -80 -192 0
v -64 -192 0
v -80 -208 0
v -96 -208 0
v -96 -192 0
v -80 -192 0
v -96 -208 0
v -112 -208 0
v -112 -192 0
v -96 -192 0
v -112 -208 0
v -128 -208 0
v -128 -192 0
v -112 -192 0
v -128 -208 0
v -144 -208 0
v -144 -192 0
v -128 -192 0
v -144 -208 0
v -160 -208 0
v -160 -192 0
v -144 -192 0
v -160 -208 0
v -176 -208 0
v -176 -192 0
v -160 -192 0
v -176 -208 0
v -192 -208 0
v -192 -192 0
v -176 -192 0
v -192 -208 0
v -208 -208 0
v -208 -192 0
v -192 -192 0
v -208 -208 0
v -224 -208 0
v -224 -192 0
v -208 -192 0
v -224 -208 0
v -240 -208 0
v -240 -192 0
v -224 -192 0
v -240 -208 0
v -256 -208 0
v -256 -192 0
v -240 -192 0
v 0 -224 0
v -16 -224 0
v -16 -208 0
v 0 -208 0
v -16 -224 0
v -32 -224 0
v -32 -208 0
v -16 -208 0
v -32 -224 0
v -48 -224 0
v -48 -208 0
v -32 -208 0
v -48 -224 0
v -64 -224 0
v -64 -208 0
v -48 -208 0
v -64 -224 0
v -80 -224 0
v -80 -208 0
v -64 -208 0
v -80 -224 0
v -96 -224 0
v -96 -208 0
v -80 -208 0
v -96 -224 0
v -112 -224 0
v -112 -208 0
v -96 -208 0
v -112 -224 0
v -128 -224 0
v -128 -208 0
v -112 -208 0
v -128 -224 0
v -144 -224 0
v -144 -208 0
v -128 -208 0
v -144 -224 0
v -160 -224 0
v -160 -208 0
v -144 -208 0
v -160 -224 0
v -176 -224 0
v -176 -208 0
v -160 -208 0
v -176 -224 0
v -192 -224 0
v -192 -208 0
v -176 -208 0
v -192 -224 0
v -208 -224 0
v -208 -208 0
v -192 -208 0
v -208 -224 0
v -224 -224 0
v -224 -208 0
v -208 -208 0
v -224 -224 0
v -240 -224 0
v -240 -208 0
v -224 -208 0
v -240 -224 0
v -256 -224 0
v -256 -208 0
v -240 -208 0
v 0 -240 0
v -16 -240 0
v -16 -224 0
v 0 -224 0
v -16 -240 0
v -32 -240 0
v -32 -224 0
v -16 -224 0
v -32 -240 0
v -48 -240 0
v -48 -224 0
v -32 -224 0
v -48 -240 0
v -64 -240 0
v -64 -224 0
v -48 -224 0
v -64 -240 0
v -80 -240 0
v -80 -224 0
v -64 -224 0
v -80 -240 0
v -96 -240 0
v -96 -224 0
v -80 -224 0
v -96 -240 0
v -112 -240 0
v -112 -224 0
v -96 -224 0
v -112 -240 0
v -128 -240 0
v -128 -224 0
v -112 -224 0
v -128 -240 0
v -144 -240 0
v -144 -224 0
v -128 -224 0
v -144 -240 0
v -160 -240 0
v -160 -224 0
v -144 -224 0
v -160 -240 0
v -176 -240 0
v -176 -224 0
v -160 -224 0
v -176 -240 0
v -192 -240 0
v -192 -224 0
v -176 -224 0
v -192 -240 0
v -208 -240 0
v -208 -224 0
v -192 -224 0
v -208 -240 0
v -224 -240 0
v -224 -224 0
v -208 -224 0
v -224 -240 0
v -240 -240 0
v -240 -224 0
v -224 -224 0
v -240 -240 0
v -256 -240 0
v -256 -224 0
v -240 -224 0
v 0 -256 0
v -16 -256 0
v -16 -240 0
v 0 -240 0
v -16 -256 0
v -32 -256 0
v -32 -240 0
v -16 -240 0
v -32 -256 0
v -48 -256 0
v -48 -240 0
v -32 -240 0
v -48 -256 0
v -64 -256 0
v -64 -240 0
v -48 -240 0
v -64 -256 0
v -80 -256 0
v -80 -240 0
v -64 -240 0
v -80 -256 0
v -96 -256 0
v -96 -240 0
v -80 -240 0
v -96 -256 0
v -112 -256 0
v -112 -240 0
v -96 -240 0
v -112 -256 0
v -128 -256 0
v -128 -240 0
v -112 -240 0
v -128 -256 0
v -144 -256 0
v -144 -240 0
v -128 -240 0
v -144 -256 0
v -160 -256 0
v -160 -240 0
v -144 -240 0
v -160 -256 0
v -176 -256 0
v -176 -240 0
v -160 -240 0
v -176 -256 0
v -192 -256 0
v -192 -240 0
v -176 -240 0
v -192 -256 0
v -208 -256 0
v -208 -240 0
v -192 -240 0
v -208 -256 0
v -224 -256 0
v -224 -240 0
v -208 -240 0
v -224 -256 0
v -240 -256 0
v -240 -240 0
v -224 -240 0
v -240 -256 0
v -256 -256 0
v -256 -240 0
v -240 -240 0

# Texture cooridinates (Count = 49)
vt 0.01953125 0.46875
vt 0.0234375 0.46875
vt 0.0234375 0.484375
vt 0.01953125 0.484375
vt 0.01953125 0.4375
vt 0.0234375 0.4375
vt 0.0234375 0.453125
vt 0.01953125 0.453125
vt 0.01171875 0.46875
vt 0.015625 0.46875
vt 0.015625 0.484375
vt 0.01171875 0.484375
vt 0.015625 0.4375
vt 0.015625 0.453125
vt 0.02734375 0.40625
vt 0.03125 0.40625
vt 0.03125 0.421875
vt 0.02734375 0.421875
vt 0.02734375 0.453125
vt 0.02734375 0.46875
vt 0.03125 0.4375
vt 0.02734375 0.4375
vt 0.01171875 0.4375
vt 0.01171875 0.453125
vt 0.0078125 0.40625
vt 0.01171875 0.40625
vt 0.01171875 0.421875
vt 0.0078125 0.421875
vt 0.0078125 0.453125
vt 0.0078125 0.46875
vt 0.01953125 0.421875
vt 0.0234375 0.421875
vt 0.02734375 0.390625
vt 0.03125 0.390625
vt 0.03125 0.453125
vt 0.015625 0.40625
vt 0.015625 0.421875
vt 0.01953125 0.390625
vt 0.0234375 0.390625
vt 0.0234375 0.40625
vt 0.01953125 0.40625
vt 0.01171875 0.390625
vt 0.015625 0.390625
vt 0.0078125 0.4375
vt 0.0078125 0.484375
vt 0.03125 0.46875
vt 0.03125 0.484375
vt 0.02734375 0.484375
vt 0.0078125 0.390625

# Normal
vn 0 0 -1

# Mesh description
g TitleIntro_mesh_0050

# Faces
f 1/1/1 2/2/1 3/3/1 4/4/1
f 5/5/1 6/6/1 7/7/1 8/8/1
f 9/9/1 10/10/1 11/11/1 12/12/1
f 13/13/1 14/5/1 15/8/1 16/14/1
f 17/15/1 18/16/1 19/17/1 20/18/1
f 21/9/1 22/10/1 23/11/1 24/12/1
f 25/7/1 26/19/1 27/20/1 28/2/1
f 29/10/1 30/1/1 31/4/1 32/11/1
f 33/18/1 34/17/1 35/21/1 36/22/1
f 37/10/1 38/1/1 39/4/1 40/11/1
f 41/23/1 42/13/1 43/14/1 44/24/1
f 45/18/1 46/17/1 47/21/1 48/22/1
f 49/25/1 50/26/1 51/27/1 52/28/1
f 53/10/1 54/1/1 55/4/1 56/11/1
f 57/15/1 58/16/1 59/17/1 60/18/1
f 61/29/1 62/24/1 63/9/1 64/30/1
f 65/13/1 66/5/1 67/8/1 68/14/1
f 69/31/1 70/32/1 71/6/1 72/5/1
f 73/15/1 74/16/1 75/17/1 76/18/1
f 77/1/1 78/2/1 79/3/1 80/4/1
f 81/14/1 82/8/1 83/1/1 84/10/1
f 85/7/1 86/19/1 87/20/1 88/2/1
f 89/33/1 90/34/1 91/16/1 92/15/1
f 93/22/1 94/21/1 95/35/1 96/19/1
f 97/26/1 98/36/1 99/37/1 100/27/1
f 101/8/1 102/7/1 103/2/1 104/1/1
f 105/38/1 106/39/1 107/40/1 108/41/1
f 109/42/1 110/43/1 111/36/1 112/26/1
f 113/42/1 114/43/1 115/36/1 116/26/1
f 117/41/1 118/40/1 119/32/1 120/31/1
f 121/15/1 122/16/1 123/17/1 124/18/1
f 125/38/1 126/39/1 127/40/1 128/41/1
f 129/39/1 130/33/1 131/15/1 132/40/1
f 133/22/1 134/21/1 135/35/1 136/19/1
f 137/22/1 138/21/1 139/35/1 140/19/1
f 141/25/1 142/26/1 143/27/1 144/28/1
f 145/22/1 146/21/1 147/35/1 148/19/1
f 149/43/1 150/38/1 151/41/1 152/36/1
f 153/13/1 154/5/1 155/8/1 156/14/1
f 157/32/1 158/18/1 159/22/1 160/6/1
f 161/13/1 162/5/1 163/8/1 164/14/1
f 165/22/1 166/21/1 167/35/1 168/19/1
f 169/18/1 170/17/1 171/21/1 172/22/1
f 173/28/1 174/27/1 175/23/1 176/44/1
f 177/24/1 178/14/1 179/10/1 180/9/1
f 181/30/1 182/9/1 183/12/1 184/45/1
f 185/38/1 186/39/1 187/40/1 188/41/1
f 189/28/1 190/27/1 191/23/1 192/44/1
f 193/43/1 194/38/1 195/41/1 196/36/1
f 197/20/1 198/46/1 199/47/1 200/48/1
f 201/29/1 202/24/1 203/9/1 204/30/1
f 205/38/1 206/39/1 207/40/1 208/41/1
f 209/25/1 210/26/1 211/27/1 212/28/1
f 213/33/1 214/34/1 215/16/1 216/15/1
f 217/31/1 218/32/1 219/6/1 220/5/1
f 221/40/1 222/15/1 223/18/1 224/32/1
f 225/41/1 226/40/1 227/32/1 228/31/1
f 229/38/1 230/39/1 231/40/1 232/41/1
f 233/18/1 234/17/1 235/21/1 236/22/1
f 237/1/1 238/2/1 239/3/1 240/4/1
f 241/5/1 242/6/1 243/7/1 244/8/1
f 245/28/1 246/27/1 247/23/1 248/44/1
f 249/44/1 250/23/1 251/24/1 252/29/1
f 253/31/1 254/32/1 255/6/1 256/5/1
f 257/32/1 258/18/1 259/22/1 260/6/1
f 261/1/1 262/2/1 263/3/1 264/4/1
f 265/33/1 266/34/1 267/16/1 268/15/1
f 269/38/1 270/39/1 271/40/1 272/41/1
f 273/31/1 274/32/1 275/6/1 276/5/1
f 277/29/1 278/24/1 279/9/1 280/30/1
f 281/5/1 282/6/1 283/7/1 284/8/1
f 285/31/1 286/32/1 287/6/1 288/5/1
f 289/37/1 290/31/1 291/5/1 292/13/1
f 293/40/1 294/15/1 295/18/1 296/32/1
f 297/28/1 298/27/1 299/23/1 300/44/1
f 301/39/1 302/33/1 303/15/1 304/40/1
f 305/49/1 306/42/1 307/26/1 308/25/1
f 309/31/1 310/32/1 311/6/1 312/5/1
f 313/42/1 314/43/1 315/36/1 316/26/1
f 317/18/1 318/17/1 319/21/1 320/22/1
f 321/5/1 322/6/1 323/7/1 324/8/1
f 325/25/1 326/26/1 327/27/1 328/28/1
f 329/36/1 330/41/1 331/31/1 332/37/1
f 333/37/1 334/31/1 335/5/1 336/13/1
f 337/39/1 338/33/1 339/15/1 340/40/1
f 341/13/1 342/5/1 343/8/1 344/14/1
f 345/1/1 346/2/1 347/3/1 348/4/1
f 349/41/1 350/40/1 351/32/1 352/31/1
f 353/41/1 354/40/1 355/32/1 356/31/1
f 357/2/1 358/20/1 359/48/1 360/3/1
f 361/18/1 362/17/1 363/21/1 364/22/1
f 365/8/1 366/7/1 367/2/1 368/1/1
f 369/9/1 370/10/1 371/11/1 372/12/1
f 373/15/1 374/16/1 375/17/1 376/18/1
f 377/7/1 378/19/1 379/20/1 380/2/1
f 381/7/1 382/19/1 383/20/1 384/2/1
f 385/42/1 386/43/1 387/36/1 388/26/1
f 389/10/1 390/1/1 391/4/1 392/11/1
f 393/41/1 394/40/1 395/32/1 396/31/1
f 397/1/1 398/2/1 399/3/1 400/4/1
f 401/25/1 402/26/1 403/27/1 404/28/1
f 405/18/1 406/17/1 407/21/1 408/22/1
f 409/32/1 410/18/1 411/22/1 412/6/1
f 413/43/1 414/38/1 415/41/1 416/36/1
f 417/41/1 418/40/1 419/32/1 420/31/1
f 421/15/1 422/16/1 423/17/1 424/18/1
f 425/2/1 426/20/1 427/48/1 428/3/1
f 429/37/1 430/31/1 431/5/1 432/13/1
f 433/8/1 434/7/1 435/2/1 436/1/1
f 437/38/1 438/39/1 439/40/1 440/41/1
f 441/31/1 442/32/1 443/6/1 444/5/1
f 445/36/1 446/41/1 447/31/1 448/37/1
f 449/15/1 450/16/1 451/17/1 452/18/1
f 453/24/1 454/14/1 455/10/1 456/9/1
f 457/6/1 458/22/1 459/19/1 460/7/1
f 461/30/1 462/9/1 463/12/1 464/45/1
f 465/20/1 466/46/1 467/47/1 468/48/1
f 469/49/1 470/42/1 471/26/1 472/25/1
f 473/40/1 474/15/1 475/18/1 476/32/1
f 477/9/1 478/10/1 479/11/1 480/12/1
f 481/43/1 482/38/1 483/41/1 484/36/1
f 485/14/1 486/8/1 487/1/1 488/10/1
f 489/43/1 490/38/1 491/41/1 492/36/1
f 493/42/1 494/43/1 495/36/1 496/26/1
f 497/44/1 498/23/1 499/24/1 500/29/1
f 501/15/1 502/16/1 503/17/1 504/18/1
f 505/33/1 506/34/1 507/16/1 508/15/1
f 509/43/1 510/38/1 511/41/1 512/36/1
f 513/36/1 514/41/1 515/31/1 516/37/1
f 517/15/1 518/16/1 519/17/1 520/18/1
f 521/24/1 522/14/1 523/10/1 524/9/1
f 525/10/1 526/1/1 527/4/1 528/11/1
f 529/7/1 530/19/1 531/20/1 532/2/1
f 533/22/1 534/21/1 535/35/1 536/19/1
f 537/19/1 538/35/1 539/46/1 540/20/1
f 541/19/1 542/35/1 543/46/1 544/20/1
f 545/40/1 546/15/1 547/18/1 548/32/1
f 549/5/1 550/6/1 551/7/1 552/8/1
f 553/33/1 554/34/1 555/16/1 556/15/1
f 557/31/1 558/32/1 559/6/1 560/5/1
f 561/40/1 562/15/1 563/18/1 564/32/1
f 565/23/1 566/13/1 567/14/1 568/24/1
f 569/38/1 570/39/1 571/40/1 572/41/1
f 573/1/1 574/2/1 575/3/1 576/4/1
f 577/26/1 578/36/1 579/37/1 580/27/1
f 581/40/1 582/15/1 583/18/1 584/32/1
f 585/1/1 586/2/1 587/3/1 588/4/1
f 589/36/1 590/41/1 591/31/1 592/37/1
f 593/28/1 594/27/1 595/23/1 596/44/1
f 597/14/1 598/8/1 599/1/1 600/10/1
f 601/7/1 602/19/1 603/20/1 604/2/1
f 605/32/1 606/18/1 607/22/1 608/6/1
f 609/18/1 610/17/1 611/21/1 612/22/1
f 613/14/1 614/8/1 615/1/1 616/10/1
f 617/37/1 618/31/1 619/5/1 620/13/1
f 621/19/1 622/35/1 623/46/1 624/20/1
f 625/38/1 626/39/1 627/40/1 628/41/1
f 629/29/1 630/24/1 631/9/1 632/30/1
f 633/28/1 634/27/1 635/23/1 636/44/1
f 637/22/1 638/21/1 639/35/1 640/19/1
f 641/5/1 642/6/1 643/7/1 644/8/1
f 645/5/1 646/6/1 647/7/1 648/8/1
f 649/32/1 650/18/1 651/22/1 652/6/1
f 653/42/1 654/43/1 655/36/1 656/26/1
f 657/18/1 658/17/1 659/21/1 660/22/1
f 661/42/1 662/43/1 663/36/1 664/26/1
f 665/39/1 666/33/1 667/15/1 668/40/1
f 669/49/1 670/42/1 671/26/1 672/25/1
f 673/40/1 674/15/1 675/18/1 676/32/1
f 677/14/1 678/8/1 679/1/1 680/10/1
f 681/7/1 682/19/1 683/20/1 684/2/1
f 685/7/1 686/19/1 687/20/1 688/2/1
f 689/6/1 690/22/1 691/19/1 692/7/1
f 693/6/1 694/22/1 695/19/1 696/7/1
f 697/23/1 698/13/1 699/14/1 700/24/1
f 701/13/1 702/5/1 703/8/1 704/14/1
f 705/30/1 706/9/1 707/12/1 708/45/1
f 709/42/1 710/43/1 711/36/1 712/26/1
f 713/20/1 714/46/1 715/47/1 716/48/1
f 717/39/1 718/33/1 719/15/1 720/40/1
f 721/37/1 722/31/1 723/5/1 724/13/1
f 725/8/1 726/7/1 727/2/1 728/1/1
f 729/18/1 730/17/1 731/21/1 732/22/1
f 733/32/1 734/18/1 735/22/1 736/6/1
f 737/32/1 738/18/1 739/22/1 740/6/1
f 741/2/1 742/20/1 743/48/1 744/3/1
f 745/36/1 746/41/1 747/31/1 748/37/1
f 749/29/1 750/24/1 751/9/1 752/30/1
f 753/2/1 754/20/1 755/48/1 756/3/1
f 757/32/1 758/18/1 759/22/1 760/6/1
f 761/9/1 762/10/1 763/11/1 764/12/1
f 765/44/1 766/23/1 767/24/1 768/29/1
f 769/28/1 770/27/1 771/23/1 772/44/1
f 773/28/1 774/27/1 775/23/1 776/44/1
f 777/40/1 778/15/1 779/18/1 780/32/1
f 781/38/1 782/39/1 783/40/1 784/41/1
f 785/15/1 786/16/1 787/17/1 788/18/1
f 789/32/1 790/18/1 791/22/1 792/6/1
f 793/36/1 794/41/1 795/31/1 796/37/1
f 797/24/1 798/14/1 799/10/1 800/9/1
f 801/25/1 802/26/1 803/27/1 804/28/1
f 805/2/1 806/20/1 807/48/1 808/3/1
f 809/30/1 810/9/1 811/12/1 812/45/1
f 813/10/1 814/1/1 815/4/1 816/11/1
f 817/23/1 818/13/1 819/14/1 820/24/1
f 821/40/1 822/15/1 823/18/1 824/32/1
f 825/42/1 826/43/1 827/36/1 828/26/1
f 829/28/1 830/27/1 831/23/1 832/44/1
f 833/25/1 834/26/1 835/27/1 836/28/1
f 837/24/1 838/14/1 839/10/1 840/9/1
f 841/23/1 842/13/1 843/14/1 844/24/1
f 845/22/1 846/21/1 847/35/1 848/19/1
f 849/7/1 850/19/1 851/20/1 852/2/1
f 853/27/1 854/37/1 855/13/1 856/23/1
f 857/24/1 858/14/1 859/10/1 860/9/1
f 861/1/1 862/2/1 863/3/1 864/4/1
f 865/40/1 866/15/1 867/18/1 868/32/1
f 869/22/1 870/21/1 871/35/1 872/19/1
f 873/20/1 874/46/1 875/47/1 876/48/1
f 877/40/1 878/15/1 879/18/1 880/32/1
f 881/20/1 882/46/1 883/47/1 884/48/1
f 885/10/1 886/1/1 887/4/1 888/11/1
f 889/38/1 890/39/1 891/40/1 892/41/1
f 893/10/1 894/1/1 895/4/1 896/11/1
f 897/39/1 898/33/1 899/15/1 900/40/1
f 901/29/1 902/24/1 903/9/1 904/30/1
f 905/30/1 906/9/1 907/12/1 908/45/1
f 909/2/1 910/20/1 911/48/1 912/3/1
f 913/1/1 914/2/1 915/3/1 916/4/1
f 917/2/1 918/20/1 919/48/1 920/3/1
f 921/6/1 922/22/1 923/19/1 924/7/1
f 925/29/1 926/24/1 927/9/1 928/30/1
f 929/38/1 930/39/1 931/40/1 932/41/1
f 933/44/1 934/23/1 935/24/1 936/29/1
f 937/28/1 938/27/1 939/23/1 940/44/1
f 941/41/1 942/40/1 943/32/1 944/31/1
f 945/41/1 946/40/1 947/32/1 948/31/1
f 949/18/1 950/17/1 951/21/1 952/22/1
f 953/43/1 954/38/1 955/41/1 956/36/1
f 957/49/1 958/42/1 959/26/1 960/25/1
f 961/19/1 962/35/1 963/46/1 964/20/1
f 965/1/1 966/2/1 967/3/1 968/4/1
f 969/19/1 970/35/1 971/46/1 972/20/1
f 973/5/1 974/6/1 975/7/1 976/8/1
f 977/44/1 978/23/1 979/24/1 980/29/1
f 981/27/1 982/37/1 983/13/1 984/23/1
f 985/25/1 986/26/1 987/27/1 988/28/1
f 989/10/1 990/1/1 991/4/1 992/11/1
f 993/24/1 994/14/1 995/10/1 996/9/1
f 997/15/1 998/16/1 999/17/1 1000/18/1
f 1001/44/1 1002/23/1 1003/24/1 1004/29/1
f 1005/44/1 1006/23/1 1007/24/1 1008/29/1
f 1009/1/1 1010/2/1 1011/3/1 1012/4/1
f 1013/24/1 1014/14/1 1015/10/1 1016/9/1
f 1017/15/1 1018/16/1 1019/17/1 1020/18/1
f 1021/24/1 1022/14/1 1023/10/1 1024/9/1

