# Tiled2Unity generated file. Do not modify by hand.
# Wavefront file for 'TitleIntro_mesh_0047.obj'

# Vertices (Count = 1024)
v 0 -16 0
v -16 -16 0
v -16 0 0
v 0 0 0
v -16 -16 0
v -32 -16 0
v -32 0 0
v -16 0 0
v -32 -16 0
v -48 -16 0
v -48 0 0
v -32 0 0
v -48 -16 0
v -64 -16 0
v -64 0 0
v -48 0 0
v -64 -16 0
v -80 -16 0
v -80 0 0
v -64 0 0
v -80 -16 0
v -96 -16 0
v -96 0 0
v -80 0 0
v -96 -16 0
v -112 -16 0
v -112 0 0
v -96 0 0
v -112 -16 0
v -128 -16 0
v -128 0 0
v -112 0 0
v -128 -16 0
v -144 -16 0
v -144 0 0
v -128 0 0
v -144 -16 0
v -160 -16 0
v -160 0 0
v -144 0 0
v -160 -16 0
v -176 -16 0
v -176 0 0
v -160 0 0
v -176 -16 0
v -192 -16 0
v -192 0 0
v -176 0 0
v -192 -16 0
v -208 -16 0
v -208 0 0
v -192 0 0
v -208 -16 0
v -224 -16 0
v -224 0 0
v -208 0 0
v -224 -16 0
v -240 -16 0
v -240 0 0
v -224 0 0
v -240 -16 0
v -256 -16 0
v -256 0 0
v -240 0 0
v 0 -32 0
v -16 -32 0
v -16 -16 0
v 0 -16 0
v -16 -32 0
v -32 -32 0
v -32 -16 0
v -16 -16 0
v -32 -32 0
v -48 -32 0
v -48 -16 0
v -32 -16 0
v -48 -32 0
v -64 -32 0
v -64 -16 0
v -48 -16 0
v -64 -32 0
v -80 -32 0
v -80 -16 0
v -64 -16 0
v -80 -32 0
v -96 -32 0
v -96 -16 0
v -80 -16 0
v -96 -32 0
v -112 -32 0
v -112 -16 0
v -96 -16 0
v -112 -32 0
v -128 -32 0
v -128 -16 0
v -112 -16 0
v -128 -32 0
v -144 -32 0
v -144 -16 0
v -128 -16 0
v -144 -32 0
v -160 -32 0
v -160 -16 0
v -144 -16 0
v -160 -32 0
v -176 -32 0
v -176 -16 0
v -160 -16 0
v -176 -32 0
v -192 -32 0
v -192 -16 0
v -176 -16 0
v -192 -32 0
v -208 -32 0
v -208 -16 0
v -192 -16 0
v -208 -32 0
v -224 -32 0
v -224 -16 0
v -208 -16 0
v -224 -32 0
v -240 -32 0
v -240 -16 0
v -224 -16 0
v -240 -32 0
v -256 -32 0
v -256 -16 0
v -240 -16 0
v 0 -48 0
v -16 -48 0
v -16 -32 0
v 0 -32 0
v -16 -48 0
v -32 -48 0
v -32 -32 0
v -16 -32 0
v -32 -48 0
v -48 -48 0
v -48 -32 0
v -32 -32 0
v -48 -48 0
v -64 -48 0
v -64 -32 0
v -48 -32 0
v -64 -48 0
v -80 -48 0
v -80 -32 0
v -64 -32 0
v -80 -48 0
v -96 -48 0
v -96 -32 0
v -80 -32 0
v -96 -48 0
v -112 -48 0
v -112 -32 0
v -96 -32 0
v -112 -48 0
v -128 -48 0
v -128 -32 0
v -112 -32 0
v -128 -48 0
v -144 -48 0
v -144 -32 0
v -128 -32 0
v -144 -48 0
v -160 -48 0
v -160 -32 0
v -144 -32 0
v -160 -48 0
v -176 -48 0
v -176 -32 0
v -160 -32 0
v -176 -48 0
v -192 -48 0
v -192 -32 0
v -176 -32 0
v -192 -48 0
v -208 -48 0
v -208 -32 0
v -192 -32 0
v -208 -48 0
v -224 -48 0
v -224 -32 0
v -208 -32 0
v -224 -48 0
v -240 -48 0
v -240 -32 0
v -224 -32 0
v -240 -48 0
v -256 -48 0
v -256 -32 0
v -240 -32 0
v 0 -64 0
v -16 -64 0
v -16 -48 0
v 0 -48 0
v -16 -64 0
v -32 -64 0
v -32 -48 0
v -16 -48 0
v -32 -64 0
v -48 -64 0
v -48 -48 0
v -32 -48 0
v -48 -64 0
v -64 -64 0
v -64 -48 0
v -48 -48 0
v -64 -64 0
v -80 -64 0
v -80 -48 0
v -64 -48 0
v -80 -64 0
v -96 -64 0
v -96 -48 0
v -80 -48 0
v -96 -64 0
v -112 -64 0
v -112 -48 0
v -96 -48 0
v -112 -64 0
v -128 -64 0
v -128 -48 0
v -112 -48 0
v -128 -64 0
v -144 -64 0
v -144 -48 0
v -128 -48 0
v -144 -64 0
v -160 -64 0
v -160 -48 0
v -144 -48 0
v -160 -64 0
v -176 -64 0
v -176 -48 0
v -160 -48 0
v -176 -64 0
v -192 -64 0
v -192 -48 0
v -176 -48 0
v -192 -64 0
v -208 -64 0
v -208 -48 0
v -192 -48 0
v -208 -64 0
v -224 -64 0
v -224 -48 0
v -208 -48 0
v -224 -64 0
v -240 -64 0
v -240 -48 0
v -224 -48 0
v -240 -64 0
v -256 -64 0
v -256 -48 0
v -240 -48 0
v 0 -80 0
v -16 -80 0
v -16 -64 0
v 0 -64 0
v -16 -80 0
v -32 -80 0
v -32 -64 0
v -16 -64 0
v -32 -80 0
v -48 -80 0
v -48 -64 0
v -32 -64 0
v -48 -80 0
v -64 -80 0
v -64 -64 0
v -48 -64 0
v -64 -80 0
v -80 -80 0
v -80 -64 0
v -64 -64 0
v -80 -80 0
v -96 -80 0
v -96 -64 0
v -80 -64 0
v -96 -80 0
v -112 -80 0
v -112 -64 0
v -96 -64 0
v -112 -80 0
v -128 -80 0
v -128 -64 0
v -112 -64 0
v -128 -80 0
v -144 -80 0
v -144 -64 0
v -128 -64 0
v -144 -80 0
v -160 -80 0
v -160 -64 0
v -144 -64 0
v -160 -80 0
v -176 -80 0
v -176 -64 0
v -160 -64 0
v -176 -80 0
v -192 -80 0
v -192 -64 0
v -176 -64 0
v -192 -80 0
v -208 -80 0
v -208 -64 0
v -192 -64 0
v -208 -80 0
v -224 -80 0
v -224 -64 0
v -208 -64 0
v -224 -80 0
v -240 -80 0
v -240 -64 0
v -224 -64 0
v -240 -80 0
v -256 -80 0
v -256 -64 0
v -240 -64 0
v 0 -96 0
v -16 -96 0
v -16 -80 0
v 0 -80 0
v -16 -96 0
v -32 -96 0
v -32 -80 0
v -16 -80 0
v -32 -96 0
v -48 -96 0
v -48 -80 0
v -32 -80 0
v -48 -96 0
v -64 -96 0
v -64 -80 0
v -48 -80 0
v -64 -96 0
v -80 -96 0
v -80 -80 0
v -64 -80 0
v -80 -96 0
v -96 -96 0
v -96 -80 0
v -80 -80 0
v -96 -96 0
v -112 -96 0
v -112 -80 0
v -96 -80 0
v -112 -96 0
v -128 -96 0
v -128 -80 0
v -112 -80 0
v -128 -96 0
v -144 -96 0
v -144 -80 0
v -128 -80 0
v -144 -96 0
v -160 -96 0
v -160 -80 0
v -144 -80 0
v -160 -96 0
v -176 -96 0
v -176 -80 0
v -160 -80 0
v -176 -96 0
v -192 -96 0
v -192 -80 0
v -176 -80 0
v -192 -96 0
v -208 -96 0
v -208 -80 0
v -192 -80 0
v -208 -96 0
v -224 -96 0
v -224 -80 0
v -208 -80 0
v -224 -96 0
v -240 -96 0
v -240 -80 0
v -224 -80 0
v -240 -96 0
v -256 -96 0
v -256 -80 0
v -240 -80 0
v 0 -112 0
v -16 -112 0
v -16 -96 0
v 0 -96 0
v -16 -112 0
v -32 -112 0
v -32 -96 0
v -16 -96 0
v -32 -112 0
v -48 -112 0
v -48 -96 0
v -32 -96 0
v -48 -112 0
v -64 -112 0
v -64 -96 0
v -48 -96 0
v -64 -112 0
v -80 -112 0
v -80 -96 0
v -64 -96 0
v -80 -112 0
v -96 -112 0
v -96 -96 0
v -80 -96 0
v -96 -112 0
v -112 -112 0
v -112 -96 0
v -96 -96 0
v -112 -112 0
v -128 -112 0
v -128 -96 0
v -112 -96 0
v -128 -112 0
v -144 -112 0
v -144 -96 0
v -128 -96 0
v -144 -112 0
v -160 -112 0
v -160 -96 0
v -144 -96 0
v -160 -112 0
v -176 -112 0
v -176 -96 0
v -160 -96 0
v -176 -112 0
v -192 -112 0
v -192 -96 0
v -176 -96 0
v -192 -112 0
v -208 -112 0
v -208 -96 0
v -192 -96 0
v -208 -112 0
v -224 -112 0
v -224 -96 0
v -208 -96 0
v -224 -112 0
v -240 -112 0
v -240 -96 0
v -224 -96 0
v -240 -112 0
v -256 -112 0
v -256 -96 0
v -240 -96 0
v 0 -128 0
v -16 -128 0
v -16 -112 0
v 0 -112 0
v -16 -128 0
v -32 -128 0
v -32 -112 0
v -16 -112 0
v -32 -128 0
v -48 -128 0
v -48 -112 0
v -32 -112 0
v -48 -128 0
v -64 -128 0
v -64 -112 0
v -48 -112 0
v -64 -128 0
v -80 -128 0
v -80 -112 0
v -64 -112 0
v -80 -128 0
v -96 -128 0
v -96 -112 0
v -80 -112 0
v -96 -128 0
v -112 -128 0
v -112 -112 0
v -96 -112 0
v -112 -128 0
v -128 -128 0
v -128 -112 0
v -112 -112 0
v -128 -128 0
v -144 -128 0
v -144 -112 0
v -128 -112 0
v -144 -128 0
v -160 -128 0
v -160 -112 0
v -144 -112 0
v -160 -128 0
v -176 -128 0
v -176 -112 0
v -160 -112 0
v -176 -128 0
v -192 -128 0
v -192 -112 0
v -176 -112 0
v -192 -128 0
v -208 -128 0
v -208 -112 0
v -192 -112 0
v -208 -128 0
v -224 -128 0
v -224 -112 0
v -208 -112 0
v -224 -128 0
v -240 -128 0
v -240 -112 0
v -224 -112 0
v -240 -128 0
v -256 -128 0
v -256 -112 0
v -240 -112 0
v 0 -144 0
v -16 -144 0
v -16 -128 0
v 0 -128 0
v -16 -144 0
v -32 -144 0
v -32 -128 0
v -16 -128 0
v -32 -144 0
v -48 -144 0
v -48 -128 0
v -32 -128 0
v -48 -144 0
v -64 -144 0
v -64 -128 0
v -48 -128 0
v -64 -144 0
v -80 -144 0
v -80 -128 0
v -64 -128 0
v -80 -144 0
v -96 -144 0
v -96 -128 0
v -80 -128 0
v -96 -144 0
v -112 -144 0
v -112 -128 0
v -96 -128 0
v -112 -144 0
v -128 -144 0
v -128 -128 0
v -112 -128 0
v -128 -144 0
v -144 -144 0
v -144 -128 0
v -128 -128 0
v -144 -144 0
v -160 -144 0
v -160 -128 0
v -144 -128 0
v -160 -144 0
v -176 -144 0
v -176 -128 0
v -160 -128 0
v -176 -144 0
v -192 -144 0
v -192 -128 0
v -176 -128 0
v -192 -144 0
v -208 -144 0
v -208 -128 0
v -192 -128 0
v -208 -144 0
v -224 -144 0
v -224 -128 0
v -208 -128 0
v -224 -144 0
v -240 -144 0
v -240 -128 0
v -224 -128 0
v -240 -144 0
v -256 -144 0
v -256 -128 0
v -240 -128 0
v 0 -160 0
v -16 -160 0
v -16 -144 0
v 0 -144 0
v -16 -160 0
v -32 -160 0
v -32 -144 0
v -16 -144 0
v -32 -160 0
v -48 -160 0
v -48 -144 0
v -32 -144 0
v -48 -160 0
v -64 -160 0
v -64 -144 0
v -48 -144 0
v -64 -160 0
v -80 -160 0
v -80 -144 0
v -64 -144 0
v -80 -160 0
v -96 -160 0
v -96 -144 0
v -80 -144 0
v -96 -160 0
v -112 -160 0
v -112 -144 0
v -96 -144 0
v -112 -160 0
v -128 -160 0
v -128 -144 0
v -112 -144 0
v -128 -160 0
v -144 -160 0
v -144 -144 0
v -128 -144 0
v -144 -160 0
v -160 -160 0
v -160 -144 0
v -144 -144 0
v -160 -160 0
v -176 -160 0
v -176 -144 0
v -160 -144 0
v -176 -160 0
v -192 -160 0
v -192 -144 0
v -176 -144 0
v -192 -160 0
v -208 -160 0
v -208 -144 0
v -192 -144 0
v -208 -160 0
v -224 -160 0
v -224 -144 0
v -208 -144 0
v -224 -160 0
v -240 -160 0
v -240 -144 0
v -224 -144 0
v -240 -160 0
v -256 -160 0
v -256 -144 0
v -240 -144 0
v 0 -176 0
v -16 -176 0
v -16 -160 0
v 0 -160 0
v -16 -176 0
v -32 -176 0
v -32 -160 0
v -16 -160 0
v -32 -176 0
v -48 -176 0
v -48 -160 0
v -32 -160 0
v -48 -176 0
v -64 -176 0
v -64 -160 0
v -48 -160 0
v -64 -176 0
v -80 -176 0
v -80 -160 0
v -64 -160 0
v -80 -176 0
v -96 -176 0
v -96 -160 0
v -80 -160 0
v -96 -176 0
v -112 -176 0
v -112 -160 0
v -96 -160 0
v -112 -176 0
v -128 -176 0
v -128 -160 0
v -112 -160 0
v -128 -176 0
v -144 -176 0
v -144 -160 0
v -128 -160 0
v -144 -176 0
v -160 -176 0
v -160 -160 0
v -144 -160 0
v -160 -176 0
v -176 -176 0
v -176 -160 0
v -160 -160 0
v -176 -176 0
v -192 -176 0
v -192 -160 0
v -176 -160 0
v -192 -176 0
v -208 -176 0
v -208 -160 0
v -192 -160 0
v -208 -176 0
v -224 -176 0
v -224 -160 0
v -208 -160 0
v -224 -176 0
v -240 -176 0
v -240 -160 0
v -224 -160 0
v -240 -176 0
v -256 -176 0
v -256 -160 0
v -240 -160 0
v 0 -192 0
v -16 -192 0
v -16 -176 0
v 0 -176 0
v -16 -192 0
v -32 -192 0
v -32 -176 0
v -16 -176 0
v -32 -192 0
v -48 -192 0
v -48 -176 0
v -32 -176 0
v -48 -192 0
v -64 -192 0
v -64 -176 0
v -48 -176 0
v -64 -192 0
v -80 -192 0
v -80 -176 0
v -64 -176 0
v -80 -192 0
v -96 -192 0
v -96 -176 0
v -80 -176 0
v -96 -192 0
v -112 -192 0
v -112 -176 0
v -96 -176 0
v -112 -192 0
v -128 -192 0
v -128 -176 0
v -112 -176 0
v -128 -192 0
v -144 -192 0
v -144 -176 0
v -128 -176 0
v -144 -192 0
v -160 -192 0
v -160 -176 0
v -144 -176 0
v -160 -192 0
v -176 -192 0
v -176 -176 0
v -160 -176 0
v -176 -192 0
v -192 -192 0
v -192 -176 0
v -176 -176 0
v -192 -192 0
v -208 -192 0
v -208 -176 0
v -192 -176 0
v -208 -192 0
v -224 -192 0
v -224 -176 0
v -208 -176 0
v -224 -192 0
v -240 -192 0
v -240 -176 0
v -224 -176 0
v -240 -192 0
v -256 -192 0
v -256 -176 0
v -240 -176 0
v 0 -208 0
v -16 -208 0
v -16 -192 0
v 0 -192 0
v -16 -208 0
v -32 -208 0
v -32 -192 0
v -16 -192 0
v -32 -208 0
v -48 -208 0
v -48 -192 0
v -32 -192 0
v -48 -208 0
v -64 -208 0
v -64 -192 0
v -48 -192 0
v -64 -208 0
v -80 -208 0
v -80 -192 0
v -64 -192 0
v -80 -208 0
v -96 -208 0
v -96 -192 0
v -80 -192 0
v -96 -208 0
v -112 -208 0
v -112 -192 0
v -96 -192 0
v -112 -208 0
v -128 -208 0
v -128 -192 0
v -112 -192 0
v -128 -208 0
v -144 -208 0
v -144 -192 0
v -128 -192 0
v -144 -208 0
v -160 -208 0
v -160 -192 0
v -144 -192 0
v -160 -208 0
v -176 -208 0
v -176 -192 0
v -160 -192 0
v -176 -208 0
v -192 -208 0
v -192 -192 0
v -176 -192 0
v -192 -208 0
v -208 -208 0
v -208 -192 0
v -192 -192 0
v -208 -208 0
v -224 -208 0
v -224 -192 0
v -208 -192 0
v -224 -208 0
v -240 -208 0
v -240 -192 0
v -224 -192 0
v -240 -208 0
v -256 -208 0
v -256 -192 0
v -240 -192 0
v 0 -224 0
v -16 -224 0
v -16 -208 0
v 0 -208 0
v -16 -224 0
v -32 -224 0
v -32 -208 0
v -16 -208 0
v -32 -224 0
v -48 -224 0
v -48 -208 0
v -32 -208 0
v -48 -224 0
v -64 -224 0
v -64 -208 0
v -48 -208 0
v -64 -224 0
v -80 -224 0
v -80 -208 0
v -64 -208 0
v -80 -224 0
v -96 -224 0
v -96 -208 0
v -80 -208 0
v -96 -224 0
v -112 -224 0
v -112 -208 0
v -96 -208 0
v -112 -224 0
v -128 -224 0
v -128 -208 0
v -112 -208 0
v -128 -224 0
v -144 -224 0
v -144 -208 0
v -128 -208 0
v -144 -224 0
v -160 -224 0
v -160 -208 0
v -144 -208 0
v -160 -224 0
v -176 -224 0
v -176 -208 0
v -160 -208 0
v -176 -224 0
v -192 -224 0
v -192 -208 0
v -176 -208 0
v -192 -224 0
v -208 -224 0
v -208 -208 0
v -192 -208 0
v -208 -224 0
v -224 -224 0
v -224 -208 0
v -208 -208 0
v -224 -224 0
v -240 -224 0
v -240 -208 0
v -224 -208 0
v -240 -224 0
v -256 -224 0
v -256 -208 0
v -240 -208 0
v 0 -240 0
v -16 -240 0
v -16 -224 0
v 0 -224 0
v -16 -240 0
v -32 -240 0
v -32 -224 0
v -16 -224 0
v -32 -240 0
v -48 -240 0
v -48 -224 0
v -32 -224 0
v -48 -240 0
v -64 -240 0
v -64 -224 0
v -48 -224 0
v -64 -240 0
v -80 -240 0
v -80 -224 0
v -64 -224 0
v -80 -240 0
v -96 -240 0
v -96 -224 0
v -80 -224 0
v -96 -240 0
v -112 -240 0
v -112 -224 0
v -96 -224 0
v -112 -240 0
v -128 -240 0
v -128 -224 0
v -112 -224 0
v -128 -240 0
v -144 -240 0
v -144 -224 0
v -128 -224 0
v -144 -240 0
v -160 -240 0
v -160 -224 0
v -144 -224 0
v -160 -240 0
v -176 -240 0
v -176 -224 0
v -160 -224 0
v -176 -240 0
v -192 -240 0
v -192 -224 0
v -176 -224 0
v -192 -240 0
v -208 -240 0
v -208 -224 0
v -192 -224 0
v -208 -240 0
v -224 -240 0
v -224 -224 0
v -208 -224 0
v -224 -240 0
v -240 -240 0
v -240 -224 0
v -224 -224 0
v -240 -240 0
v -256 -240 0
v -256 -224 0
v -240 -224 0
v 0 -256 0
v -16 -256 0
v -16 -240 0
v 0 -240 0
v -16 -256 0
v -32 -256 0
v -32 -240 0
v -16 -240 0
v -32 -256 0
v -48 -256 0
v -48 -240 0
v -32 -240 0
v -48 -256 0
v -64 -256 0
v -64 -240 0
v -48 -240 0
v -64 -256 0
v -80 -256 0
v -80 -240 0
v -64 -240 0
v -80 -256 0
v -96 -256 0
v -96 -240 0
v -80 -240 0
v -96 -256 0
v -112 -256 0
v -112 -240 0
v -96 -240 0
v -112 -256 0
v -128 -256 0
v -128 -240 0
v -112 -240 0
v -128 -256 0
v -144 -256 0
v -144 -240 0
v -128 -240 0
v -144 -256 0
v -160 -256 0
v -160 -240 0
v -144 -240 0
v -160 -256 0
v -176 -256 0
v -176 -240 0
v -160 -240 0
v -176 -256 0
v -192 -256 0
v -192 -240 0
v -176 -240 0
v -192 -256 0
v -208 -256 0
v -208 -240 0
v -192 -240 0
v -208 -256 0
v -224 -256 0
v -224 -240 0
v -208 -240 0
v -224 -256 0
v -240 -256 0
v -240 -240 0
v -224 -240 0
v -240 -256 0
v -256 -256 0
v -256 -240 0
v -240 -240 0

# Texture cooridinates (Count = 49)
vt 0.0078125 0.40625
vt 0.01171875 0.40625
vt 0.01171875 0.421875
vt 0.0078125 0.421875
vt 0.0234375 0.421875
vt 0.02734375 0.421875
vt 0.02734375 0.4375
vt 0.0234375 0.4375
vt 0.0234375 0.46875
vt 0.02734375 0.46875
vt 0.02734375 0.484375
vt 0.0234375 0.484375
vt 0.015625 0.4375
vt 0.01953125 0.4375
vt 0.01953125 0.453125
vt 0.015625 0.453125
vt 0.03125 0.46875
vt 0.03125 0.484375
vt 0.01171875 0.4375
vt 0.0078125 0.4375
vt 0.0078125 0.453125
vt 0.01171875 0.453125
vt 0.01171875 0.46875
vt 0.0078125 0.46875
vt 0.015625 0.46875
vt 0.01953125 0.46875
vt 0.01953125 0.484375
vt 0.015625 0.484375
vt 0.02734375 0.390625
vt 0.03125 0.390625
vt 0.03125 0.40625
vt 0.02734375 0.40625
vt 0.0234375 0.40625
vt 0.015625 0.421875
vt 0.01953125 0.421875
vt 0.0234375 0.453125
vt 0.02734375 0.453125
vt 0.01953125 0.390625
vt 0.0234375 0.390625
vt 0.01953125 0.40625
vt 0.01171875 0.484375
vt 0.03125 0.421875
vt 0.01171875 0.390625
vt 0.015625 0.390625
vt 0.015625 0.40625
vt 0.03125 0.4375
vt 0.03125 0.453125
vt 0.0078125 0.390625
vt 0.0078125 0.484375

# Normal
vn 0 0 -1

# Mesh description
g TitleIntro_mesh_0047

# Faces
f 1/1/1 2/2/1 3/3/1 4/4/1
f 5/5/1 6/6/1 7/7/1 8/8/1
f 9/9/1 10/10/1 11/11/1 12/12/1
f 13/1/1 14/2/1 15/3/1 16/4/1
f 17/13/1 18/14/1 19/15/1 20/16/1
f 21/10/1 22/17/1 23/18/1 24/11/1
f 25/4/1 26/3/1 27/19/1 28/20/1
f 29/5/1 30/6/1 31/7/1 32/8/1
f 33/4/1 34/3/1 35/19/1 36/20/1
f 37/21/1 38/22/1 39/23/1 40/24/1
f 41/25/1 42/26/1 43/27/1 44/28/1
f 45/29/1 46/30/1 47/31/1 48/32/1
f 49/26/1 50/9/1 51/12/1 52/27/1
f 53/33/1 54/32/1 55/6/1 56/5/1
f 57/19/1 58/13/1 59/16/1 60/22/1
f 61/19/1 62/13/1 63/16/1 64/22/1
f 65/25/1 66/26/1 67/27/1 68/28/1
f 69/3/1 70/34/1 71/13/1 72/19/1
f 73/34/1 74/35/1 75/14/1 76/13/1
f 77/36/1 78/37/1 79/10/1 80/9/1
f 81/1/1 82/2/1 83/3/1 84/4/1
f 85/16/1 86/15/1 87/26/1 88/25/1
f 89/38/1 90/39/1 91/33/1 92/40/1
f 93/23/1 94/25/1 95/28/1 96/41/1
f 97/32/1 98/31/1 99/42/1 100/6/1
f 101/4/1 102/3/1 103/19/1 104/20/1
f 105/15/1 106/36/1 107/9/1 108/26/1
f 109/20/1 110/19/1 111/22/1 112/21/1
f 113/16/1 114/15/1 115/26/1 116/25/1
f 117/32/1 118/31/1 119/42/1 120/6/1
f 121/29/1 122/30/1 123/31/1 124/32/1
f 125/43/1 126/44/1 127/45/1 128/2/1
f 129/33/1 130/32/1 131/6/1 132/5/1
f 133/14/1 134/8/1 135/36/1 136/15/1
f 137/10/1 138/17/1 139/18/1 140/11/1
f 141/22/1 142/16/1 143/25/1 144/23/1
f 145/1/1 146/2/1 147/3/1 148/4/1
f 149/1/1 150/2/1 151/3/1 152/4/1
f 153/35/1 154/5/1 155/8/1 156/14/1
f 157/20/1 158/19/1 159/22/1 160/21/1
f 161/3/1 162/34/1 163/13/1 164/19/1
f 165/6/1 166/42/1 167/46/1 168/7/1
f 169/10/1 170/17/1 171/18/1 172/11/1
f 173/37/1 174/47/1 175/17/1 176/10/1
f 177/10/1 178/17/1 179/18/1 180/11/1
f 181/10/1 182/17/1 183/18/1 184/11/1
f 185/20/1 186/19/1 187/22/1 188/21/1
f 189/13/1 190/14/1 191/15/1 192/16/1
f 193/40/1 194/33/1 195/5/1 196/35/1
f 197/37/1 198/47/1 199/17/1 200/10/1
f 201/9/1 202/10/1 203/11/1 204/12/1
f 205/13/1 206/14/1 207/15/1 208/16/1
f 209/16/1 210/15/1 211/26/1 212/25/1
f 213/2/1 214/45/1 215/34/1 216/3/1
f 217/40/1 218/33/1 219/5/1 220/35/1
f 221/37/1 222/47/1 223/17/1 224/10/1
f 225/3/1 226/34/1 227/13/1 228/19/1
f 229/29/1 230/30/1 231/31/1 232/32/1
f 233/6/1 234/42/1 235/46/1 236/7/1
f 237/20/1 238/19/1 239/22/1 240/21/1
f 241/15/1 242/36/1 243/9/1 244/26/1
f 245/7/1 246/46/1 247/47/1 248/37/1
f 249/32/1 250/31/1 251/42/1 252/6/1
f 253/10/1 254/17/1 255/18/1 256/11/1
f 257/48/1 258/43/1 259/2/1 260/1/1
f 261/38/1 262/39/1 263/33/1 264/40/1
f 265/10/1 266/17/1 267/18/1 268/11/1
f 269/20/1 270/19/1 271/22/1 272/21/1
f 273/21/1 274/22/1 275/23/1 276/24/1
f 277/39/1 278/29/1 279/32/1 280/33/1
f 281/45/1 282/40/1 283/35/1 284/34/1
f 285/1/1 286/2/1 287/3/1 288/4/1
f 289/39/1 290/29/1 291/32/1 292/33/1
f 293/15/1 294/36/1 295/9/1 296/26/1
f 297/15/1 298/36/1 299/9/1 300/26/1
f 301/20/1 302/19/1 303/22/1 304/21/1
f 305/10/1 306/17/1 307/18/1 308/11/1
f 309/40/1 310/33/1 311/5/1 312/35/1
f 313/44/1 314/38/1 315/40/1 316/45/1
f 317/4/1 318/3/1 319/19/1 320/20/1
f 321/9/1 322/10/1 323/11/1 324/12/1
f 325/23/1 326/25/1 327/28/1 328/41/1
f 329/9/1 330/10/1 331/11/1 332/12/1
f 333/21/1 334/22/1 335/23/1 336/24/1
f 337/33/1 338/32/1 339/6/1 340/5/1
f 341/34/1 342/35/1 343/14/1 344/13/1
f 345/8/1 346/7/1 347/37/1 348/36/1
f 349/36/1 350/37/1 351/10/1 352/9/1
f 353/32/1 354/31/1 355/42/1 356/6/1
f 357/19/1 358/13/1 359/16/1 360/22/1
f 361/26/1 362/9/1 363/12/1 364/27/1
f 365/36/1 366/37/1 367/10/1 368/9/1
f 369/35/1 370/5/1 371/8/1 372/14/1
f 373/14/1 374/8/1 375/36/1 376/15/1
f 377/25/1 378/26/1 379/27/1 380/28/1
f 381/1/1 382/2/1 383/3/1 384/4/1
f 385/22/1 386/16/1 387/25/1 388/23/1
f 389/19/1 390/13/1 391/16/1 392/22/1
f 393/24/1 394/23/1 395/41/1 396/49/1
f 397/37/1 398/47/1 399/17/1 400/10/1
f 401/32/1 402/31/1 403/42/1 404/6/1
f 405/8/1 406/7/1 407/37/1 408/36/1
f 409/8/1 410/7/1 411/37/1 412/36/1
f 413/35/1 414/5/1 415/8/1 416/14/1
f 417/34/1 418/35/1 419/14/1 420/13/1
f 421/48/1 422/43/1 423/2/1 424/1/1
f 425/21/1 426/22/1 427/23/1 428/24/1
f 429/39/1 430/29/1 431/32/1 432/33/1
f 433/5/1 434/6/1 435/7/1 436/8/1
f 437/48/1 438/43/1 439/2/1 440/1/1
f 441/7/1 442/46/1 443/47/1 444/37/1
f 445/24/1 446/23/1 447/41/1 448/49/1
f 449/4/1 450/3/1 451/19/1 452/20/1
f 453/44/1 454/38/1 455/40/1 456/45/1
f 457/29/1 458/30/1 459/31/1 460/32/1
f 461/3/1 462/34/1 463/13/1 464/19/1
f 465/43/1 466/44/1 467/45/1 468/2/1
f 469/4/1 470/3/1 471/19/1 472/20/1
f 473/33/1 474/32/1 475/6/1 476/5/1
f 477/26/1 478/9/1 479/12/1 480/27/1
f 481/37/1 482/47/1 483/17/1 484/10/1
f 485/14/1 486/8/1 487/36/1 488/15/1
f 489/1/1 490/2/1 491/3/1 492/4/1
f 493/4/1 494/3/1 495/19/1 496/20/1
f 497/8/1 498/7/1 499/37/1 500/36/1
f 501/1/1 502/2/1 503/3/1 504/4/1
f 505/5/1 506/6/1 507/7/1 508/8/1
f 509/1/1 510/2/1 511/3/1 512/4/1
f 513/48/1 514/43/1 515/2/1 516/1/1
f 517/25/1 518/26/1 519/27/1 520/28/1
f 521/9/1 522/10/1 523/11/1 524/12/1
f 525/35/1 526/5/1 527/8/1 528/14/1
f 529/48/1 530/43/1 531/2/1 532/1/1
f 533/1/1 534/2/1 535/3/1 536/4/1
f 537/5/1 538/6/1 539/7/1 540/8/1
f 541/43/1 542/44/1 543/45/1 544/2/1
f 545/5/1 546/6/1 547/7/1 548/8/1
f 549/43/1 550/44/1 551/45/1 552/2/1
f 553/32/1 554/31/1 555/42/1 556/6/1
f 557/36/1 558/37/1 559/10/1 560/9/1
f 561/1/1 562/2/1 563/3/1 564/4/1
f 565/1/1 566/2/1 567/3/1 568/4/1
f 569/16/1 570/15/1 571/26/1 572/25/1
f 573/16/1 574/15/1 575/26/1 576/25/1
f 577/36/1 578/37/1 579/10/1 580/9/1
f 581/23/1 582/25/1 583/28/1 584/41/1
f 585/38/1 586/39/1 587/33/1 588/40/1
f 589/20/1 590/19/1 591/22/1 592/21/1
f 593/37/1 594/47/1 595/17/1 596/10/1
f 597/22/1 598/16/1 599/25/1 600/23/1
f 601/6/1 602/42/1 603/46/1 604/7/1
f 605/1/1 606/2/1 607/3/1 608/4/1
f 609/14/1 610/8/1 611/36/1 612/15/1
f 613/10/1 614/17/1 615/18/1 616/11/1
f 617/38/1 618/39/1 619/33/1 620/40/1
f 621/23/1 622/25/1 623/28/1 624/41/1
f 625/14/1 626/8/1 627/36/1 628/15/1
f 629/23/1 630/25/1 631/28/1 632/41/1
f 633/24/1 634/23/1 635/41/1 636/49/1
f 637/35/1 638/5/1 639/8/1 640/14/1
f 641/39/1 642/29/1 643/32/1 644/33/1
f 645/9/1 646/10/1 647/11/1 648/12/1
f 649/25/1 650/26/1 651/27/1 652/28/1
f 653/3/1 654/34/1 655/13/1 656/19/1
f 657/19/1 658/13/1 659/16/1 660/22/1
f 661/48/1 662/43/1 663/2/1 664/1/1
f 665/19/1 666/13/1 667/16/1 668/22/1
f 669/40/1 670/33/1 671/5/1 672/35/1
f 673/34/1 674/35/1 675/14/1 676/13/1
f 677/26/1 678/9/1 679/12/1 680/27/1
f 681/33/1 682/32/1 683/6/1 684/5/1
f 685/6/1 686/42/1 687/46/1 688/7/1
f 689/29/1 690/30/1 691/31/1 692/32/1
f 693/5/1 694/6/1 695/7/1 696/8/1
f 697/29/1 698/30/1 699/31/1 700/32/1
f 701/4/1 702/3/1 703/19/1 704/20/1
f 705/6/1 706/42/1 707/46/1 708/7/1
f 709/1/1 710/2/1 711/3/1 712/4/1
f 713/45/1 714/40/1 715/35/1 716/34/1
f 717/2/1 718/45/1 719/34/1 720/3/1
f 721/21/1 722/22/1 723/23/1 724/24/1
f 725/3/1 726/34/1 727/13/1 728/19/1
f 729/2/1 730/45/1 731/34/1 732/3/1
f 733/29/1 734/30/1 735/31/1 736/32/1
f 737/16/1 738/15/1 739/26/1 740/25/1
f 741/35/1 742/5/1 743/8/1 744/14/1
f 745/29/1 746/30/1 747/31/1 748/32/1
f 749/48/1 750/43/1 751/2/1 752/1/1
f 753/10/1 754/17/1 755/18/1 756/11/1
f 757/6/1 758/42/1 759/46/1 760/7/1
f 761/6/1 762/42/1 763/46/1 764/7/1
f 765/23/1 766/25/1 767/28/1 768/41/1
f 769/24/1 770/23/1 771/41/1 772/49/1
f 773/40/1 774/33/1 775/5/1 776/35/1
f 777/35/1 778/5/1 779/8/1 780/14/1
f 781/38/1 782/39/1 783/33/1 784/40/1
f 785/13/1 786/14/1 787/15/1 788/16/1
f 789/2/1 790/45/1 791/34/1 792/3/1
f 793/24/1 794/23/1 795/41/1 796/49/1
f 797/40/1 798/33/1 799/5/1 800/35/1
f 801/29/1 802/30/1 803/31/1 804/32/1
f 805/20/1 806/19/1 807/22/1 808/21/1
f 809/9/1 810/10/1 811/11/1 812/12/1
f 813/34/1 814/35/1 815/14/1 816/13/1
f 817/3/1 818/34/1 819/13/1 820/19/1
f 821/40/1 822/33/1 823/5/1 824/35/1
f 825/35/1 826/5/1 827/8/1 828/14/1
f 829/19/1 830/13/1 831/16/1 832/22/1
f 833/34/1 834/35/1 835/14/1 836/13/1
f 837/5/1 838/6/1 839/7/1 840/8/1
f 841/8/1 842/7/1 843/37/1 844/36/1
f 845/16/1 846/15/1 847/26/1 848/25/1
f 849/21/1 850/22/1 851/23/1 852/24/1
f 853/19/1 854/13/1 855/16/1 856/22/1
f 857/25/1 858/26/1 859/27/1 860/28/1
f 861/6/1 862/42/1 863/46/1 864/7/1
f 865/40/1 866/33/1 867/5/1 868/35/1
f 869/1/1 870/2/1 871/3/1 872/4/1
f 873/7/1 874/46/1 875/47/1 876/37/1
f 877/34/1 878/35/1 879/14/1 880/13/1
f 881/6/1 882/42/1 883/46/1 884/7/1
f 885/19/1 886/13/1 887/16/1 888/22/1
f 889/34/1 890/35/1 891/14/1 892/13/1
f 893/1/1 894/2/1 895/3/1 896/4/1
f 897/15/1 898/36/1 899/9/1 900/26/1
f 901/24/1 902/23/1 903/41/1 904/49/1
f 905/33/1 906/32/1 907/6/1 908/5/1
f 909/7/1 910/46/1 911/47/1 912/37/1
f 913/7/1 914/46/1 915/47/1 916/37/1
f 917/13/1 918/14/1 919/15/1 920/16/1
f 921/13/1 922/14/1 923/15/1 924/16/1
f 925/44/1 926/38/1 927/40/1 928/45/1
f 929/45/1 930/40/1 931/35/1 932/34/1
f 933/37/1 934/47/1 935/17/1 936/10/1
f 937/48/1 938/43/1 939/2/1 940/1/1
f 941/1/1 942/2/1 943/3/1 944/4/1
f 945/23/1 946/25/1 947/28/1 948/41/1
f 949/1/1 950/2/1 951/3/1 952/4/1
f 953/38/1 954/39/1 955/33/1 956/40/1
f 957/14/1 958/8/1 959/36/1 960/15/1
f 961/8/1 962/7/1 963/37/1 964/36/1
f 965/5/1 966/6/1 967/7/1 968/8/1
f 969/43/1 970/44/1 971/45/1 972/2/1
f 973/15/1 974/36/1 975/9/1 976/26/1
f 977/26/1 978/9/1 979/12/1 980/27/1
f 981/9/1 982/10/1 983/11/1 984/12/1
f 985/19/1 986/13/1 987/16/1 988/22/1
f 989/32/1 990/31/1 991/42/1 992/6/1
f 993/25/1 994/26/1 995/27/1 996/28/1
f 997/37/1 998/47/1 999/17/1 1000/10/1
f 1001/24/1 1002/23/1 1003/41/1 1004/49/1
f 1005/40/1 1006/33/1 1007/5/1 1008/35/1
f 1009/35/1 1010/5/1 1011/8/1 1012/14/1
f 1013/15/1 1014/36/1 1015/9/1 1016/26/1
f 1017/6/1 1018/42/1 1019/46/1 1020/7/1
f 1021/36/1 1022/37/1 1023/10/1 1024/9/1

