# Tiled2Unity generated file. Do not modify by hand.
# Wavefront file for 'TitleIntro_mesh_0067.obj'

# Vertices (Count = 1024)
v 0 -16 0
v -16 -16 0
v -16 0 0
v 0 0 0
v -16 -16 0
v -32 -16 0
v -32 0 0
v -16 0 0
v -32 -16 0
v -48 -16 0
v -48 0 0
v -32 0 0
v -48 -16 0
v -64 -16 0
v -64 0 0
v -48 0 0
v -64 -16 0
v -80 -16 0
v -80 0 0
v -64 0 0
v -80 -16 0
v -96 -16 0
v -96 0 0
v -80 0 0
v -96 -16 0
v -112 -16 0
v -112 0 0
v -96 0 0
v -112 -16 0
v -128 -16 0
v -128 0 0
v -112 0 0
v -128 -16 0
v -144 -16 0
v -144 0 0
v -128 0 0
v -144 -16 0
v -160 -16 0
v -160 0 0
v -144 0 0
v -160 -16 0
v -176 -16 0
v -176 0 0
v -160 0 0
v -176 -16 0
v -192 -16 0
v -192 0 0
v -176 0 0
v -192 -16 0
v -208 -16 0
v -208 0 0
v -192 0 0
v -208 -16 0
v -224 -16 0
v -224 0 0
v -208 0 0
v -224 -16 0
v -240 -16 0
v -240 0 0
v -224 0 0
v -240 -16 0
v -256 -16 0
v -256 0 0
v -240 0 0
v 0 -32 0
v -16 -32 0
v -16 -16 0
v 0 -16 0
v -16 -32 0
v -32 -32 0
v -32 -16 0
v -16 -16 0
v -32 -32 0
v -48 -32 0
v -48 -16 0
v -32 -16 0
v -48 -32 0
v -64 -32 0
v -64 -16 0
v -48 -16 0
v -64 -32 0
v -80 -32 0
v -80 -16 0
v -64 -16 0
v -80 -32 0
v -96 -32 0
v -96 -16 0
v -80 -16 0
v -96 -32 0
v -112 -32 0
v -112 -16 0
v -96 -16 0
v -112 -32 0
v -128 -32 0
v -128 -16 0
v -112 -16 0
v -128 -32 0
v -144 -32 0
v -144 -16 0
v -128 -16 0
v -144 -32 0
v -160 -32 0
v -160 -16 0
v -144 -16 0
v -160 -32 0
v -176 -32 0
v -176 -16 0
v -160 -16 0
v -176 -32 0
v -192 -32 0
v -192 -16 0
v -176 -16 0
v -192 -32 0
v -208 -32 0
v -208 -16 0
v -192 -16 0
v -208 -32 0
v -224 -32 0
v -224 -16 0
v -208 -16 0
v -224 -32 0
v -240 -32 0
v -240 -16 0
v -224 -16 0
v -240 -32 0
v -256 -32 0
v -256 -16 0
v -240 -16 0
v 0 -48 0
v -16 -48 0
v -16 -32 0
v 0 -32 0
v -16 -48 0
v -32 -48 0
v -32 -32 0
v -16 -32 0
v -32 -48 0
v -48 -48 0
v -48 -32 0
v -32 -32 0
v -48 -48 0
v -64 -48 0
v -64 -32 0
v -48 -32 0
v -64 -48 0
v -80 -48 0
v -80 -32 0
v -64 -32 0
v -80 -48 0
v -96 -48 0
v -96 -32 0
v -80 -32 0
v -96 -48 0
v -112 -48 0
v -112 -32 0
v -96 -32 0
v -112 -48 0
v -128 -48 0
v -128 -32 0
v -112 -32 0
v -128 -48 0
v -144 -48 0
v -144 -32 0
v -128 -32 0
v -144 -48 0
v -160 -48 0
v -160 -32 0
v -144 -32 0
v -160 -48 0
v -176 -48 0
v -176 -32 0
v -160 -32 0
v -176 -48 0
v -192 -48 0
v -192 -32 0
v -176 -32 0
v -192 -48 0
v -208 -48 0
v -208 -32 0
v -192 -32 0
v -208 -48 0
v -224 -48 0
v -224 -32 0
v -208 -32 0
v -224 -48 0
v -240 -48 0
v -240 -32 0
v -224 -32 0
v -240 -48 0
v -256 -48 0
v -256 -32 0
v -240 -32 0
v 0 -64 0
v -16 -64 0
v -16 -48 0
v 0 -48 0
v -16 -64 0
v -32 -64 0
v -32 -48 0
v -16 -48 0
v -32 -64 0
v -48 -64 0
v -48 -48 0
v -32 -48 0
v -48 -64 0
v -64 -64 0
v -64 -48 0
v -48 -48 0
v -64 -64 0
v -80 -64 0
v -80 -48 0
v -64 -48 0
v -80 -64 0
v -96 -64 0
v -96 -48 0
v -80 -48 0
v -96 -64 0
v -112 -64 0
v -112 -48 0
v -96 -48 0
v -112 -64 0
v -128 -64 0
v -128 -48 0
v -112 -48 0
v -128 -64 0
v -144 -64 0
v -144 -48 0
v -128 -48 0
v -144 -64 0
v -160 -64 0
v -160 -48 0
v -144 -48 0
v -160 -64 0
v -176 -64 0
v -176 -48 0
v -160 -48 0
v -176 -64 0
v -192 -64 0
v -192 -48 0
v -176 -48 0
v -192 -64 0
v -208 -64 0
v -208 -48 0
v -192 -48 0
v -208 -64 0
v -224 -64 0
v -224 -48 0
v -208 -48 0
v -224 -64 0
v -240 -64 0
v -240 -48 0
v -224 -48 0
v -240 -64 0
v -256 -64 0
v -256 -48 0
v -240 -48 0
v 0 -80 0
v -16 -80 0
v -16 -64 0
v 0 -64 0
v -16 -80 0
v -32 -80 0
v -32 -64 0
v -16 -64 0
v -32 -80 0
v -48 -80 0
v -48 -64 0
v -32 -64 0
v -48 -80 0
v -64 -80 0
v -64 -64 0
v -48 -64 0
v -64 -80 0
v -80 -80 0
v -80 -64 0
v -64 -64 0
v -80 -80 0
v -96 -80 0
v -96 -64 0
v -80 -64 0
v -96 -80 0
v -112 -80 0
v -112 -64 0
v -96 -64 0
v -112 -80 0
v -128 -80 0
v -128 -64 0
v -112 -64 0
v -128 -80 0
v -144 -80 0
v -144 -64 0
v -128 -64 0
v -144 -80 0
v -160 -80 0
v -160 -64 0
v -144 -64 0
v -160 -80 0
v -176 -80 0
v -176 -64 0
v -160 -64 0
v -176 -80 0
v -192 -80 0
v -192 -64 0
v -176 -64 0
v -192 -80 0
v -208 -80 0
v -208 -64 0
v -192 -64 0
v -208 -80 0
v -224 -80 0
v -224 -64 0
v -208 -64 0
v -224 -80 0
v -240 -80 0
v -240 -64 0
v -224 -64 0
v -240 -80 0
v -256 -80 0
v -256 -64 0
v -240 -64 0
v 0 -96 0
v -16 -96 0
v -16 -80 0
v 0 -80 0
v -16 -96 0
v -32 -96 0
v -32 -80 0
v -16 -80 0
v -32 -96 0
v -48 -96 0
v -48 -80 0
v -32 -80 0
v -48 -96 0
v -64 -96 0
v -64 -80 0
v -48 -80 0
v -64 -96 0
v -80 -96 0
v -80 -80 0
v -64 -80 0
v -80 -96 0
v -96 -96 0
v -96 -80 0
v -80 -80 0
v -96 -96 0
v -112 -96 0
v -112 -80 0
v -96 -80 0
v -112 -96 0
v -128 -96 0
v -128 -80 0
v -112 -80 0
v -128 -96 0
v -144 -96 0
v -144 -80 0
v -128 -80 0
v -144 -96 0
v -160 -96 0
v -160 -80 0
v -144 -80 0
v -160 -96 0
v -176 -96 0
v -176 -80 0
v -160 -80 0
v -176 -96 0
v -192 -96 0
v -192 -80 0
v -176 -80 0
v -192 -96 0
v -208 -96 0
v -208 -80 0
v -192 -80 0
v -208 -96 0
v -224 -96 0
v -224 -80 0
v -208 -80 0
v -224 -96 0
v -240 -96 0
v -240 -80 0
v -224 -80 0
v -240 -96 0
v -256 -96 0
v -256 -80 0
v -240 -80 0
v 0 -112 0
v -16 -112 0
v -16 -96 0
v 0 -96 0
v -16 -112 0
v -32 -112 0
v -32 -96 0
v -16 -96 0
v -32 -112 0
v -48 -112 0
v -48 -96 0
v -32 -96 0
v -48 -112 0
v -64 -112 0
v -64 -96 0
v -48 -96 0
v -64 -112 0
v -80 -112 0
v -80 -96 0
v -64 -96 0
v -80 -112 0
v -96 -112 0
v -96 -96 0
v -80 -96 0
v -96 -112 0
v -112 -112 0
v -112 -96 0
v -96 -96 0
v -112 -112 0
v -128 -112 0
v -128 -96 0
v -112 -96 0
v -128 -112 0
v -144 -112 0
v -144 -96 0
v -128 -96 0
v -144 -112 0
v -160 -112 0
v -160 -96 0
v -144 -96 0
v -160 -112 0
v -176 -112 0
v -176 -96 0
v -160 -96 0
v -176 -112 0
v -192 -112 0
v -192 -96 0
v -176 -96 0
v -192 -112 0
v -208 -112 0
v -208 -96 0
v -192 -96 0
v -208 -112 0
v -224 -112 0
v -224 -96 0
v -208 -96 0
v -224 -112 0
v -240 -112 0
v -240 -96 0
v -224 -96 0
v -240 -112 0
v -256 -112 0
v -256 -96 0
v -240 -96 0
v 0 -128 0
v -16 -128 0
v -16 -112 0
v 0 -112 0
v -16 -128 0
v -32 -128 0
v -32 -112 0
v -16 -112 0
v -32 -128 0
v -48 -128 0
v -48 -112 0
v -32 -112 0
v -48 -128 0
v -64 -128 0
v -64 -112 0
v -48 -112 0
v -64 -128 0
v -80 -128 0
v -80 -112 0
v -64 -112 0
v -80 -128 0
v -96 -128 0
v -96 -112 0
v -80 -112 0
v -96 -128 0
v -112 -128 0
v -112 -112 0
v -96 -112 0
v -112 -128 0
v -128 -128 0
v -128 -112 0
v -112 -112 0
v -128 -128 0
v -144 -128 0
v -144 -112 0
v -128 -112 0
v -144 -128 0
v -160 -128 0
v -160 -112 0
v -144 -112 0
v -160 -128 0
v -176 -128 0
v -176 -112 0
v -160 -112 0
v -176 -128 0
v -192 -128 0
v -192 -112 0
v -176 -112 0
v -192 -128 0
v -208 -128 0
v -208 -112 0
v -192 -112 0
v -208 -128 0
v -224 -128 0
v -224 -112 0
v -208 -112 0
v -224 -128 0
v -240 -128 0
v -240 -112 0
v -224 -112 0
v -240 -128 0
v -256 -128 0
v -256 -112 0
v -240 -112 0
v 0 -144 0
v -16 -144 0
v -16 -128 0
v 0 -128 0
v -16 -144 0
v -32 -144 0
v -32 -128 0
v -16 -128 0
v -32 -144 0
v -48 -144 0
v -48 -128 0
v -32 -128 0
v -48 -144 0
v -64 -144 0
v -64 -128 0
v -48 -128 0
v -64 -144 0
v -80 -144 0
v -80 -128 0
v -64 -128 0
v -80 -144 0
v -96 -144 0
v -96 -128 0
v -80 -128 0
v -96 -144 0
v -112 -144 0
v -112 -128 0
v -96 -128 0
v -112 -144 0
v -128 -144 0
v -128 -128 0
v -112 -128 0
v -128 -144 0
v -144 -144 0
v -144 -128 0
v -128 -128 0
v -144 -144 0
v -160 -144 0
v -160 -128 0
v -144 -128 0
v -160 -144 0
v -176 -144 0
v -176 -128 0
v -160 -128 0
v -176 -144 0
v -192 -144 0
v -192 -128 0
v -176 -128 0
v -192 -144 0
v -208 -144 0
v -208 -128 0
v -192 -128 0
v -208 -144 0
v -224 -144 0
v -224 -128 0
v -208 -128 0
v -224 -144 0
v -240 -144 0
v -240 -128 0
v -224 -128 0
v -240 -144 0
v -256 -144 0
v -256 -128 0
v -240 -128 0
v 0 -160 0
v -16 -160 0
v -16 -144 0
v 0 -144 0
v -16 -160 0
v -32 -160 0
v -32 -144 0
v -16 -144 0
v -32 -160 0
v -48 -160 0
v -48 -144 0
v -32 -144 0
v -48 -160 0
v -64 -160 0
v -64 -144 0
v -48 -144 0
v -64 -160 0
v -80 -160 0
v -80 -144 0
v -64 -144 0
v -80 -160 0
v -96 -160 0
v -96 -144 0
v -80 -144 0
v -96 -160 0
v -112 -160 0
v -112 -144 0
v -96 -144 0
v -112 -160 0
v -128 -160 0
v -128 -144 0
v -112 -144 0
v -128 -160 0
v -144 -160 0
v -144 -144 0
v -128 -144 0
v -144 -160 0
v -160 -160 0
v -160 -144 0
v -144 -144 0
v -160 -160 0
v -176 -160 0
v -176 -144 0
v -160 -144 0
v -176 -160 0
v -192 -160 0
v -192 -144 0
v -176 -144 0
v -192 -160 0
v -208 -160 0
v -208 -144 0
v -192 -144 0
v -208 -160 0
v -224 -160 0
v -224 -144 0
v -208 -144 0
v -224 -160 0
v -240 -160 0
v -240 -144 0
v -224 -144 0
v -240 -160 0
v -256 -160 0
v -256 -144 0
v -240 -144 0
v 0 -176 0
v -16 -176 0
v -16 -160 0
v 0 -160 0
v -16 -176 0
v -32 -176 0
v -32 -160 0
v -16 -160 0
v -32 -176 0
v -48 -176 0
v -48 -160 0
v -32 -160 0
v -48 -176 0
v -64 -176 0
v -64 -160 0
v -48 -160 0
v -64 -176 0
v -80 -176 0
v -80 -160 0
v -64 -160 0
v -80 -176 0
v -96 -176 0
v -96 -160 0
v -80 -160 0
v -96 -176 0
v -112 -176 0
v -112 -160 0
v -96 -160 0
v -112 -176 0
v -128 -176 0
v -128 -160 0
v -112 -160 0
v -128 -176 0
v -144 -176 0
v -144 -160 0
v -128 -160 0
v -144 -176 0
v -160 -176 0
v -160 -160 0
v -144 -160 0
v -160 -176 0
v -176 -176 0
v -176 -160 0
v -160 -160 0
v -176 -176 0
v -192 -176 0
v -192 -160 0
v -176 -160 0
v -192 -176 0
v -208 -176 0
v -208 -160 0
v -192 -160 0
v -208 -176 0
v -224 -176 0
v -224 -160 0
v -208 -160 0
v -224 -176 0
v -240 -176 0
v -240 -160 0
v -224 -160 0
v -240 -176 0
v -256 -176 0
v -256 -160 0
v -240 -160 0
v 0 -192 0
v -16 -192 0
v -16 -176 0
v 0 -176 0
v -16 -192 0
v -32 -192 0
v -32 -176 0
v -16 -176 0
v -32 -192 0
v -48 -192 0
v -48 -176 0
v -32 -176 0
v -48 -192 0
v -64 -192 0
v -64 -176 0
v -48 -176 0
v -64 -192 0
v -80 -192 0
v -80 -176 0
v -64 -176 0
v -80 -192 0
v -96 -192 0
v -96 -176 0
v -80 -176 0
v -96 -192 0
v -112 -192 0
v -112 -176 0
v -96 -176 0
v -112 -192 0
v -128 -192 0
v -128 -176 0
v -112 -176 0
v -128 -192 0
v -144 -192 0
v -144 -176 0
v -128 -176 0
v -144 -192 0
v -160 -192 0
v -160 -176 0
v -144 -176 0
v -160 -192 0
v -176 -192 0
v -176 -176 0
v -160 -176 0
v -176 -192 0
v -192 -192 0
v -192 -176 0
v -176 -176 0
v -192 -192 0
v -208 -192 0
v -208 -176 0
v -192 -176 0
v -208 -192 0
v -224 -192 0
v -224 -176 0
v -208 -176 0
v -224 -192 0
v -240 -192 0
v -240 -176 0
v -224 -176 0
v -240 -192 0
v -256 -192 0
v -256 -176 0
v -240 -176 0
v 0 -208 0
v -16 -208 0
v -16 -192 0
v 0 -192 0
v -16 -208 0
v -32 -208 0
v -32 -192 0
v -16 -192 0
v -32 -208 0
v -48 -208 0
v -48 -192 0
v -32 -192 0
v -48 -208 0
v -64 -208 0
v -64 -192 0
v -48 -192 0
v -64 -208 0
v -80 -208 0
v -80 -192 0
v -64 -192 0
v -80 -208 0
v -96 -208 0
v -96 -192 0
v -80 -192 0
v -96 -208 0
v -112 -208 0
v -112 -192 0
v -96 -192 0
v -112 -208 0
v -128 -208 0
v -128 -192 0
v -112 -192 0
v -128 -208 0
v -144 -208 0
v -144 -192 0
v -128 -192 0
v -144 -208 0
v -160 -208 0
v -160 -192 0
v -144 -192 0
v -160 -208 0
v -176 -208 0
v -176 -192 0
v -160 -192 0
v -176 -208 0
v -192 -208 0
v -192 -192 0
v -176 -192 0
v -192 -208 0
v -208 -208 0
v -208 -192 0
v -192 -192 0
v -208 -208 0
v -224 -208 0
v -224 -192 0
v -208 -192 0
v -224 -208 0
v -240 -208 0
v -240 -192 0
v -224 -192 0
v -240 -208 0
v -256 -208 0
v -256 -192 0
v -240 -192 0
v 0 -224 0
v -16 -224 0
v -16 -208 0
v 0 -208 0
v -16 -224 0
v -32 -224 0
v -32 -208 0
v -16 -208 0
v -32 -224 0
v -48 -224 0
v -48 -208 0
v -32 -208 0
v -48 -224 0
v -64 -224 0
v -64 -208 0
v -48 -208 0
v -64 -224 0
v -80 -224 0
v -80 -208 0
v -64 -208 0
v -80 -224 0
v -96 -224 0
v -96 -208 0
v -80 -208 0
v -96 -224 0
v -112 -224 0
v -112 -208 0
v -96 -208 0
v -112 -224 0
v -128 -224 0
v -128 -208 0
v -112 -208 0
v -128 -224 0
v -144 -224 0
v -144 -208 0
v -128 -208 0
v -144 -224 0
v -160 -224 0
v -160 -208 0
v -144 -208 0
v -160 -224 0
v -176 -224 0
v -176 -208 0
v -160 -208 0
v -176 -224 0
v -192 -224 0
v -192 -208 0
v -176 -208 0
v -192 -224 0
v -208 -224 0
v -208 -208 0
v -192 -208 0
v -208 -224 0
v -224 -224 0
v -224 -208 0
v -208 -208 0
v -224 -224 0
v -240 -224 0
v -240 -208 0
v -224 -208 0
v -240 -224 0
v -256 -224 0
v -256 -208 0
v -240 -208 0
v 0 -240 0
v -16 -240 0
v -16 -224 0
v 0 -224 0
v -16 -240 0
v -32 -240 0
v -32 -224 0
v -16 -224 0
v -32 -240 0
v -48 -240 0
v -48 -224 0
v -32 -224 0
v -48 -240 0
v -64 -240 0
v -64 -224 0
v -48 -224 0
v -64 -240 0
v -80 -240 0
v -80 -224 0
v -64 -224 0
v -80 -240 0
v -96 -240 0
v -96 -224 0
v -80 -224 0
v -96 -240 0
v -112 -240 0
v -112 -224 0
v -96 -224 0
v -112 -240 0
v -128 -240 0
v -128 -224 0
v -112 -224 0
v -128 -240 0
v -144 -240 0
v -144 -224 0
v -128 -224 0
v -144 -240 0
v -160 -240 0
v -160 -224 0
v -144 -224 0
v -160 -240 0
v -176 -240 0
v -176 -224 0
v -160 -224 0
v -176 -240 0
v -192 -240 0
v -192 -224 0
v -176 -224 0
v -192 -240 0
v -208 -240 0
v -208 -224 0
v -192 -224 0
v -208 -240 0
v -224 -240 0
v -224 -224 0
v -208 -224 0
v -224 -240 0
v -240 -240 0
v -240 -224 0
v -224 -224 0
v -240 -240 0
v -256 -240 0
v -256 -224 0
v -240 -224 0
v 0 -256 0
v -16 -256 0
v -16 -240 0
v 0 -240 0
v -16 -256 0
v -32 -256 0
v -32 -240 0
v -16 -240 0
v -32 -256 0
v -48 -256 0
v -48 -240 0
v -32 -240 0
v -48 -256 0
v -64 -256 0
v -64 -240 0
v -48 -240 0
v -64 -256 0
v -80 -256 0
v -80 -240 0
v -64 -240 0
v -80 -256 0
v -96 -256 0
v -96 -240 0
v -80 -240 0
v -96 -256 0
v -112 -256 0
v -112 -240 0
v -96 -240 0
v -112 -256 0
v -128 -256 0
v -128 -240 0
v -112 -240 0
v -128 -256 0
v -144 -256 0
v -144 -240 0
v -128 -240 0
v -144 -256 0
v -160 -256 0
v -160 -240 0
v -144 -240 0
v -160 -256 0
v -176 -256 0
v -176 -240 0
v -160 -240 0
v -176 -256 0
v -192 -256 0
v -192 -240 0
v -176 -240 0
v -192 -256 0
v -208 -256 0
v -208 -240 0
v -192 -240 0
v -208 -256 0
v -224 -256 0
v -224 -240 0
v -208 -240 0
v -224 -256 0
v -240 -256 0
v -240 -240 0
v -224 -240 0
v -240 -256 0
v -256 -256 0
v -256 -240 0
v -240 -240 0

# Texture cooridinates (Count = 49)
vt 0.01953125 0.4375
vt 0.0234375 0.4375
vt 0.0234375 0.453125
vt 0.01953125 0.453125
vt 0.02734375 0.453125
vt 0.02734375 0.46875
vt 0.0234375 0.46875
vt 0.01171875 0.46875
vt 0.015625 0.46875
vt 0.015625 0.484375
vt 0.01171875 0.484375
vt 0.01953125 0.390625
vt 0.0234375 0.390625
vt 0.0234375 0.40625
vt 0.01953125 0.40625
vt 0.0078125 0.421875
vt 0.01171875 0.421875
vt 0.01171875 0.4375
vt 0.0078125 0.4375
vt 0.02734375 0.390625
vt 0.02734375 0.40625
vt 0.015625 0.40625
vt 0.01953125 0.421875
vt 0.015625 0.421875
vt 0.01953125 0.46875
vt 0.015625 0.4375
vt 0.015625 0.453125
vt 0.03125 0.46875
vt 0.03125 0.484375
vt 0.02734375 0.484375
vt 0.02734375 0.421875
vt 0.0234375 0.421875
vt 0.01171875 0.453125
vt 0.0078125 0.453125
vt 0.0078125 0.46875
vt 0.0078125 0.484375
vt 0.03125 0.390625
vt 0.03125 0.40625
vt 0.01171875 0.390625
vt 0.015625 0.390625
vt 0.01171875 0.40625
vt 0.02734375 0.4375
vt 0.03125 0.4375
vt 0.03125 0.453125
vt 0.01953125 0.484375
vt 0.03125 0.421875
vt 0.0234375 0.484375
vt 0.0078125 0.390625
vt 0.0078125 0.40625

# Normal
vn 0 0 -1

# Mesh description
g TitleIntro_mesh_0067

# Faces
f 1/1/1 2/2/1 3/3/1 4/4/1
f 5/3/1 6/5/1 7/6/1 8/7/1
f 9/8/1 10/9/1 11/10/1 12/11/1
f 13/12/1 14/13/1 15/14/1 16/15/1
f 17/16/1 18/17/1 19/18/1 20/19/1
f 21/13/1 22/20/1 23/21/1 24/14/1
f 25/22/1 26/15/1 27/23/1 28/24/1
f 29/4/1 30/3/1 31/7/1 32/25/1
f 33/26/1 34/1/1 35/4/1 36/27/1
f 37/8/1 38/9/1 39/10/1 40/11/1
f 41/6/1 42/28/1 43/29/1 44/30/1
f 45/14/1 46/21/1 47/31/1 48/32/1
f 49/19/1 50/18/1 51/33/1 52/34/1
f 53/35/1 54/8/1 55/11/1 56/36/1
f 57/33/1 58/27/1 59/9/1 60/8/1
f 61/20/1 62/37/1 63/38/1 64/21/1
f 65/19/1 66/18/1 67/33/1 68/34/1
f 69/6/1 70/28/1 71/29/1 72/30/1
f 73/3/1 74/5/1 75/6/1 76/7/1
f 77/23/1 78/32/1 79/2/1 80/1/1
f 81/24/1 82/23/1 83/1/1 84/26/1
f 85/8/1 86/9/1 87/10/1 88/11/1
f 89/4/1 90/3/1 91/7/1 92/25/1
f 93/39/1 94/40/1 95/22/1 96/41/1
f 97/27/1 98/4/1 99/25/1 100/9/1
f 101/18/1 102/26/1 103/27/1 104/33/1
f 105/42/1 106/43/1 107/44/1 108/5/1
f 109/8/1 110/9/1 111/10/1 112/11/1
f 113/17/1 114/24/1 115/26/1 116/18/1
f 117/40/1 118/12/1 119/15/1 120/22/1
f 121/32/1 122/31/1 123/42/1 124/2/1
f 125/9/1 126/25/1 127/45/1 128/10/1
f 129/4/1 130/3/1 131/7/1 132/25/1
f 133/4/1 134/3/1 135/7/1 136/25/1
f 137/1/1 138/2/1 139/3/1 140/4/1
f 141/31/1 142/46/1 143/43/1 144/42/1
f 145/2/1 146/42/1 147/5/1 148/3/1
f 149/31/1 150/46/1 151/43/1 152/42/1
f 153/4/1 154/3/1 155/7/1 156/25/1
f 157/18/1 158/26/1 159/27/1 160/33/1
f 161/17/1 162/24/1 163/26/1 164/18/1
f 165/15/1 166/14/1 167/32/1 168/23/1
f 169/39/1 170/40/1 171/22/1 172/41/1
f 173/4/1 174/3/1 175/7/1 176/25/1
f 177/41/1 178/22/1 179/24/1 180/17/1
f 181/35/1 182/8/1 183/11/1 184/36/1
f 185/24/1 186/23/1 187/1/1 188/26/1
f 189/20/1 190/37/1 191/38/1 192/21/1
f 193/1/1 194/2/1 195/3/1 196/4/1
f 197/12/1 198/13/1 199/14/1 200/15/1
f 201/17/1 202/24/1 203/26/1 204/18/1
f 205/41/1 206/22/1 207/24/1 208/17/1
f 209/8/1 210/9/1 211/10/1 212/11/1
f 213/8/1 214/9/1 215/10/1 216/11/1
f 217/27/1 218/4/1 219/25/1 220/9/1
f 221/26/1 222/1/1 223/4/1 224/27/1
f 225/32/1 226/31/1 227/42/1 228/2/1
f 229/13/1 230/20/1 231/21/1 232/14/1
f 233/19/1 234/18/1 235/33/1 236/34/1
f 237/14/1 238/21/1 239/31/1 240/32/1
f 241/12/1 242/13/1 243/14/1 244/15/1
f 245/31/1 246/46/1 247/43/1 248/42/1
f 249/12/1 250/13/1 251/14/1 252/15/1
f 253/22/1 254/15/1 255/23/1 256/24/1
f 257/21/1 258/38/1 259/46/1 260/31/1
f 261/12/1 262/13/1 263/14/1 264/15/1
f 265/16/1 266/17/1 267/18/1 268/19/1
f 269/25/1 270/7/1 271/47/1 272/45/1
f 273/13/1 274/20/1 275/21/1 276/14/1
f 277/25/1 278/7/1 279/47/1 280/45/1
f 281/20/1 282/37/1 283/38/1 284/21/1
f 285/12/1 286/13/1 287/14/1 288/15/1
f 289/7/1 290/6/1 291/30/1 292/47/1
f 293/8/1 294/9/1 295/10/1 296/11/1
f 297/2/1 298/42/1 299/5/1 300/3/1
f 301/42/1 302/43/1 303/44/1 304/5/1
f 305/18/1 306/26/1 307/27/1 308/33/1
f 309/33/1 310/27/1 311/9/1 312/8/1
f 313/33/1 314/27/1 315/9/1 316/8/1
f 317/22/1 318/15/1 319/23/1 320/24/1
f 321/27/1 322/4/1 323/25/1 324/9/1
f 325/15/1 326/14/1 327/32/1 328/23/1
f 329/24/1 330/23/1 331/1/1 332/26/1
f 333/42/1 334/43/1 335/44/1 336/5/1
f 337/39/1 338/40/1 339/22/1 340/41/1
f 341/32/1 342/31/1 343/42/1 344/2/1
f 345/2/1 346/42/1 347/5/1 348/3/1
f 349/23/1 350/32/1 351/2/1 352/1/1
f 353/2/1 354/42/1 355/5/1 356/3/1
f 357/31/1 358/46/1 359/43/1 360/42/1
f 361/16/1 362/17/1 363/18/1 364/19/1
f 365/21/1 366/38/1 367/46/1 368/31/1
f 369/26/1 370/1/1 371/4/1 372/27/1
f 373/4/1 374/3/1 375/7/1 376/25/1
f 377/14/1 378/21/1 379/31/1 380/32/1
f 381/3/1 382/5/1 383/6/1 384/7/1
f 385/12/1 386/13/1 387/14/1 388/15/1
f 389/48/1 390/39/1 391/41/1 392/49/1
f 393/23/1 394/32/1 395/2/1 396/1/1
f 397/49/1 398/41/1 399/17/1 400/16/1
f 401/41/1 402/22/1 403/24/1 404/17/1
f 405/31/1 406/46/1 407/43/1 408/42/1
f 409/13/1 410/20/1 411/21/1 412/14/1
f 413/42/1 414/43/1 415/44/1 416/5/1
f 417/24/1 418/23/1 419/1/1 420/26/1
f 421/42/1 422/43/1 423/44/1 424/5/1
f 425/49/1 426/41/1 427/17/1 428/16/1
f 429/14/1 430/21/1 431/31/1 432/32/1
f 433/31/1 434/46/1 435/43/1 436/42/1
f 437/12/1 438/13/1 439/14/1 440/15/1
f 441/25/1 442/7/1 443/47/1 444/45/1
f 445/21/1 446/38/1 447/46/1 448/31/1
f 449/13/1 450/20/1 451/21/1 452/14/1
f 453/25/1 454/7/1 455/47/1 456/45/1
f 457/15/1 458/14/1 459/32/1 460/23/1
f 461/19/1 462/18/1 463/33/1 464/34/1
f 465/31/1 466/46/1 467/43/1 468/42/1
f 469/31/1 470/46/1 471/43/1 472/42/1
f 473/7/1 474/6/1 475/30/1 476/47/1
f 477/20/1 478/37/1 479/38/1 480/21/1
f 481/39/1 482/40/1 483/22/1 484/41/1
f 485/42/1 486/43/1 487/44/1 488/5/1
f 489/18/1 490/26/1 491/27/1 492/33/1
f 493/39/1 494/40/1 495/22/1 496/41/1
f 497/15/1 498/14/1 499/32/1 500/23/1
f 501/31/1 502/46/1 503/43/1 504/42/1
f 505/41/1 506/22/1 507/24/1 508/17/1
f 509/5/1 510/44/1 511/28/1 512/6/1
f 513/15/1 514/14/1 515/32/1 516/23/1
f 517/23/1 518/32/1 519/2/1 520/1/1
f 521/33/1 522/27/1 523/9/1 524/8/1
f 525/6/1 526/28/1 527/29/1 528/30/1
f 529/25/1 530/7/1 531/47/1 532/45/1
f 533/8/1 534/9/1 535/10/1 536/11/1
f 537/41/1 538/22/1 539/24/1 540/17/1
f 541/21/1 542/38/1 543/46/1 544/31/1
f 545/22/1 546/15/1 547/23/1 548/24/1
f 549/18/1 550/26/1 551/27/1 552/33/1
f 553/2/1 554/42/1 555/5/1 556/3/1
f 557/26/1 558/1/1 559/4/1 560/27/1
f 561/35/1 562/8/1 563/11/1 564/36/1
f 565/15/1 566/14/1 567/32/1 568/23/1
f 569/34/1 570/33/1 571/8/1 572/35/1
f 573/26/1 574/1/1 575/4/1 576/27/1
f 577/12/1 578/13/1 579/14/1 580/15/1
f 581/39/1 582/40/1 583/22/1 584/41/1
f 585/48/1 586/39/1 587/41/1 588/49/1
f 589/20/1 590/37/1 591/38/1 592/21/1
f 593/21/1 594/38/1 595/46/1 596/31/1
f 597/21/1 598/38/1 599/46/1 600/31/1
f 601/15/1 602/14/1 603/32/1 604/23/1
f 605/23/1 606/32/1 607/2/1 608/1/1
f 609/6/1 610/28/1 611/29/1 612/30/1
f 613/27/1 614/4/1 615/25/1 616/9/1
f 617/39/1 618/40/1 619/22/1 620/41/1
f 621/24/1 622/23/1 623/1/1 624/26/1
f 625/25/1 626/7/1 627/47/1 628/45/1
f 629/21/1 630/38/1 631/46/1 632/31/1
f 633/42/1 634/43/1 635/44/1 636/5/1
f 637/35/1 638/8/1 639/11/1 640/36/1
f 641/40/1 642/12/1 643/15/1 644/22/1
f 645/32/1 646/31/1 647/42/1 648/2/1
f 649/3/1 650/5/1 651/6/1 652/7/1
f 653/3/1 654/5/1 655/6/1 656/7/1
f 657/7/1 658/6/1 659/30/1 660/47/1
f 661/31/1 662/46/1 663/43/1 664/42/1
f 665/25/1 666/7/1 667/47/1 668/45/1
f 669/26/1 670/1/1 671/4/1 672/27/1
f 673/15/1 674/14/1 675/32/1 676/23/1
f 677/19/1 678/18/1 679/33/1 680/34/1
f 681/1/1 682/2/1 683/3/1 684/4/1
f 685/19/1 686/18/1 687/33/1 688/34/1
f 689/40/1 690/12/1 691/15/1 692/22/1
f 693/15/1 694/14/1 695/32/1 696/23/1
f 697/4/1 698/3/1 699/7/1 700/25/1
f 701/35/1 702/8/1 703/11/1 704/36/1
f 705/33/1 706/27/1 707/9/1 708/8/1
f 709/3/1 710/5/1 711/6/1 712/7/1
f 713/25/1 714/7/1 715/47/1 716/45/1
f 717/12/1 718/13/1 719/14/1 720/15/1
f 721/42/1 722/43/1 723/44/1 724/5/1
f 725/25/1 726/7/1 727/47/1 728/45/1
f 729/22/1 730/15/1 731/23/1 732/24/1
f 733/17/1 734/24/1 735/26/1 736/18/1
f 737/1/1 738/2/1 739/3/1 740/4/1
f 741/27/1 742/4/1 743/25/1 744/9/1
f 745/17/1 746/24/1 747/26/1 748/18/1
f 749/13/1 750/20/1 751/21/1 752/14/1
f 753/31/1 754/46/1 755/43/1 756/42/1
f 757/4/1 758/3/1 759/7/1 760/25/1
f 761/13/1 762/20/1 763/21/1 764/14/1
f 765/8/1 766/9/1 767/10/1 768/11/1
f 769/32/1 770/31/1 771/42/1 772/2/1
f 773/8/1 774/9/1 775/10/1 776/11/1
f 777/23/1 778/32/1 779/2/1 780/1/1
f 781/13/1 782/20/1 783/21/1 784/14/1
f 785/9/1 786/25/1 787/45/1 788/10/1
f 789/41/1 790/22/1 791/24/1 792/17/1
f 793/8/1 794/9/1 795/10/1 796/11/1
f 797/22/1 798/15/1 799/23/1 800/24/1
f 801/14/1 802/21/1 803/31/1 804/32/1
f 805/13/1 806/20/1 807/21/1 808/14/1
f 809/41/1 810/22/1 811/24/1 812/17/1
f 813/23/1 814/32/1 815/2/1 816/1/1
f 817/49/1 818/41/1 819/17/1 820/16/1
f 821/9/1 822/25/1 823/45/1 824/10/1
f 825/48/1 826/39/1 827/41/1 828/49/1
f 829/32/1 830/31/1 831/42/1 832/2/1
f 833/6/1 834/28/1 835/29/1 836/30/1
f 837/40/1 838/12/1 839/15/1 840/22/1
f 841/26/1 842/1/1 843/4/1 844/27/1
f 845/1/1 846/2/1 847/3/1 848/4/1
f 849/42/1 850/43/1 851/44/1 852/5/1
f 853/33/1 854/27/1 855/9/1 856/8/1
f 857/20/1 858/37/1 859/38/1 860/21/1
f 861/8/1 862/9/1 863/10/1 864/11/1
f 865/13/1 866/20/1 867/21/1 868/14/1
f 869/32/1 870/31/1 871/42/1 872/2/1
f 873/22/1 874/15/1 875/23/1 876/24/1
f 877/13/1 878/20/1 879/21/1 880/14/1
f 881/34/1 882/33/1 883/8/1 884/35/1
f 885/2/1 886/42/1 887/5/1 888/3/1
f 889/35/1 890/8/1 891/11/1 892/36/1
f 893/2/1 894/42/1 895/5/1 896/3/1
f 897/48/1 898/39/1 899/41/1 900/49/1
f 901/25/1 902/7/1 903/47/1 904/45/1
f 905/42/1 906/43/1 907/44/1 908/5/1
f 909/17/1 910/24/1 911/26/1 912/18/1
f 913/2/1 914/42/1 915/5/1 916/3/1
f 917/13/1 918/20/1 919/21/1 920/14/1
f 921/23/1 922/32/1 923/2/1 924/1/1
f 925/27/1 926/4/1 927/25/1 928/9/1
f 929/49/1 930/41/1 931/17/1 932/16/1
f 933/25/1 934/7/1 935/47/1 936/45/1
f 937/8/1 938/9/1 939/10/1 940/11/1
f 941/16/1 942/17/1 943/18/1 944/19/1
f 945/48/1 946/39/1 947/41/1 948/49/1
f 949/48/1 950/39/1 951/41/1 952/49/1
f 953/13/1 954/20/1 955/21/1 956/14/1
f 957/35/1 958/8/1 959/11/1 960/36/1
f 961/41/1 962/22/1 963/24/1 964/17/1
f 965/3/1 966/5/1 967/6/1 968/7/1
f 969/5/1 970/44/1 971/28/1 972/6/1
f 973/4/1 974/3/1 975/7/1 976/25/1
f 977/32/1 978/31/1 979/42/1 980/2/1
f 981/12/1 982/13/1 983/14/1 984/15/1
f 985/21/1 986/38/1 987/46/1 988/31/1
f 989/34/1 990/33/1 991/8/1 992/35/1
f 993/25/1 994/7/1 995/47/1 996/45/1
f 997/24/1 998/23/1 999/1/1 1000/26/1
f 1001/15/1 1002/14/1 1003/32/1 1004/23/1
f 1005/40/1 1006/12/1 1007/15/1 1008/22/1
f 1009/41/1 1010/22/1 1011/24/1 1012/17/1
f 1013/23/1 1014/32/1 1015/2/1 1016/1/1
f 1017/27/1 1018/4/1 1019/25/1 1020/9/1
f 1021/8/1 1022/9/1 1023/10/1 1024/11/1

