# Tiled2Unity generated file. Do not modify by hand.
# Wavefront file for 'TitleIntro_mesh_0026.obj'

# Vertices (Count = 1024)
v 0 -16 0
v -16 -16 0
v -16 0 0
v 0 0 0
v -16 -16 0
v -32 -16 0
v -32 0 0
v -16 0 0
v -32 -16 0
v -48 -16 0
v -48 0 0
v -32 0 0
v -48 -16 0
v -64 -16 0
v -64 0 0
v -48 0 0
v -64 -16 0
v -80 -16 0
v -80 0 0
v -64 0 0
v -80 -16 0
v -96 -16 0
v -96 0 0
v -80 0 0
v -96 -16 0
v -112 -16 0
v -112 0 0
v -96 0 0
v -112 -16 0
v -128 -16 0
v -128 0 0
v -112 0 0
v -128 -16 0
v -144 -16 0
v -144 0 0
v -128 0 0
v -144 -16 0
v -160 -16 0
v -160 0 0
v -144 0 0
v -160 -16 0
v -176 -16 0
v -176 0 0
v -160 0 0
v -176 -16 0
v -192 -16 0
v -192 0 0
v -176 0 0
v -192 -16 0
v -208 -16 0
v -208 0 0
v -192 0 0
v -208 -16 0
v -224 -16 0
v -224 0 0
v -208 0 0
v -224 -16 0
v -240 -16 0
v -240 0 0
v -224 0 0
v -240 -16 0
v -256 -16 0
v -256 0 0
v -240 0 0
v 0 -32 0
v -16 -32 0
v -16 -16 0
v 0 -16 0
v -16 -32 0
v -32 -32 0
v -32 -16 0
v -16 -16 0
v -32 -32 0
v -48 -32 0
v -48 -16 0
v -32 -16 0
v -48 -32 0
v -64 -32 0
v -64 -16 0
v -48 -16 0
v -64 -32 0
v -80 -32 0
v -80 -16 0
v -64 -16 0
v -80 -32 0
v -96 -32 0
v -96 -16 0
v -80 -16 0
v -96 -32 0
v -112 -32 0
v -112 -16 0
v -96 -16 0
v -112 -32 0
v -128 -32 0
v -128 -16 0
v -112 -16 0
v -128 -32 0
v -144 -32 0
v -144 -16 0
v -128 -16 0
v -144 -32 0
v -160 -32 0
v -160 -16 0
v -144 -16 0
v -160 -32 0
v -176 -32 0
v -176 -16 0
v -160 -16 0
v -176 -32 0
v -192 -32 0
v -192 -16 0
v -176 -16 0
v -192 -32 0
v -208 -32 0
v -208 -16 0
v -192 -16 0
v -208 -32 0
v -224 -32 0
v -224 -16 0
v -208 -16 0
v -224 -32 0
v -240 -32 0
v -240 -16 0
v -224 -16 0
v -240 -32 0
v -256 -32 0
v -256 -16 0
v -240 -16 0
v 0 -48 0
v -16 -48 0
v -16 -32 0
v 0 -32 0
v -16 -48 0
v -32 -48 0
v -32 -32 0
v -16 -32 0
v -32 -48 0
v -48 -48 0
v -48 -32 0
v -32 -32 0
v -48 -48 0
v -64 -48 0
v -64 -32 0
v -48 -32 0
v -64 -48 0
v -80 -48 0
v -80 -32 0
v -64 -32 0
v -80 -48 0
v -96 -48 0
v -96 -32 0
v -80 -32 0
v -96 -48 0
v -112 -48 0
v -112 -32 0
v -96 -32 0
v -112 -48 0
v -128 -48 0
v -128 -32 0
v -112 -32 0
v -128 -48 0
v -144 -48 0
v -144 -32 0
v -128 -32 0
v -144 -48 0
v -160 -48 0
v -160 -32 0
v -144 -32 0
v -160 -48 0
v -176 -48 0
v -176 -32 0
v -160 -32 0
v -176 -48 0
v -192 -48 0
v -192 -32 0
v -176 -32 0
v -192 -48 0
v -208 -48 0
v -208 -32 0
v -192 -32 0
v -208 -48 0
v -224 -48 0
v -224 -32 0
v -208 -32 0
v -224 -48 0
v -240 -48 0
v -240 -32 0
v -224 -32 0
v -240 -48 0
v -256 -48 0
v -256 -32 0
v -240 -32 0
v 0 -64 0
v -16 -64 0
v -16 -48 0
v 0 -48 0
v -16 -64 0
v -32 -64 0
v -32 -48 0
v -16 -48 0
v -32 -64 0
v -48 -64 0
v -48 -48 0
v -32 -48 0
v -48 -64 0
v -64 -64 0
v -64 -48 0
v -48 -48 0
v -64 -64 0
v -80 -64 0
v -80 -48 0
v -64 -48 0
v -80 -64 0
v -96 -64 0
v -96 -48 0
v -80 -48 0
v -96 -64 0
v -112 -64 0
v -112 -48 0
v -96 -48 0
v -112 -64 0
v -128 -64 0
v -128 -48 0
v -112 -48 0
v -128 -64 0
v -144 -64 0
v -144 -48 0
v -128 -48 0
v -144 -64 0
v -160 -64 0
v -160 -48 0
v -144 -48 0
v -160 -64 0
v -176 -64 0
v -176 -48 0
v -160 -48 0
v -176 -64 0
v -192 -64 0
v -192 -48 0
v -176 -48 0
v -192 -64 0
v -208 -64 0
v -208 -48 0
v -192 -48 0
v -208 -64 0
v -224 -64 0
v -224 -48 0
v -208 -48 0
v -224 -64 0
v -240 -64 0
v -240 -48 0
v -224 -48 0
v -240 -64 0
v -256 -64 0
v -256 -48 0
v -240 -48 0
v 0 -80 0
v -16 -80 0
v -16 -64 0
v 0 -64 0
v -16 -80 0
v -32 -80 0
v -32 -64 0
v -16 -64 0
v -32 -80 0
v -48 -80 0
v -48 -64 0
v -32 -64 0
v -48 -80 0
v -64 -80 0
v -64 -64 0
v -48 -64 0
v -64 -80 0
v -80 -80 0
v -80 -64 0
v -64 -64 0
v -80 -80 0
v -96 -80 0
v -96 -64 0
v -80 -64 0
v -96 -80 0
v -112 -80 0
v -112 -64 0
v -96 -64 0
v -112 -80 0
v -128 -80 0
v -128 -64 0
v -112 -64 0
v -128 -80 0
v -144 -80 0
v -144 -64 0
v -128 -64 0
v -144 -80 0
v -160 -80 0
v -160 -64 0
v -144 -64 0
v -160 -80 0
v -176 -80 0
v -176 -64 0
v -160 -64 0
v -176 -80 0
v -192 -80 0
v -192 -64 0
v -176 -64 0
v -192 -80 0
v -208 -80 0
v -208 -64 0
v -192 -64 0
v -208 -80 0
v -224 -80 0
v -224 -64 0
v -208 -64 0
v -224 -80 0
v -240 -80 0
v -240 -64 0
v -224 -64 0
v -240 -80 0
v -256 -80 0
v -256 -64 0
v -240 -64 0
v 0 -96 0
v -16 -96 0
v -16 -80 0
v 0 -80 0
v -16 -96 0
v -32 -96 0
v -32 -80 0
v -16 -80 0
v -32 -96 0
v -48 -96 0
v -48 -80 0
v -32 -80 0
v -48 -96 0
v -64 -96 0
v -64 -80 0
v -48 -80 0
v -64 -96 0
v -80 -96 0
v -80 -80 0
v -64 -80 0
v -80 -96 0
v -96 -96 0
v -96 -80 0
v -80 -80 0
v -96 -96 0
v -112 -96 0
v -112 -80 0
v -96 -80 0
v -112 -96 0
v -128 -96 0
v -128 -80 0
v -112 -80 0
v -128 -96 0
v -144 -96 0
v -144 -80 0
v -128 -80 0
v -144 -96 0
v -160 -96 0
v -160 -80 0
v -144 -80 0
v -160 -96 0
v -176 -96 0
v -176 -80 0
v -160 -80 0
v -176 -96 0
v -192 -96 0
v -192 -80 0
v -176 -80 0
v -192 -96 0
v -208 -96 0
v -208 -80 0
v -192 -80 0
v -208 -96 0
v -224 -96 0
v -224 -80 0
v -208 -80 0
v -224 -96 0
v -240 -96 0
v -240 -80 0
v -224 -80 0
v -240 -96 0
v -256 -96 0
v -256 -80 0
v -240 -80 0
v 0 -112 0
v -16 -112 0
v -16 -96 0
v 0 -96 0
v -16 -112 0
v -32 -112 0
v -32 -96 0
v -16 -96 0
v -32 -112 0
v -48 -112 0
v -48 -96 0
v -32 -96 0
v -48 -112 0
v -64 -112 0
v -64 -96 0
v -48 -96 0
v -64 -112 0
v -80 -112 0
v -80 -96 0
v -64 -96 0
v -80 -112 0
v -96 -112 0
v -96 -96 0
v -80 -96 0
v -96 -112 0
v -112 -112 0
v -112 -96 0
v -96 -96 0
v -112 -112 0
v -128 -112 0
v -128 -96 0
v -112 -96 0
v -128 -112 0
v -144 -112 0
v -144 -96 0
v -128 -96 0
v -144 -112 0
v -160 -112 0
v -160 -96 0
v -144 -96 0
v -160 -112 0
v -176 -112 0
v -176 -96 0
v -160 -96 0
v -176 -112 0
v -192 -112 0
v -192 -96 0
v -176 -96 0
v -192 -112 0
v -208 -112 0
v -208 -96 0
v -192 -96 0
v -208 -112 0
v -224 -112 0
v -224 -96 0
v -208 -96 0
v -224 -112 0
v -240 -112 0
v -240 -96 0
v -224 -96 0
v -240 -112 0
v -256 -112 0
v -256 -96 0
v -240 -96 0
v 0 -128 0
v -16 -128 0
v -16 -112 0
v 0 -112 0
v -16 -128 0
v -32 -128 0
v -32 -112 0
v -16 -112 0
v -32 -128 0
v -48 -128 0
v -48 -112 0
v -32 -112 0
v -48 -128 0
v -64 -128 0
v -64 -112 0
v -48 -112 0
v -64 -128 0
v -80 -128 0
v -80 -112 0
v -64 -112 0
v -80 -128 0
v -96 -128 0
v -96 -112 0
v -80 -112 0
v -96 -128 0
v -112 -128 0
v -112 -112 0
v -96 -112 0
v -112 -128 0
v -128 -128 0
v -128 -112 0
v -112 -112 0
v -128 -128 0
v -144 -128 0
v -144 -112 0
v -128 -112 0
v -144 -128 0
v -160 -128 0
v -160 -112 0
v -144 -112 0
v -160 -128 0
v -176 -128 0
v -176 -112 0
v -160 -112 0
v -176 -128 0
v -192 -128 0
v -192 -112 0
v -176 -112 0
v -192 -128 0
v -208 -128 0
v -208 -112 0
v -192 -112 0
v -208 -128 0
v -224 -128 0
v -224 -112 0
v -208 -112 0
v -224 -128 0
v -240 -128 0
v -240 -112 0
v -224 -112 0
v -240 -128 0
v -256 -128 0
v -256 -112 0
v -240 -112 0
v 0 -144 0
v -16 -144 0
v -16 -128 0
v 0 -128 0
v -16 -144 0
v -32 -144 0
v -32 -128 0
v -16 -128 0
v -32 -144 0
v -48 -144 0
v -48 -128 0
v -32 -128 0
v -48 -144 0
v -64 -144 0
v -64 -128 0
v -48 -128 0
v -64 -144 0
v -80 -144 0
v -80 -128 0
v -64 -128 0
v -80 -144 0
v -96 -144 0
v -96 -128 0
v -80 -128 0
v -96 -144 0
v -112 -144 0
v -112 -128 0
v -96 -128 0
v -112 -144 0
v -128 -144 0
v -128 -128 0
v -112 -128 0
v -128 -144 0
v -144 -144 0
v -144 -128 0
v -128 -128 0
v -144 -144 0
v -160 -144 0
v -160 -128 0
v -144 -128 0
v -160 -144 0
v -176 -144 0
v -176 -128 0
v -160 -128 0
v -176 -144 0
v -192 -144 0
v -192 -128 0
v -176 -128 0
v -192 -144 0
v -208 -144 0
v -208 -128 0
v -192 -128 0
v -208 -144 0
v -224 -144 0
v -224 -128 0
v -208 -128 0
v -224 -144 0
v -240 -144 0
v -240 -128 0
v -224 -128 0
v -240 -144 0
v -256 -144 0
v -256 -128 0
v -240 -128 0
v 0 -160 0
v -16 -160 0
v -16 -144 0
v 0 -144 0
v -16 -160 0
v -32 -160 0
v -32 -144 0
v -16 -144 0
v -32 -160 0
v -48 -160 0
v -48 -144 0
v -32 -144 0
v -48 -160 0
v -64 -160 0
v -64 -144 0
v -48 -144 0
v -64 -160 0
v -80 -160 0
v -80 -144 0
v -64 -144 0
v -80 -160 0
v -96 -160 0
v -96 -144 0
v -80 -144 0
v -96 -160 0
v -112 -160 0
v -112 -144 0
v -96 -144 0
v -112 -160 0
v -128 -160 0
v -128 -144 0
v -112 -144 0
v -128 -160 0
v -144 -160 0
v -144 -144 0
v -128 -144 0
v -144 -160 0
v -160 -160 0
v -160 -144 0
v -144 -144 0
v -160 -160 0
v -176 -160 0
v -176 -144 0
v -160 -144 0
v -176 -160 0
v -192 -160 0
v -192 -144 0
v -176 -144 0
v -192 -160 0
v -208 -160 0
v -208 -144 0
v -192 -144 0
v -208 -160 0
v -224 -160 0
v -224 -144 0
v -208 -144 0
v -224 -160 0
v -240 -160 0
v -240 -144 0
v -224 -144 0
v -240 -160 0
v -256 -160 0
v -256 -144 0
v -240 -144 0
v 0 -176 0
v -16 -176 0
v -16 -160 0
v 0 -160 0
v -16 -176 0
v -32 -176 0
v -32 -160 0
v -16 -160 0
v -32 -176 0
v -48 -176 0
v -48 -160 0
v -32 -160 0
v -48 -176 0
v -64 -176 0
v -64 -160 0
v -48 -160 0
v -64 -176 0
v -80 -176 0
v -80 -160 0
v -64 -160 0
v -80 -176 0
v -96 -176 0
v -96 -160 0
v -80 -160 0
v -96 -176 0
v -112 -176 0
v -112 -160 0
v -96 -160 0
v -112 -176 0
v -128 -176 0
v -128 -160 0
v -112 -160 0
v -128 -176 0
v -144 -176 0
v -144 -160 0
v -128 -160 0
v -144 -176 0
v -160 -176 0
v -160 -160 0
v -144 -160 0
v -160 -176 0
v -176 -176 0
v -176 -160 0
v -160 -160 0
v -176 -176 0
v -192 -176 0
v -192 -160 0
v -176 -160 0
v -192 -176 0
v -208 -176 0
v -208 -160 0
v -192 -160 0
v -208 -176 0
v -224 -176 0
v -224 -160 0
v -208 -160 0
v -224 -176 0
v -240 -176 0
v -240 -160 0
v -224 -160 0
v -240 -176 0
v -256 -176 0
v -256 -160 0
v -240 -160 0
v 0 -192 0
v -16 -192 0
v -16 -176 0
v 0 -176 0
v -16 -192 0
v -32 -192 0
v -32 -176 0
v -16 -176 0
v -32 -192 0
v -48 -192 0
v -48 -176 0
v -32 -176 0
v -48 -192 0
v -64 -192 0
v -64 -176 0
v -48 -176 0
v -64 -192 0
v -80 -192 0
v -80 -176 0
v -64 -176 0
v -80 -192 0
v -96 -192 0
v -96 -176 0
v -80 -176 0
v -96 -192 0
v -112 -192 0
v -112 -176 0
v -96 -176 0
v -112 -192 0
v -128 -192 0
v -128 -176 0
v -112 -176 0
v -128 -192 0
v -144 -192 0
v -144 -176 0
v -128 -176 0
v -144 -192 0
v -160 -192 0
v -160 -176 0
v -144 -176 0
v -160 -192 0
v -176 -192 0
v -176 -176 0
v -160 -176 0
v -176 -192 0
v -192 -192 0
v -192 -176 0
v -176 -176 0
v -192 -192 0
v -208 -192 0
v -208 -176 0
v -192 -176 0
v -208 -192 0
v -224 -192 0
v -224 -176 0
v -208 -176 0
v -224 -192 0
v -240 -192 0
v -240 -176 0
v -224 -176 0
v -240 -192 0
v -256 -192 0
v -256 -176 0
v -240 -176 0
v 0 -208 0
v -16 -208 0
v -16 -192 0
v 0 -192 0
v -16 -208 0
v -32 -208 0
v -32 -192 0
v -16 -192 0
v -32 -208 0
v -48 -208 0
v -48 -192 0
v -32 -192 0
v -48 -208 0
v -64 -208 0
v -64 -192 0
v -48 -192 0
v -64 -208 0
v -80 -208 0
v -80 -192 0
v -64 -192 0
v -80 -208 0
v -96 -208 0
v -96 -192 0
v -80 -192 0
v -96 -208 0
v -112 -208 0
v -112 -192 0
v -96 -192 0
v -112 -208 0
v -128 -208 0
v -128 -192 0
v -112 -192 0
v -128 -208 0
v -144 -208 0
v -144 -192 0
v -128 -192 0
v -144 -208 0
v -160 -208 0
v -160 -192 0
v -144 -192 0
v -160 -208 0
v -176 -208 0
v -176 -192 0
v -160 -192 0
v -176 -208 0
v -192 -208 0
v -192 -192 0
v -176 -192 0
v -192 -208 0
v -208 -208 0
v -208 -192 0
v -192 -192 0
v -208 -208 0
v -224 -208 0
v -224 -192 0
v -208 -192 0
v -224 -208 0
v -240 -208 0
v -240 -192 0
v -224 -192 0
v -240 -208 0
v -256 -208 0
v -256 -192 0
v -240 -192 0
v 0 -224 0
v -16 -224 0
v -16 -208 0
v 0 -208 0
v -16 -224 0
v -32 -224 0
v -32 -208 0
v -16 -208 0
v -32 -224 0
v -48 -224 0
v -48 -208 0
v -32 -208 0
v -48 -224 0
v -64 -224 0
v -64 -208 0
v -48 -208 0
v -64 -224 0
v -80 -224 0
v -80 -208 0
v -64 -208 0
v -80 -224 0
v -96 -224 0
v -96 -208 0
v -80 -208 0
v -96 -224 0
v -112 -224 0
v -112 -208 0
v -96 -208 0
v -112 -224 0
v -128 -224 0
v -128 -208 0
v -112 -208 0
v -128 -224 0
v -144 -224 0
v -144 -208 0
v -128 -208 0
v -144 -224 0
v -160 -224 0
v -160 -208 0
v -144 -208 0
v -160 -224 0
v -176 -224 0
v -176 -208 0
v -160 -208 0
v -176 -224 0
v -192 -224 0
v -192 -208 0
v -176 -208 0
v -192 -224 0
v -208 -224 0
v -208 -208 0
v -192 -208 0
v -208 -224 0
v -224 -224 0
v -224 -208 0
v -208 -208 0
v -224 -224 0
v -240 -224 0
v -240 -208 0
v -224 -208 0
v -240 -224 0
v -256 -224 0
v -256 -208 0
v -240 -208 0
v 0 -240 0
v -16 -240 0
v -16 -224 0
v 0 -224 0
v -16 -240 0
v -32 -240 0
v -32 -224 0
v -16 -224 0
v -32 -240 0
v -48 -240 0
v -48 -224 0
v -32 -224 0
v -48 -240 0
v -64 -240 0
v -64 -224 0
v -48 -224 0
v -64 -240 0
v -80 -240 0
v -80 -224 0
v -64 -224 0
v -80 -240 0
v -96 -240 0
v -96 -224 0
v -80 -224 0
v -96 -240 0
v -112 -240 0
v -112 -224 0
v -96 -224 0
v -112 -240 0
v -128 -240 0
v -128 -224 0
v -112 -224 0
v -128 -240 0
v -144 -240 0
v -144 -224 0
v -128 -224 0
v -144 -240 0
v -160 -240 0
v -160 -224 0
v -144 -224 0
v -160 -240 0
v -176 -240 0
v -176 -224 0
v -160 -224 0
v -176 -240 0
v -192 -240 0
v -192 -224 0
v -176 -224 0
v -192 -240 0
v -208 -240 0
v -208 -224 0
v -192 -224 0
v -208 -240 0
v -224 -240 0
v -224 -224 0
v -208 -224 0
v -224 -240 0
v -240 -240 0
v -240 -224 0
v -224 -224 0
v -240 -240 0
v -256 -240 0
v -256 -224 0
v -240 -224 0
v 0 -256 0
v -16 -256 0
v -16 -240 0
v 0 -240 0
v -16 -256 0
v -32 -256 0
v -32 -240 0
v -16 -240 0
v -32 -256 0
v -48 -256 0
v -48 -240 0
v -32 -240 0
v -48 -256 0
v -64 -256 0
v -64 -240 0
v -48 -240 0
v -64 -256 0
v -80 -256 0
v -80 -240 0
v -64 -240 0
v -80 -256 0
v -96 -256 0
v -96 -240 0
v -80 -240 0
v -96 -256 0
v -112 -256 0
v -112 -240 0
v -96 -240 0
v -112 -256 0
v -128 -256 0
v -128 -240 0
v -112 -240 0
v -128 -256 0
v -144 -256 0
v -144 -240 0
v -128 -240 0
v -144 -256 0
v -160 -256 0
v -160 -240 0
v -144 -240 0
v -160 -256 0
v -176 -256 0
v -176 -240 0
v -160 -240 0
v -176 -256 0
v -192 -256 0
v -192 -240 0
v -176 -240 0
v -192 -256 0
v -208 -256 0
v -208 -240 0
v -192 -240 0
v -208 -256 0
v -224 -256 0
v -224 -240 0
v -208 -240 0
v -224 -256 0
v -240 -256 0
v -240 -240 0
v -224 -240 0
v -240 -256 0
v -256 -256 0
v -256 -240 0
v -240 -240 0

# Texture cooridinates (Count = 49)
vt 0.01953125 0.46875
vt 0.0234375 0.46875
vt 0.0234375 0.484375
vt 0.01953125 0.484375
vt 0.01953125 0.40625
vt 0.0234375 0.40625
vt 0.0234375 0.421875
vt 0.01953125 0.421875
vt 0.02734375 0.453125
vt 0.03125 0.453125
vt 0.03125 0.46875
vt 0.02734375 0.46875
vt 0.015625 0.46875
vt 0.015625 0.484375
vt 0.02734375 0.421875
vt 0.02734375 0.4375
vt 0.0234375 0.4375
vt 0.015625 0.40625
vt 0.015625 0.421875
vt 0.0234375 0.390625
vt 0.02734375 0.390625
vt 0.02734375 0.40625
vt 0.01953125 0.4375
vt 0.0234375 0.453125
vt 0.01953125 0.453125
vt 0.03125 0.4375
vt 0.01953125 0.390625
vt 0.0078125 0.390625
vt 0.01171875 0.390625
vt 0.01171875 0.40625
vt 0.0078125 0.40625
vt 0.01171875 0.421875
vt 0.0078125 0.421875
vt 0.015625 0.4375
vt 0.015625 0.453125
vt 0.03125 0.484375
vt 0.02734375 0.484375
vt 0.01171875 0.4375
vt 0.0078125 0.4375
vt 0.01171875 0.453125
vt 0.0078125 0.453125
vt 0.03125 0.421875
vt 0.01171875 0.46875
vt 0.0078125 0.46875
vt 0.01171875 0.484375
vt 0.0078125 0.484375
vt 0.015625 0.390625
vt 0.03125 0.40625
vt 0.03125 0.390625

# Normal
vn 0 0 -1

# Mesh description
g TitleIntro_mesh_0026

# Faces
f 1/1/1 2/2/1 3/3/1 4/4/1
f 5/5/1 6/6/1 7/7/1 8/8/1
f 9/9/1 10/10/1 11/11/1 12/12/1
f 13/9/1 14/10/1 15/11/1 16/12/1
f 17/13/1 18/1/1 19/4/1 20/14/1
f 21/7/1 22/15/1 23/16/1 24/17/1
f 25/18/1 26/5/1 27/8/1 28/19/1
f 29/20/1 30/21/1 31/22/1 32/6/1
f 33/1/1 34/2/1 35/3/1 36/4/1
f 37/5/1 38/6/1 39/7/1 40/8/1
f 41/23/1 42/17/1 43/24/1 44/25/1
f 45/16/1 46/26/1 47/10/1 48/9/1
f 49/1/1 50/2/1 51/3/1 52/4/1
f 53/27/1 54/20/1 55/6/1 56/5/1
f 57/28/1 58/29/1 59/30/1 60/31/1
f 61/31/1 62/30/1 63/32/1 64/33/1
f 65/34/1 66/23/1 67/25/1 68/35/1
f 69/12/1 70/11/1 71/36/1 72/37/1
f 73/32/1 74/19/1 75/34/1 76/38/1
f 77/24/1 78/9/1 79/12/1 80/2/1
f 81/16/1 82/26/1 83/10/1 84/9/1
f 85/39/1 86/38/1 87/40/1 88/41/1
f 89/15/1 90/42/1 91/26/1 92/16/1
f 93/20/1 94/21/1 95/22/1 96/6/1
f 97/13/1 98/1/1 99/4/1 100/14/1
f 101/8/1 102/7/1 103/17/1 104/23/1
f 105/39/1 106/38/1 107/40/1 108/41/1
f 109/40/1 110/35/1 111/13/1 112/43/1
f 113/44/1 114/43/1 115/45/1 116/46/1
f 117/34/1 118/23/1 119/25/1 120/35/1
f 121/43/1 122/13/1 123/14/1 124/45/1
f 125/27/1 126/20/1 127/6/1 128/5/1
f 129/24/1 130/9/1 131/12/1 132/2/1
f 133/23/1 134/17/1 135/24/1 136/25/1
f 137/6/1 138/22/1 139/15/1 140/7/1
f 141/9/1 142/10/1 143/11/1 144/12/1
f 145/35/1 146/25/1 147/1/1 148/13/1
f 149/16/1 150/26/1 151/10/1 152/9/1
f 153/29/1 154/47/1 155/18/1 156/30/1
f 157/13/1 158/1/1 159/4/1 160/14/1
f 161/7/1 162/15/1 163/16/1 164/17/1
f 165/5/1 166/6/1 167/7/1 168/8/1
f 169/6/1 170/22/1 171/15/1 172/7/1
f 173/22/1 174/48/1 175/42/1 176/15/1
f 177/9/1 178/10/1 179/11/1 180/12/1
f 181/40/1 182/35/1 183/13/1 184/43/1
f 185/6/1 186/22/1 187/15/1 188/7/1
f 189/43/1 190/13/1 191/14/1 192/45/1
f 193/9/1 194/10/1 195/11/1 196/12/1
f 197/34/1 198/23/1 199/25/1 200/35/1
f 201/19/1 202/8/1 203/23/1 204/34/1
f 205/27/1 206/20/1 207/6/1 208/5/1
f 209/17/1 210/16/1 211/9/1 212/24/1
f 213/23/1 214/17/1 215/24/1 216/25/1
f 217/43/1 218/13/1 219/14/1 220/45/1
f 221/9/1 222/10/1 223/11/1 224/12/1
f 225/32/1 226/19/1 227/34/1 228/38/1
f 229/38/1 230/34/1 231/35/1 232/40/1
f 233/27/1 234/20/1 235/6/1 236/5/1
f 237/15/1 238/42/1 239/26/1 240/16/1
f 241/29/1 242/47/1 243/18/1 244/30/1
f 245/18/1 246/5/1 247/8/1 248/19/1
f 249/9/1 250/10/1 251/11/1 252/12/1
f 253/38/1 254/34/1 255/35/1 256/40/1
f 257/32/1 258/19/1 259/34/1 260/38/1
f 261/12/1 262/11/1 263/36/1 264/37/1
f 265/9/1 266/10/1 267/11/1 268/12/1
f 269/20/1 270/21/1 271/22/1 272/6/1
f 273/38/1 274/34/1 275/35/1 276/40/1
f 277/30/1 278/18/1 279/19/1 280/32/1
f 281/15/1 282/42/1 283/26/1 284/16/1
f 285/39/1 286/38/1 287/40/1 288/41/1
f 289/25/1 290/24/1 291/2/1 292/1/1
f 293/24/1 294/9/1 295/12/1 296/2/1
f 297/33/1 298/32/1 299/38/1 300/39/1
f 301/6/1 302/22/1 303/15/1 304/7/1
f 305/34/1 306/23/1 307/25/1 308/35/1
f 309/33/1 310/32/1 311/38/1 312/39/1
f 313/40/1 314/35/1 315/13/1 316/43/1
f 317/22/1 318/48/1 319/42/1 320/15/1
f 321/31/1 322/30/1 323/32/1 324/33/1
f 325/2/1 326/12/1 327/37/1 328/3/1
f 329/6/1 330/22/1 331/15/1 332/7/1
f 333/2/1 334/12/1 335/37/1 336/3/1
f 337/18/1 338/5/1 339/8/1 340/19/1
f 341/30/1 342/18/1 343/19/1 344/32/1
f 345/32/1 346/19/1 347/34/1 348/38/1
f 349/13/1 350/1/1 351/4/1 352/14/1
f 353/39/1 354/38/1 355/40/1 356/41/1
f 357/17/1 358/16/1 359/9/1 360/24/1
f 361/17/1 362/16/1 363/9/1 364/24/1
f 365/25/1 366/24/1 367/2/1 368/1/1
f 369/25/1 370/24/1 371/2/1 372/1/1
f 373/16/1 374/26/1 375/10/1 376/9/1
f 377/21/1 378/49/1 379/48/1 380/22/1
f 381/20/1 382/21/1 383/22/1 384/6/1
f 385/20/1 386/21/1 387/22/1 388/6/1
f 389/23/1 390/17/1 391/24/1 392/25/1
f 393/12/1 394/11/1 395/36/1 396/37/1
f 397/5/1 398/6/1 399/7/1 400/8/1
f 401/34/1 402/23/1 403/25/1 404/35/1
f 405/27/1 406/20/1 407/6/1 408/5/1
f 409/5/1 410/6/1 411/7/1 412/8/1
f 413/35/1 414/25/1 415/1/1 416/13/1
f 417/19/1 418/8/1 419/23/1 420/34/1
f 421/17/1 422/16/1 423/9/1 424/24/1
f 425/39/1 426/38/1 427/40/1 428/41/1
f 429/16/1 430/26/1 431/10/1 432/9/1
f 433/23/1 434/17/1 435/24/1 436/25/1
f 437/19/1 438/8/1 439/23/1 440/34/1
f 441/30/1 442/18/1 443/19/1 444/32/1
f 445/24/1 446/9/1 447/12/1 448/2/1
f 449/28/1 450/29/1 451/30/1 452/31/1
f 453/7/1 454/15/1 455/16/1 456/17/1
f 457/47/1 458/27/1 459/5/1 460/18/1
f 461/15/1 462/42/1 463/26/1 464/16/1
f 465/12/1 466/11/1 467/36/1 468/37/1
f 469/8/1 470/7/1 471/17/1 472/23/1
f 473/7/1 474/15/1 475/16/1 476/17/1
f 477/15/1 478/42/1 479/26/1 480/16/1
f 481/29/1 482/47/1 483/18/1 484/30/1
f 485/28/1 486/29/1 487/30/1 488/31/1
f 489/2/1 490/12/1 491/37/1 492/3/1
f 493/31/1 494/30/1 495/32/1 496/33/1
f 497/34/1 498/23/1 499/25/1 500/35/1
f 501/15/1 502/42/1 503/26/1 504/16/1
f 505/18/1 506/5/1 507/8/1 508/19/1
f 509/29/1 510/47/1 511/18/1 512/30/1
f 513/15/1 514/42/1 515/26/1 516/16/1
f 517/8/1 518/7/1 519/17/1 520/23/1
f 521/31/1 522/30/1 523/32/1 524/33/1
f 525/13/1 526/1/1 527/4/1 528/14/1
f 529/20/1 530/21/1 531/22/1 532/6/1
f 533/13/1 534/1/1 535/4/1 536/14/1
f 537/43/1 538/13/1 539/14/1 540/45/1
f 541/44/1 542/43/1 543/45/1 544/46/1
f 545/5/1 546/6/1 547/7/1 548/8/1
f 549/41/1 550/40/1 551/43/1 552/44/1
f 553/5/1 554/6/1 555/7/1 556/8/1
f 557/24/1 558/9/1 559/12/1 560/2/1
f 561/32/1 562/19/1 563/34/1 564/38/1
f 565/6/1 566/22/1 567/15/1 568/7/1
f 569/27/1 570/20/1 571/6/1 572/5/1
f 573/40/1 574/35/1 575/13/1 576/43/1
f 577/12/1 578/11/1 579/36/1 580/37/1
f 581/44/1 582/43/1 583/45/1 584/46/1
f 585/8/1 586/7/1 587/17/1 588/23/1
f 589/20/1 590/21/1 591/22/1 592/6/1
f 593/29/1 594/47/1 595/18/1 596/30/1
f 597/23/1 598/17/1 599/24/1 600/25/1
f 601/31/1 602/30/1 603/32/1 604/33/1
f 605/20/1 606/21/1 607/22/1 608/6/1
f 609/32/1 610/19/1 611/34/1 612/38/1
f 613/43/1 614/13/1 615/14/1 616/45/1
f 617/35/1 618/25/1 619/1/1 620/13/1
f 621/43/1 622/13/1 623/14/1 624/45/1
f 625/20/1 626/21/1 627/22/1 628/6/1
f 629/34/1 630/23/1 631/25/1 632/35/1
f 633/28/1 634/29/1 635/30/1 636/31/1
f 637/19/1 638/8/1 639/23/1 640/34/1
f 641/47/1 642/27/1 643/5/1 644/18/1
f 645/6/1 646/22/1 647/15/1 648/7/1
f 649/28/1 650/29/1 651/30/1 652/31/1
f 653/41/1 654/40/1 655/43/1 656/44/1
f 657/40/1 658/35/1 659/13/1 660/43/1
f 661/47/1 662/27/1 663/5/1 664/18/1
f 665/43/1 666/13/1 667/14/1 668/45/1
f 669/32/1 670/19/1 671/34/1 672/38/1
f 673/27/1 674/20/1 675/6/1 676/5/1
f 677/44/1 678/43/1 679/45/1 680/46/1
f 681/22/1 682/48/1 683/42/1 684/15/1
f 685/33/1 686/32/1 687/38/1 688/39/1
f 689/5/1 690/6/1 691/7/1 692/8/1
f 693/27/1 694/20/1 695/6/1 696/5/1
f 697/2/1 698/12/1 699/37/1 700/3/1
f 701/29/1 702/47/1 703/18/1 704/30/1
f 705/30/1 706/18/1 707/19/1 708/32/1
f 709/35/1 710/25/1 711/1/1 712/13/1
f 713/44/1 714/43/1 715/45/1 716/46/1
f 717/24/1 718/9/1 719/12/1 720/2/1
f 721/20/1 722/21/1 723/22/1 724/6/1
f 725/34/1 726/23/1 727/25/1 728/35/1
f 729/34/1 730/23/1 731/25/1 732/35/1
f 733/17/1 734/16/1 735/9/1 736/24/1
f 737/12/1 738/11/1 739/36/1 740/37/1
f 741/1/1 742/2/1 743/3/1 744/4/1
f 745/21/1 746/49/1 747/48/1 748/22/1
f 749/31/1 750/30/1 751/32/1 752/33/1
f 753/19/1 754/8/1 755/23/1 756/34/1
f 757/18/1 758/5/1 759/8/1 760/19/1
f 761/39/1 762/38/1 763/40/1 764/41/1
f 765/13/1 766/1/1 767/4/1 768/14/1
f 769/15/1 770/42/1 771/26/1 772/16/1
f 773/30/1 774/18/1 775/19/1 776/32/1
f 777/2/1 778/12/1 779/37/1 780/3/1
f 781/13/1 782/1/1 783/4/1 784/14/1
f 785/44/1 786/43/1 787/45/1 788/46/1
f 789/1/1 790/2/1 791/3/1 792/4/1
f 793/22/1 794/48/1 795/42/1 796/15/1
f 797/29/1 798/47/1 799/18/1 800/30/1
f 801/38/1 802/34/1 803/35/1 804/40/1
f 805/7/1 806/15/1 807/16/1 808/17/1
f 809/6/1 810/22/1 811/15/1 812/7/1
f 813/40/1 814/35/1 815/13/1 816/43/1
f 817/18/1 818/5/1 819/8/1 820/19/1
f 821/6/1 822/22/1 823/15/1 824/7/1
f 825/24/1 826/9/1 827/12/1 828/2/1
f 829/40/1 830/35/1 831/13/1 832/43/1
f 833/12/1 834/11/1 835/36/1 836/37/1
f 837/35/1 838/25/1 839/1/1 840/13/1
f 841/44/1 842/43/1 843/45/1 844/46/1
f 845/31/1 846/30/1 847/32/1 848/33/1
f 849/20/1 850/21/1 851/22/1 852/6/1
f 853/1/1 854/2/1 855/3/1 856/4/1
f 857/35/1 858/25/1 859/1/1 860/13/1
f 861/16/1 862/26/1 863/10/1 864/9/1
f 865/1/1 866/2/1 867/3/1 868/4/1
f 869/6/1 870/22/1 871/15/1 872/7/1
f 873/18/1 874/5/1 875/8/1 876/19/1
f 877/34/1 878/23/1 879/25/1 880/35/1
f 881/39/1 882/38/1 883/40/1 884/41/1
f 885/40/1 886/35/1 887/13/1 888/43/1
f 889/19/1 890/8/1 891/23/1 892/34/1
f 893/43/1 894/13/1 895/14/1 896/45/1
f 897/41/1 898/40/1 899/43/1 900/44/1
f 901/21/1 902/49/1 903/48/1 904/22/1
f 905/29/1 906/47/1 907/18/1 908/30/1
f 909/25/1 910/24/1 911/2/1 912/1/1
f 913/8/1 914/7/1 915/17/1 916/23/1
f 917/22/1 918/48/1 919/42/1 920/15/1
f 921/12/1 922/11/1 923/36/1 924/37/1
f 925/15/1 926/42/1 927/26/1 928/16/1
f 929/1/1 930/2/1 931/3/1 932/4/1
f 933/19/1 934/8/1 935/23/1 936/34/1
f 937/21/1 938/49/1 939/48/1 940/22/1
f 941/33/1 942/32/1 943/38/1 944/39/1
f 945/34/1 946/23/1 947/25/1 948/35/1
f 949/38/1 950/34/1 951/35/1 952/40/1
f 953/41/1 954/40/1 955/43/1 956/44/1
f 957/19/1 958/8/1 959/23/1 960/34/1
f 961/27/1 962/20/1 963/6/1 964/5/1
f 965/43/1 966/13/1 967/14/1 968/45/1
f 969/9/1 970/10/1 971/11/1 972/12/1
f 973/17/1 974/16/1 975/9/1 976/24/1
f 977/44/1 978/43/1 979/45/1 980/46/1
f 981/44/1 982/43/1 983/45/1 984/46/1
f 985/41/1 986/40/1 987/43/1 988/44/1
f 989/19/1 990/8/1 991/23/1 992/34/1
f 993/35/1 994/25/1 995/1/1 996/13/1
f 997/31/1 998/30/1 999/32/1 1000/33/1
f 1001/30/1 1002/18/1 1003/19/1 1004/32/1
f 1005/35/1 1006/25/1 1007/1/1 1008/13/1
f 1009/13/1 1010/1/1 1011/4/1 1012/14/1
f 1013/9/1 1014/10/1 1015/11/1 1016/12/1
f 1017/31/1 1018/30/1 1019/32/1 1020/33/1
f 1021/9/1 1022/10/1 1023/11/1 1024/12/1

