# Tiled2Unity generated file. Do not modify by hand.
# Wavefront file for 'TitleIntro_mesh_0038.obj'

# Vertices (Count = 1024)
v 0 -16 0
v -16 -16 0
v -16 0 0
v 0 0 0
v -16 -16 0
v -32 -16 0
v -32 0 0
v -16 0 0
v -32 -16 0
v -48 -16 0
v -48 0 0
v -32 0 0
v -48 -16 0
v -64 -16 0
v -64 0 0
v -48 0 0
v -64 -16 0
v -80 -16 0
v -80 0 0
v -64 0 0
v -80 -16 0
v -96 -16 0
v -96 0 0
v -80 0 0
v -96 -16 0
v -112 -16 0
v -112 0 0
v -96 0 0
v -112 -16 0
v -128 -16 0
v -128 0 0
v -112 0 0
v -128 -16 0
v -144 -16 0
v -144 0 0
v -128 0 0
v -144 -16 0
v -160 -16 0
v -160 0 0
v -144 0 0
v -160 -16 0
v -176 -16 0
v -176 0 0
v -160 0 0
v -176 -16 0
v -192 -16 0
v -192 0 0
v -176 0 0
v -192 -16 0
v -208 -16 0
v -208 0 0
v -192 0 0
v -208 -16 0
v -224 -16 0
v -224 0 0
v -208 0 0
v -224 -16 0
v -240 -16 0
v -240 0 0
v -224 0 0
v -240 -16 0
v -256 -16 0
v -256 0 0
v -240 0 0
v 0 -32 0
v -16 -32 0
v -16 -16 0
v 0 -16 0
v -16 -32 0
v -32 -32 0
v -32 -16 0
v -16 -16 0
v -32 -32 0
v -48 -32 0
v -48 -16 0
v -32 -16 0
v -48 -32 0
v -64 -32 0
v -64 -16 0
v -48 -16 0
v -64 -32 0
v -80 -32 0
v -80 -16 0
v -64 -16 0
v -80 -32 0
v -96 -32 0
v -96 -16 0
v -80 -16 0
v -96 -32 0
v -112 -32 0
v -112 -16 0
v -96 -16 0
v -112 -32 0
v -128 -32 0
v -128 -16 0
v -112 -16 0
v -128 -32 0
v -144 -32 0
v -144 -16 0
v -128 -16 0
v -144 -32 0
v -160 -32 0
v -160 -16 0
v -144 -16 0
v -160 -32 0
v -176 -32 0
v -176 -16 0
v -160 -16 0
v -176 -32 0
v -192 -32 0
v -192 -16 0
v -176 -16 0
v -192 -32 0
v -208 -32 0
v -208 -16 0
v -192 -16 0
v -208 -32 0
v -224 -32 0
v -224 -16 0
v -208 -16 0
v -224 -32 0
v -240 -32 0
v -240 -16 0
v -224 -16 0
v -240 -32 0
v -256 -32 0
v -256 -16 0
v -240 -16 0
v 0 -48 0
v -16 -48 0
v -16 -32 0
v 0 -32 0
v -16 -48 0
v -32 -48 0
v -32 -32 0
v -16 -32 0
v -32 -48 0
v -48 -48 0
v -48 -32 0
v -32 -32 0
v -48 -48 0
v -64 -48 0
v -64 -32 0
v -48 -32 0
v -64 -48 0
v -80 -48 0
v -80 -32 0
v -64 -32 0
v -80 -48 0
v -96 -48 0
v -96 -32 0
v -80 -32 0
v -96 -48 0
v -112 -48 0
v -112 -32 0
v -96 -32 0
v -112 -48 0
v -128 -48 0
v -128 -32 0
v -112 -32 0
v -128 -48 0
v -144 -48 0
v -144 -32 0
v -128 -32 0
v -144 -48 0
v -160 -48 0
v -160 -32 0
v -144 -32 0
v -160 -48 0
v -176 -48 0
v -176 -32 0
v -160 -32 0
v -176 -48 0
v -192 -48 0
v -192 -32 0
v -176 -32 0
v -192 -48 0
v -208 -48 0
v -208 -32 0
v -192 -32 0
v -208 -48 0
v -224 -48 0
v -224 -32 0
v -208 -32 0
v -224 -48 0
v -240 -48 0
v -240 -32 0
v -224 -32 0
v -240 -48 0
v -256 -48 0
v -256 -32 0
v -240 -32 0
v 0 -64 0
v -16 -64 0
v -16 -48 0
v 0 -48 0
v -16 -64 0
v -32 -64 0
v -32 -48 0
v -16 -48 0
v -32 -64 0
v -48 -64 0
v -48 -48 0
v -32 -48 0
v -48 -64 0
v -64 -64 0
v -64 -48 0
v -48 -48 0
v -64 -64 0
v -80 -64 0
v -80 -48 0
v -64 -48 0
v -80 -64 0
v -96 -64 0
v -96 -48 0
v -80 -48 0
v -96 -64 0
v -112 -64 0
v -112 -48 0
v -96 -48 0
v -112 -64 0
v -128 -64 0
v -128 -48 0
v -112 -48 0
v -128 -64 0
v -144 -64 0
v -144 -48 0
v -128 -48 0
v -144 -64 0
v -160 -64 0
v -160 -48 0
v -144 -48 0
v -160 -64 0
v -176 -64 0
v -176 -48 0
v -160 -48 0
v -176 -64 0
v -192 -64 0
v -192 -48 0
v -176 -48 0
v -192 -64 0
v -208 -64 0
v -208 -48 0
v -192 -48 0
v -208 -64 0
v -224 -64 0
v -224 -48 0
v -208 -48 0
v -224 -64 0
v -240 -64 0
v -240 -48 0
v -224 -48 0
v -240 -64 0
v -256 -64 0
v -256 -48 0
v -240 -48 0
v 0 -80 0
v -16 -80 0
v -16 -64 0
v 0 -64 0
v -16 -80 0
v -32 -80 0
v -32 -64 0
v -16 -64 0
v -32 -80 0
v -48 -80 0
v -48 -64 0
v -32 -64 0
v -48 -80 0
v -64 -80 0
v -64 -64 0
v -48 -64 0
v -64 -80 0
v -80 -80 0
v -80 -64 0
v -64 -64 0
v -80 -80 0
v -96 -80 0
v -96 -64 0
v -80 -64 0
v -96 -80 0
v -112 -80 0
v -112 -64 0
v -96 -64 0
v -112 -80 0
v -128 -80 0
v -128 -64 0
v -112 -64 0
v -128 -80 0
v -144 -80 0
v -144 -64 0
v -128 -64 0
v -144 -80 0
v -160 -80 0
v -160 -64 0
v -144 -64 0
v -160 -80 0
v -176 -80 0
v -176 -64 0
v -160 -64 0
v -176 -80 0
v -192 -80 0
v -192 -64 0
v -176 -64 0
v -192 -80 0
v -208 -80 0
v -208 -64 0
v -192 -64 0
v -208 -80 0
v -224 -80 0
v -224 -64 0
v -208 -64 0
v -224 -80 0
v -240 -80 0
v -240 -64 0
v -224 -64 0
v -240 -80 0
v -256 -80 0
v -256 -64 0
v -240 -64 0
v 0 -96 0
v -16 -96 0
v -16 -80 0
v 0 -80 0
v -16 -96 0
v -32 -96 0
v -32 -80 0
v -16 -80 0
v -32 -96 0
v -48 -96 0
v -48 -80 0
v -32 -80 0
v -48 -96 0
v -64 -96 0
v -64 -80 0
v -48 -80 0
v -64 -96 0
v -80 -96 0
v -80 -80 0
v -64 -80 0
v -80 -96 0
v -96 -96 0
v -96 -80 0
v -80 -80 0
v -96 -96 0
v -112 -96 0
v -112 -80 0
v -96 -80 0
v -112 -96 0
v -128 -96 0
v -128 -80 0
v -112 -80 0
v -128 -96 0
v -144 -96 0
v -144 -80 0
v -128 -80 0
v -144 -96 0
v -160 -96 0
v -160 -80 0
v -144 -80 0
v -160 -96 0
v -176 -96 0
v -176 -80 0
v -160 -80 0
v -176 -96 0
v -192 -96 0
v -192 -80 0
v -176 -80 0
v -192 -96 0
v -208 -96 0
v -208 -80 0
v -192 -80 0
v -208 -96 0
v -224 -96 0
v -224 -80 0
v -208 -80 0
v -224 -96 0
v -240 -96 0
v -240 -80 0
v -224 -80 0
v -240 -96 0
v -256 -96 0
v -256 -80 0
v -240 -80 0
v 0 -112 0
v -16 -112 0
v -16 -96 0
v 0 -96 0
v -16 -112 0
v -32 -112 0
v -32 -96 0
v -16 -96 0
v -32 -112 0
v -48 -112 0
v -48 -96 0
v -32 -96 0
v -48 -112 0
v -64 -112 0
v -64 -96 0
v -48 -96 0
v -64 -112 0
v -80 -112 0
v -80 -96 0
v -64 -96 0
v -80 -112 0
v -96 -112 0
v -96 -96 0
v -80 -96 0
v -96 -112 0
v -112 -112 0
v -112 -96 0
v -96 -96 0
v -112 -112 0
v -128 -112 0
v -128 -96 0
v -112 -96 0
v -128 -112 0
v -144 -112 0
v -144 -96 0
v -128 -96 0
v -144 -112 0
v -160 -112 0
v -160 -96 0
v -144 -96 0
v -160 -112 0
v -176 -112 0
v -176 -96 0
v -160 -96 0
v -176 -112 0
v -192 -112 0
v -192 -96 0
v -176 -96 0
v -192 -112 0
v -208 -112 0
v -208 -96 0
v -192 -96 0
v -208 -112 0
v -224 -112 0
v -224 -96 0
v -208 -96 0
v -224 -112 0
v -240 -112 0
v -240 -96 0
v -224 -96 0
v -240 -112 0
v -256 -112 0
v -256 -96 0
v -240 -96 0
v 0 -128 0
v -16 -128 0
v -16 -112 0
v 0 -112 0
v -16 -128 0
v -32 -128 0
v -32 -112 0
v -16 -112 0
v -32 -128 0
v -48 -128 0
v -48 -112 0
v -32 -112 0
v -48 -128 0
v -64 -128 0
v -64 -112 0
v -48 -112 0
v -64 -128 0
v -80 -128 0
v -80 -112 0
v -64 -112 0
v -80 -128 0
v -96 -128 0
v -96 -112 0
v -80 -112 0
v -96 -128 0
v -112 -128 0
v -112 -112 0
v -96 -112 0
v -112 -128 0
v -128 -128 0
v -128 -112 0
v -112 -112 0
v -128 -128 0
v -144 -128 0
v -144 -112 0
v -128 -112 0
v -144 -128 0
v -160 -128 0
v -160 -112 0
v -144 -112 0
v -160 -128 0
v -176 -128 0
v -176 -112 0
v -160 -112 0
v -176 -128 0
v -192 -128 0
v -192 -112 0
v -176 -112 0
v -192 -128 0
v -208 -128 0
v -208 -112 0
v -192 -112 0
v -208 -128 0
v -224 -128 0
v -224 -112 0
v -208 -112 0
v -224 -128 0
v -240 -128 0
v -240 -112 0
v -224 -112 0
v -240 -128 0
v -256 -128 0
v -256 -112 0
v -240 -112 0
v 0 -144 0
v -16 -144 0
v -16 -128 0
v 0 -128 0
v -16 -144 0
v -32 -144 0
v -32 -128 0
v -16 -128 0
v -32 -144 0
v -48 -144 0
v -48 -128 0
v -32 -128 0
v -48 -144 0
v -64 -144 0
v -64 -128 0
v -48 -128 0
v -64 -144 0
v -80 -144 0
v -80 -128 0
v -64 -128 0
v -80 -144 0
v -96 -144 0
v -96 -128 0
v -80 -128 0
v -96 -144 0
v -112 -144 0
v -112 -128 0
v -96 -128 0
v -112 -144 0
v -128 -144 0
v -128 -128 0
v -112 -128 0
v -128 -144 0
v -144 -144 0
v -144 -128 0
v -128 -128 0
v -144 -144 0
v -160 -144 0
v -160 -128 0
v -144 -128 0
v -160 -144 0
v -176 -144 0
v -176 -128 0
v -160 -128 0
v -176 -144 0
v -192 -144 0
v -192 -128 0
v -176 -128 0
v -192 -144 0
v -208 -144 0
v -208 -128 0
v -192 -128 0
v -208 -144 0
v -224 -144 0
v -224 -128 0
v -208 -128 0
v -224 -144 0
v -240 -144 0
v -240 -128 0
v -224 -128 0
v -240 -144 0
v -256 -144 0
v -256 -128 0
v -240 -128 0
v 0 -160 0
v -16 -160 0
v -16 -144 0
v 0 -144 0
v -16 -160 0
v -32 -160 0
v -32 -144 0
v -16 -144 0
v -32 -160 0
v -48 -160 0
v -48 -144 0
v -32 -144 0
v -48 -160 0
v -64 -160 0
v -64 -144 0
v -48 -144 0
v -64 -160 0
v -80 -160 0
v -80 -144 0
v -64 -144 0
v -80 -160 0
v -96 -160 0
v -96 -144 0
v -80 -144 0
v -96 -160 0
v -112 -160 0
v -112 -144 0
v -96 -144 0
v -112 -160 0
v -128 -160 0
v -128 -144 0
v -112 -144 0
v -128 -160 0
v -144 -160 0
v -144 -144 0
v -128 -144 0
v -144 -160 0
v -160 -160 0
v -160 -144 0
v -144 -144 0
v -160 -160 0
v -176 -160 0
v -176 -144 0
v -160 -144 0
v -176 -160 0
v -192 -160 0
v -192 -144 0
v -176 -144 0
v -192 -160 0
v -208 -160 0
v -208 -144 0
v -192 -144 0
v -208 -160 0
v -224 -160 0
v -224 -144 0
v -208 -144 0
v -224 -160 0
v -240 -160 0
v -240 -144 0
v -224 -144 0
v -240 -160 0
v -256 -160 0
v -256 -144 0
v -240 -144 0
v 0 -176 0
v -16 -176 0
v -16 -160 0
v 0 -160 0
v -16 -176 0
v -32 -176 0
v -32 -160 0
v -16 -160 0
v -32 -176 0
v -48 -176 0
v -48 -160 0
v -32 -160 0
v -48 -176 0
v -64 -176 0
v -64 -160 0
v -48 -160 0
v -64 -176 0
v -80 -176 0
v -80 -160 0
v -64 -160 0
v -80 -176 0
v -96 -176 0
v -96 -160 0
v -80 -160 0
v -96 -176 0
v -112 -176 0
v -112 -160 0
v -96 -160 0
v -112 -176 0
v -128 -176 0
v -128 -160 0
v -112 -160 0
v -128 -176 0
v -144 -176 0
v -144 -160 0
v -128 -160 0
v -144 -176 0
v -160 -176 0
v -160 -160 0
v -144 -160 0
v -160 -176 0
v -176 -176 0
v -176 -160 0
v -160 -160 0
v -176 -176 0
v -192 -176 0
v -192 -160 0
v -176 -160 0
v -192 -176 0
v -208 -176 0
v -208 -160 0
v -192 -160 0
v -208 -176 0
v -224 -176 0
v -224 -160 0
v -208 -160 0
v -224 -176 0
v -240 -176 0
v -240 -160 0
v -224 -160 0
v -240 -176 0
v -256 -176 0
v -256 -160 0
v -240 -160 0
v 0 -192 0
v -16 -192 0
v -16 -176 0
v 0 -176 0
v -16 -192 0
v -32 -192 0
v -32 -176 0
v -16 -176 0
v -32 -192 0
v -48 -192 0
v -48 -176 0
v -32 -176 0
v -48 -192 0
v -64 -192 0
v -64 -176 0
v -48 -176 0
v -64 -192 0
v -80 -192 0
v -80 -176 0
v -64 -176 0
v -80 -192 0
v -96 -192 0
v -96 -176 0
v -80 -176 0
v -96 -192 0
v -112 -192 0
v -112 -176 0
v -96 -176 0
v -112 -192 0
v -128 -192 0
v -128 -176 0
v -112 -176 0
v -128 -192 0
v -144 -192 0
v -144 -176 0
v -128 -176 0
v -144 -192 0
v -160 -192 0
v -160 -176 0
v -144 -176 0
v -160 -192 0
v -176 -192 0
v -176 -176 0
v -160 -176 0
v -176 -192 0
v -192 -192 0
v -192 -176 0
v -176 -176 0
v -192 -192 0
v -208 -192 0
v -208 -176 0
v -192 -176 0
v -208 -192 0
v -224 -192 0
v -224 -176 0
v -208 -176 0
v -224 -192 0
v -240 -192 0
v -240 -176 0
v -224 -176 0
v -240 -192 0
v -256 -192 0
v -256 -176 0
v -240 -176 0
v 0 -208 0
v -16 -208 0
v -16 -192 0
v 0 -192 0
v -16 -208 0
v -32 -208 0
v -32 -192 0
v -16 -192 0
v -32 -208 0
v -48 -208 0
v -48 -192 0
v -32 -192 0
v -48 -208 0
v -64 -208 0
v -64 -192 0
v -48 -192 0
v -64 -208 0
v -80 -208 0
v -80 -192 0
v -64 -192 0
v -80 -208 0
v -96 -208 0
v -96 -192 0
v -80 -192 0
v -96 -208 0
v -112 -208 0
v -112 -192 0
v -96 -192 0
v -112 -208 0
v -128 -208 0
v -128 -192 0
v -112 -192 0
v -128 -208 0
v -144 -208 0
v -144 -192 0
v -128 -192 0
v -144 -208 0
v -160 -208 0
v -160 -192 0
v -144 -192 0
v -160 -208 0
v -176 -208 0
v -176 -192 0
v -160 -192 0
v -176 -208 0
v -192 -208 0
v -192 -192 0
v -176 -192 0
v -192 -208 0
v -208 -208 0
v -208 -192 0
v -192 -192 0
v -208 -208 0
v -224 -208 0
v -224 -192 0
v -208 -192 0
v -224 -208 0
v -240 -208 0
v -240 -192 0
v -224 -192 0
v -240 -208 0
v -256 -208 0
v -256 -192 0
v -240 -192 0
v 0 -224 0
v -16 -224 0
v -16 -208 0
v 0 -208 0
v -16 -224 0
v -32 -224 0
v -32 -208 0
v -16 -208 0
v -32 -224 0
v -48 -224 0
v -48 -208 0
v -32 -208 0
v -48 -224 0
v -64 -224 0
v -64 -208 0
v -48 -208 0
v -64 -224 0
v -80 -224 0
v -80 -208 0
v -64 -208 0
v -80 -224 0
v -96 -224 0
v -96 -208 0
v -80 -208 0
v -96 -224 0
v -112 -224 0
v -112 -208 0
v -96 -208 0
v -112 -224 0
v -128 -224 0
v -128 -208 0
v -112 -208 0
v -128 -224 0
v -144 -224 0
v -144 -208 0
v -128 -208 0
v -144 -224 0
v -160 -224 0
v -160 -208 0
v -144 -208 0
v -160 -224 0
v -176 -224 0
v -176 -208 0
v -160 -208 0
v -176 -224 0
v -192 -224 0
v -192 -208 0
v -176 -208 0
v -192 -224 0
v -208 -224 0
v -208 -208 0
v -192 -208 0
v -208 -224 0
v -224 -224 0
v -224 -208 0
v -208 -208 0
v -224 -224 0
v -240 -224 0
v -240 -208 0
v -224 -208 0
v -240 -224 0
v -256 -224 0
v -256 -208 0
v -240 -208 0
v 0 -240 0
v -16 -240 0
v -16 -224 0
v 0 -224 0
v -16 -240 0
v -32 -240 0
v -32 -224 0
v -16 -224 0
v -32 -240 0
v -48 -240 0
v -48 -224 0
v -32 -224 0
v -48 -240 0
v -64 -240 0
v -64 -224 0
v -48 -224 0
v -64 -240 0
v -80 -240 0
v -80 -224 0
v -64 -224 0
v -80 -240 0
v -96 -240 0
v -96 -224 0
v -80 -224 0
v -96 -240 0
v -112 -240 0
v -112 -224 0
v -96 -224 0
v -112 -240 0
v -128 -240 0
v -128 -224 0
v -112 -224 0
v -128 -240 0
v -144 -240 0
v -144 -224 0
v -128 -224 0
v -144 -240 0
v -160 -240 0
v -160 -224 0
v -144 -224 0
v -160 -240 0
v -176 -240 0
v -176 -224 0
v -160 -224 0
v -176 -240 0
v -192 -240 0
v -192 -224 0
v -176 -224 0
v -192 -240 0
v -208 -240 0
v -208 -224 0
v -192 -224 0
v -208 -240 0
v -224 -240 0
v -224 -224 0
v -208 -224 0
v -224 -240 0
v -240 -240 0
v -240 -224 0
v -224 -224 0
v -240 -240 0
v -256 -240 0
v -256 -224 0
v -240 -224 0
v 0 -256 0
v -16 -256 0
v -16 -240 0
v 0 -240 0
v -16 -256 0
v -32 -256 0
v -32 -240 0
v -16 -240 0
v -32 -256 0
v -48 -256 0
v -48 -240 0
v -32 -240 0
v -48 -256 0
v -64 -256 0
v -64 -240 0
v -48 -240 0
v -64 -256 0
v -80 -256 0
v -80 -240 0
v -64 -240 0
v -80 -256 0
v -96 -256 0
v -96 -240 0
v -80 -240 0
v -96 -256 0
v -112 -256 0
v -112 -240 0
v -96 -240 0
v -112 -256 0
v -128 -256 0
v -128 -240 0
v -112 -240 0
v -128 -256 0
v -144 -256 0
v -144 -240 0
v -128 -240 0
v -144 -256 0
v -160 -256 0
v -160 -240 0
v -144 -240 0
v -160 -256 0
v -176 -256 0
v -176 -240 0
v -160 -240 0
v -176 -256 0
v -192 -256 0
v -192 -240 0
v -176 -240 0
v -192 -256 0
v -208 -256 0
v -208 -240 0
v -192 -240 0
v -208 -256 0
v -224 -256 0
v -224 -240 0
v -208 -240 0
v -224 -256 0
v -240 -256 0
v -240 -240 0
v -224 -240 0
v -240 -256 0
v -256 -256 0
v -256 -240 0
v -240 -240 0

# Texture cooridinates (Count = 49)
vt 0.015625 0.421875
vt 0.01953125 0.421875
vt 0.01953125 0.4375
vt 0.015625 0.4375
vt 0.0078125 0.4375
vt 0.01171875 0.4375
vt 0.01171875 0.453125
vt 0.0078125 0.453125
vt 0.0234375 0.4375
vt 0.02734375 0.4375
vt 0.02734375 0.453125
vt 0.0234375 0.453125
vt 0.0234375 0.40625
vt 0.02734375 0.40625
vt 0.02734375 0.421875
vt 0.0234375 0.421875
vt 0.015625 0.453125
vt 0.01953125 0.453125
vt 0.01953125 0.46875
vt 0.015625 0.46875
vt 0.03125 0.453125
vt 0.03125 0.46875
vt 0.02734375 0.46875
vt 0.01953125 0.390625
vt 0.0234375 0.390625
vt 0.01953125 0.40625
vt 0.0078125 0.390625
vt 0.01171875 0.390625
vt 0.01171875 0.40625
vt 0.0078125 0.40625
vt 0.0078125 0.46875
vt 0.01171875 0.46875
vt 0.01171875 0.484375
vt 0.0078125 0.484375
vt 0.015625 0.40625
vt 0.01171875 0.421875
vt 0.0234375 0.46875
vt 0.02734375 0.484375
vt 0.0234375 0.484375
vt 0.01953125 0.484375
vt 0.0078125 0.421875
vt 0.02734375 0.390625
vt 0.03125 0.390625
vt 0.03125 0.40625
vt 0.03125 0.4375
vt 0.015625 0.390625
vt 0.03125 0.421875
vt 0.015625 0.484375
vt 0.03125 0.484375

# Normal
vn 0 0 -1

# Mesh description
g TitleIntro_mesh_0038

# Faces
f 1/1/1 2/2/1 3/3/1 4/4/1
f 5/5/1 6/6/1 7/7/1 8/8/1
f 9/9/1 10/10/1 11/11/1 12/12/1
f 13/13/1 14/14/1 15/15/1 16/16/1
f 17/17/1 18/18/1 19/19/1 20/20/1
f 21/11/1 22/21/1 23/22/1 24/23/1
f 25/16/1 26/15/1 27/10/1 28/9/1
f 29/24/1 30/25/1 31/13/1 32/26/1
f 33/27/1 34/28/1 35/29/1 36/30/1
f 37/31/1 38/32/1 39/33/1 40/34/1
f 41/7/1 42/17/1 43/20/1 44/32/1
f 45/27/1 46/28/1 47/29/1 48/30/1
f 49/29/1 50/35/1 51/1/1 52/36/1
f 53/35/1 54/26/1 55/2/1 56/1/1
f 57/9/1 58/10/1 59/11/1 60/12/1
f 61/11/1 62/21/1 63/22/1 64/23/1
f 65/37/1 66/23/1 67/38/1 68/39/1
f 69/19/1 70/37/1 71/39/1 72/40/1
f 73/41/1 74/36/1 75/6/1 76/5/1
f 77/16/1 78/15/1 79/10/1 80/9/1
f 81/26/1 82/13/1 83/16/1 84/2/1
f 85/19/1 86/37/1 87/39/1 88/40/1
f 89/2/1 90/16/1 91/9/1 92/3/1
f 93/31/1 94/32/1 95/33/1 96/34/1
f 97/42/1 98/43/1 99/44/1 100/14/1
f 101/12/1 102/11/1 103/23/1 104/37/1
f 105/8/1 106/7/1 107/32/1 108/31/1
f 109/5/1 110/6/1 111/7/1 112/8/1
f 113/10/1 114/45/1 115/21/1 116/11/1
f 117/37/1 118/23/1 119/38/1 120/39/1
f 121/2/1 122/16/1 123/9/1 124/3/1
f 125/10/1 126/45/1 127/21/1 128/11/1
f 129/12/1 130/11/1 131/23/1 132/37/1
f 133/29/1 134/35/1 135/1/1 136/36/1
f 137/11/1 138/21/1 139/22/1 140/23/1
f 141/19/1 142/37/1 143/39/1 144/40/1
f 145/28/1 146/46/1 147/35/1 148/29/1
f 149/24/1 150/25/1 151/13/1 152/26/1
f 153/37/1 154/23/1 155/38/1 156/39/1
f 157/15/1 158/47/1 159/45/1 160/10/1
f 161/27/1 162/28/1 163/29/1 164/30/1
f 165/26/1 166/13/1 167/16/1 168/2/1
f 169/31/1 170/32/1 171/33/1 172/34/1
f 173/17/1 174/18/1 175/19/1 176/20/1
f 177/46/1 178/24/1 179/26/1 180/35/1
f 181/17/1 182/18/1 183/19/1 184/20/1
f 185/7/1 186/17/1 187/20/1 188/32/1
f 189/2/1 190/16/1 191/9/1 192/3/1
f 193/20/1 194/19/1 195/40/1 196/48/1
f 197/25/1 198/42/1 199/14/1 200/13/1
f 201/24/1 202/25/1 203/13/1 204/26/1
f 205/19/1 206/37/1 207/39/1 208/40/1
f 209/4/1 210/3/1 211/18/1 212/17/1
f 213/37/1 214/23/1 215/38/1 216/39/1
f 217/5/1 218/6/1 219/7/1 220/8/1
f 221/12/1 222/11/1 223/23/1 224/37/1
f 225/23/1 226/22/1 227/49/1 228/38/1
f 229/35/1 230/26/1 231/2/1 232/1/1
f 233/17/1 234/18/1 235/19/1 236/20/1
f 237/28/1 238/46/1 239/35/1 240/29/1
f 241/14/1 242/44/1 243/47/1 244/15/1
f 245/8/1 246/7/1 247/32/1 248/31/1
f 249/17/1 250/18/1 251/19/1 252/20/1
f 253/27/1 254/28/1 255/29/1 256/30/1
f 257/5/1 258/6/1 259/7/1 260/8/1
f 261/14/1 262/44/1 263/47/1 264/15/1
f 265/7/1 266/17/1 267/20/1 268/32/1
f 269/10/1 270/45/1 271/21/1 272/11/1
f 273/18/1 274/12/1 275/37/1 276/19/1
f 277/37/1 278/23/1 279/38/1 280/39/1
f 281/1/1 282/2/1 283/3/1 284/4/1
f 285/5/1 286/6/1 287/7/1 288/8/1
f 289/7/1 290/17/1 291/20/1 292/32/1
f 293/1/1 294/2/1 295/3/1 296/4/1
f 297/15/1 298/47/1 299/45/1 300/10/1
f 301/5/1 302/6/1 303/7/1 304/8/1
f 305/11/1 306/21/1 307/22/1 308/23/1
f 309/8/1 310/7/1 311/32/1 312/31/1
f 313/25/1 314/42/1 315/14/1 316/13/1
f 317/6/1 318/4/1 319/17/1 320/7/1
f 321/26/1 322/13/1 323/16/1 324/2/1
f 325/24/1 326/25/1 327/13/1 328/26/1
f 329/36/1 330/1/1 331/4/1 332/6/1
f 333/10/1 334/45/1 335/21/1 336/11/1
f 337/10/1 338/45/1 339/21/1 340/11/1
f 341/24/1 342/25/1 343/13/1 344/26/1
f 345/12/1 346/11/1 347/23/1 348/37/1
f 349/41/1 350/36/1 351/6/1 352/5/1
f 353/25/1 354/42/1 355/14/1 356/13/1
f 357/30/1 358/29/1 359/36/1 360/41/1
f 361/15/1 362/47/1 363/45/1 364/10/1
f 365/20/1 366/19/1 367/40/1 368/48/1
f 369/3/1 370/9/1 371/12/1 372/18/1
f 373/32/1 374/20/1 375/48/1 376/33/1
f 377/36/1 378/1/1 379/4/1 380/6/1
f 381/30/1 382/29/1 383/36/1 384/41/1
f 385/26/1 386/13/1 387/16/1 388/2/1
f 389/3/1 390/9/1 391/12/1 392/18/1
f 393/1/1 394/2/1 395/3/1 396/4/1
f 397/36/1 398/1/1 399/4/1 400/6/1
f 401/24/1 402/25/1 403/13/1 404/26/1
f 405/7/1 406/17/1 407/20/1 408/32/1
f 409/26/1 410/13/1 411/16/1 412/2/1
f 413/19/1 414/37/1 415/39/1 416/40/1
f 417/13/1 418/14/1 419/15/1 420/16/1
f 421/46/1 422/24/1 423/26/1 424/35/1
f 425/25/1 426/42/1 427/14/1 428/13/1
f 429/4/1 430/3/1 431/18/1 432/17/1
f 433/46/1 434/24/1 435/26/1 436/35/1
f 437/28/1 438/46/1 439/35/1 440/29/1
f 441/4/1 442/3/1 443/18/1 444/17/1
f 445/1/1 446/2/1 447/3/1 448/4/1
f 449/11/1 450/21/1 451/22/1 452/23/1
f 453/11/1 454/21/1 455/22/1 456/23/1
f 457/27/1 458/28/1 459/29/1 460/30/1
f 461/25/1 462/42/1 463/14/1 464/13/1
f 465/15/1 466/47/1 467/45/1 468/10/1
f 469/15/1 470/47/1 471/45/1 472/10/1
f 473/28/1 474/46/1 475/35/1 476/29/1
f 477/3/1 478/9/1 479/12/1 480/18/1
f 481/6/1 482/4/1 483/17/1 484/7/1
f 485/3/1 486/9/1 487/12/1 488/18/1
f 489/25/1 490/42/1 491/14/1 492/13/1
f 493/8/1 494/7/1 495/32/1 496/31/1
f 497/16/1 498/15/1 499/10/1 500/9/1
f 501/25/1 502/42/1 503/14/1 504/13/1
f 505/29/1 506/35/1 507/1/1 508/36/1
f 509/17/1 510/18/1 511/19/1 512/20/1
f 513/25/1 514/42/1 515/14/1 516/13/1
f 517/10/1 518/45/1 519/21/1 520/11/1
f 521/8/1 522/7/1 523/32/1 524/31/1
f 525/17/1 526/18/1 527/19/1 528/20/1
f 529/25/1 530/42/1 531/14/1 532/13/1
f 533/46/1 534/24/1 535/26/1 536/35/1
f 537/15/1 538/47/1 539/45/1 540/10/1
f 541/7/1 542/17/1 543/20/1 544/32/1
f 545/8/1 546/7/1 547/32/1 548/31/1
f 549/8/1 550/7/1 551/32/1 552/31/1
f 553/25/1 554/42/1 555/14/1 556/13/1
f 557/36/1 558/1/1 559/4/1 560/6/1
f 561/25/1 562/42/1 563/14/1 564/13/1
f 565/27/1 566/28/1 567/29/1 568/30/1
f 569/14/1 570/44/1 571/47/1 572/15/1
f 573/5/1 574/6/1 575/7/1 576/8/1
f 577/41/1 578/36/1 579/6/1 580/5/1
f 581/18/1 582/12/1 583/37/1 584/19/1
f 585/8/1 586/7/1 587/32/1 588/31/1
f 589/36/1 590/1/1 591/4/1 592/6/1
f 593/29/1 594/35/1 595/1/1 596/36/1
f 597/46/1 598/24/1 599/26/1 600/35/1
f 601/36/1 602/1/1 603/4/1 604/6/1
f 605/15/1 606/47/1 607/45/1 608/10/1
f 609/30/1 610/29/1 611/36/1 612/41/1
f 613/4/1 614/3/1 615/18/1 616/17/1
f 617/29/1 618/35/1 619/1/1 620/36/1
f 621/10/1 622/45/1 623/21/1 624/11/1
f 625/37/1 626/23/1 627/38/1 628/39/1
f 629/19/1 630/37/1 631/39/1 632/40/1
f 633/3/1 634/9/1 635/12/1 636/18/1
f 637/11/1 638/21/1 639/22/1 640/23/1
f 641/2/1 642/16/1 643/9/1 644/3/1
f 645/32/1 646/20/1 647/48/1 648/33/1
f 649/29/1 650/35/1 651/1/1 652/36/1
f 653/46/1 654/24/1 655/26/1 656/35/1
f 657/10/1 658/45/1 659/21/1 660/11/1
f 661/28/1 662/46/1 663/35/1 664/29/1
f 665/32/1 666/20/1 667/48/1 668/33/1
f 669/14/1 670/44/1 671/47/1 672/15/1
f 673/28/1 674/46/1 675/35/1 676/29/1
f 677/37/1 678/23/1 679/38/1 680/39/1
f 681/25/1 682/42/1 683/14/1 684/13/1
f 685/20/1 686/19/1 687/40/1 688/48/1
f 689/32/1 690/20/1 691/48/1 692/33/1
f 693/5/1 694/6/1 695/7/1 696/8/1
f 697/2/1 698/16/1 699/9/1 700/3/1
f 701/31/1 702/32/1 703/33/1 704/34/1
f 705/9/1 706/10/1 707/11/1 708/12/1
f 709/8/1 710/7/1 711/32/1 712/31/1
f 713/41/1 714/36/1 715/6/1 716/5/1
f 717/31/1 718/32/1 719/33/1 720/34/1
f 721/1/1 722/2/1 723/3/1 724/4/1
f 725/11/1 726/21/1 727/22/1 728/23/1
f 729/46/1 730/24/1 731/26/1 732/35/1
f 733/8/1 734/7/1 735/32/1 736/31/1
f 737/20/1 738/19/1 739/40/1 740/48/1
f 741/28/1 742/46/1 743/35/1 744/29/1
f 745/26/1 746/13/1 747/16/1 748/2/1
f 749/24/1 750/25/1 751/13/1 752/26/1
f 753/25/1 754/42/1 755/14/1 756/13/1
f 757/2/1 758/16/1 759/9/1 760/3/1
f 761/29/1 762/35/1 763/1/1 764/36/1
f 765/42/1 766/43/1 767/44/1 768/14/1
f 769/37/1 770/23/1 771/38/1 772/39/1
f 773/30/1 774/29/1 775/36/1 776/41/1
f 777/14/1 778/44/1 779/47/1 780/15/1
f 781/30/1 782/29/1 783/36/1 784/41/1
f 785/2/1 786/16/1 787/9/1 788/3/1
f 789/26/1 790/13/1 791/16/1 792/2/1
f 793/42/1 794/43/1 795/44/1 796/14/1
f 797/12/1 798/11/1 799/23/1 800/37/1
f 801/28/1 802/46/1 803/35/1 804/29/1
f 805/26/1 806/13/1 807/16/1 808/2/1
f 809/46/1 810/24/1 811/26/1 812/35/1
f 813/10/1 814/45/1 815/21/1 816/11/1
f 817/25/1 818/42/1 819/14/1 820/13/1
f 821/42/1 822/43/1 823/44/1 824/14/1
f 825/8/1 826/7/1 827/32/1 828/31/1
f 829/4/1 830/3/1 831/18/1 832/17/1
f 833/35/1 834/26/1 835/2/1 836/1/1
f 837/41/1 838/36/1 839/6/1 840/5/1
f 841/42/1 842/43/1 843/44/1 844/14/1
f 845/9/1 846/10/1 847/11/1 848/12/1
f 849/1/1 850/2/1 851/3/1 852/4/1
f 853/1/1 854/2/1 855/3/1 856/4/1
f 857/15/1 858/47/1 859/45/1 860/10/1
f 861/16/1 862/15/1 863/10/1 864/9/1
f 865/5/1 866/6/1 867/7/1 868/8/1
f 869/36/1 870/1/1 871/4/1 872/6/1
f 873/16/1 874/15/1 875/10/1 876/9/1
f 877/3/1 878/9/1 879/12/1 880/18/1
f 881/25/1 882/42/1 883/14/1 884/13/1
f 885/41/1 886/36/1 887/6/1 888/5/1
f 889/8/1 890/7/1 891/32/1 892/31/1
f 893/2/1 894/16/1 895/9/1 896/3/1
f 897/41/1 898/36/1 899/6/1 900/5/1
f 901/5/1 902/6/1 903/7/1 904/8/1
f 905/17/1 906/18/1 907/19/1 908/20/1
f 909/31/1 910/32/1 911/33/1 912/34/1
f 913/19/1 914/37/1 915/39/1 916/40/1
f 917/26/1 918/13/1 919/16/1 920/2/1
f 921/5/1 922/6/1 923/7/1 924/8/1
f 925/46/1 926/24/1 927/26/1 928/35/1
f 929/6/1 930/4/1 931/17/1 932/7/1
f 933/29/1 934/35/1 935/1/1 936/36/1
f 937/6/1 938/4/1 939/17/1 940/7/1
f 941/27/1 942/28/1 943/29/1 944/30/1
f 945/37/1 946/23/1 947/38/1 948/39/1
f 949/2/1 950/16/1 951/9/1 952/3/1
f 953/27/1 954/28/1 955/29/1 956/30/1
f 957/14/1 958/44/1 959/47/1 960/15/1
f 961/41/1 962/36/1 963/6/1 964/5/1
f 965/27/1 966/28/1 967/29/1 968/30/1
f 969/18/1 970/12/1 971/37/1 972/19/1
f 973/12/1 974/11/1 975/23/1 976/37/1
f 977/23/1 978/22/1 979/49/1 980/38/1
f 981/6/1 982/4/1 983/17/1 984/7/1
f 985/9/1 986/10/1 987/11/1 988/12/1
f 989/9/1 990/10/1 991/11/1 992/12/1
f 993/37/1 994/23/1 995/38/1 996/39/1
f 997/6/1 998/4/1 999/17/1 1000/7/1
f 1001/17/1 1002/18/1 1003/19/1 1004/20/1
f 1005/18/1 1006/12/1 1007/37/1 1008/19/1
f 1009/15/1 1010/47/1 1011/45/1 1012/10/1
f 1013/25/1 1014/42/1 1015/14/1 1016/13/1
f 1017/9/1 1018/10/1 1019/11/1 1020/12/1
f 1021/14/1 1022/44/1 1023/47/1 1024/15/1

