# Tiled2Unity generated file. Do not modify by hand.
# Wavefront file for 'TitleIntro_mesh_0060.obj'

# Vertices (Count = 1024)
v 0 -16 0
v -16 -16 0
v -16 0 0
v 0 0 0
v -16 -16 0
v -32 -16 0
v -32 0 0
v -16 0 0
v -32 -16 0
v -48 -16 0
v -48 0 0
v -32 0 0
v -48 -16 0
v -64 -16 0
v -64 0 0
v -48 0 0
v -64 -16 0
v -80 -16 0
v -80 0 0
v -64 0 0
v -80 -16 0
v -96 -16 0
v -96 0 0
v -80 0 0
v -96 -16 0
v -112 -16 0
v -112 0 0
v -96 0 0
v -112 -16 0
v -128 -16 0
v -128 0 0
v -112 0 0
v -128 -16 0
v -144 -16 0
v -144 0 0
v -128 0 0
v -144 -16 0
v -160 -16 0
v -160 0 0
v -144 0 0
v -160 -16 0
v -176 -16 0
v -176 0 0
v -160 0 0
v -176 -16 0
v -192 -16 0
v -192 0 0
v -176 0 0
v -192 -16 0
v -208 -16 0
v -208 0 0
v -192 0 0
v -208 -16 0
v -224 -16 0
v -224 0 0
v -208 0 0
v -224 -16 0
v -240 -16 0
v -240 0 0
v -224 0 0
v -240 -16 0
v -256 -16 0
v -256 0 0
v -240 0 0
v 0 -32 0
v -16 -32 0
v -16 -16 0
v 0 -16 0
v -16 -32 0
v -32 -32 0
v -32 -16 0
v -16 -16 0
v -32 -32 0
v -48 -32 0
v -48 -16 0
v -32 -16 0
v -48 -32 0
v -64 -32 0
v -64 -16 0
v -48 -16 0
v -64 -32 0
v -80 -32 0
v -80 -16 0
v -64 -16 0
v -80 -32 0
v -96 -32 0
v -96 -16 0
v -80 -16 0
v -96 -32 0
v -112 -32 0
v -112 -16 0
v -96 -16 0
v -112 -32 0
v -128 -32 0
v -128 -16 0
v -112 -16 0
v -128 -32 0
v -144 -32 0
v -144 -16 0
v -128 -16 0
v -144 -32 0
v -160 -32 0
v -160 -16 0
v -144 -16 0
v -160 -32 0
v -176 -32 0
v -176 -16 0
v -160 -16 0
v -176 -32 0
v -192 -32 0
v -192 -16 0
v -176 -16 0
v -192 -32 0
v -208 -32 0
v -208 -16 0
v -192 -16 0
v -208 -32 0
v -224 -32 0
v -224 -16 0
v -208 -16 0
v -224 -32 0
v -240 -32 0
v -240 -16 0
v -224 -16 0
v -240 -32 0
v -256 -32 0
v -256 -16 0
v -240 -16 0
v 0 -48 0
v -16 -48 0
v -16 -32 0
v 0 -32 0
v -16 -48 0
v -32 -48 0
v -32 -32 0
v -16 -32 0
v -32 -48 0
v -48 -48 0
v -48 -32 0
v -32 -32 0
v -48 -48 0
v -64 -48 0
v -64 -32 0
v -48 -32 0
v -64 -48 0
v -80 -48 0
v -80 -32 0
v -64 -32 0
v -80 -48 0
v -96 -48 0
v -96 -32 0
v -80 -32 0
v -96 -48 0
v -112 -48 0
v -112 -32 0
v -96 -32 0
v -112 -48 0
v -128 -48 0
v -128 -32 0
v -112 -32 0
v -128 -48 0
v -144 -48 0
v -144 -32 0
v -128 -32 0
v -144 -48 0
v -160 -48 0
v -160 -32 0
v -144 -32 0
v -160 -48 0
v -176 -48 0
v -176 -32 0
v -160 -32 0
v -176 -48 0
v -192 -48 0
v -192 -32 0
v -176 -32 0
v -192 -48 0
v -208 -48 0
v -208 -32 0
v -192 -32 0
v -208 -48 0
v -224 -48 0
v -224 -32 0
v -208 -32 0
v -224 -48 0
v -240 -48 0
v -240 -32 0
v -224 -32 0
v -240 -48 0
v -256 -48 0
v -256 -32 0
v -240 -32 0
v 0 -64 0
v -16 -64 0
v -16 -48 0
v 0 -48 0
v -16 -64 0
v -32 -64 0
v -32 -48 0
v -16 -48 0
v -32 -64 0
v -48 -64 0
v -48 -48 0
v -32 -48 0
v -48 -64 0
v -64 -64 0
v -64 -48 0
v -48 -48 0
v -64 -64 0
v -80 -64 0
v -80 -48 0
v -64 -48 0
v -80 -64 0
v -96 -64 0
v -96 -48 0
v -80 -48 0
v -96 -64 0
v -112 -64 0
v -112 -48 0
v -96 -48 0
v -112 -64 0
v -128 -64 0
v -128 -48 0
v -112 -48 0
v -128 -64 0
v -144 -64 0
v -144 -48 0
v -128 -48 0
v -144 -64 0
v -160 -64 0
v -160 -48 0
v -144 -48 0
v -160 -64 0
v -176 -64 0
v -176 -48 0
v -160 -48 0
v -176 -64 0
v -192 -64 0
v -192 -48 0
v -176 -48 0
v -192 -64 0
v -208 -64 0
v -208 -48 0
v -192 -48 0
v -208 -64 0
v -224 -64 0
v -224 -48 0
v -208 -48 0
v -224 -64 0
v -240 -64 0
v -240 -48 0
v -224 -48 0
v -240 -64 0
v -256 -64 0
v -256 -48 0
v -240 -48 0
v 0 -80 0
v -16 -80 0
v -16 -64 0
v 0 -64 0
v -16 -80 0
v -32 -80 0
v -32 -64 0
v -16 -64 0
v -32 -80 0
v -48 -80 0
v -48 -64 0
v -32 -64 0
v -48 -80 0
v -64 -80 0
v -64 -64 0
v -48 -64 0
v -64 -80 0
v -80 -80 0
v -80 -64 0
v -64 -64 0
v -80 -80 0
v -96 -80 0
v -96 -64 0
v -80 -64 0
v -96 -80 0
v -112 -80 0
v -112 -64 0
v -96 -64 0
v -112 -80 0
v -128 -80 0
v -128 -64 0
v -112 -64 0
v -128 -80 0
v -144 -80 0
v -144 -64 0
v -128 -64 0
v -144 -80 0
v -160 -80 0
v -160 -64 0
v -144 -64 0
v -160 -80 0
v -176 -80 0
v -176 -64 0
v -160 -64 0
v -176 -80 0
v -192 -80 0
v -192 -64 0
v -176 -64 0
v -192 -80 0
v -208 -80 0
v -208 -64 0
v -192 -64 0
v -208 -80 0
v -224 -80 0
v -224 -64 0
v -208 -64 0
v -224 -80 0
v -240 -80 0
v -240 -64 0
v -224 -64 0
v -240 -80 0
v -256 -80 0
v -256 -64 0
v -240 -64 0
v 0 -96 0
v -16 -96 0
v -16 -80 0
v 0 -80 0
v -16 -96 0
v -32 -96 0
v -32 -80 0
v -16 -80 0
v -32 -96 0
v -48 -96 0
v -48 -80 0
v -32 -80 0
v -48 -96 0
v -64 -96 0
v -64 -80 0
v -48 -80 0
v -64 -96 0
v -80 -96 0
v -80 -80 0
v -64 -80 0
v -80 -96 0
v -96 -96 0
v -96 -80 0
v -80 -80 0
v -96 -96 0
v -112 -96 0
v -112 -80 0
v -96 -80 0
v -112 -96 0
v -128 -96 0
v -128 -80 0
v -112 -80 0
v -128 -96 0
v -144 -96 0
v -144 -80 0
v -128 -80 0
v -144 -96 0
v -160 -96 0
v -160 -80 0
v -144 -80 0
v -160 -96 0
v -176 -96 0
v -176 -80 0
v -160 -80 0
v -176 -96 0
v -192 -96 0
v -192 -80 0
v -176 -80 0
v -192 -96 0
v -208 -96 0
v -208 -80 0
v -192 -80 0
v -208 -96 0
v -224 -96 0
v -224 -80 0
v -208 -80 0
v -224 -96 0
v -240 -96 0
v -240 -80 0
v -224 -80 0
v -240 -96 0
v -256 -96 0
v -256 -80 0
v -240 -80 0
v 0 -112 0
v -16 -112 0
v -16 -96 0
v 0 -96 0
v -16 -112 0
v -32 -112 0
v -32 -96 0
v -16 -96 0
v -32 -112 0
v -48 -112 0
v -48 -96 0
v -32 -96 0
v -48 -112 0
v -64 -112 0
v -64 -96 0
v -48 -96 0
v -64 -112 0
v -80 -112 0
v -80 -96 0
v -64 -96 0
v -80 -112 0
v -96 -112 0
v -96 -96 0
v -80 -96 0
v -96 -112 0
v -112 -112 0
v -112 -96 0
v -96 -96 0
v -112 -112 0
v -128 -112 0
v -128 -96 0
v -112 -96 0
v -128 -112 0
v -144 -112 0
v -144 -96 0
v -128 -96 0
v -144 -112 0
v -160 -112 0
v -160 -96 0
v -144 -96 0
v -160 -112 0
v -176 -112 0
v -176 -96 0
v -160 -96 0
v -176 -112 0
v -192 -112 0
v -192 -96 0
v -176 -96 0
v -192 -112 0
v -208 -112 0
v -208 -96 0
v -192 -96 0
v -208 -112 0
v -224 -112 0
v -224 -96 0
v -208 -96 0
v -224 -112 0
v -240 -112 0
v -240 -96 0
v -224 -96 0
v -240 -112 0
v -256 -112 0
v -256 -96 0
v -240 -96 0
v 0 -128 0
v -16 -128 0
v -16 -112 0
v 0 -112 0
v -16 -128 0
v -32 -128 0
v -32 -112 0
v -16 -112 0
v -32 -128 0
v -48 -128 0
v -48 -112 0
v -32 -112 0
v -48 -128 0
v -64 -128 0
v -64 -112 0
v -48 -112 0
v -64 -128 0
v -80 -128 0
v -80 -112 0
v -64 -112 0
v -80 -128 0
v -96 -128 0
v -96 -112 0
v -80 -112 0
v -96 -128 0
v -112 -128 0
v -112 -112 0
v -96 -112 0
v -112 -128 0
v -128 -128 0
v -128 -112 0
v -112 -112 0
v -128 -128 0
v -144 -128 0
v -144 -112 0
v -128 -112 0
v -144 -128 0
v -160 -128 0
v -160 -112 0
v -144 -112 0
v -160 -128 0
v -176 -128 0
v -176 -112 0
v -160 -112 0
v -176 -128 0
v -192 -128 0
v -192 -112 0
v -176 -112 0
v -192 -128 0
v -208 -128 0
v -208 -112 0
v -192 -112 0
v -208 -128 0
v -224 -128 0
v -224 -112 0
v -208 -112 0
v -224 -128 0
v -240 -128 0
v -240 -112 0
v -224 -112 0
v -240 -128 0
v -256 -128 0
v -256 -112 0
v -240 -112 0
v 0 -144 0
v -16 -144 0
v -16 -128 0
v 0 -128 0
v -16 -144 0
v -32 -144 0
v -32 -128 0
v -16 -128 0
v -32 -144 0
v -48 -144 0
v -48 -128 0
v -32 -128 0
v -48 -144 0
v -64 -144 0
v -64 -128 0
v -48 -128 0
v -64 -144 0
v -80 -144 0
v -80 -128 0
v -64 -128 0
v -80 -144 0
v -96 -144 0
v -96 -128 0
v -80 -128 0
v -96 -144 0
v -112 -144 0
v -112 -128 0
v -96 -128 0
v -112 -144 0
v -128 -144 0
v -128 -128 0
v -112 -128 0
v -128 -144 0
v -144 -144 0
v -144 -128 0
v -128 -128 0
v -144 -144 0
v -160 -144 0
v -160 -128 0
v -144 -128 0
v -160 -144 0
v -176 -144 0
v -176 -128 0
v -160 -128 0
v -176 -144 0
v -192 -144 0
v -192 -128 0
v -176 -128 0
v -192 -144 0
v -208 -144 0
v -208 -128 0
v -192 -128 0
v -208 -144 0
v -224 -144 0
v -224 -128 0
v -208 -128 0
v -224 -144 0
v -240 -144 0
v -240 -128 0
v -224 -128 0
v -240 -144 0
v -256 -144 0
v -256 -128 0
v -240 -128 0
v 0 -160 0
v -16 -160 0
v -16 -144 0
v 0 -144 0
v -16 -160 0
v -32 -160 0
v -32 -144 0
v -16 -144 0
v -32 -160 0
v -48 -160 0
v -48 -144 0
v -32 -144 0
v -48 -160 0
v -64 -160 0
v -64 -144 0
v -48 -144 0
v -64 -160 0
v -80 -160 0
v -80 -144 0
v -64 -144 0
v -80 -160 0
v -96 -160 0
v -96 -144 0
v -80 -144 0
v -96 -160 0
v -112 -160 0
v -112 -144 0
v -96 -144 0
v -112 -160 0
v -128 -160 0
v -128 -144 0
v -112 -144 0
v -128 -160 0
v -144 -160 0
v -144 -144 0
v -128 -144 0
v -144 -160 0
v -160 -160 0
v -160 -144 0
v -144 -144 0
v -160 -160 0
v -176 -160 0
v -176 -144 0
v -160 -144 0
v -176 -160 0
v -192 -160 0
v -192 -144 0
v -176 -144 0
v -192 -160 0
v -208 -160 0
v -208 -144 0
v -192 -144 0
v -208 -160 0
v -224 -160 0
v -224 -144 0
v -208 -144 0
v -224 -160 0
v -240 -160 0
v -240 -144 0
v -224 -144 0
v -240 -160 0
v -256 -160 0
v -256 -144 0
v -240 -144 0
v 0 -176 0
v -16 -176 0
v -16 -160 0
v 0 -160 0
v -16 -176 0
v -32 -176 0
v -32 -160 0
v -16 -160 0
v -32 -176 0
v -48 -176 0
v -48 -160 0
v -32 -160 0
v -48 -176 0
v -64 -176 0
v -64 -160 0
v -48 -160 0
v -64 -176 0
v -80 -176 0
v -80 -160 0
v -64 -160 0
v -80 -176 0
v -96 -176 0
v -96 -160 0
v -80 -160 0
v -96 -176 0
v -112 -176 0
v -112 -160 0
v -96 -160 0
v -112 -176 0
v -128 -176 0
v -128 -160 0
v -112 -160 0
v -128 -176 0
v -144 -176 0
v -144 -160 0
v -128 -160 0
v -144 -176 0
v -160 -176 0
v -160 -160 0
v -144 -160 0
v -160 -176 0
v -176 -176 0
v -176 -160 0
v -160 -160 0
v -176 -176 0
v -192 -176 0
v -192 -160 0
v -176 -160 0
v -192 -176 0
v -208 -176 0
v -208 -160 0
v -192 -160 0
v -208 -176 0
v -224 -176 0
v -224 -160 0
v -208 -160 0
v -224 -176 0
v -240 -176 0
v -240 -160 0
v -224 -160 0
v -240 -176 0
v -256 -176 0
v -256 -160 0
v -240 -160 0
v 0 -192 0
v -16 -192 0
v -16 -176 0
v 0 -176 0
v -16 -192 0
v -32 -192 0
v -32 -176 0
v -16 -176 0
v -32 -192 0
v -48 -192 0
v -48 -176 0
v -32 -176 0
v -48 -192 0
v -64 -192 0
v -64 -176 0
v -48 -176 0
v -64 -192 0
v -80 -192 0
v -80 -176 0
v -64 -176 0
v -80 -192 0
v -96 -192 0
v -96 -176 0
v -80 -176 0
v -96 -192 0
v -112 -192 0
v -112 -176 0
v -96 -176 0
v -112 -192 0
v -128 -192 0
v -128 -176 0
v -112 -176 0
v -128 -192 0
v -144 -192 0
v -144 -176 0
v -128 -176 0
v -144 -192 0
v -160 -192 0
v -160 -176 0
v -144 -176 0
v -160 -192 0
v -176 -192 0
v -176 -176 0
v -160 -176 0
v -176 -192 0
v -192 -192 0
v -192 -176 0
v -176 -176 0
v -192 -192 0
v -208 -192 0
v -208 -176 0
v -192 -176 0
v -208 -192 0
v -224 -192 0
v -224 -176 0
v -208 -176 0
v -224 -192 0
v -240 -192 0
v -240 -176 0
v -224 -176 0
v -240 -192 0
v -256 -192 0
v -256 -176 0
v -240 -176 0
v 0 -208 0
v -16 -208 0
v -16 -192 0
v 0 -192 0
v -16 -208 0
v -32 -208 0
v -32 -192 0
v -16 -192 0
v -32 -208 0
v -48 -208 0
v -48 -192 0
v -32 -192 0
v -48 -208 0
v -64 -208 0
v -64 -192 0
v -48 -192 0
v -64 -208 0
v -80 -208 0
v -80 -192 0
v -64 -192 0
v -80 -208 0
v -96 -208 0
v -96 -192 0
v -80 -192 0
v -96 -208 0
v -112 -208 0
v -112 -192 0
v -96 -192 0
v -112 -208 0
v -128 -208 0
v -128 -192 0
v -112 -192 0
v -128 -208 0
v -144 -208 0
v -144 -192 0
v -128 -192 0
v -144 -208 0
v -160 -208 0
v -160 -192 0
v -144 -192 0
v -160 -208 0
v -176 -208 0
v -176 -192 0
v -160 -192 0
v -176 -208 0
v -192 -208 0
v -192 -192 0
v -176 -192 0
v -192 -208 0
v -208 -208 0
v -208 -192 0
v -192 -192 0
v -208 -208 0
v -224 -208 0
v -224 -192 0
v -208 -192 0
v -224 -208 0
v -240 -208 0
v -240 -192 0
v -224 -192 0
v -240 -208 0
v -256 -208 0
v -256 -192 0
v -240 -192 0
v 0 -224 0
v -16 -224 0
v -16 -208 0
v 0 -208 0
v -16 -224 0
v -32 -224 0
v -32 -208 0
v -16 -208 0
v -32 -224 0
v -48 -224 0
v -48 -208 0
v -32 -208 0
v -48 -224 0
v -64 -224 0
v -64 -208 0
v -48 -208 0
v -64 -224 0
v -80 -224 0
v -80 -208 0
v -64 -208 0
v -80 -224 0
v -96 -224 0
v -96 -208 0
v -80 -208 0
v -96 -224 0
v -112 -224 0
v -112 -208 0
v -96 -208 0
v -112 -224 0
v -128 -224 0
v -128 -208 0
v -112 -208 0
v -128 -224 0
v -144 -224 0
v -144 -208 0
v -128 -208 0
v -144 -224 0
v -160 -224 0
v -160 -208 0
v -144 -208 0
v -160 -224 0
v -176 -224 0
v -176 -208 0
v -160 -208 0
v -176 -224 0
v -192 -224 0
v -192 -208 0
v -176 -208 0
v -192 -224 0
v -208 -224 0
v -208 -208 0
v -192 -208 0
v -208 -224 0
v -224 -224 0
v -224 -208 0
v -208 -208 0
v -224 -224 0
v -240 -224 0
v -240 -208 0
v -224 -208 0
v -240 -224 0
v -256 -224 0
v -256 -208 0
v -240 -208 0
v 0 -240 0
v -16 -240 0
v -16 -224 0
v 0 -224 0
v -16 -240 0
v -32 -240 0
v -32 -224 0
v -16 -224 0
v -32 -240 0
v -48 -240 0
v -48 -224 0
v -32 -224 0
v -48 -240 0
v -64 -240 0
v -64 -224 0
v -48 -224 0
v -64 -240 0
v -80 -240 0
v -80 -224 0
v -64 -224 0
v -80 -240 0
v -96 -240 0
v -96 -224 0
v -80 -224 0
v -96 -240 0
v -112 -240 0
v -112 -224 0
v -96 -224 0
v -112 -240 0
v -128 -240 0
v -128 -224 0
v -112 -224 0
v -128 -240 0
v -144 -240 0
v -144 -224 0
v -128 -224 0
v -144 -240 0
v -160 -240 0
v -160 -224 0
v -144 -224 0
v -160 -240 0
v -176 -240 0
v -176 -224 0
v -160 -224 0
v -176 -240 0
v -192 -240 0
v -192 -224 0
v -176 -224 0
v -192 -240 0
v -208 -240 0
v -208 -224 0
v -192 -224 0
v -208 -240 0
v -224 -240 0
v -224 -224 0
v -208 -224 0
v -224 -240 0
v -240 -240 0
v -240 -224 0
v -224 -224 0
v -240 -240 0
v -256 -240 0
v -256 -224 0
v -240 -224 0
v 0 -256 0
v -16 -256 0
v -16 -240 0
v 0 -240 0
v -16 -256 0
v -32 -256 0
v -32 -240 0
v -16 -240 0
v -32 -256 0
v -48 -256 0
v -48 -240 0
v -32 -240 0
v -48 -256 0
v -64 -256 0
v -64 -240 0
v -48 -240 0
v -64 -256 0
v -80 -256 0
v -80 -240 0
v -64 -240 0
v -80 -256 0
v -96 -256 0
v -96 -240 0
v -80 -240 0
v -96 -256 0
v -112 -256 0
v -112 -240 0
v -96 -240 0
v -112 -256 0
v -128 -256 0
v -128 -240 0
v -112 -240 0
v -128 -256 0
v -144 -256 0
v -144 -240 0
v -128 -240 0
v -144 -256 0
v -160 -256 0
v -160 -240 0
v -144 -240 0
v -160 -256 0
v -176 -256 0
v -176 -240 0
v -160 -240 0
v -176 -256 0
v -192 -256 0
v -192 -240 0
v -176 -240 0
v -192 -256 0
v -208 -256 0
v -208 -240 0
v -192 -240 0
v -208 -256 0
v -224 -256 0
v -224 -240 0
v -208 -240 0
v -224 -256 0
v -240 -256 0
v -240 -240 0
v -224 -240 0
v -240 -256 0
v -256 -256 0
v -256 -240 0
v -240 -240 0

# Texture cooridinates (Count = 49)
vt 0.01953125 0.46875
vt 0.0234375 0.46875
vt 0.0234375 0.484375
vt 0.01953125 0.484375
vt 0.02734375 0.46875
vt 0.02734375 0.484375
vt 0.0234375 0.390625
vt 0.02734375 0.390625
vt 0.02734375 0.40625
vt 0.0234375 0.40625
vt 0.02734375 0.4375
vt 0.03125 0.4375
vt 0.03125 0.453125
vt 0.02734375 0.453125
vt 0.02734375 0.421875
vt 0.03125 0.421875
vt 0.01171875 0.4375
vt 0.015625 0.4375
vt 0.015625 0.453125
vt 0.01171875 0.453125
vt 0.0234375 0.4375
vt 0.0234375 0.453125
vt 0.015625 0.390625
vt 0.01953125 0.390625
vt 0.01953125 0.40625
vt 0.015625 0.40625
vt 0.01953125 0.421875
vt 0.015625 0.421875
vt 0.0234375 0.421875
vt 0.01953125 0.4375
vt 0.03125 0.390625
vt 0.03125 0.40625
vt 0.01953125 0.453125
vt 0.0078125 0.4375
vt 0.0078125 0.453125
vt 0.0078125 0.421875
vt 0.01171875 0.421875
vt 0.0078125 0.46875
vt 0.01171875 0.46875
vt 0.01171875 0.484375
vt 0.0078125 0.484375
vt 0.015625 0.46875
vt 0.01171875 0.390625
vt 0.01171875 0.40625
vt 0.0078125 0.390625
vt 0.0078125 0.40625
vt 0.03125 0.46875
vt 0.03125 0.484375
vt 0.015625 0.484375

# Normal
vn 0 0 -1

# Mesh description
g TitleIntro_mesh_0060

# Faces
f 1/1/1 2/2/1 3/3/1 4/4/1
f 5/2/1 6/5/1 7/6/1 8/3/1
f 9/7/1 10/8/1 11/9/1 12/10/1
f 13/11/1 14/12/1 15/13/1 16/14/1
f 17/2/1 18/5/1 19/6/1 20/3/1
f 21/15/1 22/16/1 23/12/1 24/11/1
f 25/17/1 26/18/1 27/19/1 28/20/1
f 29/21/1 30/11/1 31/14/1 32/22/1
f 33/22/1 34/14/1 35/5/1 36/2/1
f 37/23/1 38/24/1 39/25/1 40/26/1
f 41/2/1 42/5/1 43/6/1 44/3/1
f 45/26/1 46/25/1 47/27/1 48/28/1
f 49/27/1 50/29/1 51/21/1 52/30/1
f 53/8/1 54/31/1 55/32/1 56/9/1
f 57/30/1 58/21/1 59/22/1 60/33/1
f 61/34/1 62/17/1 63/20/1 64/35/1
f 65/36/1 66/37/1 67/17/1 68/34/1
f 69/10/1 70/9/1 71/15/1 72/29/1
f 73/38/1 74/39/1 75/40/1 76/41/1
f 77/20/1 78/19/1 79/42/1 80/39/1
f 81/1/1 82/2/1 83/3/1 84/4/1
f 85/35/1 86/20/1 87/39/1 88/38/1
f 89/21/1 90/11/1 91/14/1 92/22/1
f 93/7/1 94/8/1 95/9/1 96/10/1
f 97/37/1 98/28/1 99/18/1 100/17/1
f 101/33/1 102/22/1 103/2/1 104/1/1
f 105/21/1 106/11/1 107/14/1 108/22/1
f 109/35/1 110/20/1 111/39/1 112/38/1
f 113/43/1 114/23/1 115/26/1 116/44/1
f 117/1/1 118/2/1 119/3/1 120/4/1
f 121/35/1 122/20/1 123/39/1 124/38/1
f 125/7/1 126/8/1 127/9/1 128/10/1
f 129/34/1 130/17/1 131/20/1 132/35/1
f 133/33/1 134/22/1 135/2/1 136/1/1
f 137/24/1 138/7/1 139/10/1 140/25/1
f 141/10/1 142/9/1 143/15/1 144/29/1
f 145/33/1 146/22/1 147/2/1 148/1/1
f 149/11/1 150/12/1 151/13/1 152/14/1
f 153/38/1 154/39/1 155/40/1 156/41/1
f 157/9/1 158/32/1 159/16/1 160/15/1
f 161/26/1 162/25/1 163/27/1 164/28/1
f 165/8/1 166/31/1 167/32/1 168/9/1
f 169/26/1 170/25/1 171/27/1 172/28/1
f 173/25/1 174/10/1 175/29/1 176/27/1
f 177/23/1 178/24/1 179/25/1 180/26/1
f 181/20/1 182/19/1 183/42/1 184/39/1
f 185/33/1 186/22/1 187/2/1 188/1/1
f 189/38/1 190/39/1 191/40/1 192/41/1
f 193/17/1 194/18/1 195/19/1 196/20/1
f 197/24/1 198/7/1 199/10/1 200/25/1
f 201/11/1 202/12/1 203/13/1 204/14/1
f 205/15/1 206/16/1 207/12/1 208/11/1
f 209/33/1 210/22/1 211/2/1 212/1/1
f 213/45/1 214/43/1 215/44/1 216/46/1
f 217/44/1 218/26/1 219/28/1 220/37/1
f 221/23/1 222/24/1 223/25/1 224/26/1
f 225/46/1 226/44/1 227/37/1 228/36/1
f 229/34/1 230/17/1 231/20/1 232/35/1
f 233/19/1 234/33/1 235/1/1 236/42/1
f 237/38/1 238/39/1 239/40/1 240/41/1
f 241/14/1 242/13/1 243/47/1 244/5/1
f 245/29/1 246/15/1 247/11/1 248/21/1
f 249/29/1 250/15/1 251/11/1 252/21/1
f 253/27/1 254/29/1 255/21/1 256/30/1
f 257/29/1 258/15/1 259/11/1 260/21/1
f 261/22/1 262/14/1 263/5/1 264/2/1
f 265/5/1 266/47/1 267/48/1 268/6/1
f 269/42/1 270/1/1 271/4/1 272/49/1
f 273/2/1 274/5/1 275/6/1 276/3/1
f 277/11/1 278/12/1 279/13/1 280/14/1
f 281/21/1 282/11/1 283/14/1 284/22/1
f 285/18/1 286/30/1 287/33/1 288/19/1
f 289/22/1 290/14/1 291/5/1 292/2/1
f 293/33/1 294/22/1 295/2/1 296/1/1
f 297/22/1 298/14/1 299/5/1 300/2/1
f 301/28/1 302/27/1 303/30/1 304/18/1
f 305/18/1 306/30/1 307/33/1 308/19/1
f 309/37/1 310/28/1 311/18/1 312/17/1
f 313/34/1 314/17/1 315/20/1 316/35/1
f 317/33/1 318/22/1 319/2/1 320/1/1
f 321/15/1 322/16/1 323/12/1 324/11/1
f 325/10/1 326/9/1 327/15/1 328/29/1
f 329/2/1 330/5/1 331/6/1 332/3/1
f 333/8/1 334/31/1 335/32/1 336/9/1
f 337/2/1 338/5/1 339/6/1 340/3/1
f 341/15/1 342/16/1 343/12/1 344/11/1
f 345/19/1 346/33/1 347/1/1 348/42/1
f 349/26/1 350/25/1 351/27/1 352/28/1
f 353/17/1 354/18/1 355/19/1 356/20/1
f 357/1/1 358/2/1 359/3/1 360/4/1
f 361/2/1 362/5/1 363/6/1 364/3/1
f 365/22/1 366/14/1 367/5/1 368/2/1
f 369/42/1 370/1/1 371/4/1 372/49/1
f 373/38/1 374/39/1 375/40/1 376/41/1
f 377/30/1 378/21/1 379/22/1 380/33/1
f 381/45/1 382/43/1 383/44/1 384/46/1
f 385/27/1 386/29/1 387/21/1 388/30/1
f 389/38/1 390/39/1 391/40/1 392/41/1
f 393/21/1 394/11/1 395/14/1 396/22/1
f 397/42/1 398/1/1 399/4/1 400/49/1
f 401/20/1 402/19/1 403/42/1 404/39/1
f 405/18/1 406/30/1 407/33/1 408/19/1
f 409/20/1 410/19/1 411/42/1 412/39/1
f 413/42/1 414/1/1 415/4/1 416/49/1
f 417/24/1 418/7/1 419/10/1 420/25/1
f 421/42/1 422/1/1 423/4/1 424/49/1
f 425/5/1 426/47/1 427/48/1 428/6/1
f 429/17/1 430/18/1 431/19/1 432/20/1
f 433/22/1 434/14/1 435/5/1 436/2/1
f 437/28/1 438/27/1 439/30/1 440/18/1
f 441/42/1 442/1/1 443/4/1 444/49/1
f 445/30/1 446/21/1 447/22/1 448/33/1
f 449/26/1 450/25/1 451/27/1 452/28/1
f 453/21/1 454/11/1 455/14/1 456/22/1
f 457/17/1 458/18/1 459/19/1 460/20/1
f 461/19/1 462/33/1 463/1/1 464/42/1
f 465/28/1 466/27/1 467/30/1 468/18/1
f 469/36/1 470/37/1 471/17/1 472/34/1
f 473/26/1 474/25/1 475/27/1 476/28/1
f 477/2/1 478/5/1 479/6/1 480/3/1
f 481/15/1 482/16/1 483/12/1 484/11/1
f 485/44/1 486/26/1 487/28/1 488/37/1
f 489/28/1 490/27/1 491/30/1 492/18/1
f 493/15/1 494/16/1 495/12/1 496/11/1
f 497/17/1 498/18/1 499/19/1 500/20/1
f 501/39/1 502/42/1 503/49/1 504/40/1
f 505/18/1 506/30/1 507/33/1 508/19/1
f 509/20/1 510/19/1 511/42/1 512/39/1
f 513/9/1 514/32/1 515/16/1 516/15/1
f 517/7/1 518/8/1 519/9/1 520/10/1
f 521/2/1 522/5/1 523/6/1 524/3/1
f 525/37/1 526/28/1 527/18/1 528/17/1
f 529/9/1 530/32/1 531/16/1 532/15/1
f 533/36/1 534/37/1 535/17/1 536/34/1
f 537/17/1 538/18/1 539/19/1 540/20/1
f 541/45/1 542/43/1 543/44/1 544/46/1
f 545/39/1 546/42/1 547/49/1 548/40/1
f 549/43/1 550/23/1 551/26/1 552/44/1
f 553/37/1 554/28/1 555/18/1 556/17/1
f 557/46/1 558/44/1 559/37/1 560/36/1
f 561/19/1 562/33/1 563/1/1 564/42/1
f 565/30/1 566/21/1 567/22/1 568/33/1
f 569/8/1 570/31/1 571/32/1 572/9/1
f 573/11/1 574/12/1 575/13/1 576/14/1
f 577/35/1 578/20/1 579/39/1 580/38/1
f 581/7/1 582/8/1 583/9/1 584/10/1
f 585/14/1 586/13/1 587/47/1 588/5/1
f 589/20/1 590/19/1 591/42/1 592/39/1
f 593/46/1 594/44/1 595/37/1 596/36/1
f 597/42/1 598/1/1 599/4/1 600/49/1
f 601/23/1 602/24/1 603/25/1 604/26/1
f 605/20/1 606/19/1 607/42/1 608/39/1
f 609/8/1 610/31/1 611/32/1 612/9/1
f 613/42/1 614/1/1 615/4/1 616/49/1
f 617/15/1 618/16/1 619/12/1 620/11/1
f 621/38/1 622/39/1 623/40/1 624/41/1
f 625/17/1 626/18/1 627/19/1 628/20/1
f 629/36/1 630/37/1 631/17/1 632/34/1
f 633/35/1 634/20/1 635/39/1 636/38/1
f 637/25/1 638/10/1 639/29/1 640/27/1
f 641/44/1 642/26/1 643/28/1 644/37/1
f 645/29/1 646/15/1 647/11/1 648/21/1
f 649/9/1 650/32/1 651/16/1 652/15/1
f 653/42/1 654/1/1 655/4/1 656/49/1
f 657/25/1 658/10/1 659/29/1 660/27/1
f 661/27/1 662/29/1 663/21/1 664/30/1
f 665/43/1 666/23/1 667/26/1 668/44/1
f 669/2/1 670/5/1 671/6/1 672/3/1
f 673/9/1 674/32/1 675/16/1 676/15/1
f 677/18/1 678/30/1 679/33/1 680/19/1
f 681/14/1 682/13/1 683/47/1 684/5/1
f 685/21/1 686/11/1 687/14/1 688/22/1
f 689/8/1 690/31/1 691/32/1 692/9/1
f 693/20/1 694/19/1 695/42/1 696/39/1
f 697/27/1 698/29/1 699/21/1 700/30/1
f 701/33/1 702/22/1 703/2/1 704/1/1
f 705/7/1 706/8/1 707/9/1 708/10/1
f 709/17/1 710/18/1 711/19/1 712/20/1
f 713/44/1 714/26/1 715/28/1 716/37/1
f 717/33/1 718/22/1 719/2/1 720/1/1
f 721/11/1 722/12/1 723/13/1 724/14/1
f 725/27/1 726/29/1 727/21/1 728/30/1
f 729/30/1 730/21/1 731/22/1 732/33/1
f 733/26/1 734/25/1 735/27/1 736/28/1
f 737/33/1 738/22/1 739/2/1 740/1/1
f 741/34/1 742/17/1 743/20/1 744/35/1
f 745/27/1 746/29/1 747/21/1 748/30/1
f 749/39/1 750/42/1 751/49/1 752/40/1
f 753/44/1 754/26/1 755/28/1 756/37/1
f 757/33/1 758/22/1 759/2/1 760/1/1
f 761/46/1 762/44/1 763/37/1 764/36/1
f 765/5/1 766/47/1 767/48/1 768/6/1
f 769/7/1 770/8/1 771/9/1 772/10/1
f 773/33/1 774/22/1 775/2/1 776/1/1
f 777/5/1 778/47/1 779/48/1 780/6/1
f 781/34/1 782/17/1 783/20/1 784/35/1
f 785/5/1 786/47/1 787/48/1 788/6/1
f 789/25/1 790/10/1 791/29/1 792/27/1
f 793/1/1 794/2/1 795/3/1 796/4/1
f 797/23/1 798/24/1 799/25/1 800/26/1
f 801/43/1 802/23/1 803/26/1 804/44/1
f 805/1/1 806/2/1 807/3/1 808/4/1
f 809/28/1 810/27/1 811/30/1 812/18/1
f 813/30/1 814/21/1 815/22/1 816/33/1
f 817/11/1 818/12/1 819/13/1 820/14/1
f 821/9/1 822/32/1 823/16/1 824/15/1
f 825/19/1 826/33/1 827/1/1 828/42/1
f 829/27/1 830/29/1 831/21/1 832/30/1
f 833/46/1 834/44/1 835/37/1 836/36/1
f 837/19/1 838/33/1 839/1/1 840/42/1
f 841/36/1 842/37/1 843/17/1 844/34/1
f 845/19/1 846/33/1 847/1/1 848/42/1
f 849/18/1 850/30/1 851/33/1 852/19/1
f 853/45/1 854/43/1 855/44/1 856/46/1
f 857/9/1 858/32/1 859/16/1 860/15/1
f 861/45/1 862/43/1 863/44/1 864/46/1
f 865/20/1 866/19/1 867/42/1 868/39/1
f 869/15/1 870/16/1 871/12/1 872/11/1
f 873/43/1 874/23/1 875/26/1 876/44/1
f 877/27/1 878/29/1 879/21/1 880/30/1
f 881/46/1 882/44/1 883/37/1 884/36/1
f 885/18/1 886/30/1 887/33/1 888/19/1
f 889/19/1 890/33/1 891/1/1 892/42/1
f 893/7/1 894/8/1 895/9/1 896/10/1
f 897/8/1 898/31/1 899/32/1 900/9/1
f 901/18/1 902/30/1 903/33/1 904/19/1
f 905/36/1 906/37/1 907/17/1 908/34/1
f 909/1/1 910/2/1 911/3/1 912/4/1
f 913/45/1 914/43/1 915/44/1 916/46/1
f 917/1/1 918/2/1 919/3/1 920/4/1
f 921/28/1 922/27/1 923/30/1 924/18/1
f 925/18/1 926/30/1 927/33/1 928/19/1
f 929/5/1 930/47/1 931/48/1 932/6/1
f 933/36/1 934/37/1 935/17/1 936/34/1
f 937/30/1 938/21/1 939/22/1 940/33/1
f 941/2/1 942/5/1 943/6/1 944/3/1
f 945/43/1 946/23/1 947/26/1 948/44/1
f 949/26/1 950/25/1 951/27/1 952/28/1
f 953/26/1 954/25/1 955/27/1 956/28/1
f 957/17/1 958/18/1 959/19/1 960/20/1
f 961/7/1 962/8/1 963/9/1 964/10/1
f 965/1/1 966/2/1 967/3/1 968/4/1
f 969/21/1 970/11/1 971/14/1 972/22/1
f 973/35/1 974/20/1 975/39/1 976/38/1
f 977/9/1 978/32/1 979/16/1 980/15/1
f 981/2/1 982/5/1 983/6/1 984/3/1
f 985/26/1 986/25/1 987/27/1 988/28/1
f 989/39/1 990/42/1 991/49/1 992/40/1
f 993/22/1 994/14/1 995/5/1 996/2/1
f 997/39/1 998/42/1 999/49/1 1000/40/1
f 1001/7/1 1002/8/1 1003/9/1 1004/10/1
f 1005/26/1 1006/25/1 1007/27/1 1008/28/1
f 1009/37/1 1010/28/1 1011/18/1 1012/17/1
f 1013/2/1 1014/5/1 1015/6/1 1016/3/1
f 1017/17/1 1018/18/1 1019/19/1 1020/20/1
f 1021/19/1 1022/33/1 1023/1/1 1024/42/1

