# Tiled2Unity generated file. Do not modify by hand.
# Wavefront file for 'TitleIntro_mesh_0085.obj'

# Vertices (Count = 1024)
v 0 -16 0
v -16 -16 0
v -16 0 0
v 0 0 0
v -16 -16 0
v -32 -16 0
v -32 0 0
v -16 0 0
v -32 -16 0
v -48 -16 0
v -48 0 0
v -32 0 0
v -48 -16 0
v -64 -16 0
v -64 0 0
v -48 0 0
v -64 -16 0
v -80 -16 0
v -80 0 0
v -64 0 0
v -80 -16 0
v -96 -16 0
v -96 0 0
v -80 0 0
v -96 -16 0
v -112 -16 0
v -112 0 0
v -96 0 0
v -112 -16 0
v -128 -16 0
v -128 0 0
v -112 0 0
v -128 -16 0
v -144 -16 0
v -144 0 0
v -128 0 0
v -144 -16 0
v -160 -16 0
v -160 0 0
v -144 0 0
v -160 -16 0
v -176 -16 0
v -176 0 0
v -160 0 0
v -176 -16 0
v -192 -16 0
v -192 0 0
v -176 0 0
v -192 -16 0
v -208 -16 0
v -208 0 0
v -192 0 0
v -208 -16 0
v -224 -16 0
v -224 0 0
v -208 0 0
v -224 -16 0
v -240 -16 0
v -240 0 0
v -224 0 0
v -240 -16 0
v -256 -16 0
v -256 0 0
v -240 0 0
v 0 -32 0
v -16 -32 0
v -16 -16 0
v 0 -16 0
v -16 -32 0
v -32 -32 0
v -32 -16 0
v -16 -16 0
v -32 -32 0
v -48 -32 0
v -48 -16 0
v -32 -16 0
v -48 -32 0
v -64 -32 0
v -64 -16 0
v -48 -16 0
v -64 -32 0
v -80 -32 0
v -80 -16 0
v -64 -16 0
v -80 -32 0
v -96 -32 0
v -96 -16 0
v -80 -16 0
v -96 -32 0
v -112 -32 0
v -112 -16 0
v -96 -16 0
v -112 -32 0
v -128 -32 0
v -128 -16 0
v -112 -16 0
v -128 -32 0
v -144 -32 0
v -144 -16 0
v -128 -16 0
v -144 -32 0
v -160 -32 0
v -160 -16 0
v -144 -16 0
v -160 -32 0
v -176 -32 0
v -176 -16 0
v -160 -16 0
v -176 -32 0
v -192 -32 0
v -192 -16 0
v -176 -16 0
v -192 -32 0
v -208 -32 0
v -208 -16 0
v -192 -16 0
v -208 -32 0
v -224 -32 0
v -224 -16 0
v -208 -16 0
v -224 -32 0
v -240 -32 0
v -240 -16 0
v -224 -16 0
v -240 -32 0
v -256 -32 0
v -256 -16 0
v -240 -16 0
v 0 -48 0
v -16 -48 0
v -16 -32 0
v 0 -32 0
v -16 -48 0
v -32 -48 0
v -32 -32 0
v -16 -32 0
v -32 -48 0
v -48 -48 0
v -48 -32 0
v -32 -32 0
v -48 -48 0
v -64 -48 0
v -64 -32 0
v -48 -32 0
v -64 -48 0
v -80 -48 0
v -80 -32 0
v -64 -32 0
v -80 -48 0
v -96 -48 0
v -96 -32 0
v -80 -32 0
v -96 -48 0
v -112 -48 0
v -112 -32 0
v -96 -32 0
v -112 -48 0
v -128 -48 0
v -128 -32 0
v -112 -32 0
v -128 -48 0
v -144 -48 0
v -144 -32 0
v -128 -32 0
v -144 -48 0
v -160 -48 0
v -160 -32 0
v -144 -32 0
v -160 -48 0
v -176 -48 0
v -176 -32 0
v -160 -32 0
v -176 -48 0
v -192 -48 0
v -192 -32 0
v -176 -32 0
v -192 -48 0
v -208 -48 0
v -208 -32 0
v -192 -32 0
v -208 -48 0
v -224 -48 0
v -224 -32 0
v -208 -32 0
v -224 -48 0
v -240 -48 0
v -240 -32 0
v -224 -32 0
v -240 -48 0
v -256 -48 0
v -256 -32 0
v -240 -32 0
v 0 -64 0
v -16 -64 0
v -16 -48 0
v 0 -48 0
v -16 -64 0
v -32 -64 0
v -32 -48 0
v -16 -48 0
v -32 -64 0
v -48 -64 0
v -48 -48 0
v -32 -48 0
v -48 -64 0
v -64 -64 0
v -64 -48 0
v -48 -48 0
v -64 -64 0
v -80 -64 0
v -80 -48 0
v -64 -48 0
v -80 -64 0
v -96 -64 0
v -96 -48 0
v -80 -48 0
v -96 -64 0
v -112 -64 0
v -112 -48 0
v -96 -48 0
v -112 -64 0
v -128 -64 0
v -128 -48 0
v -112 -48 0
v -128 -64 0
v -144 -64 0
v -144 -48 0
v -128 -48 0
v -144 -64 0
v -160 -64 0
v -160 -48 0
v -144 -48 0
v -160 -64 0
v -176 -64 0
v -176 -48 0
v -160 -48 0
v -176 -64 0
v -192 -64 0
v -192 -48 0
v -176 -48 0
v -192 -64 0
v -208 -64 0
v -208 -48 0
v -192 -48 0
v -208 -64 0
v -224 -64 0
v -224 -48 0
v -208 -48 0
v -224 -64 0
v -240 -64 0
v -240 -48 0
v -224 -48 0
v -240 -64 0
v -256 -64 0
v -256 -48 0
v -240 -48 0
v 0 -80 0
v -16 -80 0
v -16 -64 0
v 0 -64 0
v -16 -80 0
v -32 -80 0
v -32 -64 0
v -16 -64 0
v -32 -80 0
v -48 -80 0
v -48 -64 0
v -32 -64 0
v -48 -80 0
v -64 -80 0
v -64 -64 0
v -48 -64 0
v -64 -80 0
v -80 -80 0
v -80 -64 0
v -64 -64 0
v -80 -80 0
v -96 -80 0
v -96 -64 0
v -80 -64 0
v -96 -80 0
v -112 -80 0
v -112 -64 0
v -96 -64 0
v -112 -80 0
v -128 -80 0
v -128 -64 0
v -112 -64 0
v -128 -80 0
v -144 -80 0
v -144 -64 0
v -128 -64 0
v -144 -80 0
v -160 -80 0
v -160 -64 0
v -144 -64 0
v -160 -80 0
v -176 -80 0
v -176 -64 0
v -160 -64 0
v -176 -80 0
v -192 -80 0
v -192 -64 0
v -176 -64 0
v -192 -80 0
v -208 -80 0
v -208 -64 0
v -192 -64 0
v -208 -80 0
v -224 -80 0
v -224 -64 0
v -208 -64 0
v -224 -80 0
v -240 -80 0
v -240 -64 0
v -224 -64 0
v -240 -80 0
v -256 -80 0
v -256 -64 0
v -240 -64 0
v 0 -96 0
v -16 -96 0
v -16 -80 0
v 0 -80 0
v -16 -96 0
v -32 -96 0
v -32 -80 0
v -16 -80 0
v -32 -96 0
v -48 -96 0
v -48 -80 0
v -32 -80 0
v -48 -96 0
v -64 -96 0
v -64 -80 0
v -48 -80 0
v -64 -96 0
v -80 -96 0
v -80 -80 0
v -64 -80 0
v -80 -96 0
v -96 -96 0
v -96 -80 0
v -80 -80 0
v -96 -96 0
v -112 -96 0
v -112 -80 0
v -96 -80 0
v -112 -96 0
v -128 -96 0
v -128 -80 0
v -112 -80 0
v -128 -96 0
v -144 -96 0
v -144 -80 0
v -128 -80 0
v -144 -96 0
v -160 -96 0
v -160 -80 0
v -144 -80 0
v -160 -96 0
v -176 -96 0
v -176 -80 0
v -160 -80 0
v -176 -96 0
v -192 -96 0
v -192 -80 0
v -176 -80 0
v -192 -96 0
v -208 -96 0
v -208 -80 0
v -192 -80 0
v -208 -96 0
v -224 -96 0
v -224 -80 0
v -208 -80 0
v -224 -96 0
v -240 -96 0
v -240 -80 0
v -224 -80 0
v -240 -96 0
v -256 -96 0
v -256 -80 0
v -240 -80 0
v 0 -112 0
v -16 -112 0
v -16 -96 0
v 0 -96 0
v -16 -112 0
v -32 -112 0
v -32 -96 0
v -16 -96 0
v -32 -112 0
v -48 -112 0
v -48 -96 0
v -32 -96 0
v -48 -112 0
v -64 -112 0
v -64 -96 0
v -48 -96 0
v -64 -112 0
v -80 -112 0
v -80 -96 0
v -64 -96 0
v -80 -112 0
v -96 -112 0
v -96 -96 0
v -80 -96 0
v -96 -112 0
v -112 -112 0
v -112 -96 0
v -96 -96 0
v -112 -112 0
v -128 -112 0
v -128 -96 0
v -112 -96 0
v -128 -112 0
v -144 -112 0
v -144 -96 0
v -128 -96 0
v -144 -112 0
v -160 -112 0
v -160 -96 0
v -144 -96 0
v -160 -112 0
v -176 -112 0
v -176 -96 0
v -160 -96 0
v -176 -112 0
v -192 -112 0
v -192 -96 0
v -176 -96 0
v -192 -112 0
v -208 -112 0
v -208 -96 0
v -192 -96 0
v -208 -112 0
v -224 -112 0
v -224 -96 0
v -208 -96 0
v -224 -112 0
v -240 -112 0
v -240 -96 0
v -224 -96 0
v -240 -112 0
v -256 -112 0
v -256 -96 0
v -240 -96 0
v 0 -128 0
v -16 -128 0
v -16 -112 0
v 0 -112 0
v -16 -128 0
v -32 -128 0
v -32 -112 0
v -16 -112 0
v -32 -128 0
v -48 -128 0
v -48 -112 0
v -32 -112 0
v -48 -128 0
v -64 -128 0
v -64 -112 0
v -48 -112 0
v -64 -128 0
v -80 -128 0
v -80 -112 0
v -64 -112 0
v -80 -128 0
v -96 -128 0
v -96 -112 0
v -80 -112 0
v -96 -128 0
v -112 -128 0
v -112 -112 0
v -96 -112 0
v -112 -128 0
v -128 -128 0
v -128 -112 0
v -112 -112 0
v -128 -128 0
v -144 -128 0
v -144 -112 0
v -128 -112 0
v -144 -128 0
v -160 -128 0
v -160 -112 0
v -144 -112 0
v -160 -128 0
v -176 -128 0
v -176 -112 0
v -160 -112 0
v -176 -128 0
v -192 -128 0
v -192 -112 0
v -176 -112 0
v -192 -128 0
v -208 -128 0
v -208 -112 0
v -192 -112 0
v -208 -128 0
v -224 -128 0
v -224 -112 0
v -208 -112 0
v -224 -128 0
v -240 -128 0
v -240 -112 0
v -224 -112 0
v -240 -128 0
v -256 -128 0
v -256 -112 0
v -240 -112 0
v 0 -144 0
v -16 -144 0
v -16 -128 0
v 0 -128 0
v -16 -144 0
v -32 -144 0
v -32 -128 0
v -16 -128 0
v -32 -144 0
v -48 -144 0
v -48 -128 0
v -32 -128 0
v -48 -144 0
v -64 -144 0
v -64 -128 0
v -48 -128 0
v -64 -144 0
v -80 -144 0
v -80 -128 0
v -64 -128 0
v -80 -144 0
v -96 -144 0
v -96 -128 0
v -80 -128 0
v -96 -144 0
v -112 -144 0
v -112 -128 0
v -96 -128 0
v -112 -144 0
v -128 -144 0
v -128 -128 0
v -112 -128 0
v -128 -144 0
v -144 -144 0
v -144 -128 0
v -128 -128 0
v -144 -144 0
v -160 -144 0
v -160 -128 0
v -144 -128 0
v -160 -144 0
v -176 -144 0
v -176 -128 0
v -160 -128 0
v -176 -144 0
v -192 -144 0
v -192 -128 0
v -176 -128 0
v -192 -144 0
v -208 -144 0
v -208 -128 0
v -192 -128 0
v -208 -144 0
v -224 -144 0
v -224 -128 0
v -208 -128 0
v -224 -144 0
v -240 -144 0
v -240 -128 0
v -224 -128 0
v -240 -144 0
v -256 -144 0
v -256 -128 0
v -240 -128 0
v 0 -160 0
v -16 -160 0
v -16 -144 0
v 0 -144 0
v -16 -160 0
v -32 -160 0
v -32 -144 0
v -16 -144 0
v -32 -160 0
v -48 -160 0
v -48 -144 0
v -32 -144 0
v -48 -160 0
v -64 -160 0
v -64 -144 0
v -48 -144 0
v -64 -160 0
v -80 -160 0
v -80 -144 0
v -64 -144 0
v -80 -160 0
v -96 -160 0
v -96 -144 0
v -80 -144 0
v -96 -160 0
v -112 -160 0
v -112 -144 0
v -96 -144 0
v -112 -160 0
v -128 -160 0
v -128 -144 0
v -112 -144 0
v -128 -160 0
v -144 -160 0
v -144 -144 0
v -128 -144 0
v -144 -160 0
v -160 -160 0
v -160 -144 0
v -144 -144 0
v -160 -160 0
v -176 -160 0
v -176 -144 0
v -160 -144 0
v -176 -160 0
v -192 -160 0
v -192 -144 0
v -176 -144 0
v -192 -160 0
v -208 -160 0
v -208 -144 0
v -192 -144 0
v -208 -160 0
v -224 -160 0
v -224 -144 0
v -208 -144 0
v -224 -160 0
v -240 -160 0
v -240 -144 0
v -224 -144 0
v -240 -160 0
v -256 -160 0
v -256 -144 0
v -240 -144 0
v 0 -176 0
v -16 -176 0
v -16 -160 0
v 0 -160 0
v -16 -176 0
v -32 -176 0
v -32 -160 0
v -16 -160 0
v -32 -176 0
v -48 -176 0
v -48 -160 0
v -32 -160 0
v -48 -176 0
v -64 -176 0
v -64 -160 0
v -48 -160 0
v -64 -176 0
v -80 -176 0
v -80 -160 0
v -64 -160 0
v -80 -176 0
v -96 -176 0
v -96 -160 0
v -80 -160 0
v -96 -176 0
v -112 -176 0
v -112 -160 0
v -96 -160 0
v -112 -176 0
v -128 -176 0
v -128 -160 0
v -112 -160 0
v -128 -176 0
v -144 -176 0
v -144 -160 0
v -128 -160 0
v -144 -176 0
v -160 -176 0
v -160 -160 0
v -144 -160 0
v -160 -176 0
v -176 -176 0
v -176 -160 0
v -160 -160 0
v -176 -176 0
v -192 -176 0
v -192 -160 0
v -176 -160 0
v -192 -176 0
v -208 -176 0
v -208 -160 0
v -192 -160 0
v -208 -176 0
v -224 -176 0
v -224 -160 0
v -208 -160 0
v -224 -176 0
v -240 -176 0
v -240 -160 0
v -224 -160 0
v -240 -176 0
v -256 -176 0
v -256 -160 0
v -240 -160 0
v 0 -192 0
v -16 -192 0
v -16 -176 0
v 0 -176 0
v -16 -192 0
v -32 -192 0
v -32 -176 0
v -16 -176 0
v -32 -192 0
v -48 -192 0
v -48 -176 0
v -32 -176 0
v -48 -192 0
v -64 -192 0
v -64 -176 0
v -48 -176 0
v -64 -192 0
v -80 -192 0
v -80 -176 0
v -64 -176 0
v -80 -192 0
v -96 -192 0
v -96 -176 0
v -80 -176 0
v -96 -192 0
v -112 -192 0
v -112 -176 0
v -96 -176 0
v -112 -192 0
v -128 -192 0
v -128 -176 0
v -112 -176 0
v -128 -192 0
v -144 -192 0
v -144 -176 0
v -128 -176 0
v -144 -192 0
v -160 -192 0
v -160 -176 0
v -144 -176 0
v -160 -192 0
v -176 -192 0
v -176 -176 0
v -160 -176 0
v -176 -192 0
v -192 -192 0
v -192 -176 0
v -176 -176 0
v -192 -192 0
v -208 -192 0
v -208 -176 0
v -192 -176 0
v -208 -192 0
v -224 -192 0
v -224 -176 0
v -208 -176 0
v -224 -192 0
v -240 -192 0
v -240 -176 0
v -224 -176 0
v -240 -192 0
v -256 -192 0
v -256 -176 0
v -240 -176 0
v 0 -208 0
v -16 -208 0
v -16 -192 0
v 0 -192 0
v -16 -208 0
v -32 -208 0
v -32 -192 0
v -16 -192 0
v -32 -208 0
v -48 -208 0
v -48 -192 0
v -32 -192 0
v -48 -208 0
v -64 -208 0
v -64 -192 0
v -48 -192 0
v -64 -208 0
v -80 -208 0
v -80 -192 0
v -64 -192 0
v -80 -208 0
v -96 -208 0
v -96 -192 0
v -80 -192 0
v -96 -208 0
v -112 -208 0
v -112 -192 0
v -96 -192 0
v -112 -208 0
v -128 -208 0
v -128 -192 0
v -112 -192 0
v -128 -208 0
v -144 -208 0
v -144 -192 0
v -128 -192 0
v -144 -208 0
v -160 -208 0
v -160 -192 0
v -144 -192 0
v -160 -208 0
v -176 -208 0
v -176 -192 0
v -160 -192 0
v -176 -208 0
v -192 -208 0
v -192 -192 0
v -176 -192 0
v -192 -208 0
v -208 -208 0
v -208 -192 0
v -192 -192 0
v -208 -208 0
v -224 -208 0
v -224 -192 0
v -208 -192 0
v -224 -208 0
v -240 -208 0
v -240 -192 0
v -224 -192 0
v -240 -208 0
v -256 -208 0
v -256 -192 0
v -240 -192 0
v 0 -224 0
v -16 -224 0
v -16 -208 0
v 0 -208 0
v -16 -224 0
v -32 -224 0
v -32 -208 0
v -16 -208 0
v -32 -224 0
v -48 -224 0
v -48 -208 0
v -32 -208 0
v -48 -224 0
v -64 -224 0
v -64 -208 0
v -48 -208 0
v -64 -224 0
v -80 -224 0
v -80 -208 0
v -64 -208 0
v -80 -224 0
v -96 -224 0
v -96 -208 0
v -80 -208 0
v -96 -224 0
v -112 -224 0
v -112 -208 0
v -96 -208 0
v -112 -224 0
v -128 -224 0
v -128 -208 0
v -112 -208 0
v -128 -224 0
v -144 -224 0
v -144 -208 0
v -128 -208 0
v -144 -224 0
v -160 -224 0
v -160 -208 0
v -144 -208 0
v -160 -224 0
v -176 -224 0
v -176 -208 0
v -160 -208 0
v -176 -224 0
v -192 -224 0
v -192 -208 0
v -176 -208 0
v -192 -224 0
v -208 -224 0
v -208 -208 0
v -192 -208 0
v -208 -224 0
v -224 -224 0
v -224 -208 0
v -208 -208 0
v -224 -224 0
v -240 -224 0
v -240 -208 0
v -224 -208 0
v -240 -224 0
v -256 -224 0
v -256 -208 0
v -240 -208 0
v 0 -240 0
v -16 -240 0
v -16 -224 0
v 0 -224 0
v -16 -240 0
v -32 -240 0
v -32 -224 0
v -16 -224 0
v -32 -240 0
v -48 -240 0
v -48 -224 0
v -32 -224 0
v -48 -240 0
v -64 -240 0
v -64 -224 0
v -48 -224 0
v -64 -240 0
v -80 -240 0
v -80 -224 0
v -64 -224 0
v -80 -240 0
v -96 -240 0
v -96 -224 0
v -80 -224 0
v -96 -240 0
v -112 -240 0
v -112 -224 0
v -96 -224 0
v -112 -240 0
v -128 -240 0
v -128 -224 0
v -112 -224 0
v -128 -240 0
v -144 -240 0
v -144 -224 0
v -128 -224 0
v -144 -240 0
v -160 -240 0
v -160 -224 0
v -144 -224 0
v -160 -240 0
v -176 -240 0
v -176 -224 0
v -160 -224 0
v -176 -240 0
v -192 -240 0
v -192 -224 0
v -176 -224 0
v -192 -240 0
v -208 -240 0
v -208 -224 0
v -192 -224 0
v -208 -240 0
v -224 -240 0
v -224 -224 0
v -208 -224 0
v -224 -240 0
v -240 -240 0
v -240 -224 0
v -224 -224 0
v -240 -240 0
v -256 -240 0
v -256 -224 0
v -240 -224 0
v 0 -256 0
v -16 -256 0
v -16 -240 0
v 0 -240 0
v -16 -256 0
v -32 -256 0
v -32 -240 0
v -16 -240 0
v -32 -256 0
v -48 -256 0
v -48 -240 0
v -32 -240 0
v -48 -256 0
v -64 -256 0
v -64 -240 0
v -48 -240 0
v -64 -256 0
v -80 -256 0
v -80 -240 0
v -64 -240 0
v -80 -256 0
v -96 -256 0
v -96 -240 0
v -80 -240 0
v -96 -256 0
v -112 -256 0
v -112 -240 0
v -96 -240 0
v -112 -256 0
v -128 -256 0
v -128 -240 0
v -112 -240 0
v -128 -256 0
v -144 -256 0
v -144 -240 0
v -128 -240 0
v -144 -256 0
v -160 -256 0
v -160 -240 0
v -144 -240 0
v -160 -256 0
v -176 -256 0
v -176 -240 0
v -160 -240 0
v -176 -256 0
v -192 -256 0
v -192 -240 0
v -176 -240 0
v -192 -256 0
v -208 -256 0
v -208 -240 0
v -192 -240 0
v -208 -256 0
v -224 -256 0
v -224 -240 0
v -208 -240 0
v -224 -256 0
v -240 -256 0
v -240 -240 0
v -224 -240 0
v -240 -256 0
v -256 -256 0
v -256 -240 0
v -240 -240 0

# Texture cooridinates (Count = 49)
vt 0.01953125 0.4375
vt 0.0234375 0.4375
vt 0.0234375 0.453125
vt 0.01953125 0.453125
vt 0.0078125 0.421875
vt 0.01171875 0.421875
vt 0.01171875 0.4375
vt 0.0078125 0.4375
vt 0.015625 0.4375
vt 0.015625 0.453125
vt 0.01171875 0.453125
vt 0.02734375 0.4375
vt 0.03125 0.4375
vt 0.03125 0.453125
vt 0.02734375 0.453125
vt 0.0078125 0.46875
vt 0.01171875 0.46875
vt 0.01171875 0.484375
vt 0.0078125 0.484375
vt 0.02734375 0.40625
vt 0.03125 0.40625
vt 0.03125 0.421875
vt 0.02734375 0.421875
vt 0.0234375 0.421875
vt 0.02734375 0.46875
vt 0.03125 0.46875
vt 0.03125 0.484375
vt 0.02734375 0.484375
vt 0.0078125 0.40625
vt 0.01171875 0.40625
vt 0.0078125 0.390625
vt 0.01171875 0.390625
vt 0.0234375 0.40625
vt 0.0234375 0.46875
vt 0.0234375 0.484375
vt 0.02734375 0.390625
vt 0.03125 0.390625
vt 0.015625 0.40625
vt 0.015625 0.421875
vt 0.01953125 0.421875
vt 0.01953125 0.46875
vt 0.01953125 0.484375
vt 0.015625 0.46875
vt 0.01953125 0.390625
vt 0.0234375 0.390625
vt 0.01953125 0.40625
vt 0.0078125 0.453125
vt 0.015625 0.390625
vt 0.015625 0.484375

# Normal
vn 0 0 -1

# Mesh description
g TitleIntro_mesh_0085

# Faces
f 1/1/1 2/2/1 3/3/1 4/4/1
f 5/5/1 6/6/1 7/7/1 8/8/1
f 9/1/1 10/2/1 11/3/1 12/4/1
f 13/7/1 14/9/1 15/10/1 16/11/1
f 17/12/1 18/13/1 19/14/1 20/15/1
f 21/9/1 22/1/1 23/4/1 24/10/1
f 25/16/1 26/17/1 27/18/1 28/19/1
f 29/20/1 30/21/1 31/22/1 32/23/1
f 33/24/1 34/23/1 35/12/1 36/2/1
f 37/25/1 38/26/1 39/27/1 40/28/1
f 41/29/1 42/30/1 43/6/1 44/5/1
f 45/31/1 46/32/1 47/30/1 48/29/1
f 49/33/1 50/20/1 51/23/1 52/24/1
f 53/34/1 54/25/1 55/28/1 56/35/1
f 57/23/1 58/22/1 59/13/1 60/12/1
f 61/29/1 62/30/1 63/6/1 64/5/1
f 65/23/1 66/22/1 67/13/1 68/12/1
f 69/2/1 70/12/1 71/15/1 72/3/1
f 73/36/1 74/37/1 75/21/1 76/20/1
f 77/30/1 78/38/1 79/39/1 80/6/1
f 81/16/1 82/17/1 83/18/1 84/19/1
f 85/40/1 86/24/1 87/2/1 88/1/1
f 89/25/1 90/26/1 91/27/1 92/28/1
f 93/7/1 94/9/1 95/10/1 96/11/1
f 97/6/1 98/39/1 99/9/1 100/7/1
f 101/31/1 102/32/1 103/30/1 104/29/1
f 105/41/1 106/34/1 107/35/1 108/42/1
f 109/29/1 110/30/1 111/6/1 112/5/1
f 113/30/1 114/38/1 115/39/1 116/6/1
f 117/9/1 118/1/1 119/4/1 120/10/1
f 121/11/1 122/10/1 123/43/1 124/17/1
f 125/34/1 126/25/1 127/28/1 128/35/1
f 129/4/1 130/3/1 131/34/1 132/41/1
f 133/12/1 134/13/1 135/14/1 136/15/1
f 137/20/1 138/21/1 139/22/1 140/23/1
f 141/44/1 142/45/1 143/33/1 144/46/1
f 145/33/1 146/20/1 147/23/1 148/24/1
f 149/46/1 150/33/1 151/24/1 152/40/1
f 153/11/1 154/10/1 155/43/1 156/17/1
f 157/31/1 158/32/1 159/30/1 160/29/1
f 161/36/1 162/37/1 163/21/1 164/20/1
f 165/47/1 166/11/1 167/17/1 168/16/1
f 169/34/1 170/25/1 171/28/1 172/35/1
f 173/47/1 174/11/1 175/17/1 176/16/1
f 177/40/1 178/24/1 179/2/1 180/1/1
f 181/8/1 182/7/1 183/11/1 184/47/1
f 185/1/1 186/2/1 187/3/1 188/4/1
f 189/8/1 190/7/1 191/11/1 192/47/1
f 193/47/1 194/11/1 195/17/1 196/16/1
f 197/6/1 198/39/1 199/9/1 200/7/1
f 201/36/1 202/37/1 203/21/1 204/20/1
f 205/46/1 206/33/1 207/24/1 208/40/1
f 209/5/1 210/6/1 211/7/1 212/8/1
f 213/1/1 214/2/1 215/3/1 216/4/1
f 217/32/1 218/48/1 219/38/1 220/30/1
f 221/5/1 222/6/1 223/7/1 224/8/1
f 225/5/1 226/6/1 227/7/1 228/8/1
f 229/44/1 230/45/1 231/33/1 232/46/1
f 233/5/1 234/6/1 235/7/1 236/8/1
f 237/44/1 238/45/1 239/33/1 240/46/1
f 241/40/1 242/24/1 243/2/1 244/1/1
f 245/3/1 246/15/1 247/25/1 248/34/1
f 249/25/1 250/26/1 251/27/1 252/28/1
f 253/15/1 254/14/1 255/26/1 256/25/1
f 257/7/1 258/9/1 259/10/1 260/11/1
f 261/48/1 262/44/1 263/46/1 264/38/1
f 265/38/1 266/46/1 267/40/1 268/39/1
f 269/5/1 270/6/1 271/7/1 272/8/1
f 273/11/1 274/10/1 275/43/1 276/17/1
f 277/45/1 278/36/1 279/20/1 280/33/1
f 281/48/1 282/44/1 283/46/1 284/38/1
f 285/20/1 286/21/1 287/22/1 288/23/1
f 289/24/1 290/23/1 291/12/1 292/2/1
f 293/11/1 294/10/1 295/43/1 296/17/1
f 297/36/1 298/37/1 299/21/1 300/20/1
f 301/23/1 302/22/1 303/13/1 304/12/1
f 305/34/1 306/25/1 307/28/1 308/35/1
f 309/7/1 310/9/1 311/10/1 312/11/1
f 313/2/1 314/12/1 315/15/1 316/3/1
f 317/5/1 318/6/1 319/7/1 320/8/1
f 321/39/1 322/40/1 323/1/1 324/9/1
f 325/40/1 326/24/1 327/2/1 328/1/1
f 329/39/1 330/40/1 331/1/1 332/9/1
f 333/1/1 334/2/1 335/3/1 336/4/1
f 337/30/1 338/38/1 339/39/1 340/6/1
f 341/38/1 342/46/1 343/40/1 344/39/1
f 345/38/1 346/46/1 347/40/1 348/39/1
f 349/39/1 350/40/1 351/1/1 352/9/1
f 353/39/1 354/40/1 355/1/1 356/9/1
f 357/8/1 358/7/1 359/11/1 360/47/1
f 361/41/1 362/34/1 363/35/1 364/42/1
f 365/16/1 366/17/1 367/18/1 368/19/1
f 369/24/1 370/23/1 371/12/1 372/2/1
f 373/5/1 374/6/1 375/7/1 376/8/1
f 377/1/1 378/2/1 379/3/1 380/4/1
f 381/10/1 382/4/1 383/41/1 384/43/1
f 385/33/1 386/20/1 387/23/1 388/24/1
f 389/2/1 390/12/1 391/15/1 392/3/1
f 393/39/1 394/40/1 395/1/1 396/9/1
f 397/2/1 398/12/1 399/15/1 400/3/1
f 401/25/1 402/26/1 403/27/1 404/28/1
f 405/38/1 406/46/1 407/40/1 408/39/1
f 409/36/1 410/37/1 411/21/1 412/20/1
f 413/39/1 414/40/1 415/1/1 416/9/1
f 417/20/1 418/21/1 419/22/1 420/23/1
f 421/1/1 422/2/1 423/3/1 424/4/1
f 425/29/1 426/30/1 427/6/1 428/5/1
f 429/39/1 430/40/1 431/1/1 432/9/1
f 433/12/1 434/13/1 435/14/1 436/15/1
f 437/29/1 438/30/1 439/6/1 440/5/1
f 441/47/1 442/11/1 443/17/1 444/16/1
f 445/10/1 446/4/1 447/41/1 448/43/1
f 449/39/1 450/40/1 451/1/1 452/9/1
f 453/2/1 454/12/1 455/15/1 456/3/1
f 457/33/1 458/20/1 459/23/1 460/24/1
f 461/8/1 462/7/1 463/11/1 464/47/1
f 465/32/1 466/48/1 467/38/1 468/30/1
f 469/44/1 470/45/1 471/33/1 472/46/1
f 473/17/1 474/43/1 475/49/1 476/18/1
f 477/2/1 478/12/1 479/15/1 480/3/1
f 481/6/1 482/39/1 483/9/1 484/7/1
f 485/44/1 486/45/1 487/33/1 488/46/1
f 489/47/1 490/11/1 491/17/1 492/16/1
f 493/2/1 494/12/1 495/15/1 496/3/1
f 497/5/1 498/6/1 499/7/1 500/8/1
f 501/45/1 502/36/1 503/20/1 504/33/1
f 505/6/1 506/39/1 507/9/1 508/7/1
f 509/36/1 510/37/1 511/21/1 512/20/1
f 513/41/1 514/34/1 515/35/1 516/42/1
f 517/30/1 518/38/1 519/39/1 520/6/1
f 521/24/1 522/23/1 523/12/1 524/2/1
f 525/41/1 526/34/1 527/35/1 528/42/1
f 529/4/1 530/3/1 531/34/1 532/41/1
f 533/41/1 534/34/1 535/35/1 536/42/1
f 537/34/1 538/25/1 539/28/1 540/35/1
f 541/24/1 542/23/1 543/12/1 544/2/1
f 545/44/1 546/45/1 547/33/1 548/46/1
f 549/36/1 550/37/1 551/21/1 552/20/1
f 553/31/1 554/32/1 555/30/1 556/29/1
f 557/36/1 558/37/1 559/21/1 560/20/1
f 561/43/1 562/41/1 563/42/1 564/49/1
f 565/43/1 566/41/1 567/42/1 568/49/1
f 569/12/1 570/13/1 571/14/1 572/15/1
f 573/39/1 574/40/1 575/1/1 576/9/1
f 577/24/1 578/23/1 579/12/1 580/2/1
f 581/45/1 582/36/1 583/20/1 584/33/1
f 585/34/1 586/25/1 587/28/1 588/35/1
f 589/11/1 590/10/1 591/43/1 592/17/1
f 593/16/1 594/17/1 595/18/1 596/19/1
f 597/34/1 598/25/1 599/28/1 600/35/1
f 601/3/1 602/15/1 603/25/1 604/34/1
f 605/25/1 606/26/1 607/27/1 608/28/1
f 609/10/1 610/4/1 611/41/1 612/43/1
f 613/7/1 614/9/1 615/10/1 616/11/1
f 617/29/1 618/30/1 619/6/1 620/5/1
f 621/23/1 622/22/1 623/13/1 624/12/1
f 625/34/1 626/25/1 627/28/1 628/35/1
f 629/11/1 630/10/1 631/43/1 632/17/1
f 633/39/1 634/40/1 635/1/1 636/9/1
f 637/44/1 638/45/1 639/33/1 640/46/1
f 641/40/1 642/24/1 643/2/1 644/1/1
f 645/38/1 646/46/1 647/40/1 648/39/1
f 649/40/1 650/24/1 651/2/1 652/1/1
f 653/44/1 654/45/1 655/33/1 656/46/1
f 657/11/1 658/10/1 659/43/1 660/17/1
f 661/24/1 662/23/1 663/12/1 664/2/1
f 665/43/1 666/41/1 667/42/1 668/49/1
f 669/40/1 670/24/1 671/2/1 672/1/1
f 673/12/1 674/13/1 675/14/1 676/15/1
f 677/20/1 678/21/1 679/22/1 680/23/1
f 681/44/1 682/45/1 683/33/1 684/46/1
f 685/10/1 686/4/1 687/41/1 688/43/1
f 689/38/1 690/46/1 691/40/1 692/39/1
f 693/47/1 694/11/1 695/17/1 696/16/1
f 697/3/1 698/15/1 699/25/1 700/34/1
f 701/39/1 702/40/1 703/1/1 704/9/1
f 705/11/1 706/10/1 707/43/1 708/17/1
f 709/45/1 710/36/1 711/20/1 712/33/1
f 713/24/1 714/23/1 715/12/1 716/2/1
f 717/15/1 718/14/1 719/26/1 720/25/1
f 721/44/1 722/45/1 723/33/1 724/46/1
f 725/24/1 726/23/1 727/12/1 728/2/1
f 729/20/1 730/21/1 731/22/1 732/23/1
f 733/12/1 734/13/1 735/14/1 736/15/1
f 737/40/1 738/24/1 739/2/1 740/1/1
f 741/36/1 742/37/1 743/21/1 744/20/1
f 745/17/1 746/43/1 747/49/1 748/18/1
f 749/16/1 750/17/1 751/18/1 752/19/1
f 753/15/1 754/14/1 755/26/1 756/25/1
f 757/34/1 758/25/1 759/28/1 760/35/1
f 761/16/1 762/17/1 763/18/1 764/19/1
f 765/2/1 766/12/1 767/15/1 768/3/1
f 769/9/1 770/1/1 771/4/1 772/10/1
f 773/15/1 774/14/1 775/26/1 776/25/1
f 777/10/1 778/4/1 779/41/1 780/43/1
f 781/10/1 782/4/1 783/41/1 784/43/1
f 785/12/1 786/13/1 787/14/1 788/15/1
f 789/45/1 790/36/1 791/20/1 792/33/1
f 793/43/1 794/41/1 795/42/1 796/49/1
f 797/11/1 798/10/1 799/43/1 800/17/1
f 801/31/1 802/32/1 803/30/1 804/29/1
f 805/43/1 806/41/1 807/42/1 808/49/1
f 809/2/1 810/12/1 811/15/1 812/3/1
f 813/41/1 814/34/1 815/35/1 816/42/1
f 817/30/1 818/38/1 819/39/1 820/6/1
f 821/12/1 822/13/1 823/14/1 824/15/1
f 825/30/1 826/38/1 827/39/1 828/6/1
f 829/20/1 830/21/1 831/22/1 832/23/1
f 833/36/1 834/37/1 835/21/1 836/20/1
f 837/33/1 838/20/1 839/23/1 840/24/1
f 841/11/1 842/10/1 843/43/1 844/17/1
f 845/12/1 846/13/1 847/14/1 848/15/1
f 849/48/1 850/44/1 851/46/1 852/38/1
f 853/36/1 854/37/1 855/21/1 856/20/1
f 857/1/1 858/2/1 859/3/1 860/4/1
f 861/30/1 862/38/1 863/39/1 864/6/1
f 865/36/1 866/37/1 867/21/1 868/20/1
f 869/7/1 870/9/1 871/10/1 872/11/1
f 873/4/1 874/3/1 875/34/1 876/41/1
f 877/4/1 878/3/1 879/34/1 880/41/1
f 881/2/1 882/12/1 883/15/1 884/3/1
f 885/5/1 886/6/1 887/7/1 888/8/1
f 889/41/1 890/34/1 891/35/1 892/42/1
f 893/31/1 894/32/1 895/30/1 896/29/1
f 897/16/1 898/17/1 899/18/1 900/19/1
f 901/7/1 902/9/1 903/10/1 904/11/1
f 905/16/1 906/17/1 907/18/1 908/19/1
f 909/47/1 910/11/1 911/17/1 912/16/1
f 913/47/1 914/11/1 915/17/1 916/16/1
f 917/25/1 918/26/1 919/27/1 920/28/1
f 921/41/1 922/34/1 923/35/1 924/42/1
f 925/5/1 926/6/1 927/7/1 928/8/1
f 929/4/1 930/3/1 931/34/1 932/41/1
f 933/24/1 934/23/1 935/12/1 936/2/1
f 937/43/1 938/41/1 939/42/1 940/49/1
f 941/4/1 942/3/1 943/34/1 944/41/1
f 945/47/1 946/11/1 947/17/1 948/16/1
f 949/29/1 950/30/1 951/6/1 952/5/1
f 953/29/1 954/30/1 955/6/1 956/5/1
f 957/44/1 958/45/1 959/33/1 960/46/1
f 961/32/1 962/48/1 963/38/1 964/30/1
f 965/31/1 966/32/1 967/30/1 968/29/1
f 969/34/1 970/25/1 971/28/1 972/35/1
f 973/39/1 974/40/1 975/1/1 976/9/1
f 977/32/1 978/48/1 979/38/1 980/30/1
f 981/43/1 982/41/1 983/42/1 984/49/1
f 985/47/1 986/11/1 987/17/1 988/16/1
f 989/5/1 990/6/1 991/7/1 992/8/1
f 993/47/1 994/11/1 995/17/1 996/16/1
f 997/45/1 998/36/1 999/20/1 1000/33/1
f 1001/23/1 1002/22/1 1003/13/1 1004/12/1
f 1005/32/1 1006/48/1 1007/38/1 1008/30/1
f 1009/31/1 1010/32/1 1011/30/1 1012/29/1
f 1013/33/1 1014/20/1 1015/23/1 1016/24/1
f 1017/2/1 1018/12/1 1019/15/1 1020/3/1
f 1021/32/1 1022/48/1 1023/38/1 1024/30/1

