# Tiled2Unity generated file. Do not modify by hand.
# Wavefront file for 'TitleIntro_mesh_0004.obj'

# Vertices (Count = 832)
v 0 -64 0
v -16 -64 0
v -16 -48 0
v 0 -48 0
v -16 -64 0
v -32 -64 0
v -32 -48 0
v -16 -48 0
v -32 -64 0
v -48 -64 0
v -48 -48 0
v -32 -48 0
v -48 -64 0
v -64 -64 0
v -64 -48 0
v -48 -48 0
v -64 -64 0
v -80 -64 0
v -80 -48 0
v -64 -48 0
v -80 -64 0
v -96 -64 0
v -96 -48 0
v -80 -48 0
v -96 -64 0
v -112 -64 0
v -112 -48 0
v -96 -48 0
v -112 -64 0
v -128 -64 0
v -128 -48 0
v -112 -48 0
v -128 -64 0
v -144 -64 0
v -144 -48 0
v -128 -48 0
v -144 -64 0
v -160 -64 0
v -160 -48 0
v -144 -48 0
v -160 -64 0
v -176 -64 0
v -176 -48 0
v -160 -48 0
v -176 -64 0
v -192 -64 0
v -192 -48 0
v -176 -48 0
v -192 -64 0
v -208 -64 0
v -208 -48 0
v -192 -48 0
v -208 -64 0
v -224 -64 0
v -224 -48 0
v -208 -48 0
v -224 -64 0
v -240 -64 0
v -240 -48 0
v -224 -48 0
v -240 -64 0
v -256 -64 0
v -256 -48 0
v -240 -48 0
v 0 -80 0
v -16 -80 0
v -16 -64 0
v 0 -64 0
v -16 -80 0
v -32 -80 0
v -32 -64 0
v -16 -64 0
v -32 -80 0
v -48 -80 0
v -48 -64 0
v -32 -64 0
v -48 -80 0
v -64 -80 0
v -64 -64 0
v -48 -64 0
v -64 -80 0
v -80 -80 0
v -80 -64 0
v -64 -64 0
v -80 -80 0
v -96 -80 0
v -96 -64 0
v -80 -64 0
v -96 -80 0
v -112 -80 0
v -112 -64 0
v -96 -64 0
v -112 -80 0
v -128 -80 0
v -128 -64 0
v -112 -64 0
v -128 -80 0
v -144 -80 0
v -144 -64 0
v -128 -64 0
v -144 -80 0
v -160 -80 0
v -160 -64 0
v -144 -64 0
v -160 -80 0
v -176 -80 0
v -176 -64 0
v -160 -64 0
v -176 -80 0
v -192 -80 0
v -192 -64 0
v -176 -64 0
v -192 -80 0
v -208 -80 0
v -208 -64 0
v -192 -64 0
v -208 -80 0
v -224 -80 0
v -224 -64 0
v -208 -64 0
v -224 -80 0
v -240 -80 0
v -240 -64 0
v -224 -64 0
v -240 -80 0
v -256 -80 0
v -256 -64 0
v -240 -64 0
v 0 -96 0
v -16 -96 0
v -16 -80 0
v 0 -80 0
v -16 -96 0
v -32 -96 0
v -32 -80 0
v -16 -80 0
v -32 -96 0
v -48 -96 0
v -48 -80 0
v -32 -80 0
v -48 -96 0
v -64 -96 0
v -64 -80 0
v -48 -80 0
v -64 -96 0
v -80 -96 0
v -80 -80 0
v -64 -80 0
v -80 -96 0
v -96 -96 0
v -96 -80 0
v -80 -80 0
v -96 -96 0
v -112 -96 0
v -112 -80 0
v -96 -80 0
v -112 -96 0
v -128 -96 0
v -128 -80 0
v -112 -80 0
v -128 -96 0
v -144 -96 0
v -144 -80 0
v -128 -80 0
v -144 -96 0
v -160 -96 0
v -160 -80 0
v -144 -80 0
v -160 -96 0
v -176 -96 0
v -176 -80 0
v -160 -80 0
v -176 -96 0
v -192 -96 0
v -192 -80 0
v -176 -80 0
v -192 -96 0
v -208 -96 0
v -208 -80 0
v -192 -80 0
v -208 -96 0
v -224 -96 0
v -224 -80 0
v -208 -80 0
v -224 -96 0
v -240 -96 0
v -240 -80 0
v -224 -80 0
v -240 -96 0
v -256 -96 0
v -256 -80 0
v -240 -80 0
v 0 -112 0
v -16 -112 0
v -16 -96 0
v 0 -96 0
v -16 -112 0
v -32 -112 0
v -32 -96 0
v -16 -96 0
v -32 -112 0
v -48 -112 0
v -48 -96 0
v -32 -96 0
v -48 -112 0
v -64 -112 0
v -64 -96 0
v -48 -96 0
v -64 -112 0
v -80 -112 0
v -80 -96 0
v -64 -96 0
v -80 -112 0
v -96 -112 0
v -96 -96 0
v -80 -96 0
v -96 -112 0
v -112 -112 0
v -112 -96 0
v -96 -96 0
v -112 -112 0
v -128 -112 0
v -128 -96 0
v -112 -96 0
v -128 -112 0
v -144 -112 0
v -144 -96 0
v -128 -96 0
v -144 -112 0
v -160 -112 0
v -160 -96 0
v -144 -96 0
v -160 -112 0
v -176 -112 0
v -176 -96 0
v -160 -96 0
v -176 -112 0
v -192 -112 0
v -192 -96 0
v -176 -96 0
v -192 -112 0
v -208 -112 0
v -208 -96 0
v -192 -96 0
v -208 -112 0
v -224 -112 0
v -224 -96 0
v -208 -96 0
v -224 -112 0
v -240 -112 0
v -240 -96 0
v -224 -96 0
v -240 -112 0
v -256 -112 0
v -256 -96 0
v -240 -96 0
v 0 -128 0
v -16 -128 0
v -16 -112 0
v 0 -112 0
v -16 -128 0
v -32 -128 0
v -32 -112 0
v -16 -112 0
v -32 -128 0
v -48 -128 0
v -48 -112 0
v -32 -112 0
v -48 -128 0
v -64 -128 0
v -64 -112 0
v -48 -112 0
v -64 -128 0
v -80 -128 0
v -80 -112 0
v -64 -112 0
v -80 -128 0
v -96 -128 0
v -96 -112 0
v -80 -112 0
v -96 -128 0
v -112 -128 0
v -112 -112 0
v -96 -112 0
v -112 -128 0
v -128 -128 0
v -128 -112 0
v -112 -112 0
v -128 -128 0
v -144 -128 0
v -144 -112 0
v -128 -112 0
v -144 -128 0
v -160 -128 0
v -160 -112 0
v -144 -112 0
v -160 -128 0
v -176 -128 0
v -176 -112 0
v -160 -112 0
v -176 -128 0
v -192 -128 0
v -192 -112 0
v -176 -112 0
v -192 -128 0
v -208 -128 0
v -208 -112 0
v -192 -112 0
v -208 -128 0
v -224 -128 0
v -224 -112 0
v -208 -112 0
v -224 -128 0
v -240 -128 0
v -240 -112 0
v -224 -112 0
v -240 -128 0
v -256 -128 0
v -256 -112 0
v -240 -112 0
v 0 -144 0
v -16 -144 0
v -16 -128 0
v 0 -128 0
v -16 -144 0
v -32 -144 0
v -32 -128 0
v -16 -128 0
v -32 -144 0
v -48 -144 0
v -48 -128 0
v -32 -128 0
v -48 -144 0
v -64 -144 0
v -64 -128 0
v -48 -128 0
v -64 -144 0
v -80 -144 0
v -80 -128 0
v -64 -128 0
v -80 -144 0
v -96 -144 0
v -96 -128 0
v -80 -128 0
v -96 -144 0
v -112 -144 0
v -112 -128 0
v -96 -128 0
v -112 -144 0
v -128 -144 0
v -128 -128 0
v -112 -128 0
v -128 -144 0
v -144 -144 0
v -144 -128 0
v -128 -128 0
v -144 -144 0
v -160 -144 0
v -160 -128 0
v -144 -128 0
v -160 -144 0
v -176 -144 0
v -176 -128 0
v -160 -128 0
v -176 -144 0
v -192 -144 0
v -192 -128 0
v -176 -128 0
v -192 -144 0
v -208 -144 0
v -208 -128 0
v -192 -128 0
v -208 -144 0
v -224 -144 0
v -224 -128 0
v -208 -128 0
v -224 -144 0
v -240 -144 0
v -240 -128 0
v -224 -128 0
v -240 -144 0
v -256 -144 0
v -256 -128 0
v -240 -128 0
v 0 -160 0
v -16 -160 0
v -16 -144 0
v 0 -144 0
v -16 -160 0
v -32 -160 0
v -32 -144 0
v -16 -144 0
v -32 -160 0
v -48 -160 0
v -48 -144 0
v -32 -144 0
v -48 -160 0
v -64 -160 0
v -64 -144 0
v -48 -144 0
v -64 -160 0
v -80 -160 0
v -80 -144 0
v -64 -144 0
v -80 -160 0
v -96 -160 0
v -96 -144 0
v -80 -144 0
v -96 -160 0
v -112 -160 0
v -112 -144 0
v -96 -144 0
v -112 -160 0
v -128 -160 0
v -128 -144 0
v -112 -144 0
v -128 -160 0
v -144 -160 0
v -144 -144 0
v -128 -144 0
v -144 -160 0
v -160 -160 0
v -160 -144 0
v -144 -144 0
v -160 -160 0
v -176 -160 0
v -176 -144 0
v -160 -144 0
v -176 -160 0
v -192 -160 0
v -192 -144 0
v -176 -144 0
v -192 -160 0
v -208 -160 0
v -208 -144 0
v -192 -144 0
v -208 -160 0
v -224 -160 0
v -224 -144 0
v -208 -144 0
v -224 -160 0
v -240 -160 0
v -240 -144 0
v -224 -144 0
v -240 -160 0
v -256 -160 0
v -256 -144 0
v -240 -144 0
v 0 -176 0
v -16 -176 0
v -16 -160 0
v 0 -160 0
v -16 -176 0
v -32 -176 0
v -32 -160 0
v -16 -160 0
v -32 -176 0
v -48 -176 0
v -48 -160 0
v -32 -160 0
v -48 -176 0
v -64 -176 0
v -64 -160 0
v -48 -160 0
v -64 -176 0
v -80 -176 0
v -80 -160 0
v -64 -160 0
v -80 -176 0
v -96 -176 0
v -96 -160 0
v -80 -160 0
v -96 -176 0
v -112 -176 0
v -112 -160 0
v -96 -160 0
v -112 -176 0
v -128 -176 0
v -128 -160 0
v -112 -160 0
v -128 -176 0
v -144 -176 0
v -144 -160 0
v -128 -160 0
v -144 -176 0
v -160 -176 0
v -160 -160 0
v -144 -160 0
v -160 -176 0
v -176 -176 0
v -176 -160 0
v -160 -160 0
v -176 -176 0
v -192 -176 0
v -192 -160 0
v -176 -160 0
v -192 -176 0
v -208 -176 0
v -208 -160 0
v -192 -160 0
v -208 -176 0
v -224 -176 0
v -224 -160 0
v -208 -160 0
v -224 -176 0
v -240 -176 0
v -240 -160 0
v -224 -160 0
v -240 -176 0
v -256 -176 0
v -256 -160 0
v -240 -160 0
v 0 -192 0
v -16 -192 0
v -16 -176 0
v 0 -176 0
v -16 -192 0
v -32 -192 0
v -32 -176 0
v -16 -176 0
v -32 -192 0
v -48 -192 0
v -48 -176 0
v -32 -176 0
v -48 -192 0
v -64 -192 0
v -64 -176 0
v -48 -176 0
v -64 -192 0
v -80 -192 0
v -80 -176 0
v -64 -176 0
v -80 -192 0
v -96 -192 0
v -96 -176 0
v -80 -176 0
v -96 -192 0
v -112 -192 0
v -112 -176 0
v -96 -176 0
v -112 -192 0
v -128 -192 0
v -128 -176 0
v -112 -176 0
v -128 -192 0
v -144 -192 0
v -144 -176 0
v -128 -176 0
v -144 -192 0
v -160 -192 0
v -160 -176 0
v -144 -176 0
v -160 -192 0
v -176 -192 0
v -176 -176 0
v -160 -176 0
v -176 -192 0
v -192 -192 0
v -192 -176 0
v -176 -176 0
v -192 -192 0
v -208 -192 0
v -208 -176 0
v -192 -176 0
v -208 -192 0
v -224 -192 0
v -224 -176 0
v -208 -176 0
v -224 -192 0
v -240 -192 0
v -240 -176 0
v -224 -176 0
v -240 -192 0
v -256 -192 0
v -256 -176 0
v -240 -176 0
v 0 -208 0
v -16 -208 0
v -16 -192 0
v 0 -192 0
v -16 -208 0
v -32 -208 0
v -32 -192 0
v -16 -192 0
v -32 -208 0
v -48 -208 0
v -48 -192 0
v -32 -192 0
v -48 -208 0
v -64 -208 0
v -64 -192 0
v -48 -192 0
v -64 -208 0
v -80 -208 0
v -80 -192 0
v -64 -192 0
v -80 -208 0
v -96 -208 0
v -96 -192 0
v -80 -192 0
v -96 -208 0
v -112 -208 0
v -112 -192 0
v -96 -192 0
v -112 -208 0
v -128 -208 0
v -128 -192 0
v -112 -192 0
v -128 -208 0
v -144 -208 0
v -144 -192 0
v -128 -192 0
v -144 -208 0
v -160 -208 0
v -160 -192 0
v -144 -192 0
v -160 -208 0
v -176 -208 0
v -176 -192 0
v -160 -192 0
v -176 -208 0
v -192 -208 0
v -192 -192 0
v -176 -192 0
v -192 -208 0
v -208 -208 0
v -208 -192 0
v -192 -192 0
v -208 -208 0
v -224 -208 0
v -224 -192 0
v -208 -192 0
v -224 -208 0
v -240 -208 0
v -240 -192 0
v -224 -192 0
v -240 -208 0
v -256 -208 0
v -256 -192 0
v -240 -192 0
v 0 -224 0
v -16 -224 0
v -16 -208 0
v 0 -208 0
v -16 -224 0
v -32 -224 0
v -32 -208 0
v -16 -208 0
v -32 -224 0
v -48 -224 0
v -48 -208 0
v -32 -208 0
v -48 -224 0
v -64 -224 0
v -64 -208 0
v -48 -208 0
v -64 -224 0
v -80 -224 0
v -80 -208 0
v -64 -208 0
v -80 -224 0
v -96 -224 0
v -96 -208 0
v -80 -208 0
v -96 -224 0
v -112 -224 0
v -112 -208 0
v -96 -208 0
v -112 -224 0
v -128 -224 0
v -128 -208 0
v -112 -208 0
v -128 -224 0
v -144 -224 0
v -144 -208 0
v -128 -208 0
v -144 -224 0
v -160 -224 0
v -160 -208 0
v -144 -208 0
v -160 -224 0
v -176 -224 0
v -176 -208 0
v -160 -208 0
v -176 -224 0
v -192 -224 0
v -192 -208 0
v -176 -208 0
v -192 -224 0
v -208 -224 0
v -208 -208 0
v -192 -208 0
v -208 -224 0
v -224 -224 0
v -224 -208 0
v -208 -208 0
v -224 -224 0
v -240 -224 0
v -240 -208 0
v -224 -208 0
v -240 -224 0
v -256 -224 0
v -256 -208 0
v -240 -208 0
v 0 -240 0
v -16 -240 0
v -16 -224 0
v 0 -224 0
v -16 -240 0
v -32 -240 0
v -32 -224 0
v -16 -224 0
v -32 -240 0
v -48 -240 0
v -48 -224 0
v -32 -224 0
v -48 -240 0
v -64 -240 0
v -64 -224 0
v -48 -224 0
v -64 -240 0
v -80 -240 0
v -80 -224 0
v -64 -224 0
v -80 -240 0
v -96 -240 0
v -96 -224 0
v -80 -224 0
v -96 -240 0
v -112 -240 0
v -112 -224 0
v -96 -224 0
v -112 -240 0
v -128 -240 0
v -128 -224 0
v -112 -224 0
v -128 -240 0
v -144 -240 0
v -144 -224 0
v -128 -224 0
v -144 -240 0
v -160 -240 0
v -160 -224 0
v -144 -224 0
v -160 -240 0
v -176 -240 0
v -176 -224 0
v -160 -224 0
v -176 -240 0
v -192 -240 0
v -192 -224 0
v -176 -224 0
v -192 -240 0
v -208 -240 0
v -208 -224 0
v -192 -224 0
v -208 -240 0
v -224 -240 0
v -224 -224 0
v -208 -224 0
v -224 -240 0
v -240 -240 0
v -240 -224 0
v -224 -224 0
v -240 -240 0
v -256 -240 0
v -256 -224 0
v -240 -224 0
v 0 -256 0
v -16 -256 0
v -16 -240 0
v 0 -240 0
v -16 -256 0
v -32 -256 0
v -32 -240 0
v -16 -240 0
v -32 -256 0
v -48 -256 0
v -48 -240 0
v -32 -240 0
v -48 -256 0
v -64 -256 0
v -64 -240 0
v -48 -240 0
v -64 -256 0
v -80 -256 0
v -80 -240 0
v -64 -240 0
v -80 -256 0
v -96 -256 0
v -96 -240 0
v -80 -240 0
v -96 -256 0
v -112 -256 0
v -112 -240 0
v -96 -240 0
v -112 -256 0
v -128 -256 0
v -128 -240 0
v -112 -240 0
v -128 -256 0
v -144 -256 0
v -144 -240 0
v -128 -240 0
v -144 -256 0
v -160 -256 0
v -160 -240 0
v -144 -240 0
v -160 -256 0
v -176 -256 0
v -176 -240 0
v -160 -240 0
v -176 -256 0
v -192 -256 0
v -192 -240 0
v -176 -240 0
v -192 -256 0
v -208 -256 0
v -208 -240 0
v -192 -240 0
v -208 -256 0
v -224 -256 0
v -224 -240 0
v -208 -240 0
v -224 -256 0
v -240 -256 0
v -240 -240 0
v -224 -240 0
v -240 -256 0
v -256 -256 0
v -256 -240 0
v -240 -240 0

# Texture cooridinates (Count = 49)
vt 0.0234375 0.4375
vt 0.02734375 0.4375
vt 0.02734375 0.453125
vt 0.0234375 0.453125
vt 0.015625 0.40625
vt 0.01953125 0.40625
vt 0.01953125 0.421875
vt 0.015625 0.421875
vt 0.01953125 0.390625
vt 0.0234375 0.390625
vt 0.0234375 0.40625
vt 0.0078125 0.40625
vt 0.01171875 0.40625
vt 0.01171875 0.421875
vt 0.0078125 0.421875
vt 0.01953125 0.46875
vt 0.0234375 0.46875
vt 0.0234375 0.484375
vt 0.01953125 0.484375
vt 0.02734375 0.46875
vt 0.03125 0.46875
vt 0.03125 0.484375
vt 0.02734375 0.484375
vt 0.015625 0.4375
vt 0.01171875 0.4375
vt 0.0078125 0.390625
vt 0.01171875 0.390625
vt 0.01953125 0.4375
vt 0.01953125 0.453125
vt 0.02734375 0.390625
vt 0.03125 0.390625
vt 0.03125 0.40625
vt 0.02734375 0.40625
vt 0.03125 0.4375
vt 0.03125 0.453125
vt 0.02734375 0.421875
vt 0.0234375 0.421875
vt 0.015625 0.46875
vt 0.015625 0.484375
vt 0.015625 0.453125
vt 0.01171875 0.453125
vt 0.0078125 0.4375
vt 0.0078125 0.453125
vt 0.015625 0.390625
vt 0.01171875 0.46875
vt 0.0078125 0.46875
vt 0.01171875 0.484375
vt 0.0078125 0.484375
vt 0.03125 0.421875

# Normal
vn 0 0 -1

# Mesh description
g TitleIntro_mesh_0004

# Faces
f 1/1/1 2/2/1 3/3/1 4/4/1
f 5/5/1 6/6/1 7/7/1 8/8/1
f 9/9/1 10/10/1 11/11/1 12/6/1
f 13/12/1 14/13/1 15/14/1 16/15/1
f 17/16/1 18/17/1 19/18/1 20/19/1
f 21/20/1 22/21/1 23/22/1 24/23/1
f 25/14/1 26/8/1 27/24/1 28/25/1
f 29/26/1 30/27/1 31/13/1 32/12/1
f 33/28/1 34/1/1 35/4/1 36/29/1
f 37/30/1 38/31/1 39/32/1 40/33/1
f 41/2/1 42/34/1 43/35/1 44/3/1
f 45/17/1 46/20/1 47/23/1 48/18/1
f 49/11/1 50/33/1 51/36/1 52/37/1
f 53/38/1 54/16/1 55/19/1 56/39/1
f 57/8/1 58/7/1 59/28/1 60/24/1
f 61/14/1 62/8/1 63/24/1 64/25/1
f 65/25/1 66/24/1 67/40/1 68/41/1
f 69/17/1 70/20/1 71/23/1 72/18/1
f 73/42/1 74/25/1 75/41/1 76/43/1
f 77/10/1 78/30/1 79/33/1 80/11/1
f 81/15/1 82/14/1 83/25/1 84/42/1
f 85/6/1 86/11/1 87/37/1 88/7/1
f 89/4/1 90/3/1 91/20/1 92/17/1
f 93/12/1 94/13/1 95/14/1 96/15/1
f 97/44/1 98/9/1 99/6/1 100/5/1
f 101/8/1 102/7/1 103/28/1 104/24/1
f 105/16/1 106/17/1 107/18/1 108/19/1
f 109/26/1 110/27/1 111/13/1 112/12/1
f 113/6/1 114/11/1 115/37/1 116/7/1
f 117/15/1 118/14/1 119/25/1 120/42/1
f 121/43/1 122/41/1 123/45/1 124/46/1
f 125/45/1 126/38/1 127/39/1 128/47/1
f 129/13/1 130/5/1 131/8/1 132/14/1
f 133/3/1 134/35/1 135/21/1 136/20/1
f 137/24/1 138/28/1 139/29/1 140/40/1
f 141/3/1 142/35/1 143/21/1 144/20/1
f 145/15/1 146/14/1 147/25/1 148/42/1
f 149/9/1 150/10/1 151/11/1 152/6/1
f 153/5/1 154/6/1 155/7/1 156/8/1
f 157/5/1 158/6/1 159/7/1 160/8/1
f 161/15/1 162/14/1 163/25/1 164/42/1
f 165/10/1 166/30/1 167/33/1 168/11/1
f 169/13/1 170/5/1 171/8/1 172/14/1
f 173/46/1 174/45/1 175/47/1 176/48/1
f 177/2/1 178/34/1 179/35/1 180/3/1
f 181/10/1 182/30/1 183/33/1 184/11/1
f 185/14/1 186/8/1 187/24/1 188/25/1
f 189/26/1 190/27/1 191/13/1 192/12/1
f 193/38/1 194/16/1 195/19/1 196/39/1
f 197/44/1 198/9/1 199/6/1 200/5/1
f 201/8/1 202/7/1 203/28/1 204/24/1
f 205/42/1 206/25/1 207/41/1 208/43/1
f 209/37/1 210/36/1 211/2/1 212/1/1
f 213/13/1 214/5/1 215/8/1 216/14/1
f 217/41/1 218/40/1 219/38/1 220/45/1
f 221/5/1 222/6/1 223/7/1 224/8/1
f 225/36/1 226/49/1 227/34/1 228/2/1
f 229/38/1 230/16/1 231/19/1 232/39/1
f 233/13/1 234/5/1 235/8/1 236/14/1
f 237/30/1 238/31/1 239/32/1 240/33/1
f 241/29/1 242/4/1 243/17/1 244/16/1
f 245/40/1 246/29/1 247/16/1 248/38/1
f 249/36/1 250/49/1 251/34/1 252/2/1
f 253/16/1 254/17/1 255/18/1 256/19/1
f 257/2/1 258/34/1 259/35/1 260/3/1
f 261/2/1 262/34/1 263/35/1 264/3/1
f 265/1/1 266/2/1 267/3/1 268/4/1
f 269/16/1 270/17/1 271/18/1 272/19/1
f 273/4/1 274/3/1 275/20/1 276/17/1
f 277/37/1 278/36/1 279/2/1 280/1/1
f 281/37/1 282/36/1 283/2/1 284/1/1
f 285/24/1 286/28/1 287/29/1 288/40/1
f 289/38/1 290/16/1 291/19/1 292/39/1
f 293/29/1 294/4/1 295/17/1 296/16/1
f 297/9/1 298/10/1 299/11/1 300/6/1
f 301/33/1 302/32/1 303/49/1 304/36/1
f 305/33/1 306/32/1 307/49/1 308/36/1
f 309/4/1 310/3/1 311/20/1 312/17/1
f 313/42/1 314/25/1 315/41/1 316/43/1
f 317/1/1 318/2/1 319/3/1 320/4/1
f 321/42/1 322/25/1 323/41/1 324/43/1
f 325/30/1 326/31/1 327/32/1 328/33/1
f 329/3/1 330/35/1 331/21/1 332/20/1
f 333/29/1 334/4/1 335/17/1 336/16/1
f 337/2/1 338/34/1 339/35/1 340/3/1
f 341/45/1 342/38/1 343/39/1 344/47/1
f 345/42/1 346/25/1 347/41/1 348/43/1
f 349/28/1 350/1/1 351/4/1 352/29/1
f 353/10/1 354/30/1 355/33/1 356/11/1
f 357/25/1 358/24/1 359/40/1 360/41/1
f 361/41/1 362/40/1 363/38/1 364/45/1
f 365/41/1 366/40/1 367/38/1 368/45/1
f 369/3/1 370/35/1 371/21/1 372/20/1
f 373/9/1 374/10/1 375/11/1 376/6/1
f 377/38/1 378/16/1 379/19/1 380/39/1
f 381/45/1 382/38/1 383/39/1 384/47/1
f 385/2/1 386/34/1 387/35/1 388/3/1
f 389/11/1 390/33/1 391/36/1 392/37/1
f 393/36/1 394/49/1 395/34/1 396/2/1
f 397/17/1 398/20/1 399/23/1 400/18/1
f 401/30/1 402/31/1 403/32/1 404/33/1
f 405/5/1 406/6/1 407/7/1 408/8/1
f 409/29/1 410/4/1 411/17/1 412/16/1
f 413/14/1 414/8/1 415/24/1 416/25/1
f 417/40/1 418/29/1 419/16/1 420/38/1
f 421/45/1 422/38/1 423/39/1 424/47/1
f 425/2/1 426/34/1 427/35/1 428/3/1
f 429/6/1 430/11/1 431/37/1 432/7/1
f 433/14/1 434/8/1 435/24/1 436/25/1
f 437/28/1 438/1/1 439/4/1 440/29/1
f 441/16/1 442/17/1 443/18/1 444/19/1
f 445/41/1 446/40/1 447/38/1 448/45/1
f 449/44/1 450/9/1 451/6/1 452/5/1
f 453/27/1 454/44/1 455/5/1 456/13/1
f 457/4/1 458/3/1 459/20/1 460/17/1
f 461/2/1 462/34/1 463/35/1 464/3/1
f 465/29/1 466/4/1 467/17/1 468/16/1
f 469/25/1 470/24/1 471/40/1 472/41/1
f 473/7/1 474/37/1 475/1/1 476/28/1
f 477/15/1 478/14/1 479/25/1 480/42/1
f 481/15/1 482/14/1 483/25/1 484/42/1
f 485/11/1 486/33/1 487/36/1 488/37/1
f 489/15/1 490/14/1 491/25/1 492/42/1
f 493/25/1 494/24/1 495/40/1 496/41/1
f 497/4/1 498/3/1 499/20/1 500/17/1
f 501/40/1 502/29/1 503/16/1 504/38/1
f 505/26/1 506/27/1 507/13/1 508/12/1
f 509/15/1 510/14/1 511/25/1 512/42/1
f 513/25/1 514/24/1 515/40/1 516/41/1
f 517/28/1 518/1/1 519/4/1 520/29/1
f 521/2/1 522/34/1 523/35/1 524/3/1
f 525/9/1 526/10/1 527/11/1 528/6/1
f 529/2/1 530/34/1 531/35/1 532/3/1
f 533/8/1 534/7/1 535/28/1 536/24/1
f 537/5/1 538/6/1 539/7/1 540/8/1
f 541/6/1 542/11/1 543/37/1 544/7/1
f 545/16/1 546/17/1 547/18/1 548/19/1
f 549/41/1 550/40/1 551/38/1 552/45/1
f 553/5/1 554/6/1 555/7/1 556/8/1
f 557/46/1 558/45/1 559/47/1 560/48/1
f 561/1/1 562/2/1 563/3/1 564/4/1
f 565/6/1 566/11/1 567/37/1 568/7/1
f 569/14/1 570/8/1 571/24/1 572/25/1
f 573/36/1 574/49/1 575/34/1 576/2/1
f 577/9/1 578/10/1 579/11/1 580/6/1
f 581/16/1 582/17/1 583/18/1 584/19/1
f 585/38/1 586/16/1 587/19/1 588/39/1
f 589/5/1 590/6/1 591/7/1 592/8/1
f 593/29/1 594/4/1 595/17/1 596/16/1
f 597/4/1 598/3/1 599/20/1 600/17/1
f 601/6/1 602/11/1 603/37/1 604/7/1
f 605/13/1 606/5/1 607/8/1 608/14/1
f 609/1/1 610/2/1 611/3/1 612/4/1
f 613/7/1 614/37/1 615/1/1 616/28/1
f 617/25/1 618/24/1 619/40/1 620/41/1
f 621/44/1 622/9/1 623/6/1 624/5/1
f 625/6/1 626/11/1 627/37/1 628/7/1
f 629/45/1 630/38/1 631/39/1 632/47/1
f 633/38/1 634/16/1 635/19/1 636/39/1
f 637/11/1 638/33/1 639/36/1 640/37/1
f 641/41/1 642/40/1 643/38/1 644/45/1
f 645/27/1 646/44/1 647/5/1 648/13/1
f 649/6/1 650/11/1 651/37/1 652/7/1
f 653/45/1 654/38/1 655/39/1 656/47/1
f 657/24/1 658/28/1 659/29/1 660/40/1
f 661/5/1 662/6/1 663/7/1 664/8/1
f 665/24/1 666/28/1 667/29/1 668/40/1
f 669/41/1 670/40/1 671/38/1 672/45/1
f 673/10/1 674/30/1 675/33/1 676/11/1
f 677/2/1 678/34/1 679/35/1 680/3/1
f 681/46/1 682/45/1 683/47/1 684/48/1
f 685/41/1 686/40/1 687/38/1 688/45/1
f 689/27/1 690/44/1 691/5/1 692/13/1
f 693/3/1 694/35/1 695/21/1 696/20/1
f 697/15/1 698/14/1 699/25/1 700/42/1
f 701/40/1 702/29/1 703/16/1 704/38/1
f 705/16/1 706/17/1 707/18/1 708/19/1
f 709/2/1 710/34/1 711/35/1 712/3/1
f 713/17/1 714/20/1 715/23/1 716/18/1
f 717/36/1 718/49/1 719/34/1 720/2/1
f 721/8/1 722/7/1 723/28/1 724/24/1
f 725/3/1 726/35/1 727/21/1 728/20/1
f 729/26/1 730/27/1 731/13/1 732/12/1
f 733/10/1 734/30/1 735/33/1 736/11/1
f 737/40/1 738/29/1 739/16/1 740/38/1
f 741/6/1 742/11/1 743/37/1 744/7/1
f 745/46/1 746/45/1 747/47/1 748/48/1
f 749/26/1 750/27/1 751/13/1 752/12/1
f 753/11/1 754/33/1 755/36/1 756/37/1
f 757/26/1 758/27/1 759/13/1 760/12/1
f 761/45/1 762/38/1 763/39/1 764/47/1
f 765/20/1 766/21/1 767/22/1 768/23/1
f 769/41/1 770/40/1 771/38/1 772/45/1
f 773/27/1 774/44/1 775/5/1 776/13/1
f 777/27/1 778/44/1 779/5/1 780/13/1
f 781/3/1 782/35/1 783/21/1 784/20/1
f 785/40/1 786/29/1 787/16/1 788/38/1
f 789/11/1 790/33/1 791/36/1 792/37/1
f 793/38/1 794/16/1 795/19/1 796/39/1
f 797/2/1 798/34/1 799/35/1 800/3/1
f 801/11/1 802/33/1 803/36/1 804/37/1
f 805/20/1 806/21/1 807/22/1 808/23/1
f 809/12/1 810/13/1 811/14/1 812/15/1
f 813/11/1 814/33/1 815/36/1 816/37/1
f 817/15/1 818/14/1 819/25/1 820/42/1
f 821/20/1 822/21/1 823/22/1 824/23/1
f 825/13/1 826/5/1 827/8/1 828/14/1
f 829/8/1 830/7/1 831/28/1 832/24/1

