# Tiled2Unity generated file. Do not modify by hand.
# Wavefront file for 'TitleIntro_mesh_0121.obj'

# Vertices (Count = 160)
v -64 -112 0
v -80 -112 0
v -80 -96 0
v -64 -96 0
v -80 -112 0
v -96 -112 0
v -96 -96 0
v -80 -96 0
v -96 -112 0
v -112 -112 0
v -112 -96 0
v -96 -96 0
v -112 -112 0
v -128 -112 0
v -128 -96 0
v -112 -96 0
v -128 -112 0
v -144 -112 0
v -144 -96 0
v -128 -96 0
v -64 -128 0
v -80 -128 0
v -80 -112 0
v -64 -112 0
v -80 -128 0
v -96 -128 0
v -96 -112 0
v -80 -112 0
v -96 -128 0
v -112 -128 0
v -112 -112 0
v -96 -112 0
v -112 -128 0
v -128 -128 0
v -128 -112 0
v -112 -112 0
v -128 -128 0
v -144 -128 0
v -144 -112 0
v -128 -112 0
v -64 -144 0
v -80 -144 0
v -80 -128 0
v -64 -128 0
v -80 -144 0
v -96 -144 0
v -96 -128 0
v -80 -128 0
v -96 -144 0
v -112 -144 0
v -112 -128 0
v -96 -128 0
v -112 -144 0
v -128 -144 0
v -128 -128 0
v -112 -128 0
v -128 -144 0
v -144 -144 0
v -144 -128 0
v -128 -128 0
v -64 -160 0
v -80 -160 0
v -80 -144 0
v -64 -144 0
v -80 -160 0
v -96 -160 0
v -96 -144 0
v -80 -144 0
v -96 -160 0
v -112 -160 0
v -112 -144 0
v -96 -144 0
v -112 -160 0
v -128 -160 0
v -128 -144 0
v -112 -144 0
v -128 -160 0
v -144 -160 0
v -144 -144 0
v -128 -144 0
v -64 -176 0
v -80 -176 0
v -80 -160 0
v -64 -160 0
v -80 -176 0
v -96 -176 0
v -96 -160 0
v -80 -160 0
v -96 -176 0
v -112 -176 0
v -112 -160 0
v -96 -160 0
v -112 -176 0
v -128 -176 0
v -128 -160 0
v -112 -160 0
v -128 -176 0
v -144 -176 0
v -144 -160 0
v -128 -160 0
v -64 -192 0
v -80 -192 0
v -80 -176 0
v -64 -176 0
v -80 -192 0
v -96 -192 0
v -96 -176 0
v -80 -176 0
v -96 -192 0
v -112 -192 0
v -112 -176 0
v -96 -176 0
v -112 -192 0
v -128 -192 0
v -128 -176 0
v -112 -176 0
v -128 -192 0
v -144 -192 0
v -144 -176 0
v -128 -176 0
v -64 -208 0
v -80 -208 0
v -80 -192 0
v -64 -192 0
v -80 -208 0
v -96 -208 0
v -96 -192 0
v -80 -192 0
v -96 -208 0
v -112 -208 0
v -112 -192 0
v -96 -192 0
v -112 -208 0
v -128 -208 0
v -128 -192 0
v -112 -192 0
v -128 -208 0
v -144 -208 0
v -144 -192 0
v -128 -192 0
v -64 -224 0
v -80 -224 0
v -80 -208 0
v -64 -208 0
v -80 -224 0
v -96 -224 0
v -96 -208 0
v -80 -208 0
v -96 -224 0
v -112 -224 0
v -112 -208 0
v -96 -208 0
v -112 -224 0
v -128 -224 0
v -128 -208 0
v -112 -208 0
v -128 -224 0
v -144 -224 0
v -144 -208 0
v -128 -208 0

# Texture cooridinates (Count = 54)
vt 0.7304688 0.984375
vt 0.734375 0.984375
vt 0.734375 1
vt 0.7304688 1
vt 0.7382813 0.984375
vt 0.7382813 1
vt 0.7421875 0.984375
vt 0.7421875 1
vt 0.7460938 0.984375
vt 0.7460938 1
vt 0.75 0.984375
vt 0.75 1
vt 0.7304688 0.96875
vt 0.734375 0.96875
vt 0.7382813 0.96875
vt 0.7421875 0.96875
vt 0.7460938 0.96875
vt 0.75 0.96875
vt 0.7304688 0.953125
vt 0.734375 0.953125
vt 0.7382813 0.953125
vt 0.7421875 0.953125
vt 0.7460938 0.953125
vt 0.75 0.953125
vt 0.7304688 0.9375
vt 0.734375 0.9375
vt 0.7382813 0.9375
vt 0.7421875 0.9375
vt 0.7460938 0.9375
vt 0.75 0.9375
vt 0.7304688 0.921875
vt 0.734375 0.921875
vt 0.7382813 0.921875
vt 0.7421875 0.921875
vt 0.7460938 0.921875
vt 0.75 0.921875
vt 0.7304688 0.90625
vt 0.734375 0.90625
vt 0.7382813 0.90625
vt 0.7421875 0.90625
vt 0.7460938 0.90625
vt 0.75 0.90625
vt 0.7304688 0.890625
vt 0.734375 0.890625
vt 0.7382813 0.890625
vt 0.7421875 0.890625
vt 0.7460938 0.890625
vt 0.75 0.890625
vt 0.7304688 0.875
vt 0.734375 0.875
vt 0.7382813 0.875
vt 0.7421875 0.875
vt 0.7460938 0.875
vt 0.75 0.875

# Normal
vn 0 0 -1

# Mesh description
g TitleIntro_mesh_0121

# Faces
f 1/1/1 2/2/1 3/3/1 4/4/1
f 5/2/1 6/5/1 7/6/1 8/3/1
f 9/5/1 10/7/1 11/8/1 12/6/1
f 13/7/1 14/9/1 15/10/1 16/8/1
f 17/9/1 18/11/1 19/12/1 20/10/1
f 21/13/1 22/14/1 23/2/1 24/1/1
f 25/14/1 26/15/1 27/5/1 28/2/1
f 29/15/1 30/16/1 31/7/1 32/5/1
f 33/16/1 34/17/1 35/9/1 36/7/1
f 37/17/1 38/18/1 39/11/1 40/9/1
f 41/19/1 42/20/1 43/14/1 44/13/1
f 45/20/1 46/21/1 47/15/1 48/14/1
f 49/21/1 50/22/1 51/16/1 52/15/1
f 53/22/1 54/23/1 55/17/1 56/16/1
f 57/23/1 58/24/1 59/18/1 60/17/1
f 61/25/1 62/26/1 63/20/1 64/19/1
f 65/26/1 66/27/1 67/21/1 68/20/1
f 69/27/1 70/28/1 71/22/1 72/21/1
f 73/28/1 74/29/1 75/23/1 76/22/1
f 77/29/1 78/30/1 79/24/1 80/23/1
f 81/31/1 82/32/1 83/26/1 84/25/1
f 85/32/1 86/33/1 87/27/1 88/26/1
f 89/33/1 90/34/1 91/28/1 92/27/1
f 93/34/1 94/35/1 95/29/1 96/28/1
f 97/35/1 98/36/1 99/30/1 100/29/1
f 101/37/1 102/38/1 103/32/1 104/31/1
f 105/38/1 106/39/1 107/33/1 108/32/1
f 109/39/1 110/40/1 111/34/1 112/33/1
f 113/40/1 114/41/1 115/35/1 116/34/1
f 117/41/1 118/42/1 119/36/1 120/35/1
f 121/43/1 122/44/1 123/38/1 124/37/1
f 125/44/1 126/45/1 127/39/1 128/38/1
f 129/45/1 130/46/1 131/40/1 132/39/1
f 133/46/1 134/47/1 135/41/1 136/40/1
f 137/47/1 138/48/1 139/42/1 140/41/1
f 141/49/1 142/50/1 143/44/1 144/43/1
f 145/50/1 146/51/1 147/45/1 148/44/1
f 149/51/1 150/52/1 151/46/1 152/45/1
f 153/52/1 154/53/1 155/47/1 156/46/1
f 157/53/1 158/54/1 159/48/1 160/47/1

