# Tiled2Unity generated file. Do not modify by hand.
# Wavefront file for 'TitleIntro_mesh_0012.obj'

# Vertices (Count = 1024)
v 0 -16 0
v -16 -16 0
v -16 0 0
v 0 0 0
v -16 -16 0
v -32 -16 0
v -32 0 0
v -16 0 0
v -32 -16 0
v -48 -16 0
v -48 0 0
v -32 0 0
v -48 -16 0
v -64 -16 0
v -64 0 0
v -48 0 0
v -64 -16 0
v -80 -16 0
v -80 0 0
v -64 0 0
v -80 -16 0
v -96 -16 0
v -96 0 0
v -80 0 0
v -96 -16 0
v -112 -16 0
v -112 0 0
v -96 0 0
v -112 -16 0
v -128 -16 0
v -128 0 0
v -112 0 0
v -128 -16 0
v -144 -16 0
v -144 0 0
v -128 0 0
v -144 -16 0
v -160 -16 0
v -160 0 0
v -144 0 0
v -160 -16 0
v -176 -16 0
v -176 0 0
v -160 0 0
v -176 -16 0
v -192 -16 0
v -192 0 0
v -176 0 0
v -192 -16 0
v -208 -16 0
v -208 0 0
v -192 0 0
v -208 -16 0
v -224 -16 0
v -224 0 0
v -208 0 0
v -224 -16 0
v -240 -16 0
v -240 0 0
v -224 0 0
v -240 -16 0
v -256 -16 0
v -256 0 0
v -240 0 0
v 0 -32 0
v -16 -32 0
v -16 -16 0
v 0 -16 0
v -16 -32 0
v -32 -32 0
v -32 -16 0
v -16 -16 0
v -32 -32 0
v -48 -32 0
v -48 -16 0
v -32 -16 0
v -48 -32 0
v -64 -32 0
v -64 -16 0
v -48 -16 0
v -64 -32 0
v -80 -32 0
v -80 -16 0
v -64 -16 0
v -80 -32 0
v -96 -32 0
v -96 -16 0
v -80 -16 0
v -96 -32 0
v -112 -32 0
v -112 -16 0
v -96 -16 0
v -112 -32 0
v -128 -32 0
v -128 -16 0
v -112 -16 0
v -128 -32 0
v -144 -32 0
v -144 -16 0
v -128 -16 0
v -144 -32 0
v -160 -32 0
v -160 -16 0
v -144 -16 0
v -160 -32 0
v -176 -32 0
v -176 -16 0
v -160 -16 0
v -176 -32 0
v -192 -32 0
v -192 -16 0
v -176 -16 0
v -192 -32 0
v -208 -32 0
v -208 -16 0
v -192 -16 0
v -208 -32 0
v -224 -32 0
v -224 -16 0
v -208 -16 0
v -224 -32 0
v -240 -32 0
v -240 -16 0
v -224 -16 0
v -240 -32 0
v -256 -32 0
v -256 -16 0
v -240 -16 0
v 0 -48 0
v -16 -48 0
v -16 -32 0
v 0 -32 0
v -16 -48 0
v -32 -48 0
v -32 -32 0
v -16 -32 0
v -32 -48 0
v -48 -48 0
v -48 -32 0
v -32 -32 0
v -48 -48 0
v -64 -48 0
v -64 -32 0
v -48 -32 0
v -64 -48 0
v -80 -48 0
v -80 -32 0
v -64 -32 0
v -80 -48 0
v -96 -48 0
v -96 -32 0
v -80 -32 0
v -96 -48 0
v -112 -48 0
v -112 -32 0
v -96 -32 0
v -112 -48 0
v -128 -48 0
v -128 -32 0
v -112 -32 0
v -128 -48 0
v -144 -48 0
v -144 -32 0
v -128 -32 0
v -144 -48 0
v -160 -48 0
v -160 -32 0
v -144 -32 0
v -160 -48 0
v -176 -48 0
v -176 -32 0
v -160 -32 0
v -176 -48 0
v -192 -48 0
v -192 -32 0
v -176 -32 0
v -192 -48 0
v -208 -48 0
v -208 -32 0
v -192 -32 0
v -208 -48 0
v -224 -48 0
v -224 -32 0
v -208 -32 0
v -224 -48 0
v -240 -48 0
v -240 -32 0
v -224 -32 0
v -240 -48 0
v -256 -48 0
v -256 -32 0
v -240 -32 0
v 0 -64 0
v -16 -64 0
v -16 -48 0
v 0 -48 0
v -16 -64 0
v -32 -64 0
v -32 -48 0
v -16 -48 0
v -32 -64 0
v -48 -64 0
v -48 -48 0
v -32 -48 0
v -48 -64 0
v -64 -64 0
v -64 -48 0
v -48 -48 0
v -64 -64 0
v -80 -64 0
v -80 -48 0
v -64 -48 0
v -80 -64 0
v -96 -64 0
v -96 -48 0
v -80 -48 0
v -96 -64 0
v -112 -64 0
v -112 -48 0
v -96 -48 0
v -112 -64 0
v -128 -64 0
v -128 -48 0
v -112 -48 0
v -128 -64 0
v -144 -64 0
v -144 -48 0
v -128 -48 0
v -144 -64 0
v -160 -64 0
v -160 -48 0
v -144 -48 0
v -160 -64 0
v -176 -64 0
v -176 -48 0
v -160 -48 0
v -176 -64 0
v -192 -64 0
v -192 -48 0
v -176 -48 0
v -192 -64 0
v -208 -64 0
v -208 -48 0
v -192 -48 0
v -208 -64 0
v -224 -64 0
v -224 -48 0
v -208 -48 0
v -224 -64 0
v -240 -64 0
v -240 -48 0
v -224 -48 0
v -240 -64 0
v -256 -64 0
v -256 -48 0
v -240 -48 0
v 0 -80 0
v -16 -80 0
v -16 -64 0
v 0 -64 0
v -16 -80 0
v -32 -80 0
v -32 -64 0
v -16 -64 0
v -32 -80 0
v -48 -80 0
v -48 -64 0
v -32 -64 0
v -48 -80 0
v -64 -80 0
v -64 -64 0
v -48 -64 0
v -64 -80 0
v -80 -80 0
v -80 -64 0
v -64 -64 0
v -80 -80 0
v -96 -80 0
v -96 -64 0
v -80 -64 0
v -96 -80 0
v -112 -80 0
v -112 -64 0
v -96 -64 0
v -112 -80 0
v -128 -80 0
v -128 -64 0
v -112 -64 0
v -128 -80 0
v -144 -80 0
v -144 -64 0
v -128 -64 0
v -144 -80 0
v -160 -80 0
v -160 -64 0
v -144 -64 0
v -160 -80 0
v -176 -80 0
v -176 -64 0
v -160 -64 0
v -176 -80 0
v -192 -80 0
v -192 -64 0
v -176 -64 0
v -192 -80 0
v -208 -80 0
v -208 -64 0
v -192 -64 0
v -208 -80 0
v -224 -80 0
v -224 -64 0
v -208 -64 0
v -224 -80 0
v -240 -80 0
v -240 -64 0
v -224 -64 0
v -240 -80 0
v -256 -80 0
v -256 -64 0
v -240 -64 0
v 0 -96 0
v -16 -96 0
v -16 -80 0
v 0 -80 0
v -16 -96 0
v -32 -96 0
v -32 -80 0
v -16 -80 0
v -32 -96 0
v -48 -96 0
v -48 -80 0
v -32 -80 0
v -48 -96 0
v -64 -96 0
v -64 -80 0
v -48 -80 0
v -64 -96 0
v -80 -96 0
v -80 -80 0
v -64 -80 0
v -80 -96 0
v -96 -96 0
v -96 -80 0
v -80 -80 0
v -96 -96 0
v -112 -96 0
v -112 -80 0
v -96 -80 0
v -112 -96 0
v -128 -96 0
v -128 -80 0
v -112 -80 0
v -128 -96 0
v -144 -96 0
v -144 -80 0
v -128 -80 0
v -144 -96 0
v -160 -96 0
v -160 -80 0
v -144 -80 0
v -160 -96 0
v -176 -96 0
v -176 -80 0
v -160 -80 0
v -176 -96 0
v -192 -96 0
v -192 -80 0
v -176 -80 0
v -192 -96 0
v -208 -96 0
v -208 -80 0
v -192 -80 0
v -208 -96 0
v -224 -96 0
v -224 -80 0
v -208 -80 0
v -224 -96 0
v -240 -96 0
v -240 -80 0
v -224 -80 0
v -240 -96 0
v -256 -96 0
v -256 -80 0
v -240 -80 0
v 0 -112 0
v -16 -112 0
v -16 -96 0
v 0 -96 0
v -16 -112 0
v -32 -112 0
v -32 -96 0
v -16 -96 0
v -32 -112 0
v -48 -112 0
v -48 -96 0
v -32 -96 0
v -48 -112 0
v -64 -112 0
v -64 -96 0
v -48 -96 0
v -64 -112 0
v -80 -112 0
v -80 -96 0
v -64 -96 0
v -80 -112 0
v -96 -112 0
v -96 -96 0
v -80 -96 0
v -96 -112 0
v -112 -112 0
v -112 -96 0
v -96 -96 0
v -112 -112 0
v -128 -112 0
v -128 -96 0
v -112 -96 0
v -128 -112 0
v -144 -112 0
v -144 -96 0
v -128 -96 0
v -144 -112 0
v -160 -112 0
v -160 -96 0
v -144 -96 0
v -160 -112 0
v -176 -112 0
v -176 -96 0
v -160 -96 0
v -176 -112 0
v -192 -112 0
v -192 -96 0
v -176 -96 0
v -192 -112 0
v -208 -112 0
v -208 -96 0
v -192 -96 0
v -208 -112 0
v -224 -112 0
v -224 -96 0
v -208 -96 0
v -224 -112 0
v -240 -112 0
v -240 -96 0
v -224 -96 0
v -240 -112 0
v -256 -112 0
v -256 -96 0
v -240 -96 0
v 0 -128 0
v -16 -128 0
v -16 -112 0
v 0 -112 0
v -16 -128 0
v -32 -128 0
v -32 -112 0
v -16 -112 0
v -32 -128 0
v -48 -128 0
v -48 -112 0
v -32 -112 0
v -48 -128 0
v -64 -128 0
v -64 -112 0
v -48 -112 0
v -64 -128 0
v -80 -128 0
v -80 -112 0
v -64 -112 0
v -80 -128 0
v -96 -128 0
v -96 -112 0
v -80 -112 0
v -96 -128 0
v -112 -128 0
v -112 -112 0
v -96 -112 0
v -112 -128 0
v -128 -128 0
v -128 -112 0
v -112 -112 0
v -128 -128 0
v -144 -128 0
v -144 -112 0
v -128 -112 0
v -144 -128 0
v -160 -128 0
v -160 -112 0
v -144 -112 0
v -160 -128 0
v -176 -128 0
v -176 -112 0
v -160 -112 0
v -176 -128 0
v -192 -128 0
v -192 -112 0
v -176 -112 0
v -192 -128 0
v -208 -128 0
v -208 -112 0
v -192 -112 0
v -208 -128 0
v -224 -128 0
v -224 -112 0
v -208 -112 0
v -224 -128 0
v -240 -128 0
v -240 -112 0
v -224 -112 0
v -240 -128 0
v -256 -128 0
v -256 -112 0
v -240 -112 0
v 0 -144 0
v -16 -144 0
v -16 -128 0
v 0 -128 0
v -16 -144 0
v -32 -144 0
v -32 -128 0
v -16 -128 0
v -32 -144 0
v -48 -144 0
v -48 -128 0
v -32 -128 0
v -48 -144 0
v -64 -144 0
v -64 -128 0
v -48 -128 0
v -64 -144 0
v -80 -144 0
v -80 -128 0
v -64 -128 0
v -80 -144 0
v -96 -144 0
v -96 -128 0
v -80 -128 0
v -96 -144 0
v -112 -144 0
v -112 -128 0
v -96 -128 0
v -112 -144 0
v -128 -144 0
v -128 -128 0
v -112 -128 0
v -128 -144 0
v -144 -144 0
v -144 -128 0
v -128 -128 0
v -144 -144 0
v -160 -144 0
v -160 -128 0
v -144 -128 0
v -160 -144 0
v -176 -144 0
v -176 -128 0
v -160 -128 0
v -176 -144 0
v -192 -144 0
v -192 -128 0
v -176 -128 0
v -192 -144 0
v -208 -144 0
v -208 -128 0
v -192 -128 0
v -208 -144 0
v -224 -144 0
v -224 -128 0
v -208 -128 0
v -224 -144 0
v -240 -144 0
v -240 -128 0
v -224 -128 0
v -240 -144 0
v -256 -144 0
v -256 -128 0
v -240 -128 0
v 0 -160 0
v -16 -160 0
v -16 -144 0
v 0 -144 0
v -16 -160 0
v -32 -160 0
v -32 -144 0
v -16 -144 0
v -32 -160 0
v -48 -160 0
v -48 -144 0
v -32 -144 0
v -48 -160 0
v -64 -160 0
v -64 -144 0
v -48 -144 0
v -64 -160 0
v -80 -160 0
v -80 -144 0
v -64 -144 0
v -80 -160 0
v -96 -160 0
v -96 -144 0
v -80 -144 0
v -96 -160 0
v -112 -160 0
v -112 -144 0
v -96 -144 0
v -112 -160 0
v -128 -160 0
v -128 -144 0
v -112 -144 0
v -128 -160 0
v -144 -160 0
v -144 -144 0
v -128 -144 0
v -144 -160 0
v -160 -160 0
v -160 -144 0
v -144 -144 0
v -160 -160 0
v -176 -160 0
v -176 -144 0
v -160 -144 0
v -176 -160 0
v -192 -160 0
v -192 -144 0
v -176 -144 0
v -192 -160 0
v -208 -160 0
v -208 -144 0
v -192 -144 0
v -208 -160 0
v -224 -160 0
v -224 -144 0
v -208 -144 0
v -224 -160 0
v -240 -160 0
v -240 -144 0
v -224 -144 0
v -240 -160 0
v -256 -160 0
v -256 -144 0
v -240 -144 0
v 0 -176 0
v -16 -176 0
v -16 -160 0
v 0 -160 0
v -16 -176 0
v -32 -176 0
v -32 -160 0
v -16 -160 0
v -32 -176 0
v -48 -176 0
v -48 -160 0
v -32 -160 0
v -48 -176 0
v -64 -176 0
v -64 -160 0
v -48 -160 0
v -64 -176 0
v -80 -176 0
v -80 -160 0
v -64 -160 0
v -80 -176 0
v -96 -176 0
v -96 -160 0
v -80 -160 0
v -96 -176 0
v -112 -176 0
v -112 -160 0
v -96 -160 0
v -112 -176 0
v -128 -176 0
v -128 -160 0
v -112 -160 0
v -128 -176 0
v -144 -176 0
v -144 -160 0
v -128 -160 0
v -144 -176 0
v -160 -176 0
v -160 -160 0
v -144 -160 0
v -160 -176 0
v -176 -176 0
v -176 -160 0
v -160 -160 0
v -176 -176 0
v -192 -176 0
v -192 -160 0
v -176 -160 0
v -192 -176 0
v -208 -176 0
v -208 -160 0
v -192 -160 0
v -208 -176 0
v -224 -176 0
v -224 -160 0
v -208 -160 0
v -224 -176 0
v -240 -176 0
v -240 -160 0
v -224 -160 0
v -240 -176 0
v -256 -176 0
v -256 -160 0
v -240 -160 0
v 0 -192 0
v -16 -192 0
v -16 -176 0
v 0 -176 0
v -16 -192 0
v -32 -192 0
v -32 -176 0
v -16 -176 0
v -32 -192 0
v -48 -192 0
v -48 -176 0
v -32 -176 0
v -48 -192 0
v -64 -192 0
v -64 -176 0
v -48 -176 0
v -64 -192 0
v -80 -192 0
v -80 -176 0
v -64 -176 0
v -80 -192 0
v -96 -192 0
v -96 -176 0
v -80 -176 0
v -96 -192 0
v -112 -192 0
v -112 -176 0
v -96 -176 0
v -112 -192 0
v -128 -192 0
v -128 -176 0
v -112 -176 0
v -128 -192 0
v -144 -192 0
v -144 -176 0
v -128 -176 0
v -144 -192 0
v -160 -192 0
v -160 -176 0
v -144 -176 0
v -160 -192 0
v -176 -192 0
v -176 -176 0
v -160 -176 0
v -176 -192 0
v -192 -192 0
v -192 -176 0
v -176 -176 0
v -192 -192 0
v -208 -192 0
v -208 -176 0
v -192 -176 0
v -208 -192 0
v -224 -192 0
v -224 -176 0
v -208 -176 0
v -224 -192 0
v -240 -192 0
v -240 -176 0
v -224 -176 0
v -240 -192 0
v -256 -192 0
v -256 -176 0
v -240 -176 0
v 0 -208 0
v -16 -208 0
v -16 -192 0
v 0 -192 0
v -16 -208 0
v -32 -208 0
v -32 -192 0
v -16 -192 0
v -32 -208 0
v -48 -208 0
v -48 -192 0
v -32 -192 0
v -48 -208 0
v -64 -208 0
v -64 -192 0
v -48 -192 0
v -64 -208 0
v -80 -208 0
v -80 -192 0
v -64 -192 0
v -80 -208 0
v -96 -208 0
v -96 -192 0
v -80 -192 0
v -96 -208 0
v -112 -208 0
v -112 -192 0
v -96 -192 0
v -112 -208 0
v -128 -208 0
v -128 -192 0
v -112 -192 0
v -128 -208 0
v -144 -208 0
v -144 -192 0
v -128 -192 0
v -144 -208 0
v -160 -208 0
v -160 -192 0
v -144 -192 0
v -160 -208 0
v -176 -208 0
v -176 -192 0
v -160 -192 0
v -176 -208 0
v -192 -208 0
v -192 -192 0
v -176 -192 0
v -192 -208 0
v -208 -208 0
v -208 -192 0
v -192 -192 0
v -208 -208 0
v -224 -208 0
v -224 -192 0
v -208 -192 0
v -224 -208 0
v -240 -208 0
v -240 -192 0
v -224 -192 0
v -240 -208 0
v -256 -208 0
v -256 -192 0
v -240 -192 0
v 0 -224 0
v -16 -224 0
v -16 -208 0
v 0 -208 0
v -16 -224 0
v -32 -224 0
v -32 -208 0
v -16 -208 0
v -32 -224 0
v -48 -224 0
v -48 -208 0
v -32 -208 0
v -48 -224 0
v -64 -224 0
v -64 -208 0
v -48 -208 0
v -64 -224 0
v -80 -224 0
v -80 -208 0
v -64 -208 0
v -80 -224 0
v -96 -224 0
v -96 -208 0
v -80 -208 0
v -96 -224 0
v -112 -224 0
v -112 -208 0
v -96 -208 0
v -112 -224 0
v -128 -224 0
v -128 -208 0
v -112 -208 0
v -128 -224 0
v -144 -224 0
v -144 -208 0
v -128 -208 0
v -144 -224 0
v -160 -224 0
v -160 -208 0
v -144 -208 0
v -160 -224 0
v -176 -224 0
v -176 -208 0
v -160 -208 0
v -176 -224 0
v -192 -224 0
v -192 -208 0
v -176 -208 0
v -192 -224 0
v -208 -224 0
v -208 -208 0
v -192 -208 0
v -208 -224 0
v -224 -224 0
v -224 -208 0
v -208 -208 0
v -224 -224 0
v -240 -224 0
v -240 -208 0
v -224 -208 0
v -240 -224 0
v -256 -224 0
v -256 -208 0
v -240 -208 0
v 0 -240 0
v -16 -240 0
v -16 -224 0
v 0 -224 0
v -16 -240 0
v -32 -240 0
v -32 -224 0
v -16 -224 0
v -32 -240 0
v -48 -240 0
v -48 -224 0
v -32 -224 0
v -48 -240 0
v -64 -240 0
v -64 -224 0
v -48 -224 0
v -64 -240 0
v -80 -240 0
v -80 -224 0
v -64 -224 0
v -80 -240 0
v -96 -240 0
v -96 -224 0
v -80 -224 0
v -96 -240 0
v -112 -240 0
v -112 -224 0
v -96 -224 0
v -112 -240 0
v -128 -240 0
v -128 -224 0
v -112 -224 0
v -128 -240 0
v -144 -240 0
v -144 -224 0
v -128 -224 0
v -144 -240 0
v -160 -240 0
v -160 -224 0
v -144 -224 0
v -160 -240 0
v -176 -240 0
v -176 -224 0
v -160 -224 0
v -176 -240 0
v -192 -240 0
v -192 -224 0
v -176 -224 0
v -192 -240 0
v -208 -240 0
v -208 -224 0
v -192 -224 0
v -208 -240 0
v -224 -240 0
v -224 -224 0
v -208 -224 0
v -224 -240 0
v -240 -240 0
v -240 -224 0
v -224 -224 0
v -240 -240 0
v -256 -240 0
v -256 -224 0
v -240 -224 0
v 0 -256 0
v -16 -256 0
v -16 -240 0
v 0 -240 0
v -16 -256 0
v -32 -256 0
v -32 -240 0
v -16 -240 0
v -32 -256 0
v -48 -256 0
v -48 -240 0
v -32 -240 0
v -48 -256 0
v -64 -256 0
v -64 -240 0
v -48 -240 0
v -64 -256 0
v -80 -256 0
v -80 -240 0
v -64 -240 0
v -80 -256 0
v -96 -256 0
v -96 -240 0
v -80 -240 0
v -96 -256 0
v -112 -256 0
v -112 -240 0
v -96 -240 0
v -112 -256 0
v -128 -256 0
v -128 -240 0
v -112 -240 0
v -128 -256 0
v -144 -256 0
v -144 -240 0
v -128 -240 0
v -144 -256 0
v -160 -256 0
v -160 -240 0
v -144 -240 0
v -160 -256 0
v -176 -256 0
v -176 -240 0
v -160 -240 0
v -176 -256 0
v -192 -256 0
v -192 -240 0
v -176 -240 0
v -192 -256 0
v -208 -256 0
v -208 -240 0
v -192 -240 0
v -208 -256 0
v -224 -256 0
v -224 -240 0
v -208 -240 0
v -224 -256 0
v -240 -256 0
v -240 -240 0
v -224 -240 0
v -240 -256 0
v -256 -256 0
v -256 -240 0
v -240 -240 0

# Texture cooridinates (Count = 49)
vt 0.015625 0.4375
vt 0.01953125 0.4375
vt 0.01953125 0.453125
vt 0.015625 0.453125
vt 0.015625 0.390625
vt 0.01953125 0.390625
vt 0.01953125 0.40625
vt 0.015625 0.40625
vt 0.0234375 0.390625
vt 0.02734375 0.390625
vt 0.02734375 0.40625
vt 0.0234375 0.40625
vt 0.02734375 0.421875
vt 0.03125 0.421875
vt 0.03125 0.4375
vt 0.02734375 0.4375
vt 0.01171875 0.390625
vt 0.01171875 0.40625
vt 0.0078125 0.4375
vt 0.01171875 0.4375
vt 0.01171875 0.453125
vt 0.0078125 0.453125
vt 0.01953125 0.46875
vt 0.015625 0.46875
vt 0.03125 0.390625
vt 0.03125 0.40625
vt 0.0234375 0.421875
vt 0.01953125 0.421875
vt 0.015625 0.421875
vt 0.01171875 0.421875
vt 0.0234375 0.4375
vt 0.02734375 0.46875
vt 0.03125 0.46875
vt 0.03125 0.484375
vt 0.02734375 0.484375
vt 0.01953125 0.484375
vt 0.015625 0.484375
vt 0.01171875 0.46875
vt 0.0078125 0.46875
vt 0.0234375 0.46875
vt 0.0234375 0.484375
vt 0.0078125 0.390625
vt 0.0078125 0.40625
vt 0.0234375 0.453125
vt 0.02734375 0.453125
vt 0.03125 0.453125
vt 0.01171875 0.484375
vt 0.0078125 0.484375
vt 0.0078125 0.421875

# Normal
vn 0 0 -1

# Mesh description
g TitleIntro_mesh_0012

# Faces
f 1/1/1 2/2/1 3/3/1 4/4/1
f 5/5/1 6/6/1 7/7/1 8/8/1
f 9/9/1 10/10/1 11/11/1 12/12/1
f 13/13/1 14/14/1 15/15/1 16/16/1
f 17/17/1 18/5/1 19/8/1 20/18/1
f 21/19/1 22/20/1 23/21/1 24/22/1
f 25/4/1 26/3/1 27/23/1 28/24/1
f 29/10/1 30/25/1 31/26/1 32/11/1
f 33/7/1 34/12/1 35/27/1 36/28/1
f 37/29/1 38/28/1 39/2/1 40/1/1
f 41/18/1 42/8/1 43/29/1 44/30/1
f 45/17/1 46/5/1 47/8/1 48/18/1
f 49/27/1 50/13/1 51/16/1 52/31/1
f 53/32/1 54/33/1 55/34/1 56/35/1
f 57/4/1 58/3/1 59/23/1 60/24/1
f 61/28/1 62/27/1 63/31/1 64/2/1
f 65/12/1 66/11/1 67/13/1 68/27/1
f 69/13/1 70/14/1 71/15/1 72/16/1
f 73/4/1 74/3/1 75/23/1 76/24/1
f 77/13/1 78/14/1 79/15/1 80/16/1
f 81/5/1 82/6/1 83/7/1 84/8/1
f 85/11/1 86/26/1 87/14/1 88/13/1
f 89/24/1 90/23/1 91/36/1 92/37/1
f 93/32/1 94/33/1 95/34/1 96/35/1
f 97/5/1 98/6/1 99/7/1 100/8/1
f 101/22/1 102/21/1 103/38/1 104/39/1
f 105/23/1 106/40/1 107/41/1 108/36/1
f 109/42/1 110/17/1 111/18/1 112/43/1
f 113/2/1 114/31/1 115/44/1 116/3/1
f 117/45/1 118/46/1 119/33/1 120/32/1
f 121/20/1 122/1/1 123/4/1 124/21/1
f 125/12/1 126/11/1 127/13/1 128/27/1
f 129/22/1 130/21/1 131/38/1 132/39/1
f 133/32/1 134/33/1 135/34/1 136/35/1
f 137/4/1 138/3/1 139/23/1 140/24/1
f 141/30/1 142/29/1 143/1/1 144/20/1
f 145/4/1 146/3/1 147/23/1 148/24/1
f 149/8/1 150/7/1 151/28/1 152/29/1
f 153/31/1 154/16/1 155/45/1 156/44/1
f 157/6/1 158/9/1 159/12/1 160/7/1
f 161/6/1 162/9/1 163/12/1 164/7/1
f 165/8/1 166/7/1 167/28/1 168/29/1
f 169/17/1 170/5/1 171/8/1 172/18/1
f 173/2/1 174/31/1 175/44/1 176/3/1
f 177/42/1 178/17/1 179/18/1 180/43/1
f 181/31/1 182/16/1 183/45/1 184/44/1
f 185/24/1 186/23/1 187/36/1 188/37/1
f 189/8/1 190/7/1 191/28/1 192/29/1
f 193/7/1 194/12/1 195/27/1 196/28/1
f 197/44/1 198/45/1 199/32/1 200/40/1
f 201/24/1 202/23/1 203/36/1 204/37/1
f 205/1/1 206/2/1 207/3/1 208/4/1
f 209/9/1 210/10/1 211/11/1 212/12/1
f 213/32/1 214/33/1 215/34/1 216/35/1
f 217/23/1 218/40/1 219/41/1 220/36/1
f 221/4/1 222/3/1 223/23/1 224/24/1
f 225/18/1 226/8/1 227/29/1 228/30/1
f 229/5/1 230/6/1 231/7/1 232/8/1
f 233/21/1 234/4/1 235/24/1 236/38/1
f 237/4/1 238/3/1 239/23/1 240/24/1
f 241/11/1 242/26/1 243/14/1 244/13/1
f 245/38/1 246/24/1 247/37/1 248/47/1
f 249/11/1 250/26/1 251/14/1 252/13/1
f 253/23/1 254/40/1 255/41/1 256/36/1
f 257/13/1 258/14/1 259/15/1 260/16/1
f 261/6/1 262/9/1 263/12/1 264/7/1
f 265/42/1 266/17/1 267/18/1 268/43/1
f 269/10/1 270/25/1 271/26/1 272/11/1
f 273/18/1 274/8/1 275/29/1 276/30/1
f 277/27/1 278/13/1 279/16/1 280/31/1
f 281/9/1 282/10/1 283/11/1 284/12/1
f 285/5/1 286/6/1 287/7/1 288/8/1
f 289/39/1 290/38/1 291/47/1 292/48/1
f 293/27/1 294/13/1 295/16/1 296/31/1
f 297/12/1 298/11/1 299/13/1 300/27/1
f 301/17/1 302/5/1 303/8/1 304/18/1
f 305/29/1 306/28/1 307/2/1 308/1/1
f 309/13/1 310/14/1 311/15/1 312/16/1
f 313/18/1 314/8/1 315/29/1 316/30/1
f 317/21/1 318/4/1 319/24/1 320/38/1
f 321/17/1 322/5/1 323/8/1 324/18/1
f 325/17/1 326/5/1 327/8/1 328/18/1
f 329/10/1 330/25/1 331/26/1 332/11/1
f 333/49/1 334/30/1 335/20/1 336/19/1
f 337/8/1 338/7/1 339/28/1 340/29/1
f 341/40/1 342/32/1 343/35/1 344/41/1
f 345/24/1 346/23/1 347/36/1 348/37/1
f 349/8/1 350/7/1 351/28/1 352/29/1
f 353/1/1 354/2/1 355/3/1 356/4/1
f 357/3/1 358/44/1 359/40/1 360/23/1
f 361/27/1 362/13/1 363/16/1 364/31/1
f 365/13/1 366/14/1 367/15/1 368/16/1
f 369/40/1 370/32/1 371/35/1 372/41/1
f 373/24/1 374/23/1 375/36/1 376/37/1
f 377/11/1 378/26/1 379/14/1 380/13/1
f 381/6/1 382/9/1 383/12/1 384/7/1
f 385/45/1 386/46/1 387/33/1 388/32/1
f 389/31/1 390/16/1 391/45/1 392/44/1
f 393/21/1 394/4/1 395/24/1 396/38/1
f 397/24/1 398/23/1 399/36/1 400/37/1
f 401/29/1 402/28/1 403/2/1 404/1/1
f 405/29/1 406/28/1 407/2/1 408/1/1
f 409/20/1 410/1/1 411/4/1 412/21/1
f 413/17/1 414/5/1 415/8/1 416/18/1
f 417/38/1 418/24/1 419/37/1 420/47/1
f 421/24/1 422/23/1 423/36/1 424/37/1
f 425/29/1 426/28/1 427/2/1 428/1/1
f 429/24/1 430/23/1 431/36/1 432/37/1
f 433/16/1 434/15/1 435/46/1 436/45/1
f 437/45/1 438/46/1 439/33/1 440/32/1
f 441/28/1 442/27/1 443/31/1 444/2/1
f 445/4/1 446/3/1 447/23/1 448/24/1
f 449/49/1 450/30/1 451/20/1 452/19/1
f 453/23/1 454/40/1 455/41/1 456/36/1
f 457/31/1 458/16/1 459/45/1 460/44/1
f 461/5/1 462/6/1 463/7/1 464/8/1
f 465/21/1 466/4/1 467/24/1 468/38/1
f 469/42/1 470/17/1 471/18/1 472/43/1
f 473/17/1 474/5/1 475/8/1 476/18/1
f 477/7/1 478/12/1 479/27/1 480/28/1
f 481/19/1 482/20/1 483/21/1 484/22/1
f 485/28/1 486/27/1 487/31/1 488/2/1
f 489/45/1 490/46/1 491/33/1 492/32/1
f 493/24/1 494/23/1 495/36/1 496/37/1
f 497/29/1 498/28/1 499/2/1 500/1/1
f 501/3/1 502/44/1 503/40/1 504/23/1
f 505/8/1 506/7/1 507/28/1 508/29/1
f 509/11/1 510/26/1 511/14/1 512/13/1
f 513/43/1 514/18/1 515/30/1 516/49/1
f 517/17/1 518/5/1 519/8/1 520/18/1
f 521/24/1 522/23/1 523/36/1 524/37/1
f 525/31/1 526/16/1 527/45/1 528/44/1
f 529/28/1 530/27/1 531/31/1 532/2/1
f 533/40/1 534/32/1 535/35/1 536/41/1
f 537/44/1 538/45/1 539/32/1 540/40/1
f 541/23/1 542/40/1 543/41/1 544/36/1
f 545/43/1 546/18/1 547/30/1 548/49/1
f 549/10/1 550/25/1 551/26/1 552/11/1
f 553/13/1 554/14/1 555/15/1 556/16/1
f 557/22/1 558/21/1 559/38/1 560/39/1
f 561/9/1 562/10/1 563/11/1 564/12/1
f 565/30/1 566/29/1 567/1/1 568/20/1
f 569/29/1 570/28/1 571/2/1 572/1/1
f 573/44/1 574/45/1 575/32/1 576/40/1
f 577/49/1 578/30/1 579/20/1 580/19/1
f 581/10/1 582/25/1 583/26/1 584/11/1
f 585/23/1 586/40/1 587/41/1 588/36/1
f 589/40/1 590/32/1 591/35/1 592/41/1
f 593/5/1 594/6/1 595/7/1 596/8/1
f 597/5/1 598/6/1 599/7/1 600/8/1
f 601/44/1 602/45/1 603/32/1 604/40/1
f 605/22/1 606/21/1 607/38/1 608/39/1
f 609/2/1 610/31/1 611/44/1 612/3/1
f 613/3/1 614/44/1 615/40/1 616/23/1
f 617/22/1 618/21/1 619/38/1 620/39/1
f 621/8/1 622/7/1 623/28/1 624/29/1
f 625/20/1 626/1/1 627/4/1 628/21/1
f 629/32/1 630/33/1 631/34/1 632/35/1
f 633/21/1 634/4/1 635/24/1 636/38/1
f 637/9/1 638/10/1 639/11/1 640/12/1
f 641/30/1 642/29/1 643/1/1 644/20/1
f 645/7/1 646/12/1 647/27/1 648/28/1
f 649/10/1 650/25/1 651/26/1 652/11/1
f 653/12/1 654/11/1 655/13/1 656/27/1
f 657/45/1 658/46/1 659/33/1 660/32/1
f 661/42/1 662/17/1 663/18/1 664/43/1
f 665/12/1 666/11/1 667/13/1 668/27/1
f 669/31/1 670/16/1 671/45/1 672/44/1
f 673/31/1 674/16/1 675/45/1 676/44/1
f 677/45/1 678/46/1 679/33/1 680/32/1
f 681/45/1 682/46/1 683/33/1 684/32/1
f 685/1/1 686/2/1 687/3/1 688/4/1
f 689/32/1 690/33/1 691/34/1 692/35/1
f 693/7/1 694/12/1 695/27/1 696/28/1
f 697/20/1 698/1/1 699/4/1 700/21/1
f 701/43/1 702/18/1 703/30/1 704/49/1
f 705/16/1 706/15/1 707/46/1 708/45/1
f 709/18/1 710/8/1 711/29/1 712/30/1
f 713/12/1 714/11/1 715/13/1 716/27/1
f 717/2/1 718/31/1 719/44/1 720/3/1
f 721/2/1 722/31/1 723/44/1 724/3/1
f 725/16/1 726/15/1 727/46/1 728/45/1
f 729/22/1 730/21/1 731/38/1 732/39/1
f 733/3/1 734/44/1 735/40/1 736/23/1
f 737/42/1 738/17/1 739/18/1 740/43/1
f 741/43/1 742/18/1 743/30/1 744/49/1
f 745/8/1 746/7/1 747/28/1 748/29/1
f 749/38/1 750/24/1 751/37/1 752/47/1
f 753/17/1 754/5/1 755/8/1 756/18/1
f 757/3/1 758/44/1 759/40/1 760/23/1
f 761/23/1 762/40/1 763/41/1 764/36/1
f 765/40/1 766/32/1 767/35/1 768/41/1
f 769/23/1 770/40/1 771/41/1 772/36/1
f 773/20/1 774/1/1 775/4/1 776/21/1
f 777/12/1 778/11/1 779/13/1 780/27/1
f 781/2/1 782/31/1 783/44/1 784/3/1
f 785/3/1 786/44/1 787/40/1 788/23/1
f 789/30/1 790/29/1 791/1/1 792/20/1
f 793/21/1 794/4/1 795/24/1 796/38/1
f 797/45/1 798/46/1 799/33/1 800/32/1
f 801/38/1 802/24/1 803/37/1 804/47/1
f 805/22/1 806/21/1 807/38/1 808/39/1
f 809/19/1 810/20/1 811/21/1 812/22/1
f 813/12/1 814/11/1 815/13/1 816/27/1
f 817/7/1 818/12/1 819/27/1 820/28/1
f 821/49/1 822/30/1 823/20/1 824/19/1
f 825/32/1 826/33/1 827/34/1 828/35/1
f 829/38/1 830/24/1 831/37/1 832/47/1
f 833/7/1 834/12/1 835/27/1 836/28/1
f 837/7/1 838/12/1 839/27/1 840/28/1
f 841/44/1 842/45/1 843/32/1 844/40/1
f 845/2/1 846/31/1 847/44/1 848/3/1
f 849/9/1 850/10/1 851/11/1 852/12/1
f 853/4/1 854/3/1 855/23/1 856/24/1
f 857/28/1 858/27/1 859/31/1 860/2/1
f 861/27/1 862/13/1 863/16/1 864/31/1
f 865/23/1 866/40/1 867/41/1 868/36/1
f 869/13/1 870/14/1 871/15/1 872/16/1
f 873/3/1 874/44/1 875/40/1 876/23/1
f 877/38/1 878/24/1 879/37/1 880/47/1
f 881/16/1 882/15/1 883/46/1 884/45/1
f 885/6/1 886/9/1 887/12/1 888/7/1
f 889/11/1 890/26/1 891/14/1 892/13/1
f 893/1/1 894/2/1 895/3/1 896/4/1
f 897/44/1 898/45/1 899/32/1 900/40/1
f 901/3/1 902/44/1 903/40/1 904/23/1
f 905/45/1 906/46/1 907/33/1 908/32/1
f 909/1/1 910/2/1 911/3/1 912/4/1
f 913/10/1 914/25/1 915/26/1 916/11/1
f 917/10/1 918/25/1 919/26/1 920/11/1
f 921/44/1 922/45/1 923/32/1 924/40/1
f 925/13/1 926/14/1 927/15/1 928/16/1
f 929/20/1 930/1/1 931/4/1 932/21/1
f 933/32/1 934/33/1 935/34/1 936/35/1
f 937/20/1 938/1/1 939/4/1 940/21/1
f 941/30/1 942/29/1 943/1/1 944/20/1
f 945/10/1 946/25/1 947/26/1 948/11/1
f 949/7/1 950/12/1 951/27/1 952/28/1
f 953/2/1 954/31/1 955/44/1 956/3/1
f 957/9/1 958/10/1 959/11/1 960/12/1
f 961/49/1 962/30/1 963/20/1 964/19/1
f 965/24/1 966/23/1 967/36/1 968/37/1
f 969/49/1 970/30/1 971/20/1 972/19/1
f 973/3/1 974/44/1 975/40/1 976/23/1
f 977/21/1 978/4/1 979/24/1 980/38/1
f 981/29/1 982/28/1 983/2/1 984/1/1
f 985/38/1 986/24/1 987/37/1 988/47/1
f 989/8/1 990/7/1 991/28/1 992/29/1
f 993/24/1 994/23/1 995/36/1 996/37/1
f 997/19/1 998/20/1 999/21/1 1000/22/1
f 1001/4/1 1002/3/1 1003/23/1 1004/24/1
f 1005/7/1 1006/12/1 1007/27/1 1008/28/1
f 1009/39/1 1010/38/1 1011/47/1 1012/48/1
f 1013/3/1 1014/44/1 1015/40/1 1016/23/1
f 1017/16/1 1018/15/1 1019/46/1 1020/45/1
f 1021/45/1 1022/46/1 1023/33/1 1024/32/1

