# Tiled2Unity generated file. Do not modify by hand.
# Wavefront file for 'TitleIntro_mesh_0049.obj'

# Vertices (Count = 1024)
v 0 -16 0
v -16 -16 0
v -16 0 0
v 0 0 0
v -16 -16 0
v -32 -16 0
v -32 0 0
v -16 0 0
v -32 -16 0
v -48 -16 0
v -48 0 0
v -32 0 0
v -48 -16 0
v -64 -16 0
v -64 0 0
v -48 0 0
v -64 -16 0
v -80 -16 0
v -80 0 0
v -64 0 0
v -80 -16 0
v -96 -16 0
v -96 0 0
v -80 0 0
v -96 -16 0
v -112 -16 0
v -112 0 0
v -96 0 0
v -112 -16 0
v -128 -16 0
v -128 0 0
v -112 0 0
v -128 -16 0
v -144 -16 0
v -144 0 0
v -128 0 0
v -144 -16 0
v -160 -16 0
v -160 0 0
v -144 0 0
v -160 -16 0
v -176 -16 0
v -176 0 0
v -160 0 0
v -176 -16 0
v -192 -16 0
v -192 0 0
v -176 0 0
v -192 -16 0
v -208 -16 0
v -208 0 0
v -192 0 0
v -208 -16 0
v -224 -16 0
v -224 0 0
v -208 0 0
v -224 -16 0
v -240 -16 0
v -240 0 0
v -224 0 0
v -240 -16 0
v -256 -16 0
v -256 0 0
v -240 0 0
v 0 -32 0
v -16 -32 0
v -16 -16 0
v 0 -16 0
v -16 -32 0
v -32 -32 0
v -32 -16 0
v -16 -16 0
v -32 -32 0
v -48 -32 0
v -48 -16 0
v -32 -16 0
v -48 -32 0
v -64 -32 0
v -64 -16 0
v -48 -16 0
v -64 -32 0
v -80 -32 0
v -80 -16 0
v -64 -16 0
v -80 -32 0
v -96 -32 0
v -96 -16 0
v -80 -16 0
v -96 -32 0
v -112 -32 0
v -112 -16 0
v -96 -16 0
v -112 -32 0
v -128 -32 0
v -128 -16 0
v -112 -16 0
v -128 -32 0
v -144 -32 0
v -144 -16 0
v -128 -16 0
v -144 -32 0
v -160 -32 0
v -160 -16 0
v -144 -16 0
v -160 -32 0
v -176 -32 0
v -176 -16 0
v -160 -16 0
v -176 -32 0
v -192 -32 0
v -192 -16 0
v -176 -16 0
v -192 -32 0
v -208 -32 0
v -208 -16 0
v -192 -16 0
v -208 -32 0
v -224 -32 0
v -224 -16 0
v -208 -16 0
v -224 -32 0
v -240 -32 0
v -240 -16 0
v -224 -16 0
v -240 -32 0
v -256 -32 0
v -256 -16 0
v -240 -16 0
v 0 -48 0
v -16 -48 0
v -16 -32 0
v 0 -32 0
v -16 -48 0
v -32 -48 0
v -32 -32 0
v -16 -32 0
v -32 -48 0
v -48 -48 0
v -48 -32 0
v -32 -32 0
v -48 -48 0
v -64 -48 0
v -64 -32 0
v -48 -32 0
v -64 -48 0
v -80 -48 0
v -80 -32 0
v -64 -32 0
v -80 -48 0
v -96 -48 0
v -96 -32 0
v -80 -32 0
v -96 -48 0
v -112 -48 0
v -112 -32 0
v -96 -32 0
v -112 -48 0
v -128 -48 0
v -128 -32 0
v -112 -32 0
v -128 -48 0
v -144 -48 0
v -144 -32 0
v -128 -32 0
v -144 -48 0
v -160 -48 0
v -160 -32 0
v -144 -32 0
v -160 -48 0
v -176 -48 0
v -176 -32 0
v -160 -32 0
v -176 -48 0
v -192 -48 0
v -192 -32 0
v -176 -32 0
v -192 -48 0
v -208 -48 0
v -208 -32 0
v -192 -32 0
v -208 -48 0
v -224 -48 0
v -224 -32 0
v -208 -32 0
v -224 -48 0
v -240 -48 0
v -240 -32 0
v -224 -32 0
v -240 -48 0
v -256 -48 0
v -256 -32 0
v -240 -32 0
v 0 -64 0
v -16 -64 0
v -16 -48 0
v 0 -48 0
v -16 -64 0
v -32 -64 0
v -32 -48 0
v -16 -48 0
v -32 -64 0
v -48 -64 0
v -48 -48 0
v -32 -48 0
v -48 -64 0
v -64 -64 0
v -64 -48 0
v -48 -48 0
v -64 -64 0
v -80 -64 0
v -80 -48 0
v -64 -48 0
v -80 -64 0
v -96 -64 0
v -96 -48 0
v -80 -48 0
v -96 -64 0
v -112 -64 0
v -112 -48 0
v -96 -48 0
v -112 -64 0
v -128 -64 0
v -128 -48 0
v -112 -48 0
v -128 -64 0
v -144 -64 0
v -144 -48 0
v -128 -48 0
v -144 -64 0
v -160 -64 0
v -160 -48 0
v -144 -48 0
v -160 -64 0
v -176 -64 0
v -176 -48 0
v -160 -48 0
v -176 -64 0
v -192 -64 0
v -192 -48 0
v -176 -48 0
v -192 -64 0
v -208 -64 0
v -208 -48 0
v -192 -48 0
v -208 -64 0
v -224 -64 0
v -224 -48 0
v -208 -48 0
v -224 -64 0
v -240 -64 0
v -240 -48 0
v -224 -48 0
v -240 -64 0
v -256 -64 0
v -256 -48 0
v -240 -48 0
v 0 -80 0
v -16 -80 0
v -16 -64 0
v 0 -64 0
v -16 -80 0
v -32 -80 0
v -32 -64 0
v -16 -64 0
v -32 -80 0
v -48 -80 0
v -48 -64 0
v -32 -64 0
v -48 -80 0
v -64 -80 0
v -64 -64 0
v -48 -64 0
v -64 -80 0
v -80 -80 0
v -80 -64 0
v -64 -64 0
v -80 -80 0
v -96 -80 0
v -96 -64 0
v -80 -64 0
v -96 -80 0
v -112 -80 0
v -112 -64 0
v -96 -64 0
v -112 -80 0
v -128 -80 0
v -128 -64 0
v -112 -64 0
v -128 -80 0
v -144 -80 0
v -144 -64 0
v -128 -64 0
v -144 -80 0
v -160 -80 0
v -160 -64 0
v -144 -64 0
v -160 -80 0
v -176 -80 0
v -176 -64 0
v -160 -64 0
v -176 -80 0
v -192 -80 0
v -192 -64 0
v -176 -64 0
v -192 -80 0
v -208 -80 0
v -208 -64 0
v -192 -64 0
v -208 -80 0
v -224 -80 0
v -224 -64 0
v -208 -64 0
v -224 -80 0
v -240 -80 0
v -240 -64 0
v -224 -64 0
v -240 -80 0
v -256 -80 0
v -256 -64 0
v -240 -64 0
v 0 -96 0
v -16 -96 0
v -16 -80 0
v 0 -80 0
v -16 -96 0
v -32 -96 0
v -32 -80 0
v -16 -80 0
v -32 -96 0
v -48 -96 0
v -48 -80 0
v -32 -80 0
v -48 -96 0
v -64 -96 0
v -64 -80 0
v -48 -80 0
v -64 -96 0
v -80 -96 0
v -80 -80 0
v -64 -80 0
v -80 -96 0
v -96 -96 0
v -96 -80 0
v -80 -80 0
v -96 -96 0
v -112 -96 0
v -112 -80 0
v -96 -80 0
v -112 -96 0
v -128 -96 0
v -128 -80 0
v -112 -80 0
v -128 -96 0
v -144 -96 0
v -144 -80 0
v -128 -80 0
v -144 -96 0
v -160 -96 0
v -160 -80 0
v -144 -80 0
v -160 -96 0
v -176 -96 0
v -176 -80 0
v -160 -80 0
v -176 -96 0
v -192 -96 0
v -192 -80 0
v -176 -80 0
v -192 -96 0
v -208 -96 0
v -208 -80 0
v -192 -80 0
v -208 -96 0
v -224 -96 0
v -224 -80 0
v -208 -80 0
v -224 -96 0
v -240 -96 0
v -240 -80 0
v -224 -80 0
v -240 -96 0
v -256 -96 0
v -256 -80 0
v -240 -80 0
v 0 -112 0
v -16 -112 0
v -16 -96 0
v 0 -96 0
v -16 -112 0
v -32 -112 0
v -32 -96 0
v -16 -96 0
v -32 -112 0
v -48 -112 0
v -48 -96 0
v -32 -96 0
v -48 -112 0
v -64 -112 0
v -64 -96 0
v -48 -96 0
v -64 -112 0
v -80 -112 0
v -80 -96 0
v -64 -96 0
v -80 -112 0
v -96 -112 0
v -96 -96 0
v -80 -96 0
v -96 -112 0
v -112 -112 0
v -112 -96 0
v -96 -96 0
v -112 -112 0
v -128 -112 0
v -128 -96 0
v -112 -96 0
v -128 -112 0
v -144 -112 0
v -144 -96 0
v -128 -96 0
v -144 -112 0
v -160 -112 0
v -160 -96 0
v -144 -96 0
v -160 -112 0
v -176 -112 0
v -176 -96 0
v -160 -96 0
v -176 -112 0
v -192 -112 0
v -192 -96 0
v -176 -96 0
v -192 -112 0
v -208 -112 0
v -208 -96 0
v -192 -96 0
v -208 -112 0
v -224 -112 0
v -224 -96 0
v -208 -96 0
v -224 -112 0
v -240 -112 0
v -240 -96 0
v -224 -96 0
v -240 -112 0
v -256 -112 0
v -256 -96 0
v -240 -96 0
v 0 -128 0
v -16 -128 0
v -16 -112 0
v 0 -112 0
v -16 -128 0
v -32 -128 0
v -32 -112 0
v -16 -112 0
v -32 -128 0
v -48 -128 0
v -48 -112 0
v -32 -112 0
v -48 -128 0
v -64 -128 0
v -64 -112 0
v -48 -112 0
v -64 -128 0
v -80 -128 0
v -80 -112 0
v -64 -112 0
v -80 -128 0
v -96 -128 0
v -96 -112 0
v -80 -112 0
v -96 -128 0
v -112 -128 0
v -112 -112 0
v -96 -112 0
v -112 -128 0
v -128 -128 0
v -128 -112 0
v -112 -112 0
v -128 -128 0
v -144 -128 0
v -144 -112 0
v -128 -112 0
v -144 -128 0
v -160 -128 0
v -160 -112 0
v -144 -112 0
v -160 -128 0
v -176 -128 0
v -176 -112 0
v -160 -112 0
v -176 -128 0
v -192 -128 0
v -192 -112 0
v -176 -112 0
v -192 -128 0
v -208 -128 0
v -208 -112 0
v -192 -112 0
v -208 -128 0
v -224 -128 0
v -224 -112 0
v -208 -112 0
v -224 -128 0
v -240 -128 0
v -240 -112 0
v -224 -112 0
v -240 -128 0
v -256 -128 0
v -256 -112 0
v -240 -112 0
v 0 -144 0
v -16 -144 0
v -16 -128 0
v 0 -128 0
v -16 -144 0
v -32 -144 0
v -32 -128 0
v -16 -128 0
v -32 -144 0
v -48 -144 0
v -48 -128 0
v -32 -128 0
v -48 -144 0
v -64 -144 0
v -64 -128 0
v -48 -128 0
v -64 -144 0
v -80 -144 0
v -80 -128 0
v -64 -128 0
v -80 -144 0
v -96 -144 0
v -96 -128 0
v -80 -128 0
v -96 -144 0
v -112 -144 0
v -112 -128 0
v -96 -128 0
v -112 -144 0
v -128 -144 0
v -128 -128 0
v -112 -128 0
v -128 -144 0
v -144 -144 0
v -144 -128 0
v -128 -128 0
v -144 -144 0
v -160 -144 0
v -160 -128 0
v -144 -128 0
v -160 -144 0
v -176 -144 0
v -176 -128 0
v -160 -128 0
v -176 -144 0
v -192 -144 0
v -192 -128 0
v -176 -128 0
v -192 -144 0
v -208 -144 0
v -208 -128 0
v -192 -128 0
v -208 -144 0
v -224 -144 0
v -224 -128 0
v -208 -128 0
v -224 -144 0
v -240 -144 0
v -240 -128 0
v -224 -128 0
v -240 -144 0
v -256 -144 0
v -256 -128 0
v -240 -128 0
v 0 -160 0
v -16 -160 0
v -16 -144 0
v 0 -144 0
v -16 -160 0
v -32 -160 0
v -32 -144 0
v -16 -144 0
v -32 -160 0
v -48 -160 0
v -48 -144 0
v -32 -144 0
v -48 -160 0
v -64 -160 0
v -64 -144 0
v -48 -144 0
v -64 -160 0
v -80 -160 0
v -80 -144 0
v -64 -144 0
v -80 -160 0
v -96 -160 0
v -96 -144 0
v -80 -144 0
v -96 -160 0
v -112 -160 0
v -112 -144 0
v -96 -144 0
v -112 -160 0
v -128 -160 0
v -128 -144 0
v -112 -144 0
v -128 -160 0
v -144 -160 0
v -144 -144 0
v -128 -144 0
v -144 -160 0
v -160 -160 0
v -160 -144 0
v -144 -144 0
v -160 -160 0
v -176 -160 0
v -176 -144 0
v -160 -144 0
v -176 -160 0
v -192 -160 0
v -192 -144 0
v -176 -144 0
v -192 -160 0
v -208 -160 0
v -208 -144 0
v -192 -144 0
v -208 -160 0
v -224 -160 0
v -224 -144 0
v -208 -144 0
v -224 -160 0
v -240 -160 0
v -240 -144 0
v -224 -144 0
v -240 -160 0
v -256 -160 0
v -256 -144 0
v -240 -144 0
v 0 -176 0
v -16 -176 0
v -16 -160 0
v 0 -160 0
v -16 -176 0
v -32 -176 0
v -32 -160 0
v -16 -160 0
v -32 -176 0
v -48 -176 0
v -48 -160 0
v -32 -160 0
v -48 -176 0
v -64 -176 0
v -64 -160 0
v -48 -160 0
v -64 -176 0
v -80 -176 0
v -80 -160 0
v -64 -160 0
v -80 -176 0
v -96 -176 0
v -96 -160 0
v -80 -160 0
v -96 -176 0
v -112 -176 0
v -112 -160 0
v -96 -160 0
v -112 -176 0
v -128 -176 0
v -128 -160 0
v -112 -160 0
v -128 -176 0
v -144 -176 0
v -144 -160 0
v -128 -160 0
v -144 -176 0
v -160 -176 0
v -160 -160 0
v -144 -160 0
v -160 -176 0
v -176 -176 0
v -176 -160 0
v -160 -160 0
v -176 -176 0
v -192 -176 0
v -192 -160 0
v -176 -160 0
v -192 -176 0
v -208 -176 0
v -208 -160 0
v -192 -160 0
v -208 -176 0
v -224 -176 0
v -224 -160 0
v -208 -160 0
v -224 -176 0
v -240 -176 0
v -240 -160 0
v -224 -160 0
v -240 -176 0
v -256 -176 0
v -256 -160 0
v -240 -160 0
v 0 -192 0
v -16 -192 0
v -16 -176 0
v 0 -176 0
v -16 -192 0
v -32 -192 0
v -32 -176 0
v -16 -176 0
v -32 -192 0
v -48 -192 0
v -48 -176 0
v -32 -176 0
v -48 -192 0
v -64 -192 0
v -64 -176 0
v -48 -176 0
v -64 -192 0
v -80 -192 0
v -80 -176 0
v -64 -176 0
v -80 -192 0
v -96 -192 0
v -96 -176 0
v -80 -176 0
v -96 -192 0
v -112 -192 0
v -112 -176 0
v -96 -176 0
v -112 -192 0
v -128 -192 0
v -128 -176 0
v -112 -176 0
v -128 -192 0
v -144 -192 0
v -144 -176 0
v -128 -176 0
v -144 -192 0
v -160 -192 0
v -160 -176 0
v -144 -176 0
v -160 -192 0
v -176 -192 0
v -176 -176 0
v -160 -176 0
v -176 -192 0
v -192 -192 0
v -192 -176 0
v -176 -176 0
v -192 -192 0
v -208 -192 0
v -208 -176 0
v -192 -176 0
v -208 -192 0
v -224 -192 0
v -224 -176 0
v -208 -176 0
v -224 -192 0
v -240 -192 0
v -240 -176 0
v -224 -176 0
v -240 -192 0
v -256 -192 0
v -256 -176 0
v -240 -176 0
v 0 -208 0
v -16 -208 0
v -16 -192 0
v 0 -192 0
v -16 -208 0
v -32 -208 0
v -32 -192 0
v -16 -192 0
v -32 -208 0
v -48 -208 0
v -48 -192 0
v -32 -192 0
v -48 -208 0
v -64 -208 0
v -64 -192 0
v -48 -192 0
v -64 -208 0
v -80 -208 0
v -80 -192 0
v -64 -192 0
v -80 -208 0
v -96 -208 0
v -96 -192 0
v -80 -192 0
v -96 -208 0
v -112 -208 0
v -112 -192 0
v -96 -192 0
v -112 -208 0
v -128 -208 0
v -128 -192 0
v -112 -192 0
v -128 -208 0
v -144 -208 0
v -144 -192 0
v -128 -192 0
v -144 -208 0
v -160 -208 0
v -160 -192 0
v -144 -192 0
v -160 -208 0
v -176 -208 0
v -176 -192 0
v -160 -192 0
v -176 -208 0
v -192 -208 0
v -192 -192 0
v -176 -192 0
v -192 -208 0
v -208 -208 0
v -208 -192 0
v -192 -192 0
v -208 -208 0
v -224 -208 0
v -224 -192 0
v -208 -192 0
v -224 -208 0
v -240 -208 0
v -240 -192 0
v -224 -192 0
v -240 -208 0
v -256 -208 0
v -256 -192 0
v -240 -192 0
v 0 -224 0
v -16 -224 0
v -16 -208 0
v 0 -208 0
v -16 -224 0
v -32 -224 0
v -32 -208 0
v -16 -208 0
v -32 -224 0
v -48 -224 0
v -48 -208 0
v -32 -208 0
v -48 -224 0
v -64 -224 0
v -64 -208 0
v -48 -208 0
v -64 -224 0
v -80 -224 0
v -80 -208 0
v -64 -208 0
v -80 -224 0
v -96 -224 0
v -96 -208 0
v -80 -208 0
v -96 -224 0
v -112 -224 0
v -112 -208 0
v -96 -208 0
v -112 -224 0
v -128 -224 0
v -128 -208 0
v -112 -208 0
v -128 -224 0
v -144 -224 0
v -144 -208 0
v -128 -208 0
v -144 -224 0
v -160 -224 0
v -160 -208 0
v -144 -208 0
v -160 -224 0
v -176 -224 0
v -176 -208 0
v -160 -208 0
v -176 -224 0
v -192 -224 0
v -192 -208 0
v -176 -208 0
v -192 -224 0
v -208 -224 0
v -208 -208 0
v -192 -208 0
v -208 -224 0
v -224 -224 0
v -224 -208 0
v -208 -208 0
v -224 -224 0
v -240 -224 0
v -240 -208 0
v -224 -208 0
v -240 -224 0
v -256 -224 0
v -256 -208 0
v -240 -208 0
v 0 -240 0
v -16 -240 0
v -16 -224 0
v 0 -224 0
v -16 -240 0
v -32 -240 0
v -32 -224 0
v -16 -224 0
v -32 -240 0
v -48 -240 0
v -48 -224 0
v -32 -224 0
v -48 -240 0
v -64 -240 0
v -64 -224 0
v -48 -224 0
v -64 -240 0
v -80 -240 0
v -80 -224 0
v -64 -224 0
v -80 -240 0
v -96 -240 0
v -96 -224 0
v -80 -224 0
v -96 -240 0
v -112 -240 0
v -112 -224 0
v -96 -224 0
v -112 -240 0
v -128 -240 0
v -128 -224 0
v -112 -224 0
v -128 -240 0
v -144 -240 0
v -144 -224 0
v -128 -224 0
v -144 -240 0
v -160 -240 0
v -160 -224 0
v -144 -224 0
v -160 -240 0
v -176 -240 0
v -176 -224 0
v -160 -224 0
v -176 -240 0
v -192 -240 0
v -192 -224 0
v -176 -224 0
v -192 -240 0
v -208 -240 0
v -208 -224 0
v -192 -224 0
v -208 -240 0
v -224 -240 0
v -224 -224 0
v -208 -224 0
v -224 -240 0
v -240 -240 0
v -240 -224 0
v -224 -224 0
v -240 -240 0
v -256 -240 0
v -256 -224 0
v -240 -224 0
v 0 -256 0
v -16 -256 0
v -16 -240 0
v 0 -240 0
v -16 -256 0
v -32 -256 0
v -32 -240 0
v -16 -240 0
v -32 -256 0
v -48 -256 0
v -48 -240 0
v -32 -240 0
v -48 -256 0
v -64 -256 0
v -64 -240 0
v -48 -240 0
v -64 -256 0
v -80 -256 0
v -80 -240 0
v -64 -240 0
v -80 -256 0
v -96 -256 0
v -96 -240 0
v -80 -240 0
v -96 -256 0
v -112 -256 0
v -112 -240 0
v -96 -240 0
v -112 -256 0
v -128 -256 0
v -128 -240 0
v -112 -240 0
v -128 -256 0
v -144 -256 0
v -144 -240 0
v -128 -240 0
v -144 -256 0
v -160 -256 0
v -160 -240 0
v -144 -240 0
v -160 -256 0
v -176 -256 0
v -176 -240 0
v -160 -240 0
v -176 -256 0
v -192 -256 0
v -192 -240 0
v -176 -240 0
v -192 -256 0
v -208 -256 0
v -208 -240 0
v -192 -240 0
v -208 -256 0
v -224 -256 0
v -224 -240 0
v -208 -240 0
v -224 -256 0
v -240 -256 0
v -240 -240 0
v -224 -240 0
v -240 -256 0
v -256 -256 0
v -256 -240 0
v -240 -240 0

# Texture cooridinates (Count = 49)
vt 0.01171875 0.4375
vt 0.015625 0.4375
vt 0.015625 0.453125
vt 0.01171875 0.453125
vt 0.015625 0.40625
vt 0.01953125 0.40625
vt 0.01953125 0.421875
vt 0.015625 0.421875
vt 0.0078125 0.453125
vt 0.01171875 0.46875
vt 0.0078125 0.46875
vt 0.0234375 0.453125
vt 0.02734375 0.453125
vt 0.02734375 0.46875
vt 0.0234375 0.46875
vt 0.015625 0.46875
vt 0.01953125 0.46875
vt 0.01953125 0.484375
vt 0.015625 0.484375
vt 0.0234375 0.40625
vt 0.02734375 0.40625
vt 0.02734375 0.421875
vt 0.0234375 0.421875
vt 0.02734375 0.484375
vt 0.0234375 0.484375
vt 0.02734375 0.4375
vt 0.03125 0.4375
vt 0.03125 0.453125
vt 0.01953125 0.4375
vt 0.0234375 0.4375
vt 0.01953125 0.453125
vt 0.03125 0.46875
vt 0.03125 0.484375
vt 0.0078125 0.4375
vt 0.015625 0.390625
vt 0.01953125 0.390625
vt 0.01171875 0.421875
vt 0.0234375 0.390625
vt 0.01171875 0.484375
vt 0.0078125 0.484375
vt 0.03125 0.40625
vt 0.03125 0.421875
vt 0.02734375 0.390625
vt 0.03125 0.390625
vt 0.01171875 0.40625
vt 0.01171875 0.390625
vt 0.0078125 0.40625
vt 0.0078125 0.421875
vt 0.0078125 0.390625

# Normal
vn 0 0 -1

# Mesh description
g TitleIntro_mesh_0049

# Faces
f 1/1/1 2/2/1 3/3/1 4/4/1
f 5/5/1 6/6/1 7/7/1 8/8/1
f 9/9/1 10/4/1 11/10/1 12/11/1
f 13/12/1 14/13/1 15/14/1 16/15/1
f 17/16/1 18/17/1 19/18/1 20/19/1
f 21/20/1 22/21/1 23/22/1 24/23/1
f 25/15/1 26/14/1 27/24/1 28/25/1
f 29/6/1 30/20/1 31/23/1 32/7/1
f 33/26/1 34/27/1 35/28/1 36/13/1
f 37/20/1 38/21/1 39/22/1 40/23/1
f 41/29/1 42/30/1 43/12/1 44/31/1
f 45/14/1 46/32/1 47/33/1 48/24/1
f 49/34/1 50/1/1 51/4/1 52/9/1
f 53/35/1 54/36/1 55/6/1 56/5/1
f 57/26/1 58/27/1 59/28/1 60/13/1
f 61/37/1 62/8/1 63/2/1 64/1/1
f 65/6/1 66/20/1 67/23/1 68/7/1
f 69/17/1 70/15/1 71/25/1 72/18/1
f 73/36/1 74/38/1 75/20/1 76/6/1
f 77/37/1 78/8/1 79/2/1 80/1/1
f 81/14/1 82/32/1 83/33/1 84/24/1
f 85/4/1 86/3/1 87/16/1 88/10/1
f 89/6/1 90/20/1 91/23/1 92/7/1
f 93/7/1 94/23/1 95/30/1 96/29/1
f 97/3/1 98/31/1 99/17/1 100/16/1
f 101/11/1 102/10/1 103/39/1 104/40/1
f 105/31/1 106/12/1 107/15/1 108/17/1
f 109/21/1 110/41/1 111/42/1 112/22/1
f 113/43/1 114/44/1 115/41/1 116/21/1
f 117/4/1 118/3/1 119/16/1 120/10/1
f 121/21/1 122/41/1 123/42/1 124/22/1
f 125/14/1 126/32/1 127/33/1 128/24/1
f 129/13/1 130/28/1 131/32/1 132/14/1
f 133/13/1 134/28/1 135/32/1 136/14/1
f 137/45/1 138/5/1 139/8/1 140/37/1
f 141/5/1 142/6/1 143/7/1 144/8/1
f 145/12/1 146/13/1 147/14/1 148/15/1
f 149/23/1 150/22/1 151/26/1 152/30/1
f 153/38/1 154/43/1 155/21/1 156/20/1
f 157/21/1 158/41/1 159/42/1 160/22/1
f 161/14/1 162/32/1 163/33/1 164/24/1
f 165/46/1 166/35/1 167/5/1 168/45/1
f 169/46/1 170/35/1 171/5/1 172/45/1
f 173/31/1 174/12/1 175/15/1 176/17/1
f 177/10/1 178/16/1 179/19/1 180/39/1
f 181/17/1 182/15/1 183/25/1 184/18/1
f 185/9/1 186/4/1 187/10/1 188/11/1
f 189/35/1 190/36/1 191/6/1 192/5/1
f 193/29/1 194/30/1 195/12/1 196/31/1
f 197/16/1 198/17/1 199/18/1 200/19/1
f 201/13/1 202/28/1 203/32/1 204/14/1
f 205/3/1 206/31/1 207/17/1 208/16/1
f 209/46/1 210/35/1 211/5/1 212/45/1
f 213/8/1 214/7/1 215/29/1 216/2/1
f 217/16/1 218/17/1 219/18/1 220/19/1
f 221/3/1 222/31/1 223/17/1 224/16/1
f 225/17/1 226/15/1 227/25/1 228/18/1
f 229/26/1 230/27/1 231/28/1 232/13/1
f 233/12/1 234/13/1 235/14/1 236/15/1
f 237/43/1 238/44/1 239/41/1 240/21/1
f 241/11/1 242/10/1 243/39/1 244/40/1
f 245/17/1 246/15/1 247/25/1 248/18/1
f 249/47/1 250/45/1 251/37/1 252/48/1
f 253/16/1 254/17/1 255/18/1 256/19/1
f 257/29/1 258/30/1 259/12/1 260/31/1
f 261/8/1 262/7/1 263/29/1 264/2/1
f 265/12/1 266/13/1 267/14/1 268/15/1
f 269/15/1 270/14/1 271/24/1 272/25/1
f 273/38/1 274/43/1 275/21/1 276/20/1
f 277/47/1 278/45/1 279/37/1 280/48/1
f 281/7/1 282/23/1 283/30/1 284/29/1
f 285/17/1 286/15/1 287/25/1 288/18/1
f 289/47/1 290/45/1 291/37/1 292/48/1
f 293/15/1 294/14/1 295/24/1 296/25/1
f 297/48/1 298/37/1 299/1/1 300/34/1
f 301/22/1 302/42/1 303/27/1 304/26/1
f 305/45/1 306/5/1 307/8/1 308/37/1
f 309/5/1 310/6/1 311/7/1 312/8/1
f 313/6/1 314/20/1 315/23/1 316/7/1
f 317/23/1 318/22/1 319/26/1 320/30/1
f 321/12/1 322/13/1 323/14/1 324/15/1
f 325/8/1 326/7/1 327/29/1 328/2/1
f 329/4/1 330/3/1 331/16/1 332/10/1
f 333/30/1 334/26/1 335/13/1 336/12/1
f 337/13/1 338/28/1 339/32/1 340/14/1
f 341/20/1 342/21/1 343/22/1 344/23/1
f 345/7/1 346/23/1 347/30/1 348/29/1
f 349/15/1 350/14/1 351/24/1 352/25/1
f 353/2/1 354/29/1 355/31/1 356/3/1
f 357/38/1 358/43/1 359/21/1 360/20/1
f 361/21/1 362/41/1 363/42/1 364/22/1
f 365/12/1 366/13/1 367/14/1 368/15/1
f 369/21/1 370/41/1 371/42/1 372/22/1
f 373/23/1 374/22/1 375/26/1 376/30/1
f 377/11/1 378/10/1 379/39/1 380/40/1
f 381/11/1 382/10/1 383/39/1 384/40/1
f 385/48/1 386/37/1 387/1/1 388/34/1
f 389/13/1 390/28/1 391/32/1 392/14/1
f 393/26/1 394/27/1 395/28/1 396/13/1
f 397/5/1 398/6/1 399/7/1 400/8/1
f 401/16/1 402/17/1 403/18/1 404/19/1
f 405/49/1 406/46/1 407/45/1 408/47/1
f 409/26/1 410/27/1 411/28/1 412/13/1
f 413/11/1 414/10/1 415/39/1 416/40/1
f 417/16/1 418/17/1 419/18/1 420/19/1
f 421/14/1 422/32/1 423/33/1 424/24/1
f 425/45/1 426/5/1 427/8/1 428/37/1
f 429/12/1 430/13/1 431/14/1 432/15/1
f 433/30/1 434/26/1 435/13/1 436/12/1
f 437/29/1 438/30/1 439/12/1 440/31/1
f 441/5/1 442/6/1 443/7/1 444/8/1
f 445/17/1 446/15/1 447/25/1 448/18/1
f 449/30/1 450/26/1 451/13/1 452/12/1
f 453/22/1 454/42/1 455/27/1 456/26/1
f 457/23/1 458/22/1 459/26/1 460/30/1
f 461/10/1 462/16/1 463/19/1 464/39/1
f 465/9/1 466/4/1 467/10/1 468/11/1
f 469/34/1 470/1/1 471/4/1 472/9/1
f 473/37/1 474/8/1 475/2/1 476/1/1
f 477/26/1 478/27/1 479/28/1 480/13/1
f 481/31/1 482/12/1 483/15/1 484/17/1
f 485/6/1 486/20/1 487/23/1 488/7/1
f 489/14/1 490/32/1 491/33/1 492/24/1
f 493/48/1 494/37/1 495/1/1 496/34/1
f 497/16/1 498/17/1 499/18/1 500/19/1
f 501/2/1 502/29/1 503/31/1 504/3/1
f 505/38/1 506/43/1 507/21/1 508/20/1
f 509/16/1 510/17/1 511/18/1 512/19/1
f 513/5/1 514/6/1 515/7/1 516/8/1
f 517/29/1 518/30/1 519/12/1 520/31/1
f 521/47/1 522/45/1 523/37/1 524/48/1
f 525/22/1 526/42/1 527/27/1 528/26/1
f 529/12/1 530/13/1 531/14/1 532/15/1
f 533/46/1 534/35/1 535/5/1 536/45/1
f 537/4/1 538/3/1 539/16/1 540/10/1
f 541/21/1 542/41/1 543/42/1 544/22/1
f 545/2/1 546/29/1 547/31/1 548/3/1
f 549/1/1 550/2/1 551/3/1 552/4/1
f 553/30/1 554/26/1 555/13/1 556/12/1
f 557/23/1 558/22/1 559/26/1 560/30/1
f 561/43/1 562/44/1 563/41/1 564/21/1
f 565/5/1 566/6/1 567/7/1 568/8/1
f 569/3/1 570/31/1 571/17/1 572/16/1
f 573/4/1 574/3/1 575/16/1 576/10/1
f 577/21/1 578/41/1 579/42/1 580/22/1
f 581/7/1 582/23/1 583/30/1 584/29/1
f 585/8/1 586/7/1 587/29/1 588/2/1
f 589/38/1 590/43/1 591/21/1 592/20/1
f 593/48/1 594/37/1 595/1/1 596/34/1
f 597/36/1 598/38/1 599/20/1 600/6/1
f 601/45/1 602/5/1 603/8/1 604/37/1
f 605/45/1 606/5/1 607/8/1 608/37/1
f 609/5/1 610/6/1 611/7/1 612/8/1
f 613/49/1 614/46/1 615/45/1 616/47/1
f 617/22/1 618/42/1 619/27/1 620/26/1
f 621/5/1 622/6/1 623/7/1 624/8/1
f 625/5/1 626/6/1 627/7/1 628/8/1
f 629/15/1 630/14/1 631/24/1 632/25/1
f 633/7/1 634/23/1 635/30/1 636/29/1
f 637/6/1 638/20/1 639/23/1 640/7/1
f 641/45/1 642/5/1 643/8/1 644/37/1
f 645/20/1 646/21/1 647/22/1 648/23/1
f 649/2/1 650/29/1 651/31/1 652/3/1
f 653/34/1 654/1/1 655/4/1 656/9/1
f 657/38/1 658/43/1 659/21/1 660/20/1
f 661/43/1 662/44/1 663/41/1 664/21/1
f 665/12/1 666/13/1 667/14/1 668/15/1
f 669/6/1 670/20/1 671/23/1 672/7/1
f 673/17/1 674/15/1 675/25/1 676/18/1
f 677/43/1 678/44/1 679/41/1 680/21/1
f 681/12/1 682/13/1 683/14/1 684/15/1
f 685/48/1 686/37/1 687/1/1 688/34/1
f 689/34/1 690/1/1 691/4/1 692/9/1
f 693/47/1 694/45/1 695/37/1 696/48/1
f 697/6/1 698/20/1 699/23/1 700/7/1
f 701/20/1 702/21/1 703/22/1 704/23/1
f 705/48/1 706/37/1 707/1/1 708/34/1
f 709/17/1 710/15/1 711/25/1 712/18/1
f 713/48/1 714/37/1 715/1/1 716/34/1
f 717/9/1 718/4/1 719/10/1 720/11/1
f 721/8/1 722/7/1 723/29/1 724/2/1
f 725/30/1 726/26/1 727/13/1 728/12/1
f 729/12/1 730/13/1 731/14/1 732/15/1
f 733/38/1 734/43/1 735/21/1 736/20/1
f 737/23/1 738/22/1 739/26/1 740/30/1
f 741/6/1 742/20/1 743/23/1 744/7/1
f 745/47/1 746/45/1 747/37/1 748/48/1
f 749/1/1 750/2/1 751/3/1 752/4/1
f 753/21/1 754/41/1 755/42/1 756/22/1
f 757/49/1 758/46/1 759/45/1 760/47/1
f 761/5/1 762/6/1 763/7/1 764/8/1
f 765/31/1 766/12/1 767/15/1 768/17/1
f 769/3/1 770/31/1 771/17/1 772/16/1
f 773/3/1 774/31/1 775/17/1 776/16/1
f 777/46/1 778/35/1 779/5/1 780/45/1
f 781/8/1 782/7/1 783/29/1 784/2/1
f 785/1/1 786/2/1 787/3/1 788/4/1
f 789/17/1 790/15/1 791/25/1 792/18/1
f 793/4/1 794/3/1 795/16/1 796/10/1
f 797/13/1 798/28/1 799/32/1 800/14/1
f 801/34/1 802/1/1 803/4/1 804/9/1
f 805/3/1 806/31/1 807/17/1 808/16/1
f 809/31/1 810/12/1 811/15/1 812/17/1
f 813/43/1 814/44/1 815/41/1 816/21/1
f 817/5/1 818/6/1 819/7/1 820/8/1
f 821/43/1 822/44/1 823/41/1 824/21/1
f 825/1/1 826/2/1 827/3/1 828/4/1
f 829/35/1 830/36/1 831/6/1 832/5/1
f 833/30/1 834/26/1 835/13/1 836/12/1
f 837/4/1 838/3/1 839/16/1 840/10/1
f 841/37/1 842/8/1 843/2/1 844/1/1
f 845/48/1 846/37/1 847/1/1 848/34/1
f 849/47/1 850/45/1 851/37/1 852/48/1
f 853/22/1 854/42/1 855/27/1 856/26/1
f 857/35/1 858/36/1 859/6/1 860/5/1
f 861/8/1 862/7/1 863/29/1 864/2/1
f 865/35/1 866/36/1 867/6/1 868/5/1
f 869/1/1 870/2/1 871/3/1 872/4/1
f 873/13/1 874/28/1 875/32/1 876/14/1
f 877/49/1 878/46/1 879/45/1 880/47/1
f 881/2/1 882/29/1 883/31/1 884/3/1
f 885/23/1 886/22/1 887/26/1 888/30/1
f 889/10/1 890/16/1 891/19/1 892/39/1
f 893/8/1 894/7/1 895/29/1 896/2/1
f 897/45/1 898/5/1 899/8/1 900/37/1
f 901/10/1 902/16/1 903/19/1 904/39/1
f 905/15/1 906/14/1 907/24/1 908/25/1
f 909/31/1 910/12/1 911/15/1 912/17/1
f 913/31/1 914/12/1 915/15/1 916/17/1
f 917/31/1 918/12/1 919/15/1 920/17/1
f 921/12/1 922/13/1 923/14/1 924/15/1
f 925/26/1 926/27/1 927/28/1 928/13/1
f 929/22/1 930/42/1 931/27/1 932/26/1
f 933/15/1 934/14/1 935/24/1 936/25/1
f 937/9/1 938/4/1 939/10/1 940/11/1
f 941/37/1 942/8/1 943/2/1 944/1/1
f 945/47/1 946/45/1 947/37/1 948/48/1
f 949/2/1 950/29/1 951/31/1 952/3/1
f 953/13/1 954/28/1 955/32/1 956/14/1
f 957/3/1 958/31/1 959/17/1 960/16/1
f 961/10/1 962/16/1 963/19/1 964/39/1
f 965/4/1 966/3/1 967/16/1 968/10/1
f 969/7/1 970/23/1 971/30/1 972/29/1
f 973/11/1 974/10/1 975/39/1 976/40/1
f 977/14/1 978/32/1 979/33/1 980/24/1
f 981/13/1 982/28/1 983/32/1 984/14/1
f 985/6/1 986/20/1 987/23/1 988/7/1
f 989/43/1 990/44/1 991/41/1 992/21/1
f 993/8/1 994/7/1 995/29/1 996/2/1
f 997/17/1 998/15/1 999/25/1 1000/18/1
f 1001/17/1 1002/15/1 1003/25/1 1004/18/1
f 1005/17/1 1006/15/1 1007/25/1 1008/18/1
f 1009/9/1 1010/4/1 1011/10/1 1012/11/1
f 1013/21/1 1014/41/1 1015/42/1 1016/22/1
f 1017/14/1 1018/32/1 1019/33/1 1020/24/1
f 1021/35/1 1022/36/1 1023/6/1 1024/5/1

