# Tiled2Unity generated file. Do not modify by hand.
# Wavefront file for 'TitleIntro_mesh_0078.obj'

# Vertices (Count = 1024)
v 0 -16 0
v -16 -16 0
v -16 0 0
v 0 0 0
v -16 -16 0
v -32 -16 0
v -32 0 0
v -16 0 0
v -32 -16 0
v -48 -16 0
v -48 0 0
v -32 0 0
v -48 -16 0
v -64 -16 0
v -64 0 0
v -48 0 0
v -64 -16 0
v -80 -16 0
v -80 0 0
v -64 0 0
v -80 -16 0
v -96 -16 0
v -96 0 0
v -80 0 0
v -96 -16 0
v -112 -16 0
v -112 0 0
v -96 0 0
v -112 -16 0
v -128 -16 0
v -128 0 0
v -112 0 0
v -128 -16 0
v -144 -16 0
v -144 0 0
v -128 0 0
v -144 -16 0
v -160 -16 0
v -160 0 0
v -144 0 0
v -160 -16 0
v -176 -16 0
v -176 0 0
v -160 0 0
v -176 -16 0
v -192 -16 0
v -192 0 0
v -176 0 0
v -192 -16 0
v -208 -16 0
v -208 0 0
v -192 0 0
v -208 -16 0
v -224 -16 0
v -224 0 0
v -208 0 0
v -224 -16 0
v -240 -16 0
v -240 0 0
v -224 0 0
v -240 -16 0
v -256 -16 0
v -256 0 0
v -240 0 0
v 0 -32 0
v -16 -32 0
v -16 -16 0
v 0 -16 0
v -16 -32 0
v -32 -32 0
v -32 -16 0
v -16 -16 0
v -32 -32 0
v -48 -32 0
v -48 -16 0
v -32 -16 0
v -48 -32 0
v -64 -32 0
v -64 -16 0
v -48 -16 0
v -64 -32 0
v -80 -32 0
v -80 -16 0
v -64 -16 0
v -80 -32 0
v -96 -32 0
v -96 -16 0
v -80 -16 0
v -96 -32 0
v -112 -32 0
v -112 -16 0
v -96 -16 0
v -112 -32 0
v -128 -32 0
v -128 -16 0
v -112 -16 0
v -128 -32 0
v -144 -32 0
v -144 -16 0
v -128 -16 0
v -144 -32 0
v -160 -32 0
v -160 -16 0
v -144 -16 0
v -160 -32 0
v -176 -32 0
v -176 -16 0
v -160 -16 0
v -176 -32 0
v -192 -32 0
v -192 -16 0
v -176 -16 0
v -192 -32 0
v -208 -32 0
v -208 -16 0
v -192 -16 0
v -208 -32 0
v -224 -32 0
v -224 -16 0
v -208 -16 0
v -224 -32 0
v -240 -32 0
v -240 -16 0
v -224 -16 0
v -240 -32 0
v -256 -32 0
v -256 -16 0
v -240 -16 0
v 0 -48 0
v -16 -48 0
v -16 -32 0
v 0 -32 0
v -16 -48 0
v -32 -48 0
v -32 -32 0
v -16 -32 0
v -32 -48 0
v -48 -48 0
v -48 -32 0
v -32 -32 0
v -48 -48 0
v -64 -48 0
v -64 -32 0
v -48 -32 0
v -64 -48 0
v -80 -48 0
v -80 -32 0
v -64 -32 0
v -80 -48 0
v -96 -48 0
v -96 -32 0
v -80 -32 0
v -96 -48 0
v -112 -48 0
v -112 -32 0
v -96 -32 0
v -112 -48 0
v -128 -48 0
v -128 -32 0
v -112 -32 0
v -128 -48 0
v -144 -48 0
v -144 -32 0
v -128 -32 0
v -144 -48 0
v -160 -48 0
v -160 -32 0
v -144 -32 0
v -160 -48 0
v -176 -48 0
v -176 -32 0
v -160 -32 0
v -176 -48 0
v -192 -48 0
v -192 -32 0
v -176 -32 0
v -192 -48 0
v -208 -48 0
v -208 -32 0
v -192 -32 0
v -208 -48 0
v -224 -48 0
v -224 -32 0
v -208 -32 0
v -224 -48 0
v -240 -48 0
v -240 -32 0
v -224 -32 0
v -240 -48 0
v -256 -48 0
v -256 -32 0
v -240 -32 0
v 0 -64 0
v -16 -64 0
v -16 -48 0
v 0 -48 0
v -16 -64 0
v -32 -64 0
v -32 -48 0
v -16 -48 0
v -32 -64 0
v -48 -64 0
v -48 -48 0
v -32 -48 0
v -48 -64 0
v -64 -64 0
v -64 -48 0
v -48 -48 0
v -64 -64 0
v -80 -64 0
v -80 -48 0
v -64 -48 0
v -80 -64 0
v -96 -64 0
v -96 -48 0
v -80 -48 0
v -96 -64 0
v -112 -64 0
v -112 -48 0
v -96 -48 0
v -112 -64 0
v -128 -64 0
v -128 -48 0
v -112 -48 0
v -128 -64 0
v -144 -64 0
v -144 -48 0
v -128 -48 0
v -144 -64 0
v -160 -64 0
v -160 -48 0
v -144 -48 0
v -160 -64 0
v -176 -64 0
v -176 -48 0
v -160 -48 0
v -176 -64 0
v -192 -64 0
v -192 -48 0
v -176 -48 0
v -192 -64 0
v -208 -64 0
v -208 -48 0
v -192 -48 0
v -208 -64 0
v -224 -64 0
v -224 -48 0
v -208 -48 0
v -224 -64 0
v -240 -64 0
v -240 -48 0
v -224 -48 0
v -240 -64 0
v -256 -64 0
v -256 -48 0
v -240 -48 0
v 0 -80 0
v -16 -80 0
v -16 -64 0
v 0 -64 0
v -16 -80 0
v -32 -80 0
v -32 -64 0
v -16 -64 0
v -32 -80 0
v -48 -80 0
v -48 -64 0
v -32 -64 0
v -48 -80 0
v -64 -80 0
v -64 -64 0
v -48 -64 0
v -64 -80 0
v -80 -80 0
v -80 -64 0
v -64 -64 0
v -80 -80 0
v -96 -80 0
v -96 -64 0
v -80 -64 0
v -96 -80 0
v -112 -80 0
v -112 -64 0
v -96 -64 0
v -112 -80 0
v -128 -80 0
v -128 -64 0
v -112 -64 0
v -128 -80 0
v -144 -80 0
v -144 -64 0
v -128 -64 0
v -144 -80 0
v -160 -80 0
v -160 -64 0
v -144 -64 0
v -160 -80 0
v -176 -80 0
v -176 -64 0
v -160 -64 0
v -176 -80 0
v -192 -80 0
v -192 -64 0
v -176 -64 0
v -192 -80 0
v -208 -80 0
v -208 -64 0
v -192 -64 0
v -208 -80 0
v -224 -80 0
v -224 -64 0
v -208 -64 0
v -224 -80 0
v -240 -80 0
v -240 -64 0
v -224 -64 0
v -240 -80 0
v -256 -80 0
v -256 -64 0
v -240 -64 0
v 0 -96 0
v -16 -96 0
v -16 -80 0
v 0 -80 0
v -16 -96 0
v -32 -96 0
v -32 -80 0
v -16 -80 0
v -32 -96 0
v -48 -96 0
v -48 -80 0
v -32 -80 0
v -48 -96 0
v -64 -96 0
v -64 -80 0
v -48 -80 0
v -64 -96 0
v -80 -96 0
v -80 -80 0
v -64 -80 0
v -80 -96 0
v -96 -96 0
v -96 -80 0
v -80 -80 0
v -96 -96 0
v -112 -96 0
v -112 -80 0
v -96 -80 0
v -112 -96 0
v -128 -96 0
v -128 -80 0
v -112 -80 0
v -128 -96 0
v -144 -96 0
v -144 -80 0
v -128 -80 0
v -144 -96 0
v -160 -96 0
v -160 -80 0
v -144 -80 0
v -160 -96 0
v -176 -96 0
v -176 -80 0
v -160 -80 0
v -176 -96 0
v -192 -96 0
v -192 -80 0
v -176 -80 0
v -192 -96 0
v -208 -96 0
v -208 -80 0
v -192 -80 0
v -208 -96 0
v -224 -96 0
v -224 -80 0
v -208 -80 0
v -224 -96 0
v -240 -96 0
v -240 -80 0
v -224 -80 0
v -240 -96 0
v -256 -96 0
v -256 -80 0
v -240 -80 0
v 0 -112 0
v -16 -112 0
v -16 -96 0
v 0 -96 0
v -16 -112 0
v -32 -112 0
v -32 -96 0
v -16 -96 0
v -32 -112 0
v -48 -112 0
v -48 -96 0
v -32 -96 0
v -48 -112 0
v -64 -112 0
v -64 -96 0
v -48 -96 0
v -64 -112 0
v -80 -112 0
v -80 -96 0
v -64 -96 0
v -80 -112 0
v -96 -112 0
v -96 -96 0
v -80 -96 0
v -96 -112 0
v -112 -112 0
v -112 -96 0
v -96 -96 0
v -112 -112 0
v -128 -112 0
v -128 -96 0
v -112 -96 0
v -128 -112 0
v -144 -112 0
v -144 -96 0
v -128 -96 0
v -144 -112 0
v -160 -112 0
v -160 -96 0
v -144 -96 0
v -160 -112 0
v -176 -112 0
v -176 -96 0
v -160 -96 0
v -176 -112 0
v -192 -112 0
v -192 -96 0
v -176 -96 0
v -192 -112 0
v -208 -112 0
v -208 -96 0
v -192 -96 0
v -208 -112 0
v -224 -112 0
v -224 -96 0
v -208 -96 0
v -224 -112 0
v -240 -112 0
v -240 -96 0
v -224 -96 0
v -240 -112 0
v -256 -112 0
v -256 -96 0
v -240 -96 0
v 0 -128 0
v -16 -128 0
v -16 -112 0
v 0 -112 0
v -16 -128 0
v -32 -128 0
v -32 -112 0
v -16 -112 0
v -32 -128 0
v -48 -128 0
v -48 -112 0
v -32 -112 0
v -48 -128 0
v -64 -128 0
v -64 -112 0
v -48 -112 0
v -64 -128 0
v -80 -128 0
v -80 -112 0
v -64 -112 0
v -80 -128 0
v -96 -128 0
v -96 -112 0
v -80 -112 0
v -96 -128 0
v -112 -128 0
v -112 -112 0
v -96 -112 0
v -112 -128 0
v -128 -128 0
v -128 -112 0
v -112 -112 0
v -128 -128 0
v -144 -128 0
v -144 -112 0
v -128 -112 0
v -144 -128 0
v -160 -128 0
v -160 -112 0
v -144 -112 0
v -160 -128 0
v -176 -128 0
v -176 -112 0
v -160 -112 0
v -176 -128 0
v -192 -128 0
v -192 -112 0
v -176 -112 0
v -192 -128 0
v -208 -128 0
v -208 -112 0
v -192 -112 0
v -208 -128 0
v -224 -128 0
v -224 -112 0
v -208 -112 0
v -224 -128 0
v -240 -128 0
v -240 -112 0
v -224 -112 0
v -240 -128 0
v -256 -128 0
v -256 -112 0
v -240 -112 0
v 0 -144 0
v -16 -144 0
v -16 -128 0
v 0 -128 0
v -16 -144 0
v -32 -144 0
v -32 -128 0
v -16 -128 0
v -32 -144 0
v -48 -144 0
v -48 -128 0
v -32 -128 0
v -48 -144 0
v -64 -144 0
v -64 -128 0
v -48 -128 0
v -64 -144 0
v -80 -144 0
v -80 -128 0
v -64 -128 0
v -80 -144 0
v -96 -144 0
v -96 -128 0
v -80 -128 0
v -96 -144 0
v -112 -144 0
v -112 -128 0
v -96 -128 0
v -112 -144 0
v -128 -144 0
v -128 -128 0
v -112 -128 0
v -128 -144 0
v -144 -144 0
v -144 -128 0
v -128 -128 0
v -144 -144 0
v -160 -144 0
v -160 -128 0
v -144 -128 0
v -160 -144 0
v -176 -144 0
v -176 -128 0
v -160 -128 0
v -176 -144 0
v -192 -144 0
v -192 -128 0
v -176 -128 0
v -192 -144 0
v -208 -144 0
v -208 -128 0
v -192 -128 0
v -208 -144 0
v -224 -144 0
v -224 -128 0
v -208 -128 0
v -224 -144 0
v -240 -144 0
v -240 -128 0
v -224 -128 0
v -240 -144 0
v -256 -144 0
v -256 -128 0
v -240 -128 0
v 0 -160 0
v -16 -160 0
v -16 -144 0
v 0 -144 0
v -16 -160 0
v -32 -160 0
v -32 -144 0
v -16 -144 0
v -32 -160 0
v -48 -160 0
v -48 -144 0
v -32 -144 0
v -48 -160 0
v -64 -160 0
v -64 -144 0
v -48 -144 0
v -64 -160 0
v -80 -160 0
v -80 -144 0
v -64 -144 0
v -80 -160 0
v -96 -160 0
v -96 -144 0
v -80 -144 0
v -96 -160 0
v -112 -160 0
v -112 -144 0
v -96 -144 0
v -112 -160 0
v -128 -160 0
v -128 -144 0
v -112 -144 0
v -128 -160 0
v -144 -160 0
v -144 -144 0
v -128 -144 0
v -144 -160 0
v -160 -160 0
v -160 -144 0
v -144 -144 0
v -160 -160 0
v -176 -160 0
v -176 -144 0
v -160 -144 0
v -176 -160 0
v -192 -160 0
v -192 -144 0
v -176 -144 0
v -192 -160 0
v -208 -160 0
v -208 -144 0
v -192 -144 0
v -208 -160 0
v -224 -160 0
v -224 -144 0
v -208 -144 0
v -224 -160 0
v -240 -160 0
v -240 -144 0
v -224 -144 0
v -240 -160 0
v -256 -160 0
v -256 -144 0
v -240 -144 0
v 0 -176 0
v -16 -176 0
v -16 -160 0
v 0 -160 0
v -16 -176 0
v -32 -176 0
v -32 -160 0
v -16 -160 0
v -32 -176 0
v -48 -176 0
v -48 -160 0
v -32 -160 0
v -48 -176 0
v -64 -176 0
v -64 -160 0
v -48 -160 0
v -64 -176 0
v -80 -176 0
v -80 -160 0
v -64 -160 0
v -80 -176 0
v -96 -176 0
v -96 -160 0
v -80 -160 0
v -96 -176 0
v -112 -176 0
v -112 -160 0
v -96 -160 0
v -112 -176 0
v -128 -176 0
v -128 -160 0
v -112 -160 0
v -128 -176 0
v -144 -176 0
v -144 -160 0
v -128 -160 0
v -144 -176 0
v -160 -176 0
v -160 -160 0
v -144 -160 0
v -160 -176 0
v -176 -176 0
v -176 -160 0
v -160 -160 0
v -176 -176 0
v -192 -176 0
v -192 -160 0
v -176 -160 0
v -192 -176 0
v -208 -176 0
v -208 -160 0
v -192 -160 0
v -208 -176 0
v -224 -176 0
v -224 -160 0
v -208 -160 0
v -224 -176 0
v -240 -176 0
v -240 -160 0
v -224 -160 0
v -240 -176 0
v -256 -176 0
v -256 -160 0
v -240 -160 0
v 0 -192 0
v -16 -192 0
v -16 -176 0
v 0 -176 0
v -16 -192 0
v -32 -192 0
v -32 -176 0
v -16 -176 0
v -32 -192 0
v -48 -192 0
v -48 -176 0
v -32 -176 0
v -48 -192 0
v -64 -192 0
v -64 -176 0
v -48 -176 0
v -64 -192 0
v -80 -192 0
v -80 -176 0
v -64 -176 0
v -80 -192 0
v -96 -192 0
v -96 -176 0
v -80 -176 0
v -96 -192 0
v -112 -192 0
v -112 -176 0
v -96 -176 0
v -112 -192 0
v -128 -192 0
v -128 -176 0
v -112 -176 0
v -128 -192 0
v -144 -192 0
v -144 -176 0
v -128 -176 0
v -144 -192 0
v -160 -192 0
v -160 -176 0
v -144 -176 0
v -160 -192 0
v -176 -192 0
v -176 -176 0
v -160 -176 0
v -176 -192 0
v -192 -192 0
v -192 -176 0
v -176 -176 0
v -192 -192 0
v -208 -192 0
v -208 -176 0
v -192 -176 0
v -208 -192 0
v -224 -192 0
v -224 -176 0
v -208 -176 0
v -224 -192 0
v -240 -192 0
v -240 -176 0
v -224 -176 0
v -240 -192 0
v -256 -192 0
v -256 -176 0
v -240 -176 0
v 0 -208 0
v -16 -208 0
v -16 -192 0
v 0 -192 0
v -16 -208 0
v -32 -208 0
v -32 -192 0
v -16 -192 0
v -32 -208 0
v -48 -208 0
v -48 -192 0
v -32 -192 0
v -48 -208 0
v -64 -208 0
v -64 -192 0
v -48 -192 0
v -64 -208 0
v -80 -208 0
v -80 -192 0
v -64 -192 0
v -80 -208 0
v -96 -208 0
v -96 -192 0
v -80 -192 0
v -96 -208 0
v -112 -208 0
v -112 -192 0
v -96 -192 0
v -112 -208 0
v -128 -208 0
v -128 -192 0
v -112 -192 0
v -128 -208 0
v -144 -208 0
v -144 -192 0
v -128 -192 0
v -144 -208 0
v -160 -208 0
v -160 -192 0
v -144 -192 0
v -160 -208 0
v -176 -208 0
v -176 -192 0
v -160 -192 0
v -176 -208 0
v -192 -208 0
v -192 -192 0
v -176 -192 0
v -192 -208 0
v -208 -208 0
v -208 -192 0
v -192 -192 0
v -208 -208 0
v -224 -208 0
v -224 -192 0
v -208 -192 0
v -224 -208 0
v -240 -208 0
v -240 -192 0
v -224 -192 0
v -240 -208 0
v -256 -208 0
v -256 -192 0
v -240 -192 0
v 0 -224 0
v -16 -224 0
v -16 -208 0
v 0 -208 0
v -16 -224 0
v -32 -224 0
v -32 -208 0
v -16 -208 0
v -32 -224 0
v -48 -224 0
v -48 -208 0
v -32 -208 0
v -48 -224 0
v -64 -224 0
v -64 -208 0
v -48 -208 0
v -64 -224 0
v -80 -224 0
v -80 -208 0
v -64 -208 0
v -80 -224 0
v -96 -224 0
v -96 -208 0
v -80 -208 0
v -96 -224 0
v -112 -224 0
v -112 -208 0
v -96 -208 0
v -112 -224 0
v -128 -224 0
v -128 -208 0
v -112 -208 0
v -128 -224 0
v -144 -224 0
v -144 -208 0
v -128 -208 0
v -144 -224 0
v -160 -224 0
v -160 -208 0
v -144 -208 0
v -160 -224 0
v -176 -224 0
v -176 -208 0
v -160 -208 0
v -176 -224 0
v -192 -224 0
v -192 -208 0
v -176 -208 0
v -192 -224 0
v -208 -224 0
v -208 -208 0
v -192 -208 0
v -208 -224 0
v -224 -224 0
v -224 -208 0
v -208 -208 0
v -224 -224 0
v -240 -224 0
v -240 -208 0
v -224 -208 0
v -240 -224 0
v -256 -224 0
v -256 -208 0
v -240 -208 0
v 0 -240 0
v -16 -240 0
v -16 -224 0
v 0 -224 0
v -16 -240 0
v -32 -240 0
v -32 -224 0
v -16 -224 0
v -32 -240 0
v -48 -240 0
v -48 -224 0
v -32 -224 0
v -48 -240 0
v -64 -240 0
v -64 -224 0
v -48 -224 0
v -64 -240 0
v -80 -240 0
v -80 -224 0
v -64 -224 0
v -80 -240 0
v -96 -240 0
v -96 -224 0
v -80 -224 0
v -96 -240 0
v -112 -240 0
v -112 -224 0
v -96 -224 0
v -112 -240 0
v -128 -240 0
v -128 -224 0
v -112 -224 0
v -128 -240 0
v -144 -240 0
v -144 -224 0
v -128 -224 0
v -144 -240 0
v -160 -240 0
v -160 -224 0
v -144 -224 0
v -160 -240 0
v -176 -240 0
v -176 -224 0
v -160 -224 0
v -176 -240 0
v -192 -240 0
v -192 -224 0
v -176 -224 0
v -192 -240 0
v -208 -240 0
v -208 -224 0
v -192 -224 0
v -208 -240 0
v -224 -240 0
v -224 -224 0
v -208 -224 0
v -224 -240 0
v -240 -240 0
v -240 -224 0
v -224 -224 0
v -240 -240 0
v -256 -240 0
v -256 -224 0
v -240 -224 0
v 0 -256 0
v -16 -256 0
v -16 -240 0
v 0 -240 0
v -16 -256 0
v -32 -256 0
v -32 -240 0
v -16 -240 0
v -32 -256 0
v -48 -256 0
v -48 -240 0
v -32 -240 0
v -48 -256 0
v -64 -256 0
v -64 -240 0
v -48 -240 0
v -64 -256 0
v -80 -256 0
v -80 -240 0
v -64 -240 0
v -80 -256 0
v -96 -256 0
v -96 -240 0
v -80 -240 0
v -96 -256 0
v -112 -256 0
v -112 -240 0
v -96 -240 0
v -112 -256 0
v -128 -256 0
v -128 -240 0
v -112 -240 0
v -128 -256 0
v -144 -256 0
v -144 -240 0
v -128 -240 0
v -144 -256 0
v -160 -256 0
v -160 -240 0
v -144 -240 0
v -160 -256 0
v -176 -256 0
v -176 -240 0
v -160 -240 0
v -176 -256 0
v -192 -256 0
v -192 -240 0
v -176 -240 0
v -192 -256 0
v -208 -256 0
v -208 -240 0
v -192 -240 0
v -208 -256 0
v -224 -256 0
v -224 -240 0
v -208 -240 0
v -224 -256 0
v -240 -256 0
v -240 -240 0
v -224 -240 0
v -240 -256 0
v -256 -256 0
v -256 -240 0
v -240 -240 0

# Texture cooridinates (Count = 49)
vt 0.0078125 0.40625
vt 0.01171875 0.40625
vt 0.01171875 0.421875
vt 0.0078125 0.421875
vt 0.0234375 0.421875
vt 0.02734375 0.421875
vt 0.02734375 0.4375
vt 0.0234375 0.4375
vt 0.03125 0.421875
vt 0.03125 0.4375
vt 0.015625 0.453125
vt 0.01953125 0.453125
vt 0.01953125 0.46875
vt 0.015625 0.46875
vt 0.015625 0.390625
vt 0.01953125 0.390625
vt 0.01953125 0.40625
vt 0.015625 0.40625
vt 0.01171875 0.46875
vt 0.015625 0.484375
vt 0.01171875 0.484375
vt 0.01171875 0.4375
vt 0.0078125 0.4375
vt 0.0234375 0.453125
vt 0.0234375 0.46875
vt 0.02734375 0.390625
vt 0.03125 0.390625
vt 0.03125 0.40625
vt 0.02734375 0.40625
vt 0.02734375 0.453125
vt 0.03125 0.453125
vt 0.03125 0.46875
vt 0.02734375 0.46875
vt 0.03125 0.484375
vt 0.02734375 0.484375
vt 0.0234375 0.390625
vt 0.0234375 0.40625
vt 0.01171875 0.453125
vt 0.0234375 0.484375
vt 0.01953125 0.421875
vt 0.01953125 0.4375
vt 0.015625 0.421875
vt 0.015625 0.4375
vt 0.01953125 0.484375
vt 0.0078125 0.453125
vt 0.0078125 0.390625
vt 0.01171875 0.390625
vt 0.0078125 0.46875
vt 0.0078125 0.484375

# Normal
vn 0 0 -1

# Mesh description
g TitleIntro_mesh_0078

# Faces
f 1/1/1 2/2/1 3/3/1 4/4/1
f 5/5/1 6/6/1 7/7/1 8/8/1
f 9/6/1 10/9/1 11/10/1 12/7/1
f 13/5/1 14/6/1 15/7/1 16/8/1
f 17/11/1 18/12/1 19/13/1 20/14/1
f 21/15/1 22/16/1 23/17/1 24/18/1
f 25/19/1 26/14/1 27/20/1 28/21/1
f 29/6/1 30/9/1 31/10/1 32/7/1
f 33/15/1 34/16/1 35/17/1 36/18/1
f 37/4/1 38/3/1 39/22/1 40/23/1
f 41/12/1 42/24/1 43/25/1 44/13/1
f 45/26/1 46/27/1 47/28/1 48/29/1
f 49/30/1 50/31/1 51/32/1 52/33/1
f 53/33/1 54/32/1 55/34/1 56/35/1
f 57/16/1 58/36/1 59/37/1 60/17/1
f 61/29/1 62/28/1 63/9/1 64/6/1
f 65/38/1 66/11/1 67/14/1 68/19/1
f 69/5/1 70/6/1 71/7/1 72/8/1
f 73/15/1 74/16/1 75/17/1 76/18/1
f 77/25/1 78/33/1 79/35/1 80/39/1
f 81/19/1 82/14/1 83/20/1 84/21/1
f 85/40/1 86/5/1 87/8/1 88/41/1
f 89/25/1 90/33/1 91/35/1 92/39/1
f 93/19/1 94/14/1 95/20/1 96/21/1
f 97/6/1 98/9/1 99/10/1 100/7/1
f 101/2/1 102/18/1 103/42/1 104/3/1
f 105/22/1 106/43/1 107/11/1 108/38/1
f 109/33/1 110/32/1 111/34/1 112/35/1
f 113/12/1 114/24/1 115/25/1 116/13/1
f 117/2/1 118/18/1 119/42/1 120/3/1
f 121/1/1 122/2/1 123/3/1 124/4/1
f 125/6/1 126/9/1 127/10/1 128/7/1
f 129/13/1 130/25/1 131/39/1 132/44/1
f 133/14/1 134/13/1 135/44/1 136/20/1
f 137/19/1 138/14/1 139/20/1 140/21/1
f 141/23/1 142/22/1 143/38/1 144/45/1
f 145/46/1 146/47/1 147/2/1 148/1/1
f 149/3/1 150/42/1 151/43/1 152/22/1
f 153/22/1 154/43/1 155/11/1 156/38/1
f 157/12/1 158/24/1 159/25/1 160/13/1
f 161/7/1 162/10/1 163/31/1 164/30/1
f 165/29/1 166/28/1 167/9/1 168/6/1
f 169/38/1 170/11/1 171/14/1 172/19/1
f 173/38/1 174/11/1 175/14/1 176/19/1
f 177/42/1 178/40/1 179/41/1 180/43/1
f 181/16/1 182/36/1 183/37/1 184/17/1
f 185/12/1 186/24/1 187/25/1 188/13/1
f 189/12/1 190/24/1 191/25/1 192/13/1
f 193/26/1 194/27/1 195/28/1 196/29/1
f 197/1/1 198/2/1 199/3/1 200/4/1
f 201/24/1 202/30/1 203/33/1 204/25/1
f 205/18/1 206/17/1 207/40/1 208/42/1
f 209/7/1 210/10/1 211/31/1 212/30/1
f 213/33/1 214/32/1 215/34/1 216/35/1
f 217/25/1 218/33/1 219/35/1 220/39/1
f 221/15/1 222/16/1 223/17/1 224/18/1
f 225/5/1 226/6/1 227/7/1 228/8/1
f 229/7/1 230/10/1 231/31/1 232/30/1
f 233/7/1 234/10/1 235/31/1 236/30/1
f 237/3/1 238/42/1 239/43/1 240/22/1
f 241/17/1 242/37/1 243/5/1 244/40/1
f 245/19/1 246/14/1 247/20/1 248/21/1
f 249/29/1 250/28/1 251/9/1 252/6/1
f 253/4/1 254/3/1 255/22/1 256/23/1
f 257/13/1 258/25/1 259/39/1 260/44/1
f 261/6/1 262/9/1 263/10/1 264/7/1
f 265/6/1 266/9/1 267/10/1 268/7/1
f 269/5/1 270/6/1 271/7/1 272/8/1
f 273/26/1 274/27/1 275/28/1 276/29/1
f 277/23/1 278/22/1 279/38/1 280/45/1
f 281/40/1 282/5/1 283/8/1 284/41/1
f 285/17/1 286/37/1 287/5/1 288/40/1
f 289/5/1 290/6/1 291/7/1 292/8/1
f 293/14/1 294/13/1 295/44/1 296/20/1
f 297/6/1 298/9/1 299/10/1 300/7/1
f 301/6/1 302/9/1 303/10/1 304/7/1
f 305/12/1 306/24/1 307/25/1 308/13/1
f 309/24/1 310/30/1 311/33/1 312/25/1
f 313/30/1 314/31/1 315/32/1 316/33/1
f 317/43/1 318/41/1 319/12/1 320/11/1
f 321/30/1 322/31/1 323/32/1 324/33/1
f 325/8/1 326/7/1 327/30/1 328/24/1
f 329/36/1 330/26/1 331/29/1 332/37/1
f 333/30/1 334/31/1 335/32/1 336/33/1
f 337/11/1 338/12/1 339/13/1 340/14/1
f 341/6/1 342/9/1 343/10/1 344/7/1
f 345/36/1 346/26/1 347/29/1 348/37/1
f 349/23/1 350/22/1 351/38/1 352/45/1
f 353/12/1 354/24/1 355/25/1 356/13/1
f 357/43/1 358/41/1 359/12/1 360/11/1
f 361/14/1 362/13/1 363/44/1 364/20/1
f 365/19/1 366/14/1 367/20/1 368/21/1
f 369/2/1 370/18/1 371/42/1 372/3/1
f 373/42/1 374/40/1 375/41/1 376/43/1
f 377/45/1 378/38/1 379/19/1 380/48/1
f 381/11/1 382/12/1 383/13/1 384/14/1
f 385/48/1 386/19/1 387/21/1 388/49/1
f 389/25/1 390/33/1 391/35/1 392/39/1
f 393/16/1 394/36/1 395/37/1 396/17/1
f 397/7/1 398/10/1 399/31/1 400/30/1
f 401/17/1 402/37/1 403/5/1 404/40/1
f 405/16/1 406/36/1 407/37/1 408/17/1
f 409/8/1 410/7/1 411/30/1 412/24/1
f 413/37/1 414/29/1 415/6/1 416/5/1
f 417/40/1 418/5/1 419/8/1 420/41/1
f 421/24/1 422/30/1 423/33/1 424/25/1
f 425/47/1 426/15/1 427/18/1 428/2/1
f 429/14/1 430/13/1 431/44/1 432/20/1
f 433/45/1 434/38/1 435/19/1 436/48/1
f 437/43/1 438/41/1 439/12/1 440/11/1
f 441/15/1 442/16/1 443/17/1 444/18/1
f 445/42/1 446/40/1 447/41/1 448/43/1
f 449/48/1 450/19/1 451/21/1 452/49/1
f 453/36/1 454/26/1 455/29/1 456/37/1
f 457/38/1 458/11/1 459/14/1 460/19/1
f 461/15/1 462/16/1 463/17/1 464/18/1
f 465/5/1 466/6/1 467/7/1 468/8/1
f 469/2/1 470/18/1 471/42/1 472/3/1
f 473/37/1 474/29/1 475/6/1 476/5/1
f 477/2/1 478/18/1 479/42/1 480/3/1
f 481/3/1 482/42/1 483/43/1 484/22/1
f 485/5/1 486/6/1 487/7/1 488/8/1
f 489/30/1 490/31/1 491/32/1 492/33/1
f 493/4/1 494/3/1 495/22/1 496/23/1
f 497/25/1 498/33/1 499/35/1 500/39/1
f 501/41/1 502/8/1 503/24/1 504/12/1
f 505/26/1 506/27/1 507/28/1 508/29/1
f 509/4/1 510/3/1 511/22/1 512/23/1
f 513/14/1 514/13/1 515/44/1 516/20/1
f 517/1/1 518/2/1 519/3/1 520/4/1
f 521/45/1 522/38/1 523/19/1 524/48/1
f 525/41/1 526/8/1 527/24/1 528/12/1
f 529/22/1 530/43/1 531/11/1 532/38/1
f 533/42/1 534/40/1 535/41/1 536/43/1
f 537/37/1 538/29/1 539/6/1 540/5/1
f 541/48/1 542/19/1 543/21/1 544/49/1
f 545/26/1 546/27/1 547/28/1 548/29/1
f 549/23/1 550/22/1 551/38/1 552/45/1
f 553/45/1 554/38/1 555/19/1 556/48/1
f 557/6/1 558/9/1 559/10/1 560/7/1
f 561/14/1 562/13/1 563/44/1 564/20/1
f 565/29/1 566/28/1 567/9/1 568/6/1
f 569/24/1 570/30/1 571/33/1 572/25/1
f 573/12/1 574/24/1 575/25/1 576/13/1
f 577/42/1 578/40/1 579/41/1 580/43/1
f 581/42/1 582/40/1 583/41/1 584/43/1
f 585/24/1 586/30/1 587/33/1 588/25/1
f 589/26/1 590/27/1 591/28/1 592/29/1
f 593/30/1 594/31/1 595/32/1 596/33/1
f 597/40/1 598/5/1 599/8/1 600/41/1
f 601/26/1 602/27/1 603/28/1 604/29/1
f 605/42/1 606/40/1 607/41/1 608/43/1
f 609/11/1 610/12/1 611/13/1 612/14/1
f 613/5/1 614/6/1 615/7/1 616/8/1
f 617/17/1 618/37/1 619/5/1 620/40/1
f 621/29/1 622/28/1 623/9/1 624/6/1
f 625/5/1 626/6/1 627/7/1 628/8/1
f 629/24/1 630/30/1 631/33/1 632/25/1
f 633/41/1 634/8/1 635/24/1 636/12/1
f 637/7/1 638/10/1 639/31/1 640/30/1
f 641/41/1 642/8/1 643/24/1 644/12/1
f 645/18/1 646/17/1 647/40/1 648/42/1
f 649/29/1 650/28/1 651/9/1 652/6/1
f 653/38/1 654/11/1 655/14/1 656/19/1
f 657/37/1 658/29/1 659/6/1 660/5/1
f 661/8/1 662/7/1 663/30/1 664/24/1
f 665/14/1 666/13/1 667/44/1 668/20/1
f 669/17/1 670/37/1 671/5/1 672/40/1
f 673/13/1 674/25/1 675/39/1 676/44/1
f 677/5/1 678/6/1 679/7/1 680/8/1
f 681/2/1 682/18/1 683/42/1 684/3/1
f 685/8/1 686/7/1 687/30/1 688/24/1
f 689/11/1 690/12/1 691/13/1 692/14/1
f 693/22/1 694/43/1 695/11/1 696/38/1
f 697/7/1 698/10/1 699/31/1 700/30/1
f 701/26/1 702/27/1 703/28/1 704/29/1
f 705/19/1 706/14/1 707/20/1 708/21/1
f 709/16/1 710/36/1 711/37/1 712/17/1
f 713/11/1 714/12/1 715/13/1 716/14/1
f 717/43/1 718/41/1 719/12/1 720/11/1
f 721/25/1 722/33/1 723/35/1 724/39/1
f 725/42/1 726/40/1 727/41/1 728/43/1
f 729/7/1 730/10/1 731/31/1 732/30/1
f 733/37/1 734/29/1 735/6/1 736/5/1
f 737/11/1 738/12/1 739/13/1 740/14/1
f 741/40/1 742/5/1 743/8/1 744/41/1
f 745/29/1 746/28/1 747/9/1 748/6/1
f 749/30/1 750/31/1 751/32/1 752/33/1
f 753/3/1 754/42/1 755/43/1 756/22/1
f 757/47/1 758/15/1 759/18/1 760/2/1
f 761/8/1 762/7/1 763/30/1 764/24/1
f 765/5/1 766/6/1 767/7/1 768/8/1
f 769/2/1 770/18/1 771/42/1 772/3/1
f 773/22/1 774/43/1 775/11/1 776/38/1
f 777/16/1 778/36/1 779/37/1 780/17/1
f 781/37/1 782/29/1 783/6/1 784/5/1
f 785/13/1 786/25/1 787/39/1 788/44/1
f 789/15/1 790/16/1 791/17/1 792/18/1
f 793/12/1 794/24/1 795/25/1 796/13/1
f 797/43/1 798/41/1 799/12/1 800/11/1
f 801/19/1 802/14/1 803/20/1 804/21/1
f 805/45/1 806/38/1 807/19/1 808/48/1
f 809/47/1 810/15/1 811/18/1 812/2/1
f 813/33/1 814/32/1 815/34/1 816/35/1
f 817/19/1 818/14/1 819/20/1 820/21/1
f 821/33/1 822/32/1 823/34/1 824/35/1
f 825/4/1 826/3/1 827/22/1 828/23/1
f 829/13/1 830/25/1 831/39/1 832/44/1
f 833/43/1 834/41/1 835/12/1 836/11/1
f 837/22/1 838/43/1 839/11/1 840/38/1
f 841/18/1 842/17/1 843/40/1 844/42/1
f 845/14/1 846/13/1 847/44/1 848/20/1
f 849/23/1 850/22/1 851/38/1 852/45/1
f 853/46/1 854/47/1 855/2/1 856/1/1
f 857/46/1 858/47/1 859/2/1 860/1/1
f 861/29/1 862/28/1 863/9/1 864/6/1
f 865/12/1 866/24/1 867/25/1 868/13/1
f 869/46/1 870/47/1 871/2/1 872/1/1
f 873/22/1 874/43/1 875/11/1 876/38/1
f 877/12/1 878/24/1 879/25/1 880/13/1
f 881/17/1 882/37/1 883/5/1 884/40/1
f 885/13/1 886/25/1 887/39/1 888/44/1
f 889/7/1 890/10/1 891/31/1 892/30/1
f 893/37/1 894/29/1 895/6/1 896/5/1
f 897/46/1 898/47/1 899/2/1 900/1/1
f 901/2/1 902/18/1 903/42/1 904/3/1
f 905/14/1 906/13/1 907/44/1 908/20/1
f 909/30/1 910/31/1 911/32/1 912/33/1
f 913/38/1 914/11/1 915/14/1 916/19/1
f 917/19/1 918/14/1 919/20/1 920/21/1
f 921/16/1 922/36/1 923/37/1 924/17/1
f 925/47/1 926/15/1 927/18/1 928/2/1
f 929/43/1 930/41/1 931/12/1 932/11/1
f 933/8/1 934/7/1 935/30/1 936/24/1
f 937/3/1 938/42/1 939/43/1 940/22/1
f 941/48/1 942/19/1 943/21/1 944/49/1
f 945/17/1 946/37/1 947/5/1 948/40/1
f 949/13/1 950/25/1 951/39/1 952/44/1
f 953/15/1 954/16/1 955/17/1 956/18/1
f 957/14/1 958/13/1 959/44/1 960/20/1
f 961/12/1 962/24/1 963/25/1 964/13/1
f 965/1/1 966/2/1 967/3/1 968/4/1
f 969/38/1 970/11/1 971/14/1 972/19/1
f 973/33/1 974/32/1 975/34/1 976/35/1
f 977/2/1 978/18/1 979/42/1 980/3/1
f 981/7/1 982/10/1 983/31/1 984/30/1
f 985/12/1 986/24/1 987/25/1 988/13/1
f 989/24/1 990/30/1 991/33/1 992/25/1
f 993/17/1 994/37/1 995/5/1 996/40/1
f 997/41/1 998/8/1 999/24/1 1000/12/1
f 1001/26/1 1002/27/1 1003/28/1 1004/29/1
f 1005/24/1 1006/30/1 1007/33/1 1008/25/1
f 1009/5/1 1010/6/1 1011/7/1 1012/8/1
f 1013/19/1 1014/14/1 1015/20/1 1016/21/1
f 1017/19/1 1018/14/1 1019/20/1 1020/21/1
f 1021/41/1 1022/8/1 1023/24/1 1024/12/1

