# Tiled2Unity generated file. Do not modify by hand.
# Wavefront file for 'TitleIntro_mesh_0090.obj'

# Vertices (Count = 384)
v 0 -16 0
v -16 -16 0
v -16 0 0
v 0 0 0
v -16 -16 0
v -32 -16 0
v -32 0 0
v -16 0 0
v -32 -16 0
v -48 -16 0
v -48 0 0
v -32 0 0
v -48 -16 0
v -64 -16 0
v -64 0 0
v -48 0 0
v -64 -16 0
v -80 -16 0
v -80 0 0
v -64 0 0
v -80 -16 0
v -96 -16 0
v -96 0 0
v -80 0 0
v 0 -32 0
v -16 -32 0
v -16 -16 0
v 0 -16 0
v -16 -32 0
v -32 -32 0
v -32 -16 0
v -16 -16 0
v -32 -32 0
v -48 -32 0
v -48 -16 0
v -32 -16 0
v -48 -32 0
v -64 -32 0
v -64 -16 0
v -48 -16 0
v -64 -32 0
v -80 -32 0
v -80 -16 0
v -64 -16 0
v -80 -32 0
v -96 -32 0
v -96 -16 0
v -80 -16 0
v 0 -48 0
v -16 -48 0
v -16 -32 0
v 0 -32 0
v -16 -48 0
v -32 -48 0
v -32 -32 0
v -16 -32 0
v -32 -48 0
v -48 -48 0
v -48 -32 0
v -32 -32 0
v -48 -48 0
v -64 -48 0
v -64 -32 0
v -48 -32 0
v -64 -48 0
v -80 -48 0
v -80 -32 0
v -64 -32 0
v -80 -48 0
v -96 -48 0
v -96 -32 0
v -80 -32 0
v 0 -64 0
v -16 -64 0
v -16 -48 0
v 0 -48 0
v -16 -64 0
v -32 -64 0
v -32 -48 0
v -16 -48 0
v -32 -64 0
v -48 -64 0
v -48 -48 0
v -32 -48 0
v -48 -64 0
v -64 -64 0
v -64 -48 0
v -48 -48 0
v -64 -64 0
v -80 -64 0
v -80 -48 0
v -64 -48 0
v -80 -64 0
v -96 -64 0
v -96 -48 0
v -80 -48 0
v 0 -80 0
v -16 -80 0
v -16 -64 0
v 0 -64 0
v -16 -80 0
v -32 -80 0
v -32 -64 0
v -16 -64 0
v -32 -80 0
v -48 -80 0
v -48 -64 0
v -32 -64 0
v -48 -80 0
v -64 -80 0
v -64 -64 0
v -48 -64 0
v -64 -80 0
v -80 -80 0
v -80 -64 0
v -64 -64 0
v -80 -80 0
v -96 -80 0
v -96 -64 0
v -80 -64 0
v 0 -96 0
v -16 -96 0
v -16 -80 0
v 0 -80 0
v -16 -96 0
v -32 -96 0
v -32 -80 0
v -16 -80 0
v -32 -96 0
v -48 -96 0
v -48 -80 0
v -32 -80 0
v -48 -96 0
v -64 -96 0
v -64 -80 0
v -48 -80 0
v -64 -96 0
v -80 -96 0
v -80 -80 0
v -64 -80 0
v -80 -96 0
v -96 -96 0
v -96 -80 0
v -80 -80 0
v 0 -112 0
v -16 -112 0
v -16 -96 0
v 0 -96 0
v -16 -112 0
v -32 -112 0
v -32 -96 0
v -16 -96 0
v -32 -112 0
v -48 -112 0
v -48 -96 0
v -32 -96 0
v -48 -112 0
v -64 -112 0
v -64 -96 0
v -48 -96 0
v -64 -112 0
v -80 -112 0
v -80 -96 0
v -64 -96 0
v -80 -112 0
v -96 -112 0
v -96 -96 0
v -80 -96 0
v 0 -128 0
v -16 -128 0
v -16 -112 0
v 0 -112 0
v -16 -128 0
v -32 -128 0
v -32 -112 0
v -16 -112 0
v -32 -128 0
v -48 -128 0
v -48 -112 0
v -32 -112 0
v -48 -128 0
v -64 -128 0
v -64 -112 0
v -48 -112 0
v -64 -128 0
v -80 -128 0
v -80 -112 0
v -64 -112 0
v -80 -128 0
v -96 -128 0
v -96 -112 0
v -80 -112 0
v 0 -144 0
v -16 -144 0
v -16 -128 0
v 0 -128 0
v -16 -144 0
v -32 -144 0
v -32 -128 0
v -16 -128 0
v -32 -144 0
v -48 -144 0
v -48 -128 0
v -32 -128 0
v -48 -144 0
v -64 -144 0
v -64 -128 0
v -48 -128 0
v -64 -144 0
v -80 -144 0
v -80 -128 0
v -64 -128 0
v -80 -144 0
v -96 -144 0
v -96 -128 0
v -80 -128 0
v 0 -160 0
v -16 -160 0
v -16 -144 0
v 0 -144 0
v -16 -160 0
v -32 -160 0
v -32 -144 0
v -16 -144 0
v -32 -160 0
v -48 -160 0
v -48 -144 0
v -32 -144 0
v -48 -160 0
v -64 -160 0
v -64 -144 0
v -48 -144 0
v -64 -160 0
v -80 -160 0
v -80 -144 0
v -64 -144 0
v -80 -160 0
v -96 -160 0
v -96 -144 0
v -80 -144 0
v 0 -176 0
v -16 -176 0
v -16 -160 0
v 0 -160 0
v -16 -176 0
v -32 -176 0
v -32 -160 0
v -16 -160 0
v -32 -176 0
v -48 -176 0
v -48 -160 0
v -32 -160 0
v -48 -176 0
v -64 -176 0
v -64 -160 0
v -48 -160 0
v -64 -176 0
v -80 -176 0
v -80 -160 0
v -64 -160 0
v -80 -176 0
v -96 -176 0
v -96 -160 0
v -80 -160 0
v 0 -192 0
v -16 -192 0
v -16 -176 0
v 0 -176 0
v -16 -192 0
v -32 -192 0
v -32 -176 0
v -16 -176 0
v -32 -192 0
v -48 -192 0
v -48 -176 0
v -32 -176 0
v -48 -192 0
v -64 -192 0
v -64 -176 0
v -48 -176 0
v -64 -192 0
v -80 -192 0
v -80 -176 0
v -64 -176 0
v -80 -192 0
v -96 -192 0
v -96 -176 0
v -80 -176 0
v 0 -208 0
v -16 -208 0
v -16 -192 0
v 0 -192 0
v -16 -208 0
v -32 -208 0
v -32 -192 0
v -16 -192 0
v -32 -208 0
v -48 -208 0
v -48 -192 0
v -32 -192 0
v -48 -208 0
v -64 -208 0
v -64 -192 0
v -48 -192 0
v -64 -208 0
v -80 -208 0
v -80 -192 0
v -64 -192 0
v -80 -208 0
v -96 -208 0
v -96 -192 0
v -80 -192 0
v 0 -224 0
v -16 -224 0
v -16 -208 0
v 0 -208 0
v -16 -224 0
v -32 -224 0
v -32 -208 0
v -16 -208 0
v -32 -224 0
v -48 -224 0
v -48 -208 0
v -32 -208 0
v -48 -224 0
v -64 -224 0
v -64 -208 0
v -48 -208 0
v -64 -224 0
v -80 -224 0
v -80 -208 0
v -64 -208 0
v -80 -224 0
v -96 -224 0
v -96 -208 0
v -80 -208 0
v 0 -240 0
v -16 -240 0
v -16 -224 0
v 0 -224 0
v -16 -240 0
v -32 -240 0
v -32 -224 0
v -16 -224 0
v -32 -240 0
v -48 -240 0
v -48 -224 0
v -32 -224 0
v -48 -240 0
v -64 -240 0
v -64 -224 0
v -48 -224 0
v -64 -240 0
v -80 -240 0
v -80 -224 0
v -64 -224 0
v -80 -240 0
v -96 -240 0
v -96 -224 0
v -80 -224 0
v 0 -256 0
v -16 -256 0
v -16 -240 0
v 0 -240 0
v -16 -256 0
v -32 -256 0
v -32 -240 0
v -16 -240 0
v -32 -256 0
v -48 -256 0
v -48 -240 0
v -32 -240 0
v -48 -256 0
v -64 -256 0
v -64 -240 0
v -48 -240 0
v -64 -256 0
v -80 -256 0
v -80 -240 0
v -64 -240 0
v -80 -256 0
v -96 -256 0
v -96 -240 0
v -80 -240 0

# Texture cooridinates (Count = 48)
vt 0.02734375 0.390625
vt 0.03125 0.390625
vt 0.03125 0.40625
vt 0.02734375 0.40625
vt 0.01953125 0.390625
vt 0.0234375 0.390625
vt 0.0234375 0.40625
vt 0.01953125 0.40625
vt 0.01171875 0.421875
vt 0.015625 0.421875
vt 0.015625 0.4375
vt 0.01171875 0.4375
vt 0.0234375 0.421875
vt 0.02734375 0.421875
vt 0.02734375 0.4375
vt 0.0234375 0.4375
vt 0.01171875 0.453125
vt 0.015625 0.453125
vt 0.015625 0.46875
vt 0.01171875 0.46875
vt 0.015625 0.390625
vt 0.015625 0.40625
vt 0.03125 0.4375
vt 0.03125 0.453125
vt 0.02734375 0.453125
vt 0.0078125 0.4375
vt 0.0078125 0.453125
vt 0.0078125 0.46875
vt 0.015625 0.484375
vt 0.01171875 0.484375
vt 0.0234375 0.453125
vt 0.01953125 0.4375
vt 0.01953125 0.453125
vt 0.01953125 0.46875
vt 0.03125 0.421875
vt 0.01953125 0.421875
vt 0.0234375 0.46875
vt 0.02734375 0.46875
vt 0.02734375 0.484375
vt 0.0234375 0.484375
vt 0.0078125 0.40625
vt 0.01171875 0.40625
vt 0.0078125 0.421875
vt 0.0078125 0.484375
vt 0.01171875 0.390625
vt 0.03125 0.46875
vt 0.03125 0.484375
vt 0.01953125 0.484375

# Normal
vn 0 0 -1

# Mesh description
g TitleIntro_mesh_0090

# Faces
f 1/1/1 2/2/1 3/3/1 4/4/1
f 5/5/1 6/6/1 7/7/1 8/8/1
f 9/9/1 10/10/1 11/11/1 12/12/1
f 13/6/1 14/1/1 15/4/1 16/7/1
f 17/13/1 18/14/1 19/15/1 20/16/1
f 21/13/1 22/14/1 23/15/1 24/16/1
f 25/17/1 26/18/1 27/19/1 28/20/1
f 29/21/1 30/5/1 31/8/1 32/22/1
f 33/15/1 34/23/1 35/24/1 36/25/1
f 37/26/1 38/12/1 39/17/1 40/27/1
f 41/27/1 42/17/1 43/20/1 44/28/1
f 45/15/1 46/23/1 47/24/1 48/25/1
f 49/7/1 50/4/1 51/14/1 52/13/1
f 53/21/1 54/5/1 55/8/1 56/22/1
f 57/20/1 58/19/1 59/29/1 60/30/1
f 61/15/1 62/23/1 63/24/1 64/25/1
f 65/16/1 66/15/1 67/25/1 68/31/1
f 69/5/1 70/6/1 71/7/1 72/8/1
f 73/11/1 74/32/1 75/33/1 76/18/1
f 77/20/1 78/19/1 79/29/1 80/30/1
f 81/11/1 82/32/1 83/33/1 84/18/1
f 85/11/1 86/32/1 87/33/1 88/18/1
f 89/18/1 90/33/1 91/34/1 92/19/1
f 93/4/1 94/3/1 95/35/1 96/14/1
f 97/5/1 98/6/1 99/7/1 100/8/1
f 101/8/1 102/7/1 103/13/1 104/36/1
f 105/27/1 106/17/1 107/20/1 108/28/1
f 109/32/1 110/16/1 111/31/1 112/33/1
f 113/37/1 114/38/1 115/39/1 116/40/1
f 117/13/1 118/14/1 119/15/1 120/16/1
f 121/15/1 122/23/1 123/24/1 124/25/1
f 125/32/1 126/16/1 127/31/1 128/33/1
f 129/1/1 130/2/1 131/3/1 132/4/1
f 133/41/1 134/42/1 135/9/1 136/43/1
f 137/41/1 138/42/1 139/9/1 140/43/1
f 141/8/1 142/7/1 143/13/1 144/36/1
f 145/16/1 146/15/1 147/25/1 148/31/1
f 149/42/1 150/22/1 151/10/1 152/9/1
f 153/1/1 154/2/1 155/3/1 156/4/1
f 157/22/1 158/8/1 159/36/1 160/10/1
f 161/37/1 162/38/1 163/39/1 164/40/1
f 165/28/1 166/20/1 167/30/1 168/44/1
f 169/27/1 170/17/1 171/20/1 172/28/1
f 173/13/1 174/14/1 175/15/1 176/16/1
f 177/7/1 178/4/1 179/14/1 180/13/1
f 181/6/1 182/1/1 183/4/1 184/7/1
f 185/41/1 186/42/1 187/9/1 188/43/1
f 189/43/1 190/9/1 191/12/1 192/26/1
f 193/10/1 194/36/1 195/32/1 196/11/1
f 197/13/1 198/14/1 199/15/1 200/16/1
f 201/14/1 202/35/1 203/23/1 204/15/1
f 205/4/1 206/3/1 207/35/1 208/14/1
f 209/28/1 210/20/1 211/30/1 212/44/1
f 213/18/1 214/33/1 215/34/1 216/19/1
f 217/20/1 218/19/1 219/29/1 220/30/1
f 221/8/1 222/7/1 223/13/1 224/36/1
f 225/45/1 226/21/1 227/22/1 228/42/1
f 229/21/1 230/5/1 231/8/1 232/22/1
f 233/17/1 234/18/1 235/19/1 236/20/1
f 237/10/1 238/36/1 239/32/1 240/11/1
f 241/21/1 242/5/1 243/8/1 244/22/1
f 245/17/1 246/18/1 247/19/1 248/20/1
f 249/12/1 250/11/1 251/18/1 252/17/1
f 253/20/1 254/19/1 255/29/1 256/30/1
f 257/28/1 258/20/1 259/30/1 260/44/1
f 261/20/1 262/19/1 263/29/1 264/30/1
f 265/21/1 266/5/1 267/8/1 268/22/1
f 269/10/1 270/36/1 271/32/1 272/11/1
f 273/14/1 274/35/1 275/23/1 276/15/1
f 277/33/1 278/31/1 279/37/1 280/34/1
f 281/5/1 282/6/1 283/7/1 284/8/1
f 285/42/1 286/22/1 287/10/1 288/9/1
f 289/8/1 290/7/1 291/13/1 292/36/1
f 293/42/1 294/22/1 295/10/1 296/9/1
f 297/10/1 298/36/1 299/32/1 300/11/1
f 301/38/1 302/46/1 303/47/1 304/39/1
f 305/20/1 306/19/1 307/29/1 308/30/1
f 309/6/1 310/1/1 311/4/1 312/7/1
f 313/33/1 314/31/1 315/37/1 316/34/1
f 317/25/1 318/24/1 319/46/1 320/38/1
f 321/19/1 322/34/1 323/48/1 324/29/1
f 325/17/1 326/18/1 327/19/1 328/20/1
f 329/8/1 330/7/1 331/13/1 332/36/1
f 333/43/1 334/9/1 335/12/1 336/26/1
f 337/22/1 338/8/1 339/36/1 340/10/1
f 341/18/1 342/33/1 343/34/1 344/19/1
f 345/22/1 346/8/1 347/36/1 348/10/1
f 349/11/1 350/32/1 351/33/1 352/18/1
f 353/25/1 354/24/1 355/46/1 356/38/1
f 357/31/1 358/25/1 359/38/1 360/37/1
f 361/22/1 362/8/1 363/36/1 364/10/1
f 365/19/1 366/34/1 367/48/1 368/29/1
f 369/26/1 370/12/1 371/17/1 372/27/1
f 373/12/1 374/11/1 375/18/1 376/17/1
f 377/25/1 378/24/1 379/46/1 380/38/1
f 381/42/1 382/22/1 383/10/1 384/9/1

