# Tiled2Unity generated file. Do not modify by hand.
# Wavefront file for 'TitleIntro_mesh_0044.obj'

# Vertices (Count = 1024)
v 0 -16 0
v -16 -16 0
v -16 0 0
v 0 0 0
v -16 -16 0
v -32 -16 0
v -32 0 0
v -16 0 0
v -32 -16 0
v -48 -16 0
v -48 0 0
v -32 0 0
v -48 -16 0
v -64 -16 0
v -64 0 0
v -48 0 0
v -64 -16 0
v -80 -16 0
v -80 0 0
v -64 0 0
v -80 -16 0
v -96 -16 0
v -96 0 0
v -80 0 0
v -96 -16 0
v -112 -16 0
v -112 0 0
v -96 0 0
v -112 -16 0
v -128 -16 0
v -128 0 0
v -112 0 0
v -128 -16 0
v -144 -16 0
v -144 0 0
v -128 0 0
v -144 -16 0
v -160 -16 0
v -160 0 0
v -144 0 0
v -160 -16 0
v -176 -16 0
v -176 0 0
v -160 0 0
v -176 -16 0
v -192 -16 0
v -192 0 0
v -176 0 0
v -192 -16 0
v -208 -16 0
v -208 0 0
v -192 0 0
v -208 -16 0
v -224 -16 0
v -224 0 0
v -208 0 0
v -224 -16 0
v -240 -16 0
v -240 0 0
v -224 0 0
v -240 -16 0
v -256 -16 0
v -256 0 0
v -240 0 0
v 0 -32 0
v -16 -32 0
v -16 -16 0
v 0 -16 0
v -16 -32 0
v -32 -32 0
v -32 -16 0
v -16 -16 0
v -32 -32 0
v -48 -32 0
v -48 -16 0
v -32 -16 0
v -48 -32 0
v -64 -32 0
v -64 -16 0
v -48 -16 0
v -64 -32 0
v -80 -32 0
v -80 -16 0
v -64 -16 0
v -80 -32 0
v -96 -32 0
v -96 -16 0
v -80 -16 0
v -96 -32 0
v -112 -32 0
v -112 -16 0
v -96 -16 0
v -112 -32 0
v -128 -32 0
v -128 -16 0
v -112 -16 0
v -128 -32 0
v -144 -32 0
v -144 -16 0
v -128 -16 0
v -144 -32 0
v -160 -32 0
v -160 -16 0
v -144 -16 0
v -160 -32 0
v -176 -32 0
v -176 -16 0
v -160 -16 0
v -176 -32 0
v -192 -32 0
v -192 -16 0
v -176 -16 0
v -192 -32 0
v -208 -32 0
v -208 -16 0
v -192 -16 0
v -208 -32 0
v -224 -32 0
v -224 -16 0
v -208 -16 0
v -224 -32 0
v -240 -32 0
v -240 -16 0
v -224 -16 0
v -240 -32 0
v -256 -32 0
v -256 -16 0
v -240 -16 0
v 0 -48 0
v -16 -48 0
v -16 -32 0
v 0 -32 0
v -16 -48 0
v -32 -48 0
v -32 -32 0
v -16 -32 0
v -32 -48 0
v -48 -48 0
v -48 -32 0
v -32 -32 0
v -48 -48 0
v -64 -48 0
v -64 -32 0
v -48 -32 0
v -64 -48 0
v -80 -48 0
v -80 -32 0
v -64 -32 0
v -80 -48 0
v -96 -48 0
v -96 -32 0
v -80 -32 0
v -96 -48 0
v -112 -48 0
v -112 -32 0
v -96 -32 0
v -112 -48 0
v -128 -48 0
v -128 -32 0
v -112 -32 0
v -128 -48 0
v -144 -48 0
v -144 -32 0
v -128 -32 0
v -144 -48 0
v -160 -48 0
v -160 -32 0
v -144 -32 0
v -160 -48 0
v -176 -48 0
v -176 -32 0
v -160 -32 0
v -176 -48 0
v -192 -48 0
v -192 -32 0
v -176 -32 0
v -192 -48 0
v -208 -48 0
v -208 -32 0
v -192 -32 0
v -208 -48 0
v -224 -48 0
v -224 -32 0
v -208 -32 0
v -224 -48 0
v -240 -48 0
v -240 -32 0
v -224 -32 0
v -240 -48 0
v -256 -48 0
v -256 -32 0
v -240 -32 0
v 0 -64 0
v -16 -64 0
v -16 -48 0
v 0 -48 0
v -16 -64 0
v -32 -64 0
v -32 -48 0
v -16 -48 0
v -32 -64 0
v -48 -64 0
v -48 -48 0
v -32 -48 0
v -48 -64 0
v -64 -64 0
v -64 -48 0
v -48 -48 0
v -64 -64 0
v -80 -64 0
v -80 -48 0
v -64 -48 0
v -80 -64 0
v -96 -64 0
v -96 -48 0
v -80 -48 0
v -96 -64 0
v -112 -64 0
v -112 -48 0
v -96 -48 0
v -112 -64 0
v -128 -64 0
v -128 -48 0
v -112 -48 0
v -128 -64 0
v -144 -64 0
v -144 -48 0
v -128 -48 0
v -144 -64 0
v -160 -64 0
v -160 -48 0
v -144 -48 0
v -160 -64 0
v -176 -64 0
v -176 -48 0
v -160 -48 0
v -176 -64 0
v -192 -64 0
v -192 -48 0
v -176 -48 0
v -192 -64 0
v -208 -64 0
v -208 -48 0
v -192 -48 0
v -208 -64 0
v -224 -64 0
v -224 -48 0
v -208 -48 0
v -224 -64 0
v -240 -64 0
v -240 -48 0
v -224 -48 0
v -240 -64 0
v -256 -64 0
v -256 -48 0
v -240 -48 0
v 0 -80 0
v -16 -80 0
v -16 -64 0
v 0 -64 0
v -16 -80 0
v -32 -80 0
v -32 -64 0
v -16 -64 0
v -32 -80 0
v -48 -80 0
v -48 -64 0
v -32 -64 0
v -48 -80 0
v -64 -80 0
v -64 -64 0
v -48 -64 0
v -64 -80 0
v -80 -80 0
v -80 -64 0
v -64 -64 0
v -80 -80 0
v -96 -80 0
v -96 -64 0
v -80 -64 0
v -96 -80 0
v -112 -80 0
v -112 -64 0
v -96 -64 0
v -112 -80 0
v -128 -80 0
v -128 -64 0
v -112 -64 0
v -128 -80 0
v -144 -80 0
v -144 -64 0
v -128 -64 0
v -144 -80 0
v -160 -80 0
v -160 -64 0
v -144 -64 0
v -160 -80 0
v -176 -80 0
v -176 -64 0
v -160 -64 0
v -176 -80 0
v -192 -80 0
v -192 -64 0
v -176 -64 0
v -192 -80 0
v -208 -80 0
v -208 -64 0
v -192 -64 0
v -208 -80 0
v -224 -80 0
v -224 -64 0
v -208 -64 0
v -224 -80 0
v -240 -80 0
v -240 -64 0
v -224 -64 0
v -240 -80 0
v -256 -80 0
v -256 -64 0
v -240 -64 0
v 0 -96 0
v -16 -96 0
v -16 -80 0
v 0 -80 0
v -16 -96 0
v -32 -96 0
v -32 -80 0
v -16 -80 0
v -32 -96 0
v -48 -96 0
v -48 -80 0
v -32 -80 0
v -48 -96 0
v -64 -96 0
v -64 -80 0
v -48 -80 0
v -64 -96 0
v -80 -96 0
v -80 -80 0
v -64 -80 0
v -80 -96 0
v -96 -96 0
v -96 -80 0
v -80 -80 0
v -96 -96 0
v -112 -96 0
v -112 -80 0
v -96 -80 0
v -112 -96 0
v -128 -96 0
v -128 -80 0
v -112 -80 0
v -128 -96 0
v -144 -96 0
v -144 -80 0
v -128 -80 0
v -144 -96 0
v -160 -96 0
v -160 -80 0
v -144 -80 0
v -160 -96 0
v -176 -96 0
v -176 -80 0
v -160 -80 0
v -176 -96 0
v -192 -96 0
v -192 -80 0
v -176 -80 0
v -192 -96 0
v -208 -96 0
v -208 -80 0
v -192 -80 0
v -208 -96 0
v -224 -96 0
v -224 -80 0
v -208 -80 0
v -224 -96 0
v -240 -96 0
v -240 -80 0
v -224 -80 0
v -240 -96 0
v -256 -96 0
v -256 -80 0
v -240 -80 0
v 0 -112 0
v -16 -112 0
v -16 -96 0
v 0 -96 0
v -16 -112 0
v -32 -112 0
v -32 -96 0
v -16 -96 0
v -32 -112 0
v -48 -112 0
v -48 -96 0
v -32 -96 0
v -48 -112 0
v -64 -112 0
v -64 -96 0
v -48 -96 0
v -64 -112 0
v -80 -112 0
v -80 -96 0
v -64 -96 0
v -80 -112 0
v -96 -112 0
v -96 -96 0
v -80 -96 0
v -96 -112 0
v -112 -112 0
v -112 -96 0
v -96 -96 0
v -112 -112 0
v -128 -112 0
v -128 -96 0
v -112 -96 0
v -128 -112 0
v -144 -112 0
v -144 -96 0
v -128 -96 0
v -144 -112 0
v -160 -112 0
v -160 -96 0
v -144 -96 0
v -160 -112 0
v -176 -112 0
v -176 -96 0
v -160 -96 0
v -176 -112 0
v -192 -112 0
v -192 -96 0
v -176 -96 0
v -192 -112 0
v -208 -112 0
v -208 -96 0
v -192 -96 0
v -208 -112 0
v -224 -112 0
v -224 -96 0
v -208 -96 0
v -224 -112 0
v -240 -112 0
v -240 -96 0
v -224 -96 0
v -240 -112 0
v -256 -112 0
v -256 -96 0
v -240 -96 0
v 0 -128 0
v -16 -128 0
v -16 -112 0
v 0 -112 0
v -16 -128 0
v -32 -128 0
v -32 -112 0
v -16 -112 0
v -32 -128 0
v -48 -128 0
v -48 -112 0
v -32 -112 0
v -48 -128 0
v -64 -128 0
v -64 -112 0
v -48 -112 0
v -64 -128 0
v -80 -128 0
v -80 -112 0
v -64 -112 0
v -80 -128 0
v -96 -128 0
v -96 -112 0
v -80 -112 0
v -96 -128 0
v -112 -128 0
v -112 -112 0
v -96 -112 0
v -112 -128 0
v -128 -128 0
v -128 -112 0
v -112 -112 0
v -128 -128 0
v -144 -128 0
v -144 -112 0
v -128 -112 0
v -144 -128 0
v -160 -128 0
v -160 -112 0
v -144 -112 0
v -160 -128 0
v -176 -128 0
v -176 -112 0
v -160 -112 0
v -176 -128 0
v -192 -128 0
v -192 -112 0
v -176 -112 0
v -192 -128 0
v -208 -128 0
v -208 -112 0
v -192 -112 0
v -208 -128 0
v -224 -128 0
v -224 -112 0
v -208 -112 0
v -224 -128 0
v -240 -128 0
v -240 -112 0
v -224 -112 0
v -240 -128 0
v -256 -128 0
v -256 -112 0
v -240 -112 0
v 0 -144 0
v -16 -144 0
v -16 -128 0
v 0 -128 0
v -16 -144 0
v -32 -144 0
v -32 -128 0
v -16 -128 0
v -32 -144 0
v -48 -144 0
v -48 -128 0
v -32 -128 0
v -48 -144 0
v -64 -144 0
v -64 -128 0
v -48 -128 0
v -64 -144 0
v -80 -144 0
v -80 -128 0
v -64 -128 0
v -80 -144 0
v -96 -144 0
v -96 -128 0
v -80 -128 0
v -96 -144 0
v -112 -144 0
v -112 -128 0
v -96 -128 0
v -112 -144 0
v -128 -144 0
v -128 -128 0
v -112 -128 0
v -128 -144 0
v -144 -144 0
v -144 -128 0
v -128 -128 0
v -144 -144 0
v -160 -144 0
v -160 -128 0
v -144 -128 0
v -160 -144 0
v -176 -144 0
v -176 -128 0
v -160 -128 0
v -176 -144 0
v -192 -144 0
v -192 -128 0
v -176 -128 0
v -192 -144 0
v -208 -144 0
v -208 -128 0
v -192 -128 0
v -208 -144 0
v -224 -144 0
v -224 -128 0
v -208 -128 0
v -224 -144 0
v -240 -144 0
v -240 -128 0
v -224 -128 0
v -240 -144 0
v -256 -144 0
v -256 -128 0
v -240 -128 0
v 0 -160 0
v -16 -160 0
v -16 -144 0
v 0 -144 0
v -16 -160 0
v -32 -160 0
v -32 -144 0
v -16 -144 0
v -32 -160 0
v -48 -160 0
v -48 -144 0
v -32 -144 0
v -48 -160 0
v -64 -160 0
v -64 -144 0
v -48 -144 0
v -64 -160 0
v -80 -160 0
v -80 -144 0
v -64 -144 0
v -80 -160 0
v -96 -160 0
v -96 -144 0
v -80 -144 0
v -96 -160 0
v -112 -160 0
v -112 -144 0
v -96 -144 0
v -112 -160 0
v -128 -160 0
v -128 -144 0
v -112 -144 0
v -128 -160 0
v -144 -160 0
v -144 -144 0
v -128 -144 0
v -144 -160 0
v -160 -160 0
v -160 -144 0
v -144 -144 0
v -160 -160 0
v -176 -160 0
v -176 -144 0
v -160 -144 0
v -176 -160 0
v -192 -160 0
v -192 -144 0
v -176 -144 0
v -192 -160 0
v -208 -160 0
v -208 -144 0
v -192 -144 0
v -208 -160 0
v -224 -160 0
v -224 -144 0
v -208 -144 0
v -224 -160 0
v -240 -160 0
v -240 -144 0
v -224 -144 0
v -240 -160 0
v -256 -160 0
v -256 -144 0
v -240 -144 0
v 0 -176 0
v -16 -176 0
v -16 -160 0
v 0 -160 0
v -16 -176 0
v -32 -176 0
v -32 -160 0
v -16 -160 0
v -32 -176 0
v -48 -176 0
v -48 -160 0
v -32 -160 0
v -48 -176 0
v -64 -176 0
v -64 -160 0
v -48 -160 0
v -64 -176 0
v -80 -176 0
v -80 -160 0
v -64 -160 0
v -80 -176 0
v -96 -176 0
v -96 -160 0
v -80 -160 0
v -96 -176 0
v -112 -176 0
v -112 -160 0
v -96 -160 0
v -112 -176 0
v -128 -176 0
v -128 -160 0
v -112 -160 0
v -128 -176 0
v -144 -176 0
v -144 -160 0
v -128 -160 0
v -144 -176 0
v -160 -176 0
v -160 -160 0
v -144 -160 0
v -160 -176 0
v -176 -176 0
v -176 -160 0
v -160 -160 0
v -176 -176 0
v -192 -176 0
v -192 -160 0
v -176 -160 0
v -192 -176 0
v -208 -176 0
v -208 -160 0
v -192 -160 0
v -208 -176 0
v -224 -176 0
v -224 -160 0
v -208 -160 0
v -224 -176 0
v -240 -176 0
v -240 -160 0
v -224 -160 0
v -240 -176 0
v -256 -176 0
v -256 -160 0
v -240 -160 0
v 0 -192 0
v -16 -192 0
v -16 -176 0
v 0 -176 0
v -16 -192 0
v -32 -192 0
v -32 -176 0
v -16 -176 0
v -32 -192 0
v -48 -192 0
v -48 -176 0
v -32 -176 0
v -48 -192 0
v -64 -192 0
v -64 -176 0
v -48 -176 0
v -64 -192 0
v -80 -192 0
v -80 -176 0
v -64 -176 0
v -80 -192 0
v -96 -192 0
v -96 -176 0
v -80 -176 0
v -96 -192 0
v -112 -192 0
v -112 -176 0
v -96 -176 0
v -112 -192 0
v -128 -192 0
v -128 -176 0
v -112 -176 0
v -128 -192 0
v -144 -192 0
v -144 -176 0
v -128 -176 0
v -144 -192 0
v -160 -192 0
v -160 -176 0
v -144 -176 0
v -160 -192 0
v -176 -192 0
v -176 -176 0
v -160 -176 0
v -176 -192 0
v -192 -192 0
v -192 -176 0
v -176 -176 0
v -192 -192 0
v -208 -192 0
v -208 -176 0
v -192 -176 0
v -208 -192 0
v -224 -192 0
v -224 -176 0
v -208 -176 0
v -224 -192 0
v -240 -192 0
v -240 -176 0
v -224 -176 0
v -240 -192 0
v -256 -192 0
v -256 -176 0
v -240 -176 0
v 0 -208 0
v -16 -208 0
v -16 -192 0
v 0 -192 0
v -16 -208 0
v -32 -208 0
v -32 -192 0
v -16 -192 0
v -32 -208 0
v -48 -208 0
v -48 -192 0
v -32 -192 0
v -48 -208 0
v -64 -208 0
v -64 -192 0
v -48 -192 0
v -64 -208 0
v -80 -208 0
v -80 -192 0
v -64 -192 0
v -80 -208 0
v -96 -208 0
v -96 -192 0
v -80 -192 0
v -96 -208 0
v -112 -208 0
v -112 -192 0
v -96 -192 0
v -112 -208 0
v -128 -208 0
v -128 -192 0
v -112 -192 0
v -128 -208 0
v -144 -208 0
v -144 -192 0
v -128 -192 0
v -144 -208 0
v -160 -208 0
v -160 -192 0
v -144 -192 0
v -160 -208 0
v -176 -208 0
v -176 -192 0
v -160 -192 0
v -176 -208 0
v -192 -208 0
v -192 -192 0
v -176 -192 0
v -192 -208 0
v -208 -208 0
v -208 -192 0
v -192 -192 0
v -208 -208 0
v -224 -208 0
v -224 -192 0
v -208 -192 0
v -224 -208 0
v -240 -208 0
v -240 -192 0
v -224 -192 0
v -240 -208 0
v -256 -208 0
v -256 -192 0
v -240 -192 0
v 0 -224 0
v -16 -224 0
v -16 -208 0
v 0 -208 0
v -16 -224 0
v -32 -224 0
v -32 -208 0
v -16 -208 0
v -32 -224 0
v -48 -224 0
v -48 -208 0
v -32 -208 0
v -48 -224 0
v -64 -224 0
v -64 -208 0
v -48 -208 0
v -64 -224 0
v -80 -224 0
v -80 -208 0
v -64 -208 0
v -80 -224 0
v -96 -224 0
v -96 -208 0
v -80 -208 0
v -96 -224 0
v -112 -224 0
v -112 -208 0
v -96 -208 0
v -112 -224 0
v -128 -224 0
v -128 -208 0
v -112 -208 0
v -128 -224 0
v -144 -224 0
v -144 -208 0
v -128 -208 0
v -144 -224 0
v -160 -224 0
v -160 -208 0
v -144 -208 0
v -160 -224 0
v -176 -224 0
v -176 -208 0
v -160 -208 0
v -176 -224 0
v -192 -224 0
v -192 -208 0
v -176 -208 0
v -192 -224 0
v -208 -224 0
v -208 -208 0
v -192 -208 0
v -208 -224 0
v -224 -224 0
v -224 -208 0
v -208 -208 0
v -224 -224 0
v -240 -224 0
v -240 -208 0
v -224 -208 0
v -240 -224 0
v -256 -224 0
v -256 -208 0
v -240 -208 0
v 0 -240 0
v -16 -240 0
v -16 -224 0
v 0 -224 0
v -16 -240 0
v -32 -240 0
v -32 -224 0
v -16 -224 0
v -32 -240 0
v -48 -240 0
v -48 -224 0
v -32 -224 0
v -48 -240 0
v -64 -240 0
v -64 -224 0
v -48 -224 0
v -64 -240 0
v -80 -240 0
v -80 -224 0
v -64 -224 0
v -80 -240 0
v -96 -240 0
v -96 -224 0
v -80 -224 0
v -96 -240 0
v -112 -240 0
v -112 -224 0
v -96 -224 0
v -112 -240 0
v -128 -240 0
v -128 -224 0
v -112 -224 0
v -128 -240 0
v -144 -240 0
v -144 -224 0
v -128 -224 0
v -144 -240 0
v -160 -240 0
v -160 -224 0
v -144 -224 0
v -160 -240 0
v -176 -240 0
v -176 -224 0
v -160 -224 0
v -176 -240 0
v -192 -240 0
v -192 -224 0
v -176 -224 0
v -192 -240 0
v -208 -240 0
v -208 -224 0
v -192 -224 0
v -208 -240 0
v -224 -240 0
v -224 -224 0
v -208 -224 0
v -224 -240 0
v -240 -240 0
v -240 -224 0
v -224 -224 0
v -240 -240 0
v -256 -240 0
v -256 -224 0
v -240 -224 0
v 0 -256 0
v -16 -256 0
v -16 -240 0
v 0 -240 0
v -16 -256 0
v -32 -256 0
v -32 -240 0
v -16 -240 0
v -32 -256 0
v -48 -256 0
v -48 -240 0
v -32 -240 0
v -48 -256 0
v -64 -256 0
v -64 -240 0
v -48 -240 0
v -64 -256 0
v -80 -256 0
v -80 -240 0
v -64 -240 0
v -80 -256 0
v -96 -256 0
v -96 -240 0
v -80 -240 0
v -96 -256 0
v -112 -256 0
v -112 -240 0
v -96 -240 0
v -112 -256 0
v -128 -256 0
v -128 -240 0
v -112 -240 0
v -128 -256 0
v -144 -256 0
v -144 -240 0
v -128 -240 0
v -144 -256 0
v -160 -256 0
v -160 -240 0
v -144 -240 0
v -160 -256 0
v -176 -256 0
v -176 -240 0
v -160 -240 0
v -176 -256 0
v -192 -256 0
v -192 -240 0
v -176 -240 0
v -192 -256 0
v -208 -256 0
v -208 -240 0
v -192 -240 0
v -208 -256 0
v -224 -256 0
v -224 -240 0
v -208 -240 0
v -224 -256 0
v -240 -256 0
v -240 -240 0
v -224 -240 0
v -240 -256 0
v -256 -256 0
v -256 -240 0
v -240 -240 0

# Texture cooridinates (Count = 49)
vt 0.01171875 0.46875
vt 0.015625 0.46875
vt 0.015625 0.484375
vt 0.01171875 0.484375
vt 0.01171875 0.40625
vt 0.015625 0.40625
vt 0.015625 0.421875
vt 0.01171875 0.421875
vt 0.01953125 0.46875
vt 0.0234375 0.46875
vt 0.0234375 0.484375
vt 0.01953125 0.484375
vt 0.0234375 0.4375
vt 0.02734375 0.4375
vt 0.02734375 0.453125
vt 0.0234375 0.453125
vt 0.0234375 0.421875
vt 0.02734375 0.421875
vt 0.0078125 0.4375
vt 0.01171875 0.4375
vt 0.01171875 0.453125
vt 0.0078125 0.453125
vt 0.0078125 0.46875
vt 0.0078125 0.484375
vt 0.01953125 0.4375
vt 0.01953125 0.453125
vt 0.015625 0.390625
vt 0.01953125 0.390625
vt 0.01953125 0.40625
vt 0.01953125 0.421875
vt 0.0234375 0.40625
vt 0.02734375 0.46875
vt 0.02734375 0.484375
vt 0.015625 0.4375
vt 0.015625 0.453125
vt 0.03125 0.421875
vt 0.03125 0.4375
vt 0.03125 0.453125
vt 0.03125 0.46875
vt 0.0078125 0.421875
vt 0.02734375 0.390625
vt 0.03125 0.390625
vt 0.03125 0.40625
vt 0.02734375 0.40625
vt 0.0078125 0.390625
vt 0.01171875 0.390625
vt 0.0078125 0.40625
vt 0.0234375 0.390625
vt 0.03125 0.484375

# Normal
vn 0 0 -1

# Mesh description
g TitleIntro_mesh_0044

# Faces
f 1/1/1 2/2/1 3/3/1 4/4/1
f 5/5/1 6/6/1 7/7/1 8/8/1
f 9/9/1 10/10/1 11/11/1 12/12/1
f 13/13/1 14/14/1 15/15/1 16/16/1
f 17/17/1 18/18/1 19/14/1 20/13/1
f 21/19/1 22/20/1 23/21/1 24/22/1
f 25/23/1 26/1/1 27/4/1 28/24/1
f 29/25/1 30/13/1 31/16/1 32/26/1
f 33/27/1 34/28/1 35/29/1 36/6/1
f 37/6/1 38/29/1 39/30/1 40/7/1
f 41/29/1 42/31/1 43/17/1 44/30/1
f 45/16/1 46/15/1 47/32/1 48/10/1
f 49/5/1 50/6/1 51/7/1 52/8/1
f 53/10/1 54/32/1 55/33/1 56/11/1
f 57/7/1 58/30/1 59/25/1 60/34/1
f 61/21/1 62/35/1 63/2/1 64/1/1
f 65/27/1 66/28/1 67/29/1 68/6/1
f 69/10/1 70/32/1 71/33/1 72/11/1
f 73/18/1 74/36/1 75/37/1 76/14/1
f 77/8/1 78/7/1 79/34/1 80/20/1
f 81/21/1 82/35/1 83/2/1 84/1/1
f 85/15/1 86/38/1 87/39/1 88/32/1
f 89/34/1 90/25/1 91/26/1 92/35/1
f 93/17/1 94/18/1 95/14/1 96/13/1
f 97/16/1 98/15/1 99/32/1 100/10/1
f 101/10/1 102/32/1 103/33/1 104/11/1
f 105/40/1 106/8/1 107/20/1 108/19/1
f 109/9/1 110/10/1 111/11/1 112/12/1
f 113/41/1 114/42/1 115/43/1 116/44/1
f 117/30/1 118/17/1 119/13/1 120/25/1
f 121/14/1 122/37/1 123/38/1 124/15/1
f 125/27/1 126/28/1 127/29/1 128/6/1
f 129/10/1 130/32/1 131/33/1 132/11/1
f 133/21/1 134/35/1 135/2/1 136/1/1
f 137/35/1 138/26/1 139/9/1 140/2/1
f 141/30/1 142/17/1 143/13/1 144/25/1
f 145/21/1 146/35/1 147/2/1 148/1/1
f 149/6/1 150/29/1 151/30/1 152/7/1
f 153/23/1 154/1/1 155/4/1 156/24/1
f 157/14/1 158/37/1 159/38/1 160/15/1
f 161/44/1 162/43/1 163/36/1 164/18/1
f 165/15/1 166/38/1 167/39/1 168/32/1
f 169/20/1 170/34/1 171/35/1 172/21/1
f 173/26/1 174/16/1 175/10/1 176/9/1
f 177/45/1 178/46/1 179/5/1 180/47/1
f 181/15/1 182/38/1 183/39/1 184/32/1
f 185/35/1 186/26/1 187/9/1 188/2/1
f 189/2/1 190/9/1 191/12/1 192/3/1
f 193/46/1 194/27/1 195/6/1 196/5/1
f 197/14/1 198/37/1 199/38/1 200/15/1
f 201/18/1 202/36/1 203/37/1 204/14/1
f 205/47/1 206/5/1 207/8/1 208/40/1
f 209/19/1 210/20/1 211/21/1 212/22/1
f 213/44/1 214/43/1 215/36/1 216/18/1
f 217/9/1 218/10/1 219/11/1 220/12/1
f 221/40/1 222/8/1 223/20/1 224/19/1
f 225/1/1 226/2/1 227/3/1 228/4/1
f 229/35/1 230/26/1 231/9/1 232/2/1
f 233/46/1 234/27/1 235/6/1 236/5/1
f 237/29/1 238/31/1 239/17/1 240/30/1
f 241/17/1 242/18/1 243/14/1 244/13/1
f 245/23/1 246/1/1 247/4/1 248/24/1
f 249/23/1 250/1/1 251/4/1 252/24/1
f 253/46/1 254/27/1 255/6/1 256/5/1
f 257/48/1 258/41/1 259/44/1 260/31/1
f 261/17/1 262/18/1 263/14/1 264/13/1
f 265/2/1 266/9/1 267/12/1 268/3/1
f 269/31/1 270/44/1 271/18/1 272/17/1
f 273/32/1 274/39/1 275/49/1 276/33/1
f 277/13/1 278/14/1 279/15/1 280/16/1
f 281/2/1 282/9/1 283/12/1 284/3/1
f 285/7/1 286/30/1 287/25/1 288/34/1
f 289/17/1 290/18/1 291/14/1 292/13/1
f 293/29/1 294/31/1 295/17/1 296/30/1
f 297/40/1 298/8/1 299/20/1 300/19/1
f 301/17/1 302/18/1 303/14/1 304/13/1
f 305/16/1 306/15/1 307/32/1 308/10/1
f 309/30/1 310/17/1 311/13/1 312/25/1
f 313/17/1 314/18/1 315/14/1 316/13/1
f 317/29/1 318/31/1 319/17/1 320/30/1
f 321/40/1 322/8/1 323/20/1 324/19/1
f 325/8/1 326/7/1 327/34/1 328/20/1
f 329/10/1 330/32/1 331/33/1 332/11/1
f 333/5/1 334/6/1 335/7/1 336/8/1
f 337/15/1 338/38/1 339/39/1 340/32/1
f 341/18/1 342/36/1 343/37/1 344/14/1
f 345/47/1 346/5/1 347/8/1 348/40/1
f 349/30/1 350/17/1 351/13/1 352/25/1
f 353/30/1 354/17/1 355/13/1 356/25/1
f 357/47/1 358/5/1 359/8/1 360/40/1
f 361/29/1 362/31/1 363/17/1 364/30/1
f 365/10/1 366/32/1 367/33/1 368/11/1
f 369/23/1 370/1/1 371/4/1 372/24/1
f 373/48/1 374/41/1 375/44/1 376/31/1
f 377/22/1 378/21/1 379/1/1 380/23/1
f 381/26/1 382/16/1 383/10/1 384/9/1
f 385/34/1 386/25/1 387/26/1 388/35/1
f 389/19/1 390/20/1 391/21/1 392/22/1
f 393/32/1 394/39/1 395/49/1 396/33/1
f 397/2/1 398/9/1 399/12/1 400/3/1
f 401/14/1 402/37/1 403/38/1 404/15/1
f 405/34/1 406/25/1 407/26/1 408/35/1
f 409/22/1 410/21/1 411/1/1 412/23/1
f 413/44/1 414/43/1 415/36/1 416/18/1
f 417/19/1 418/20/1 419/21/1 420/22/1
f 421/29/1 422/31/1 423/17/1 424/30/1
f 425/45/1 426/46/1 427/5/1 428/47/1
f 429/40/1 430/8/1 431/20/1 432/19/1
f 433/19/1 434/20/1 435/21/1 436/22/1
f 437/15/1 438/38/1 439/39/1 440/32/1
f 441/13/1 442/14/1 443/15/1 444/16/1
f 445/1/1 446/2/1 447/3/1 448/4/1
f 449/5/1 450/6/1 451/7/1 452/8/1
f 453/41/1 454/42/1 455/43/1 456/44/1
f 457/28/1 458/48/1 459/31/1 460/29/1
f 461/10/1 462/32/1 463/33/1 464/11/1
f 465/15/1 466/38/1 467/39/1 468/32/1
f 469/22/1 470/21/1 471/1/1 472/23/1
f 473/48/1 474/41/1 475/44/1 476/31/1
f 477/16/1 478/15/1 479/32/1 480/10/1
f 481/27/1 482/28/1 483/29/1 484/6/1
f 485/5/1 486/6/1 487/7/1 488/8/1
f 489/30/1 490/17/1 491/13/1 492/25/1
f 493/17/1 494/18/1 495/14/1 496/13/1
f 497/25/1 498/13/1 499/16/1 500/26/1
f 501/31/1 502/44/1 503/18/1 504/17/1
f 505/15/1 506/38/1 507/39/1 508/32/1
f 509/26/1 510/16/1 511/10/1 512/9/1
f 513/9/1 514/10/1 515/11/1 516/12/1
f 517/32/1 518/39/1 519/49/1 520/33/1
f 521/20/1 522/34/1 523/35/1 524/21/1
f 525/45/1 526/46/1 527/5/1 528/47/1
f 529/9/1 530/10/1 531/11/1 532/12/1
f 533/14/1 534/37/1 535/38/1 536/15/1
f 537/44/1 538/43/1 539/36/1 540/18/1
f 541/15/1 542/38/1 543/39/1 544/32/1
f 545/18/1 546/36/1 547/37/1 548/14/1
f 549/2/1 550/9/1 551/12/1 552/3/1
f 553/16/1 554/15/1 555/32/1 556/10/1
f 557/7/1 558/30/1 559/25/1 560/34/1
f 561/25/1 562/13/1 563/16/1 564/26/1
f 565/8/1 566/7/1 567/34/1 568/20/1
f 569/26/1 570/16/1 571/10/1 572/9/1
f 573/17/1 574/18/1 575/14/1 576/13/1
f 577/8/1 578/7/1 579/34/1 580/20/1
f 581/10/1 582/32/1 583/33/1 584/11/1
f 585/32/1 586/39/1 587/49/1 588/33/1
f 589/23/1 590/1/1 591/4/1 592/24/1
f 593/40/1 594/8/1 595/20/1 596/19/1
f 597/31/1 598/44/1 599/18/1 600/17/1
f 601/46/1 602/27/1 603/6/1 604/5/1
f 605/31/1 606/44/1 607/18/1 608/17/1
f 609/26/1 610/16/1 611/10/1 612/9/1
f 613/40/1 614/8/1 615/20/1 616/19/1
f 617/35/1 618/26/1 619/9/1 620/2/1
f 621/41/1 622/42/1 623/43/1 624/44/1
f 625/8/1 626/7/1 627/34/1 628/20/1
f 629/10/1 630/32/1 631/33/1 632/11/1
f 633/40/1 634/8/1 635/20/1 636/19/1
f 637/6/1 638/29/1 639/30/1 640/7/1
f 641/19/1 642/20/1 643/21/1 644/22/1
f 645/1/1 646/2/1 647/3/1 648/4/1
f 649/41/1 650/42/1 651/43/1 652/44/1
f 653/15/1 654/38/1 655/39/1 656/32/1
f 657/1/1 658/2/1 659/3/1 660/4/1
f 661/28/1 662/48/1 663/31/1 664/29/1
f 665/23/1 666/1/1 667/4/1 668/24/1
f 669/30/1 670/17/1 671/13/1 672/25/1
f 673/22/1 674/21/1 675/1/1 676/23/1
f 677/28/1 678/48/1 679/31/1 680/29/1
f 681/31/1 682/44/1 683/18/1 684/17/1
f 685/14/1 686/37/1 687/38/1 688/15/1
f 689/23/1 690/1/1 691/4/1 692/24/1
f 693/27/1 694/28/1 695/29/1 696/6/1
f 697/1/1 698/2/1 699/3/1 700/4/1
f 701/29/1 702/31/1 703/17/1 704/30/1
f 705/1/1 706/2/1 707/3/1 708/4/1
f 709/10/1 710/32/1 711/33/1 712/11/1
f 713/41/1 714/42/1 715/43/1 716/44/1
f 717/22/1 718/21/1 719/1/1 720/23/1
f 721/29/1 722/31/1 723/17/1 724/30/1
f 725/25/1 726/13/1 727/16/1 728/26/1
f 729/46/1 730/27/1 731/6/1 732/5/1
f 733/23/1 734/1/1 735/4/1 736/24/1
f 737/48/1 738/41/1 739/44/1 740/31/1
f 741/10/1 742/32/1 743/33/1 744/11/1
f 745/2/1 746/9/1 747/12/1 748/3/1
f 749/1/1 750/2/1 751/3/1 752/4/1
f 753/26/1 754/16/1 755/10/1 756/9/1
f 757/9/1 758/10/1 759/11/1 760/12/1
f 761/2/1 762/9/1 763/12/1 764/3/1
f 765/31/1 766/44/1 767/18/1 768/17/1
f 769/23/1 770/1/1 771/4/1 772/24/1
f 773/5/1 774/6/1 775/7/1 776/8/1
f 777/35/1 778/26/1 779/9/1 780/2/1
f 781/15/1 782/38/1 783/39/1 784/32/1
f 785/5/1 786/6/1 787/7/1 788/8/1
f 789/2/1 790/9/1 791/12/1 792/3/1
f 793/19/1 794/20/1 795/21/1 796/22/1
f 797/5/1 798/6/1 799/7/1 800/8/1
f 801/46/1 802/27/1 803/6/1 804/5/1
f 805/21/1 806/35/1 807/2/1 808/1/1
f 809/2/1 810/9/1 811/12/1 812/3/1
f 813/1/1 814/2/1 815/3/1 816/4/1
f 817/20/1 818/34/1 819/35/1 820/21/1
f 821/48/1 822/41/1 823/44/1 824/31/1
f 825/46/1 826/27/1 827/6/1 828/5/1
f 829/32/1 830/39/1 831/49/1 832/33/1
f 833/19/1 834/20/1 835/21/1 836/22/1
f 837/23/1 838/1/1 839/4/1 840/24/1
f 841/26/1 842/16/1 843/10/1 844/9/1
f 845/15/1 846/38/1 847/39/1 848/32/1
f 849/27/1 850/28/1 851/29/1 852/6/1
f 853/25/1 854/13/1 855/16/1 856/26/1
f 857/34/1 858/25/1 859/26/1 860/35/1
f 861/31/1 862/44/1 863/18/1 864/17/1
f 865/7/1 866/30/1 867/25/1 868/34/1
f 869/31/1 870/44/1 871/18/1 872/17/1
f 873/27/1 874/28/1 875/29/1 876/6/1
f 877/46/1 878/27/1 879/6/1 880/5/1
f 881/21/1 882/35/1 883/2/1 884/1/1
f 885/15/1 886/38/1 887/39/1 888/32/1
f 889/40/1 890/8/1 891/20/1 892/19/1
f 893/15/1 894/38/1 895/39/1 896/32/1
f 897/35/1 898/26/1 899/9/1 900/2/1
f 901/6/1 902/29/1 903/30/1 904/7/1
f 905/9/1 906/10/1 907/11/1 908/12/1
f 909/8/1 910/7/1 911/34/1 912/20/1
f 913/22/1 914/21/1 915/1/1 916/23/1
f 917/23/1 918/1/1 919/4/1 920/24/1
f 921/30/1 922/17/1 923/13/1 924/25/1
f 925/16/1 926/15/1 927/32/1 928/10/1
f 929/47/1 930/5/1 931/8/1 932/40/1
f 933/41/1 934/42/1 935/43/1 936/44/1
f 937/1/1 938/2/1 939/3/1 940/4/1
f 941/9/1 942/10/1 943/11/1 944/12/1
f 945/8/1 946/7/1 947/34/1 948/20/1
f 949/45/1 950/46/1 951/5/1 952/47/1
f 953/8/1 954/7/1 955/34/1 956/20/1
f 957/9/1 958/10/1 959/11/1 960/12/1
f 961/23/1 962/1/1 963/4/1 964/24/1
f 965/28/1 966/48/1 967/31/1 968/29/1
f 969/18/1 970/36/1 971/37/1 972/14/1
f 973/2/1 974/9/1 975/12/1 976/3/1
f 977/26/1 978/16/1 979/10/1 980/9/1
f 981/17/1 982/18/1 983/14/1 984/13/1
f 985/35/1 986/26/1 987/9/1 988/2/1
f 989/30/1 990/17/1 991/13/1 992/25/1
f 993/29/1 994/31/1 995/17/1 996/30/1
f 997/41/1 998/42/1 999/43/1 1000/44/1
f 1001/30/1 1002/17/1 1003/13/1 1004/25/1
f 1005/17/1 1006/18/1 1007/14/1 1008/13/1
f 1009/45/1 1010/46/1 1011/5/1 1012/47/1
f 1013/17/1 1014/18/1 1015/14/1 1016/13/1
f 1017/32/1 1018/39/1 1019/49/1 1020/33/1
f 1021/7/1 1022/30/1 1023/25/1 1024/34/1

