# Tiled2Unity generated file. Do not modify by hand.
# Wavefront file for 'TitleIntro_mesh_0003.obj'

# Vertices (Count = 832)
v 0 -64 0
v -16 -64 0
v -16 -48 0
v 0 -48 0
v -16 -64 0
v -32 -64 0
v -32 -48 0
v -16 -48 0
v -32 -64 0
v -48 -64 0
v -48 -48 0
v -32 -48 0
v -48 -64 0
v -64 -64 0
v -64 -48 0
v -48 -48 0
v -64 -64 0
v -80 -64 0
v -80 -48 0
v -64 -48 0
v -80 -64 0
v -96 -64 0
v -96 -48 0
v -80 -48 0
v -96 -64 0
v -112 -64 0
v -112 -48 0
v -96 -48 0
v -112 -64 0
v -128 -64 0
v -128 -48 0
v -112 -48 0
v -128 -64 0
v -144 -64 0
v -144 -48 0
v -128 -48 0
v -144 -64 0
v -160 -64 0
v -160 -48 0
v -144 -48 0
v -160 -64 0
v -176 -64 0
v -176 -48 0
v -160 -48 0
v -176 -64 0
v -192 -64 0
v -192 -48 0
v -176 -48 0
v -192 -64 0
v -208 -64 0
v -208 -48 0
v -192 -48 0
v -208 -64 0
v -224 -64 0
v -224 -48 0
v -208 -48 0
v -224 -64 0
v -240 -64 0
v -240 -48 0
v -224 -48 0
v -240 -64 0
v -256 -64 0
v -256 -48 0
v -240 -48 0
v 0 -80 0
v -16 -80 0
v -16 -64 0
v 0 -64 0
v -16 -80 0
v -32 -80 0
v -32 -64 0
v -16 -64 0
v -32 -80 0
v -48 -80 0
v -48 -64 0
v -32 -64 0
v -48 -80 0
v -64 -80 0
v -64 -64 0
v -48 -64 0
v -64 -80 0
v -80 -80 0
v -80 -64 0
v -64 -64 0
v -80 -80 0
v -96 -80 0
v -96 -64 0
v -80 -64 0
v -96 -80 0
v -112 -80 0
v -112 -64 0
v -96 -64 0
v -112 -80 0
v -128 -80 0
v -128 -64 0
v -112 -64 0
v -128 -80 0
v -144 -80 0
v -144 -64 0
v -128 -64 0
v -144 -80 0
v -160 -80 0
v -160 -64 0
v -144 -64 0
v -160 -80 0
v -176 -80 0
v -176 -64 0
v -160 -64 0
v -176 -80 0
v -192 -80 0
v -192 -64 0
v -176 -64 0
v -192 -80 0
v -208 -80 0
v -208 -64 0
v -192 -64 0
v -208 -80 0
v -224 -80 0
v -224 -64 0
v -208 -64 0
v -224 -80 0
v -240 -80 0
v -240 -64 0
v -224 -64 0
v -240 -80 0
v -256 -80 0
v -256 -64 0
v -240 -64 0
v 0 -96 0
v -16 -96 0
v -16 -80 0
v 0 -80 0
v -16 -96 0
v -32 -96 0
v -32 -80 0
v -16 -80 0
v -32 -96 0
v -48 -96 0
v -48 -80 0
v -32 -80 0
v -48 -96 0
v -64 -96 0
v -64 -80 0
v -48 -80 0
v -64 -96 0
v -80 -96 0
v -80 -80 0
v -64 -80 0
v -80 -96 0
v -96 -96 0
v -96 -80 0
v -80 -80 0
v -96 -96 0
v -112 -96 0
v -112 -80 0
v -96 -80 0
v -112 -96 0
v -128 -96 0
v -128 -80 0
v -112 -80 0
v -128 -96 0
v -144 -96 0
v -144 -80 0
v -128 -80 0
v -144 -96 0
v -160 -96 0
v -160 -80 0
v -144 -80 0
v -160 -96 0
v -176 -96 0
v -176 -80 0
v -160 -80 0
v -176 -96 0
v -192 -96 0
v -192 -80 0
v -176 -80 0
v -192 -96 0
v -208 -96 0
v -208 -80 0
v -192 -80 0
v -208 -96 0
v -224 -96 0
v -224 -80 0
v -208 -80 0
v -224 -96 0
v -240 -96 0
v -240 -80 0
v -224 -80 0
v -240 -96 0
v -256 -96 0
v -256 -80 0
v -240 -80 0
v 0 -112 0
v -16 -112 0
v -16 -96 0
v 0 -96 0
v -16 -112 0
v -32 -112 0
v -32 -96 0
v -16 -96 0
v -32 -112 0
v -48 -112 0
v -48 -96 0
v -32 -96 0
v -48 -112 0
v -64 -112 0
v -64 -96 0
v -48 -96 0
v -64 -112 0
v -80 -112 0
v -80 -96 0
v -64 -96 0
v -80 -112 0
v -96 -112 0
v -96 -96 0
v -80 -96 0
v -96 -112 0
v -112 -112 0
v -112 -96 0
v -96 -96 0
v -112 -112 0
v -128 -112 0
v -128 -96 0
v -112 -96 0
v -128 -112 0
v -144 -112 0
v -144 -96 0
v -128 -96 0
v -144 -112 0
v -160 -112 0
v -160 -96 0
v -144 -96 0
v -160 -112 0
v -176 -112 0
v -176 -96 0
v -160 -96 0
v -176 -112 0
v -192 -112 0
v -192 -96 0
v -176 -96 0
v -192 -112 0
v -208 -112 0
v -208 -96 0
v -192 -96 0
v -208 -112 0
v -224 -112 0
v -224 -96 0
v -208 -96 0
v -224 -112 0
v -240 -112 0
v -240 -96 0
v -224 -96 0
v -240 -112 0
v -256 -112 0
v -256 -96 0
v -240 -96 0
v 0 -128 0
v -16 -128 0
v -16 -112 0
v 0 -112 0
v -16 -128 0
v -32 -128 0
v -32 -112 0
v -16 -112 0
v -32 -128 0
v -48 -128 0
v -48 -112 0
v -32 -112 0
v -48 -128 0
v -64 -128 0
v -64 -112 0
v -48 -112 0
v -64 -128 0
v -80 -128 0
v -80 -112 0
v -64 -112 0
v -80 -128 0
v -96 -128 0
v -96 -112 0
v -80 -112 0
v -96 -128 0
v -112 -128 0
v -112 -112 0
v -96 -112 0
v -112 -128 0
v -128 -128 0
v -128 -112 0
v -112 -112 0
v -128 -128 0
v -144 -128 0
v -144 -112 0
v -128 -112 0
v -144 -128 0
v -160 -128 0
v -160 -112 0
v -144 -112 0
v -160 -128 0
v -176 -128 0
v -176 -112 0
v -160 -112 0
v -176 -128 0
v -192 -128 0
v -192 -112 0
v -176 -112 0
v -192 -128 0
v -208 -128 0
v -208 -112 0
v -192 -112 0
v -208 -128 0
v -224 -128 0
v -224 -112 0
v -208 -112 0
v -224 -128 0
v -240 -128 0
v -240 -112 0
v -224 -112 0
v -240 -128 0
v -256 -128 0
v -256 -112 0
v -240 -112 0
v 0 -144 0
v -16 -144 0
v -16 -128 0
v 0 -128 0
v -16 -144 0
v -32 -144 0
v -32 -128 0
v -16 -128 0
v -32 -144 0
v -48 -144 0
v -48 -128 0
v -32 -128 0
v -48 -144 0
v -64 -144 0
v -64 -128 0
v -48 -128 0
v -64 -144 0
v -80 -144 0
v -80 -128 0
v -64 -128 0
v -80 -144 0
v -96 -144 0
v -96 -128 0
v -80 -128 0
v -96 -144 0
v -112 -144 0
v -112 -128 0
v -96 -128 0
v -112 -144 0
v -128 -144 0
v -128 -128 0
v -112 -128 0
v -128 -144 0
v -144 -144 0
v -144 -128 0
v -128 -128 0
v -144 -144 0
v -160 -144 0
v -160 -128 0
v -144 -128 0
v -160 -144 0
v -176 -144 0
v -176 -128 0
v -160 -128 0
v -176 -144 0
v -192 -144 0
v -192 -128 0
v -176 -128 0
v -192 -144 0
v -208 -144 0
v -208 -128 0
v -192 -128 0
v -208 -144 0
v -224 -144 0
v -224 -128 0
v -208 -128 0
v -224 -144 0
v -240 -144 0
v -240 -128 0
v -224 -128 0
v -240 -144 0
v -256 -144 0
v -256 -128 0
v -240 -128 0
v 0 -160 0
v -16 -160 0
v -16 -144 0
v 0 -144 0
v -16 -160 0
v -32 -160 0
v -32 -144 0
v -16 -144 0
v -32 -160 0
v -48 -160 0
v -48 -144 0
v -32 -144 0
v -48 -160 0
v -64 -160 0
v -64 -144 0
v -48 -144 0
v -64 -160 0
v -80 -160 0
v -80 -144 0
v -64 -144 0
v -80 -160 0
v -96 -160 0
v -96 -144 0
v -80 -144 0
v -96 -160 0
v -112 -160 0
v -112 -144 0
v -96 -144 0
v -112 -160 0
v -128 -160 0
v -128 -144 0
v -112 -144 0
v -128 -160 0
v -144 -160 0
v -144 -144 0
v -128 -144 0
v -144 -160 0
v -160 -160 0
v -160 -144 0
v -144 -144 0
v -160 -160 0
v -176 -160 0
v -176 -144 0
v -160 -144 0
v -176 -160 0
v -192 -160 0
v -192 -144 0
v -176 -144 0
v -192 -160 0
v -208 -160 0
v -208 -144 0
v -192 -144 0
v -208 -160 0
v -224 -160 0
v -224 -144 0
v -208 -144 0
v -224 -160 0
v -240 -160 0
v -240 -144 0
v -224 -144 0
v -240 -160 0
v -256 -160 0
v -256 -144 0
v -240 -144 0
v 0 -176 0
v -16 -176 0
v -16 -160 0
v 0 -160 0
v -16 -176 0
v -32 -176 0
v -32 -160 0
v -16 -160 0
v -32 -176 0
v -48 -176 0
v -48 -160 0
v -32 -160 0
v -48 -176 0
v -64 -176 0
v -64 -160 0
v -48 -160 0
v -64 -176 0
v -80 -176 0
v -80 -160 0
v -64 -160 0
v -80 -176 0
v -96 -176 0
v -96 -160 0
v -80 -160 0
v -96 -176 0
v -112 -176 0
v -112 -160 0
v -96 -160 0
v -112 -176 0
v -128 -176 0
v -128 -160 0
v -112 -160 0
v -128 -176 0
v -144 -176 0
v -144 -160 0
v -128 -160 0
v -144 -176 0
v -160 -176 0
v -160 -160 0
v -144 -160 0
v -160 -176 0
v -176 -176 0
v -176 -160 0
v -160 -160 0
v -176 -176 0
v -192 -176 0
v -192 -160 0
v -176 -160 0
v -192 -176 0
v -208 -176 0
v -208 -160 0
v -192 -160 0
v -208 -176 0
v -224 -176 0
v -224 -160 0
v -208 -160 0
v -224 -176 0
v -240 -176 0
v -240 -160 0
v -224 -160 0
v -240 -176 0
v -256 -176 0
v -256 -160 0
v -240 -160 0
v 0 -192 0
v -16 -192 0
v -16 -176 0
v 0 -176 0
v -16 -192 0
v -32 -192 0
v -32 -176 0
v -16 -176 0
v -32 -192 0
v -48 -192 0
v -48 -176 0
v -32 -176 0
v -48 -192 0
v -64 -192 0
v -64 -176 0
v -48 -176 0
v -64 -192 0
v -80 -192 0
v -80 -176 0
v -64 -176 0
v -80 -192 0
v -96 -192 0
v -96 -176 0
v -80 -176 0
v -96 -192 0
v -112 -192 0
v -112 -176 0
v -96 -176 0
v -112 -192 0
v -128 -192 0
v -128 -176 0
v -112 -176 0
v -128 -192 0
v -144 -192 0
v -144 -176 0
v -128 -176 0
v -144 -192 0
v -160 -192 0
v -160 -176 0
v -144 -176 0
v -160 -192 0
v -176 -192 0
v -176 -176 0
v -160 -176 0
v -176 -192 0
v -192 -192 0
v -192 -176 0
v -176 -176 0
v -192 -192 0
v -208 -192 0
v -208 -176 0
v -192 -176 0
v -208 -192 0
v -224 -192 0
v -224 -176 0
v -208 -176 0
v -224 -192 0
v -240 -192 0
v -240 -176 0
v -224 -176 0
v -240 -192 0
v -256 -192 0
v -256 -176 0
v -240 -176 0
v 0 -208 0
v -16 -208 0
v -16 -192 0
v 0 -192 0
v -16 -208 0
v -32 -208 0
v -32 -192 0
v -16 -192 0
v -32 -208 0
v -48 -208 0
v -48 -192 0
v -32 -192 0
v -48 -208 0
v -64 -208 0
v -64 -192 0
v -48 -192 0
v -64 -208 0
v -80 -208 0
v -80 -192 0
v -64 -192 0
v -80 -208 0
v -96 -208 0
v -96 -192 0
v -80 -192 0
v -96 -208 0
v -112 -208 0
v -112 -192 0
v -96 -192 0
v -112 -208 0
v -128 -208 0
v -128 -192 0
v -112 -192 0
v -128 -208 0
v -144 -208 0
v -144 -192 0
v -128 -192 0
v -144 -208 0
v -160 -208 0
v -160 -192 0
v -144 -192 0
v -160 -208 0
v -176 -208 0
v -176 -192 0
v -160 -192 0
v -176 -208 0
v -192 -208 0
v -192 -192 0
v -176 -192 0
v -192 -208 0
v -208 -208 0
v -208 -192 0
v -192 -192 0
v -208 -208 0
v -224 -208 0
v -224 -192 0
v -208 -192 0
v -224 -208 0
v -240 -208 0
v -240 -192 0
v -224 -192 0
v -240 -208 0
v -256 -208 0
v -256 -192 0
v -240 -192 0
v 0 -224 0
v -16 -224 0
v -16 -208 0
v 0 -208 0
v -16 -224 0
v -32 -224 0
v -32 -208 0
v -16 -208 0
v -32 -224 0
v -48 -224 0
v -48 -208 0
v -32 -208 0
v -48 -224 0
v -64 -224 0
v -64 -208 0
v -48 -208 0
v -64 -224 0
v -80 -224 0
v -80 -208 0
v -64 -208 0
v -80 -224 0
v -96 -224 0
v -96 -208 0
v -80 -208 0
v -96 -224 0
v -112 -224 0
v -112 -208 0
v -96 -208 0
v -112 -224 0
v -128 -224 0
v -128 -208 0
v -112 -208 0
v -128 -224 0
v -144 -224 0
v -144 -208 0
v -128 -208 0
v -144 -224 0
v -160 -224 0
v -160 -208 0
v -144 -208 0
v -160 -224 0
v -176 -224 0
v -176 -208 0
v -160 -208 0
v -176 -224 0
v -192 -224 0
v -192 -208 0
v -176 -208 0
v -192 -224 0
v -208 -224 0
v -208 -208 0
v -192 -208 0
v -208 -224 0
v -224 -224 0
v -224 -208 0
v -208 -208 0
v -224 -224 0
v -240 -224 0
v -240 -208 0
v -224 -208 0
v -240 -224 0
v -256 -224 0
v -256 -208 0
v -240 -208 0
v 0 -240 0
v -16 -240 0
v -16 -224 0
v 0 -224 0
v -16 -240 0
v -32 -240 0
v -32 -224 0
v -16 -224 0
v -32 -240 0
v -48 -240 0
v -48 -224 0
v -32 -224 0
v -48 -240 0
v -64 -240 0
v -64 -224 0
v -48 -224 0
v -64 -240 0
v -80 -240 0
v -80 -224 0
v -64 -224 0
v -80 -240 0
v -96 -240 0
v -96 -224 0
v -80 -224 0
v -96 -240 0
v -112 -240 0
v -112 -224 0
v -96 -224 0
v -112 -240 0
v -128 -240 0
v -128 -224 0
v -112 -224 0
v -128 -240 0
v -144 -240 0
v -144 -224 0
v -128 -224 0
v -144 -240 0
v -160 -240 0
v -160 -224 0
v -144 -224 0
v -160 -240 0
v -176 -240 0
v -176 -224 0
v -160 -224 0
v -176 -240 0
v -192 -240 0
v -192 -224 0
v -176 -224 0
v -192 -240 0
v -208 -240 0
v -208 -224 0
v -192 -224 0
v -208 -240 0
v -224 -240 0
v -224 -224 0
v -208 -224 0
v -224 -240 0
v -240 -240 0
v -240 -224 0
v -224 -224 0
v -240 -240 0
v -256 -240 0
v -256 -224 0
v -240 -224 0
v 0 -256 0
v -16 -256 0
v -16 -240 0
v 0 -240 0
v -16 -256 0
v -32 -256 0
v -32 -240 0
v -16 -240 0
v -32 -256 0
v -48 -256 0
v -48 -240 0
v -32 -240 0
v -48 -256 0
v -64 -256 0
v -64 -240 0
v -48 -240 0
v -64 -256 0
v -80 -256 0
v -80 -240 0
v -64 -240 0
v -80 -256 0
v -96 -256 0
v -96 -240 0
v -80 -240 0
v -96 -256 0
v -112 -256 0
v -112 -240 0
v -96 -240 0
v -112 -256 0
v -128 -256 0
v -128 -240 0
v -112 -240 0
v -128 -256 0
v -144 -256 0
v -144 -240 0
v -128 -240 0
v -144 -256 0
v -160 -256 0
v -160 -240 0
v -144 -240 0
v -160 -256 0
v -176 -256 0
v -176 -240 0
v -160 -240 0
v -176 -256 0
v -192 -256 0
v -192 -240 0
v -176 -240 0
v -192 -256 0
v -208 -256 0
v -208 -240 0
v -192 -240 0
v -208 -256 0
v -224 -256 0
v -224 -240 0
v -208 -240 0
v -224 -256 0
v -240 -256 0
v -240 -240 0
v -224 -240 0
v -240 -256 0
v -256 -256 0
v -256 -240 0
v -240 -240 0

# Texture cooridinates (Count = 49)
vt 0.015625 0.46875
vt 0.01953125 0.46875
vt 0.01953125 0.484375
vt 0.015625 0.484375
vt 0.01171875 0.390625
vt 0.015625 0.390625
vt 0.015625 0.40625
vt 0.01171875 0.40625
vt 0.0234375 0.46875
vt 0.02734375 0.46875
vt 0.02734375 0.484375
vt 0.0234375 0.484375
vt 0.0078125 0.453125
vt 0.01171875 0.453125
vt 0.01171875 0.46875
vt 0.0078125 0.46875
vt 0.01953125 0.4375
vt 0.0234375 0.4375
vt 0.0234375 0.453125
vt 0.01953125 0.453125
vt 0.01171875 0.484375
vt 0.0078125 0.484375
vt 0.02734375 0.453125
vt 0.02734375 0.40625
vt 0.03125 0.40625
vt 0.03125 0.421875
vt 0.02734375 0.421875
vt 0.01953125 0.390625
vt 0.0234375 0.390625
vt 0.0234375 0.40625
vt 0.01953125 0.40625
vt 0.03125 0.453125
vt 0.03125 0.46875
vt 0.0078125 0.421875
vt 0.01171875 0.421875
vt 0.01171875 0.4375
vt 0.0078125 0.4375
vt 0.0234375 0.421875
vt 0.01953125 0.421875
vt 0.015625 0.453125
vt 0.015625 0.4375
vt 0.02734375 0.4375
vt 0.03125 0.4375
vt 0.0078125 0.390625
vt 0.0078125 0.40625
vt 0.015625 0.421875
vt 0.02734375 0.390625
vt 0.03125 0.484375
vt 0.03125 0.390625

# Normal
vn 0 0 -1

# Mesh description
g TitleIntro_mesh_0003

# Faces
f 1/1/1 2/2/1 3/3/1 4/4/1
f 5/5/1 6/6/1 7/7/1 8/8/1
f 9/9/1 10/10/1 11/11/1 12/12/1
f 13/13/1 14/14/1 15/15/1 16/16/1
f 17/17/1 18/18/1 19/19/1 20/20/1
f 21/16/1 22/15/1 23/21/1 24/22/1
f 25/5/1 26/6/1 27/7/1 28/8/1
f 29/20/1 30/19/1 31/9/1 32/2/1
f 33/16/1 34/15/1 35/21/1 36/22/1
f 37/19/1 38/23/1 39/10/1 40/9/1
f 41/24/1 42/25/1 43/26/1 44/27/1
f 45/28/1 46/29/1 47/30/1 48/31/1
f 49/23/1 50/32/1 51/33/1 52/10/1
f 53/34/1 54/35/1 55/36/1 56/37/1
f 57/34/1 58/35/1 59/36/1 60/37/1
f 61/31/1 62/30/1 63/38/1 64/39/1
f 65/37/1 66/36/1 67/14/1 68/13/1
f 69/2/1 70/9/1 71/12/1 72/3/1
f 73/1/1 74/2/1 75/3/1 76/4/1
f 77/40/1 78/20/1 79/2/1 80/1/1
f 81/1/1 82/2/1 83/3/1 84/4/1
f 85/39/1 86/38/1 87/18/1 88/17/1
f 89/41/1 90/17/1 91/20/1 92/40/1
f 93/20/1 94/19/1 95/9/1 96/2/1
f 97/42/1 98/43/1 99/32/1 100/23/1
f 101/40/1 102/20/1 103/2/1 104/1/1
f 105/44/1 106/5/1 107/8/1 108/45/1
f 109/44/1 110/5/1 111/8/1 112/45/1
f 113/45/1 114/8/1 115/35/1 116/34/1
f 117/7/1 118/31/1 119/39/1 120/46/1
f 121/5/1 122/6/1 123/7/1 124/8/1
f 125/14/1 126/40/1 127/1/1 128/15/1
f 129/24/1 130/25/1 131/26/1 132/27/1
f 133/31/1 134/30/1 135/38/1 136/39/1
f 137/37/1 138/36/1 139/14/1 140/13/1
f 141/9/1 142/10/1 143/11/1 144/12/1
f 145/29/1 146/47/1 147/24/1 148/30/1
f 149/40/1 150/20/1 151/2/1 152/1/1
f 153/18/1 154/42/1 155/23/1 156/19/1
f 157/17/1 158/18/1 159/19/1 160/20/1
f 161/6/1 162/28/1 163/31/1 164/7/1
f 165/46/1 166/39/1 167/17/1 168/41/1
f 169/17/1 170/18/1 171/19/1 172/20/1
f 173/24/1 174/25/1 175/26/1 176/27/1
f 177/9/1 178/10/1 179/11/1 180/12/1
f 181/42/1 182/43/1 183/32/1 184/23/1
f 185/19/1 186/23/1 187/10/1 188/9/1
f 189/31/1 190/30/1 191/38/1 192/39/1
f 193/5/1 194/6/1 195/7/1 196/8/1
f 197/38/1 198/27/1 199/42/1 200/18/1
f 201/23/1 202/32/1 203/33/1 204/10/1
f 205/14/1 206/40/1 207/1/1 208/15/1
f 209/30/1 210/24/1 211/27/1 212/38/1
f 213/40/1 214/20/1 215/2/1 216/1/1
f 217/10/1 218/33/1 219/48/1 220/11/1
f 221/16/1 222/15/1 223/21/1 224/22/1
f 225/17/1 226/18/1 227/19/1 228/20/1
f 229/15/1 230/1/1 231/4/1 232/21/1
f 233/2/1 234/9/1 235/12/1 236/3/1
f 237/7/1 238/31/1 239/39/1 240/46/1
f 241/44/1 242/5/1 243/8/1 244/45/1
f 245/44/1 246/5/1 247/8/1 248/45/1
f 249/46/1 250/39/1 251/17/1 252/41/1
f 253/1/1 254/2/1 255/3/1 256/4/1
f 257/23/1 258/32/1 259/33/1 260/10/1
f 261/27/1 262/26/1 263/43/1 264/42/1
f 265/31/1 266/30/1 267/38/1 268/39/1
f 269/28/1 270/29/1 271/30/1 272/31/1
f 273/19/1 274/23/1 275/10/1 276/9/1
f 277/41/1 278/17/1 279/20/1 280/40/1
f 281/35/1 282/46/1 283/41/1 284/36/1
f 285/9/1 286/10/1 287/11/1 288/12/1
f 289/24/1 290/25/1 291/26/1 292/27/1
f 293/28/1 294/29/1 295/30/1 296/31/1
f 297/6/1 298/28/1 299/31/1 300/7/1
f 301/24/1 302/25/1 303/26/1 304/27/1
f 305/29/1 306/47/1 307/24/1 308/30/1
f 309/5/1 310/6/1 311/7/1 312/8/1
f 313/36/1 314/41/1 315/40/1 316/14/1
f 317/35/1 318/46/1 319/41/1 320/36/1
f 321/9/1 322/10/1 323/11/1 324/12/1
f 325/29/1 326/47/1 327/24/1 328/30/1
f 329/30/1 330/24/1 331/27/1 332/38/1
f 333/10/1 334/33/1 335/48/1 336/11/1
f 337/2/1 338/9/1 339/12/1 340/3/1
f 341/35/1 342/46/1 343/41/1 344/36/1
f 345/27/1 346/26/1 347/43/1 348/42/1
f 349/8/1 350/7/1 351/46/1 352/35/1
f 353/8/1 354/7/1 355/46/1 356/35/1
f 357/17/1 358/18/1 359/19/1 360/20/1
f 361/46/1 362/39/1 363/17/1 364/41/1
f 365/41/1 366/17/1 367/20/1 368/40/1
f 369/8/1 370/7/1 371/46/1 372/35/1
f 373/2/1 374/9/1 375/12/1 376/3/1
f 377/36/1 378/41/1 379/40/1 380/14/1
f 381/30/1 382/24/1 383/27/1 384/38/1
f 385/47/1 386/49/1 387/25/1 388/24/1
f 389/15/1 390/1/1 391/4/1 392/21/1
f 393/13/1 394/14/1 395/15/1 396/16/1
f 397/40/1 398/20/1 399/2/1 400/1/1
f 401/40/1 402/20/1 403/2/1 404/1/1
f 405/28/1 406/29/1 407/30/1 408/31/1
f 409/37/1 410/36/1 411/14/1 412/13/1
f 413/14/1 414/40/1 415/1/1 416/15/1
f 417/15/1 418/1/1 419/4/1 420/21/1
f 421/41/1 422/17/1 423/20/1 424/40/1
f 425/40/1 426/20/1 427/2/1 428/1/1
f 429/9/1 430/10/1 431/11/1 432/12/1
f 433/41/1 434/17/1 435/20/1 436/40/1
f 437/42/1 438/43/1 439/32/1 440/23/1
f 441/17/1 442/18/1 443/19/1 444/20/1
f 445/42/1 446/43/1 447/32/1 448/23/1
f 449/37/1 450/36/1 451/14/1 452/13/1
f 453/15/1 454/1/1 455/4/1 456/21/1
f 457/14/1 458/40/1 459/1/1 460/15/1
f 461/29/1 462/47/1 463/24/1 464/30/1
f 465/44/1 466/5/1 467/8/1 468/45/1
f 469/45/1 470/8/1 471/35/1 472/34/1
f 473/5/1 474/6/1 475/7/1 476/8/1
f 477/23/1 478/32/1 479/33/1 480/10/1
f 481/17/1 482/18/1 483/19/1 484/20/1
f 485/1/1 486/2/1 487/3/1 488/4/1
f 489/20/1 490/19/1 491/9/1 492/2/1
f 493/41/1 494/17/1 495/20/1 496/40/1
f 497/8/1 498/7/1 499/46/1 500/35/1
f 501/24/1 502/25/1 503/26/1 504/27/1
f 505/41/1 506/17/1 507/20/1 508/40/1
f 509/41/1 510/17/1 511/20/1 512/40/1
f 513/44/1 514/5/1 515/8/1 516/45/1
f 517/9/1 518/10/1 519/11/1 520/12/1
f 521/10/1 522/33/1 523/48/1 524/11/1
f 525/9/1 526/10/1 527/11/1 528/12/1
f 529/36/1 530/41/1 531/40/1 532/14/1
f 533/2/1 534/9/1 535/12/1 536/3/1
f 537/31/1 538/30/1 539/38/1 540/39/1
f 541/27/1 542/26/1 543/43/1 544/42/1
f 545/20/1 546/19/1 547/9/1 548/2/1
f 549/9/1 550/10/1 551/11/1 552/12/1
f 553/2/1 554/9/1 555/12/1 556/3/1
f 557/28/1 558/29/1 559/30/1 560/31/1
f 561/24/1 562/25/1 563/26/1 564/27/1
f 565/38/1 566/27/1 567/42/1 568/18/1
f 569/7/1 570/31/1 571/39/1 572/46/1
f 573/46/1 574/39/1 575/17/1 576/41/1
f 577/46/1 578/39/1 579/17/1 580/41/1
f 581/2/1 582/9/1 583/12/1 584/3/1
f 585/29/1 586/47/1 587/24/1 588/30/1
f 589/20/1 590/19/1 591/9/1 592/2/1
f 593/31/1 594/30/1 595/38/1 596/39/1
f 597/14/1 598/40/1 599/1/1 600/15/1
f 601/34/1 602/35/1 603/36/1 604/37/1
f 605/24/1 606/25/1 607/26/1 608/27/1
f 609/41/1 610/17/1 611/20/1 612/40/1
f 613/14/1 614/40/1 615/1/1 616/15/1
f 617/5/1 618/6/1 619/7/1 620/8/1
f 621/37/1 622/36/1 623/14/1 624/13/1
f 625/34/1 626/35/1 627/36/1 628/37/1
f 629/1/1 630/2/1 631/3/1 632/4/1
f 633/42/1 634/43/1 635/32/1 636/23/1
f 637/5/1 638/6/1 639/7/1 640/8/1
f 641/29/1 642/47/1 643/24/1 644/30/1
f 645/36/1 646/41/1 647/40/1 648/14/1
f 649/38/1 650/27/1 651/42/1 652/18/1
f 653/9/1 654/10/1 655/11/1 656/12/1
f 657/8/1 658/7/1 659/46/1 660/35/1
f 661/45/1 662/8/1 663/35/1 664/34/1
f 665/16/1 666/15/1 667/21/1 668/22/1
f 669/42/1 670/43/1 671/32/1 672/23/1
f 673/15/1 674/1/1 675/4/1 676/21/1
f 677/7/1 678/31/1 679/39/1 680/46/1
f 681/45/1 682/8/1 683/35/1 684/34/1
f 685/37/1 686/36/1 687/14/1 688/13/1
f 689/34/1 690/35/1 691/36/1 692/37/1
f 693/2/1 694/9/1 695/12/1 696/3/1
f 697/9/1 698/10/1 699/11/1 700/12/1
f 701/19/1 702/23/1 703/10/1 704/9/1
f 705/7/1 706/31/1 707/39/1 708/46/1
f 709/20/1 710/19/1 711/9/1 712/2/1
f 713/17/1 714/18/1 715/19/1 716/20/1
f 717/35/1 718/46/1 719/41/1 720/36/1
f 721/16/1 722/15/1 723/21/1 724/22/1
f 725/28/1 726/29/1 727/30/1 728/31/1
f 729/35/1 730/46/1 731/41/1 732/36/1
f 733/28/1 734/29/1 735/30/1 736/31/1
f 737/2/1 738/9/1 739/12/1 740/3/1
f 741/40/1 742/20/1 743/2/1 744/1/1
f 745/7/1 746/31/1 747/39/1 748/46/1
f 749/36/1 750/41/1 751/40/1 752/14/1
f 753/27/1 754/26/1 755/43/1 756/42/1
f 757/16/1 758/15/1 759/21/1 760/22/1
f 761/1/1 762/2/1 763/3/1 764/4/1
f 765/41/1 766/17/1 767/20/1 768/40/1
f 769/29/1 770/47/1 771/24/1 772/30/1
f 773/14/1 774/40/1 775/1/1 776/15/1
f 777/27/1 778/26/1 779/43/1 780/42/1
f 781/28/1 782/29/1 783/30/1 784/31/1
f 785/10/1 786/33/1 787/48/1 788/11/1
f 789/41/1 790/17/1 791/20/1 792/40/1
f 793/17/1 794/18/1 795/19/1 796/20/1
f 797/42/1 798/43/1 799/32/1 800/23/1
f 801/16/1 802/15/1 803/21/1 804/22/1
f 805/1/1 806/2/1 807/3/1 808/4/1
f 809/9/1 810/10/1 811/11/1 812/12/1
f 813/41/1 814/17/1 815/20/1 816/40/1
f 817/39/1 818/38/1 819/18/1 820/17/1
f 821/46/1 822/39/1 823/17/1 824/41/1
f 825/23/1 826/32/1 827/33/1 828/10/1
f 829/24/1 830/25/1 831/26/1 832/27/1

