# Tiled2Unity generated file. Do not modify by hand.
# Wavefront file for 'TitleIntro_mesh_0063.obj'

# Vertices (Count = 384)
v 0 -16 0
v -16 -16 0
v -16 0 0
v 0 0 0
v -16 -16 0
v -32 -16 0
v -32 0 0
v -16 0 0
v -32 -16 0
v -48 -16 0
v -48 0 0
v -32 0 0
v -48 -16 0
v -64 -16 0
v -64 0 0
v -48 0 0
v -64 -16 0
v -80 -16 0
v -80 0 0
v -64 0 0
v -80 -16 0
v -96 -16 0
v -96 0 0
v -80 0 0
v 0 -32 0
v -16 -32 0
v -16 -16 0
v 0 -16 0
v -16 -32 0
v -32 -32 0
v -32 -16 0
v -16 -16 0
v -32 -32 0
v -48 -32 0
v -48 -16 0
v -32 -16 0
v -48 -32 0
v -64 -32 0
v -64 -16 0
v -48 -16 0
v -64 -32 0
v -80 -32 0
v -80 -16 0
v -64 -16 0
v -80 -32 0
v -96 -32 0
v -96 -16 0
v -80 -16 0
v 0 -48 0
v -16 -48 0
v -16 -32 0
v 0 -32 0
v -16 -48 0
v -32 -48 0
v -32 -32 0
v -16 -32 0
v -32 -48 0
v -48 -48 0
v -48 -32 0
v -32 -32 0
v -48 -48 0
v -64 -48 0
v -64 -32 0
v -48 -32 0
v -64 -48 0
v -80 -48 0
v -80 -32 0
v -64 -32 0
v -80 -48 0
v -96 -48 0
v -96 -32 0
v -80 -32 0
v 0 -64 0
v -16 -64 0
v -16 -48 0
v 0 -48 0
v -16 -64 0
v -32 -64 0
v -32 -48 0
v -16 -48 0
v -32 -64 0
v -48 -64 0
v -48 -48 0
v -32 -48 0
v -48 -64 0
v -64 -64 0
v -64 -48 0
v -48 -48 0
v -64 -64 0
v -80 -64 0
v -80 -48 0
v -64 -48 0
v -80 -64 0
v -96 -64 0
v -96 -48 0
v -80 -48 0
v 0 -80 0
v -16 -80 0
v -16 -64 0
v 0 -64 0
v -16 -80 0
v -32 -80 0
v -32 -64 0
v -16 -64 0
v -32 -80 0
v -48 -80 0
v -48 -64 0
v -32 -64 0
v -48 -80 0
v -64 -80 0
v -64 -64 0
v -48 -64 0
v -64 -80 0
v -80 -80 0
v -80 -64 0
v -64 -64 0
v -80 -80 0
v -96 -80 0
v -96 -64 0
v -80 -64 0
v 0 -96 0
v -16 -96 0
v -16 -80 0
v 0 -80 0
v -16 -96 0
v -32 -96 0
v -32 -80 0
v -16 -80 0
v -32 -96 0
v -48 -96 0
v -48 -80 0
v -32 -80 0
v -48 -96 0
v -64 -96 0
v -64 -80 0
v -48 -80 0
v -64 -96 0
v -80 -96 0
v -80 -80 0
v -64 -80 0
v -80 -96 0
v -96 -96 0
v -96 -80 0
v -80 -80 0
v 0 -112 0
v -16 -112 0
v -16 -96 0
v 0 -96 0
v -16 -112 0
v -32 -112 0
v -32 -96 0
v -16 -96 0
v -32 -112 0
v -48 -112 0
v -48 -96 0
v -32 -96 0
v -48 -112 0
v -64 -112 0
v -64 -96 0
v -48 -96 0
v -64 -112 0
v -80 -112 0
v -80 -96 0
v -64 -96 0
v -80 -112 0
v -96 -112 0
v -96 -96 0
v -80 -96 0
v 0 -128 0
v -16 -128 0
v -16 -112 0
v 0 -112 0
v -16 -128 0
v -32 -128 0
v -32 -112 0
v -16 -112 0
v -32 -128 0
v -48 -128 0
v -48 -112 0
v -32 -112 0
v -48 -128 0
v -64 -128 0
v -64 -112 0
v -48 -112 0
v -64 -128 0
v -80 -128 0
v -80 -112 0
v -64 -112 0
v -80 -128 0
v -96 -128 0
v -96 -112 0
v -80 -112 0
v 0 -144 0
v -16 -144 0
v -16 -128 0
v 0 -128 0
v -16 -144 0
v -32 -144 0
v -32 -128 0
v -16 -128 0
v -32 -144 0
v -48 -144 0
v -48 -128 0
v -32 -128 0
v -48 -144 0
v -64 -144 0
v -64 -128 0
v -48 -128 0
v -64 -144 0
v -80 -144 0
v -80 -128 0
v -64 -128 0
v -80 -144 0
v -96 -144 0
v -96 -128 0
v -80 -128 0
v 0 -160 0
v -16 -160 0
v -16 -144 0
v 0 -144 0
v -16 -160 0
v -32 -160 0
v -32 -144 0
v -16 -144 0
v -32 -160 0
v -48 -160 0
v -48 -144 0
v -32 -144 0
v -48 -160 0
v -64 -160 0
v -64 -144 0
v -48 -144 0
v -64 -160 0
v -80 -160 0
v -80 -144 0
v -64 -144 0
v -80 -160 0
v -96 -160 0
v -96 -144 0
v -80 -144 0
v 0 -176 0
v -16 -176 0
v -16 -160 0
v 0 -160 0
v -16 -176 0
v -32 -176 0
v -32 -160 0
v -16 -160 0
v -32 -176 0
v -48 -176 0
v -48 -160 0
v -32 -160 0
v -48 -176 0
v -64 -176 0
v -64 -160 0
v -48 -160 0
v -64 -176 0
v -80 -176 0
v -80 -160 0
v -64 -160 0
v -80 -176 0
v -96 -176 0
v -96 -160 0
v -80 -160 0
v 0 -192 0
v -16 -192 0
v -16 -176 0
v 0 -176 0
v -16 -192 0
v -32 -192 0
v -32 -176 0
v -16 -176 0
v -32 -192 0
v -48 -192 0
v -48 -176 0
v -32 -176 0
v -48 -192 0
v -64 -192 0
v -64 -176 0
v -48 -176 0
v -64 -192 0
v -80 -192 0
v -80 -176 0
v -64 -176 0
v -80 -192 0
v -96 -192 0
v -96 -176 0
v -80 -176 0
v 0 -208 0
v -16 -208 0
v -16 -192 0
v 0 -192 0
v -16 -208 0
v -32 -208 0
v -32 -192 0
v -16 -192 0
v -32 -208 0
v -48 -208 0
v -48 -192 0
v -32 -192 0
v -48 -208 0
v -64 -208 0
v -64 -192 0
v -48 -192 0
v -64 -208 0
v -80 -208 0
v -80 -192 0
v -64 -192 0
v -80 -208 0
v -96 -208 0
v -96 -192 0
v -80 -192 0
v 0 -224 0
v -16 -224 0
v -16 -208 0
v 0 -208 0
v -16 -224 0
v -32 -224 0
v -32 -208 0
v -16 -208 0
v -32 -224 0
v -48 -224 0
v -48 -208 0
v -32 -208 0
v -48 -224 0
v -64 -224 0
v -64 -208 0
v -48 -208 0
v -64 -224 0
v -80 -224 0
v -80 -208 0
v -64 -208 0
v -80 -224 0
v -96 -224 0
v -96 -208 0
v -80 -208 0
v 0 -240 0
v -16 -240 0
v -16 -224 0
v 0 -224 0
v -16 -240 0
v -32 -240 0
v -32 -224 0
v -16 -224 0
v -32 -240 0
v -48 -240 0
v -48 -224 0
v -32 -224 0
v -48 -240 0
v -64 -240 0
v -64 -224 0
v -48 -224 0
v -64 -240 0
v -80 -240 0
v -80 -224 0
v -64 -224 0
v -80 -240 0
v -96 -240 0
v -96 -224 0
v -80 -224 0
v 0 -256 0
v -16 -256 0
v -16 -240 0
v 0 -240 0
v -16 -256 0
v -32 -256 0
v -32 -240 0
v -16 -240 0
v -32 -256 0
v -48 -256 0
v -48 -240 0
v -32 -240 0
v -48 -256 0
v -64 -256 0
v -64 -240 0
v -48 -240 0
v -64 -256 0
v -80 -256 0
v -80 -240 0
v -64 -240 0
v -80 -256 0
v -96 -256 0
v -96 -240 0
v -80 -240 0

# Texture cooridinates (Count = 49)
vt 0.0234375 0.4375
vt 0.02734375 0.4375
vt 0.02734375 0.453125
vt 0.0234375 0.453125
vt 0.015625 0.46875
vt 0.01953125 0.46875
vt 0.01953125 0.484375
vt 0.015625 0.484375
vt 0.015625 0.4375
vt 0.01953125 0.4375
vt 0.01953125 0.453125
vt 0.015625 0.453125
vt 0.02734375 0.421875
vt 0.03125 0.421875
vt 0.03125 0.4375
vt 0.01953125 0.390625
vt 0.0234375 0.390625
vt 0.0234375 0.40625
vt 0.01953125 0.40625
vt 0.015625 0.390625
vt 0.015625 0.40625
vt 0.02734375 0.40625
vt 0.03125 0.40625
vt 0.01171875 0.421875
vt 0.015625 0.421875
vt 0.01171875 0.4375
vt 0.0078125 0.390625
vt 0.01171875 0.390625
vt 0.01171875 0.40625
vt 0.0078125 0.40625
vt 0.0078125 0.46875
vt 0.01171875 0.46875
vt 0.01171875 0.484375
vt 0.0078125 0.484375
vt 0.0234375 0.46875
vt 0.0234375 0.484375
vt 0.0078125 0.421875
vt 0.0078125 0.4375
vt 0.02734375 0.46875
vt 0.02734375 0.484375
vt 0.01171875 0.453125
vt 0.0078125 0.453125
vt 0.01953125 0.421875
vt 0.0234375 0.421875
vt 0.03125 0.46875
vt 0.03125 0.484375
vt 0.02734375 0.390625
vt 0.03125 0.390625
vt 0.03125 0.453125

# Normal
vn 0 0 -1

# Mesh description
g TitleIntro_mesh_0063

# Faces
f 1/1/1 2/2/1 3/3/1 4/4/1
f 5/5/1 6/6/1 7/7/1 8/8/1
f 9/9/1 10/10/1 11/11/1 12/12/1
f 13/13/1 14/14/1 15/15/1 16/2/1
f 17/16/1 18/17/1 19/18/1 20/19/1
f 21/20/1 22/16/1 23/19/1 24/21/1
f 25/22/1 26/23/1 27/14/1 28/13/1
f 29/24/1 30/25/1 31/9/1 32/26/1
f 33/27/1 34/28/1 35/29/1 36/30/1
f 37/1/1 38/2/1 39/3/1 40/4/1
f 41/13/1 42/14/1 43/15/1 44/2/1
f 45/22/1 46/23/1 47/14/1 48/13/1
f 49/31/1 50/32/1 51/33/1 52/34/1
f 53/6/1 54/35/1 55/36/1 56/7/1
f 57/6/1 58/35/1 59/36/1 60/7/1
f 61/37/1 62/24/1 63/26/1 64/38/1
f 65/35/1 66/39/1 67/40/1 68/36/1
f 69/26/1 70/9/1 71/12/1 72/41/1
f 73/22/1 74/23/1 75/14/1 76/13/1
f 77/38/1 78/26/1 79/41/1 80/42/1
f 81/37/1 82/24/1 83/26/1 84/38/1
f 85/9/1 86/10/1 87/11/1 88/12/1
f 89/43/1 90/44/1 91/1/1 92/10/1
f 93/31/1 94/32/1 95/33/1 96/34/1
f 97/5/1 98/6/1 99/7/1 100/8/1
f 101/37/1 102/24/1 103/26/1 104/38/1
f 105/24/1 106/25/1 107/9/1 108/26/1
f 109/38/1 110/26/1 111/41/1 112/42/1
f 113/16/1 114/17/1 115/18/1 116/19/1
f 117/5/1 118/6/1 119/7/1 120/8/1
f 121/12/1 122/11/1 123/6/1 124/5/1
f 125/39/1 126/45/1 127/46/1 128/40/1
f 129/13/1 130/14/1 131/15/1 132/2/1
f 133/47/1 134/48/1 135/23/1 136/22/1
f 137/31/1 138/32/1 139/33/1 140/34/1
f 141/1/1 142/2/1 143/3/1 144/4/1
f 145/29/1 146/21/1 147/25/1 148/24/1
f 149/22/1 150/23/1 151/14/1 152/13/1
f 153/13/1 154/14/1 155/15/1 156/2/1
f 157/12/1 158/11/1 159/6/1 160/5/1
f 161/42/1 162/41/1 163/32/1 164/31/1
f 165/29/1 166/21/1 167/25/1 168/24/1
f 169/11/1 170/4/1 171/35/1 172/6/1
f 173/43/1 174/44/1 175/1/1 176/10/1
f 177/3/1 178/49/1 179/45/1 180/39/1
f 181/32/1 182/5/1 183/8/1 184/33/1
f 185/38/1 186/26/1 187/41/1 188/42/1
f 189/24/1 190/25/1 191/9/1 192/26/1
f 193/6/1 194/35/1 195/36/1 196/7/1
f 197/26/1 198/9/1 199/12/1 200/41/1
f 201/6/1 202/35/1 203/36/1 204/7/1
f 205/1/1 206/2/1 207/3/1 208/4/1
f 209/6/1 210/35/1 211/36/1 212/7/1
f 213/13/1 214/14/1 215/15/1 216/2/1
f 217/26/1 218/9/1 219/12/1 220/41/1
f 221/13/1 222/14/1 223/15/1 224/2/1
f 225/47/1 226/48/1 227/23/1 228/22/1
f 229/12/1 230/11/1 231/6/1 232/5/1
f 233/28/1 234/20/1 235/21/1 236/29/1
f 237/30/1 238/29/1 239/24/1 240/37/1
f 241/12/1 242/11/1 243/6/1 244/5/1
f 245/25/1 246/43/1 247/10/1 248/9/1
f 249/6/1 250/35/1 251/36/1 252/7/1
f 253/10/1 254/1/1 255/4/1 256/11/1
f 257/5/1 258/6/1 259/7/1 260/8/1
f 261/9/1 262/10/1 263/11/1 264/12/1
f 265/43/1 266/44/1 267/1/1 268/10/1
f 269/11/1 270/4/1 271/35/1 272/6/1
f 273/21/1 274/19/1 275/43/1 276/25/1
f 277/10/1 278/1/1 279/4/1 280/11/1
f 281/25/1 282/43/1 283/10/1 284/9/1
f 285/18/1 286/22/1 287/13/1 288/44/1
f 289/16/1 290/17/1 291/18/1 292/19/1
f 293/24/1 294/25/1 295/9/1 296/26/1
f 297/32/1 298/5/1 299/8/1 300/33/1
f 301/42/1 302/41/1 303/32/1 304/31/1
f 305/47/1 306/48/1 307/23/1 308/22/1
f 309/20/1 310/16/1 311/19/1 312/21/1
f 313/19/1 314/18/1 315/44/1 316/43/1
f 317/10/1 318/1/1 319/4/1 320/11/1
f 321/44/1 322/13/1 323/2/1 324/1/1
f 325/10/1 326/1/1 327/4/1 328/11/1
f 329/18/1 330/22/1 331/13/1 332/44/1
f 333/35/1 334/39/1 335/40/1 336/36/1
f 337/13/1 338/14/1 339/15/1 340/2/1
f 341/5/1 342/6/1 343/7/1 344/8/1
f 345/17/1 346/47/1 347/22/1 348/18/1
f 349/21/1 350/19/1 351/43/1 352/25/1
f 353/42/1 354/41/1 355/32/1 356/31/1
f 357/12/1 358/11/1 359/6/1 360/5/1
f 361/21/1 362/19/1 363/43/1 364/25/1
f 365/1/1 366/2/1 367/3/1 368/4/1
f 369/24/1 370/25/1 371/9/1 372/26/1
f 373/25/1 374/43/1 375/10/1 376/9/1
f 377/21/1 378/19/1 379/43/1 380/25/1
f 381/32/1 382/5/1 383/8/1 384/33/1

