# Tiled2Unity generated file. Do not modify by hand.
# Wavefront file for 'TitleIntro_mesh_0107.obj'

# Vertices (Count = 8)
v -144 -16 0
v -160 -16 0
v -160 0 0
v -144 0 0
v -208 -32 0
v -224 -32 0
v -224 -16 0
v -208 -16 0

# Texture cooridinates (Count = 8)
vt 0.7304688 0.890625
vt 0.734375 0.890625
vt 0.734375 0.90625
vt 0.7304688 0.90625
vt 0.7460938 0.875
vt 0.75 0.875
vt 0.75 0.890625
vt 0.7460938 0.890625

# Normal
vn 0 0 -1

# Mesh description
g TitleIntro_mesh_0107

# Faces
f 1/1/1 2/2/1 3/3/1 4/4/1
f 5/5/1 6/6/1 7/7/1 8/8/1

