# Tiled2Unity generated file. Do not modify by hand.
# Wavefront file for 'TitleIntro_mesh_0089.obj'

# Vertices (Count = 1024)
v 0 -16 0
v -16 -16 0
v -16 0 0
v 0 0 0
v -16 -16 0
v -32 -16 0
v -32 0 0
v -16 0 0
v -32 -16 0
v -48 -16 0
v -48 0 0
v -32 0 0
v -48 -16 0
v -64 -16 0
v -64 0 0
v -48 0 0
v -64 -16 0
v -80 -16 0
v -80 0 0
v -64 0 0
v -80 -16 0
v -96 -16 0
v -96 0 0
v -80 0 0
v -96 -16 0
v -112 -16 0
v -112 0 0
v -96 0 0
v -112 -16 0
v -128 -16 0
v -128 0 0
v -112 0 0
v -128 -16 0
v -144 -16 0
v -144 0 0
v -128 0 0
v -144 -16 0
v -160 -16 0
v -160 0 0
v -144 0 0
v -160 -16 0
v -176 -16 0
v -176 0 0
v -160 0 0
v -176 -16 0
v -192 -16 0
v -192 0 0
v -176 0 0
v -192 -16 0
v -208 -16 0
v -208 0 0
v -192 0 0
v -208 -16 0
v -224 -16 0
v -224 0 0
v -208 0 0
v -224 -16 0
v -240 -16 0
v -240 0 0
v -224 0 0
v -240 -16 0
v -256 -16 0
v -256 0 0
v -240 0 0
v 0 -32 0
v -16 -32 0
v -16 -16 0
v 0 -16 0
v -16 -32 0
v -32 -32 0
v -32 -16 0
v -16 -16 0
v -32 -32 0
v -48 -32 0
v -48 -16 0
v -32 -16 0
v -48 -32 0
v -64 -32 0
v -64 -16 0
v -48 -16 0
v -64 -32 0
v -80 -32 0
v -80 -16 0
v -64 -16 0
v -80 -32 0
v -96 -32 0
v -96 -16 0
v -80 -16 0
v -96 -32 0
v -112 -32 0
v -112 -16 0
v -96 -16 0
v -112 -32 0
v -128 -32 0
v -128 -16 0
v -112 -16 0
v -128 -32 0
v -144 -32 0
v -144 -16 0
v -128 -16 0
v -144 -32 0
v -160 -32 0
v -160 -16 0
v -144 -16 0
v -160 -32 0
v -176 -32 0
v -176 -16 0
v -160 -16 0
v -176 -32 0
v -192 -32 0
v -192 -16 0
v -176 -16 0
v -192 -32 0
v -208 -32 0
v -208 -16 0
v -192 -16 0
v -208 -32 0
v -224 -32 0
v -224 -16 0
v -208 -16 0
v -224 -32 0
v -240 -32 0
v -240 -16 0
v -224 -16 0
v -240 -32 0
v -256 -32 0
v -256 -16 0
v -240 -16 0
v 0 -48 0
v -16 -48 0
v -16 -32 0
v 0 -32 0
v -16 -48 0
v -32 -48 0
v -32 -32 0
v -16 -32 0
v -32 -48 0
v -48 -48 0
v -48 -32 0
v -32 -32 0
v -48 -48 0
v -64 -48 0
v -64 -32 0
v -48 -32 0
v -64 -48 0
v -80 -48 0
v -80 -32 0
v -64 -32 0
v -80 -48 0
v -96 -48 0
v -96 -32 0
v -80 -32 0
v -96 -48 0
v -112 -48 0
v -112 -32 0
v -96 -32 0
v -112 -48 0
v -128 -48 0
v -128 -32 0
v -112 -32 0
v -128 -48 0
v -144 -48 0
v -144 -32 0
v -128 -32 0
v -144 -48 0
v -160 -48 0
v -160 -32 0
v -144 -32 0
v -160 -48 0
v -176 -48 0
v -176 -32 0
v -160 -32 0
v -176 -48 0
v -192 -48 0
v -192 -32 0
v -176 -32 0
v -192 -48 0
v -208 -48 0
v -208 -32 0
v -192 -32 0
v -208 -48 0
v -224 -48 0
v -224 -32 0
v -208 -32 0
v -224 -48 0
v -240 -48 0
v -240 -32 0
v -224 -32 0
v -240 -48 0
v -256 -48 0
v -256 -32 0
v -240 -32 0
v 0 -64 0
v -16 -64 0
v -16 -48 0
v 0 -48 0
v -16 -64 0
v -32 -64 0
v -32 -48 0
v -16 -48 0
v -32 -64 0
v -48 -64 0
v -48 -48 0
v -32 -48 0
v -48 -64 0
v -64 -64 0
v -64 -48 0
v -48 -48 0
v -64 -64 0
v -80 -64 0
v -80 -48 0
v -64 -48 0
v -80 -64 0
v -96 -64 0
v -96 -48 0
v -80 -48 0
v -96 -64 0
v -112 -64 0
v -112 -48 0
v -96 -48 0
v -112 -64 0
v -128 -64 0
v -128 -48 0
v -112 -48 0
v -128 -64 0
v -144 -64 0
v -144 -48 0
v -128 -48 0
v -144 -64 0
v -160 -64 0
v -160 -48 0
v -144 -48 0
v -160 -64 0
v -176 -64 0
v -176 -48 0
v -160 -48 0
v -176 -64 0
v -192 -64 0
v -192 -48 0
v -176 -48 0
v -192 -64 0
v -208 -64 0
v -208 -48 0
v -192 -48 0
v -208 -64 0
v -224 -64 0
v -224 -48 0
v -208 -48 0
v -224 -64 0
v -240 -64 0
v -240 -48 0
v -224 -48 0
v -240 -64 0
v -256 -64 0
v -256 -48 0
v -240 -48 0
v 0 -80 0
v -16 -80 0
v -16 -64 0
v 0 -64 0
v -16 -80 0
v -32 -80 0
v -32 -64 0
v -16 -64 0
v -32 -80 0
v -48 -80 0
v -48 -64 0
v -32 -64 0
v -48 -80 0
v -64 -80 0
v -64 -64 0
v -48 -64 0
v -64 -80 0
v -80 -80 0
v -80 -64 0
v -64 -64 0
v -80 -80 0
v -96 -80 0
v -96 -64 0
v -80 -64 0
v -96 -80 0
v -112 -80 0
v -112 -64 0
v -96 -64 0
v -112 -80 0
v -128 -80 0
v -128 -64 0
v -112 -64 0
v -128 -80 0
v -144 -80 0
v -144 -64 0
v -128 -64 0
v -144 -80 0
v -160 -80 0
v -160 -64 0
v -144 -64 0
v -160 -80 0
v -176 -80 0
v -176 -64 0
v -160 -64 0
v -176 -80 0
v -192 -80 0
v -192 -64 0
v -176 -64 0
v -192 -80 0
v -208 -80 0
v -208 -64 0
v -192 -64 0
v -208 -80 0
v -224 -80 0
v -224 -64 0
v -208 -64 0
v -224 -80 0
v -240 -80 0
v -240 -64 0
v -224 -64 0
v -240 -80 0
v -256 -80 0
v -256 -64 0
v -240 -64 0
v 0 -96 0
v -16 -96 0
v -16 -80 0
v 0 -80 0
v -16 -96 0
v -32 -96 0
v -32 -80 0
v -16 -80 0
v -32 -96 0
v -48 -96 0
v -48 -80 0
v -32 -80 0
v -48 -96 0
v -64 -96 0
v -64 -80 0
v -48 -80 0
v -64 -96 0
v -80 -96 0
v -80 -80 0
v -64 -80 0
v -80 -96 0
v -96 -96 0
v -96 -80 0
v -80 -80 0
v -96 -96 0
v -112 -96 0
v -112 -80 0
v -96 -80 0
v -112 -96 0
v -128 -96 0
v -128 -80 0
v -112 -80 0
v -128 -96 0
v -144 -96 0
v -144 -80 0
v -128 -80 0
v -144 -96 0
v -160 -96 0
v -160 -80 0
v -144 -80 0
v -160 -96 0
v -176 -96 0
v -176 -80 0
v -160 -80 0
v -176 -96 0
v -192 -96 0
v -192 -80 0
v -176 -80 0
v -192 -96 0
v -208 -96 0
v -208 -80 0
v -192 -80 0
v -208 -96 0
v -224 -96 0
v -224 -80 0
v -208 -80 0
v -224 -96 0
v -240 -96 0
v -240 -80 0
v -224 -80 0
v -240 -96 0
v -256 -96 0
v -256 -80 0
v -240 -80 0
v 0 -112 0
v -16 -112 0
v -16 -96 0
v 0 -96 0
v -16 -112 0
v -32 -112 0
v -32 -96 0
v -16 -96 0
v -32 -112 0
v -48 -112 0
v -48 -96 0
v -32 -96 0
v -48 -112 0
v -64 -112 0
v -64 -96 0
v -48 -96 0
v -64 -112 0
v -80 -112 0
v -80 -96 0
v -64 -96 0
v -80 -112 0
v -96 -112 0
v -96 -96 0
v -80 -96 0
v -96 -112 0
v -112 -112 0
v -112 -96 0
v -96 -96 0
v -112 -112 0
v -128 -112 0
v -128 -96 0
v -112 -96 0
v -128 -112 0
v -144 -112 0
v -144 -96 0
v -128 -96 0
v -144 -112 0
v -160 -112 0
v -160 -96 0
v -144 -96 0
v -160 -112 0
v -176 -112 0
v -176 -96 0
v -160 -96 0
v -176 -112 0
v -192 -112 0
v -192 -96 0
v -176 -96 0
v -192 -112 0
v -208 -112 0
v -208 -96 0
v -192 -96 0
v -208 -112 0
v -224 -112 0
v -224 -96 0
v -208 -96 0
v -224 -112 0
v -240 -112 0
v -240 -96 0
v -224 -96 0
v -240 -112 0
v -256 -112 0
v -256 -96 0
v -240 -96 0
v 0 -128 0
v -16 -128 0
v -16 -112 0
v 0 -112 0
v -16 -128 0
v -32 -128 0
v -32 -112 0
v -16 -112 0
v -32 -128 0
v -48 -128 0
v -48 -112 0
v -32 -112 0
v -48 -128 0
v -64 -128 0
v -64 -112 0
v -48 -112 0
v -64 -128 0
v -80 -128 0
v -80 -112 0
v -64 -112 0
v -80 -128 0
v -96 -128 0
v -96 -112 0
v -80 -112 0
v -96 -128 0
v -112 -128 0
v -112 -112 0
v -96 -112 0
v -112 -128 0
v -128 -128 0
v -128 -112 0
v -112 -112 0
v -128 -128 0
v -144 -128 0
v -144 -112 0
v -128 -112 0
v -144 -128 0
v -160 -128 0
v -160 -112 0
v -144 -112 0
v -160 -128 0
v -176 -128 0
v -176 -112 0
v -160 -112 0
v -176 -128 0
v -192 -128 0
v -192 -112 0
v -176 -112 0
v -192 -128 0
v -208 -128 0
v -208 -112 0
v -192 -112 0
v -208 -128 0
v -224 -128 0
v -224 -112 0
v -208 -112 0
v -224 -128 0
v -240 -128 0
v -240 -112 0
v -224 -112 0
v -240 -128 0
v -256 -128 0
v -256 -112 0
v -240 -112 0
v 0 -144 0
v -16 -144 0
v -16 -128 0
v 0 -128 0
v -16 -144 0
v -32 -144 0
v -32 -128 0
v -16 -128 0
v -32 -144 0
v -48 -144 0
v -48 -128 0
v -32 -128 0
v -48 -144 0
v -64 -144 0
v -64 -128 0
v -48 -128 0
v -64 -144 0
v -80 -144 0
v -80 -128 0
v -64 -128 0
v -80 -144 0
v -96 -144 0
v -96 -128 0
v -80 -128 0
v -96 -144 0
v -112 -144 0
v -112 -128 0
v -96 -128 0
v -112 -144 0
v -128 -144 0
v -128 -128 0
v -112 -128 0
v -128 -144 0
v -144 -144 0
v -144 -128 0
v -128 -128 0
v -144 -144 0
v -160 -144 0
v -160 -128 0
v -144 -128 0
v -160 -144 0
v -176 -144 0
v -176 -128 0
v -160 -128 0
v -176 -144 0
v -192 -144 0
v -192 -128 0
v -176 -128 0
v -192 -144 0
v -208 -144 0
v -208 -128 0
v -192 -128 0
v -208 -144 0
v -224 -144 0
v -224 -128 0
v -208 -128 0
v -224 -144 0
v -240 -144 0
v -240 -128 0
v -224 -128 0
v -240 -144 0
v -256 -144 0
v -256 -128 0
v -240 -128 0
v 0 -160 0
v -16 -160 0
v -16 -144 0
v 0 -144 0
v -16 -160 0
v -32 -160 0
v -32 -144 0
v -16 -144 0
v -32 -160 0
v -48 -160 0
v -48 -144 0
v -32 -144 0
v -48 -160 0
v -64 -160 0
v -64 -144 0
v -48 -144 0
v -64 -160 0
v -80 -160 0
v -80 -144 0
v -64 -144 0
v -80 -160 0
v -96 -160 0
v -96 -144 0
v -80 -144 0
v -96 -160 0
v -112 -160 0
v -112 -144 0
v -96 -144 0
v -112 -160 0
v -128 -160 0
v -128 -144 0
v -112 -144 0
v -128 -160 0
v -144 -160 0
v -144 -144 0
v -128 -144 0
v -144 -160 0
v -160 -160 0
v -160 -144 0
v -144 -144 0
v -160 -160 0
v -176 -160 0
v -176 -144 0
v -160 -144 0
v -176 -160 0
v -192 -160 0
v -192 -144 0
v -176 -144 0
v -192 -160 0
v -208 -160 0
v -208 -144 0
v -192 -144 0
v -208 -160 0
v -224 -160 0
v -224 -144 0
v -208 -144 0
v -224 -160 0
v -240 -160 0
v -240 -144 0
v -224 -144 0
v -240 -160 0
v -256 -160 0
v -256 -144 0
v -240 -144 0
v 0 -176 0
v -16 -176 0
v -16 -160 0
v 0 -160 0
v -16 -176 0
v -32 -176 0
v -32 -160 0
v -16 -160 0
v -32 -176 0
v -48 -176 0
v -48 -160 0
v -32 -160 0
v -48 -176 0
v -64 -176 0
v -64 -160 0
v -48 -160 0
v -64 -176 0
v -80 -176 0
v -80 -160 0
v -64 -160 0
v -80 -176 0
v -96 -176 0
v -96 -160 0
v -80 -160 0
v -96 -176 0
v -112 -176 0
v -112 -160 0
v -96 -160 0
v -112 -176 0
v -128 -176 0
v -128 -160 0
v -112 -160 0
v -128 -176 0
v -144 -176 0
v -144 -160 0
v -128 -160 0
v -144 -176 0
v -160 -176 0
v -160 -160 0
v -144 -160 0
v -160 -176 0
v -176 -176 0
v -176 -160 0
v -160 -160 0
v -176 -176 0
v -192 -176 0
v -192 -160 0
v -176 -160 0
v -192 -176 0
v -208 -176 0
v -208 -160 0
v -192 -160 0
v -208 -176 0
v -224 -176 0
v -224 -160 0
v -208 -160 0
v -224 -176 0
v -240 -176 0
v -240 -160 0
v -224 -160 0
v -240 -176 0
v -256 -176 0
v -256 -160 0
v -240 -160 0
v 0 -192 0
v -16 -192 0
v -16 -176 0
v 0 -176 0
v -16 -192 0
v -32 -192 0
v -32 -176 0
v -16 -176 0
v -32 -192 0
v -48 -192 0
v -48 -176 0
v -32 -176 0
v -48 -192 0
v -64 -192 0
v -64 -176 0
v -48 -176 0
v -64 -192 0
v -80 -192 0
v -80 -176 0
v -64 -176 0
v -80 -192 0
v -96 -192 0
v -96 -176 0
v -80 -176 0
v -96 -192 0
v -112 -192 0
v -112 -176 0
v -96 -176 0
v -112 -192 0
v -128 -192 0
v -128 -176 0
v -112 -176 0
v -128 -192 0
v -144 -192 0
v -144 -176 0
v -128 -176 0
v -144 -192 0
v -160 -192 0
v -160 -176 0
v -144 -176 0
v -160 -192 0
v -176 -192 0
v -176 -176 0
v -160 -176 0
v -176 -192 0
v -192 -192 0
v -192 -176 0
v -176 -176 0
v -192 -192 0
v -208 -192 0
v -208 -176 0
v -192 -176 0
v -208 -192 0
v -224 -192 0
v -224 -176 0
v -208 -176 0
v -224 -192 0
v -240 -192 0
v -240 -176 0
v -224 -176 0
v -240 -192 0
v -256 -192 0
v -256 -176 0
v -240 -176 0
v 0 -208 0
v -16 -208 0
v -16 -192 0
v 0 -192 0
v -16 -208 0
v -32 -208 0
v -32 -192 0
v -16 -192 0
v -32 -208 0
v -48 -208 0
v -48 -192 0
v -32 -192 0
v -48 -208 0
v -64 -208 0
v -64 -192 0
v -48 -192 0
v -64 -208 0
v -80 -208 0
v -80 -192 0
v -64 -192 0
v -80 -208 0
v -96 -208 0
v -96 -192 0
v -80 -192 0
v -96 -208 0
v -112 -208 0
v -112 -192 0
v -96 -192 0
v -112 -208 0
v -128 -208 0
v -128 -192 0
v -112 -192 0
v -128 -208 0
v -144 -208 0
v -144 -192 0
v -128 -192 0
v -144 -208 0
v -160 -208 0
v -160 -192 0
v -144 -192 0
v -160 -208 0
v -176 -208 0
v -176 -192 0
v -160 -192 0
v -176 -208 0
v -192 -208 0
v -192 -192 0
v -176 -192 0
v -192 -208 0
v -208 -208 0
v -208 -192 0
v -192 -192 0
v -208 -208 0
v -224 -208 0
v -224 -192 0
v -208 -192 0
v -224 -208 0
v -240 -208 0
v -240 -192 0
v -224 -192 0
v -240 -208 0
v -256 -208 0
v -256 -192 0
v -240 -192 0
v 0 -224 0
v -16 -224 0
v -16 -208 0
v 0 -208 0
v -16 -224 0
v -32 -224 0
v -32 -208 0
v -16 -208 0
v -32 -224 0
v -48 -224 0
v -48 -208 0
v -32 -208 0
v -48 -224 0
v -64 -224 0
v -64 -208 0
v -48 -208 0
v -64 -224 0
v -80 -224 0
v -80 -208 0
v -64 -208 0
v -80 -224 0
v -96 -224 0
v -96 -208 0
v -80 -208 0
v -96 -224 0
v -112 -224 0
v -112 -208 0
v -96 -208 0
v -112 -224 0
v -128 -224 0
v -128 -208 0
v -112 -208 0
v -128 -224 0
v -144 -224 0
v -144 -208 0
v -128 -208 0
v -144 -224 0
v -160 -224 0
v -160 -208 0
v -144 -208 0
v -160 -224 0
v -176 -224 0
v -176 -208 0
v -160 -208 0
v -176 -224 0
v -192 -224 0
v -192 -208 0
v -176 -208 0
v -192 -224 0
v -208 -224 0
v -208 -208 0
v -192 -208 0
v -208 -224 0
v -224 -224 0
v -224 -208 0
v -208 -208 0
v -224 -224 0
v -240 -224 0
v -240 -208 0
v -224 -208 0
v -240 -224 0
v -256 -224 0
v -256 -208 0
v -240 -208 0
v 0 -240 0
v -16 -240 0
v -16 -224 0
v 0 -224 0
v -16 -240 0
v -32 -240 0
v -32 -224 0
v -16 -224 0
v -32 -240 0
v -48 -240 0
v -48 -224 0
v -32 -224 0
v -48 -240 0
v -64 -240 0
v -64 -224 0
v -48 -224 0
v -64 -240 0
v -80 -240 0
v -80 -224 0
v -64 -224 0
v -80 -240 0
v -96 -240 0
v -96 -224 0
v -80 -224 0
v -96 -240 0
v -112 -240 0
v -112 -224 0
v -96 -224 0
v -112 -240 0
v -128 -240 0
v -128 -224 0
v -112 -224 0
v -128 -240 0
v -144 -240 0
v -144 -224 0
v -128 -224 0
v -144 -240 0
v -160 -240 0
v -160 -224 0
v -144 -224 0
v -160 -240 0
v -176 -240 0
v -176 -224 0
v -160 -224 0
v -176 -240 0
v -192 -240 0
v -192 -224 0
v -176 -224 0
v -192 -240 0
v -208 -240 0
v -208 -224 0
v -192 -224 0
v -208 -240 0
v -224 -240 0
v -224 -224 0
v -208 -224 0
v -224 -240 0
v -240 -240 0
v -240 -224 0
v -224 -224 0
v -240 -240 0
v -256 -240 0
v -256 -224 0
v -240 -224 0
v 0 -256 0
v -16 -256 0
v -16 -240 0
v 0 -240 0
v -16 -256 0
v -32 -256 0
v -32 -240 0
v -16 -240 0
v -32 -256 0
v -48 -256 0
v -48 -240 0
v -32 -240 0
v -48 -256 0
v -64 -256 0
v -64 -240 0
v -48 -240 0
v -64 -256 0
v -80 -256 0
v -80 -240 0
v -64 -240 0
v -80 -256 0
v -96 -256 0
v -96 -240 0
v -80 -240 0
v -96 -256 0
v -112 -256 0
v -112 -240 0
v -96 -240 0
v -112 -256 0
v -128 -256 0
v -128 -240 0
v -112 -240 0
v -128 -256 0
v -144 -256 0
v -144 -240 0
v -128 -240 0
v -144 -256 0
v -160 -256 0
v -160 -240 0
v -144 -240 0
v -160 -256 0
v -176 -256 0
v -176 -240 0
v -160 -240 0
v -176 -256 0
v -192 -256 0
v -192 -240 0
v -176 -240 0
v -192 -256 0
v -208 -256 0
v -208 -240 0
v -192 -240 0
v -208 -256 0
v -224 -256 0
v -224 -240 0
v -208 -240 0
v -224 -256 0
v -240 -256 0
v -240 -240 0
v -224 -240 0
v -240 -256 0
v -256 -256 0
v -256 -240 0
v -240 -240 0

# Texture cooridinates (Count = 49)
vt 0.015625 0.421875
vt 0.01953125 0.421875
vt 0.01953125 0.4375
vt 0.015625 0.4375
vt 0.0234375 0.4375
vt 0.02734375 0.4375
vt 0.02734375 0.453125
vt 0.0234375 0.453125
vt 0.015625 0.390625
vt 0.01953125 0.390625
vt 0.01953125 0.40625
vt 0.015625 0.40625
vt 0.03125 0.4375
vt 0.03125 0.453125
vt 0.0234375 0.390625
vt 0.02734375 0.390625
vt 0.02734375 0.40625
vt 0.0234375 0.40625
vt 0.01953125 0.46875
vt 0.0234375 0.46875
vt 0.0234375 0.484375
vt 0.01953125 0.484375
vt 0.0078125 0.421875
vt 0.01171875 0.421875
vt 0.01171875 0.4375
vt 0.0078125 0.4375
vt 0.0078125 0.46875
vt 0.01171875 0.46875
vt 0.01171875 0.484375
vt 0.0078125 0.484375
vt 0.02734375 0.421875
vt 0.03125 0.421875
vt 0.0234375 0.421875
vt 0.01953125 0.453125
vt 0.015625 0.453125
vt 0.01171875 0.453125
vt 0.0078125 0.453125
vt 0.0078125 0.40625
vt 0.01171875 0.40625
vt 0.02734375 0.46875
vt 0.03125 0.46875
vt 0.03125 0.484375
vt 0.02734375 0.484375
vt 0.03125 0.40625
vt 0.03125 0.390625
vt 0.015625 0.46875
vt 0.015625 0.484375
vt 0.01171875 0.390625
vt 0.0078125 0.390625

# Normal
vn 0 0 -1

# Mesh description
g TitleIntro_mesh_0089

# Faces
f 1/1/1 2/2/1 3/3/1 4/4/1
f 5/5/1 6/6/1 7/7/1 8/8/1
f 9/9/1 10/10/1 11/11/1 12/12/1
f 13/6/1 14/13/1 15/14/1 16/7/1
f 17/15/1 18/16/1 19/17/1 20/18/1
f 21/19/1 22/20/1 23/21/1 24/22/1
f 25/23/1 26/24/1 27/25/1 28/26/1
f 29/27/1 30/28/1 31/29/1 32/30/1
f 33/31/1 34/32/1 35/13/1 36/6/1
f 37/18/1 38/17/1 39/31/1 40/33/1
f 41/6/1 42/13/1 43/14/1 44/7/1
f 45/34/1 46/8/1 47/20/1 48/19/1
f 49/25/1 50/4/1 51/35/1 52/36/1
f 53/34/1 54/8/1 55/20/1 56/19/1
f 57/37/1 58/36/1 59/28/1 60/27/1
f 61/31/1 62/32/1 63/13/1 64/6/1
f 65/38/1 66/39/1 67/24/1 68/23/1
f 69/1/1 70/2/1 71/3/1 72/4/1
f 73/26/1 74/25/1 75/36/1 76/37/1
f 77/1/1 78/2/1 79/3/1 80/4/1
f 81/40/1 82/41/1 83/42/1 84/43/1
f 85/17/1 86/44/1 87/32/1 88/31/1
f 89/16/1 90/45/1 91/44/1 92/17/1
f 93/23/1 94/24/1 95/25/1 96/26/1
f 97/11/1 98/18/1 99/33/1 100/2/1
f 101/17/1 102/44/1 103/32/1 104/31/1
f 105/31/1 106/32/1 107/13/1 108/6/1
f 109/2/1 110/33/1 111/5/1 112/3/1
f 113/28/1 114/46/1 115/47/1 116/29/1
f 117/4/1 118/3/1 119/34/1 120/35/1
f 121/1/1 122/2/1 123/3/1 124/4/1
f 125/16/1 126/45/1 127/44/1 128/17/1
f 129/27/1 130/28/1 131/29/1 132/30/1
f 133/48/1 134/9/1 135/12/1 136/39/1
f 137/4/1 138/3/1 139/34/1 140/35/1
f 141/8/1 142/7/1 143/40/1 144/20/1
f 145/3/1 146/5/1 147/8/1 148/34/1
f 149/9/1 150/10/1 151/11/1 152/12/1
f 153/15/1 154/16/1 155/17/1 156/18/1
f 157/7/1 158/14/1 159/41/1 160/40/1
f 161/2/1 162/33/1 163/5/1 164/3/1
f 165/48/1 166/9/1 167/12/1 168/39/1
f 169/46/1 170/19/1 171/22/1 172/47/1
f 173/18/1 174/17/1 175/31/1 176/33/1
f 177/36/1 178/35/1 179/46/1 180/28/1
f 181/28/1 182/46/1 183/47/1 184/29/1
f 185/38/1 186/39/1 187/24/1 188/23/1
f 189/33/1 190/31/1 191/6/1 192/5/1
f 193/34/1 194/8/1 195/20/1 196/19/1
f 197/26/1 198/25/1 199/36/1 200/37/1
f 201/34/1 202/8/1 203/20/1 204/19/1
f 205/3/1 206/5/1 207/8/1 208/34/1
f 209/16/1 210/45/1 211/44/1 212/17/1
f 213/49/1 214/48/1 215/39/1 216/38/1
f 217/15/1 218/16/1 219/17/1 220/18/1
f 221/49/1 222/48/1 223/39/1 224/38/1
f 225/37/1 226/36/1 227/28/1 228/27/1
f 229/11/1 230/18/1 231/33/1 232/2/1
f 233/31/1 234/32/1 235/13/1 236/6/1
f 237/33/1 238/31/1 239/6/1 240/5/1
f 241/17/1 242/44/1 243/32/1 244/31/1
f 245/49/1 246/48/1 247/39/1 248/38/1
f 249/38/1 250/39/1 251/24/1 252/23/1
f 253/49/1 254/48/1 255/39/1 256/38/1
f 257/25/1 258/4/1 259/35/1 260/36/1
f 261/3/1 262/5/1 263/8/1 264/34/1
f 265/24/1 266/1/1 267/4/1 268/25/1
f 269/28/1 270/46/1 271/47/1 272/29/1
f 273/3/1 274/5/1 275/8/1 276/34/1
f 277/34/1 278/8/1 279/20/1 280/19/1
f 281/49/1 282/48/1 283/39/1 284/38/1
f 285/35/1 286/34/1 287/19/1 288/46/1
f 289/27/1 290/28/1 291/29/1 292/30/1
f 293/4/1 294/3/1 295/34/1 296/35/1
f 297/18/1 298/17/1 299/31/1 300/33/1
f 301/9/1 302/10/1 303/11/1 304/12/1
f 305/4/1 306/3/1 307/34/1 308/35/1
f 309/37/1 310/36/1 311/28/1 312/27/1
f 313/35/1 314/34/1 315/19/1 316/46/1
f 317/25/1 318/4/1 319/35/1 320/36/1
f 321/2/1 322/33/1 323/5/1 324/3/1
f 325/31/1 326/32/1 327/13/1 328/6/1
f 329/18/1 330/17/1 331/31/1 332/33/1
f 333/19/1 334/20/1 335/21/1 336/22/1
f 337/12/1 338/11/1 339/2/1 340/1/1
f 341/4/1 342/3/1 343/34/1 344/35/1
f 345/46/1 346/19/1 347/22/1 348/47/1
f 349/36/1 350/35/1 351/46/1 352/28/1
f 353/25/1 354/4/1 355/35/1 356/36/1
f 357/3/1 358/5/1 359/8/1 360/34/1
f 361/46/1 362/19/1 363/22/1 364/47/1
f 365/2/1 366/33/1 367/5/1 368/3/1
f 369/11/1 370/18/1 371/33/1 372/2/1
f 373/38/1 374/39/1 375/24/1 376/23/1
f 377/24/1 378/1/1 379/4/1 380/25/1
f 381/26/1 382/25/1 383/36/1 384/37/1
f 385/9/1 386/10/1 387/11/1 388/12/1
f 389/6/1 390/13/1 391/14/1 392/7/1
f 393/37/1 394/36/1 395/28/1 396/27/1
f 397/12/1 398/11/1 399/2/1 400/1/1
f 401/1/1 402/2/1 403/3/1 404/4/1
f 405/8/1 406/7/1 407/40/1 408/20/1
f 409/1/1 410/2/1 411/3/1 412/4/1
f 413/25/1 414/4/1 415/35/1 416/36/1
f 417/35/1 418/34/1 419/19/1 420/46/1
f 421/6/1 422/13/1 423/14/1 424/7/1
f 425/10/1 426/15/1 427/18/1 428/11/1
f 429/3/1 430/5/1 431/8/1 432/34/1
f 433/38/1 434/39/1 435/24/1 436/23/1
f 437/20/1 438/40/1 439/43/1 440/21/1
f 441/3/1 442/5/1 443/8/1 444/34/1
f 445/34/1 446/8/1 447/20/1 448/19/1
f 449/31/1 450/32/1 451/13/1 452/6/1
f 453/3/1 454/5/1 455/8/1 456/34/1
f 457/48/1 458/9/1 459/12/1 460/39/1
f 461/48/1 462/9/1 463/12/1 464/39/1
f 465/7/1 466/14/1 467/41/1 468/40/1
f 469/18/1 470/17/1 471/31/1 472/33/1
f 473/15/1 474/16/1 475/17/1 476/18/1
f 477/33/1 478/31/1 479/6/1 480/5/1
f 481/25/1 482/4/1 483/35/1 484/36/1
f 485/31/1 486/32/1 487/13/1 488/6/1
f 489/7/1 490/14/1 491/41/1 492/40/1
f 493/1/1 494/2/1 495/3/1 496/4/1
f 497/38/1 498/39/1 499/24/1 500/23/1
f 501/11/1 502/18/1 503/33/1 504/2/1
f 505/3/1 506/5/1 507/8/1 508/34/1
f 509/3/1 510/5/1 511/8/1 512/34/1
f 513/31/1 514/32/1 515/13/1 516/6/1
f 517/7/1 518/14/1 519/41/1 520/40/1
f 521/25/1 522/4/1 523/35/1 524/36/1
f 525/37/1 526/36/1 527/28/1 528/27/1
f 529/17/1 530/44/1 531/32/1 532/31/1
f 533/38/1 534/39/1 535/24/1 536/23/1
f 537/16/1 538/45/1 539/44/1 540/17/1
f 541/9/1 542/10/1 543/11/1 544/12/1
f 545/9/1 546/10/1 547/11/1 548/12/1
f 549/36/1 550/35/1 551/46/1 552/28/1
f 553/17/1 554/44/1 555/32/1 556/31/1
f 557/6/1 558/13/1 559/14/1 560/7/1
f 561/25/1 562/4/1 563/35/1 564/36/1
f 565/15/1 566/16/1 567/17/1 568/18/1
f 569/48/1 570/9/1 571/12/1 572/39/1
f 573/48/1 574/9/1 575/12/1 576/39/1
f 577/10/1 578/15/1 579/18/1 580/11/1
f 581/40/1 582/41/1 583/42/1 584/43/1
f 585/1/1 586/2/1 587/3/1 588/4/1
f 589/3/1 590/5/1 591/8/1 592/34/1
f 593/3/1 594/5/1 595/8/1 596/34/1
f 597/19/1 598/20/1 599/21/1 600/22/1
f 601/9/1 602/10/1 603/11/1 604/12/1
f 605/17/1 606/44/1 607/32/1 608/31/1
f 609/31/1 610/32/1 611/13/1 612/6/1
f 613/23/1 614/24/1 615/25/1 616/26/1
f 617/6/1 618/13/1 619/14/1 620/7/1
f 621/49/1 622/48/1 623/39/1 624/38/1
f 625/17/1 626/44/1 627/32/1 628/31/1
f 629/15/1 630/16/1 631/17/1 632/18/1
f 633/18/1 634/17/1 635/31/1 636/33/1
f 637/6/1 638/13/1 639/14/1 640/7/1
f 641/37/1 642/36/1 643/28/1 644/27/1
f 645/36/1 646/35/1 647/46/1 648/28/1
f 649/11/1 650/18/1 651/33/1 652/2/1
f 653/23/1 654/24/1 655/25/1 656/26/1
f 657/1/1 658/2/1 659/3/1 660/4/1
f 661/3/1 662/5/1 663/8/1 664/34/1
f 665/1/1 666/2/1 667/3/1 668/4/1
f 669/31/1 670/32/1 671/13/1 672/6/1
f 673/35/1 674/34/1 675/19/1 676/46/1
f 677/36/1 678/35/1 679/46/1 680/28/1
f 681/28/1 682/46/1 683/47/1 684/29/1
f 685/1/1 686/2/1 687/3/1 688/4/1
f 689/34/1 690/8/1 691/20/1 692/19/1
f 693/37/1 694/36/1 695/28/1 696/27/1
f 697/28/1 698/46/1 699/47/1 700/29/1
f 701/31/1 702/32/1 703/13/1 704/6/1
f 705/7/1 706/14/1 707/41/1 708/40/1
f 709/25/1 710/4/1 711/35/1 712/36/1
f 713/35/1 714/34/1 715/19/1 716/46/1
f 717/16/1 718/45/1 719/44/1 720/17/1
f 721/23/1 722/24/1 723/25/1 724/26/1
f 725/48/1 726/9/1 727/12/1 728/39/1
f 729/23/1 730/24/1 731/25/1 732/26/1
f 733/48/1 734/9/1 735/12/1 736/39/1
f 737/23/1 738/24/1 739/25/1 740/26/1
f 741/20/1 742/40/1 743/43/1 744/21/1
f 745/23/1 746/24/1 747/25/1 748/26/1
f 749/24/1 750/1/1 751/4/1 752/25/1
f 753/8/1 754/7/1 755/40/1 756/20/1
f 757/49/1 758/48/1 759/39/1 760/38/1
f 761/28/1 762/46/1 763/47/1 764/29/1
f 765/7/1 766/14/1 767/41/1 768/40/1
f 769/6/1 770/13/1 771/14/1 772/7/1
f 773/27/1 774/28/1 775/29/1 776/30/1
f 777/37/1 778/36/1 779/28/1 780/27/1
f 781/28/1 782/46/1 783/47/1 784/29/1
f 785/24/1 786/1/1 787/4/1 788/25/1
f 789/11/1 790/18/1 791/33/1 792/2/1
f 793/6/1 794/13/1 795/14/1 796/7/1
f 797/46/1 798/19/1 799/22/1 800/47/1
f 801/4/1 802/3/1 803/34/1 804/35/1
f 805/4/1 806/3/1 807/34/1 808/35/1
f 809/49/1 810/48/1 811/39/1 812/38/1
f 813/2/1 814/33/1 815/5/1 816/3/1
f 817/31/1 818/32/1 819/13/1 820/6/1
f 821/3/1 822/5/1 823/8/1 824/34/1
f 825/34/1 826/8/1 827/20/1 828/19/1
f 829/26/1 830/25/1 831/36/1 832/37/1
f 833/12/1 834/11/1 835/2/1 836/1/1
f 837/1/1 838/2/1 839/3/1 840/4/1
f 841/15/1 842/16/1 843/17/1 844/18/1
f 845/7/1 846/14/1 847/41/1 848/40/1
f 849/38/1 850/39/1 851/24/1 852/23/1
f 853/31/1 854/32/1 855/13/1 856/6/1
f 857/33/1 858/31/1 859/6/1 860/5/1
f 861/1/1 862/2/1 863/3/1 864/4/1
f 865/3/1 866/5/1 867/8/1 868/34/1
f 869/4/1 870/3/1 871/34/1 872/35/1
f 873/7/1 874/14/1 875/41/1 876/40/1
f 877/8/1 878/7/1 879/40/1 880/20/1
f 881/17/1 882/44/1 883/32/1 884/31/1
f 885/15/1 886/16/1 887/17/1 888/18/1
f 889/24/1 890/1/1 891/4/1 892/25/1
f 893/24/1 894/1/1 895/4/1 896/25/1
f 897/19/1 898/20/1 899/21/1 900/22/1
f 901/46/1 902/19/1 903/22/1 904/47/1
f 905/31/1 906/32/1 907/13/1 908/6/1
f 909/28/1 910/46/1 911/47/1 912/29/1
f 913/10/1 914/15/1 915/18/1 916/11/1
f 917/33/1 918/31/1 919/6/1 920/5/1
f 921/9/1 922/10/1 923/11/1 924/12/1
f 925/35/1 926/34/1 927/19/1 928/46/1
f 929/11/1 930/18/1 931/33/1 932/2/1
f 933/6/1 934/13/1 935/14/1 936/7/1
f 937/12/1 938/11/1 939/2/1 940/1/1
f 941/46/1 942/19/1 943/22/1 944/47/1
f 945/10/1 946/15/1 947/18/1 948/11/1
f 949/17/1 950/44/1 951/32/1 952/31/1
f 953/8/1 954/7/1 955/40/1 956/20/1
f 957/9/1 958/10/1 959/11/1 960/12/1
f 961/27/1 962/28/1 963/29/1 964/30/1
f 965/38/1 966/39/1 967/24/1 968/23/1
f 969/31/1 970/32/1 971/13/1 972/6/1
f 973/23/1 974/24/1 975/25/1 976/26/1
f 977/10/1 978/15/1 979/18/1 980/11/1
f 981/4/1 982/3/1 983/34/1 984/35/1
f 985/7/1 986/14/1 987/41/1 988/40/1
f 989/4/1 990/3/1 991/34/1 992/35/1
f 993/4/1 994/3/1 995/34/1 996/35/1
f 997/6/1 998/13/1 999/14/1 1000/7/1
f 1001/25/1 1002/4/1 1003/35/1 1004/36/1
f 1005/1/1 1006/2/1 1007/3/1 1008/4/1
f 1009/48/1 1010/9/1 1011/12/1 1012/39/1
f 1013/46/1 1014/19/1 1015/22/1 1016/47/1
f 1017/4/1 1018/3/1 1019/34/1 1020/35/1
f 1021/31/1 1022/32/1 1023/13/1 1024/6/1

