# Tiled2Unity generated file. Do not modify by hand.
# Wavefront file for 'TitleIntro_mesh_0102.obj'

# Vertices (Count = 124)
v -80 -80 0
v -96 -80 0
v -96 -64 0
v -80 -64 0
v -96 -80 0
v -112 -80 0
v -112 -64 0
v -96 -64 0
v -64 -96 0
v -80 -96 0
v -80 -80 0
v -64 -80 0
v -80 -96 0
v -96 -96 0
v -96 -80 0
v -80 -80 0
v -96 -96 0
v -112 -96 0
v -112 -80 0
v -96 -80 0
v -128 -96 0
v -144 -96 0
v -144 -80 0
v -128 -80 0
v -64 -112 0
v -80 -112 0
v -80 -96 0
v -64 -96 0
v -80 -112 0
v -96 -112 0
v -96 -96 0
v -80 -96 0
v -96 -112 0
v -112 -112 0
v -112 -96 0
v -96 -96 0
v -48 -128 0
v -64 -128 0
v -64 -112 0
v -48 -112 0
v -64 -128 0
v -80 -128 0
v -80 -112 0
v -64 -112 0
v -80 -128 0
v -96 -128 0
v -96 -112 0
v -80 -112 0
v -96 -128 0
v -112 -128 0
v -112 -112 0
v -96 -112 0
v -112 -128 0
v -128 -128 0
v -128 -112 0
v -112 -112 0
v -128 -128 0
v -144 -128 0
v -144 -112 0
v -128 -112 0
v 0 -144 0
v -16 -144 0
v -16 -128 0
v 0 -128 0
v -16 -144 0
v -32 -144 0
v -32 -128 0
v -16 -128 0
v -32 -144 0
v -48 -144 0
v -48 -128 0
v -32 -128 0
v -48 -144 0
v -64 -144 0
v -64 -128 0
v -48 -128 0
v -64 -144 0
v -80 -144 0
v -80 -128 0
v -64 -128 0
v -80 -144 0
v -96 -144 0
v -96 -128 0
v -80 -128 0
v -96 -144 0
v -112 -144 0
v -112 -128 0
v -96 -128 0
v -144 -144 0
v -160 -144 0
v -160 -128 0
v -144 -128 0
v -48 -160 0
v -64 -160 0
v -64 -144 0
v -48 -144 0
v 0 -176 0
v -16 -176 0
v -16 -160 0
v 0 -160 0
v -16 -176 0
v -32 -176 0
v -32 -160 0
v -16 -160 0
v 0 -192 0
v -16 -192 0
v -16 -176 0
v 0 -176 0
v 0 -208 0
v -16 -208 0
v -16 -192 0
v 0 -192 0
v 0 -224 0
v -16 -224 0
v -16 -208 0
v 0 -208 0
v 0 -240 0
v -16 -240 0
v -16 -224 0
v 0 -224 0
v 0 -256 0
v -16 -256 0
v -16 -240 0
v 0 -240 0

# Texture cooridinates (Count = 23)
vt 0.7109375 0.90625
vt 0.7148438 0.90625
vt 0.7148438 0.921875
vt 0.7109375 0.921875
vt 0.71875 0.90625
vt 0.71875 0.921875
vt 0.7070313 0.890625
vt 0.7109375 0.890625
vt 0.7070313 0.90625
vt 0.7148438 0.890625
vt 0.953125 0.859375
vt 0.9570313 0.859375
vt 0.9570313 0.875
vt 0.953125 0.875
vt 0.9648438 0.84375
vt 0.96875 0.84375
vt 0.96875 0.859375
vt 0.9648438 0.859375
vt 0.953125 0.84375
vt 0.9570313 0.84375
vt 0.9570313 0.828125
vt 0.9609375 0.828125
vt 0.9609375 0.84375

# Normal
vn 0 0 -1

# Mesh description
g TitleIntro_mesh_0102

# Faces
f 1/1/1 2/2/1 3/3/1 4/4/1
f 5/2/1 6/5/1 7/6/1 8/3/1
f 9/7/1 10/8/1 11/1/1 12/9/1
f 13/1/1 14/2/1 15/3/1 16/4/1
f 17/2/1 18/5/1 19/6/1 20/3/1
f 21/7/1 22/8/1 23/1/1 24/9/1
f 25/1/1 26/2/1 27/3/1 28/4/1
f 29/2/1 30/5/1 31/6/1 32/3/1
f 33/2/1 34/5/1 35/6/1 36/3/1
f 37/7/1 38/8/1 39/1/1 40/9/1
f 41/1/1 42/2/1 43/3/1 44/4/1
f 45/1/1 46/2/1 47/3/1 48/4/1
f 49/1/1 50/2/1 51/3/1 52/4/1
f 53/1/1 54/2/1 55/3/1 56/4/1
f 57/2/1 58/5/1 59/6/1 60/3/1
f 61/7/1 62/8/1 63/1/1 64/9/1
f 65/2/1 66/5/1 67/6/1 68/3/1
f 69/2/1 70/5/1 71/6/1 72/3/1
f 73/7/1 74/8/1 75/1/1 76/9/1
f 77/2/1 78/5/1 79/6/1 80/3/1
f 81/2/1 82/5/1 83/6/1 84/3/1
f 85/2/1 86/5/1 87/6/1 88/3/1
f 89/7/1 90/8/1 91/1/1 92/9/1
f 93/8/1 94/10/1 95/2/1 96/1/1
f 97/11/1 98/12/1 99/13/1 100/14/1
f 101/15/1 102/16/1 103/17/1 104/18/1
f 105/19/1 106/20/1 107/12/1 108/11/1
f 109/21/1 110/22/1 111/23/1 112/20/1
f 113/21/1 114/22/1 115/23/1 116/20/1
f 117/21/1 118/22/1 119/23/1 120/20/1
f 121/21/1 122/22/1 123/23/1 124/20/1

