# Tiled2Unity generated file. Do not modify by hand.
# Wavefront file for 'TitleIntro_mesh_0122.obj'

# Vertices (Count = 20)
v -144 -256 0
v -160 -256 0
v -160 -240 0
v -144 -240 0
v -160 -256 0
v -176 -256 0
v -176 -240 0
v -160 -240 0
v -176 -256 0
v -192 -256 0
v -192 -240 0
v -176 -240 0
v -192 -256 0
v -208 -256 0
v -208 -240 0
v -192 -240 0
v -208 -256 0
v -224 -256 0
v -224 -240 0
v -208 -240 0

# Texture cooridinates (Count = 12)
vt 0.7304688 0.984375
vt 0.734375 0.984375
vt 0.734375 1
vt 0.7304688 1
vt 0.7382813 0.984375
vt 0.7382813 1
vt 0.7421875 0.984375
vt 0.7421875 1
vt 0.7460938 0.984375
vt 0.7460938 1
vt 0.75 0.984375
vt 0.75 1

# Normal
vn 0 0 -1

# Mesh description
g TitleIntro_mesh_0122

# Faces
f 1/1/1 2/2/1 3/3/1 4/4/1
f 5/2/1 6/5/1 7/6/1 8/3/1
f 9/5/1 10/7/1 11/8/1 12/6/1
f 13/7/1 14/9/1 15/10/1 16/8/1
f 17/9/1 18/11/1 19/12/1 20/10/1

