# Tiled2Unity generated file. Do not modify by hand.
# Wavefront file for 'TitleIntro_mesh_0015.obj'

# Vertices (Count = 1024)
v 0 -16 0
v -16 -16 0
v -16 0 0
v 0 0 0
v -16 -16 0
v -32 -16 0
v -32 0 0
v -16 0 0
v -32 -16 0
v -48 -16 0
v -48 0 0
v -32 0 0
v -48 -16 0
v -64 -16 0
v -64 0 0
v -48 0 0
v -64 -16 0
v -80 -16 0
v -80 0 0
v -64 0 0
v -80 -16 0
v -96 -16 0
v -96 0 0
v -80 0 0
v -96 -16 0
v -112 -16 0
v -112 0 0
v -96 0 0
v -112 -16 0
v -128 -16 0
v -128 0 0
v -112 0 0
v -128 -16 0
v -144 -16 0
v -144 0 0
v -128 0 0
v -144 -16 0
v -160 -16 0
v -160 0 0
v -144 0 0
v -160 -16 0
v -176 -16 0
v -176 0 0
v -160 0 0
v -176 -16 0
v -192 -16 0
v -192 0 0
v -176 0 0
v -192 -16 0
v -208 -16 0
v -208 0 0
v -192 0 0
v -208 -16 0
v -224 -16 0
v -224 0 0
v -208 0 0
v -224 -16 0
v -240 -16 0
v -240 0 0
v -224 0 0
v -240 -16 0
v -256 -16 0
v -256 0 0
v -240 0 0
v 0 -32 0
v -16 -32 0
v -16 -16 0
v 0 -16 0
v -16 -32 0
v -32 -32 0
v -32 -16 0
v -16 -16 0
v -32 -32 0
v -48 -32 0
v -48 -16 0
v -32 -16 0
v -48 -32 0
v -64 -32 0
v -64 -16 0
v -48 -16 0
v -64 -32 0
v -80 -32 0
v -80 -16 0
v -64 -16 0
v -80 -32 0
v -96 -32 0
v -96 -16 0
v -80 -16 0
v -96 -32 0
v -112 -32 0
v -112 -16 0
v -96 -16 0
v -112 -32 0
v -128 -32 0
v -128 -16 0
v -112 -16 0
v -128 -32 0
v -144 -32 0
v -144 -16 0
v -128 -16 0
v -144 -32 0
v -160 -32 0
v -160 -16 0
v -144 -16 0
v -160 -32 0
v -176 -32 0
v -176 -16 0
v -160 -16 0
v -176 -32 0
v -192 -32 0
v -192 -16 0
v -176 -16 0
v -192 -32 0
v -208 -32 0
v -208 -16 0
v -192 -16 0
v -208 -32 0
v -224 -32 0
v -224 -16 0
v -208 -16 0
v -224 -32 0
v -240 -32 0
v -240 -16 0
v -224 -16 0
v -240 -32 0
v -256 -32 0
v -256 -16 0
v -240 -16 0
v 0 -48 0
v -16 -48 0
v -16 -32 0
v 0 -32 0
v -16 -48 0
v -32 -48 0
v -32 -32 0
v -16 -32 0
v -32 -48 0
v -48 -48 0
v -48 -32 0
v -32 -32 0
v -48 -48 0
v -64 -48 0
v -64 -32 0
v -48 -32 0
v -64 -48 0
v -80 -48 0
v -80 -32 0
v -64 -32 0
v -80 -48 0
v -96 -48 0
v -96 -32 0
v -80 -32 0
v -96 -48 0
v -112 -48 0
v -112 -32 0
v -96 -32 0
v -112 -48 0
v -128 -48 0
v -128 -32 0
v -112 -32 0
v -128 -48 0
v -144 -48 0
v -144 -32 0
v -128 -32 0
v -144 -48 0
v -160 -48 0
v -160 -32 0
v -144 -32 0
v -160 -48 0
v -176 -48 0
v -176 -32 0
v -160 -32 0
v -176 -48 0
v -192 -48 0
v -192 -32 0
v -176 -32 0
v -192 -48 0
v -208 -48 0
v -208 -32 0
v -192 -32 0
v -208 -48 0
v -224 -48 0
v -224 -32 0
v -208 -32 0
v -224 -48 0
v -240 -48 0
v -240 -32 0
v -224 -32 0
v -240 -48 0
v -256 -48 0
v -256 -32 0
v -240 -32 0
v 0 -64 0
v -16 -64 0
v -16 -48 0
v 0 -48 0
v -16 -64 0
v -32 -64 0
v -32 -48 0
v -16 -48 0
v -32 -64 0
v -48 -64 0
v -48 -48 0
v -32 -48 0
v -48 -64 0
v -64 -64 0
v -64 -48 0
v -48 -48 0
v -64 -64 0
v -80 -64 0
v -80 -48 0
v -64 -48 0
v -80 -64 0
v -96 -64 0
v -96 -48 0
v -80 -48 0
v -96 -64 0
v -112 -64 0
v -112 -48 0
v -96 -48 0
v -112 -64 0
v -128 -64 0
v -128 -48 0
v -112 -48 0
v -128 -64 0
v -144 -64 0
v -144 -48 0
v -128 -48 0
v -144 -64 0
v -160 -64 0
v -160 -48 0
v -144 -48 0
v -160 -64 0
v -176 -64 0
v -176 -48 0
v -160 -48 0
v -176 -64 0
v -192 -64 0
v -192 -48 0
v -176 -48 0
v -192 -64 0
v -208 -64 0
v -208 -48 0
v -192 -48 0
v -208 -64 0
v -224 -64 0
v -224 -48 0
v -208 -48 0
v -224 -64 0
v -240 -64 0
v -240 -48 0
v -224 -48 0
v -240 -64 0
v -256 -64 0
v -256 -48 0
v -240 -48 0
v 0 -80 0
v -16 -80 0
v -16 -64 0
v 0 -64 0
v -16 -80 0
v -32 -80 0
v -32 -64 0
v -16 -64 0
v -32 -80 0
v -48 -80 0
v -48 -64 0
v -32 -64 0
v -48 -80 0
v -64 -80 0
v -64 -64 0
v -48 -64 0
v -64 -80 0
v -80 -80 0
v -80 -64 0
v -64 -64 0
v -80 -80 0
v -96 -80 0
v -96 -64 0
v -80 -64 0
v -96 -80 0
v -112 -80 0
v -112 -64 0
v -96 -64 0
v -112 -80 0
v -128 -80 0
v -128 -64 0
v -112 -64 0
v -128 -80 0
v -144 -80 0
v -144 -64 0
v -128 -64 0
v -144 -80 0
v -160 -80 0
v -160 -64 0
v -144 -64 0
v -160 -80 0
v -176 -80 0
v -176 -64 0
v -160 -64 0
v -176 -80 0
v -192 -80 0
v -192 -64 0
v -176 -64 0
v -192 -80 0
v -208 -80 0
v -208 -64 0
v -192 -64 0
v -208 -80 0
v -224 -80 0
v -224 -64 0
v -208 -64 0
v -224 -80 0
v -240 -80 0
v -240 -64 0
v -224 -64 0
v -240 -80 0
v -256 -80 0
v -256 -64 0
v -240 -64 0
v 0 -96 0
v -16 -96 0
v -16 -80 0
v 0 -80 0
v -16 -96 0
v -32 -96 0
v -32 -80 0
v -16 -80 0
v -32 -96 0
v -48 -96 0
v -48 -80 0
v -32 -80 0
v -48 -96 0
v -64 -96 0
v -64 -80 0
v -48 -80 0
v -64 -96 0
v -80 -96 0
v -80 -80 0
v -64 -80 0
v -80 -96 0
v -96 -96 0
v -96 -80 0
v -80 -80 0
v -96 -96 0
v -112 -96 0
v -112 -80 0
v -96 -80 0
v -112 -96 0
v -128 -96 0
v -128 -80 0
v -112 -80 0
v -128 -96 0
v -144 -96 0
v -144 -80 0
v -128 -80 0
v -144 -96 0
v -160 -96 0
v -160 -80 0
v -144 -80 0
v -160 -96 0
v -176 -96 0
v -176 -80 0
v -160 -80 0
v -176 -96 0
v -192 -96 0
v -192 -80 0
v -176 -80 0
v -192 -96 0
v -208 -96 0
v -208 -80 0
v -192 -80 0
v -208 -96 0
v -224 -96 0
v -224 -80 0
v -208 -80 0
v -224 -96 0
v -240 -96 0
v -240 -80 0
v -224 -80 0
v -240 -96 0
v -256 -96 0
v -256 -80 0
v -240 -80 0
v 0 -112 0
v -16 -112 0
v -16 -96 0
v 0 -96 0
v -16 -112 0
v -32 -112 0
v -32 -96 0
v -16 -96 0
v -32 -112 0
v -48 -112 0
v -48 -96 0
v -32 -96 0
v -48 -112 0
v -64 -112 0
v -64 -96 0
v -48 -96 0
v -64 -112 0
v -80 -112 0
v -80 -96 0
v -64 -96 0
v -80 -112 0
v -96 -112 0
v -96 -96 0
v -80 -96 0
v -96 -112 0
v -112 -112 0
v -112 -96 0
v -96 -96 0
v -112 -112 0
v -128 -112 0
v -128 -96 0
v -112 -96 0
v -128 -112 0
v -144 -112 0
v -144 -96 0
v -128 -96 0
v -144 -112 0
v -160 -112 0
v -160 -96 0
v -144 -96 0
v -160 -112 0
v -176 -112 0
v -176 -96 0
v -160 -96 0
v -176 -112 0
v -192 -112 0
v -192 -96 0
v -176 -96 0
v -192 -112 0
v -208 -112 0
v -208 -96 0
v -192 -96 0
v -208 -112 0
v -224 -112 0
v -224 -96 0
v -208 -96 0
v -224 -112 0
v -240 -112 0
v -240 -96 0
v -224 -96 0
v -240 -112 0
v -256 -112 0
v -256 -96 0
v -240 -96 0
v 0 -128 0
v -16 -128 0
v -16 -112 0
v 0 -112 0
v -16 -128 0
v -32 -128 0
v -32 -112 0
v -16 -112 0
v -32 -128 0
v -48 -128 0
v -48 -112 0
v -32 -112 0
v -48 -128 0
v -64 -128 0
v -64 -112 0
v -48 -112 0
v -64 -128 0
v -80 -128 0
v -80 -112 0
v -64 -112 0
v -80 -128 0
v -96 -128 0
v -96 -112 0
v -80 -112 0
v -96 -128 0
v -112 -128 0
v -112 -112 0
v -96 -112 0
v -112 -128 0
v -128 -128 0
v -128 -112 0
v -112 -112 0
v -128 -128 0
v -144 -128 0
v -144 -112 0
v -128 -112 0
v -144 -128 0
v -160 -128 0
v -160 -112 0
v -144 -112 0
v -160 -128 0
v -176 -128 0
v -176 -112 0
v -160 -112 0
v -176 -128 0
v -192 -128 0
v -192 -112 0
v -176 -112 0
v -192 -128 0
v -208 -128 0
v -208 -112 0
v -192 -112 0
v -208 -128 0
v -224 -128 0
v -224 -112 0
v -208 -112 0
v -224 -128 0
v -240 -128 0
v -240 -112 0
v -224 -112 0
v -240 -128 0
v -256 -128 0
v -256 -112 0
v -240 -112 0
v 0 -144 0
v -16 -144 0
v -16 -128 0
v 0 -128 0
v -16 -144 0
v -32 -144 0
v -32 -128 0
v -16 -128 0
v -32 -144 0
v -48 -144 0
v -48 -128 0
v -32 -128 0
v -48 -144 0
v -64 -144 0
v -64 -128 0
v -48 -128 0
v -64 -144 0
v -80 -144 0
v -80 -128 0
v -64 -128 0
v -80 -144 0
v -96 -144 0
v -96 -128 0
v -80 -128 0
v -96 -144 0
v -112 -144 0
v -112 -128 0
v -96 -128 0
v -112 -144 0
v -128 -144 0
v -128 -128 0
v -112 -128 0
v -128 -144 0
v -144 -144 0
v -144 -128 0
v -128 -128 0
v -144 -144 0
v -160 -144 0
v -160 -128 0
v -144 -128 0
v -160 -144 0
v -176 -144 0
v -176 -128 0
v -160 -128 0
v -176 -144 0
v -192 -144 0
v -192 -128 0
v -176 -128 0
v -192 -144 0
v -208 -144 0
v -208 -128 0
v -192 -128 0
v -208 -144 0
v -224 -144 0
v -224 -128 0
v -208 -128 0
v -224 -144 0
v -240 -144 0
v -240 -128 0
v -224 -128 0
v -240 -144 0
v -256 -144 0
v -256 -128 0
v -240 -128 0
v 0 -160 0
v -16 -160 0
v -16 -144 0
v 0 -144 0
v -16 -160 0
v -32 -160 0
v -32 -144 0
v -16 -144 0
v -32 -160 0
v -48 -160 0
v -48 -144 0
v -32 -144 0
v -48 -160 0
v -64 -160 0
v -64 -144 0
v -48 -144 0
v -64 -160 0
v -80 -160 0
v -80 -144 0
v -64 -144 0
v -80 -160 0
v -96 -160 0
v -96 -144 0
v -80 -144 0
v -96 -160 0
v -112 -160 0
v -112 -144 0
v -96 -144 0
v -112 -160 0
v -128 -160 0
v -128 -144 0
v -112 -144 0
v -128 -160 0
v -144 -160 0
v -144 -144 0
v -128 -144 0
v -144 -160 0
v -160 -160 0
v -160 -144 0
v -144 -144 0
v -160 -160 0
v -176 -160 0
v -176 -144 0
v -160 -144 0
v -176 -160 0
v -192 -160 0
v -192 -144 0
v -176 -144 0
v -192 -160 0
v -208 -160 0
v -208 -144 0
v -192 -144 0
v -208 -160 0
v -224 -160 0
v -224 -144 0
v -208 -144 0
v -224 -160 0
v -240 -160 0
v -240 -144 0
v -224 -144 0
v -240 -160 0
v -256 -160 0
v -256 -144 0
v -240 -144 0
v 0 -176 0
v -16 -176 0
v -16 -160 0
v 0 -160 0
v -16 -176 0
v -32 -176 0
v -32 -160 0
v -16 -160 0
v -32 -176 0
v -48 -176 0
v -48 -160 0
v -32 -160 0
v -48 -176 0
v -64 -176 0
v -64 -160 0
v -48 -160 0
v -64 -176 0
v -80 -176 0
v -80 -160 0
v -64 -160 0
v -80 -176 0
v -96 -176 0
v -96 -160 0
v -80 -160 0
v -96 -176 0
v -112 -176 0
v -112 -160 0
v -96 -160 0
v -112 -176 0
v -128 -176 0
v -128 -160 0
v -112 -160 0
v -128 -176 0
v -144 -176 0
v -144 -160 0
v -128 -160 0
v -144 -176 0
v -160 -176 0
v -160 -160 0
v -144 -160 0
v -160 -176 0
v -176 -176 0
v -176 -160 0
v -160 -160 0
v -176 -176 0
v -192 -176 0
v -192 -160 0
v -176 -160 0
v -192 -176 0
v -208 -176 0
v -208 -160 0
v -192 -160 0
v -208 -176 0
v -224 -176 0
v -224 -160 0
v -208 -160 0
v -224 -176 0
v -240 -176 0
v -240 -160 0
v -224 -160 0
v -240 -176 0
v -256 -176 0
v -256 -160 0
v -240 -160 0
v 0 -192 0
v -16 -192 0
v -16 -176 0
v 0 -176 0
v -16 -192 0
v -32 -192 0
v -32 -176 0
v -16 -176 0
v -32 -192 0
v -48 -192 0
v -48 -176 0
v -32 -176 0
v -48 -192 0
v -64 -192 0
v -64 -176 0
v -48 -176 0
v -64 -192 0
v -80 -192 0
v -80 -176 0
v -64 -176 0
v -80 -192 0
v -96 -192 0
v -96 -176 0
v -80 -176 0
v -96 -192 0
v -112 -192 0
v -112 -176 0
v -96 -176 0
v -112 -192 0
v -128 -192 0
v -128 -176 0
v -112 -176 0
v -128 -192 0
v -144 -192 0
v -144 -176 0
v -128 -176 0
v -144 -192 0
v -160 -192 0
v -160 -176 0
v -144 -176 0
v -160 -192 0
v -176 -192 0
v -176 -176 0
v -160 -176 0
v -176 -192 0
v -192 -192 0
v -192 -176 0
v -176 -176 0
v -192 -192 0
v -208 -192 0
v -208 -176 0
v -192 -176 0
v -208 -192 0
v -224 -192 0
v -224 -176 0
v -208 -176 0
v -224 -192 0
v -240 -192 0
v -240 -176 0
v -224 -176 0
v -240 -192 0
v -256 -192 0
v -256 -176 0
v -240 -176 0
v 0 -208 0
v -16 -208 0
v -16 -192 0
v 0 -192 0
v -16 -208 0
v -32 -208 0
v -32 -192 0
v -16 -192 0
v -32 -208 0
v -48 -208 0
v -48 -192 0
v -32 -192 0
v -48 -208 0
v -64 -208 0
v -64 -192 0
v -48 -192 0
v -64 -208 0
v -80 -208 0
v -80 -192 0
v -64 -192 0
v -80 -208 0
v -96 -208 0
v -96 -192 0
v -80 -192 0
v -96 -208 0
v -112 -208 0
v -112 -192 0
v -96 -192 0
v -112 -208 0
v -128 -208 0
v -128 -192 0
v -112 -192 0
v -128 -208 0
v -144 -208 0
v -144 -192 0
v -128 -192 0
v -144 -208 0
v -160 -208 0
v -160 -192 0
v -144 -192 0
v -160 -208 0
v -176 -208 0
v -176 -192 0
v -160 -192 0
v -176 -208 0
v -192 -208 0
v -192 -192 0
v -176 -192 0
v -192 -208 0
v -208 -208 0
v -208 -192 0
v -192 -192 0
v -208 -208 0
v -224 -208 0
v -224 -192 0
v -208 -192 0
v -224 -208 0
v -240 -208 0
v -240 -192 0
v -224 -192 0
v -240 -208 0
v -256 -208 0
v -256 -192 0
v -240 -192 0
v 0 -224 0
v -16 -224 0
v -16 -208 0
v 0 -208 0
v -16 -224 0
v -32 -224 0
v -32 -208 0
v -16 -208 0
v -32 -224 0
v -48 -224 0
v -48 -208 0
v -32 -208 0
v -48 -224 0
v -64 -224 0
v -64 -208 0
v -48 -208 0
v -64 -224 0
v -80 -224 0
v -80 -208 0
v -64 -208 0
v -80 -224 0
v -96 -224 0
v -96 -208 0
v -80 -208 0
v -96 -224 0
v -112 -224 0
v -112 -208 0
v -96 -208 0
v -112 -224 0
v -128 -224 0
v -128 -208 0
v -112 -208 0
v -128 -224 0
v -144 -224 0
v -144 -208 0
v -128 -208 0
v -144 -224 0
v -160 -224 0
v -160 -208 0
v -144 -208 0
v -160 -224 0
v -176 -224 0
v -176 -208 0
v -160 -208 0
v -176 -224 0
v -192 -224 0
v -192 -208 0
v -176 -208 0
v -192 -224 0
v -208 -224 0
v -208 -208 0
v -192 -208 0
v -208 -224 0
v -224 -224 0
v -224 -208 0
v -208 -208 0
v -224 -224 0
v -240 -224 0
v -240 -208 0
v -224 -208 0
v -240 -224 0
v -256 -224 0
v -256 -208 0
v -240 -208 0
v 0 -240 0
v -16 -240 0
v -16 -224 0
v 0 -224 0
v -16 -240 0
v -32 -240 0
v -32 -224 0
v -16 -224 0
v -32 -240 0
v -48 -240 0
v -48 -224 0
v -32 -224 0
v -48 -240 0
v -64 -240 0
v -64 -224 0
v -48 -224 0
v -64 -240 0
v -80 -240 0
v -80 -224 0
v -64 -224 0
v -80 -240 0
v -96 -240 0
v -96 -224 0
v -80 -224 0
v -96 -240 0
v -112 -240 0
v -112 -224 0
v -96 -224 0
v -112 -240 0
v -128 -240 0
v -128 -224 0
v -112 -224 0
v -128 -240 0
v -144 -240 0
v -144 -224 0
v -128 -224 0
v -144 -240 0
v -160 -240 0
v -160 -224 0
v -144 -224 0
v -160 -240 0
v -176 -240 0
v -176 -224 0
v -160 -224 0
v -176 -240 0
v -192 -240 0
v -192 -224 0
v -176 -224 0
v -192 -240 0
v -208 -240 0
v -208 -224 0
v -192 -224 0
v -208 -240 0
v -224 -240 0
v -224 -224 0
v -208 -224 0
v -224 -240 0
v -240 -240 0
v -240 -224 0
v -224 -224 0
v -240 -240 0
v -256 -240 0
v -256 -224 0
v -240 -224 0
v 0 -256 0
v -16 -256 0
v -16 -240 0
v 0 -240 0
v -16 -256 0
v -32 -256 0
v -32 -240 0
v -16 -240 0
v -32 -256 0
v -48 -256 0
v -48 -240 0
v -32 -240 0
v -48 -256 0
v -64 -256 0
v -64 -240 0
v -48 -240 0
v -64 -256 0
v -80 -256 0
v -80 -240 0
v -64 -240 0
v -80 -256 0
v -96 -256 0
v -96 -240 0
v -80 -240 0
v -96 -256 0
v -112 -256 0
v -112 -240 0
v -96 -240 0
v -112 -256 0
v -128 -256 0
v -128 -240 0
v -112 -240 0
v -128 -256 0
v -144 -256 0
v -144 -240 0
v -128 -240 0
v -144 -256 0
v -160 -256 0
v -160 -240 0
v -144 -240 0
v -160 -256 0
v -176 -256 0
v -176 -240 0
v -160 -240 0
v -176 -256 0
v -192 -256 0
v -192 -240 0
v -176 -240 0
v -192 -256 0
v -208 -256 0
v -208 -240 0
v -192 -240 0
v -208 -256 0
v -224 -256 0
v -224 -240 0
v -208 -240 0
v -224 -256 0
v -240 -256 0
v -240 -240 0
v -224 -240 0
v -240 -256 0
v -256 -256 0
v -256 -240 0
v -240 -240 0

# Texture cooridinates (Count = 49)
vt 0.01953125 0.40625
vt 0.0234375 0.40625
vt 0.0234375 0.421875
vt 0.01953125 0.421875
vt 0.02734375 0.46875
vt 0.03125 0.46875
vt 0.03125 0.484375
vt 0.02734375 0.484375
vt 0.0078125 0.421875
vt 0.01171875 0.421875
vt 0.01171875 0.4375
vt 0.0078125 0.4375
vt 0.01953125 0.4375
vt 0.0234375 0.4375
vt 0.0234375 0.453125
vt 0.01953125 0.453125
vt 0.0078125 0.46875
vt 0.01171875 0.46875
vt 0.01171875 0.484375
vt 0.0078125 0.484375
vt 0.02734375 0.390625
vt 0.03125 0.390625
vt 0.03125 0.40625
vt 0.02734375 0.40625
vt 0.01953125 0.390625
vt 0.0234375 0.390625
vt 0.015625 0.4375
vt 0.015625 0.453125
vt 0.0234375 0.46875
vt 0.0234375 0.484375
vt 0.02734375 0.421875
vt 0.03125 0.421875
vt 0.03125 0.4375
vt 0.02734375 0.4375
vt 0.015625 0.390625
vt 0.015625 0.40625
vt 0.015625 0.46875
vt 0.015625 0.484375
vt 0.01953125 0.46875
vt 0.01953125 0.484375
vt 0.01171875 0.453125
vt 0.015625 0.421875
vt 0.02734375 0.453125
vt 0.0078125 0.40625
vt 0.01171875 0.40625
vt 0.0078125 0.390625
vt 0.01171875 0.390625
vt 0.03125 0.453125
vt 0.0078125 0.453125

# Normal
vn 0 0 -1

# Mesh description
g TitleIntro_mesh_0015

# Faces
f 1/1/1 2/2/1 3/3/1 4/4/1
f 5/5/1 6/6/1 7/7/1 8/8/1
f 9/9/1 10/10/1 11/11/1 12/12/1
f 13/13/1 14/14/1 15/15/1 16/16/1
f 17/17/1 18/18/1 19/19/1 20/20/1
f 21/21/1 22/22/1 23/23/1 24/24/1
f 25/25/1 26/26/1 27/2/1 28/1/1
f 29/27/1 30/13/1 31/16/1 32/28/1
f 33/29/1 34/5/1 35/8/1 36/30/1
f 37/31/1 38/32/1 39/33/1 40/34/1
f 41/35/1 42/25/1 43/1/1 44/36/1
f 45/17/1 46/18/1 47/19/1 48/20/1
f 49/18/1 50/37/1 51/38/1 52/19/1
f 53/37/1 54/39/1 55/40/1 56/38/1
f 57/31/1 58/32/1 59/33/1 60/34/1
f 61/41/1 62/28/1 63/37/1 64/18/1
f 65/26/1 66/21/1 67/24/1 68/2/1
f 69/27/1 70/13/1 71/16/1 72/28/1
f 73/25/1 74/26/1 75/2/1 76/1/1
f 77/11/1 78/27/1 79/28/1 80/41/1
f 81/3/1 82/31/1 83/34/1 84/14/1
f 85/10/1 86/42/1 87/27/1 88/11/1
f 89/17/1 90/18/1 91/19/1 92/20/1
f 93/14/1 94/34/1 95/43/1 96/15/1
f 97/25/1 98/26/1 99/2/1 100/1/1
f 101/29/1 102/5/1 103/8/1 104/30/1
f 105/1/1 106/2/1 107/3/1 108/4/1
f 109/13/1 110/14/1 111/15/1 112/16/1
f 113/37/1 114/39/1 115/40/1 116/38/1
f 117/31/1 118/32/1 119/33/1 120/34/1
f 121/9/1 122/10/1 123/11/1 124/12/1
f 125/16/1 126/15/1 127/29/1 128/39/1
f 129/25/1 130/26/1 131/2/1 132/1/1
f 133/13/1 134/14/1 135/15/1 136/16/1
f 137/31/1 138/32/1 139/33/1 140/34/1
f 141/17/1 142/18/1 143/19/1 144/20/1
f 145/18/1 146/37/1 147/38/1 148/19/1
f 149/24/1 150/23/1 151/32/1 152/31/1
f 153/21/1 154/22/1 155/23/1 156/24/1
f 157/18/1 158/37/1 159/38/1 160/19/1
f 161/44/1 162/45/1 163/10/1 164/9/1
f 165/15/1 166/43/1 167/5/1 168/29/1
f 169/42/1 170/4/1 171/13/1 172/27/1
f 173/18/1 174/37/1 175/38/1 176/19/1
f 177/2/1 178/24/1 179/31/1 180/3/1
f 181/9/1 182/10/1 183/11/1 184/12/1
f 185/5/1 186/6/1 187/7/1 188/8/1
f 189/28/1 190/16/1 191/39/1 192/37/1
f 193/9/1 194/10/1 195/11/1 196/12/1
f 197/41/1 198/28/1 199/37/1 200/18/1
f 201/31/1 202/32/1 203/33/1 204/34/1
f 205/29/1 206/5/1 207/8/1 208/30/1
f 209/18/1 210/37/1 211/38/1 212/19/1
f 213/26/1 214/21/1 215/24/1 216/2/1
f 217/46/1 218/47/1 219/45/1 220/44/1
f 221/46/1 222/47/1 223/45/1 224/44/1
f 225/31/1 226/32/1 227/33/1 228/34/1
f 229/25/1 230/26/1 231/2/1 232/1/1
f 233/21/1 234/22/1 235/23/1 236/24/1
f 237/37/1 238/39/1 239/40/1 240/38/1
f 241/17/1 242/18/1 243/19/1 244/20/1
f 245/15/1 246/43/1 247/5/1 248/29/1
f 249/36/1 250/1/1 251/4/1 252/42/1
f 253/13/1 254/14/1 255/15/1 256/16/1
f 257/45/1 258/36/1 259/42/1 260/10/1
f 261/4/1 262/3/1 263/14/1 264/13/1
f 265/3/1 266/31/1 267/34/1 268/14/1
f 269/4/1 270/3/1 271/14/1 272/13/1
f 273/13/1 274/14/1 275/15/1 276/16/1
f 277/42/1 278/4/1 279/13/1 280/27/1
f 281/21/1 282/22/1 283/23/1 284/24/1
f 285/34/1 286/33/1 287/48/1 288/43/1
f 289/36/1 290/1/1 291/4/1 292/42/1
f 293/36/1 294/1/1 295/4/1 296/42/1
f 297/15/1 298/43/1 299/5/1 300/29/1
f 301/2/1 302/24/1 303/31/1 304/3/1
f 305/34/1 306/33/1 307/48/1 308/43/1
f 309/17/1 310/18/1 311/19/1 312/20/1
f 313/35/1 314/25/1 315/1/1 316/36/1
f 317/15/1 318/43/1 319/5/1 320/29/1
f 321/4/1 322/3/1 323/14/1 324/13/1
f 325/27/1 326/13/1 327/16/1 328/28/1
f 329/21/1 330/22/1 331/23/1 332/24/1
f 333/42/1 334/4/1 335/13/1 336/27/1
f 337/11/1 338/27/1 339/28/1 340/41/1
f 341/36/1 342/1/1 343/4/1 344/42/1
f 345/14/1 346/34/1 347/43/1 348/15/1
f 349/3/1 350/31/1 351/34/1 352/14/1
f 353/43/1 354/48/1 355/6/1 356/5/1
f 357/29/1 358/5/1 359/8/1 360/30/1
f 361/4/1 362/3/1 363/14/1 364/13/1
f 365/12/1 366/11/1 367/41/1 368/49/1
f 369/43/1 370/48/1 371/6/1 372/5/1
f 373/11/1 374/27/1 375/28/1 376/41/1
f 377/46/1 378/47/1 379/45/1 380/44/1
f 381/26/1 382/21/1 383/24/1 384/2/1
f 385/21/1 386/22/1 387/23/1 388/24/1
f 389/39/1 390/29/1 391/30/1 392/40/1
f 393/39/1 394/29/1 395/30/1 396/40/1
f 397/24/1 398/23/1 399/32/1 400/31/1
f 401/37/1 402/39/1 403/40/1 404/38/1
f 405/15/1 406/43/1 407/5/1 408/29/1
f 409/36/1 410/1/1 411/4/1 412/42/1
f 413/34/1 414/33/1 415/48/1 416/43/1
f 417/42/1 418/4/1 419/13/1 420/27/1
f 421/46/1 422/47/1 423/45/1 424/44/1
f 425/3/1 426/31/1 427/34/1 428/14/1
f 429/1/1 430/2/1 431/3/1 432/4/1
f 433/29/1 434/5/1 435/8/1 436/30/1
f 437/9/1 438/10/1 439/11/1 440/12/1
f 441/36/1 442/1/1 443/4/1 444/42/1
f 445/42/1 446/4/1 447/13/1 448/27/1
f 449/17/1 450/18/1 451/19/1 452/20/1
f 453/10/1 454/42/1 455/27/1 456/11/1
f 457/31/1 458/32/1 459/33/1 460/34/1
f 461/10/1 462/42/1 463/27/1 464/11/1
f 465/26/1 466/21/1 467/24/1 468/2/1
f 469/21/1 470/22/1 471/23/1 472/24/1
f 473/49/1 474/41/1 475/18/1 476/17/1
f 477/26/1 478/21/1 479/24/1 480/2/1
f 481/18/1 482/37/1 483/38/1 484/19/1
f 485/18/1 486/37/1 487/38/1 488/19/1
f 489/1/1 490/2/1 491/3/1 492/4/1
f 493/46/1 494/47/1 495/45/1 496/44/1
f 497/1/1 498/2/1 499/3/1 500/4/1
f 501/39/1 502/29/1 503/30/1 504/40/1
f 505/37/1 506/39/1 507/40/1 508/38/1
f 509/37/1 510/39/1 511/40/1 512/38/1
f 513/39/1 514/29/1 515/30/1 516/40/1
f 517/41/1 518/28/1 519/37/1 520/18/1
f 521/3/1 522/31/1 523/34/1 524/14/1
f 525/43/1 526/48/1 527/6/1 528/5/1
f 529/17/1 530/18/1 531/19/1 532/20/1
f 533/27/1 534/13/1 535/16/1 536/28/1
f 537/27/1 538/13/1 539/16/1 540/28/1
f 541/49/1 542/41/1 543/18/1 544/17/1
f 545/4/1 546/3/1 547/14/1 548/13/1
f 549/25/1 550/26/1 551/2/1 552/1/1
f 553/26/1 554/21/1 555/24/1 556/2/1
f 557/3/1 558/31/1 559/34/1 560/14/1
f 561/44/1 562/45/1 563/10/1 564/9/1
f 565/31/1 566/32/1 567/33/1 568/34/1
f 569/15/1 570/43/1 571/5/1 572/29/1
f 573/18/1 574/37/1 575/38/1 576/19/1
f 577/12/1 578/11/1 579/41/1 580/49/1
f 581/27/1 582/13/1 583/16/1 584/28/1
f 585/9/1 586/10/1 587/11/1 588/12/1
f 589/25/1 590/26/1 591/2/1 592/1/1
f 593/41/1 594/28/1 595/37/1 596/18/1
f 597/35/1 598/25/1 599/1/1 600/36/1
f 601/5/1 602/6/1 603/7/1 604/8/1
f 605/10/1 606/42/1 607/27/1 608/11/1
f 609/13/1 610/14/1 611/15/1 612/16/1
f 613/44/1 614/45/1 615/10/1 616/9/1
f 617/17/1 618/18/1 619/19/1 620/20/1
f 621/5/1 622/6/1 623/7/1 624/8/1
f 625/12/1 626/11/1 627/41/1 628/49/1
f 629/21/1 630/22/1 631/23/1 632/24/1
f 633/44/1 634/45/1 635/10/1 636/9/1
f 637/21/1 638/22/1 639/23/1 640/24/1
f 641/18/1 642/37/1 643/38/1 644/19/1
f 645/9/1 646/10/1 647/11/1 648/12/1
f 649/21/1 650/22/1 651/23/1 652/24/1
f 653/44/1 654/45/1 655/10/1 656/9/1
f 657/35/1 658/25/1 659/1/1 660/36/1
f 661/14/1 662/34/1 663/43/1 664/15/1
f 665/5/1 666/6/1 667/7/1 668/8/1
f 669/24/1 670/23/1 671/32/1 672/31/1
f 673/27/1 674/13/1 675/16/1 676/28/1
f 677/47/1 678/35/1 679/36/1 680/45/1
f 681/34/1 682/33/1 683/48/1 684/43/1
f 685/17/1 686/18/1 687/19/1 688/20/1
f 689/37/1 690/39/1 691/40/1 692/38/1
f 693/39/1 694/29/1 695/30/1 696/40/1
f 697/42/1 698/4/1 699/13/1 700/27/1
f 701/1/1 702/2/1 703/3/1 704/4/1
f 705/46/1 706/47/1 707/45/1 708/44/1
f 709/34/1 710/33/1 711/48/1 712/43/1
f 713/10/1 714/42/1 715/27/1 716/11/1
f 717/26/1 718/21/1 719/24/1 720/2/1
f 721/41/1 722/28/1 723/37/1 724/18/1
f 725/34/1 726/33/1 727/48/1 728/43/1
f 729/46/1 730/47/1 731/45/1 732/44/1
f 733/36/1 734/1/1 735/4/1 736/42/1
f 737/4/1 738/3/1 739/14/1 740/13/1
f 741/49/1 742/41/1 743/18/1 744/17/1
f 745/24/1 746/23/1 747/32/1 748/31/1
f 749/26/1 750/21/1 751/24/1 752/2/1
f 753/25/1 754/26/1 755/2/1 756/1/1
f 757/35/1 758/25/1 759/1/1 760/36/1
f 761/44/1 762/45/1 763/10/1 764/9/1
f 765/39/1 766/29/1 767/30/1 768/40/1
f 769/21/1 770/22/1 771/23/1 772/24/1
f 773/31/1 774/32/1 775/33/1 776/34/1
f 777/5/1 778/6/1 779/7/1 780/8/1
f 781/34/1 782/33/1 783/48/1 784/43/1
f 785/35/1 786/25/1 787/1/1 788/36/1
f 789/42/1 790/4/1 791/13/1 792/27/1
f 793/42/1 794/4/1 795/13/1 796/27/1
f 797/15/1 798/43/1 799/5/1 800/29/1
f 801/25/1 802/26/1 803/2/1 804/1/1
f 805/29/1 806/5/1 807/8/1 808/30/1
f 809/25/1 810/26/1 811/2/1 812/1/1
f 813/31/1 814/32/1 815/33/1 816/34/1
f 817/31/1 818/32/1 819/33/1 820/34/1
f 821/24/1 822/23/1 823/32/1 824/31/1
f 825/3/1 826/31/1 827/34/1 828/14/1
f 829/28/1 830/16/1 831/39/1 832/37/1
f 833/21/1 834/22/1 835/23/1 836/24/1
f 837/35/1 838/25/1 839/1/1 840/36/1
f 841/34/1 842/33/1 843/48/1 844/43/1
f 845/44/1 846/45/1 847/10/1 848/9/1
f 849/27/1 850/13/1 851/16/1 852/28/1
f 853/15/1 854/43/1 855/5/1 856/29/1
f 857/49/1 858/41/1 859/18/1 860/17/1
f 861/31/1 862/32/1 863/33/1 864/34/1
f 865/42/1 866/4/1 867/13/1 868/27/1
f 869/2/1 870/24/1 871/31/1 872/3/1
f 873/45/1 874/36/1 875/42/1 876/10/1
f 877/11/1 878/27/1 879/28/1 880/41/1
f 881/21/1 882/22/1 883/23/1 884/24/1
f 885/10/1 886/42/1 887/27/1 888/11/1
f 889/3/1 890/31/1 891/34/1 892/14/1
f 893/47/1 894/35/1 895/36/1 896/45/1
f 897/14/1 898/34/1 899/43/1 900/15/1
f 901/49/1 902/41/1 903/18/1 904/17/1
f 905/12/1 906/11/1 907/41/1 908/49/1
f 909/2/1 910/24/1 911/31/1 912/3/1
f 913/18/1 914/37/1 915/38/1 916/19/1
f 917/13/1 918/14/1 919/15/1 920/16/1
f 921/2/1 922/24/1 923/31/1 924/3/1
f 925/3/1 926/31/1 927/34/1 928/14/1
f 929/21/1 930/22/1 931/23/1 932/24/1
f 933/46/1 934/47/1 935/45/1 936/44/1
f 937/47/1 938/35/1 939/36/1 940/45/1
f 941/37/1 942/39/1 943/40/1 944/38/1
f 945/35/1 946/25/1 947/1/1 948/36/1
f 949/17/1 950/18/1 951/19/1 952/20/1
f 953/16/1 954/15/1 955/29/1 956/39/1
f 957/44/1 958/45/1 959/10/1 960/9/1
f 961/31/1 962/32/1 963/33/1 964/34/1
f 965/10/1 966/42/1 967/27/1 968/11/1
f 969/4/1 970/3/1 971/14/1 972/13/1
f 973/44/1 974/45/1 975/10/1 976/9/1
f 977/44/1 978/45/1 979/10/1 980/9/1
f 981/31/1 982/32/1 983/33/1 984/34/1
f 985/12/1 986/11/1 987/41/1 988/49/1
f 989/11/1 990/27/1 991/28/1 992/41/1
f 993/45/1 994/36/1 995/42/1 996/10/1
f 997/28/1 998/16/1 999/39/1 1000/37/1
f 1001/45/1 1002/36/1 1003/42/1 1004/10/1
f 1005/24/1 1006/23/1 1007/32/1 1008/31/1
f 1009/28/1 1010/16/1 1011/39/1 1012/37/1
f 1013/16/1 1014/15/1 1015/29/1 1016/39/1
f 1017/1/1 1018/2/1 1019/3/1 1020/4/1
f 1021/31/1 1022/32/1 1023/33/1 1024/34/1

