# Tiled2Unity generated file. Do not modify by hand.
# Wavefront file for 'TitleIntro_mesh_0064.obj'

# Vertices (Count = 320)
v -176 -16 0
v -192 -16 0
v -192 0 0
v -176 0 0
v -192 -16 0
v -208 -16 0
v -208 0 0
v -192 0 0
v -208 -16 0
v -224 -16 0
v -224 0 0
v -208 0 0
v -224 -16 0
v -240 -16 0
v -240 0 0
v -224 0 0
v -240 -16 0
v -256 -16 0
v -256 0 0
v -240 0 0
v -176 -32 0
v -192 -32 0
v -192 -16 0
v -176 -16 0
v -192 -32 0
v -208 -32 0
v -208 -16 0
v -192 -16 0
v -208 -32 0
v -224 -32 0
v -224 -16 0
v -208 -16 0
v -224 -32 0
v -240 -32 0
v -240 -16 0
v -224 -16 0
v -240 -32 0
v -256 -32 0
v -256 -16 0
v -240 -16 0
v -176 -48 0
v -192 -48 0
v -192 -32 0
v -176 -32 0
v -192 -48 0
v -208 -48 0
v -208 -32 0
v -192 -32 0
v -208 -48 0
v -224 -48 0
v -224 -32 0
v -208 -32 0
v -224 -48 0
v -240 -48 0
v -240 -32 0
v -224 -32 0
v -240 -48 0
v -256 -48 0
v -256 -32 0
v -240 -32 0
v -176 -64 0
v -192 -64 0
v -192 -48 0
v -176 -48 0
v -192 -64 0
v -208 -64 0
v -208 -48 0
v -192 -48 0
v -208 -64 0
v -224 -64 0
v -224 -48 0
v -208 -48 0
v -224 -64 0
v -240 -64 0
v -240 -48 0
v -224 -48 0
v -240 -64 0
v -256 -64 0
v -256 -48 0
v -240 -48 0
v -176 -80 0
v -192 -80 0
v -192 -64 0
v -176 -64 0
v -192 -80 0
v -208 -80 0
v -208 -64 0
v -192 -64 0
v -208 -80 0
v -224 -80 0
v -224 -64 0
v -208 -64 0
v -224 -80 0
v -240 -80 0
v -240 -64 0
v -224 -64 0
v -240 -80 0
v -256 -80 0
v -256 -64 0
v -240 -64 0
v -176 -96 0
v -192 -96 0
v -192 -80 0
v -176 -80 0
v -192 -96 0
v -208 -96 0
v -208 -80 0
v -192 -80 0
v -208 -96 0
v -224 -96 0
v -224 -80 0
v -208 -80 0
v -224 -96 0
v -240 -96 0
v -240 -80 0
v -224 -80 0
v -240 -96 0
v -256 -96 0
v -256 -80 0
v -240 -80 0
v -176 -112 0
v -192 -112 0
v -192 -96 0
v -176 -96 0
v -192 -112 0
v -208 -112 0
v -208 -96 0
v -192 -96 0
v -208 -112 0
v -224 -112 0
v -224 -96 0
v -208 -96 0
v -224 -112 0
v -240 -112 0
v -240 -96 0
v -224 -96 0
v -240 -112 0
v -256 -112 0
v -256 -96 0
v -240 -96 0
v -176 -128 0
v -192 -128 0
v -192 -112 0
v -176 -112 0
v -192 -128 0
v -208 -128 0
v -208 -112 0
v -192 -112 0
v -208 -128 0
v -224 -128 0
v -224 -112 0
v -208 -112 0
v -224 -128 0
v -240 -128 0
v -240 -112 0
v -224 -112 0
v -240 -128 0
v -256 -128 0
v -256 -112 0
v -240 -112 0
v -176 -144 0
v -192 -144 0
v -192 -128 0
v -176 -128 0
v -192 -144 0
v -208 -144 0
v -208 -128 0
v -192 -128 0
v -208 -144 0
v -224 -144 0
v -224 -128 0
v -208 -128 0
v -224 -144 0
v -240 -144 0
v -240 -128 0
v -224 -128 0
v -240 -144 0
v -256 -144 0
v -256 -128 0
v -240 -128 0
v -176 -160 0
v -192 -160 0
v -192 -144 0
v -176 -144 0
v -192 -160 0
v -208 -160 0
v -208 -144 0
v -192 -144 0
v -208 -160 0
v -224 -160 0
v -224 -144 0
v -208 -144 0
v -224 -160 0
v -240 -160 0
v -240 -144 0
v -224 -144 0
v -240 -160 0
v -256 -160 0
v -256 -144 0
v -240 -144 0
v -176 -176 0
v -192 -176 0
v -192 -160 0
v -176 -160 0
v -192 -176 0
v -208 -176 0
v -208 -160 0
v -192 -160 0
v -208 -176 0
v -224 -176 0
v -224 -160 0
v -208 -160 0
v -224 -176 0
v -240 -176 0
v -240 -160 0
v -224 -160 0
v -240 -176 0
v -256 -176 0
v -256 -160 0
v -240 -160 0
v -176 -192 0
v -192 -192 0
v -192 -176 0
v -176 -176 0
v -192 -192 0
v -208 -192 0
v -208 -176 0
v -192 -176 0
v -208 -192 0
v -224 -192 0
v -224 -176 0
v -208 -176 0
v -224 -192 0
v -240 -192 0
v -240 -176 0
v -224 -176 0
v -240 -192 0
v -256 -192 0
v -256 -176 0
v -240 -176 0
v -176 -208 0
v -192 -208 0
v -192 -192 0
v -176 -192 0
v -192 -208 0
v -208 -208 0
v -208 -192 0
v -192 -192 0
v -208 -208 0
v -224 -208 0
v -224 -192 0
v -208 -192 0
v -224 -208 0
v -240 -208 0
v -240 -192 0
v -224 -192 0
v -240 -208 0
v -256 -208 0
v -256 -192 0
v -240 -192 0
v -176 -224 0
v -192 -224 0
v -192 -208 0
v -176 -208 0
v -192 -224 0
v -208 -224 0
v -208 -208 0
v -192 -208 0
v -208 -224 0
v -224 -224 0
v -224 -208 0
v -208 -208 0
v -224 -224 0
v -240 -224 0
v -240 -208 0
v -224 -208 0
v -240 -224 0
v -256 -224 0
v -256 -208 0
v -240 -208 0
v -176 -240 0
v -192 -240 0
v -192 -224 0
v -176 -224 0
v -192 -240 0
v -208 -240 0
v -208 -224 0
v -192 -224 0
v -208 -240 0
v -224 -240 0
v -224 -224 0
v -208 -224 0
v -224 -240 0
v -240 -240 0
v -240 -224 0
v -224 -224 0
v -240 -240 0
v -256 -240 0
v -256 -224 0
v -240 -224 0
v -176 -256 0
v -192 -256 0
v -192 -240 0
v -176 -240 0
v -192 -256 0
v -208 -256 0
v -208 -240 0
v -192 -240 0
v -208 -256 0
v -224 -256 0
v -224 -240 0
v -208 -240 0
v -224 -256 0
v -240 -256 0
v -240 -240 0
v -224 -240 0
v -240 -256 0
v -256 -256 0
v -256 -240 0
v -240 -240 0

# Texture cooridinates (Count = 49)
vt 0.0078125 0.46875
vt 0.01171875 0.46875
vt 0.01171875 0.484375
vt 0.0078125 0.484375
vt 0.02734375 0.46875
vt 0.03125 0.46875
vt 0.03125 0.484375
vt 0.02734375 0.484375
vt 0.01171875 0.421875
vt 0.015625 0.421875
vt 0.015625 0.4375
vt 0.01171875 0.4375
vt 0.0234375 0.4375
vt 0.02734375 0.4375
vt 0.02734375 0.453125
vt 0.0234375 0.453125
vt 0.02734375 0.421875
vt 0.03125 0.421875
vt 0.03125 0.4375
vt 0.01171875 0.390625
vt 0.015625 0.390625
vt 0.015625 0.40625
vt 0.01171875 0.40625
vt 0.0078125 0.421875
vt 0.0078125 0.4375
vt 0.03125 0.453125
vt 0.01953125 0.4375
vt 0.01953125 0.453125
vt 0.01953125 0.46875
vt 0.0234375 0.46875
vt 0.0234375 0.484375
vt 0.01953125 0.484375
vt 0.0078125 0.453125
vt 0.01171875 0.453125
vt 0.015625 0.453125
vt 0.0234375 0.40625
vt 0.02734375 0.40625
vt 0.0234375 0.421875
vt 0.01953125 0.40625
vt 0.01953125 0.421875
vt 0.015625 0.46875
vt 0.015625 0.484375
vt 0.0234375 0.390625
vt 0.02734375 0.390625
vt 0.03125 0.40625
vt 0.01953125 0.390625
vt 0.0078125 0.390625
vt 0.0078125 0.40625
vt 0.03125 0.390625

# Normal
vn 0 0 -1

# Mesh description
g TitleIntro_mesh_0064

# Faces
f 1/1/1 2/2/1 3/3/1 4/4/1
f 5/5/1 6/6/1 7/7/1 8/8/1
f 9/9/1 10/10/1 11/11/1 12/12/1
f 13/13/1 14/14/1 15/15/1 16/16/1
f 17/17/1 18/18/1 19/19/1 20/14/1
f 21/20/1 22/21/1 23/22/1 24/23/1
f 25/24/1 26/9/1 27/12/1 28/25/1
f 29/15/1 30/26/1 31/6/1 32/5/1
f 33/9/1 34/10/1 35/11/1 36/12/1
f 37/27/1 38/13/1 39/16/1 40/28/1
f 41/29/1 42/30/1 43/31/1 44/32/1
f 45/33/1 46/34/1 47/2/1 48/1/1
f 49/11/1 50/27/1 51/28/1 52/35/1
f 53/36/1 54/37/1 55/17/1 56/38/1
f 57/11/1 58/27/1 59/28/1 60/35/1
f 61/16/1 62/15/1 63/5/1 64/30/1
f 65/39/1 66/36/1 67/38/1 68/40/1
f 69/41/1 70/29/1 71/32/1 72/42/1
f 73/24/1 74/9/1 75/12/1 76/25/1
f 77/36/1 78/37/1 79/17/1 80/38/1
f 81/22/1 82/39/1 83/40/1 84/10/1
f 85/41/1 86/29/1 87/32/1 88/42/1
f 89/34/1 90/35/1 91/41/1 92/2/1
f 93/39/1 94/36/1 95/38/1 96/40/1
f 97/43/1 98/44/1 99/37/1 100/36/1
f 101/23/1 102/22/1 103/10/1 104/9/1
f 105/35/1 106/28/1 107/29/1 108/41/1
f 109/25/1 110/12/1 111/34/1 112/33/1
f 113/16/1 114/15/1 115/5/1 116/30/1
f 117/13/1 118/14/1 119/15/1 120/16/1
f 121/20/1 122/21/1 123/22/1 124/23/1
f 125/20/1 126/21/1 127/22/1 128/23/1
f 129/13/1 130/14/1 131/15/1 132/16/1
f 133/11/1 134/27/1 135/28/1 136/35/1
f 137/11/1 138/27/1 139/28/1 140/35/1
f 141/14/1 142/19/1 143/26/1 144/15/1
f 145/30/1 146/5/1 147/8/1 148/31/1
f 149/20/1 150/21/1 151/22/1 152/23/1
f 153/40/1 154/38/1 155/13/1 156/27/1
f 157/16/1 158/15/1 159/5/1 160/30/1
f 161/1/1 162/2/1 163/3/1 164/4/1
f 165/29/1 166/30/1 167/31/1 168/32/1
f 169/37/1 170/45/1 171/18/1 172/17/1
f 173/2/1 174/41/1 175/42/1 176/3/1
f 177/27/1 178/13/1 179/16/1 180/28/1
f 181/37/1 182/45/1 183/18/1 184/17/1
f 185/41/1 186/29/1 187/32/1 188/42/1
f 189/36/1 190/37/1 191/17/1 192/38/1
f 193/22/1 194/39/1 195/40/1 196/10/1
f 197/12/1 198/11/1 199/35/1 200/34/1
f 201/13/1 202/14/1 203/15/1 204/16/1
f 205/15/1 206/26/1 207/6/1 208/5/1
f 209/21/1 210/46/1 211/39/1 212/22/1
f 213/47/1 214/20/1 215/23/1 216/48/1
f 217/37/1 218/45/1 219/18/1 220/17/1
f 221/41/1 222/29/1 223/32/1 224/42/1
f 225/2/1 226/41/1 227/42/1 228/3/1
f 229/24/1 230/9/1 231/12/1 232/25/1
f 233/27/1 234/13/1 235/16/1 236/28/1
f 237/14/1 238/19/1 239/26/1 240/15/1
f 241/11/1 242/27/1 243/28/1 244/35/1
f 245/33/1 246/34/1 247/2/1 248/1/1
f 249/9/1 250/10/1 251/11/1 252/12/1
f 253/30/1 254/5/1 255/8/1 256/31/1
f 257/39/1 258/36/1 259/38/1 260/40/1
f 261/29/1 262/30/1 263/31/1 264/32/1
f 265/46/1 266/43/1 267/36/1 268/39/1
f 269/27/1 270/13/1 271/16/1 272/28/1
f 273/44/1 274/49/1 275/45/1 276/37/1
f 277/23/1 278/22/1 279/10/1 280/9/1
f 281/33/1 282/34/1 283/2/1 284/1/1
f 285/23/1 286/22/1 287/10/1 288/9/1
f 289/27/1 290/13/1 291/16/1 292/28/1
f 293/27/1 294/13/1 295/16/1 296/28/1
f 297/33/1 298/34/1 299/2/1 300/1/1
f 301/34/1 302/35/1 303/41/1 304/2/1
f 305/5/1 306/6/1 307/7/1 308/8/1
f 309/21/1 310/46/1 311/39/1 312/22/1
f 313/46/1 314/43/1 315/36/1 316/39/1
f 317/35/1 318/28/1 319/29/1 320/41/1

