# Tiled2Unity generated file. Do not modify by hand.
# Wavefront file for 'TitleIntro_mesh_0040.obj'

# Vertices (Count = 1024)
v 0 -16 0
v -16 -16 0
v -16 0 0
v 0 0 0
v -16 -16 0
v -32 -16 0
v -32 0 0
v -16 0 0
v -32 -16 0
v -48 -16 0
v -48 0 0
v -32 0 0
v -48 -16 0
v -64 -16 0
v -64 0 0
v -48 0 0
v -64 -16 0
v -80 -16 0
v -80 0 0
v -64 0 0
v -80 -16 0
v -96 -16 0
v -96 0 0
v -80 0 0
v -96 -16 0
v -112 -16 0
v -112 0 0
v -96 0 0
v -112 -16 0
v -128 -16 0
v -128 0 0
v -112 0 0
v -128 -16 0
v -144 -16 0
v -144 0 0
v -128 0 0
v -144 -16 0
v -160 -16 0
v -160 0 0
v -144 0 0
v -160 -16 0
v -176 -16 0
v -176 0 0
v -160 0 0
v -176 -16 0
v -192 -16 0
v -192 0 0
v -176 0 0
v -192 -16 0
v -208 -16 0
v -208 0 0
v -192 0 0
v -208 -16 0
v -224 -16 0
v -224 0 0
v -208 0 0
v -224 -16 0
v -240 -16 0
v -240 0 0
v -224 0 0
v -240 -16 0
v -256 -16 0
v -256 0 0
v -240 0 0
v 0 -32 0
v -16 -32 0
v -16 -16 0
v 0 -16 0
v -16 -32 0
v -32 -32 0
v -32 -16 0
v -16 -16 0
v -32 -32 0
v -48 -32 0
v -48 -16 0
v -32 -16 0
v -48 -32 0
v -64 -32 0
v -64 -16 0
v -48 -16 0
v -64 -32 0
v -80 -32 0
v -80 -16 0
v -64 -16 0
v -80 -32 0
v -96 -32 0
v -96 -16 0
v -80 -16 0
v -96 -32 0
v -112 -32 0
v -112 -16 0
v -96 -16 0
v -112 -32 0
v -128 -32 0
v -128 -16 0
v -112 -16 0
v -128 -32 0
v -144 -32 0
v -144 -16 0
v -128 -16 0
v -144 -32 0
v -160 -32 0
v -160 -16 0
v -144 -16 0
v -160 -32 0
v -176 -32 0
v -176 -16 0
v -160 -16 0
v -176 -32 0
v -192 -32 0
v -192 -16 0
v -176 -16 0
v -192 -32 0
v -208 -32 0
v -208 -16 0
v -192 -16 0
v -208 -32 0
v -224 -32 0
v -224 -16 0
v -208 -16 0
v -224 -32 0
v -240 -32 0
v -240 -16 0
v -224 -16 0
v -240 -32 0
v -256 -32 0
v -256 -16 0
v -240 -16 0
v 0 -48 0
v -16 -48 0
v -16 -32 0
v 0 -32 0
v -16 -48 0
v -32 -48 0
v -32 -32 0
v -16 -32 0
v -32 -48 0
v -48 -48 0
v -48 -32 0
v -32 -32 0
v -48 -48 0
v -64 -48 0
v -64 -32 0
v -48 -32 0
v -64 -48 0
v -80 -48 0
v -80 -32 0
v -64 -32 0
v -80 -48 0
v -96 -48 0
v -96 -32 0
v -80 -32 0
v -96 -48 0
v -112 -48 0
v -112 -32 0
v -96 -32 0
v -112 -48 0
v -128 -48 0
v -128 -32 0
v -112 -32 0
v -128 -48 0
v -144 -48 0
v -144 -32 0
v -128 -32 0
v -144 -48 0
v -160 -48 0
v -160 -32 0
v -144 -32 0
v -160 -48 0
v -176 -48 0
v -176 -32 0
v -160 -32 0
v -176 -48 0
v -192 -48 0
v -192 -32 0
v -176 -32 0
v -192 -48 0
v -208 -48 0
v -208 -32 0
v -192 -32 0
v -208 -48 0
v -224 -48 0
v -224 -32 0
v -208 -32 0
v -224 -48 0
v -240 -48 0
v -240 -32 0
v -224 -32 0
v -240 -48 0
v -256 -48 0
v -256 -32 0
v -240 -32 0
v 0 -64 0
v -16 -64 0
v -16 -48 0
v 0 -48 0
v -16 -64 0
v -32 -64 0
v -32 -48 0
v -16 -48 0
v -32 -64 0
v -48 -64 0
v -48 -48 0
v -32 -48 0
v -48 -64 0
v -64 -64 0
v -64 -48 0
v -48 -48 0
v -64 -64 0
v -80 -64 0
v -80 -48 0
v -64 -48 0
v -80 -64 0
v -96 -64 0
v -96 -48 0
v -80 -48 0
v -96 -64 0
v -112 -64 0
v -112 -48 0
v -96 -48 0
v -112 -64 0
v -128 -64 0
v -128 -48 0
v -112 -48 0
v -128 -64 0
v -144 -64 0
v -144 -48 0
v -128 -48 0
v -144 -64 0
v -160 -64 0
v -160 -48 0
v -144 -48 0
v -160 -64 0
v -176 -64 0
v -176 -48 0
v -160 -48 0
v -176 -64 0
v -192 -64 0
v -192 -48 0
v -176 -48 0
v -192 -64 0
v -208 -64 0
v -208 -48 0
v -192 -48 0
v -208 -64 0
v -224 -64 0
v -224 -48 0
v -208 -48 0
v -224 -64 0
v -240 -64 0
v -240 -48 0
v -224 -48 0
v -240 -64 0
v -256 -64 0
v -256 -48 0
v -240 -48 0
v 0 -80 0
v -16 -80 0
v -16 -64 0
v 0 -64 0
v -16 -80 0
v -32 -80 0
v -32 -64 0
v -16 -64 0
v -32 -80 0
v -48 -80 0
v -48 -64 0
v -32 -64 0
v -48 -80 0
v -64 -80 0
v -64 -64 0
v -48 -64 0
v -64 -80 0
v -80 -80 0
v -80 -64 0
v -64 -64 0
v -80 -80 0
v -96 -80 0
v -96 -64 0
v -80 -64 0
v -96 -80 0
v -112 -80 0
v -112 -64 0
v -96 -64 0
v -112 -80 0
v -128 -80 0
v -128 -64 0
v -112 -64 0
v -128 -80 0
v -144 -80 0
v -144 -64 0
v -128 -64 0
v -144 -80 0
v -160 -80 0
v -160 -64 0
v -144 -64 0
v -160 -80 0
v -176 -80 0
v -176 -64 0
v -160 -64 0
v -176 -80 0
v -192 -80 0
v -192 -64 0
v -176 -64 0
v -192 -80 0
v -208 -80 0
v -208 -64 0
v -192 -64 0
v -208 -80 0
v -224 -80 0
v -224 -64 0
v -208 -64 0
v -224 -80 0
v -240 -80 0
v -240 -64 0
v -224 -64 0
v -240 -80 0
v -256 -80 0
v -256 -64 0
v -240 -64 0
v 0 -96 0
v -16 -96 0
v -16 -80 0
v 0 -80 0
v -16 -96 0
v -32 -96 0
v -32 -80 0
v -16 -80 0
v -32 -96 0
v -48 -96 0
v -48 -80 0
v -32 -80 0
v -48 -96 0
v -64 -96 0
v -64 -80 0
v -48 -80 0
v -64 -96 0
v -80 -96 0
v -80 -80 0
v -64 -80 0
v -80 -96 0
v -96 -96 0
v -96 -80 0
v -80 -80 0
v -96 -96 0
v -112 -96 0
v -112 -80 0
v -96 -80 0
v -112 -96 0
v -128 -96 0
v -128 -80 0
v -112 -80 0
v -128 -96 0
v -144 -96 0
v -144 -80 0
v -128 -80 0
v -144 -96 0
v -160 -96 0
v -160 -80 0
v -144 -80 0
v -160 -96 0
v -176 -96 0
v -176 -80 0
v -160 -80 0
v -176 -96 0
v -192 -96 0
v -192 -80 0
v -176 -80 0
v -192 -96 0
v -208 -96 0
v -208 -80 0
v -192 -80 0
v -208 -96 0
v -224 -96 0
v -224 -80 0
v -208 -80 0
v -224 -96 0
v -240 -96 0
v -240 -80 0
v -224 -80 0
v -240 -96 0
v -256 -96 0
v -256 -80 0
v -240 -80 0
v 0 -112 0
v -16 -112 0
v -16 -96 0
v 0 -96 0
v -16 -112 0
v -32 -112 0
v -32 -96 0
v -16 -96 0
v -32 -112 0
v -48 -112 0
v -48 -96 0
v -32 -96 0
v -48 -112 0
v -64 -112 0
v -64 -96 0
v -48 -96 0
v -64 -112 0
v -80 -112 0
v -80 -96 0
v -64 -96 0
v -80 -112 0
v -96 -112 0
v -96 -96 0
v -80 -96 0
v -96 -112 0
v -112 -112 0
v -112 -96 0
v -96 -96 0
v -112 -112 0
v -128 -112 0
v -128 -96 0
v -112 -96 0
v -128 -112 0
v -144 -112 0
v -144 -96 0
v -128 -96 0
v -144 -112 0
v -160 -112 0
v -160 -96 0
v -144 -96 0
v -160 -112 0
v -176 -112 0
v -176 -96 0
v -160 -96 0
v -176 -112 0
v -192 -112 0
v -192 -96 0
v -176 -96 0
v -192 -112 0
v -208 -112 0
v -208 -96 0
v -192 -96 0
v -208 -112 0
v -224 -112 0
v -224 -96 0
v -208 -96 0
v -224 -112 0
v -240 -112 0
v -240 -96 0
v -224 -96 0
v -240 -112 0
v -256 -112 0
v -256 -96 0
v -240 -96 0
v 0 -128 0
v -16 -128 0
v -16 -112 0
v 0 -112 0
v -16 -128 0
v -32 -128 0
v -32 -112 0
v -16 -112 0
v -32 -128 0
v -48 -128 0
v -48 -112 0
v -32 -112 0
v -48 -128 0
v -64 -128 0
v -64 -112 0
v -48 -112 0
v -64 -128 0
v -80 -128 0
v -80 -112 0
v -64 -112 0
v -80 -128 0
v -96 -128 0
v -96 -112 0
v -80 -112 0
v -96 -128 0
v -112 -128 0
v -112 -112 0
v -96 -112 0
v -112 -128 0
v -128 -128 0
v -128 -112 0
v -112 -112 0
v -128 -128 0
v -144 -128 0
v -144 -112 0
v -128 -112 0
v -144 -128 0
v -160 -128 0
v -160 -112 0
v -144 -112 0
v -160 -128 0
v -176 -128 0
v -176 -112 0
v -160 -112 0
v -176 -128 0
v -192 -128 0
v -192 -112 0
v -176 -112 0
v -192 -128 0
v -208 -128 0
v -208 -112 0
v -192 -112 0
v -208 -128 0
v -224 -128 0
v -224 -112 0
v -208 -112 0
v -224 -128 0
v -240 -128 0
v -240 -112 0
v -224 -112 0
v -240 -128 0
v -256 -128 0
v -256 -112 0
v -240 -112 0
v 0 -144 0
v -16 -144 0
v -16 -128 0
v 0 -128 0
v -16 -144 0
v -32 -144 0
v -32 -128 0
v -16 -128 0
v -32 -144 0
v -48 -144 0
v -48 -128 0
v -32 -128 0
v -48 -144 0
v -64 -144 0
v -64 -128 0
v -48 -128 0
v -64 -144 0
v -80 -144 0
v -80 -128 0
v -64 -128 0
v -80 -144 0
v -96 -144 0
v -96 -128 0
v -80 -128 0
v -96 -144 0
v -112 -144 0
v -112 -128 0
v -96 -128 0
v -112 -144 0
v -128 -144 0
v -128 -128 0
v -112 -128 0
v -128 -144 0
v -144 -144 0
v -144 -128 0
v -128 -128 0
v -144 -144 0
v -160 -144 0
v -160 -128 0
v -144 -128 0
v -160 -144 0
v -176 -144 0
v -176 -128 0
v -160 -128 0
v -176 -144 0
v -192 -144 0
v -192 -128 0
v -176 -128 0
v -192 -144 0
v -208 -144 0
v -208 -128 0
v -192 -128 0
v -208 -144 0
v -224 -144 0
v -224 -128 0
v -208 -128 0
v -224 -144 0
v -240 -144 0
v -240 -128 0
v -224 -128 0
v -240 -144 0
v -256 -144 0
v -256 -128 0
v -240 -128 0
v 0 -160 0
v -16 -160 0
v -16 -144 0
v 0 -144 0
v -16 -160 0
v -32 -160 0
v -32 -144 0
v -16 -144 0
v -32 -160 0
v -48 -160 0
v -48 -144 0
v -32 -144 0
v -48 -160 0
v -64 -160 0
v -64 -144 0
v -48 -144 0
v -64 -160 0
v -80 -160 0
v -80 -144 0
v -64 -144 0
v -80 -160 0
v -96 -160 0
v -96 -144 0
v -80 -144 0
v -96 -160 0
v -112 -160 0
v -112 -144 0
v -96 -144 0
v -112 -160 0
v -128 -160 0
v -128 -144 0
v -112 -144 0
v -128 -160 0
v -144 -160 0
v -144 -144 0
v -128 -144 0
v -144 -160 0
v -160 -160 0
v -160 -144 0
v -144 -144 0
v -160 -160 0
v -176 -160 0
v -176 -144 0
v -160 -144 0
v -176 -160 0
v -192 -160 0
v -192 -144 0
v -176 -144 0
v -192 -160 0
v -208 -160 0
v -208 -144 0
v -192 -144 0
v -208 -160 0
v -224 -160 0
v -224 -144 0
v -208 -144 0
v -224 -160 0
v -240 -160 0
v -240 -144 0
v -224 -144 0
v -240 -160 0
v -256 -160 0
v -256 -144 0
v -240 -144 0
v 0 -176 0
v -16 -176 0
v -16 -160 0
v 0 -160 0
v -16 -176 0
v -32 -176 0
v -32 -160 0
v -16 -160 0
v -32 -176 0
v -48 -176 0
v -48 -160 0
v -32 -160 0
v -48 -176 0
v -64 -176 0
v -64 -160 0
v -48 -160 0
v -64 -176 0
v -80 -176 0
v -80 -160 0
v -64 -160 0
v -80 -176 0
v -96 -176 0
v -96 -160 0
v -80 -160 0
v -96 -176 0
v -112 -176 0
v -112 -160 0
v -96 -160 0
v -112 -176 0
v -128 -176 0
v -128 -160 0
v -112 -160 0
v -128 -176 0
v -144 -176 0
v -144 -160 0
v -128 -160 0
v -144 -176 0
v -160 -176 0
v -160 -160 0
v -144 -160 0
v -160 -176 0
v -176 -176 0
v -176 -160 0
v -160 -160 0
v -176 -176 0
v -192 -176 0
v -192 -160 0
v -176 -160 0
v -192 -176 0
v -208 -176 0
v -208 -160 0
v -192 -160 0
v -208 -176 0
v -224 -176 0
v -224 -160 0
v -208 -160 0
v -224 -176 0
v -240 -176 0
v -240 -160 0
v -224 -160 0
v -240 -176 0
v -256 -176 0
v -256 -160 0
v -240 -160 0
v 0 -192 0
v -16 -192 0
v -16 -176 0
v 0 -176 0
v -16 -192 0
v -32 -192 0
v -32 -176 0
v -16 -176 0
v -32 -192 0
v -48 -192 0
v -48 -176 0
v -32 -176 0
v -48 -192 0
v -64 -192 0
v -64 -176 0
v -48 -176 0
v -64 -192 0
v -80 -192 0
v -80 -176 0
v -64 -176 0
v -80 -192 0
v -96 -192 0
v -96 -176 0
v -80 -176 0
v -96 -192 0
v -112 -192 0
v -112 -176 0
v -96 -176 0
v -112 -192 0
v -128 -192 0
v -128 -176 0
v -112 -176 0
v -128 -192 0
v -144 -192 0
v -144 -176 0
v -128 -176 0
v -144 -192 0
v -160 -192 0
v -160 -176 0
v -144 -176 0
v -160 -192 0
v -176 -192 0
v -176 -176 0
v -160 -176 0
v -176 -192 0
v -192 -192 0
v -192 -176 0
v -176 -176 0
v -192 -192 0
v -208 -192 0
v -208 -176 0
v -192 -176 0
v -208 -192 0
v -224 -192 0
v -224 -176 0
v -208 -176 0
v -224 -192 0
v -240 -192 0
v -240 -176 0
v -224 -176 0
v -240 -192 0
v -256 -192 0
v -256 -176 0
v -240 -176 0
v 0 -208 0
v -16 -208 0
v -16 -192 0
v 0 -192 0
v -16 -208 0
v -32 -208 0
v -32 -192 0
v -16 -192 0
v -32 -208 0
v -48 -208 0
v -48 -192 0
v -32 -192 0
v -48 -208 0
v -64 -208 0
v -64 -192 0
v -48 -192 0
v -64 -208 0
v -80 -208 0
v -80 -192 0
v -64 -192 0
v -80 -208 0
v -96 -208 0
v -96 -192 0
v -80 -192 0
v -96 -208 0
v -112 -208 0
v -112 -192 0
v -96 -192 0
v -112 -208 0
v -128 -208 0
v -128 -192 0
v -112 -192 0
v -128 -208 0
v -144 -208 0
v -144 -192 0
v -128 -192 0
v -144 -208 0
v -160 -208 0
v -160 -192 0
v -144 -192 0
v -160 -208 0
v -176 -208 0
v -176 -192 0
v -160 -192 0
v -176 -208 0
v -192 -208 0
v -192 -192 0
v -176 -192 0
v -192 -208 0
v -208 -208 0
v -208 -192 0
v -192 -192 0
v -208 -208 0
v -224 -208 0
v -224 -192 0
v -208 -192 0
v -224 -208 0
v -240 -208 0
v -240 -192 0
v -224 -192 0
v -240 -208 0
v -256 -208 0
v -256 -192 0
v -240 -192 0
v 0 -224 0
v -16 -224 0
v -16 -208 0
v 0 -208 0
v -16 -224 0
v -32 -224 0
v -32 -208 0
v -16 -208 0
v -32 -224 0
v -48 -224 0
v -48 -208 0
v -32 -208 0
v -48 -224 0
v -64 -224 0
v -64 -208 0
v -48 -208 0
v -64 -224 0
v -80 -224 0
v -80 -208 0
v -64 -208 0
v -80 -224 0
v -96 -224 0
v -96 -208 0
v -80 -208 0
v -96 -224 0
v -112 -224 0
v -112 -208 0
v -96 -208 0
v -112 -224 0
v -128 -224 0
v -128 -208 0
v -112 -208 0
v -128 -224 0
v -144 -224 0
v -144 -208 0
v -128 -208 0
v -144 -224 0
v -160 -224 0
v -160 -208 0
v -144 -208 0
v -160 -224 0
v -176 -224 0
v -176 -208 0
v -160 -208 0
v -176 -224 0
v -192 -224 0
v -192 -208 0
v -176 -208 0
v -192 -224 0
v -208 -224 0
v -208 -208 0
v -192 -208 0
v -208 -224 0
v -224 -224 0
v -224 -208 0
v -208 -208 0
v -224 -224 0
v -240 -224 0
v -240 -208 0
v -224 -208 0
v -240 -224 0
v -256 -224 0
v -256 -208 0
v -240 -208 0
v 0 -240 0
v -16 -240 0
v -16 -224 0
v 0 -224 0
v -16 -240 0
v -32 -240 0
v -32 -224 0
v -16 -224 0
v -32 -240 0
v -48 -240 0
v -48 -224 0
v -32 -224 0
v -48 -240 0
v -64 -240 0
v -64 -224 0
v -48 -224 0
v -64 -240 0
v -80 -240 0
v -80 -224 0
v -64 -224 0
v -80 -240 0
v -96 -240 0
v -96 -224 0
v -80 -224 0
v -96 -240 0
v -112 -240 0
v -112 -224 0
v -96 -224 0
v -112 -240 0
v -128 -240 0
v -128 -224 0
v -112 -224 0
v -128 -240 0
v -144 -240 0
v -144 -224 0
v -128 -224 0
v -144 -240 0
v -160 -240 0
v -160 -224 0
v -144 -224 0
v -160 -240 0
v -176 -240 0
v -176 -224 0
v -160 -224 0
v -176 -240 0
v -192 -240 0
v -192 -224 0
v -176 -224 0
v -192 -240 0
v -208 -240 0
v -208 -224 0
v -192 -224 0
v -208 -240 0
v -224 -240 0
v -224 -224 0
v -208 -224 0
v -224 -240 0
v -240 -240 0
v -240 -224 0
v -224 -224 0
v -240 -240 0
v -256 -240 0
v -256 -224 0
v -240 -224 0
v 0 -256 0
v -16 -256 0
v -16 -240 0
v 0 -240 0
v -16 -256 0
v -32 -256 0
v -32 -240 0
v -16 -240 0
v -32 -256 0
v -48 -256 0
v -48 -240 0
v -32 -240 0
v -48 -256 0
v -64 -256 0
v -64 -240 0
v -48 -240 0
v -64 -256 0
v -80 -256 0
v -80 -240 0
v -64 -240 0
v -80 -256 0
v -96 -256 0
v -96 -240 0
v -80 -240 0
v -96 -256 0
v -112 -256 0
v -112 -240 0
v -96 -240 0
v -112 -256 0
v -128 -256 0
v -128 -240 0
v -112 -240 0
v -128 -256 0
v -144 -256 0
v -144 -240 0
v -128 -240 0
v -144 -256 0
v -160 -256 0
v -160 -240 0
v -144 -240 0
v -160 -256 0
v -176 -256 0
v -176 -240 0
v -160 -240 0
v -176 -256 0
v -192 -256 0
v -192 -240 0
v -176 -240 0
v -192 -256 0
v -208 -256 0
v -208 -240 0
v -192 -240 0
v -208 -256 0
v -224 -256 0
v -224 -240 0
v -208 -240 0
v -224 -256 0
v -240 -256 0
v -240 -240 0
v -224 -240 0
v -240 -256 0
v -256 -256 0
v -256 -240 0
v -240 -240 0

# Texture cooridinates (Count = 49)
vt 0.015625 0.4375
vt 0.01953125 0.4375
vt 0.01953125 0.453125
vt 0.015625 0.453125
vt 0.0078125 0.390625
vt 0.01171875 0.390625
vt 0.01171875 0.40625
vt 0.0078125 0.40625
vt 0.02734375 0.40625
vt 0.03125 0.40625
vt 0.03125 0.421875
vt 0.02734375 0.421875
vt 0.0234375 0.453125
vt 0.02734375 0.453125
vt 0.02734375 0.46875
vt 0.0234375 0.46875
vt 0.02734375 0.390625
vt 0.03125 0.390625
vt 0.01953125 0.421875
vt 0.0234375 0.421875
vt 0.0234375 0.4375
vt 0.02734375 0.4375
vt 0.0078125 0.421875
vt 0.01171875 0.421875
vt 0.01171875 0.4375
vt 0.0078125 0.4375
vt 0.01171875 0.453125
vt 0.015625 0.390625
vt 0.01953125 0.390625
vt 0.01953125 0.40625
vt 0.015625 0.40625
vt 0.0234375 0.40625
vt 0.015625 0.421875
vt 0.0078125 0.453125
vt 0.0234375 0.390625
vt 0.03125 0.46875
vt 0.03125 0.484375
vt 0.02734375 0.484375
vt 0.03125 0.4375
vt 0.03125 0.453125
vt 0.01171875 0.46875
vt 0.015625 0.46875
vt 0.015625 0.484375
vt 0.01171875 0.484375
vt 0.01953125 0.46875
vt 0.0234375 0.484375
vt 0.01953125 0.484375
vt 0.0078125 0.46875
vt 0.0078125 0.484375

# Normal
vn 0 0 -1

# Mesh description
g TitleIntro_mesh_0040

# Faces
f 1/1/1 2/2/1 3/3/1 4/4/1
f 5/5/1 6/6/1 7/7/1 8/8/1
f 9/9/1 10/10/1 11/11/1 12/12/1
f 13/13/1 14/14/1 15/15/1 16/16/1
f 17/17/1 18/18/1 19/10/1 20/9/1
f 21/19/1 22/20/1 23/21/1 24/2/1
f 25/21/1 26/22/1 27/14/1 28/13/1
f 29/23/1 30/24/1 31/25/1 32/26/1
f 33/25/1 34/1/1 35/4/1 36/27/1
f 37/28/1 38/29/1 39/30/1 40/31/1
f 41/30/1 42/32/1 43/20/1 44/19/1
f 45/31/1 46/30/1 47/19/1 48/33/1
f 49/13/1 50/14/1 51/15/1 52/16/1
f 53/2/1 54/21/1 55/13/1 56/3/1
f 57/26/1 58/25/1 59/27/1 60/34/1
f 61/13/1 62/14/1 63/15/1 64/16/1
f 65/29/1 66/35/1 67/32/1 68/30/1
f 69/5/1 70/6/1 71/7/1 72/8/1
f 73/15/1 74/36/1 75/37/1 76/38/1
f 77/22/1 78/39/1 79/40/1 80/14/1
f 81/17/1 82/18/1 83/10/1 84/9/1
f 85/41/1 86/42/1 87/43/1 88/44/1
f 89/8/1 90/7/1 91/24/1 92/23/1
f 93/24/1 94/33/1 95/1/1 96/25/1
f 97/7/1 98/31/1 99/33/1 100/24/1
f 101/22/1 102/39/1 103/40/1 104/14/1
f 105/45/1 106/16/1 107/46/1 108/47/1
f 109/5/1 110/6/1 111/7/1 112/8/1
f 113/17/1 114/18/1 115/10/1 116/9/1
f 117/48/1 118/41/1 119/44/1 120/49/1
f 121/42/1 122/45/1 123/47/1 124/43/1
f 125/48/1 126/41/1 127/44/1 128/49/1
f 129/16/1 130/15/1 131/38/1 132/46/1
f 133/29/1 134/35/1 135/32/1 136/30/1
f 137/8/1 138/7/1 139/24/1 140/23/1
f 141/2/1 142/21/1 143/13/1 144/3/1
f 145/23/1 146/24/1 147/25/1 148/26/1
f 149/31/1 150/30/1 151/19/1 152/33/1
f 153/9/1 154/10/1 155/11/1 156/12/1
f 157/1/1 158/2/1 159/3/1 160/4/1
f 161/15/1 162/36/1 163/37/1 164/38/1
f 165/6/1 166/28/1 167/31/1 168/7/1
f 169/35/1 170/17/1 171/9/1 172/32/1
f 173/17/1 174/18/1 175/10/1 176/9/1
f 177/15/1 178/36/1 179/37/1 180/38/1
f 181/3/1 182/13/1 183/16/1 184/45/1
f 185/8/1 186/7/1 187/24/1 188/23/1
f 189/4/1 190/3/1 191/45/1 192/42/1
f 193/8/1 194/7/1 195/24/1 196/23/1
f 197/22/1 198/39/1 199/40/1 200/14/1
f 201/41/1 202/42/1 203/43/1 204/44/1
f 205/14/1 206/40/1 207/36/1 208/15/1
f 209/26/1 210/25/1 211/27/1 212/34/1
f 213/2/1 214/21/1 215/13/1 216/3/1
f 217/45/1 218/16/1 219/46/1 220/47/1
f 221/3/1 222/13/1 223/16/1 224/45/1
f 225/25/1 226/1/1 227/4/1 228/27/1
f 229/9/1 230/10/1 231/11/1 232/12/1
f 233/48/1 234/41/1 235/44/1 236/49/1
f 237/30/1 238/32/1 239/20/1 240/19/1
f 241/12/1 242/11/1 243/39/1 244/22/1
f 245/12/1 246/11/1 247/39/1 248/22/1
f 249/45/1 250/16/1 251/46/1 252/47/1
f 253/15/1 254/36/1 255/37/1 256/38/1
f 257/19/1 258/20/1 259/21/1 260/2/1
f 261/21/1 262/22/1 263/14/1 264/13/1
f 265/26/1 266/25/1 267/27/1 268/34/1
f 269/3/1 270/13/1 271/16/1 272/45/1
f 273/13/1 274/14/1 275/15/1 276/16/1
f 277/22/1 278/39/1 279/40/1 280/14/1
f 281/25/1 282/1/1 283/4/1 284/27/1
f 285/24/1 286/33/1 287/1/1 288/25/1
f 289/34/1 290/27/1 291/41/1 292/48/1
f 293/42/1 294/45/1 295/47/1 296/43/1
f 297/24/1 298/33/1 299/1/1 300/25/1
f 301/13/1 302/14/1 303/15/1 304/16/1
f 305/17/1 306/18/1 307/10/1 308/9/1
f 309/29/1 310/35/1 311/32/1 312/30/1
f 313/31/1 314/30/1 315/19/1 316/33/1
f 317/8/1 318/7/1 319/24/1 320/23/1
f 321/22/1 322/39/1 323/40/1 324/14/1
f 325/27/1 326/4/1 327/42/1 328/41/1
f 329/15/1 330/36/1 331/37/1 332/38/1
f 333/17/1 334/18/1 335/10/1 336/9/1
f 337/15/1 338/36/1 339/37/1 340/38/1
f 341/16/1 342/15/1 343/38/1 344/46/1
f 345/13/1 346/14/1 347/15/1 348/16/1
f 349/1/1 350/2/1 351/3/1 352/4/1
f 353/48/1 354/41/1 355/44/1 356/49/1
f 357/24/1 358/33/1 359/1/1 360/25/1
f 361/14/1 362/40/1 363/36/1 364/15/1
f 365/32/1 366/9/1 367/12/1 368/20/1
f 369/14/1 370/40/1 371/36/1 372/15/1
f 373/17/1 374/18/1 375/10/1 376/9/1
f 377/2/1 378/21/1 379/13/1 380/3/1
f 381/41/1 382/42/1 383/43/1 384/44/1
f 385/26/1 386/25/1 387/27/1 388/34/1
f 389/3/1 390/13/1 391/16/1 392/45/1
f 393/12/1 394/11/1 395/39/1 396/22/1
f 397/9/1 398/10/1 399/11/1 400/12/1
f 401/31/1 402/30/1 403/19/1 404/33/1
f 405/16/1 406/15/1 407/38/1 408/46/1
f 409/6/1 410/28/1 411/31/1 412/7/1
f 413/24/1 414/33/1 415/1/1 416/25/1
f 417/20/1 418/12/1 419/22/1 420/21/1
f 421/8/1 422/7/1 423/24/1 424/23/1
f 425/25/1 426/1/1 427/4/1 428/27/1
f 429/16/1 430/15/1 431/38/1 432/46/1
f 433/42/1 434/45/1 435/47/1 436/43/1
f 437/28/1 438/29/1 439/30/1 440/31/1
f 441/14/1 442/40/1 443/36/1 444/15/1
f 445/2/1 446/21/1 447/13/1 448/3/1
f 449/34/1 450/27/1 451/41/1 452/48/1
f 453/48/1 454/41/1 455/44/1 456/49/1
f 457/23/1 458/24/1 459/25/1 460/26/1
f 461/17/1 462/18/1 463/10/1 464/9/1
f 465/35/1 466/17/1 467/9/1 468/32/1
f 469/14/1 470/40/1 471/36/1 472/15/1
f 473/29/1 474/35/1 475/32/1 476/30/1
f 477/4/1 478/3/1 479/45/1 480/42/1
f 481/33/1 482/19/1 483/2/1 484/1/1
f 485/35/1 486/17/1 487/9/1 488/32/1
f 489/8/1 490/7/1 491/24/1 492/23/1
f 493/9/1 494/10/1 495/11/1 496/12/1
f 497/16/1 498/15/1 499/38/1 500/46/1
f 501/32/1 502/9/1 503/12/1 504/20/1
f 505/1/1 506/2/1 507/3/1 508/4/1
f 509/29/1 510/35/1 511/32/1 512/30/1
f 513/9/1 514/10/1 515/11/1 516/12/1
f 517/34/1 518/27/1 519/41/1 520/48/1
f 521/16/1 522/15/1 523/38/1 524/46/1
f 525/25/1 526/1/1 527/4/1 528/27/1
f 529/41/1 530/42/1 531/43/1 532/44/1
f 533/4/1 534/3/1 535/45/1 536/42/1
f 537/42/1 538/45/1 539/47/1 540/43/1
f 541/7/1 542/31/1 543/33/1 544/24/1
f 545/22/1 546/39/1 547/40/1 548/14/1
f 549/42/1 550/45/1 551/47/1 552/43/1
f 553/1/1 554/2/1 555/3/1 556/4/1
f 557/16/1 558/15/1 559/38/1 560/46/1
f 561/25/1 562/1/1 563/4/1 564/27/1
f 565/23/1 566/24/1 567/25/1 568/26/1
f 569/27/1 570/4/1 571/42/1 572/41/1
f 573/12/1 574/11/1 575/39/1 576/22/1
f 577/4/1 578/3/1 579/45/1 580/42/1
f 581/32/1 582/9/1 583/12/1 584/20/1
f 585/29/1 586/35/1 587/32/1 588/30/1
f 589/2/1 590/21/1 591/13/1 592/3/1
f 593/31/1 594/30/1 595/19/1 596/33/1
f 597/30/1 598/32/1 599/20/1 600/19/1
f 601/16/1 602/15/1 603/38/1 604/46/1
f 605/21/1 606/22/1 607/14/1 608/13/1
f 609/26/1 610/25/1 611/27/1 612/34/1
f 613/16/1 614/15/1 615/38/1 616/46/1
f 617/19/1 618/20/1 619/21/1 620/2/1
f 621/24/1 622/33/1 623/1/1 624/25/1
f 625/42/1 626/45/1 627/47/1 628/43/1
f 629/5/1 630/6/1 631/7/1 632/8/1
f 633/42/1 634/45/1 635/47/1 636/43/1
f 637/9/1 638/10/1 639/11/1 640/12/1
f 641/28/1 642/29/1 643/30/1 644/31/1
f 645/5/1 646/6/1 647/7/1 648/8/1
f 649/15/1 650/36/1 651/37/1 652/38/1
f 653/29/1 654/35/1 655/32/1 656/30/1
f 657/3/1 658/13/1 659/16/1 660/45/1
f 661/4/1 662/3/1 663/45/1 664/42/1
f 665/2/1 666/21/1 667/13/1 668/3/1
f 669/48/1 670/41/1 671/44/1 672/49/1
f 673/3/1 674/13/1 675/16/1 676/45/1
f 677/31/1 678/30/1 679/19/1 680/33/1
f 681/25/1 682/1/1 683/4/1 684/27/1
f 685/3/1 686/13/1 687/16/1 688/45/1
f 689/22/1 690/39/1 691/40/1 692/14/1
f 693/35/1 694/17/1 695/9/1 696/32/1
f 697/42/1 698/45/1 699/47/1 700/43/1
f 701/31/1 702/30/1 703/19/1 704/33/1
f 705/4/1 706/3/1 707/45/1 708/42/1
f 709/19/1 710/20/1 711/21/1 712/2/1
f 713/5/1 714/6/1 715/7/1 716/8/1
f 717/28/1 718/29/1 719/30/1 720/31/1
f 721/26/1 722/25/1 723/27/1 724/34/1
f 725/6/1 726/28/1 727/31/1 728/7/1
f 729/35/1 730/17/1 731/9/1 732/32/1
f 733/14/1 734/40/1 735/36/1 736/15/1
f 737/20/1 738/12/1 739/22/1 740/21/1
f 741/33/1 742/19/1 743/2/1 744/1/1
f 745/6/1 746/28/1 747/31/1 748/7/1
f 749/14/1 750/40/1 751/36/1 752/15/1
f 753/31/1 754/30/1 755/19/1 756/33/1
f 757/45/1 758/16/1 759/46/1 760/47/1
f 761/14/1 762/40/1 763/36/1 764/15/1
f 765/21/1 766/22/1 767/14/1 768/13/1
f 769/27/1 770/4/1 771/42/1 772/41/1
f 773/2/1 774/21/1 775/13/1 776/3/1
f 777/27/1 778/4/1 779/42/1 780/41/1
f 781/30/1 782/32/1 783/20/1 784/19/1
f 785/45/1 786/16/1 787/46/1 788/47/1
f 789/26/1 790/25/1 791/27/1 792/34/1
f 793/22/1 794/39/1 795/40/1 796/14/1
f 797/17/1 798/18/1 799/10/1 800/9/1
f 801/32/1 802/9/1 803/12/1 804/20/1
f 805/15/1 806/36/1 807/37/1 808/38/1
f 809/27/1 810/4/1 811/42/1 812/41/1
f 813/23/1 814/24/1 815/25/1 816/26/1
f 817/45/1 818/16/1 819/46/1 820/47/1
f 821/14/1 822/40/1 823/36/1 824/15/1
f 825/5/1 826/6/1 827/7/1 828/8/1
f 829/28/1 830/29/1 831/30/1 832/31/1
f 833/2/1 834/21/1 835/13/1 836/3/1
f 837/48/1 838/41/1 839/44/1 840/49/1
f 841/4/1 842/3/1 843/45/1 844/42/1
f 845/32/1 846/9/1 847/12/1 848/20/1
f 849/25/1 850/1/1 851/4/1 852/27/1
f 853/31/1 854/30/1 855/19/1 856/33/1
f 857/21/1 858/22/1 859/14/1 860/13/1
f 861/31/1 862/30/1 863/19/1 864/33/1
f 865/33/1 866/19/1 867/2/1 868/1/1
f 869/27/1 870/4/1 871/42/1 872/41/1
f 873/14/1 874/40/1 875/36/1 876/15/1
f 877/33/1 878/19/1 879/2/1 880/1/1
f 881/1/1 882/2/1 883/3/1 884/4/1
f 885/4/1 886/3/1 887/45/1 888/42/1
f 889/8/1 890/7/1 891/24/1 892/23/1
f 893/4/1 894/3/1 895/45/1 896/42/1
f 897/4/1 898/3/1 899/45/1 900/42/1
f 901/35/1 902/17/1 903/9/1 904/32/1
f 905/19/1 906/20/1 907/21/1 908/2/1
f 909/8/1 910/7/1 911/24/1 912/23/1
f 913/5/1 914/6/1 915/7/1 916/8/1
f 917/32/1 918/9/1 919/12/1 920/20/1
f 921/35/1 922/17/1 923/9/1 924/32/1
f 925/8/1 926/7/1 927/24/1 928/23/1
f 929/26/1 930/25/1 931/27/1 932/34/1
f 933/45/1 934/16/1 935/46/1 936/47/1
f 937/19/1 938/20/1 939/21/1 940/2/1
f 941/20/1 942/12/1 943/22/1 944/21/1
f 945/19/1 946/20/1 947/21/1 948/2/1
f 949/42/1 950/45/1 951/47/1 952/43/1
f 953/48/1 954/41/1 955/44/1 956/49/1
f 957/21/1 958/22/1 959/14/1 960/13/1
f 961/3/1 962/13/1 963/16/1 964/45/1
f 965/2/1 966/21/1 967/13/1 968/3/1
f 969/41/1 970/42/1 971/43/1 972/44/1
f 973/25/1 974/1/1 975/4/1 976/27/1
f 977/29/1 978/35/1 979/32/1 980/30/1
f 981/33/1 982/19/1 983/2/1 984/1/1
f 985/20/1 986/12/1 987/22/1 988/21/1
f 989/5/1 990/6/1 991/7/1 992/8/1
f 993/34/1 994/27/1 995/41/1 996/48/1
f 997/42/1 998/45/1 999/47/1 1000/43/1
f 1001/22/1 1002/39/1 1003/40/1 1004/14/1
f 1005/6/1 1006/28/1 1007/31/1 1008/7/1
f 1009/16/1 1010/15/1 1011/38/1 1012/46/1
f 1013/30/1 1014/32/1 1015/20/1 1016/19/1
f 1017/7/1 1018/31/1 1019/33/1 1020/24/1
f 1021/29/1 1022/35/1 1023/32/1 1024/30/1

