# Tiled2Unity generated file. Do not modify by hand.
# Wavefront file for 'TitleIntro_mesh_0103.obj'

# Vertices (Count = 60)
v -192 -16 0
v -208 -16 0
v -208 0 0
v -192 0 0
v -192 -32 0
v -208 -32 0
v -208 -16 0
v -192 -16 0
v -192 -48 0
v -208 -48 0
v -208 -32 0
v -192 -32 0
v -192 -64 0
v -208 -64 0
v -208 -48 0
v -192 -48 0
v -192 -80 0
v -208 -80 0
v -208 -64 0
v -192 -64 0
v -192 -96 0
v -208 -96 0
v -208 -80 0
v -192 -80 0
v -192 -112 0
v -208 -112 0
v -208 -96 0
v -192 -96 0
v -192 -128 0
v -208 -128 0
v -208 -112 0
v -192 -112 0
v -192 -144 0
v -208 -144 0
v -208 -128 0
v -192 -128 0
v -192 -160 0
v -208 -160 0
v -208 -144 0
v -192 -144 0
v -192 -176 0
v -208 -176 0
v -208 -160 0
v -192 -160 0
v -192 -192 0
v -208 -192 0
v -208 -176 0
v -192 -176 0
v -192 -208 0
v -208 -208 0
v -208 -192 0
v -192 -192 0
v -192 -224 0
v -208 -224 0
v -208 -208 0
v -192 -208 0
v -192 -240 0
v -208 -240 0
v -208 -224 0
v -192 -224 0

# Texture cooridinates (Count = 10)
vt 0.9726563 0.828125
vt 0.9765625 0.828125
vt 0.9765625 0.84375
vt 0.9726563 0.84375
vt 0.9726563 0.8125
vt 0.9765625 0.8125
vt 0.9726563 0.796875
vt 0.9765625 0.796875
vt 0.9726563 0.78125
vt 0.9765625 0.78125

# Normal
vn 0 0 -1

# Mesh description
g TitleIntro_mesh_0103

# Faces
f 1/1/1 2/2/1 3/3/1 4/4/1
f 5/1/1 6/2/1 7/3/1 8/4/1
f 9/1/1 10/2/1 11/3/1 12/4/1
f 13/1/1 14/2/1 15/3/1 16/4/1
f 17/1/1 18/2/1 19/3/1 20/4/1
f 21/1/1 22/2/1 23/3/1 24/4/1
f 25/1/1 26/2/1 27/3/1 28/4/1
f 29/1/1 30/2/1 31/3/1 32/4/1
f 33/1/1 34/2/1 35/3/1 36/4/1
f 37/1/1 38/2/1 39/3/1 40/4/1
f 41/1/1 42/2/1 43/3/1 44/4/1
f 45/1/1 46/2/1 47/3/1 48/4/1
f 49/5/1 50/6/1 51/2/1 52/1/1
f 53/7/1 54/8/1 55/6/1 56/5/1
f 57/9/1 58/10/1 59/8/1 60/7/1

