# Tiled2Unity generated file. Do not modify by hand.
# Wavefront file for 'TitleIntro_mesh_0086.obj'

# Vertices (Count = 1024)
v 0 -16 0
v -16 -16 0
v -16 0 0
v 0 0 0
v -16 -16 0
v -32 -16 0
v -32 0 0
v -16 0 0
v -32 -16 0
v -48 -16 0
v -48 0 0
v -32 0 0
v -48 -16 0
v -64 -16 0
v -64 0 0
v -48 0 0
v -64 -16 0
v -80 -16 0
v -80 0 0
v -64 0 0
v -80 -16 0
v -96 -16 0
v -96 0 0
v -80 0 0
v -96 -16 0
v -112 -16 0
v -112 0 0
v -96 0 0
v -112 -16 0
v -128 -16 0
v -128 0 0
v -112 0 0
v -128 -16 0
v -144 -16 0
v -144 0 0
v -128 0 0
v -144 -16 0
v -160 -16 0
v -160 0 0
v -144 0 0
v -160 -16 0
v -176 -16 0
v -176 0 0
v -160 0 0
v -176 -16 0
v -192 -16 0
v -192 0 0
v -176 0 0
v -192 -16 0
v -208 -16 0
v -208 0 0
v -192 0 0
v -208 -16 0
v -224 -16 0
v -224 0 0
v -208 0 0
v -224 -16 0
v -240 -16 0
v -240 0 0
v -224 0 0
v -240 -16 0
v -256 -16 0
v -256 0 0
v -240 0 0
v 0 -32 0
v -16 -32 0
v -16 -16 0
v 0 -16 0
v -16 -32 0
v -32 -32 0
v -32 -16 0
v -16 -16 0
v -32 -32 0
v -48 -32 0
v -48 -16 0
v -32 -16 0
v -48 -32 0
v -64 -32 0
v -64 -16 0
v -48 -16 0
v -64 -32 0
v -80 -32 0
v -80 -16 0
v -64 -16 0
v -80 -32 0
v -96 -32 0
v -96 -16 0
v -80 -16 0
v -96 -32 0
v -112 -32 0
v -112 -16 0
v -96 -16 0
v -112 -32 0
v -128 -32 0
v -128 -16 0
v -112 -16 0
v -128 -32 0
v -144 -32 0
v -144 -16 0
v -128 -16 0
v -144 -32 0
v -160 -32 0
v -160 -16 0
v -144 -16 0
v -160 -32 0
v -176 -32 0
v -176 -16 0
v -160 -16 0
v -176 -32 0
v -192 -32 0
v -192 -16 0
v -176 -16 0
v -192 -32 0
v -208 -32 0
v -208 -16 0
v -192 -16 0
v -208 -32 0
v -224 -32 0
v -224 -16 0
v -208 -16 0
v -224 -32 0
v -240 -32 0
v -240 -16 0
v -224 -16 0
v -240 -32 0
v -256 -32 0
v -256 -16 0
v -240 -16 0
v 0 -48 0
v -16 -48 0
v -16 -32 0
v 0 -32 0
v -16 -48 0
v -32 -48 0
v -32 -32 0
v -16 -32 0
v -32 -48 0
v -48 -48 0
v -48 -32 0
v -32 -32 0
v -48 -48 0
v -64 -48 0
v -64 -32 0
v -48 -32 0
v -64 -48 0
v -80 -48 0
v -80 -32 0
v -64 -32 0
v -80 -48 0
v -96 -48 0
v -96 -32 0
v -80 -32 0
v -96 -48 0
v -112 -48 0
v -112 -32 0
v -96 -32 0
v -112 -48 0
v -128 -48 0
v -128 -32 0
v -112 -32 0
v -128 -48 0
v -144 -48 0
v -144 -32 0
v -128 -32 0
v -144 -48 0
v -160 -48 0
v -160 -32 0
v -144 -32 0
v -160 -48 0
v -176 -48 0
v -176 -32 0
v -160 -32 0
v -176 -48 0
v -192 -48 0
v -192 -32 0
v -176 -32 0
v -192 -48 0
v -208 -48 0
v -208 -32 0
v -192 -32 0
v -208 -48 0
v -224 -48 0
v -224 -32 0
v -208 -32 0
v -224 -48 0
v -240 -48 0
v -240 -32 0
v -224 -32 0
v -240 -48 0
v -256 -48 0
v -256 -32 0
v -240 -32 0
v 0 -64 0
v -16 -64 0
v -16 -48 0
v 0 -48 0
v -16 -64 0
v -32 -64 0
v -32 -48 0
v -16 -48 0
v -32 -64 0
v -48 -64 0
v -48 -48 0
v -32 -48 0
v -48 -64 0
v -64 -64 0
v -64 -48 0
v -48 -48 0
v -64 -64 0
v -80 -64 0
v -80 -48 0
v -64 -48 0
v -80 -64 0
v -96 -64 0
v -96 -48 0
v -80 -48 0
v -96 -64 0
v -112 -64 0
v -112 -48 0
v -96 -48 0
v -112 -64 0
v -128 -64 0
v -128 -48 0
v -112 -48 0
v -128 -64 0
v -144 -64 0
v -144 -48 0
v -128 -48 0
v -144 -64 0
v -160 -64 0
v -160 -48 0
v -144 -48 0
v -160 -64 0
v -176 -64 0
v -176 -48 0
v -160 -48 0
v -176 -64 0
v -192 -64 0
v -192 -48 0
v -176 -48 0
v -192 -64 0
v -208 -64 0
v -208 -48 0
v -192 -48 0
v -208 -64 0
v -224 -64 0
v -224 -48 0
v -208 -48 0
v -224 -64 0
v -240 -64 0
v -240 -48 0
v -224 -48 0
v -240 -64 0
v -256 -64 0
v -256 -48 0
v -240 -48 0
v 0 -80 0
v -16 -80 0
v -16 -64 0
v 0 -64 0
v -16 -80 0
v -32 -80 0
v -32 -64 0
v -16 -64 0
v -32 -80 0
v -48 -80 0
v -48 -64 0
v -32 -64 0
v -48 -80 0
v -64 -80 0
v -64 -64 0
v -48 -64 0
v -64 -80 0
v -80 -80 0
v -80 -64 0
v -64 -64 0
v -80 -80 0
v -96 -80 0
v -96 -64 0
v -80 -64 0
v -96 -80 0
v -112 -80 0
v -112 -64 0
v -96 -64 0
v -112 -80 0
v -128 -80 0
v -128 -64 0
v -112 -64 0
v -128 -80 0
v -144 -80 0
v -144 -64 0
v -128 -64 0
v -144 -80 0
v -160 -80 0
v -160 -64 0
v -144 -64 0
v -160 -80 0
v -176 -80 0
v -176 -64 0
v -160 -64 0
v -176 -80 0
v -192 -80 0
v -192 -64 0
v -176 -64 0
v -192 -80 0
v -208 -80 0
v -208 -64 0
v -192 -64 0
v -208 -80 0
v -224 -80 0
v -224 -64 0
v -208 -64 0
v -224 -80 0
v -240 -80 0
v -240 -64 0
v -224 -64 0
v -240 -80 0
v -256 -80 0
v -256 -64 0
v -240 -64 0
v 0 -96 0
v -16 -96 0
v -16 -80 0
v 0 -80 0
v -16 -96 0
v -32 -96 0
v -32 -80 0
v -16 -80 0
v -32 -96 0
v -48 -96 0
v -48 -80 0
v -32 -80 0
v -48 -96 0
v -64 -96 0
v -64 -80 0
v -48 -80 0
v -64 -96 0
v -80 -96 0
v -80 -80 0
v -64 -80 0
v -80 -96 0
v -96 -96 0
v -96 -80 0
v -80 -80 0
v -96 -96 0
v -112 -96 0
v -112 -80 0
v -96 -80 0
v -112 -96 0
v -128 -96 0
v -128 -80 0
v -112 -80 0
v -128 -96 0
v -144 -96 0
v -144 -80 0
v -128 -80 0
v -144 -96 0
v -160 -96 0
v -160 -80 0
v -144 -80 0
v -160 -96 0
v -176 -96 0
v -176 -80 0
v -160 -80 0
v -176 -96 0
v -192 -96 0
v -192 -80 0
v -176 -80 0
v -192 -96 0
v -208 -96 0
v -208 -80 0
v -192 -80 0
v -208 -96 0
v -224 -96 0
v -224 -80 0
v -208 -80 0
v -224 -96 0
v -240 -96 0
v -240 -80 0
v -224 -80 0
v -240 -96 0
v -256 -96 0
v -256 -80 0
v -240 -80 0
v 0 -112 0
v -16 -112 0
v -16 -96 0
v 0 -96 0
v -16 -112 0
v -32 -112 0
v -32 -96 0
v -16 -96 0
v -32 -112 0
v -48 -112 0
v -48 -96 0
v -32 -96 0
v -48 -112 0
v -64 -112 0
v -64 -96 0
v -48 -96 0
v -64 -112 0
v -80 -112 0
v -80 -96 0
v -64 -96 0
v -80 -112 0
v -96 -112 0
v -96 -96 0
v -80 -96 0
v -96 -112 0
v -112 -112 0
v -112 -96 0
v -96 -96 0
v -112 -112 0
v -128 -112 0
v -128 -96 0
v -112 -96 0
v -128 -112 0
v -144 -112 0
v -144 -96 0
v -128 -96 0
v -144 -112 0
v -160 -112 0
v -160 -96 0
v -144 -96 0
v -160 -112 0
v -176 -112 0
v -176 -96 0
v -160 -96 0
v -176 -112 0
v -192 -112 0
v -192 -96 0
v -176 -96 0
v -192 -112 0
v -208 -112 0
v -208 -96 0
v -192 -96 0
v -208 -112 0
v -224 -112 0
v -224 -96 0
v -208 -96 0
v -224 -112 0
v -240 -112 0
v -240 -96 0
v -224 -96 0
v -240 -112 0
v -256 -112 0
v -256 -96 0
v -240 -96 0
v 0 -128 0
v -16 -128 0
v -16 -112 0
v 0 -112 0
v -16 -128 0
v -32 -128 0
v -32 -112 0
v -16 -112 0
v -32 -128 0
v -48 -128 0
v -48 -112 0
v -32 -112 0
v -48 -128 0
v -64 -128 0
v -64 -112 0
v -48 -112 0
v -64 -128 0
v -80 -128 0
v -80 -112 0
v -64 -112 0
v -80 -128 0
v -96 -128 0
v -96 -112 0
v -80 -112 0
v -96 -128 0
v -112 -128 0
v -112 -112 0
v -96 -112 0
v -112 -128 0
v -128 -128 0
v -128 -112 0
v -112 -112 0
v -128 -128 0
v -144 -128 0
v -144 -112 0
v -128 -112 0
v -144 -128 0
v -160 -128 0
v -160 -112 0
v -144 -112 0
v -160 -128 0
v -176 -128 0
v -176 -112 0
v -160 -112 0
v -176 -128 0
v -192 -128 0
v -192 -112 0
v -176 -112 0
v -192 -128 0
v -208 -128 0
v -208 -112 0
v -192 -112 0
v -208 -128 0
v -224 -128 0
v -224 -112 0
v -208 -112 0
v -224 -128 0
v -240 -128 0
v -240 -112 0
v -224 -112 0
v -240 -128 0
v -256 -128 0
v -256 -112 0
v -240 -112 0
v 0 -144 0
v -16 -144 0
v -16 -128 0
v 0 -128 0
v -16 -144 0
v -32 -144 0
v -32 -128 0
v -16 -128 0
v -32 -144 0
v -48 -144 0
v -48 -128 0
v -32 -128 0
v -48 -144 0
v -64 -144 0
v -64 -128 0
v -48 -128 0
v -64 -144 0
v -80 -144 0
v -80 -128 0
v -64 -128 0
v -80 -144 0
v -96 -144 0
v -96 -128 0
v -80 -128 0
v -96 -144 0
v -112 -144 0
v -112 -128 0
v -96 -128 0
v -112 -144 0
v -128 -144 0
v -128 -128 0
v -112 -128 0
v -128 -144 0
v -144 -144 0
v -144 -128 0
v -128 -128 0
v -144 -144 0
v -160 -144 0
v -160 -128 0
v -144 -128 0
v -160 -144 0
v -176 -144 0
v -176 -128 0
v -160 -128 0
v -176 -144 0
v -192 -144 0
v -192 -128 0
v -176 -128 0
v -192 -144 0
v -208 -144 0
v -208 -128 0
v -192 -128 0
v -208 -144 0
v -224 -144 0
v -224 -128 0
v -208 -128 0
v -224 -144 0
v -240 -144 0
v -240 -128 0
v -224 -128 0
v -240 -144 0
v -256 -144 0
v -256 -128 0
v -240 -128 0
v 0 -160 0
v -16 -160 0
v -16 -144 0
v 0 -144 0
v -16 -160 0
v -32 -160 0
v -32 -144 0
v -16 -144 0
v -32 -160 0
v -48 -160 0
v -48 -144 0
v -32 -144 0
v -48 -160 0
v -64 -160 0
v -64 -144 0
v -48 -144 0
v -64 -160 0
v -80 -160 0
v -80 -144 0
v -64 -144 0
v -80 -160 0
v -96 -160 0
v -96 -144 0
v -80 -144 0
v -96 -160 0
v -112 -160 0
v -112 -144 0
v -96 -144 0
v -112 -160 0
v -128 -160 0
v -128 -144 0
v -112 -144 0
v -128 -160 0
v -144 -160 0
v -144 -144 0
v -128 -144 0
v -144 -160 0
v -160 -160 0
v -160 -144 0
v -144 -144 0
v -160 -160 0
v -176 -160 0
v -176 -144 0
v -160 -144 0
v -176 -160 0
v -192 -160 0
v -192 -144 0
v -176 -144 0
v -192 -160 0
v -208 -160 0
v -208 -144 0
v -192 -144 0
v -208 -160 0
v -224 -160 0
v -224 -144 0
v -208 -144 0
v -224 -160 0
v -240 -160 0
v -240 -144 0
v -224 -144 0
v -240 -160 0
v -256 -160 0
v -256 -144 0
v -240 -144 0
v 0 -176 0
v -16 -176 0
v -16 -160 0
v 0 -160 0
v -16 -176 0
v -32 -176 0
v -32 -160 0
v -16 -160 0
v -32 -176 0
v -48 -176 0
v -48 -160 0
v -32 -160 0
v -48 -176 0
v -64 -176 0
v -64 -160 0
v -48 -160 0
v -64 -176 0
v -80 -176 0
v -80 -160 0
v -64 -160 0
v -80 -176 0
v -96 -176 0
v -96 -160 0
v -80 -160 0
v -96 -176 0
v -112 -176 0
v -112 -160 0
v -96 -160 0
v -112 -176 0
v -128 -176 0
v -128 -160 0
v -112 -160 0
v -128 -176 0
v -144 -176 0
v -144 -160 0
v -128 -160 0
v -144 -176 0
v -160 -176 0
v -160 -160 0
v -144 -160 0
v -160 -176 0
v -176 -176 0
v -176 -160 0
v -160 -160 0
v -176 -176 0
v -192 -176 0
v -192 -160 0
v -176 -160 0
v -192 -176 0
v -208 -176 0
v -208 -160 0
v -192 -160 0
v -208 -176 0
v -224 -176 0
v -224 -160 0
v -208 -160 0
v -224 -176 0
v -240 -176 0
v -240 -160 0
v -224 -160 0
v -240 -176 0
v -256 -176 0
v -256 -160 0
v -240 -160 0
v 0 -192 0
v -16 -192 0
v -16 -176 0
v 0 -176 0
v -16 -192 0
v -32 -192 0
v -32 -176 0
v -16 -176 0
v -32 -192 0
v -48 -192 0
v -48 -176 0
v -32 -176 0
v -48 -192 0
v -64 -192 0
v -64 -176 0
v -48 -176 0
v -64 -192 0
v -80 -192 0
v -80 -176 0
v -64 -176 0
v -80 -192 0
v -96 -192 0
v -96 -176 0
v -80 -176 0
v -96 -192 0
v -112 -192 0
v -112 -176 0
v -96 -176 0
v -112 -192 0
v -128 -192 0
v -128 -176 0
v -112 -176 0
v -128 -192 0
v -144 -192 0
v -144 -176 0
v -128 -176 0
v -144 -192 0
v -160 -192 0
v -160 -176 0
v -144 -176 0
v -160 -192 0
v -176 -192 0
v -176 -176 0
v -160 -176 0
v -176 -192 0
v -192 -192 0
v -192 -176 0
v -176 -176 0
v -192 -192 0
v -208 -192 0
v -208 -176 0
v -192 -176 0
v -208 -192 0
v -224 -192 0
v -224 -176 0
v -208 -176 0
v -224 -192 0
v -240 -192 0
v -240 -176 0
v -224 -176 0
v -240 -192 0
v -256 -192 0
v -256 -176 0
v -240 -176 0
v 0 -208 0
v -16 -208 0
v -16 -192 0
v 0 -192 0
v -16 -208 0
v -32 -208 0
v -32 -192 0
v -16 -192 0
v -32 -208 0
v -48 -208 0
v -48 -192 0
v -32 -192 0
v -48 -208 0
v -64 -208 0
v -64 -192 0
v -48 -192 0
v -64 -208 0
v -80 -208 0
v -80 -192 0
v -64 -192 0
v -80 -208 0
v -96 -208 0
v -96 -192 0
v -80 -192 0
v -96 -208 0
v -112 -208 0
v -112 -192 0
v -96 -192 0
v -112 -208 0
v -128 -208 0
v -128 -192 0
v -112 -192 0
v -128 -208 0
v -144 -208 0
v -144 -192 0
v -128 -192 0
v -144 -208 0
v -160 -208 0
v -160 -192 0
v -144 -192 0
v -160 -208 0
v -176 -208 0
v -176 -192 0
v -160 -192 0
v -176 -208 0
v -192 -208 0
v -192 -192 0
v -176 -192 0
v -192 -208 0
v -208 -208 0
v -208 -192 0
v -192 -192 0
v -208 -208 0
v -224 -208 0
v -224 -192 0
v -208 -192 0
v -224 -208 0
v -240 -208 0
v -240 -192 0
v -224 -192 0
v -240 -208 0
v -256 -208 0
v -256 -192 0
v -240 -192 0
v 0 -224 0
v -16 -224 0
v -16 -208 0
v 0 -208 0
v -16 -224 0
v -32 -224 0
v -32 -208 0
v -16 -208 0
v -32 -224 0
v -48 -224 0
v -48 -208 0
v -32 -208 0
v -48 -224 0
v -64 -224 0
v -64 -208 0
v -48 -208 0
v -64 -224 0
v -80 -224 0
v -80 -208 0
v -64 -208 0
v -80 -224 0
v -96 -224 0
v -96 -208 0
v -80 -208 0
v -96 -224 0
v -112 -224 0
v -112 -208 0
v -96 -208 0
v -112 -224 0
v -128 -224 0
v -128 -208 0
v -112 -208 0
v -128 -224 0
v -144 -224 0
v -144 -208 0
v -128 -208 0
v -144 -224 0
v -160 -224 0
v -160 -208 0
v -144 -208 0
v -160 -224 0
v -176 -224 0
v -176 -208 0
v -160 -208 0
v -176 -224 0
v -192 -224 0
v -192 -208 0
v -176 -208 0
v -192 -224 0
v -208 -224 0
v -208 -208 0
v -192 -208 0
v -208 -224 0
v -224 -224 0
v -224 -208 0
v -208 -208 0
v -224 -224 0
v -240 -224 0
v -240 -208 0
v -224 -208 0
v -240 -224 0
v -256 -224 0
v -256 -208 0
v -240 -208 0
v 0 -240 0
v -16 -240 0
v -16 -224 0
v 0 -224 0
v -16 -240 0
v -32 -240 0
v -32 -224 0
v -16 -224 0
v -32 -240 0
v -48 -240 0
v -48 -224 0
v -32 -224 0
v -48 -240 0
v -64 -240 0
v -64 -224 0
v -48 -224 0
v -64 -240 0
v -80 -240 0
v -80 -224 0
v -64 -224 0
v -80 -240 0
v -96 -240 0
v -96 -224 0
v -80 -224 0
v -96 -240 0
v -112 -240 0
v -112 -224 0
v -96 -224 0
v -112 -240 0
v -128 -240 0
v -128 -224 0
v -112 -224 0
v -128 -240 0
v -144 -240 0
v -144 -224 0
v -128 -224 0
v -144 -240 0
v -160 -240 0
v -160 -224 0
v -144 -224 0
v -160 -240 0
v -176 -240 0
v -176 -224 0
v -160 -224 0
v -176 -240 0
v -192 -240 0
v -192 -224 0
v -176 -224 0
v -192 -240 0
v -208 -240 0
v -208 -224 0
v -192 -224 0
v -208 -240 0
v -224 -240 0
v -224 -224 0
v -208 -224 0
v -224 -240 0
v -240 -240 0
v -240 -224 0
v -224 -224 0
v -240 -240 0
v -256 -240 0
v -256 -224 0
v -240 -224 0
v 0 -256 0
v -16 -256 0
v -16 -240 0
v 0 -240 0
v -16 -256 0
v -32 -256 0
v -32 -240 0
v -16 -240 0
v -32 -256 0
v -48 -256 0
v -48 -240 0
v -32 -240 0
v -48 -256 0
v -64 -256 0
v -64 -240 0
v -48 -240 0
v -64 -256 0
v -80 -256 0
v -80 -240 0
v -64 -240 0
v -80 -256 0
v -96 -256 0
v -96 -240 0
v -80 -240 0
v -96 -256 0
v -112 -256 0
v -112 -240 0
v -96 -240 0
v -112 -256 0
v -128 -256 0
v -128 -240 0
v -112 -240 0
v -128 -256 0
v -144 -256 0
v -144 -240 0
v -128 -240 0
v -144 -256 0
v -160 -256 0
v -160 -240 0
v -144 -240 0
v -160 -256 0
v -176 -256 0
v -176 -240 0
v -160 -240 0
v -176 -256 0
v -192 -256 0
v -192 -240 0
v -176 -240 0
v -192 -256 0
v -208 -256 0
v -208 -240 0
v -192 -240 0
v -208 -256 0
v -224 -256 0
v -224 -240 0
v -208 -240 0
v -224 -256 0
v -240 -256 0
v -240 -240 0
v -224 -240 0
v -240 -256 0
v -256 -256 0
v -256 -240 0
v -240 -240 0

# Texture cooridinates (Count = 49)
vt 0.0234375 0.453125
vt 0.02734375 0.453125
vt 0.02734375 0.46875
vt 0.0234375 0.46875
vt 0.0078125 0.4375
vt 0.01171875 0.4375
vt 0.01171875 0.453125
vt 0.0078125 0.453125
vt 0.01953125 0.4375
vt 0.0234375 0.4375
vt 0.01953125 0.453125
vt 0.0078125 0.421875
vt 0.01171875 0.421875
vt 0.01953125 0.390625
vt 0.0234375 0.390625
vt 0.0234375 0.40625
vt 0.01953125 0.40625
vt 0.02734375 0.390625
vt 0.03125 0.390625
vt 0.03125 0.40625
vt 0.02734375 0.40625
vt 0.015625 0.4375
vt 0.015625 0.453125
vt 0.02734375 0.421875
vt 0.0234375 0.421875
vt 0.015625 0.46875
vt 0.01171875 0.46875
vt 0.01953125 0.46875
vt 0.02734375 0.484375
vt 0.0234375 0.484375
vt 0.015625 0.484375
vt 0.01171875 0.484375
vt 0.01953125 0.484375
vt 0.01171875 0.40625
vt 0.015625 0.40625
vt 0.015625 0.421875
vt 0.03125 0.421875
vt 0.03125 0.4375
vt 0.02734375 0.4375
vt 0.01171875 0.390625
vt 0.015625 0.390625
vt 0.0078125 0.46875
vt 0.0078125 0.484375
vt 0.01953125 0.421875
vt 0.03125 0.453125
vt 0.03125 0.46875
vt 0.0078125 0.40625
vt 0.0078125 0.390625
vt 0.03125 0.484375

# Normal
vn 0 0 -1

# Mesh description
g TitleIntro_mesh_0086

# Faces
f 1/1/1 2/2/1 3/3/1 4/4/1
f 5/5/1 6/6/1 7/7/1 8/8/1
f 9/9/1 10/10/1 11/1/1 12/11/1
f 13/12/1 14/13/1 15/6/1 16/5/1
f 17/14/1 18/15/1 19/16/1 20/17/1
f 21/18/1 22/19/1 23/20/1 24/21/1
f 25/6/1 26/22/1 27/23/1 28/7/1
f 29/9/1 30/10/1 31/1/1 32/11/1
f 33/16/1 34/21/1 35/24/1 36/25/1
f 37/6/1 38/22/1 39/23/1 40/7/1
f 41/7/1 42/23/1 43/26/1 44/27/1
f 45/11/1 46/1/1 47/4/1 48/28/1
f 49/16/1 50/21/1 51/24/1 52/25/1
f 53/4/1 54/3/1 55/29/1 56/30/1
f 57/27/1 58/26/1 59/31/1 60/32/1
f 61/5/1 62/6/1 63/7/1 64/8/1
f 65/28/1 66/4/1 67/30/1 68/33/1
f 69/34/1 70/35/1 71/36/1 72/13/1
f 73/4/1 74/3/1 75/29/1 76/30/1
f 77/15/1 78/18/1 79/21/1 80/16/1
f 81/24/1 82/37/1 83/38/1 84/39/1
f 85/40/1 86/41/1 87/35/1 88/34/1
f 89/5/1 90/6/1 91/7/1 92/8/1
f 93/42/1 94/27/1 95/32/1 96/43/1
f 97/21/1 98/20/1 99/37/1 100/24/1
f 101/28/1 102/4/1 103/30/1 104/33/1
f 105/21/1 106/20/1 107/37/1 108/24/1
f 109/9/1 110/10/1 111/1/1 112/11/1
f 113/17/1 114/16/1 115/25/1 116/44/1
f 117/10/1 118/39/1 119/2/1 120/1/1
f 121/5/1 122/6/1 123/7/1 124/8/1
f 125/10/1 126/39/1 127/2/1 128/1/1
f 129/27/1 130/26/1 131/31/1 132/32/1
f 133/17/1 134/16/1 135/25/1 136/44/1
f 137/36/1 138/44/1 139/9/1 140/22/1
f 141/26/1 142/28/1 143/33/1 144/31/1
f 145/4/1 146/3/1 147/29/1 148/30/1
f 149/24/1 150/37/1 151/38/1 152/39/1
f 153/27/1 154/26/1 155/31/1 156/32/1
f 157/2/1 158/45/1 159/46/1 160/3/1
f 161/25/1 162/24/1 163/39/1 164/10/1
f 165/40/1 166/41/1 167/35/1 168/34/1
f 169/39/1 170/38/1 171/45/1 172/2/1
f 173/26/1 174/28/1 175/33/1 176/31/1
f 177/41/1 178/14/1 179/17/1 180/35/1
f 181/17/1 182/16/1 183/25/1 184/44/1
f 185/39/1 186/38/1 187/45/1 188/2/1
f 189/4/1 190/3/1 191/29/1 192/30/1
f 193/22/1 194/9/1 195/11/1 196/23/1
f 197/25/1 198/24/1 199/39/1 200/10/1
f 201/12/1 202/13/1 203/6/1 204/5/1
f 205/47/1 206/34/1 207/13/1 208/12/1
f 209/8/1 210/7/1 211/27/1 212/42/1
f 213/26/1 214/28/1 215/33/1 216/31/1
f 217/42/1 218/27/1 219/32/1 220/43/1
f 221/44/1 222/25/1 223/10/1 224/9/1
f 225/13/1 226/36/1 227/22/1 228/6/1
f 229/11/1 230/1/1 231/4/1 232/28/1
f 233/8/1 234/7/1 235/27/1 236/42/1
f 237/9/1 238/10/1 239/1/1 240/11/1
f 241/14/1 242/15/1 243/16/1 244/17/1
f 245/26/1 246/28/1 247/33/1 248/31/1
f 249/4/1 250/3/1 251/29/1 252/30/1
f 253/24/1 254/37/1 255/38/1 256/39/1
f 257/11/1 258/1/1 259/4/1 260/28/1
f 261/26/1 262/28/1 263/33/1 264/31/1
f 265/21/1 266/20/1 267/37/1 268/24/1
f 269/12/1 270/13/1 271/6/1 272/5/1
f 273/41/1 274/14/1 275/17/1 276/35/1
f 277/34/1 278/35/1 279/36/1 280/13/1
f 281/41/1 282/14/1 283/17/1 284/35/1
f 285/48/1 286/40/1 287/34/1 288/47/1
f 289/9/1 290/10/1 291/1/1 292/11/1
f 293/28/1 294/4/1 295/30/1 296/33/1
f 297/36/1 298/44/1 299/9/1 300/22/1
f 301/15/1 302/18/1 303/21/1 304/16/1
f 305/48/1 306/40/1 307/34/1 308/47/1
f 309/28/1 310/4/1 311/30/1 312/33/1
f 313/11/1 314/1/1 315/4/1 316/28/1
f 317/1/1 318/2/1 319/3/1 320/4/1
f 321/6/1 322/22/1 323/23/1 324/7/1
f 325/40/1 326/41/1 327/35/1 328/34/1
f 329/9/1 330/10/1 331/1/1 332/11/1
f 333/21/1 334/20/1 335/37/1 336/24/1
f 337/6/1 338/22/1 339/23/1 340/7/1
f 341/9/1 342/10/1 343/1/1 344/11/1
f 345/44/1 346/25/1 347/10/1 348/9/1
f 349/14/1 350/15/1 351/16/1 352/17/1
f 353/1/1 354/2/1 355/3/1 356/4/1
f 357/21/1 358/20/1 359/37/1 360/24/1
f 361/1/1 362/2/1 363/3/1 364/4/1
f 365/36/1 366/44/1 367/9/1 368/22/1
f 369/10/1 370/39/1 371/2/1 372/1/1
f 373/6/1 374/22/1 375/23/1 376/7/1
f 377/39/1 378/38/1 379/45/1 380/2/1
f 381/10/1 382/39/1 383/2/1 384/1/1
f 385/44/1 386/25/1 387/10/1 388/9/1
f 389/13/1 390/36/1 391/22/1 392/6/1
f 393/15/1 394/18/1 395/21/1 396/16/1
f 397/27/1 398/26/1 399/31/1 400/32/1
f 401/27/1 402/26/1 403/31/1 404/32/1
f 405/27/1 406/26/1 407/31/1 408/32/1
f 409/26/1 410/28/1 411/33/1 412/31/1
f 413/47/1 414/34/1 415/13/1 416/12/1
f 417/41/1 418/14/1 419/17/1 420/35/1
f 421/11/1 422/1/1 423/4/1 424/28/1
f 425/5/1 426/6/1 427/7/1 428/8/1
f 429/11/1 430/1/1 431/4/1 432/28/1
f 433/22/1 434/9/1 435/11/1 436/23/1
f 437/48/1 438/40/1 439/34/1 440/47/1
f 441/21/1 442/20/1 443/37/1 444/24/1
f 445/7/1 446/23/1 447/26/1 448/27/1
f 449/39/1 450/38/1 451/45/1 452/2/1
f 453/35/1 454/17/1 455/44/1 456/36/1
f 457/42/1 458/27/1 459/32/1 460/43/1
f 461/26/1 462/28/1 463/33/1 464/31/1
f 465/21/1 466/20/1 467/37/1 468/24/1
f 469/2/1 470/45/1 471/46/1 472/3/1
f 473/47/1 474/34/1 475/13/1 476/12/1
f 477/8/1 478/7/1 479/27/1 480/42/1
f 481/10/1 482/39/1 483/2/1 484/1/1
f 485/11/1 486/1/1 487/4/1 488/28/1
f 489/10/1 490/39/1 491/2/1 492/1/1
f 493/2/1 494/45/1 495/46/1 496/3/1
f 497/22/1 498/9/1 499/11/1 500/23/1
f 501/8/1 502/7/1 503/27/1 504/42/1
f 505/5/1 506/6/1 507/7/1 508/8/1
f 509/5/1 510/6/1 511/7/1 512/8/1
f 513/11/1 514/1/1 515/4/1 516/28/1
f 517/47/1 518/34/1 519/13/1 520/12/1
f 521/24/1 522/37/1 523/38/1 524/39/1
f 525/5/1 526/6/1 527/7/1 528/8/1
f 529/14/1 530/15/1 531/16/1 532/17/1
f 533/47/1 534/34/1 535/13/1 536/12/1
f 537/47/1 538/34/1 539/13/1 540/12/1
f 541/9/1 542/10/1 543/1/1 544/11/1
f 545/9/1 546/10/1 547/1/1 548/11/1
f 549/44/1 550/25/1 551/10/1 552/9/1
f 553/27/1 554/26/1 555/31/1 556/32/1
f 557/14/1 558/15/1 559/16/1 560/17/1
f 561/39/1 562/38/1 563/45/1 564/2/1
f 565/34/1 566/35/1 567/36/1 568/13/1
f 569/18/1 570/19/1 571/20/1 572/21/1
f 573/8/1 574/7/1 575/27/1 576/42/1
f 577/13/1 578/36/1 579/22/1 580/6/1
f 581/47/1 582/34/1 583/13/1 584/12/1
f 585/41/1 586/14/1 587/17/1 588/35/1
f 589/11/1 590/1/1 591/4/1 592/28/1
f 593/9/1 594/10/1 595/1/1 596/11/1
f 597/28/1 598/4/1 599/30/1 600/33/1
f 601/4/1 602/3/1 603/29/1 604/30/1
f 605/1/1 606/2/1 607/3/1 608/4/1
f 609/48/1 610/40/1 611/34/1 612/47/1
f 613/44/1 614/25/1 615/10/1 616/9/1
f 617/27/1 618/26/1 619/31/1 620/32/1
f 621/24/1 622/37/1 623/38/1 624/39/1
f 625/28/1 626/4/1 627/30/1 628/33/1
f 629/18/1 630/19/1 631/20/1 632/21/1
f 633/25/1 634/24/1 635/39/1 636/10/1
f 637/9/1 638/10/1 639/1/1 640/11/1
f 641/6/1 642/22/1 643/23/1 644/7/1
f 645/14/1 646/15/1 647/16/1 648/17/1
f 649/3/1 650/46/1 651/49/1 652/29/1
f 653/18/1 654/19/1 655/20/1 656/21/1
f 657/13/1 658/36/1 659/22/1 660/6/1
f 661/22/1 662/9/1 663/11/1 664/23/1
f 665/5/1 666/6/1 667/7/1 668/8/1
f 669/40/1 670/41/1 671/35/1 672/34/1
f 673/22/1 674/9/1 675/11/1 676/23/1
f 677/36/1 678/44/1 679/9/1 680/22/1
f 681/22/1 682/9/1 683/11/1 684/23/1
f 685/5/1 686/6/1 687/7/1 688/8/1
f 689/13/1 690/36/1 691/22/1 692/6/1
f 693/34/1 694/35/1 695/36/1 696/13/1
f 697/16/1 698/21/1 699/24/1 700/25/1
f 701/14/1 702/15/1 703/16/1 704/17/1
f 705/13/1 706/36/1 707/22/1 708/6/1
f 709/13/1 710/36/1 711/22/1 712/6/1
f 713/35/1 714/17/1 715/44/1 716/36/1
f 717/34/1 718/35/1 719/36/1 720/13/1
f 721/36/1 722/44/1 723/9/1 724/22/1
f 725/15/1 726/18/1 727/21/1 728/16/1
f 729/25/1 730/24/1 731/39/1 732/10/1
f 733/36/1 734/44/1 735/9/1 736/22/1
f 737/11/1 738/1/1 739/4/1 740/28/1
f 741/12/1 742/13/1 743/6/1 744/5/1
f 745/13/1 746/36/1 747/22/1 748/6/1
f 749/14/1 750/15/1 751/16/1 752/17/1
f 753/23/1 754/11/1 755/28/1 756/26/1
f 757/47/1 758/34/1 759/13/1 760/12/1
f 761/47/1 762/34/1 763/13/1 764/12/1
f 765/26/1 766/28/1 767/33/1 768/31/1
f 769/17/1 770/16/1 771/25/1 772/44/1
f 773/17/1 774/16/1 775/25/1 776/44/1
f 777/13/1 778/36/1 779/22/1 780/6/1
f 781/8/1 782/7/1 783/27/1 784/42/1
f 785/34/1 786/35/1 787/36/1 788/13/1
f 789/47/1 790/34/1 791/13/1 792/12/1
f 793/42/1 794/27/1 795/32/1 796/43/1
f 797/8/1 798/7/1 799/27/1 800/42/1
f 801/26/1 802/28/1 803/33/1 804/31/1
f 805/1/1 806/2/1 807/3/1 808/4/1
f 809/22/1 810/9/1 811/11/1 812/23/1
f 813/44/1 814/25/1 815/10/1 816/9/1
f 817/24/1 818/37/1 819/38/1 820/39/1
f 821/8/1 822/7/1 823/27/1 824/42/1
f 825/4/1 826/3/1 827/29/1 828/30/1
f 829/9/1 830/10/1 831/1/1 832/11/1
f 833/36/1 834/44/1 835/9/1 836/22/1
f 837/23/1 838/11/1 839/28/1 840/26/1
f 841/8/1 842/7/1 843/27/1 844/42/1
f 845/4/1 846/3/1 847/29/1 848/30/1
f 849/34/1 850/35/1 851/36/1 852/13/1
f 853/36/1 854/44/1 855/9/1 856/22/1
f 857/24/1 858/37/1 859/38/1 860/39/1
f 861/48/1 862/40/1 863/34/1 864/47/1
f 865/42/1 866/27/1 867/32/1 868/43/1
f 869/23/1 870/11/1 871/28/1 872/26/1
f 873/47/1 874/34/1 875/13/1 876/12/1
f 877/13/1 878/36/1 879/22/1 880/6/1
f 881/25/1 882/24/1 883/39/1 884/10/1
f 885/23/1 886/11/1 887/28/1 888/26/1
f 889/24/1 890/37/1 891/38/1 892/39/1
f 893/26/1 894/28/1 895/33/1 896/31/1
f 897/28/1 898/4/1 899/30/1 900/33/1
f 901/8/1 902/7/1 903/27/1 904/42/1
f 905/21/1 906/20/1 907/37/1 908/24/1
f 909/26/1 910/28/1 911/33/1 912/31/1
f 913/8/1 914/7/1 915/27/1 916/42/1
f 917/8/1 918/7/1 919/27/1 920/42/1
f 921/10/1 922/39/1 923/2/1 924/1/1
f 925/48/1 926/40/1 927/34/1 928/47/1
f 929/35/1 930/17/1 931/44/1 932/36/1
f 933/18/1 934/19/1 935/20/1 936/21/1
f 937/22/1 938/9/1 939/11/1 940/23/1
f 941/28/1 942/4/1 943/30/1 944/33/1
f 945/26/1 946/28/1 947/33/1 948/31/1
f 949/5/1 950/6/1 951/7/1 952/8/1
f 953/44/1 954/25/1 955/10/1 956/9/1
f 957/10/1 958/39/1 959/2/1 960/1/1
f 961/10/1 962/39/1 963/2/1 964/1/1
f 965/23/1 966/11/1 967/28/1 968/26/1
f 969/10/1 970/39/1 971/2/1 972/1/1
f 973/15/1 974/18/1 975/21/1 976/16/1
f 977/17/1 978/16/1 979/25/1 980/44/1
f 981/24/1 982/37/1 983/38/1 984/39/1
f 985/1/1 986/2/1 987/3/1 988/4/1
f 989/48/1 990/40/1 991/34/1 992/47/1
f 993/40/1 994/41/1 995/35/1 996/34/1
f 997/9/1 998/10/1 999/1/1 1000/11/1
f 1001/13/1 1002/36/1 1003/22/1 1004/6/1
f 1005/5/1 1006/6/1 1007/7/1 1008/8/1
f 1009/27/1 1010/26/1 1011/31/1 1012/32/1
f 1013/1/1 1014/2/1 1015/3/1 1016/4/1
f 1017/14/1 1018/15/1 1019/16/1 1020/17/1
f 1021/24/1 1022/37/1 1023/38/1 1024/39/1

