# Tiled2Unity generated file. Do not modify by hand.
# Wavefront file for 'TitleIntro_mesh_0024.obj'

# Vertices (Count = 1024)
v 0 -16 0
v -16 -16 0
v -16 0 0
v 0 0 0
v -16 -16 0
v -32 -16 0
v -32 0 0
v -16 0 0
v -32 -16 0
v -48 -16 0
v -48 0 0
v -32 0 0
v -48 -16 0
v -64 -16 0
v -64 0 0
v -48 0 0
v -64 -16 0
v -80 -16 0
v -80 0 0
v -64 0 0
v -80 -16 0
v -96 -16 0
v -96 0 0
v -80 0 0
v -96 -16 0
v -112 -16 0
v -112 0 0
v -96 0 0
v -112 -16 0
v -128 -16 0
v -128 0 0
v -112 0 0
v -128 -16 0
v -144 -16 0
v -144 0 0
v -128 0 0
v -144 -16 0
v -160 -16 0
v -160 0 0
v -144 0 0
v -160 -16 0
v -176 -16 0
v -176 0 0
v -160 0 0
v -176 -16 0
v -192 -16 0
v -192 0 0
v -176 0 0
v -192 -16 0
v -208 -16 0
v -208 0 0
v -192 0 0
v -208 -16 0
v -224 -16 0
v -224 0 0
v -208 0 0
v -224 -16 0
v -240 -16 0
v -240 0 0
v -224 0 0
v -240 -16 0
v -256 -16 0
v -256 0 0
v -240 0 0
v 0 -32 0
v -16 -32 0
v -16 -16 0
v 0 -16 0
v -16 -32 0
v -32 -32 0
v -32 -16 0
v -16 -16 0
v -32 -32 0
v -48 -32 0
v -48 -16 0
v -32 -16 0
v -48 -32 0
v -64 -32 0
v -64 -16 0
v -48 -16 0
v -64 -32 0
v -80 -32 0
v -80 -16 0
v -64 -16 0
v -80 -32 0
v -96 -32 0
v -96 -16 0
v -80 -16 0
v -96 -32 0
v -112 -32 0
v -112 -16 0
v -96 -16 0
v -112 -32 0
v -128 -32 0
v -128 -16 0
v -112 -16 0
v -128 -32 0
v -144 -32 0
v -144 -16 0
v -128 -16 0
v -144 -32 0
v -160 -32 0
v -160 -16 0
v -144 -16 0
v -160 -32 0
v -176 -32 0
v -176 -16 0
v -160 -16 0
v -176 -32 0
v -192 -32 0
v -192 -16 0
v -176 -16 0
v -192 -32 0
v -208 -32 0
v -208 -16 0
v -192 -16 0
v -208 -32 0
v -224 -32 0
v -224 -16 0
v -208 -16 0
v -224 -32 0
v -240 -32 0
v -240 -16 0
v -224 -16 0
v -240 -32 0
v -256 -32 0
v -256 -16 0
v -240 -16 0
v 0 -48 0
v -16 -48 0
v -16 -32 0
v 0 -32 0
v -16 -48 0
v -32 -48 0
v -32 -32 0
v -16 -32 0
v -32 -48 0
v -48 -48 0
v -48 -32 0
v -32 -32 0
v -48 -48 0
v -64 -48 0
v -64 -32 0
v -48 -32 0
v -64 -48 0
v -80 -48 0
v -80 -32 0
v -64 -32 0
v -80 -48 0
v -96 -48 0
v -96 -32 0
v -80 -32 0
v -96 -48 0
v -112 -48 0
v -112 -32 0
v -96 -32 0
v -112 -48 0
v -128 -48 0
v -128 -32 0
v -112 -32 0
v -128 -48 0
v -144 -48 0
v -144 -32 0
v -128 -32 0
v -144 -48 0
v -160 -48 0
v -160 -32 0
v -144 -32 0
v -160 -48 0
v -176 -48 0
v -176 -32 0
v -160 -32 0
v -176 -48 0
v -192 -48 0
v -192 -32 0
v -176 -32 0
v -192 -48 0
v -208 -48 0
v -208 -32 0
v -192 -32 0
v -208 -48 0
v -224 -48 0
v -224 -32 0
v -208 -32 0
v -224 -48 0
v -240 -48 0
v -240 -32 0
v -224 -32 0
v -240 -48 0
v -256 -48 0
v -256 -32 0
v -240 -32 0
v 0 -64 0
v -16 -64 0
v -16 -48 0
v 0 -48 0
v -16 -64 0
v -32 -64 0
v -32 -48 0
v -16 -48 0
v -32 -64 0
v -48 -64 0
v -48 -48 0
v -32 -48 0
v -48 -64 0
v -64 -64 0
v -64 -48 0
v -48 -48 0
v -64 -64 0
v -80 -64 0
v -80 -48 0
v -64 -48 0
v -80 -64 0
v -96 -64 0
v -96 -48 0
v -80 -48 0
v -96 -64 0
v -112 -64 0
v -112 -48 0
v -96 -48 0
v -112 -64 0
v -128 -64 0
v -128 -48 0
v -112 -48 0
v -128 -64 0
v -144 -64 0
v -144 -48 0
v -128 -48 0
v -144 -64 0
v -160 -64 0
v -160 -48 0
v -144 -48 0
v -160 -64 0
v -176 -64 0
v -176 -48 0
v -160 -48 0
v -176 -64 0
v -192 -64 0
v -192 -48 0
v -176 -48 0
v -192 -64 0
v -208 -64 0
v -208 -48 0
v -192 -48 0
v -208 -64 0
v -224 -64 0
v -224 -48 0
v -208 -48 0
v -224 -64 0
v -240 -64 0
v -240 -48 0
v -224 -48 0
v -240 -64 0
v -256 -64 0
v -256 -48 0
v -240 -48 0
v 0 -80 0
v -16 -80 0
v -16 -64 0
v 0 -64 0
v -16 -80 0
v -32 -80 0
v -32 -64 0
v -16 -64 0
v -32 -80 0
v -48 -80 0
v -48 -64 0
v -32 -64 0
v -48 -80 0
v -64 -80 0
v -64 -64 0
v -48 -64 0
v -64 -80 0
v -80 -80 0
v -80 -64 0
v -64 -64 0
v -80 -80 0
v -96 -80 0
v -96 -64 0
v -80 -64 0
v -96 -80 0
v -112 -80 0
v -112 -64 0
v -96 -64 0
v -112 -80 0
v -128 -80 0
v -128 -64 0
v -112 -64 0
v -128 -80 0
v -144 -80 0
v -144 -64 0
v -128 -64 0
v -144 -80 0
v -160 -80 0
v -160 -64 0
v -144 -64 0
v -160 -80 0
v -176 -80 0
v -176 -64 0
v -160 -64 0
v -176 -80 0
v -192 -80 0
v -192 -64 0
v -176 -64 0
v -192 -80 0
v -208 -80 0
v -208 -64 0
v -192 -64 0
v -208 -80 0
v -224 -80 0
v -224 -64 0
v -208 -64 0
v -224 -80 0
v -240 -80 0
v -240 -64 0
v -224 -64 0
v -240 -80 0
v -256 -80 0
v -256 -64 0
v -240 -64 0
v 0 -96 0
v -16 -96 0
v -16 -80 0
v 0 -80 0
v -16 -96 0
v -32 -96 0
v -32 -80 0
v -16 -80 0
v -32 -96 0
v -48 -96 0
v -48 -80 0
v -32 -80 0
v -48 -96 0
v -64 -96 0
v -64 -80 0
v -48 -80 0
v -64 -96 0
v -80 -96 0
v -80 -80 0
v -64 -80 0
v -80 -96 0
v -96 -96 0
v -96 -80 0
v -80 -80 0
v -96 -96 0
v -112 -96 0
v -112 -80 0
v -96 -80 0
v -112 -96 0
v -128 -96 0
v -128 -80 0
v -112 -80 0
v -128 -96 0
v -144 -96 0
v -144 -80 0
v -128 -80 0
v -144 -96 0
v -160 -96 0
v -160 -80 0
v -144 -80 0
v -160 -96 0
v -176 -96 0
v -176 -80 0
v -160 -80 0
v -176 -96 0
v -192 -96 0
v -192 -80 0
v -176 -80 0
v -192 -96 0
v -208 -96 0
v -208 -80 0
v -192 -80 0
v -208 -96 0
v -224 -96 0
v -224 -80 0
v -208 -80 0
v -224 -96 0
v -240 -96 0
v -240 -80 0
v -224 -80 0
v -240 -96 0
v -256 -96 0
v -256 -80 0
v -240 -80 0
v 0 -112 0
v -16 -112 0
v -16 -96 0
v 0 -96 0
v -16 -112 0
v -32 -112 0
v -32 -96 0
v -16 -96 0
v -32 -112 0
v -48 -112 0
v -48 -96 0
v -32 -96 0
v -48 -112 0
v -64 -112 0
v -64 -96 0
v -48 -96 0
v -64 -112 0
v -80 -112 0
v -80 -96 0
v -64 -96 0
v -80 -112 0
v -96 -112 0
v -96 -96 0
v -80 -96 0
v -96 -112 0
v -112 -112 0
v -112 -96 0
v -96 -96 0
v -112 -112 0
v -128 -112 0
v -128 -96 0
v -112 -96 0
v -128 -112 0
v -144 -112 0
v -144 -96 0
v -128 -96 0
v -144 -112 0
v -160 -112 0
v -160 -96 0
v -144 -96 0
v -160 -112 0
v -176 -112 0
v -176 -96 0
v -160 -96 0
v -176 -112 0
v -192 -112 0
v -192 -96 0
v -176 -96 0
v -192 -112 0
v -208 -112 0
v -208 -96 0
v -192 -96 0
v -208 -112 0
v -224 -112 0
v -224 -96 0
v -208 -96 0
v -224 -112 0
v -240 -112 0
v -240 -96 0
v -224 -96 0
v -240 -112 0
v -256 -112 0
v -256 -96 0
v -240 -96 0
v 0 -128 0
v -16 -128 0
v -16 -112 0
v 0 -112 0
v -16 -128 0
v -32 -128 0
v -32 -112 0
v -16 -112 0
v -32 -128 0
v -48 -128 0
v -48 -112 0
v -32 -112 0
v -48 -128 0
v -64 -128 0
v -64 -112 0
v -48 -112 0
v -64 -128 0
v -80 -128 0
v -80 -112 0
v -64 -112 0
v -80 -128 0
v -96 -128 0
v -96 -112 0
v -80 -112 0
v -96 -128 0
v -112 -128 0
v -112 -112 0
v -96 -112 0
v -112 -128 0
v -128 -128 0
v -128 -112 0
v -112 -112 0
v -128 -128 0
v -144 -128 0
v -144 -112 0
v -128 -112 0
v -144 -128 0
v -160 -128 0
v -160 -112 0
v -144 -112 0
v -160 -128 0
v -176 -128 0
v -176 -112 0
v -160 -112 0
v -176 -128 0
v -192 -128 0
v -192 -112 0
v -176 -112 0
v -192 -128 0
v -208 -128 0
v -208 -112 0
v -192 -112 0
v -208 -128 0
v -224 -128 0
v -224 -112 0
v -208 -112 0
v -224 -128 0
v -240 -128 0
v -240 -112 0
v -224 -112 0
v -240 -128 0
v -256 -128 0
v -256 -112 0
v -240 -112 0
v 0 -144 0
v -16 -144 0
v -16 -128 0
v 0 -128 0
v -16 -144 0
v -32 -144 0
v -32 -128 0
v -16 -128 0
v -32 -144 0
v -48 -144 0
v -48 -128 0
v -32 -128 0
v -48 -144 0
v -64 -144 0
v -64 -128 0
v -48 -128 0
v -64 -144 0
v -80 -144 0
v -80 -128 0
v -64 -128 0
v -80 -144 0
v -96 -144 0
v -96 -128 0
v -80 -128 0
v -96 -144 0
v -112 -144 0
v -112 -128 0
v -96 -128 0
v -112 -144 0
v -128 -144 0
v -128 -128 0
v -112 -128 0
v -128 -144 0
v -144 -144 0
v -144 -128 0
v -128 -128 0
v -144 -144 0
v -160 -144 0
v -160 -128 0
v -144 -128 0
v -160 -144 0
v -176 -144 0
v -176 -128 0
v -160 -128 0
v -176 -144 0
v -192 -144 0
v -192 -128 0
v -176 -128 0
v -192 -144 0
v -208 -144 0
v -208 -128 0
v -192 -128 0
v -208 -144 0
v -224 -144 0
v -224 -128 0
v -208 -128 0
v -224 -144 0
v -240 -144 0
v -240 -128 0
v -224 -128 0
v -240 -144 0
v -256 -144 0
v -256 -128 0
v -240 -128 0
v 0 -160 0
v -16 -160 0
v -16 -144 0
v 0 -144 0
v -16 -160 0
v -32 -160 0
v -32 -144 0
v -16 -144 0
v -32 -160 0
v -48 -160 0
v -48 -144 0
v -32 -144 0
v -48 -160 0
v -64 -160 0
v -64 -144 0
v -48 -144 0
v -64 -160 0
v -80 -160 0
v -80 -144 0
v -64 -144 0
v -80 -160 0
v -96 -160 0
v -96 -144 0
v -80 -144 0
v -96 -160 0
v -112 -160 0
v -112 -144 0
v -96 -144 0
v -112 -160 0
v -128 -160 0
v -128 -144 0
v -112 -144 0
v -128 -160 0
v -144 -160 0
v -144 -144 0
v -128 -144 0
v -144 -160 0
v -160 -160 0
v -160 -144 0
v -144 -144 0
v -160 -160 0
v -176 -160 0
v -176 -144 0
v -160 -144 0
v -176 -160 0
v -192 -160 0
v -192 -144 0
v -176 -144 0
v -192 -160 0
v -208 -160 0
v -208 -144 0
v -192 -144 0
v -208 -160 0
v -224 -160 0
v -224 -144 0
v -208 -144 0
v -224 -160 0
v -240 -160 0
v -240 -144 0
v -224 -144 0
v -240 -160 0
v -256 -160 0
v -256 -144 0
v -240 -144 0
v 0 -176 0
v -16 -176 0
v -16 -160 0
v 0 -160 0
v -16 -176 0
v -32 -176 0
v -32 -160 0
v -16 -160 0
v -32 -176 0
v -48 -176 0
v -48 -160 0
v -32 -160 0
v -48 -176 0
v -64 -176 0
v -64 -160 0
v -48 -160 0
v -64 -176 0
v -80 -176 0
v -80 -160 0
v -64 -160 0
v -80 -176 0
v -96 -176 0
v -96 -160 0
v -80 -160 0
v -96 -176 0
v -112 -176 0
v -112 -160 0
v -96 -160 0
v -112 -176 0
v -128 -176 0
v -128 -160 0
v -112 -160 0
v -128 -176 0
v -144 -176 0
v -144 -160 0
v -128 -160 0
v -144 -176 0
v -160 -176 0
v -160 -160 0
v -144 -160 0
v -160 -176 0
v -176 -176 0
v -176 -160 0
v -160 -160 0
v -176 -176 0
v -192 -176 0
v -192 -160 0
v -176 -160 0
v -192 -176 0
v -208 -176 0
v -208 -160 0
v -192 -160 0
v -208 -176 0
v -224 -176 0
v -224 -160 0
v -208 -160 0
v -224 -176 0
v -240 -176 0
v -240 -160 0
v -224 -160 0
v -240 -176 0
v -256 -176 0
v -256 -160 0
v -240 -160 0
v 0 -192 0
v -16 -192 0
v -16 -176 0
v 0 -176 0
v -16 -192 0
v -32 -192 0
v -32 -176 0
v -16 -176 0
v -32 -192 0
v -48 -192 0
v -48 -176 0
v -32 -176 0
v -48 -192 0
v -64 -192 0
v -64 -176 0
v -48 -176 0
v -64 -192 0
v -80 -192 0
v -80 -176 0
v -64 -176 0
v -80 -192 0
v -96 -192 0
v -96 -176 0
v -80 -176 0
v -96 -192 0
v -112 -192 0
v -112 -176 0
v -96 -176 0
v -112 -192 0
v -128 -192 0
v -128 -176 0
v -112 -176 0
v -128 -192 0
v -144 -192 0
v -144 -176 0
v -128 -176 0
v -144 -192 0
v -160 -192 0
v -160 -176 0
v -144 -176 0
v -160 -192 0
v -176 -192 0
v -176 -176 0
v -160 -176 0
v -176 -192 0
v -192 -192 0
v -192 -176 0
v -176 -176 0
v -192 -192 0
v -208 -192 0
v -208 -176 0
v -192 -176 0
v -208 -192 0
v -224 -192 0
v -224 -176 0
v -208 -176 0
v -224 -192 0
v -240 -192 0
v -240 -176 0
v -224 -176 0
v -240 -192 0
v -256 -192 0
v -256 -176 0
v -240 -176 0
v 0 -208 0
v -16 -208 0
v -16 -192 0
v 0 -192 0
v -16 -208 0
v -32 -208 0
v -32 -192 0
v -16 -192 0
v -32 -208 0
v -48 -208 0
v -48 -192 0
v -32 -192 0
v -48 -208 0
v -64 -208 0
v -64 -192 0
v -48 -192 0
v -64 -208 0
v -80 -208 0
v -80 -192 0
v -64 -192 0
v -80 -208 0
v -96 -208 0
v -96 -192 0
v -80 -192 0
v -96 -208 0
v -112 -208 0
v -112 -192 0
v -96 -192 0
v -112 -208 0
v -128 -208 0
v -128 -192 0
v -112 -192 0
v -128 -208 0
v -144 -208 0
v -144 -192 0
v -128 -192 0
v -144 -208 0
v -160 -208 0
v -160 -192 0
v -144 -192 0
v -160 -208 0
v -176 -208 0
v -176 -192 0
v -160 -192 0
v -176 -208 0
v -192 -208 0
v -192 -192 0
v -176 -192 0
v -192 -208 0
v -208 -208 0
v -208 -192 0
v -192 -192 0
v -208 -208 0
v -224 -208 0
v -224 -192 0
v -208 -192 0
v -224 -208 0
v -240 -208 0
v -240 -192 0
v -224 -192 0
v -240 -208 0
v -256 -208 0
v -256 -192 0
v -240 -192 0
v 0 -224 0
v -16 -224 0
v -16 -208 0
v 0 -208 0
v -16 -224 0
v -32 -224 0
v -32 -208 0
v -16 -208 0
v -32 -224 0
v -48 -224 0
v -48 -208 0
v -32 -208 0
v -48 -224 0
v -64 -224 0
v -64 -208 0
v -48 -208 0
v -64 -224 0
v -80 -224 0
v -80 -208 0
v -64 -208 0
v -80 -224 0
v -96 -224 0
v -96 -208 0
v -80 -208 0
v -96 -224 0
v -112 -224 0
v -112 -208 0
v -96 -208 0
v -112 -224 0
v -128 -224 0
v -128 -208 0
v -112 -208 0
v -128 -224 0
v -144 -224 0
v -144 -208 0
v -128 -208 0
v -144 -224 0
v -160 -224 0
v -160 -208 0
v -144 -208 0
v -160 -224 0
v -176 -224 0
v -176 -208 0
v -160 -208 0
v -176 -224 0
v -192 -224 0
v -192 -208 0
v -176 -208 0
v -192 -224 0
v -208 -224 0
v -208 -208 0
v -192 -208 0
v -208 -224 0
v -224 -224 0
v -224 -208 0
v -208 -208 0
v -224 -224 0
v -240 -224 0
v -240 -208 0
v -224 -208 0
v -240 -224 0
v -256 -224 0
v -256 -208 0
v -240 -208 0
v 0 -240 0
v -16 -240 0
v -16 -224 0
v 0 -224 0
v -16 -240 0
v -32 -240 0
v -32 -224 0
v -16 -224 0
v -32 -240 0
v -48 -240 0
v -48 -224 0
v -32 -224 0
v -48 -240 0
v -64 -240 0
v -64 -224 0
v -48 -224 0
v -64 -240 0
v -80 -240 0
v -80 -224 0
v -64 -224 0
v -80 -240 0
v -96 -240 0
v -96 -224 0
v -80 -224 0
v -96 -240 0
v -112 -240 0
v -112 -224 0
v -96 -224 0
v -112 -240 0
v -128 -240 0
v -128 -224 0
v -112 -224 0
v -128 -240 0
v -144 -240 0
v -144 -224 0
v -128 -224 0
v -144 -240 0
v -160 -240 0
v -160 -224 0
v -144 -224 0
v -160 -240 0
v -176 -240 0
v -176 -224 0
v -160 -224 0
v -176 -240 0
v -192 -240 0
v -192 -224 0
v -176 -224 0
v -192 -240 0
v -208 -240 0
v -208 -224 0
v -192 -224 0
v -208 -240 0
v -224 -240 0
v -224 -224 0
v -208 -224 0
v -224 -240 0
v -240 -240 0
v -240 -224 0
v -224 -224 0
v -240 -240 0
v -256 -240 0
v -256 -224 0
v -240 -224 0
v 0 -256 0
v -16 -256 0
v -16 -240 0
v 0 -240 0
v -16 -256 0
v -32 -256 0
v -32 -240 0
v -16 -240 0
v -32 -256 0
v -48 -256 0
v -48 -240 0
v -32 -240 0
v -48 -256 0
v -64 -256 0
v -64 -240 0
v -48 -240 0
v -64 -256 0
v -80 -256 0
v -80 -240 0
v -64 -240 0
v -80 -256 0
v -96 -256 0
v -96 -240 0
v -80 -240 0
v -96 -256 0
v -112 -256 0
v -112 -240 0
v -96 -240 0
v -112 -256 0
v -128 -256 0
v -128 -240 0
v -112 -240 0
v -128 -256 0
v -144 -256 0
v -144 -240 0
v -128 -240 0
v -144 -256 0
v -160 -256 0
v -160 -240 0
v -144 -240 0
v -160 -256 0
v -176 -256 0
v -176 -240 0
v -160 -240 0
v -176 -256 0
v -192 -256 0
v -192 -240 0
v -176 -240 0
v -192 -256 0
v -208 -256 0
v -208 -240 0
v -192 -240 0
v -208 -256 0
v -224 -256 0
v -224 -240 0
v -208 -240 0
v -224 -256 0
v -240 -256 0
v -240 -240 0
v -224 -240 0
v -240 -256 0
v -256 -256 0
v -256 -240 0
v -240 -240 0

# Texture cooridinates (Count = 49)
vt 0.015625 0.390625
vt 0.01953125 0.390625
vt 0.01953125 0.40625
vt 0.015625 0.40625
vt 0.01171875 0.390625
vt 0.01171875 0.40625
vt 0.01171875 0.4375
vt 0.015625 0.4375
vt 0.015625 0.453125
vt 0.01171875 0.453125
vt 0.0078125 0.453125
vt 0.01171875 0.46875
vt 0.0078125 0.46875
vt 0.01953125 0.421875
vt 0.015625 0.421875
vt 0.0234375 0.390625
vt 0.02734375 0.390625
vt 0.02734375 0.40625
vt 0.0234375 0.40625
vt 0.0234375 0.421875
vt 0.0078125 0.40625
vt 0.01171875 0.421875
vt 0.0078125 0.421875
vt 0.0234375 0.4375
vt 0.01953125 0.4375
vt 0.02734375 0.421875
vt 0.02734375 0.4375
vt 0.0234375 0.46875
vt 0.02734375 0.46875
vt 0.02734375 0.484375
vt 0.0234375 0.484375
vt 0.03125 0.421875
vt 0.03125 0.4375
vt 0.01953125 0.453125
vt 0.0234375 0.453125
vt 0.01953125 0.46875
vt 0.02734375 0.453125
vt 0.03125 0.40625
vt 0.015625 0.46875
vt 0.015625 0.484375
vt 0.01171875 0.484375
vt 0.03125 0.390625
vt 0.03125 0.453125
vt 0.03125 0.46875
vt 0.01953125 0.484375
vt 0.0078125 0.390625
vt 0.0078125 0.4375
vt 0.03125 0.484375
vt 0.0078125 0.484375

# Normal
vn 0 0 -1

# Mesh description
g TitleIntro_mesh_0024

# Faces
f 1/1/1 2/2/1 3/3/1 4/4/1
f 5/5/1 6/1/1 7/4/1 8/6/1
f 9/7/1 10/8/1 11/9/1 12/10/1
f 13/11/1 14/10/1 15/12/1 16/13/1
f 17/4/1 18/3/1 19/14/1 20/15/1
f 21/4/1 22/3/1 23/14/1 24/15/1
f 25/16/1 26/17/1 27/18/1 28/19/1
f 29/4/1 30/3/1 31/14/1 32/15/1
f 33/3/1 34/19/1 35/20/1 36/14/1
f 37/21/1 38/6/1 39/22/1 40/23/1
f 41/14/1 42/20/1 43/24/1 44/25/1
f 45/3/1 46/19/1 47/20/1 48/14/1
f 49/20/1 50/26/1 51/27/1 52/24/1
f 53/28/1 54/29/1 55/30/1 56/31/1
f 57/3/1 58/19/1 59/20/1 60/14/1
f 61/26/1 62/32/1 63/33/1 64/27/1
f 65/34/1 66/35/1 67/28/1 68/36/1
f 69/19/1 70/18/1 71/26/1 72/20/1
f 73/4/1 74/3/1 75/14/1 76/15/1
f 77/24/1 78/27/1 79/37/1 80/35/1
f 81/18/1 82/38/1 83/32/1 84/26/1
f 85/12/1 86/39/1 87/40/1 88/41/1
f 89/25/1 90/24/1 91/35/1 92/34/1
f 93/3/1 94/19/1 95/20/1 96/14/1
f 97/4/1 98/3/1 99/14/1 100/15/1
f 101/24/1 102/27/1 103/37/1 104/35/1
f 105/17/1 106/42/1 107/38/1 108/18/1
f 109/19/1 110/18/1 111/26/1 112/20/1
f 113/37/1 114/43/1 115/44/1 116/29/1
f 117/4/1 118/3/1 119/14/1 120/15/1
f 121/2/1 122/16/1 123/19/1 124/3/1
f 125/12/1 126/39/1 127/40/1 128/41/1
f 129/15/1 130/14/1 131/25/1 132/8/1
f 133/24/1 134/27/1 135/37/1 136/35/1
f 137/25/1 138/24/1 139/35/1 140/34/1
f 141/39/1 142/36/1 143/45/1 144/40/1
f 145/39/1 146/36/1 147/45/1 148/40/1
f 149/24/1 150/27/1 151/37/1 152/35/1
f 153/4/1 154/3/1 155/14/1 156/15/1
f 157/25/1 158/24/1 159/35/1 160/34/1
f 161/8/1 162/25/1 163/34/1 164/9/1
f 165/12/1 166/39/1 167/40/1 168/41/1
f 169/25/1 170/24/1 171/35/1 172/34/1
f 173/25/1 174/24/1 175/35/1 176/34/1
f 177/34/1 178/35/1 179/28/1 180/36/1
f 181/46/1 182/5/1 183/6/1 184/21/1
f 185/16/1 186/17/1 187/18/1 188/19/1
f 189/7/1 190/8/1 191/9/1 192/10/1
f 193/21/1 194/6/1 195/22/1 196/23/1
f 197/46/1 198/5/1 199/6/1 200/21/1
f 201/7/1 202/8/1 203/9/1 204/10/1
f 205/39/1 206/36/1 207/45/1 208/40/1
f 209/11/1 210/10/1 211/12/1 212/13/1
f 213/15/1 214/14/1 215/25/1 216/8/1
f 217/26/1 218/32/1 219/33/1 220/27/1
f 221/34/1 222/35/1 223/28/1 224/36/1
f 225/14/1 226/20/1 227/24/1 228/25/1
f 229/35/1 230/37/1 231/29/1 232/28/1
f 233/7/1 234/8/1 235/9/1 236/10/1
f 237/19/1 238/18/1 239/26/1 240/20/1
f 241/36/1 242/28/1 243/31/1 244/45/1
f 245/1/1 246/2/1 247/3/1 248/4/1
f 249/12/1 250/39/1 251/40/1 252/41/1
f 253/3/1 254/19/1 255/20/1 256/14/1
f 257/8/1 258/25/1 259/34/1 260/9/1
f 261/36/1 262/28/1 263/31/1 264/45/1
f 265/14/1 266/20/1 267/24/1 268/25/1
f 269/11/1 270/10/1 271/12/1 272/13/1
f 273/22/1 274/15/1 275/8/1 276/7/1
f 277/7/1 278/8/1 279/9/1 280/10/1
f 281/6/1 282/4/1 283/15/1 284/22/1
f 285/1/1 286/2/1 287/3/1 288/4/1
f 289/6/1 290/4/1 291/15/1 292/22/1
f 293/10/1 294/9/1 295/39/1 296/12/1
f 297/27/1 298/33/1 299/43/1 300/37/1
f 301/2/1 302/16/1 303/19/1 304/3/1
f 305/39/1 306/36/1 307/45/1 308/40/1
f 309/25/1 310/24/1 311/35/1 312/34/1
f 313/36/1 314/28/1 315/31/1 316/45/1
f 317/39/1 318/36/1 319/45/1 320/40/1
f 321/46/1 322/5/1 323/6/1 324/21/1
f 325/25/1 326/24/1 327/35/1 328/34/1
f 329/5/1 330/1/1 331/4/1 332/6/1
f 333/11/1 334/10/1 335/12/1 336/13/1
f 337/36/1 338/28/1 339/31/1 340/45/1
f 341/37/1 342/43/1 343/44/1 344/29/1
f 345/28/1 346/29/1 347/30/1 348/31/1
f 349/14/1 350/20/1 351/24/1 352/25/1
f 353/20/1 354/26/1 355/27/1 356/24/1
f 357/12/1 358/39/1 359/40/1 360/41/1
f 361/1/1 362/2/1 363/3/1 364/4/1
f 365/14/1 366/20/1 367/24/1 368/25/1
f 369/16/1 370/17/1 371/18/1 372/19/1
f 373/46/1 374/5/1 375/6/1 376/21/1
f 377/6/1 378/4/1 379/15/1 380/22/1
f 381/18/1 382/38/1 383/32/1 384/26/1
f 385/4/1 386/3/1 387/14/1 388/15/1
f 389/35/1 390/37/1 391/29/1 392/28/1
f 393/25/1 394/24/1 395/35/1 396/34/1
f 397/18/1 398/38/1 399/32/1 400/26/1
f 401/9/1 402/34/1 403/36/1 404/39/1
f 405/12/1 406/39/1 407/40/1 408/41/1
f 409/6/1 410/4/1 411/15/1 412/22/1
f 413/7/1 414/8/1 415/9/1 416/10/1
f 417/5/1 418/1/1 419/4/1 420/6/1
f 421/24/1 422/27/1 423/37/1 424/35/1
f 425/6/1 426/4/1 427/15/1 428/22/1
f 429/47/1 430/7/1 431/10/1 432/11/1
f 433/27/1 434/33/1 435/43/1 436/37/1
f 437/6/1 438/4/1 439/15/1 440/22/1
f 441/29/1 442/44/1 443/48/1 444/30/1
f 445/29/1 446/44/1 447/48/1 448/30/1
f 449/34/1 450/35/1 451/28/1 452/36/1
f 453/1/1 454/2/1 455/3/1 456/4/1
f 457/19/1 458/18/1 459/26/1 460/20/1
f 461/25/1 462/24/1 463/35/1 464/34/1
f 465/37/1 466/43/1 467/44/1 468/29/1
f 469/24/1 470/27/1 471/37/1 472/35/1
f 473/25/1 474/24/1 475/35/1 476/34/1
f 477/5/1 478/1/1 479/4/1 480/6/1
f 481/11/1 482/10/1 483/12/1 484/13/1
f 485/11/1 486/10/1 487/12/1 488/13/1
f 489/17/1 490/42/1 491/38/1 492/18/1
f 493/46/1 494/5/1 495/6/1 496/21/1
f 497/24/1 498/27/1 499/37/1 500/35/1
f 501/4/1 502/3/1 503/14/1 504/15/1
f 505/13/1 506/12/1 507/41/1 508/49/1
f 509/14/1 510/20/1 511/24/1 512/25/1
f 513/2/1 514/16/1 515/19/1 516/3/1
f 517/18/1 518/38/1 519/32/1 520/26/1
f 521/8/1 522/25/1 523/34/1 524/9/1
f 525/10/1 526/9/1 527/39/1 528/12/1
f 529/47/1 530/7/1 531/10/1 532/11/1
f 533/25/1 534/24/1 535/35/1 536/34/1
f 537/20/1 538/26/1 539/27/1 540/24/1
f 541/35/1 542/37/1 543/29/1 544/28/1
f 545/7/1 546/8/1 547/9/1 548/10/1
f 549/5/1 550/1/1 551/4/1 552/6/1
f 553/39/1 554/36/1 555/45/1 556/40/1
f 557/7/1 558/8/1 559/9/1 560/10/1
f 561/16/1 562/17/1 563/18/1 564/19/1
f 565/34/1 566/35/1 567/28/1 568/36/1
f 569/37/1 570/43/1 571/44/1 572/29/1
f 573/28/1 574/29/1 575/30/1 576/31/1
f 577/26/1 578/32/1 579/33/1 580/27/1
f 581/11/1 582/10/1 583/12/1 584/13/1
f 585/1/1 586/2/1 587/3/1 588/4/1
f 589/12/1 590/39/1 591/40/1 592/41/1
f 593/47/1 594/7/1 595/10/1 596/11/1
f 597/1/1 598/2/1 599/3/1 600/4/1
f 601/18/1 602/38/1 603/32/1 604/26/1
f 605/18/1 606/38/1 607/32/1 608/26/1
f 609/11/1 610/10/1 611/12/1 612/13/1
f 613/46/1 614/5/1 615/6/1 616/21/1
f 617/9/1 618/34/1 619/36/1 620/39/1
f 621/29/1 622/44/1 623/48/1 624/30/1
f 625/4/1 626/3/1 627/14/1 628/15/1
f 629/36/1 630/28/1 631/31/1 632/45/1
f 633/16/1 634/17/1 635/18/1 636/19/1
f 637/16/1 638/17/1 639/18/1 640/19/1
f 641/9/1 642/34/1 643/36/1 644/39/1
f 645/20/1 646/26/1 647/27/1 648/24/1
f 649/10/1 650/9/1 651/39/1 652/12/1
f 653/3/1 654/19/1 655/20/1 656/14/1
f 657/20/1 658/26/1 659/27/1 660/24/1
f 661/29/1 662/44/1 663/48/1 664/30/1
f 665/46/1 666/5/1 667/6/1 668/21/1
f 669/6/1 670/4/1 671/15/1 672/22/1
f 673/9/1 674/34/1 675/36/1 676/39/1
f 677/1/1 678/2/1 679/3/1 680/4/1
f 681/8/1 682/25/1 683/34/1 684/9/1
f 685/14/1 686/20/1 687/24/1 688/25/1
f 689/39/1 690/36/1 691/45/1 692/40/1
f 693/34/1 694/35/1 695/28/1 696/36/1
f 697/21/1 698/6/1 699/22/1 700/23/1
f 701/7/1 702/8/1 703/9/1 704/10/1
f 705/12/1 706/39/1 707/40/1 708/41/1
f 709/47/1 710/7/1 711/10/1 712/11/1
f 713/21/1 714/6/1 715/22/1 716/23/1
f 717/47/1 718/7/1 719/10/1 720/11/1
f 721/12/1 722/39/1 723/40/1 724/41/1
f 725/18/1 726/38/1 727/32/1 728/26/1
f 729/35/1 730/37/1 731/29/1 732/28/1
f 733/29/1 734/44/1 735/48/1 736/30/1
f 737/21/1 738/6/1 739/22/1 740/23/1
f 741/23/1 742/22/1 743/7/1 744/47/1
f 745/16/1 746/17/1 747/18/1 748/19/1
f 749/25/1 750/24/1 751/35/1 752/34/1
f 753/14/1 754/20/1 755/24/1 756/25/1
f 757/15/1 758/14/1 759/25/1 760/8/1
f 761/29/1 762/44/1 763/48/1 764/30/1
f 765/26/1 766/32/1 767/33/1 768/27/1
f 769/37/1 770/43/1 771/44/1 772/29/1
f 773/34/1 774/35/1 775/28/1 776/36/1
f 777/4/1 778/3/1 779/14/1 780/15/1
f 781/17/1 782/42/1 783/38/1 784/18/1
f 785/34/1 786/35/1 787/28/1 788/36/1
f 789/26/1 790/32/1 791/33/1 792/27/1
f 793/18/1 794/38/1 795/32/1 796/26/1
f 797/5/1 798/1/1 799/4/1 800/6/1
f 801/27/1 802/33/1 803/43/1 804/37/1
f 805/17/1 806/42/1 807/38/1 808/18/1
f 809/17/1 810/42/1 811/38/1 812/18/1
f 813/7/1 814/8/1 815/9/1 816/10/1
f 817/3/1 818/19/1 819/20/1 820/14/1
f 821/9/1 822/34/1 823/36/1 824/39/1
f 825/18/1 826/38/1 827/32/1 828/26/1
f 829/6/1 830/4/1 831/15/1 832/22/1
f 833/35/1 834/37/1 835/29/1 836/28/1
f 837/13/1 838/12/1 839/41/1 840/49/1
f 841/28/1 842/29/1 843/30/1 844/31/1
f 845/10/1 846/9/1 847/39/1 848/12/1
f 849/9/1 850/34/1 851/36/1 852/39/1
f 853/35/1 854/37/1 855/29/1 856/28/1
f 857/13/1 858/12/1 859/41/1 860/49/1
f 861/16/1 862/17/1 863/18/1 864/19/1
f 865/18/1 866/38/1 867/32/1 868/26/1
f 869/4/1 870/3/1 871/14/1 872/15/1
f 873/39/1 874/36/1 875/45/1 876/40/1
f 877/6/1 878/4/1 879/15/1 880/22/1
f 881/26/1 882/32/1 883/33/1 884/27/1
f 885/2/1 886/16/1 887/19/1 888/3/1
f 889/22/1 890/15/1 891/8/1 892/7/1
f 893/21/1 894/6/1 895/22/1 896/23/1
f 897/22/1 898/15/1 899/8/1 900/7/1
f 901/24/1 902/27/1 903/37/1 904/35/1
f 905/28/1 906/29/1 907/30/1 908/31/1
f 909/8/1 910/25/1 911/34/1 912/9/1
f 913/34/1 914/35/1 915/28/1 916/36/1
f 917/21/1 918/6/1 919/22/1 920/23/1
f 921/5/1 922/1/1 923/4/1 924/6/1
f 925/11/1 926/10/1 927/12/1 928/13/1
f 929/14/1 930/20/1 931/24/1 932/25/1
f 933/5/1 934/1/1 935/4/1 936/6/1
f 937/35/1 938/37/1 939/29/1 940/28/1
f 941/2/1 942/16/1 943/19/1 944/3/1
f 945/17/1 946/42/1 947/38/1 948/18/1
f 949/22/1 950/15/1 951/8/1 952/7/1
f 953/27/1 954/33/1 955/43/1 956/37/1
f 957/11/1 958/10/1 959/12/1 960/13/1
f 961/20/1 962/26/1 963/27/1 964/24/1
f 965/17/1 966/42/1 967/38/1 968/18/1
f 969/39/1 970/36/1 971/45/1 972/40/1
f 973/39/1 974/36/1 975/45/1 976/40/1
f 977/9/1 978/34/1 979/36/1 980/39/1
f 981/24/1 982/27/1 983/37/1 984/35/1
f 985/26/1 986/32/1 987/33/1 988/27/1
f 989/46/1 990/5/1 991/6/1 992/21/1
f 993/28/1 994/29/1 995/30/1 996/31/1
f 997/15/1 998/14/1 999/25/1 1000/8/1
f 1001/6/1 1002/4/1 1003/15/1 1004/22/1
f 1005/8/1 1006/25/1 1007/34/1 1008/9/1
f 1009/17/1 1010/42/1 1011/38/1 1012/18/1
f 1013/29/1 1014/44/1 1015/48/1 1016/30/1
f 1017/39/1 1018/36/1 1019/45/1 1020/40/1
f 1021/7/1 1022/8/1 1023/9/1 1024/10/1

