# Tiled2Unity generated file. Do not modify by hand.
# Wavefront file for 'TitleIntro_mesh_0079.obj'

# Vertices (Count = 1024)
v 0 -16 0
v -16 -16 0
v -16 0 0
v 0 0 0
v -16 -16 0
v -32 -16 0
v -32 0 0
v -16 0 0
v -32 -16 0
v -48 -16 0
v -48 0 0
v -32 0 0
v -48 -16 0
v -64 -16 0
v -64 0 0
v -48 0 0
v -64 -16 0
v -80 -16 0
v -80 0 0
v -64 0 0
v -80 -16 0
v -96 -16 0
v -96 0 0
v -80 0 0
v -96 -16 0
v -112 -16 0
v -112 0 0
v -96 0 0
v -112 -16 0
v -128 -16 0
v -128 0 0
v -112 0 0
v -128 -16 0
v -144 -16 0
v -144 0 0
v -128 0 0
v -144 -16 0
v -160 -16 0
v -160 0 0
v -144 0 0
v -160 -16 0
v -176 -16 0
v -176 0 0
v -160 0 0
v -176 -16 0
v -192 -16 0
v -192 0 0
v -176 0 0
v -192 -16 0
v -208 -16 0
v -208 0 0
v -192 0 0
v -208 -16 0
v -224 -16 0
v -224 0 0
v -208 0 0
v -224 -16 0
v -240 -16 0
v -240 0 0
v -224 0 0
v -240 -16 0
v -256 -16 0
v -256 0 0
v -240 0 0
v 0 -32 0
v -16 -32 0
v -16 -16 0
v 0 -16 0
v -16 -32 0
v -32 -32 0
v -32 -16 0
v -16 -16 0
v -32 -32 0
v -48 -32 0
v -48 -16 0
v -32 -16 0
v -48 -32 0
v -64 -32 0
v -64 -16 0
v -48 -16 0
v -64 -32 0
v -80 -32 0
v -80 -16 0
v -64 -16 0
v -80 -32 0
v -96 -32 0
v -96 -16 0
v -80 -16 0
v -96 -32 0
v -112 -32 0
v -112 -16 0
v -96 -16 0
v -112 -32 0
v -128 -32 0
v -128 -16 0
v -112 -16 0
v -128 -32 0
v -144 -32 0
v -144 -16 0
v -128 -16 0
v -144 -32 0
v -160 -32 0
v -160 -16 0
v -144 -16 0
v -160 -32 0
v -176 -32 0
v -176 -16 0
v -160 -16 0
v -176 -32 0
v -192 -32 0
v -192 -16 0
v -176 -16 0
v -192 -32 0
v -208 -32 0
v -208 -16 0
v -192 -16 0
v -208 -32 0
v -224 -32 0
v -224 -16 0
v -208 -16 0
v -224 -32 0
v -240 -32 0
v -240 -16 0
v -224 -16 0
v -240 -32 0
v -256 -32 0
v -256 -16 0
v -240 -16 0
v 0 -48 0
v -16 -48 0
v -16 -32 0
v 0 -32 0
v -16 -48 0
v -32 -48 0
v -32 -32 0
v -16 -32 0
v -32 -48 0
v -48 -48 0
v -48 -32 0
v -32 -32 0
v -48 -48 0
v -64 -48 0
v -64 -32 0
v -48 -32 0
v -64 -48 0
v -80 -48 0
v -80 -32 0
v -64 -32 0
v -80 -48 0
v -96 -48 0
v -96 -32 0
v -80 -32 0
v -96 -48 0
v -112 -48 0
v -112 -32 0
v -96 -32 0
v -112 -48 0
v -128 -48 0
v -128 -32 0
v -112 -32 0
v -128 -48 0
v -144 -48 0
v -144 -32 0
v -128 -32 0
v -144 -48 0
v -160 -48 0
v -160 -32 0
v -144 -32 0
v -160 -48 0
v -176 -48 0
v -176 -32 0
v -160 -32 0
v -176 -48 0
v -192 -48 0
v -192 -32 0
v -176 -32 0
v -192 -48 0
v -208 -48 0
v -208 -32 0
v -192 -32 0
v -208 -48 0
v -224 -48 0
v -224 -32 0
v -208 -32 0
v -224 -48 0
v -240 -48 0
v -240 -32 0
v -224 -32 0
v -240 -48 0
v -256 -48 0
v -256 -32 0
v -240 -32 0
v 0 -64 0
v -16 -64 0
v -16 -48 0
v 0 -48 0
v -16 -64 0
v -32 -64 0
v -32 -48 0
v -16 -48 0
v -32 -64 0
v -48 -64 0
v -48 -48 0
v -32 -48 0
v -48 -64 0
v -64 -64 0
v -64 -48 0
v -48 -48 0
v -64 -64 0
v -80 -64 0
v -80 -48 0
v -64 -48 0
v -80 -64 0
v -96 -64 0
v -96 -48 0
v -80 -48 0
v -96 -64 0
v -112 -64 0
v -112 -48 0
v -96 -48 0
v -112 -64 0
v -128 -64 0
v -128 -48 0
v -112 -48 0
v -128 -64 0
v -144 -64 0
v -144 -48 0
v -128 -48 0
v -144 -64 0
v -160 -64 0
v -160 -48 0
v -144 -48 0
v -160 -64 0
v -176 -64 0
v -176 -48 0
v -160 -48 0
v -176 -64 0
v -192 -64 0
v -192 -48 0
v -176 -48 0
v -192 -64 0
v -208 -64 0
v -208 -48 0
v -192 -48 0
v -208 -64 0
v -224 -64 0
v -224 -48 0
v -208 -48 0
v -224 -64 0
v -240 -64 0
v -240 -48 0
v -224 -48 0
v -240 -64 0
v -256 -64 0
v -256 -48 0
v -240 -48 0
v 0 -80 0
v -16 -80 0
v -16 -64 0
v 0 -64 0
v -16 -80 0
v -32 -80 0
v -32 -64 0
v -16 -64 0
v -32 -80 0
v -48 -80 0
v -48 -64 0
v -32 -64 0
v -48 -80 0
v -64 -80 0
v -64 -64 0
v -48 -64 0
v -64 -80 0
v -80 -80 0
v -80 -64 0
v -64 -64 0
v -80 -80 0
v -96 -80 0
v -96 -64 0
v -80 -64 0
v -96 -80 0
v -112 -80 0
v -112 -64 0
v -96 -64 0
v -112 -80 0
v -128 -80 0
v -128 -64 0
v -112 -64 0
v -128 -80 0
v -144 -80 0
v -144 -64 0
v -128 -64 0
v -144 -80 0
v -160 -80 0
v -160 -64 0
v -144 -64 0
v -160 -80 0
v -176 -80 0
v -176 -64 0
v -160 -64 0
v -176 -80 0
v -192 -80 0
v -192 -64 0
v -176 -64 0
v -192 -80 0
v -208 -80 0
v -208 -64 0
v -192 -64 0
v -208 -80 0
v -224 -80 0
v -224 -64 0
v -208 -64 0
v -224 -80 0
v -240 -80 0
v -240 -64 0
v -224 -64 0
v -240 -80 0
v -256 -80 0
v -256 -64 0
v -240 -64 0
v 0 -96 0
v -16 -96 0
v -16 -80 0
v 0 -80 0
v -16 -96 0
v -32 -96 0
v -32 -80 0
v -16 -80 0
v -32 -96 0
v -48 -96 0
v -48 -80 0
v -32 -80 0
v -48 -96 0
v -64 -96 0
v -64 -80 0
v -48 -80 0
v -64 -96 0
v -80 -96 0
v -80 -80 0
v -64 -80 0
v -80 -96 0
v -96 -96 0
v -96 -80 0
v -80 -80 0
v -96 -96 0
v -112 -96 0
v -112 -80 0
v -96 -80 0
v -112 -96 0
v -128 -96 0
v -128 -80 0
v -112 -80 0
v -128 -96 0
v -144 -96 0
v -144 -80 0
v -128 -80 0
v -144 -96 0
v -160 -96 0
v -160 -80 0
v -144 -80 0
v -160 -96 0
v -176 -96 0
v -176 -80 0
v -160 -80 0
v -176 -96 0
v -192 -96 0
v -192 -80 0
v -176 -80 0
v -192 -96 0
v -208 -96 0
v -208 -80 0
v -192 -80 0
v -208 -96 0
v -224 -96 0
v -224 -80 0
v -208 -80 0
v -224 -96 0
v -240 -96 0
v -240 -80 0
v -224 -80 0
v -240 -96 0
v -256 -96 0
v -256 -80 0
v -240 -80 0
v 0 -112 0
v -16 -112 0
v -16 -96 0
v 0 -96 0
v -16 -112 0
v -32 -112 0
v -32 -96 0
v -16 -96 0
v -32 -112 0
v -48 -112 0
v -48 -96 0
v -32 -96 0
v -48 -112 0
v -64 -112 0
v -64 -96 0
v -48 -96 0
v -64 -112 0
v -80 -112 0
v -80 -96 0
v -64 -96 0
v -80 -112 0
v -96 -112 0
v -96 -96 0
v -80 -96 0
v -96 -112 0
v -112 -112 0
v -112 -96 0
v -96 -96 0
v -112 -112 0
v -128 -112 0
v -128 -96 0
v -112 -96 0
v -128 -112 0
v -144 -112 0
v -144 -96 0
v -128 -96 0
v -144 -112 0
v -160 -112 0
v -160 -96 0
v -144 -96 0
v -160 -112 0
v -176 -112 0
v -176 -96 0
v -160 -96 0
v -176 -112 0
v -192 -112 0
v -192 -96 0
v -176 -96 0
v -192 -112 0
v -208 -112 0
v -208 -96 0
v -192 -96 0
v -208 -112 0
v -224 -112 0
v -224 -96 0
v -208 -96 0
v -224 -112 0
v -240 -112 0
v -240 -96 0
v -224 -96 0
v -240 -112 0
v -256 -112 0
v -256 -96 0
v -240 -96 0
v 0 -128 0
v -16 -128 0
v -16 -112 0
v 0 -112 0
v -16 -128 0
v -32 -128 0
v -32 -112 0
v -16 -112 0
v -32 -128 0
v -48 -128 0
v -48 -112 0
v -32 -112 0
v -48 -128 0
v -64 -128 0
v -64 -112 0
v -48 -112 0
v -64 -128 0
v -80 -128 0
v -80 -112 0
v -64 -112 0
v -80 -128 0
v -96 -128 0
v -96 -112 0
v -80 -112 0
v -96 -128 0
v -112 -128 0
v -112 -112 0
v -96 -112 0
v -112 -128 0
v -128 -128 0
v -128 -112 0
v -112 -112 0
v -128 -128 0
v -144 -128 0
v -144 -112 0
v -128 -112 0
v -144 -128 0
v -160 -128 0
v -160 -112 0
v -144 -112 0
v -160 -128 0
v -176 -128 0
v -176 -112 0
v -160 -112 0
v -176 -128 0
v -192 -128 0
v -192 -112 0
v -176 -112 0
v -192 -128 0
v -208 -128 0
v -208 -112 0
v -192 -112 0
v -208 -128 0
v -224 -128 0
v -224 -112 0
v -208 -112 0
v -224 -128 0
v -240 -128 0
v -240 -112 0
v -224 -112 0
v -240 -128 0
v -256 -128 0
v -256 -112 0
v -240 -112 0
v 0 -144 0
v -16 -144 0
v -16 -128 0
v 0 -128 0
v -16 -144 0
v -32 -144 0
v -32 -128 0
v -16 -128 0
v -32 -144 0
v -48 -144 0
v -48 -128 0
v -32 -128 0
v -48 -144 0
v -64 -144 0
v -64 -128 0
v -48 -128 0
v -64 -144 0
v -80 -144 0
v -80 -128 0
v -64 -128 0
v -80 -144 0
v -96 -144 0
v -96 -128 0
v -80 -128 0
v -96 -144 0
v -112 -144 0
v -112 -128 0
v -96 -128 0
v -112 -144 0
v -128 -144 0
v -128 -128 0
v -112 -128 0
v -128 -144 0
v -144 -144 0
v -144 -128 0
v -128 -128 0
v -144 -144 0
v -160 -144 0
v -160 -128 0
v -144 -128 0
v -160 -144 0
v -176 -144 0
v -176 -128 0
v -160 -128 0
v -176 -144 0
v -192 -144 0
v -192 -128 0
v -176 -128 0
v -192 -144 0
v -208 -144 0
v -208 -128 0
v -192 -128 0
v -208 -144 0
v -224 -144 0
v -224 -128 0
v -208 -128 0
v -224 -144 0
v -240 -144 0
v -240 -128 0
v -224 -128 0
v -240 -144 0
v -256 -144 0
v -256 -128 0
v -240 -128 0
v 0 -160 0
v -16 -160 0
v -16 -144 0
v 0 -144 0
v -16 -160 0
v -32 -160 0
v -32 -144 0
v -16 -144 0
v -32 -160 0
v -48 -160 0
v -48 -144 0
v -32 -144 0
v -48 -160 0
v -64 -160 0
v -64 -144 0
v -48 -144 0
v -64 -160 0
v -80 -160 0
v -80 -144 0
v -64 -144 0
v -80 -160 0
v -96 -160 0
v -96 -144 0
v -80 -144 0
v -96 -160 0
v -112 -160 0
v -112 -144 0
v -96 -144 0
v -112 -160 0
v -128 -160 0
v -128 -144 0
v -112 -144 0
v -128 -160 0
v -144 -160 0
v -144 -144 0
v -128 -144 0
v -144 -160 0
v -160 -160 0
v -160 -144 0
v -144 -144 0
v -160 -160 0
v -176 -160 0
v -176 -144 0
v -160 -144 0
v -176 -160 0
v -192 -160 0
v -192 -144 0
v -176 -144 0
v -192 -160 0
v -208 -160 0
v -208 -144 0
v -192 -144 0
v -208 -160 0
v -224 -160 0
v -224 -144 0
v -208 -144 0
v -224 -160 0
v -240 -160 0
v -240 -144 0
v -224 -144 0
v -240 -160 0
v -256 -160 0
v -256 -144 0
v -240 -144 0
v 0 -176 0
v -16 -176 0
v -16 -160 0
v 0 -160 0
v -16 -176 0
v -32 -176 0
v -32 -160 0
v -16 -160 0
v -32 -176 0
v -48 -176 0
v -48 -160 0
v -32 -160 0
v -48 -176 0
v -64 -176 0
v -64 -160 0
v -48 -160 0
v -64 -176 0
v -80 -176 0
v -80 -160 0
v -64 -160 0
v -80 -176 0
v -96 -176 0
v -96 -160 0
v -80 -160 0
v -96 -176 0
v -112 -176 0
v -112 -160 0
v -96 -160 0
v -112 -176 0
v -128 -176 0
v -128 -160 0
v -112 -160 0
v -128 -176 0
v -144 -176 0
v -144 -160 0
v -128 -160 0
v -144 -176 0
v -160 -176 0
v -160 -160 0
v -144 -160 0
v -160 -176 0
v -176 -176 0
v -176 -160 0
v -160 -160 0
v -176 -176 0
v -192 -176 0
v -192 -160 0
v -176 -160 0
v -192 -176 0
v -208 -176 0
v -208 -160 0
v -192 -160 0
v -208 -176 0
v -224 -176 0
v -224 -160 0
v -208 -160 0
v -224 -176 0
v -240 -176 0
v -240 -160 0
v -224 -160 0
v -240 -176 0
v -256 -176 0
v -256 -160 0
v -240 -160 0
v 0 -192 0
v -16 -192 0
v -16 -176 0
v 0 -176 0
v -16 -192 0
v -32 -192 0
v -32 -176 0
v -16 -176 0
v -32 -192 0
v -48 -192 0
v -48 -176 0
v -32 -176 0
v -48 -192 0
v -64 -192 0
v -64 -176 0
v -48 -176 0
v -64 -192 0
v -80 -192 0
v -80 -176 0
v -64 -176 0
v -80 -192 0
v -96 -192 0
v -96 -176 0
v -80 -176 0
v -96 -192 0
v -112 -192 0
v -112 -176 0
v -96 -176 0
v -112 -192 0
v -128 -192 0
v -128 -176 0
v -112 -176 0
v -128 -192 0
v -144 -192 0
v -144 -176 0
v -128 -176 0
v -144 -192 0
v -160 -192 0
v -160 -176 0
v -144 -176 0
v -160 -192 0
v -176 -192 0
v -176 -176 0
v -160 -176 0
v -176 -192 0
v -192 -192 0
v -192 -176 0
v -176 -176 0
v -192 -192 0
v -208 -192 0
v -208 -176 0
v -192 -176 0
v -208 -192 0
v -224 -192 0
v -224 -176 0
v -208 -176 0
v -224 -192 0
v -240 -192 0
v -240 -176 0
v -224 -176 0
v -240 -192 0
v -256 -192 0
v -256 -176 0
v -240 -176 0
v 0 -208 0
v -16 -208 0
v -16 -192 0
v 0 -192 0
v -16 -208 0
v -32 -208 0
v -32 -192 0
v -16 -192 0
v -32 -208 0
v -48 -208 0
v -48 -192 0
v -32 -192 0
v -48 -208 0
v -64 -208 0
v -64 -192 0
v -48 -192 0
v -64 -208 0
v -80 -208 0
v -80 -192 0
v -64 -192 0
v -80 -208 0
v -96 -208 0
v -96 -192 0
v -80 -192 0
v -96 -208 0
v -112 -208 0
v -112 -192 0
v -96 -192 0
v -112 -208 0
v -128 -208 0
v -128 -192 0
v -112 -192 0
v -128 -208 0
v -144 -208 0
v -144 -192 0
v -128 -192 0
v -144 -208 0
v -160 -208 0
v -160 -192 0
v -144 -192 0
v -160 -208 0
v -176 -208 0
v -176 -192 0
v -160 -192 0
v -176 -208 0
v -192 -208 0
v -192 -192 0
v -176 -192 0
v -192 -208 0
v -208 -208 0
v -208 -192 0
v -192 -192 0
v -208 -208 0
v -224 -208 0
v -224 -192 0
v -208 -192 0
v -224 -208 0
v -240 -208 0
v -240 -192 0
v -224 -192 0
v -240 -208 0
v -256 -208 0
v -256 -192 0
v -240 -192 0
v 0 -224 0
v -16 -224 0
v -16 -208 0
v 0 -208 0
v -16 -224 0
v -32 -224 0
v -32 -208 0
v -16 -208 0
v -32 -224 0
v -48 -224 0
v -48 -208 0
v -32 -208 0
v -48 -224 0
v -64 -224 0
v -64 -208 0
v -48 -208 0
v -64 -224 0
v -80 -224 0
v -80 -208 0
v -64 -208 0
v -80 -224 0
v -96 -224 0
v -96 -208 0
v -80 -208 0
v -96 -224 0
v -112 -224 0
v -112 -208 0
v -96 -208 0
v -112 -224 0
v -128 -224 0
v -128 -208 0
v -112 -208 0
v -128 -224 0
v -144 -224 0
v -144 -208 0
v -128 -208 0
v -144 -224 0
v -160 -224 0
v -160 -208 0
v -144 -208 0
v -160 -224 0
v -176 -224 0
v -176 -208 0
v -160 -208 0
v -176 -224 0
v -192 -224 0
v -192 -208 0
v -176 -208 0
v -192 -224 0
v -208 -224 0
v -208 -208 0
v -192 -208 0
v -208 -224 0
v -224 -224 0
v -224 -208 0
v -208 -208 0
v -224 -224 0
v -240 -224 0
v -240 -208 0
v -224 -208 0
v -240 -224 0
v -256 -224 0
v -256 -208 0
v -240 -208 0
v 0 -240 0
v -16 -240 0
v -16 -224 0
v 0 -224 0
v -16 -240 0
v -32 -240 0
v -32 -224 0
v -16 -224 0
v -32 -240 0
v -48 -240 0
v -48 -224 0
v -32 -224 0
v -48 -240 0
v -64 -240 0
v -64 -224 0
v -48 -224 0
v -64 -240 0
v -80 -240 0
v -80 -224 0
v -64 -224 0
v -80 -240 0
v -96 -240 0
v -96 -224 0
v -80 -224 0
v -96 -240 0
v -112 -240 0
v -112 -224 0
v -96 -224 0
v -112 -240 0
v -128 -240 0
v -128 -224 0
v -112 -224 0
v -128 -240 0
v -144 -240 0
v -144 -224 0
v -128 -224 0
v -144 -240 0
v -160 -240 0
v -160 -224 0
v -144 -224 0
v -160 -240 0
v -176 -240 0
v -176 -224 0
v -160 -224 0
v -176 -240 0
v -192 -240 0
v -192 -224 0
v -176 -224 0
v -192 -240 0
v -208 -240 0
v -208 -224 0
v -192 -224 0
v -208 -240 0
v -224 -240 0
v -224 -224 0
v -208 -224 0
v -224 -240 0
v -240 -240 0
v -240 -224 0
v -224 -224 0
v -240 -240 0
v -256 -240 0
v -256 -224 0
v -240 -224 0
v 0 -256 0
v -16 -256 0
v -16 -240 0
v 0 -240 0
v -16 -256 0
v -32 -256 0
v -32 -240 0
v -16 -240 0
v -32 -256 0
v -48 -256 0
v -48 -240 0
v -32 -240 0
v -48 -256 0
v -64 -256 0
v -64 -240 0
v -48 -240 0
v -64 -256 0
v -80 -256 0
v -80 -240 0
v -64 -240 0
v -80 -256 0
v -96 -256 0
v -96 -240 0
v -80 -240 0
v -96 -256 0
v -112 -256 0
v -112 -240 0
v -96 -240 0
v -112 -256 0
v -128 -256 0
v -128 -240 0
v -112 -240 0
v -128 -256 0
v -144 -256 0
v -144 -240 0
v -128 -240 0
v -144 -256 0
v -160 -256 0
v -160 -240 0
v -144 -240 0
v -160 -256 0
v -176 -256 0
v -176 -240 0
v -160 -240 0
v -176 -256 0
v -192 -256 0
v -192 -240 0
v -176 -240 0
v -192 -256 0
v -208 -256 0
v -208 -240 0
v -192 -240 0
v -208 -256 0
v -224 -256 0
v -224 -240 0
v -208 -240 0
v -224 -256 0
v -240 -256 0
v -240 -240 0
v -224 -240 0
v -240 -256 0
v -256 -256 0
v -256 -240 0
v -240 -240 0

# Texture cooridinates (Count = 49)
vt 0.015625 0.453125
vt 0.01953125 0.453125
vt 0.01953125 0.46875
vt 0.015625 0.46875
vt 0.0234375 0.453125
vt 0.02734375 0.453125
vt 0.02734375 0.46875
vt 0.0234375 0.46875
vt 0.01953125 0.4375
vt 0.0234375 0.4375
vt 0.015625 0.421875
vt 0.01953125 0.421875
vt 0.015625 0.4375
vt 0.01953125 0.40625
vt 0.0234375 0.40625
vt 0.0234375 0.421875
vt 0.02734375 0.40625
vt 0.02734375 0.421875
vt 0.01171875 0.421875
vt 0.01171875 0.4375
vt 0.0078125 0.390625
vt 0.01171875 0.390625
vt 0.01171875 0.40625
vt 0.0078125 0.40625
vt 0.01953125 0.484375
vt 0.015625 0.484375
vt 0.01171875 0.453125
vt 0.015625 0.40625
vt 0.0078125 0.453125
vt 0.01171875 0.46875
vt 0.0078125 0.46875
vt 0.01953125 0.390625
vt 0.0234375 0.390625
vt 0.03125 0.46875
vt 0.03125 0.484375
vt 0.02734375 0.484375
vt 0.0234375 0.484375
vt 0.015625 0.390625
vt 0.02734375 0.390625
vt 0.0078125 0.421875
vt 0.01171875 0.484375
vt 0.0078125 0.484375
vt 0.03125 0.421875
vt 0.03125 0.4375
vt 0.02734375 0.4375
vt 0.0078125 0.4375
vt 0.03125 0.40625
vt 0.03125 0.390625
vt 0.03125 0.453125

# Normal
vn 0 0 -1

# Mesh description
g TitleIntro_mesh_0079

# Faces
f 1/1/1 2/2/1 3/3/1 4/4/1
f 5/5/1 6/6/1 7/7/1 8/8/1
f 9/9/1 10/10/1 11/5/1 12/2/1
f 13/11/1 14/12/1 15/9/1 16/13/1
f 17/14/1 18/15/1 19/16/1 20/12/1
f 21/15/1 22/17/1 23/18/1 24/16/1
f 25/19/1 26/11/1 27/13/1 28/20/1
f 29/21/1 30/22/1 31/23/1 32/24/1
f 33/13/1 34/9/1 35/2/1 36/1/1
f 37/4/1 38/3/1 39/25/1 40/26/1
f 41/20/1 42/13/1 43/1/1 44/27/1
f 45/1/1 46/2/1 47/3/1 48/4/1
f 49/11/1 50/12/1 51/9/1 52/13/1
f 53/28/1 54/14/1 55/12/1 56/11/1
f 57/12/1 58/16/1 59/10/1 60/9/1
f 61/28/1 62/14/1 63/12/1 64/11/1
f 65/21/1 66/22/1 67/23/1 68/24/1
f 69/2/1 70/5/1 71/8/1 72/3/1
f 73/29/1 74/27/1 75/30/1 76/31/1
f 77/20/1 78/13/1 79/1/1 80/27/1
f 81/23/1 82/28/1 83/11/1 84/19/1
f 85/32/1 86/33/1 87/15/1 88/14/1
f 89/7/1 90/34/1 91/35/1 92/36/1
f 93/32/1 94/33/1 95/15/1 96/14/1
f 97/7/1 98/34/1 99/35/1 100/36/1
f 101/23/1 102/28/1 103/11/1 104/19/1
f 105/8/1 106/7/1 107/36/1 108/37/1
f 109/1/1 110/2/1 111/3/1 112/4/1
f 113/13/1 114/9/1 115/2/1 116/1/1
f 117/22/1 118/38/1 119/28/1 120/23/1
f 121/13/1 122/9/1 123/2/1 124/1/1
f 125/32/1 126/33/1 127/15/1 128/14/1
f 129/33/1 130/39/1 131/17/1 132/15/1
f 133/24/1 134/23/1 135/19/1 136/40/1
f 137/7/1 138/34/1 139/35/1 140/36/1
f 141/31/1 142/30/1 143/41/1 144/42/1
f 145/12/1 146/16/1 147/10/1 148/9/1
f 149/14/1 150/15/1 151/16/1 152/12/1
f 153/38/1 154/32/1 155/14/1 156/28/1
f 157/2/1 158/5/1 159/8/1 160/3/1
f 161/8/1 162/7/1 163/36/1 164/37/1
f 165/18/1 166/43/1 167/44/1 168/45/1
f 169/9/1 170/10/1 171/5/1 172/2/1
f 173/11/1 174/12/1 175/9/1 176/13/1
f 177/46/1 178/20/1 179/27/1 180/29/1
f 181/22/1 182/38/1 183/28/1 184/23/1
f 185/2/1 186/5/1 187/8/1 188/3/1
f 189/29/1 190/27/1 191/30/1 192/31/1
f 193/31/1 194/30/1 195/41/1 196/42/1
f 197/40/1 198/19/1 199/20/1 200/46/1
f 201/13/1 202/9/1 203/2/1 204/1/1
f 205/33/1 206/39/1 207/17/1 208/15/1
f 209/20/1 210/13/1 211/1/1 212/27/1
f 213/3/1 214/8/1 215/37/1 216/25/1
f 217/33/1 218/39/1 219/17/1 220/15/1
f 221/18/1 222/43/1 223/44/1 224/45/1
f 225/17/1 226/47/1 227/43/1 228/18/1
f 229/16/1 230/18/1 231/45/1 232/10/1
f 233/29/1 234/27/1 235/30/1 236/31/1
f 237/38/1 238/32/1 239/14/1 240/28/1
f 241/1/1 242/2/1 243/3/1 244/4/1
f 245/14/1 246/15/1 247/16/1 248/12/1
f 249/3/1 250/8/1 251/37/1 252/25/1
f 253/1/1 254/2/1 255/3/1 256/4/1
f 257/2/1 258/5/1 259/8/1 260/3/1
f 261/1/1 262/2/1 263/3/1 264/4/1
f 265/21/1 266/22/1 267/23/1 268/24/1
f 269/38/1 270/32/1 271/14/1 272/28/1
f 273/11/1 274/12/1 275/9/1 276/13/1
f 277/20/1 278/13/1 279/1/1 280/27/1
f 281/11/1 282/12/1 283/9/1 284/13/1
f 285/8/1 286/7/1 287/36/1 288/37/1
f 289/40/1 290/19/1 291/20/1 292/46/1
f 293/39/1 294/48/1 295/47/1 296/17/1
f 297/17/1 298/47/1 299/43/1 300/18/1
f 301/6/1 302/49/1 303/34/1 304/7/1
f 305/18/1 306/43/1 307/44/1 308/45/1
f 309/3/1 310/8/1 311/37/1 312/25/1
f 313/29/1 314/27/1 315/30/1 316/31/1
f 317/18/1 318/43/1 319/44/1 320/45/1
f 321/31/1 322/30/1 323/41/1 324/42/1
f 325/9/1 326/10/1 327/5/1 328/2/1
f 329/5/1 330/6/1 331/7/1 332/8/1
f 333/28/1 334/14/1 335/12/1 336/11/1
f 337/18/1 338/43/1 339/44/1 340/45/1
f 341/16/1 342/18/1 343/45/1 344/10/1
f 345/28/1 346/14/1 347/12/1 348/11/1
f 349/16/1 350/18/1 351/45/1 352/10/1
f 353/39/1 354/48/1 355/47/1 356/17/1
f 357/20/1 358/13/1 359/1/1 360/27/1
f 361/14/1 362/15/1 363/16/1 364/12/1
f 365/13/1 366/9/1 367/2/1 368/1/1
f 369/14/1 370/15/1 371/16/1 372/12/1
f 373/40/1 374/19/1 375/20/1 376/46/1
f 377/46/1 378/20/1 379/27/1 380/29/1
f 381/7/1 382/34/1 383/35/1 384/36/1
f 385/4/1 386/3/1 387/25/1 388/26/1
f 389/32/1 390/33/1 391/15/1 392/14/1
f 393/3/1 394/8/1 395/37/1 396/25/1
f 397/7/1 398/34/1 399/35/1 400/36/1
f 401/19/1 402/11/1 403/13/1 404/20/1
f 405/9/1 406/10/1 407/5/1 408/2/1
f 409/33/1 410/39/1 411/17/1 412/15/1
f 413/1/1 414/2/1 415/3/1 416/4/1
f 417/21/1 418/22/1 419/23/1 420/24/1
f 421/22/1 422/38/1 423/28/1 424/23/1
f 425/3/1 426/8/1 427/37/1 428/25/1
f 429/46/1 430/20/1 431/27/1 432/29/1
f 433/40/1 434/19/1 435/20/1 436/46/1
f 437/15/1 438/17/1 439/18/1 440/16/1
f 441/30/1 442/4/1 443/26/1 444/41/1
f 445/2/1 446/5/1 447/8/1 448/3/1
f 449/28/1 450/14/1 451/12/1 452/11/1
f 453/17/1 454/47/1 455/43/1 456/18/1
f 457/18/1 458/43/1 459/44/1 460/45/1
f 461/19/1 462/11/1 463/13/1 464/20/1
f 465/16/1 466/18/1 467/45/1 468/10/1
f 469/24/1 470/23/1 471/19/1 472/40/1
f 473/33/1 474/39/1 475/17/1 476/15/1
f 477/4/1 478/3/1 479/25/1 480/26/1
f 481/21/1 482/22/1 483/23/1 484/24/1
f 485/13/1 486/9/1 487/2/1 488/1/1
f 489/23/1 490/28/1 491/11/1 492/19/1
f 493/33/1 494/39/1 495/17/1 496/15/1
f 497/27/1 498/1/1 499/4/1 500/30/1
f 501/9/1 502/10/1 503/5/1 504/2/1
f 505/39/1 506/48/1 507/47/1 508/17/1
f 509/39/1 510/48/1 511/47/1 512/17/1
f 513/20/1 514/13/1 515/1/1 516/27/1
f 517/3/1 518/8/1 519/37/1 520/25/1
f 521/30/1 522/4/1 523/26/1 524/41/1
f 525/28/1 526/14/1 527/12/1 528/11/1
f 529/20/1 530/13/1 531/1/1 532/27/1
f 533/1/1 534/2/1 535/3/1 536/4/1
f 537/16/1 538/18/1 539/45/1 540/10/1
f 541/17/1 542/47/1 543/43/1 544/18/1
f 545/17/1 546/47/1 547/43/1 548/18/1
f 549/1/1 550/2/1 551/3/1 552/4/1
f 553/39/1 554/48/1 555/47/1 556/17/1
f 557/17/1 558/47/1 559/43/1 560/18/1
f 561/5/1 562/6/1 563/7/1 564/8/1
f 565/7/1 566/34/1 567/35/1 568/36/1
f 569/17/1 570/47/1 571/43/1 572/18/1
f 573/46/1 574/20/1 575/27/1 576/29/1
f 577/6/1 578/49/1 579/34/1 580/7/1
f 581/15/1 582/17/1 583/18/1 584/16/1
f 585/13/1 586/9/1 587/2/1 588/1/1
f 589/23/1 590/28/1 591/11/1 592/19/1
f 593/38/1 594/32/1 595/14/1 596/28/1
f 597/19/1 598/11/1 599/13/1 600/20/1
f 601/29/1 602/27/1 603/30/1 604/31/1
f 605/14/1 606/15/1 607/16/1 608/12/1
f 609/1/1 610/2/1 611/3/1 612/4/1
f 613/24/1 614/23/1 615/19/1 616/40/1
f 617/32/1 618/33/1 619/15/1 620/14/1
f 621/6/1 622/49/1 623/34/1 624/7/1
f 625/33/1 626/39/1 627/17/1 628/15/1
f 629/22/1 630/38/1 631/28/1 632/23/1
f 633/8/1 634/7/1 635/36/1 636/37/1
f 637/40/1 638/19/1 639/20/1 640/46/1
f 641/20/1 642/13/1 643/1/1 644/27/1
f 645/14/1 646/15/1 647/16/1 648/12/1
f 649/23/1 650/28/1 651/11/1 652/19/1
f 653/38/1 654/32/1 655/14/1 656/28/1
f 657/4/1 658/3/1 659/25/1 660/26/1
f 661/19/1 662/11/1 663/13/1 664/20/1
f 665/29/1 666/27/1 667/30/1 668/31/1
f 669/31/1 670/30/1 671/41/1 672/42/1
f 673/33/1 674/39/1 675/17/1 676/15/1
f 677/22/1 678/38/1 679/28/1 680/23/1
f 681/13/1 682/9/1 683/2/1 684/1/1
f 685/10/1 686/45/1 687/6/1 688/5/1
f 689/32/1 690/33/1 691/15/1 692/14/1
f 693/2/1 694/5/1 695/8/1 696/3/1
f 697/16/1 698/18/1 699/45/1 700/10/1
f 701/6/1 702/49/1 703/34/1 704/7/1
f 705/40/1 706/19/1 707/20/1 708/46/1
f 709/16/1 710/18/1 711/45/1 712/10/1
f 713/22/1 714/38/1 715/28/1 716/23/1
f 717/30/1 718/4/1 719/26/1 720/41/1
f 721/10/1 722/45/1 723/6/1 724/5/1
f 725/28/1 726/14/1 727/12/1 728/11/1
f 729/33/1 730/39/1 731/17/1 732/15/1
f 733/16/1 734/18/1 735/45/1 736/10/1
f 737/16/1 738/18/1 739/45/1 740/10/1
f 741/18/1 742/43/1 743/44/1 744/45/1
f 745/38/1 746/32/1 747/14/1 748/28/1
f 749/24/1 750/23/1 751/19/1 752/40/1
f 753/6/1 754/49/1 755/34/1 756/7/1
f 757/15/1 758/17/1 759/18/1 760/16/1
f 761/13/1 762/9/1 763/2/1 764/1/1
f 765/7/1 766/34/1 767/35/1 768/36/1
f 769/27/1 770/1/1 771/4/1 772/30/1
f 773/8/1 774/7/1 775/36/1 776/37/1
f 777/18/1 778/43/1 779/44/1 780/45/1
f 781/24/1 782/23/1 783/19/1 784/40/1
f 785/21/1 786/22/1 787/23/1 788/24/1
f 789/9/1 790/10/1 791/5/1 792/2/1
f 793/39/1 794/48/1 795/47/1 796/17/1
f 797/23/1 798/28/1 799/11/1 800/19/1
f 801/33/1 802/39/1 803/17/1 804/15/1
f 805/28/1 806/14/1 807/12/1 808/11/1
f 809/38/1 810/32/1 811/14/1 812/28/1
f 813/27/1 814/1/1 815/4/1 816/30/1
f 817/46/1 818/20/1 819/27/1 820/29/1
f 821/7/1 822/34/1 823/35/1 824/36/1
f 825/31/1 826/30/1 827/41/1 828/42/1
f 829/33/1 830/39/1 831/17/1 832/15/1
f 833/27/1 834/1/1 835/4/1 836/30/1
f 837/33/1 838/39/1 839/17/1 840/15/1
f 841/12/1 842/16/1 843/10/1 844/9/1
f 845/45/1 846/44/1 847/49/1 848/6/1
f 849/24/1 850/23/1 851/19/1 852/40/1
f 853/11/1 854/12/1 855/9/1 856/13/1
f 857/8/1 858/7/1 859/36/1 860/37/1
f 861/33/1 862/39/1 863/17/1 864/15/1
f 865/40/1 866/19/1 867/20/1 868/46/1
f 869/7/1 870/34/1 871/35/1 872/36/1
f 873/7/1 874/34/1 875/35/1 876/36/1
f 877/23/1 878/28/1 879/11/1 880/19/1
f 881/11/1 882/12/1 883/9/1 884/13/1
f 885/21/1 886/22/1 887/23/1 888/24/1
f 889/3/1 890/8/1 891/37/1 892/25/1
f 893/24/1 894/23/1 895/19/1 896/40/1
f 897/20/1 898/13/1 899/1/1 900/27/1
f 901/14/1 902/15/1 903/16/1 904/12/1
f 905/11/1 906/12/1 907/9/1 908/13/1
f 909/16/1 910/18/1 911/45/1 912/10/1
f 913/33/1 914/39/1 915/17/1 916/15/1
f 917/22/1 918/38/1 919/28/1 920/23/1
f 921/29/1 922/27/1 923/30/1 924/31/1
f 925/10/1 926/45/1 927/6/1 928/5/1
f 929/28/1 930/14/1 931/12/1 932/11/1
f 933/24/1 934/23/1 935/19/1 936/40/1
f 937/6/1 938/49/1 939/34/1 940/7/1
f 941/46/1 942/20/1 943/27/1 944/29/1
f 945/38/1 946/32/1 947/14/1 948/28/1
f 949/20/1 950/13/1 951/1/1 952/27/1
f 953/6/1 954/49/1 955/34/1 956/7/1
f 957/30/1 958/4/1 959/26/1 960/41/1
f 961/27/1 962/1/1 963/4/1 964/30/1
f 965/12/1 966/16/1 967/10/1 968/9/1
f 969/13/1 970/9/1 971/2/1 972/1/1
f 973/33/1 974/39/1 975/17/1 976/15/1
f 977/10/1 978/45/1 979/6/1 980/5/1
f 981/39/1 982/48/1 983/47/1 984/17/1
f 985/30/1 986/4/1 987/26/1 988/41/1
f 989/31/1 990/30/1 991/41/1 992/42/1
f 993/33/1 994/39/1 995/17/1 996/15/1
f 997/38/1 998/32/1 999/14/1 1000/28/1
f 1001/45/1 1002/44/1 1003/49/1 1004/6/1
f 1005/33/1 1006/39/1 1007/17/1 1008/15/1
f 1009/2/1 1010/5/1 1011/8/1 1012/3/1
f 1013/46/1 1014/20/1 1015/27/1 1016/29/1
f 1017/22/1 1018/38/1 1019/28/1 1020/23/1
f 1021/33/1 1022/39/1 1023/17/1 1024/15/1

