# Tiled2Unity generated file. Do not modify by hand.
# Wavefront file for 'TitleIntro_mesh_0058.obj'

# Vertices (Count = 1024)
v 0 -16 0
v -16 -16 0
v -16 0 0
v 0 0 0
v -16 -16 0
v -32 -16 0
v -32 0 0
v -16 0 0
v -32 -16 0
v -48 -16 0
v -48 0 0
v -32 0 0
v -48 -16 0
v -64 -16 0
v -64 0 0
v -48 0 0
v -64 -16 0
v -80 -16 0
v -80 0 0
v -64 0 0
v -80 -16 0
v -96 -16 0
v -96 0 0
v -80 0 0
v -96 -16 0
v -112 -16 0
v -112 0 0
v -96 0 0
v -112 -16 0
v -128 -16 0
v -128 0 0
v -112 0 0
v -128 -16 0
v -144 -16 0
v -144 0 0
v -128 0 0
v -144 -16 0
v -160 -16 0
v -160 0 0
v -144 0 0
v -160 -16 0
v -176 -16 0
v -176 0 0
v -160 0 0
v -176 -16 0
v -192 -16 0
v -192 0 0
v -176 0 0
v -192 -16 0
v -208 -16 0
v -208 0 0
v -192 0 0
v -208 -16 0
v -224 -16 0
v -224 0 0
v -208 0 0
v -224 -16 0
v -240 -16 0
v -240 0 0
v -224 0 0
v -240 -16 0
v -256 -16 0
v -256 0 0
v -240 0 0
v 0 -32 0
v -16 -32 0
v -16 -16 0
v 0 -16 0
v -16 -32 0
v -32 -32 0
v -32 -16 0
v -16 -16 0
v -32 -32 0
v -48 -32 0
v -48 -16 0
v -32 -16 0
v -48 -32 0
v -64 -32 0
v -64 -16 0
v -48 -16 0
v -64 -32 0
v -80 -32 0
v -80 -16 0
v -64 -16 0
v -80 -32 0
v -96 -32 0
v -96 -16 0
v -80 -16 0
v -96 -32 0
v -112 -32 0
v -112 -16 0
v -96 -16 0
v -112 -32 0
v -128 -32 0
v -128 -16 0
v -112 -16 0
v -128 -32 0
v -144 -32 0
v -144 -16 0
v -128 -16 0
v -144 -32 0
v -160 -32 0
v -160 -16 0
v -144 -16 0
v -160 -32 0
v -176 -32 0
v -176 -16 0
v -160 -16 0
v -176 -32 0
v -192 -32 0
v -192 -16 0
v -176 -16 0
v -192 -32 0
v -208 -32 0
v -208 -16 0
v -192 -16 0
v -208 -32 0
v -224 -32 0
v -224 -16 0
v -208 -16 0
v -224 -32 0
v -240 -32 0
v -240 -16 0
v -224 -16 0
v -240 -32 0
v -256 -32 0
v -256 -16 0
v -240 -16 0
v 0 -48 0
v -16 -48 0
v -16 -32 0
v 0 -32 0
v -16 -48 0
v -32 -48 0
v -32 -32 0
v -16 -32 0
v -32 -48 0
v -48 -48 0
v -48 -32 0
v -32 -32 0
v -48 -48 0
v -64 -48 0
v -64 -32 0
v -48 -32 0
v -64 -48 0
v -80 -48 0
v -80 -32 0
v -64 -32 0
v -80 -48 0
v -96 -48 0
v -96 -32 0
v -80 -32 0
v -96 -48 0
v -112 -48 0
v -112 -32 0
v -96 -32 0
v -112 -48 0
v -128 -48 0
v -128 -32 0
v -112 -32 0
v -128 -48 0
v -144 -48 0
v -144 -32 0
v -128 -32 0
v -144 -48 0
v -160 -48 0
v -160 -32 0
v -144 -32 0
v -160 -48 0
v -176 -48 0
v -176 -32 0
v -160 -32 0
v -176 -48 0
v -192 -48 0
v -192 -32 0
v -176 -32 0
v -192 -48 0
v -208 -48 0
v -208 -32 0
v -192 -32 0
v -208 -48 0
v -224 -48 0
v -224 -32 0
v -208 -32 0
v -224 -48 0
v -240 -48 0
v -240 -32 0
v -224 -32 0
v -240 -48 0
v -256 -48 0
v -256 -32 0
v -240 -32 0
v 0 -64 0
v -16 -64 0
v -16 -48 0
v 0 -48 0
v -16 -64 0
v -32 -64 0
v -32 -48 0
v -16 -48 0
v -32 -64 0
v -48 -64 0
v -48 -48 0
v -32 -48 0
v -48 -64 0
v -64 -64 0
v -64 -48 0
v -48 -48 0
v -64 -64 0
v -80 -64 0
v -80 -48 0
v -64 -48 0
v -80 -64 0
v -96 -64 0
v -96 -48 0
v -80 -48 0
v -96 -64 0
v -112 -64 0
v -112 -48 0
v -96 -48 0
v -112 -64 0
v -128 -64 0
v -128 -48 0
v -112 -48 0
v -128 -64 0
v -144 -64 0
v -144 -48 0
v -128 -48 0
v -144 -64 0
v -160 -64 0
v -160 -48 0
v -144 -48 0
v -160 -64 0
v -176 -64 0
v -176 -48 0
v -160 -48 0
v -176 -64 0
v -192 -64 0
v -192 -48 0
v -176 -48 0
v -192 -64 0
v -208 -64 0
v -208 -48 0
v -192 -48 0
v -208 -64 0
v -224 -64 0
v -224 -48 0
v -208 -48 0
v -224 -64 0
v -240 -64 0
v -240 -48 0
v -224 -48 0
v -240 -64 0
v -256 -64 0
v -256 -48 0
v -240 -48 0
v 0 -80 0
v -16 -80 0
v -16 -64 0
v 0 -64 0
v -16 -80 0
v -32 -80 0
v -32 -64 0
v -16 -64 0
v -32 -80 0
v -48 -80 0
v -48 -64 0
v -32 -64 0
v -48 -80 0
v -64 -80 0
v -64 -64 0
v -48 -64 0
v -64 -80 0
v -80 -80 0
v -80 -64 0
v -64 -64 0
v -80 -80 0
v -96 -80 0
v -96 -64 0
v -80 -64 0
v -96 -80 0
v -112 -80 0
v -112 -64 0
v -96 -64 0
v -112 -80 0
v -128 -80 0
v -128 -64 0
v -112 -64 0
v -128 -80 0
v -144 -80 0
v -144 -64 0
v -128 -64 0
v -144 -80 0
v -160 -80 0
v -160 -64 0
v -144 -64 0
v -160 -80 0
v -176 -80 0
v -176 -64 0
v -160 -64 0
v -176 -80 0
v -192 -80 0
v -192 -64 0
v -176 -64 0
v -192 -80 0
v -208 -80 0
v -208 -64 0
v -192 -64 0
v -208 -80 0
v -224 -80 0
v -224 -64 0
v -208 -64 0
v -224 -80 0
v -240 -80 0
v -240 -64 0
v -224 -64 0
v -240 -80 0
v -256 -80 0
v -256 -64 0
v -240 -64 0
v 0 -96 0
v -16 -96 0
v -16 -80 0
v 0 -80 0
v -16 -96 0
v -32 -96 0
v -32 -80 0
v -16 -80 0
v -32 -96 0
v -48 -96 0
v -48 -80 0
v -32 -80 0
v -48 -96 0
v -64 -96 0
v -64 -80 0
v -48 -80 0
v -64 -96 0
v -80 -96 0
v -80 -80 0
v -64 -80 0
v -80 -96 0
v -96 -96 0
v -96 -80 0
v -80 -80 0
v -96 -96 0
v -112 -96 0
v -112 -80 0
v -96 -80 0
v -112 -96 0
v -128 -96 0
v -128 -80 0
v -112 -80 0
v -128 -96 0
v -144 -96 0
v -144 -80 0
v -128 -80 0
v -144 -96 0
v -160 -96 0
v -160 -80 0
v -144 -80 0
v -160 -96 0
v -176 -96 0
v -176 -80 0
v -160 -80 0
v -176 -96 0
v -192 -96 0
v -192 -80 0
v -176 -80 0
v -192 -96 0
v -208 -96 0
v -208 -80 0
v -192 -80 0
v -208 -96 0
v -224 -96 0
v -224 -80 0
v -208 -80 0
v -224 -96 0
v -240 -96 0
v -240 -80 0
v -224 -80 0
v -240 -96 0
v -256 -96 0
v -256 -80 0
v -240 -80 0
v 0 -112 0
v -16 -112 0
v -16 -96 0
v 0 -96 0
v -16 -112 0
v -32 -112 0
v -32 -96 0
v -16 -96 0
v -32 -112 0
v -48 -112 0
v -48 -96 0
v -32 -96 0
v -48 -112 0
v -64 -112 0
v -64 -96 0
v -48 -96 0
v -64 -112 0
v -80 -112 0
v -80 -96 0
v -64 -96 0
v -80 -112 0
v -96 -112 0
v -96 -96 0
v -80 -96 0
v -96 -112 0
v -112 -112 0
v -112 -96 0
v -96 -96 0
v -112 -112 0
v -128 -112 0
v -128 -96 0
v -112 -96 0
v -128 -112 0
v -144 -112 0
v -144 -96 0
v -128 -96 0
v -144 -112 0
v -160 -112 0
v -160 -96 0
v -144 -96 0
v -160 -112 0
v -176 -112 0
v -176 -96 0
v -160 -96 0
v -176 -112 0
v -192 -112 0
v -192 -96 0
v -176 -96 0
v -192 -112 0
v -208 -112 0
v -208 -96 0
v -192 -96 0
v -208 -112 0
v -224 -112 0
v -224 -96 0
v -208 -96 0
v -224 -112 0
v -240 -112 0
v -240 -96 0
v -224 -96 0
v -240 -112 0
v -256 -112 0
v -256 -96 0
v -240 -96 0
v 0 -128 0
v -16 -128 0
v -16 -112 0
v 0 -112 0
v -16 -128 0
v -32 -128 0
v -32 -112 0
v -16 -112 0
v -32 -128 0
v -48 -128 0
v -48 -112 0
v -32 -112 0
v -48 -128 0
v -64 -128 0
v -64 -112 0
v -48 -112 0
v -64 -128 0
v -80 -128 0
v -80 -112 0
v -64 -112 0
v -80 -128 0
v -96 -128 0
v -96 -112 0
v -80 -112 0
v -96 -128 0
v -112 -128 0
v -112 -112 0
v -96 -112 0
v -112 -128 0
v -128 -128 0
v -128 -112 0
v -112 -112 0
v -128 -128 0
v -144 -128 0
v -144 -112 0
v -128 -112 0
v -144 -128 0
v -160 -128 0
v -160 -112 0
v -144 -112 0
v -160 -128 0
v -176 -128 0
v -176 -112 0
v -160 -112 0
v -176 -128 0
v -192 -128 0
v -192 -112 0
v -176 -112 0
v -192 -128 0
v -208 -128 0
v -208 -112 0
v -192 -112 0
v -208 -128 0
v -224 -128 0
v -224 -112 0
v -208 -112 0
v -224 -128 0
v -240 -128 0
v -240 -112 0
v -224 -112 0
v -240 -128 0
v -256 -128 0
v -256 -112 0
v -240 -112 0
v 0 -144 0
v -16 -144 0
v -16 -128 0
v 0 -128 0
v -16 -144 0
v -32 -144 0
v -32 -128 0
v -16 -128 0
v -32 -144 0
v -48 -144 0
v -48 -128 0
v -32 -128 0
v -48 -144 0
v -64 -144 0
v -64 -128 0
v -48 -128 0
v -64 -144 0
v -80 -144 0
v -80 -128 0
v -64 -128 0
v -80 -144 0
v -96 -144 0
v -96 -128 0
v -80 -128 0
v -96 -144 0
v -112 -144 0
v -112 -128 0
v -96 -128 0
v -112 -144 0
v -128 -144 0
v -128 -128 0
v -112 -128 0
v -128 -144 0
v -144 -144 0
v -144 -128 0
v -128 -128 0
v -144 -144 0
v -160 -144 0
v -160 -128 0
v -144 -128 0
v -160 -144 0
v -176 -144 0
v -176 -128 0
v -160 -128 0
v -176 -144 0
v -192 -144 0
v -192 -128 0
v -176 -128 0
v -192 -144 0
v -208 -144 0
v -208 -128 0
v -192 -128 0
v -208 -144 0
v -224 -144 0
v -224 -128 0
v -208 -128 0
v -224 -144 0
v -240 -144 0
v -240 -128 0
v -224 -128 0
v -240 -144 0
v -256 -144 0
v -256 -128 0
v -240 -128 0
v 0 -160 0
v -16 -160 0
v -16 -144 0
v 0 -144 0
v -16 -160 0
v -32 -160 0
v -32 -144 0
v -16 -144 0
v -32 -160 0
v -48 -160 0
v -48 -144 0
v -32 -144 0
v -48 -160 0
v -64 -160 0
v -64 -144 0
v -48 -144 0
v -64 -160 0
v -80 -160 0
v -80 -144 0
v -64 -144 0
v -80 -160 0
v -96 -160 0
v -96 -144 0
v -80 -144 0
v -96 -160 0
v -112 -160 0
v -112 -144 0
v -96 -144 0
v -112 -160 0
v -128 -160 0
v -128 -144 0
v -112 -144 0
v -128 -160 0
v -144 -160 0
v -144 -144 0
v -128 -144 0
v -144 -160 0
v -160 -160 0
v -160 -144 0
v -144 -144 0
v -160 -160 0
v -176 -160 0
v -176 -144 0
v -160 -144 0
v -176 -160 0
v -192 -160 0
v -192 -144 0
v -176 -144 0
v -192 -160 0
v -208 -160 0
v -208 -144 0
v -192 -144 0
v -208 -160 0
v -224 -160 0
v -224 -144 0
v -208 -144 0
v -224 -160 0
v -240 -160 0
v -240 -144 0
v -224 -144 0
v -240 -160 0
v -256 -160 0
v -256 -144 0
v -240 -144 0
v 0 -176 0
v -16 -176 0
v -16 -160 0
v 0 -160 0
v -16 -176 0
v -32 -176 0
v -32 -160 0
v -16 -160 0
v -32 -176 0
v -48 -176 0
v -48 -160 0
v -32 -160 0
v -48 -176 0
v -64 -176 0
v -64 -160 0
v -48 -160 0
v -64 -176 0
v -80 -176 0
v -80 -160 0
v -64 -160 0
v -80 -176 0
v -96 -176 0
v -96 -160 0
v -80 -160 0
v -96 -176 0
v -112 -176 0
v -112 -160 0
v -96 -160 0
v -112 -176 0
v -128 -176 0
v -128 -160 0
v -112 -160 0
v -128 -176 0
v -144 -176 0
v -144 -160 0
v -128 -160 0
v -144 -176 0
v -160 -176 0
v -160 -160 0
v -144 -160 0
v -160 -176 0
v -176 -176 0
v -176 -160 0
v -160 -160 0
v -176 -176 0
v -192 -176 0
v -192 -160 0
v -176 -160 0
v -192 -176 0
v -208 -176 0
v -208 -160 0
v -192 -160 0
v -208 -176 0
v -224 -176 0
v -224 -160 0
v -208 -160 0
v -224 -176 0
v -240 -176 0
v -240 -160 0
v -224 -160 0
v -240 -176 0
v -256 -176 0
v -256 -160 0
v -240 -160 0
v 0 -192 0
v -16 -192 0
v -16 -176 0
v 0 -176 0
v -16 -192 0
v -32 -192 0
v -32 -176 0
v -16 -176 0
v -32 -192 0
v -48 -192 0
v -48 -176 0
v -32 -176 0
v -48 -192 0
v -64 -192 0
v -64 -176 0
v -48 -176 0
v -64 -192 0
v -80 -192 0
v -80 -176 0
v -64 -176 0
v -80 -192 0
v -96 -192 0
v -96 -176 0
v -80 -176 0
v -96 -192 0
v -112 -192 0
v -112 -176 0
v -96 -176 0
v -112 -192 0
v -128 -192 0
v -128 -176 0
v -112 -176 0
v -128 -192 0
v -144 -192 0
v -144 -176 0
v -128 -176 0
v -144 -192 0
v -160 -192 0
v -160 -176 0
v -144 -176 0
v -160 -192 0
v -176 -192 0
v -176 -176 0
v -160 -176 0
v -176 -192 0
v -192 -192 0
v -192 -176 0
v -176 -176 0
v -192 -192 0
v -208 -192 0
v -208 -176 0
v -192 -176 0
v -208 -192 0
v -224 -192 0
v -224 -176 0
v -208 -176 0
v -224 -192 0
v -240 -192 0
v -240 -176 0
v -224 -176 0
v -240 -192 0
v -256 -192 0
v -256 -176 0
v -240 -176 0
v 0 -208 0
v -16 -208 0
v -16 -192 0
v 0 -192 0
v -16 -208 0
v -32 -208 0
v -32 -192 0
v -16 -192 0
v -32 -208 0
v -48 -208 0
v -48 -192 0
v -32 -192 0
v -48 -208 0
v -64 -208 0
v -64 -192 0
v -48 -192 0
v -64 -208 0
v -80 -208 0
v -80 -192 0
v -64 -192 0
v -80 -208 0
v -96 -208 0
v -96 -192 0
v -80 -192 0
v -96 -208 0
v -112 -208 0
v -112 -192 0
v -96 -192 0
v -112 -208 0
v -128 -208 0
v -128 -192 0
v -112 -192 0
v -128 -208 0
v -144 -208 0
v -144 -192 0
v -128 -192 0
v -144 -208 0
v -160 -208 0
v -160 -192 0
v -144 -192 0
v -160 -208 0
v -176 -208 0
v -176 -192 0
v -160 -192 0
v -176 -208 0
v -192 -208 0
v -192 -192 0
v -176 -192 0
v -192 -208 0
v -208 -208 0
v -208 -192 0
v -192 -192 0
v -208 -208 0
v -224 -208 0
v -224 -192 0
v -208 -192 0
v -224 -208 0
v -240 -208 0
v -240 -192 0
v -224 -192 0
v -240 -208 0
v -256 -208 0
v -256 -192 0
v -240 -192 0
v 0 -224 0
v -16 -224 0
v -16 -208 0
v 0 -208 0
v -16 -224 0
v -32 -224 0
v -32 -208 0
v -16 -208 0
v -32 -224 0
v -48 -224 0
v -48 -208 0
v -32 -208 0
v -48 -224 0
v -64 -224 0
v -64 -208 0
v -48 -208 0
v -64 -224 0
v -80 -224 0
v -80 -208 0
v -64 -208 0
v -80 -224 0
v -96 -224 0
v -96 -208 0
v -80 -208 0
v -96 -224 0
v -112 -224 0
v -112 -208 0
v -96 -208 0
v -112 -224 0
v -128 -224 0
v -128 -208 0
v -112 -208 0
v -128 -224 0
v -144 -224 0
v -144 -208 0
v -128 -208 0
v -144 -224 0
v -160 -224 0
v -160 -208 0
v -144 -208 0
v -160 -224 0
v -176 -224 0
v -176 -208 0
v -160 -208 0
v -176 -224 0
v -192 -224 0
v -192 -208 0
v -176 -208 0
v -192 -224 0
v -208 -224 0
v -208 -208 0
v -192 -208 0
v -208 -224 0
v -224 -224 0
v -224 -208 0
v -208 -208 0
v -224 -224 0
v -240 -224 0
v -240 -208 0
v -224 -208 0
v -240 -224 0
v -256 -224 0
v -256 -208 0
v -240 -208 0
v 0 -240 0
v -16 -240 0
v -16 -224 0
v 0 -224 0
v -16 -240 0
v -32 -240 0
v -32 -224 0
v -16 -224 0
v -32 -240 0
v -48 -240 0
v -48 -224 0
v -32 -224 0
v -48 -240 0
v -64 -240 0
v -64 -224 0
v -48 -224 0
v -64 -240 0
v -80 -240 0
v -80 -224 0
v -64 -224 0
v -80 -240 0
v -96 -240 0
v -96 -224 0
v -80 -224 0
v -96 -240 0
v -112 -240 0
v -112 -224 0
v -96 -224 0
v -112 -240 0
v -128 -240 0
v -128 -224 0
v -112 -224 0
v -128 -240 0
v -144 -240 0
v -144 -224 0
v -128 -224 0
v -144 -240 0
v -160 -240 0
v -160 -224 0
v -144 -224 0
v -160 -240 0
v -176 -240 0
v -176 -224 0
v -160 -224 0
v -176 -240 0
v -192 -240 0
v -192 -224 0
v -176 -224 0
v -192 -240 0
v -208 -240 0
v -208 -224 0
v -192 -224 0
v -208 -240 0
v -224 -240 0
v -224 -224 0
v -208 -224 0
v -224 -240 0
v -240 -240 0
v -240 -224 0
v -224 -224 0
v -240 -240 0
v -256 -240 0
v -256 -224 0
v -240 -224 0
v 0 -256 0
v -16 -256 0
v -16 -240 0
v 0 -240 0
v -16 -256 0
v -32 -256 0
v -32 -240 0
v -16 -240 0
v -32 -256 0
v -48 -256 0
v -48 -240 0
v -32 -240 0
v -48 -256 0
v -64 -256 0
v -64 -240 0
v -48 -240 0
v -64 -256 0
v -80 -256 0
v -80 -240 0
v -64 -240 0
v -80 -256 0
v -96 -256 0
v -96 -240 0
v -80 -240 0
v -96 -256 0
v -112 -256 0
v -112 -240 0
v -96 -240 0
v -112 -256 0
v -128 -256 0
v -128 -240 0
v -112 -240 0
v -128 -256 0
v -144 -256 0
v -144 -240 0
v -128 -240 0
v -144 -256 0
v -160 -256 0
v -160 -240 0
v -144 -240 0
v -160 -256 0
v -176 -256 0
v -176 -240 0
v -160 -240 0
v -176 -256 0
v -192 -256 0
v -192 -240 0
v -176 -240 0
v -192 -256 0
v -208 -256 0
v -208 -240 0
v -192 -240 0
v -208 -256 0
v -224 -256 0
v -224 -240 0
v -208 -240 0
v -224 -256 0
v -240 -256 0
v -240 -240 0
v -224 -240 0
v -240 -256 0
v -256 -256 0
v -256 -240 0
v -240 -240 0

# Texture cooridinates (Count = 49)
vt 0.01953125 0.40625
vt 0.0234375 0.40625
vt 0.0234375 0.421875
vt 0.01953125 0.421875
vt 0.0078125 0.421875
vt 0.01171875 0.421875
vt 0.01171875 0.4375
vt 0.0078125 0.4375
vt 0.015625 0.453125
vt 0.01953125 0.453125
vt 0.01953125 0.46875
vt 0.015625 0.46875
vt 0.015625 0.421875
vt 0.01953125 0.4375
vt 0.015625 0.4375
vt 0.0078125 0.40625
vt 0.01171875 0.40625
vt 0.01171875 0.453125
vt 0.02734375 0.453125
vt 0.03125 0.453125
vt 0.03125 0.46875
vt 0.02734375 0.46875
vt 0.01953125 0.484375
vt 0.015625 0.484375
vt 0.015625 0.40625
vt 0.02734375 0.421875
vt 0.03125 0.421875
vt 0.03125 0.4375
vt 0.02734375 0.4375
vt 0.01953125 0.390625
vt 0.0234375 0.390625
vt 0.01171875 0.390625
vt 0.015625 0.390625
vt 0.0234375 0.4375
vt 0.0234375 0.453125
vt 0.02734375 0.40625
vt 0.0234375 0.46875
vt 0.03125 0.40625
vt 0.02734375 0.390625
vt 0.03125 0.390625
vt 0.02734375 0.484375
vt 0.0234375 0.484375
vt 0.03125 0.484375
vt 0.01171875 0.46875
vt 0.01171875 0.484375
vt 0.0078125 0.453125
vt 0.0078125 0.46875
vt 0.0078125 0.484375
vt 0.0078125 0.390625

# Normal
vn 0 0 -1

# Mesh description
g TitleIntro_mesh_0058

# Faces
f 1/1/1 2/2/1 3/3/1 4/4/1
f 5/5/1 6/6/1 7/7/1 8/8/1
f 9/9/1 10/10/1 11/11/1 12/12/1
f 13/13/1 14/4/1 15/14/1 16/15/1
f 17/16/1 18/17/1 19/6/1 20/5/1
f 21/7/1 22/15/1 23/9/1 24/18/1
f 25/19/1 26/20/1 27/21/1 28/22/1
f 29/12/1 30/11/1 31/23/1 32/24/1
f 33/25/1 34/1/1 35/4/1 36/13/1
f 37/26/1 38/27/1 39/28/1 40/29/1
f 41/1/1 42/2/1 43/3/1 44/4/1
f 45/19/1 46/20/1 47/21/1 48/22/1
f 49/30/1 50/31/1 51/2/1 52/1/1
f 53/6/1 54/13/1 55/15/1 56/7/1
f 57/32/1 58/33/1 59/25/1 60/17/1
f 61/25/1 62/1/1 63/4/1 64/13/1
f 65/12/1 66/11/1 67/23/1 68/24/1
f 69/4/1 70/3/1 71/34/1 72/14/1
f 73/14/1 74/34/1 75/35/1 76/10/1
f 77/2/1 78/36/1 79/26/1 80/3/1
f 81/9/1 82/10/1 83/11/1 84/12/1
f 85/5/1 86/6/1 87/7/1 88/8/1
f 89/3/1 90/26/1 91/29/1 92/34/1
f 93/25/1 94/1/1 95/4/1 96/13/1
f 97/16/1 98/17/1 99/6/1 100/5/1
f 101/3/1 102/26/1 103/29/1 104/34/1
f 105/10/1 106/35/1 107/37/1 108/11/1
f 109/29/1 110/28/1 111/20/1 112/19/1
f 113/35/1 114/19/1 115/22/1 116/37/1
f 117/4/1 118/3/1 119/34/1 120/14/1
f 121/14/1 122/34/1 123/35/1 124/10/1
f 125/1/1 126/2/1 127/3/1 128/4/1
f 129/33/1 130/30/1 131/1/1 132/25/1
f 133/26/1 134/27/1 135/28/1 136/29/1
f 137/32/1 138/33/1 139/25/1 140/17/1
f 141/3/1 142/26/1 143/29/1 144/34/1
f 145/29/1 146/28/1 147/20/1 148/19/1
f 149/32/1 150/33/1 151/25/1 152/17/1
f 153/35/1 154/19/1 155/22/1 156/37/1
f 157/4/1 158/3/1 159/34/1 160/14/1
f 161/4/1 162/3/1 163/34/1 164/14/1
f 165/29/1 166/28/1 167/20/1 168/19/1
f 169/34/1 170/29/1 171/19/1 172/35/1
f 173/36/1 174/38/1 175/27/1 176/26/1
f 177/9/1 178/10/1 179/11/1 180/12/1
f 181/39/1 182/40/1 183/38/1 184/36/1
f 185/37/1 186/22/1 187/41/1 188/42/1
f 189/11/1 190/37/1 191/42/1 192/23/1
f 193/10/1 194/35/1 195/37/1 196/11/1
f 197/26/1 198/27/1 199/28/1 200/29/1
f 201/4/1 202/3/1 203/34/1 204/14/1
f 205/10/1 206/35/1 207/37/1 208/11/1
f 209/35/1 210/19/1 211/22/1 212/37/1
f 213/22/1 214/21/1 215/43/1 216/41/1
f 217/22/1 218/21/1 219/43/1 220/41/1
f 221/44/1 222/12/1 223/24/1 224/45/1
f 225/10/1 226/35/1 227/37/1 228/11/1
f 229/35/1 230/19/1 231/22/1 232/37/1
f 233/29/1 234/28/1 235/20/1 236/19/1
f 237/9/1 238/10/1 239/11/1 240/12/1
f 241/29/1 242/28/1 243/20/1 244/19/1
f 245/25/1 246/1/1 247/4/1 248/13/1
f 249/46/1 250/18/1 251/44/1 252/47/1
f 253/32/1 254/33/1 255/25/1 256/17/1
f 257/15/1 258/14/1 259/10/1 260/9/1
f 261/4/1 262/3/1 263/34/1 264/14/1
f 265/10/1 266/35/1 267/37/1 268/11/1
f 269/26/1 270/27/1 271/28/1 272/29/1
f 273/4/1 274/3/1 275/34/1 276/14/1
f 277/9/1 278/10/1 279/11/1 280/12/1
f 281/26/1 282/27/1 283/28/1 284/29/1
f 285/6/1 286/13/1 287/15/1 288/7/1
f 289/47/1 290/44/1 291/45/1 292/48/1
f 293/46/1 294/18/1 295/44/1 296/47/1
f 297/30/1 298/31/1 299/2/1 300/1/1
f 301/25/1 302/1/1 303/4/1 304/13/1
f 305/15/1 306/14/1 307/10/1 308/9/1
f 309/17/1 310/25/1 311/13/1 312/6/1
f 313/19/1 314/20/1 315/21/1 316/22/1
f 317/34/1 318/29/1 319/19/1 320/35/1
f 321/31/1 322/39/1 323/36/1 324/2/1
f 325/5/1 326/6/1 327/7/1 328/8/1
f 329/37/1 330/22/1 331/41/1 332/42/1
f 333/8/1 334/7/1 335/18/1 336/46/1
f 337/31/1 338/39/1 339/36/1 340/2/1
f 341/33/1 342/30/1 343/1/1 344/25/1
f 345/12/1 346/11/1 347/23/1 348/24/1
f 349/47/1 350/44/1 351/45/1 352/48/1
f 353/36/1 354/38/1 355/27/1 356/26/1
f 357/39/1 358/40/1 359/38/1 360/36/1
f 361/11/1 362/37/1 363/42/1 364/23/1
f 365/13/1 366/4/1 367/14/1 368/15/1
f 369/33/1 370/30/1 371/1/1 372/25/1
f 373/1/1 374/2/1 375/3/1 376/4/1
f 377/33/1 378/30/1 379/1/1 380/25/1
f 381/35/1 382/19/1 383/22/1 384/37/1
f 385/30/1 386/31/1 387/2/1 388/1/1
f 389/49/1 390/32/1 391/17/1 392/16/1
f 393/32/1 394/33/1 395/25/1 396/17/1
f 397/22/1 398/21/1 399/43/1 400/41/1
f 401/39/1 402/40/1 403/38/1 404/36/1
f 405/16/1 406/17/1 407/6/1 408/5/1
f 409/44/1 410/12/1 411/24/1 412/45/1
f 413/16/1 414/17/1 415/6/1 416/5/1
f 417/2/1 418/36/1 419/26/1 420/3/1
f 421/17/1 422/25/1 423/13/1 424/6/1
f 425/6/1 426/13/1 427/15/1 428/7/1
f 429/18/1 430/9/1 431/12/1 432/44/1
f 433/33/1 434/30/1 435/1/1 436/25/1
f 437/44/1 438/12/1 439/24/1 440/45/1
f 441/1/1 442/2/1 443/3/1 444/4/1
f 445/1/1 446/2/1 447/3/1 448/4/1
f 449/15/1 450/14/1 451/10/1 452/9/1
f 453/47/1 454/44/1 455/45/1 456/48/1
f 457/34/1 458/29/1 459/19/1 460/35/1
f 461/11/1 462/37/1 463/42/1 464/23/1
f 465/9/1 466/10/1 467/11/1 468/12/1
f 469/3/1 470/26/1 471/29/1 472/34/1
f 473/33/1 474/30/1 475/1/1 476/25/1
f 477/33/1 478/30/1 479/1/1 480/25/1
f 481/44/1 482/12/1 483/24/1 484/45/1
f 485/36/1 486/38/1 487/27/1 488/26/1
f 489/3/1 490/26/1 491/29/1 492/34/1
f 493/10/1 494/35/1 495/37/1 496/11/1
f 497/29/1 498/28/1 499/20/1 500/19/1
f 501/46/1 502/18/1 503/44/1 504/47/1
f 505/46/1 506/18/1 507/44/1 508/47/1
f 509/30/1 510/31/1 511/2/1 512/1/1
f 513/12/1 514/11/1 515/23/1 516/24/1
f 517/36/1 518/38/1 519/27/1 520/26/1
f 521/37/1 522/22/1 523/41/1 524/42/1
f 525/4/1 526/3/1 527/34/1 528/14/1
f 529/19/1 530/20/1 531/21/1 532/22/1
f 533/5/1 534/6/1 535/7/1 536/8/1
f 537/17/1 538/25/1 539/13/1 540/6/1
f 541/10/1 542/35/1 543/37/1 544/11/1
f 545/5/1 546/6/1 547/7/1 548/8/1
f 549/14/1 550/34/1 551/35/1 552/10/1
f 553/35/1 554/19/1 555/22/1 556/37/1
f 557/10/1 558/35/1 559/37/1 560/11/1
f 561/35/1 562/19/1 563/22/1 564/37/1
f 565/9/1 566/10/1 567/11/1 568/12/1
f 569/30/1 570/31/1 571/2/1 572/1/1
f 573/8/1 574/7/1 575/18/1 576/46/1
f 577/34/1 578/29/1 579/19/1 580/35/1
f 581/13/1 582/4/1 583/14/1 584/15/1
f 585/19/1 586/20/1 587/21/1 588/22/1
f 589/47/1 590/44/1 591/45/1 592/48/1
f 593/6/1 594/13/1 595/15/1 596/7/1
f 597/1/1 598/2/1 599/3/1 600/4/1
f 601/29/1 602/28/1 603/20/1 604/19/1
f 605/31/1 606/39/1 607/36/1 608/2/1
f 609/7/1 610/15/1 611/9/1 612/18/1
f 613/32/1 614/33/1 615/25/1 616/17/1
f 617/34/1 618/29/1 619/19/1 620/35/1
f 621/9/1 622/10/1 623/11/1 624/12/1
f 625/26/1 626/27/1 627/28/1 628/29/1
f 629/34/1 630/29/1 631/19/1 632/35/1
f 633/10/1 634/35/1 635/37/1 636/11/1
f 637/29/1 638/28/1 639/20/1 640/19/1
f 641/34/1 642/29/1 643/19/1 644/35/1
f 645/2/1 646/36/1 647/26/1 648/3/1
f 649/26/1 650/27/1 651/28/1 652/29/1
f 653/3/1 654/26/1 655/29/1 656/34/1
f 657/33/1 658/30/1 659/1/1 660/25/1
f 661/30/1 662/31/1 663/2/1 664/1/1
f 665/17/1 666/25/1 667/13/1 668/6/1
f 669/3/1 670/26/1 671/29/1 672/34/1
f 673/31/1 674/39/1 675/36/1 676/2/1
f 677/29/1 678/28/1 679/20/1 680/19/1
f 681/9/1 682/10/1 683/11/1 684/12/1
f 685/14/1 686/34/1 687/35/1 688/10/1
f 689/2/1 690/36/1 691/26/1 692/3/1
f 693/30/1 694/31/1 695/2/1 696/1/1
f 697/30/1 698/31/1 699/2/1 700/1/1
f 701/10/1 702/35/1 703/37/1 704/11/1
f 705/32/1 706/33/1 707/25/1 708/17/1
f 709/39/1 710/40/1 711/38/1 712/36/1
f 713/13/1 714/4/1 715/14/1 716/15/1
f 717/18/1 718/9/1 719/12/1 720/44/1
f 721/33/1 722/30/1 723/1/1 724/25/1
f 725/7/1 726/15/1 727/9/1 728/18/1
f 729/32/1 730/33/1 731/25/1 732/17/1
f 733/4/1 734/3/1 735/34/1 736/14/1
f 737/10/1 738/35/1 739/37/1 740/11/1
f 741/3/1 742/26/1 743/29/1 744/34/1
f 745/7/1 746/15/1 747/9/1 748/18/1
f 749/49/1 750/32/1 751/17/1 752/16/1
f 753/35/1 754/19/1 755/22/1 756/37/1
f 757/26/1 758/27/1 759/28/1 760/29/1
f 761/26/1 762/27/1 763/28/1 764/29/1
f 765/39/1 766/40/1 767/38/1 768/36/1
f 769/25/1 770/1/1 771/4/1 772/13/1
f 773/47/1 774/44/1 775/45/1 776/48/1
f 777/17/1 778/25/1 779/13/1 780/6/1
f 781/37/1 782/22/1 783/41/1 784/42/1
f 785/18/1 786/9/1 787/12/1 788/44/1
f 789/44/1 790/12/1 791/24/1 792/45/1
f 793/6/1 794/13/1 795/15/1 796/7/1
f 797/22/1 798/21/1 799/43/1 800/41/1
f 801/12/1 802/11/1 803/23/1 804/24/1
f 805/31/1 806/39/1 807/36/1 808/2/1
f 809/7/1 810/15/1 811/9/1 812/18/1
f 813/44/1 814/12/1 815/24/1 816/45/1
f 817/35/1 818/19/1 819/22/1 820/37/1
f 821/8/1 822/7/1 823/18/1 824/46/1
f 825/17/1 826/25/1 827/13/1 828/6/1
f 829/26/1 830/27/1 831/28/1 832/29/1
f 833/34/1 834/29/1 835/19/1 836/35/1
f 837/37/1 838/22/1 839/41/1 840/42/1
f 841/36/1 842/38/1 843/27/1 844/26/1
f 845/6/1 846/13/1 847/15/1 848/7/1
f 849/33/1 850/30/1 851/1/1 852/25/1
f 853/35/1 854/19/1 855/22/1 856/37/1
f 857/29/1 858/28/1 859/20/1 860/19/1
f 861/25/1 862/1/1 863/4/1 864/13/1
f 865/31/1 866/39/1 867/36/1 868/2/1
f 869/29/1 870/28/1 871/20/1 872/19/1
f 873/46/1 874/18/1 875/44/1 876/47/1
f 877/39/1 878/40/1 879/38/1 880/36/1
f 881/3/1 882/26/1 883/29/1 884/34/1
f 885/9/1 886/10/1 887/11/1 888/12/1
f 889/34/1 890/29/1 891/19/1 892/35/1
f 893/25/1 894/1/1 895/4/1 896/13/1
f 897/37/1 898/22/1 899/41/1 900/42/1
f 901/44/1 902/12/1 903/24/1 904/45/1
f 905/36/1 906/38/1 907/27/1 908/26/1
f 909/13/1 910/4/1 911/14/1 912/15/1
f 913/44/1 914/12/1 915/24/1 916/45/1
f 917/44/1 918/12/1 919/24/1 920/45/1
f 921/33/1 922/30/1 923/1/1 924/25/1
f 925/6/1 926/13/1 927/15/1 928/7/1
f 929/26/1 930/27/1 931/28/1 932/29/1
f 933/13/1 934/4/1 935/14/1 936/15/1
f 937/15/1 938/14/1 939/10/1 940/9/1
f 941/31/1 942/39/1 943/36/1 944/2/1
f 945/19/1 946/20/1 947/21/1 948/22/1
f 949/35/1 950/19/1 951/22/1 952/37/1
f 953/16/1 954/17/1 955/6/1 956/5/1
f 957/7/1 958/15/1 959/9/1 960/18/1
f 961/37/1 962/22/1 963/41/1 964/42/1
f 965/4/1 966/3/1 967/34/1 968/14/1
f 969/1/1 970/2/1 971/3/1 972/4/1
f 973/35/1 974/19/1 975/22/1 976/37/1
f 977/4/1 978/3/1 979/34/1 980/14/1
f 981/2/1 982/36/1 983/26/1 984/3/1
f 985/32/1 986/33/1 987/25/1 988/17/1
f 989/18/1 990/9/1 991/12/1 992/44/1
f 993/19/1 994/20/1 995/21/1 996/22/1
f 997/18/1 998/9/1 999/12/1 1000/44/1
f 1001/6/1 1002/13/1 1003/15/1 1004/7/1
f 1005/6/1 1006/13/1 1007/15/1 1008/7/1
f 1009/8/1 1010/7/1 1011/18/1 1012/46/1
f 1013/2/1 1014/36/1 1015/26/1 1016/3/1
f 1017/33/1 1018/30/1 1019/1/1 1020/25/1
f 1021/2/1 1022/36/1 1023/26/1 1024/3/1

