# Tiled2Unity generated file. Do not modify by hand.
# Wavefront file for 'TitleIntro_mesh_0073.obj'

# Vertices (Count = 320)
v -176 -16 0
v -192 -16 0
v -192 0 0
v -176 0 0
v -192 -16 0
v -208 -16 0
v -208 0 0
v -192 0 0
v -208 -16 0
v -224 -16 0
v -224 0 0
v -208 0 0
v -224 -16 0
v -240 -16 0
v -240 0 0
v -224 0 0
v -240 -16 0
v -256 -16 0
v -256 0 0
v -240 0 0
v -176 -32 0
v -192 -32 0
v -192 -16 0
v -176 -16 0
v -192 -32 0
v -208 -32 0
v -208 -16 0
v -192 -16 0
v -208 -32 0
v -224 -32 0
v -224 -16 0
v -208 -16 0
v -224 -32 0
v -240 -32 0
v -240 -16 0
v -224 -16 0
v -240 -32 0
v -256 -32 0
v -256 -16 0
v -240 -16 0
v -176 -48 0
v -192 -48 0
v -192 -32 0
v -176 -32 0
v -192 -48 0
v -208 -48 0
v -208 -32 0
v -192 -32 0
v -208 -48 0
v -224 -48 0
v -224 -32 0
v -208 -32 0
v -224 -48 0
v -240 -48 0
v -240 -32 0
v -224 -32 0
v -240 -48 0
v -256 -48 0
v -256 -32 0
v -240 -32 0
v -176 -64 0
v -192 -64 0
v -192 -48 0
v -176 -48 0
v -192 -64 0
v -208 -64 0
v -208 -48 0
v -192 -48 0
v -208 -64 0
v -224 -64 0
v -224 -48 0
v -208 -48 0
v -224 -64 0
v -240 -64 0
v -240 -48 0
v -224 -48 0
v -240 -64 0
v -256 -64 0
v -256 -48 0
v -240 -48 0
v -176 -80 0
v -192 -80 0
v -192 -64 0
v -176 -64 0
v -192 -80 0
v -208 -80 0
v -208 -64 0
v -192 -64 0
v -208 -80 0
v -224 -80 0
v -224 -64 0
v -208 -64 0
v -224 -80 0
v -240 -80 0
v -240 -64 0
v -224 -64 0
v -240 -80 0
v -256 -80 0
v -256 -64 0
v -240 -64 0
v -176 -96 0
v -192 -96 0
v -192 -80 0
v -176 -80 0
v -192 -96 0
v -208 -96 0
v -208 -80 0
v -192 -80 0
v -208 -96 0
v -224 -96 0
v -224 -80 0
v -208 -80 0
v -224 -96 0
v -240 -96 0
v -240 -80 0
v -224 -80 0
v -240 -96 0
v -256 -96 0
v -256 -80 0
v -240 -80 0
v -176 -112 0
v -192 -112 0
v -192 -96 0
v -176 -96 0
v -192 -112 0
v -208 -112 0
v -208 -96 0
v -192 -96 0
v -208 -112 0
v -224 -112 0
v -224 -96 0
v -208 -96 0
v -224 -112 0
v -240 -112 0
v -240 -96 0
v -224 -96 0
v -240 -112 0
v -256 -112 0
v -256 -96 0
v -240 -96 0
v -176 -128 0
v -192 -128 0
v -192 -112 0
v -176 -112 0
v -192 -128 0
v -208 -128 0
v -208 -112 0
v -192 -112 0
v -208 -128 0
v -224 -128 0
v -224 -112 0
v -208 -112 0
v -224 -128 0
v -240 -128 0
v -240 -112 0
v -224 -112 0
v -240 -128 0
v -256 -128 0
v -256 -112 0
v -240 -112 0
v -176 -144 0
v -192 -144 0
v -192 -128 0
v -176 -128 0
v -192 -144 0
v -208 -144 0
v -208 -128 0
v -192 -128 0
v -208 -144 0
v -224 -144 0
v -224 -128 0
v -208 -128 0
v -224 -144 0
v -240 -144 0
v -240 -128 0
v -224 -128 0
v -240 -144 0
v -256 -144 0
v -256 -128 0
v -240 -128 0
v -176 -160 0
v -192 -160 0
v -192 -144 0
v -176 -144 0
v -192 -160 0
v -208 -160 0
v -208 -144 0
v -192 -144 0
v -208 -160 0
v -224 -160 0
v -224 -144 0
v -208 -144 0
v -224 -160 0
v -240 -160 0
v -240 -144 0
v -224 -144 0
v -240 -160 0
v -256 -160 0
v -256 -144 0
v -240 -144 0
v -176 -176 0
v -192 -176 0
v -192 -160 0
v -176 -160 0
v -192 -176 0
v -208 -176 0
v -208 -160 0
v -192 -160 0
v -208 -176 0
v -224 -176 0
v -224 -160 0
v -208 -160 0
v -224 -176 0
v -240 -176 0
v -240 -160 0
v -224 -160 0
v -240 -176 0
v -256 -176 0
v -256 -160 0
v -240 -160 0
v -176 -192 0
v -192 -192 0
v -192 -176 0
v -176 -176 0
v -192 -192 0
v -208 -192 0
v -208 -176 0
v -192 -176 0
v -208 -192 0
v -224 -192 0
v -224 -176 0
v -208 -176 0
v -224 -192 0
v -240 -192 0
v -240 -176 0
v -224 -176 0
v -240 -192 0
v -256 -192 0
v -256 -176 0
v -240 -176 0
v -176 -208 0
v -192 -208 0
v -192 -192 0
v -176 -192 0
v -192 -208 0
v -208 -208 0
v -208 -192 0
v -192 -192 0
v -208 -208 0
v -224 -208 0
v -224 -192 0
v -208 -192 0
v -224 -208 0
v -240 -208 0
v -240 -192 0
v -224 -192 0
v -240 -208 0
v -256 -208 0
v -256 -192 0
v -240 -192 0
v -176 -224 0
v -192 -224 0
v -192 -208 0
v -176 -208 0
v -192 -224 0
v -208 -224 0
v -208 -208 0
v -192 -208 0
v -208 -224 0
v -224 -224 0
v -224 -208 0
v -208 -208 0
v -224 -224 0
v -240 -224 0
v -240 -208 0
v -224 -208 0
v -240 -224 0
v -256 -224 0
v -256 -208 0
v -240 -208 0
v -176 -240 0
v -192 -240 0
v -192 -224 0
v -176 -224 0
v -192 -240 0
v -208 -240 0
v -208 -224 0
v -192 -224 0
v -208 -240 0
v -224 -240 0
v -224 -224 0
v -208 -224 0
v -224 -240 0
v -240 -240 0
v -240 -224 0
v -224 -224 0
v -240 -240 0
v -256 -240 0
v -256 -224 0
v -240 -224 0
v -176 -256 0
v -192 -256 0
v -192 -240 0
v -176 -240 0
v -192 -256 0
v -208 -256 0
v -208 -240 0
v -192 -240 0
v -208 -256 0
v -224 -256 0
v -224 -240 0
v -208 -240 0
v -224 -256 0
v -240 -256 0
v -240 -240 0
v -224 -240 0
v -240 -256 0
v -256 -256 0
v -256 -240 0
v -240 -240 0

# Texture cooridinates (Count = 49)
vt 0.015625 0.4375
vt 0.01953125 0.4375
vt 0.01953125 0.453125
vt 0.015625 0.453125
vt 0.01171875 0.4375
vt 0.01171875 0.453125
vt 0.0234375 0.4375
vt 0.02734375 0.4375
vt 0.02734375 0.453125
vt 0.0234375 0.453125
vt 0.01171875 0.421875
vt 0.015625 0.421875
vt 0.01171875 0.390625
vt 0.015625 0.390625
vt 0.015625 0.40625
vt 0.01171875 0.40625
vt 0.01953125 0.46875
vt 0.015625 0.46875
vt 0.02734375 0.40625
vt 0.03125 0.40625
vt 0.03125 0.421875
vt 0.02734375 0.421875
vt 0.01953125 0.421875
vt 0.0234375 0.421875
vt 0.01953125 0.390625
vt 0.01953125 0.40625
vt 0.0234375 0.390625
vt 0.0234375 0.40625
vt 0.02734375 0.46875
vt 0.0234375 0.46875
vt 0.0078125 0.390625
vt 0.0078125 0.40625
vt 0.0078125 0.4375
vt 0.0078125 0.453125
vt 0.01953125 0.484375
vt 0.015625 0.484375
vt 0.02734375 0.390625
vt 0.03125 0.390625
vt 0.0234375 0.484375
vt 0.0078125 0.46875
vt 0.01171875 0.46875
vt 0.01171875 0.484375
vt 0.0078125 0.484375
vt 0.03125 0.46875
vt 0.03125 0.484375
vt 0.02734375 0.484375
vt 0.0078125 0.421875
vt 0.03125 0.453125
vt 0.03125 0.4375

# Normal
vn 0 0 -1

# Mesh description
g TitleIntro_mesh_0073

# Faces
f 1/1/1 2/2/1 3/3/1 4/4/1
f 5/5/1 6/1/1 7/4/1 8/6/1
f 9/7/1 10/8/1 11/9/1 12/10/1
f 13/11/1 14/12/1 15/1/1 16/5/1
f 17/13/1 18/14/1 19/15/1 20/16/1
f 21/16/1 22/15/1 23/12/1 24/11/1
f 25/4/1 26/3/1 27/17/1 28/18/1
f 29/19/1 30/20/1 31/21/1 32/22/1
f 33/23/1 34/24/1 35/7/1 36/2/1
f 37/14/1 38/25/1 39/26/1 40/15/1
f 41/25/1 42/27/1 43/28/1 44/26/1
f 45/10/1 46/9/1 47/29/1 48/30/1
f 49/31/1 50/13/1 51/16/1 52/32/1
f 53/15/1 54/26/1 55/23/1 56/12/1
f 57/24/1 58/22/1 59/8/1 60/7/1
f 61/23/1 62/24/1 63/7/1 64/2/1
f 65/33/1 66/5/1 67/6/1 68/34/1
f 69/18/1 70/17/1 71/35/1 72/36/1
f 73/37/1 74/38/1 75/20/1 76/19/1
f 77/17/1 78/30/1 79/39/1 80/35/1
f 81/14/1 82/25/1 83/26/1 84/15/1
f 85/10/1 86/9/1 87/29/1 88/30/1
f 89/40/1 90/41/1 91/42/1 92/43/1
f 93/17/1 94/30/1 95/39/1 96/35/1
f 97/29/1 98/44/1 99/45/1 100/46/1
f 101/3/1 102/10/1 103/30/1 104/17/1
f 105/47/1 106/11/1 107/5/1 108/33/1
f 109/7/1 110/8/1 111/9/1 112/10/1
f 113/33/1 114/5/1 115/6/1 116/34/1
f 117/12/1 118/23/1 119/2/1 120/1/1
f 121/25/1 122/27/1 123/28/1 124/26/1
f 125/28/1 126/19/1 127/22/1 128/24/1
f 129/2/1 130/7/1 131/10/1 132/3/1
f 133/19/1 134/20/1 135/21/1 136/22/1
f 137/29/1 138/44/1 139/45/1 140/46/1
f 141/9/1 142/48/1 143/44/1 144/29/1
f 145/9/1 146/48/1 147/44/1 148/29/1
f 149/12/1 150/23/1 151/2/1 152/1/1
f 153/14/1 154/25/1 155/26/1 156/15/1
f 157/5/1 158/1/1 159/4/1 160/6/1
f 161/5/1 162/1/1 163/4/1 164/6/1
f 165/18/1 166/17/1 167/35/1 168/36/1
f 169/24/1 170/22/1 171/8/1 172/7/1
f 173/22/1 174/21/1 175/49/1 176/8/1
f 177/37/1 178/38/1 179/20/1 180/19/1
f 181/8/1 182/49/1 183/48/1 184/9/1
f 185/1/1 186/2/1 187/3/1 188/4/1
f 189/27/1 190/37/1 191/19/1 192/28/1
f 193/5/1 194/1/1 195/4/1 196/6/1
f 197/47/1 198/11/1 199/5/1 200/33/1
f 201/26/1 202/28/1 203/24/1 204/23/1
f 205/32/1 206/16/1 207/11/1 208/47/1
f 209/2/1 210/7/1 211/10/1 212/3/1
f 213/30/1 214/29/1 215/46/1 216/39/1
f 217/33/1 218/5/1 219/6/1 220/34/1
f 221/5/1 222/1/1 223/4/1 224/6/1
f 225/25/1 226/27/1 227/28/1 228/26/1
f 229/34/1 230/6/1 231/41/1 232/40/1
f 233/33/1 234/5/1 235/6/1 236/34/1
f 237/11/1 238/12/1 239/1/1 240/5/1
f 241/23/1 242/24/1 243/7/1 244/2/1
f 245/41/1 246/18/1 247/36/1 248/42/1
f 249/33/1 250/5/1 251/6/1 252/34/1
f 253/23/1 254/24/1 255/7/1 256/2/1
f 257/47/1 258/11/1 259/5/1 260/33/1
f 261/47/1 262/11/1 263/5/1 264/33/1
f 265/29/1 266/44/1 267/45/1 268/46/1
f 269/13/1 270/14/1 271/15/1 272/16/1
f 273/2/1 274/7/1 275/10/1 276/3/1
f 277/16/1 278/15/1 279/12/1 280/11/1
f 281/17/1 282/30/1 283/39/1 284/35/1
f 285/14/1 286/25/1 287/26/1 288/15/1
f 289/14/1 290/25/1 291/26/1 292/15/1
f 293/15/1 294/26/1 295/23/1 296/12/1
f 297/4/1 298/3/1 299/17/1 300/18/1
f 301/14/1 302/25/1 303/26/1 304/15/1
f 305/15/1 306/26/1 307/23/1 308/12/1
f 309/33/1 310/5/1 311/6/1 312/34/1
f 313/4/1 314/3/1 315/17/1 316/18/1
f 317/32/1 318/16/1 319/11/1 320/47/1

