# Tiled2Unity generated file. Do not modify by hand.
# Wavefront file for 'TitleIntro_mesh_0020.obj'

# Vertices (Count = 1024)
v 0 -16 0
v -16 -16 0
v -16 0 0
v 0 0 0
v -16 -16 0
v -32 -16 0
v -32 0 0
v -16 0 0
v -32 -16 0
v -48 -16 0
v -48 0 0
v -32 0 0
v -48 -16 0
v -64 -16 0
v -64 0 0
v -48 0 0
v -64 -16 0
v -80 -16 0
v -80 0 0
v -64 0 0
v -80 -16 0
v -96 -16 0
v -96 0 0
v -80 0 0
v -96 -16 0
v -112 -16 0
v -112 0 0
v -96 0 0
v -112 -16 0
v -128 -16 0
v -128 0 0
v -112 0 0
v -128 -16 0
v -144 -16 0
v -144 0 0
v -128 0 0
v -144 -16 0
v -160 -16 0
v -160 0 0
v -144 0 0
v -160 -16 0
v -176 -16 0
v -176 0 0
v -160 0 0
v -176 -16 0
v -192 -16 0
v -192 0 0
v -176 0 0
v -192 -16 0
v -208 -16 0
v -208 0 0
v -192 0 0
v -208 -16 0
v -224 -16 0
v -224 0 0
v -208 0 0
v -224 -16 0
v -240 -16 0
v -240 0 0
v -224 0 0
v -240 -16 0
v -256 -16 0
v -256 0 0
v -240 0 0
v 0 -32 0
v -16 -32 0
v -16 -16 0
v 0 -16 0
v -16 -32 0
v -32 -32 0
v -32 -16 0
v -16 -16 0
v -32 -32 0
v -48 -32 0
v -48 -16 0
v -32 -16 0
v -48 -32 0
v -64 -32 0
v -64 -16 0
v -48 -16 0
v -64 -32 0
v -80 -32 0
v -80 -16 0
v -64 -16 0
v -80 -32 0
v -96 -32 0
v -96 -16 0
v -80 -16 0
v -96 -32 0
v -112 -32 0
v -112 -16 0
v -96 -16 0
v -112 -32 0
v -128 -32 0
v -128 -16 0
v -112 -16 0
v -128 -32 0
v -144 -32 0
v -144 -16 0
v -128 -16 0
v -144 -32 0
v -160 -32 0
v -160 -16 0
v -144 -16 0
v -160 -32 0
v -176 -32 0
v -176 -16 0
v -160 -16 0
v -176 -32 0
v -192 -32 0
v -192 -16 0
v -176 -16 0
v -192 -32 0
v -208 -32 0
v -208 -16 0
v -192 -16 0
v -208 -32 0
v -224 -32 0
v -224 -16 0
v -208 -16 0
v -224 -32 0
v -240 -32 0
v -240 -16 0
v -224 -16 0
v -240 -32 0
v -256 -32 0
v -256 -16 0
v -240 -16 0
v 0 -48 0
v -16 -48 0
v -16 -32 0
v 0 -32 0
v -16 -48 0
v -32 -48 0
v -32 -32 0
v -16 -32 0
v -32 -48 0
v -48 -48 0
v -48 -32 0
v -32 -32 0
v -48 -48 0
v -64 -48 0
v -64 -32 0
v -48 -32 0
v -64 -48 0
v -80 -48 0
v -80 -32 0
v -64 -32 0
v -80 -48 0
v -96 -48 0
v -96 -32 0
v -80 -32 0
v -96 -48 0
v -112 -48 0
v -112 -32 0
v -96 -32 0
v -112 -48 0
v -128 -48 0
v -128 -32 0
v -112 -32 0
v -128 -48 0
v -144 -48 0
v -144 -32 0
v -128 -32 0
v -144 -48 0
v -160 -48 0
v -160 -32 0
v -144 -32 0
v -160 -48 0
v -176 -48 0
v -176 -32 0
v -160 -32 0
v -176 -48 0
v -192 -48 0
v -192 -32 0
v -176 -32 0
v -192 -48 0
v -208 -48 0
v -208 -32 0
v -192 -32 0
v -208 -48 0
v -224 -48 0
v -224 -32 0
v -208 -32 0
v -224 -48 0
v -240 -48 0
v -240 -32 0
v -224 -32 0
v -240 -48 0
v -256 -48 0
v -256 -32 0
v -240 -32 0
v 0 -64 0
v -16 -64 0
v -16 -48 0
v 0 -48 0
v -16 -64 0
v -32 -64 0
v -32 -48 0
v -16 -48 0
v -32 -64 0
v -48 -64 0
v -48 -48 0
v -32 -48 0
v -48 -64 0
v -64 -64 0
v -64 -48 0
v -48 -48 0
v -64 -64 0
v -80 -64 0
v -80 -48 0
v -64 -48 0
v -80 -64 0
v -96 -64 0
v -96 -48 0
v -80 -48 0
v -96 -64 0
v -112 -64 0
v -112 -48 0
v -96 -48 0
v -112 -64 0
v -128 -64 0
v -128 -48 0
v -112 -48 0
v -128 -64 0
v -144 -64 0
v -144 -48 0
v -128 -48 0
v -144 -64 0
v -160 -64 0
v -160 -48 0
v -144 -48 0
v -160 -64 0
v -176 -64 0
v -176 -48 0
v -160 -48 0
v -176 -64 0
v -192 -64 0
v -192 -48 0
v -176 -48 0
v -192 -64 0
v -208 -64 0
v -208 -48 0
v -192 -48 0
v -208 -64 0
v -224 -64 0
v -224 -48 0
v -208 -48 0
v -224 -64 0
v -240 -64 0
v -240 -48 0
v -224 -48 0
v -240 -64 0
v -256 -64 0
v -256 -48 0
v -240 -48 0
v 0 -80 0
v -16 -80 0
v -16 -64 0
v 0 -64 0
v -16 -80 0
v -32 -80 0
v -32 -64 0
v -16 -64 0
v -32 -80 0
v -48 -80 0
v -48 -64 0
v -32 -64 0
v -48 -80 0
v -64 -80 0
v -64 -64 0
v -48 -64 0
v -64 -80 0
v -80 -80 0
v -80 -64 0
v -64 -64 0
v -80 -80 0
v -96 -80 0
v -96 -64 0
v -80 -64 0
v -96 -80 0
v -112 -80 0
v -112 -64 0
v -96 -64 0
v -112 -80 0
v -128 -80 0
v -128 -64 0
v -112 -64 0
v -128 -80 0
v -144 -80 0
v -144 -64 0
v -128 -64 0
v -144 -80 0
v -160 -80 0
v -160 -64 0
v -144 -64 0
v -160 -80 0
v -176 -80 0
v -176 -64 0
v -160 -64 0
v -176 -80 0
v -192 -80 0
v -192 -64 0
v -176 -64 0
v -192 -80 0
v -208 -80 0
v -208 -64 0
v -192 -64 0
v -208 -80 0
v -224 -80 0
v -224 -64 0
v -208 -64 0
v -224 -80 0
v -240 -80 0
v -240 -64 0
v -224 -64 0
v -240 -80 0
v -256 -80 0
v -256 -64 0
v -240 -64 0
v 0 -96 0
v -16 -96 0
v -16 -80 0
v 0 -80 0
v -16 -96 0
v -32 -96 0
v -32 -80 0
v -16 -80 0
v -32 -96 0
v -48 -96 0
v -48 -80 0
v -32 -80 0
v -48 -96 0
v -64 -96 0
v -64 -80 0
v -48 -80 0
v -64 -96 0
v -80 -96 0
v -80 -80 0
v -64 -80 0
v -80 -96 0
v -96 -96 0
v -96 -80 0
v -80 -80 0
v -96 -96 0
v -112 -96 0
v -112 -80 0
v -96 -80 0
v -112 -96 0
v -128 -96 0
v -128 -80 0
v -112 -80 0
v -128 -96 0
v -144 -96 0
v -144 -80 0
v -128 -80 0
v -144 -96 0
v -160 -96 0
v -160 -80 0
v -144 -80 0
v -160 -96 0
v -176 -96 0
v -176 -80 0
v -160 -80 0
v -176 -96 0
v -192 -96 0
v -192 -80 0
v -176 -80 0
v -192 -96 0
v -208 -96 0
v -208 -80 0
v -192 -80 0
v -208 -96 0
v -224 -96 0
v -224 -80 0
v -208 -80 0
v -224 -96 0
v -240 -96 0
v -240 -80 0
v -224 -80 0
v -240 -96 0
v -256 -96 0
v -256 -80 0
v -240 -80 0
v 0 -112 0
v -16 -112 0
v -16 -96 0
v 0 -96 0
v -16 -112 0
v -32 -112 0
v -32 -96 0
v -16 -96 0
v -32 -112 0
v -48 -112 0
v -48 -96 0
v -32 -96 0
v -48 -112 0
v -64 -112 0
v -64 -96 0
v -48 -96 0
v -64 -112 0
v -80 -112 0
v -80 -96 0
v -64 -96 0
v -80 -112 0
v -96 -112 0
v -96 -96 0
v -80 -96 0
v -96 -112 0
v -112 -112 0
v -112 -96 0
v -96 -96 0
v -112 -112 0
v -128 -112 0
v -128 -96 0
v -112 -96 0
v -128 -112 0
v -144 -112 0
v -144 -96 0
v -128 -96 0
v -144 -112 0
v -160 -112 0
v -160 -96 0
v -144 -96 0
v -160 -112 0
v -176 -112 0
v -176 -96 0
v -160 -96 0
v -176 -112 0
v -192 -112 0
v -192 -96 0
v -176 -96 0
v -192 -112 0
v -208 -112 0
v -208 -96 0
v -192 -96 0
v -208 -112 0
v -224 -112 0
v -224 -96 0
v -208 -96 0
v -224 -112 0
v -240 -112 0
v -240 -96 0
v -224 -96 0
v -240 -112 0
v -256 -112 0
v -256 -96 0
v -240 -96 0
v 0 -128 0
v -16 -128 0
v -16 -112 0
v 0 -112 0
v -16 -128 0
v -32 -128 0
v -32 -112 0
v -16 -112 0
v -32 -128 0
v -48 -128 0
v -48 -112 0
v -32 -112 0
v -48 -128 0
v -64 -128 0
v -64 -112 0
v -48 -112 0
v -64 -128 0
v -80 -128 0
v -80 -112 0
v -64 -112 0
v -80 -128 0
v -96 -128 0
v -96 -112 0
v -80 -112 0
v -96 -128 0
v -112 -128 0
v -112 -112 0
v -96 -112 0
v -112 -128 0
v -128 -128 0
v -128 -112 0
v -112 -112 0
v -128 -128 0
v -144 -128 0
v -144 -112 0
v -128 -112 0
v -144 -128 0
v -160 -128 0
v -160 -112 0
v -144 -112 0
v -160 -128 0
v -176 -128 0
v -176 -112 0
v -160 -112 0
v -176 -128 0
v -192 -128 0
v -192 -112 0
v -176 -112 0
v -192 -128 0
v -208 -128 0
v -208 -112 0
v -192 -112 0
v -208 -128 0
v -224 -128 0
v -224 -112 0
v -208 -112 0
v -224 -128 0
v -240 -128 0
v -240 -112 0
v -224 -112 0
v -240 -128 0
v -256 -128 0
v -256 -112 0
v -240 -112 0
v 0 -144 0
v -16 -144 0
v -16 -128 0
v 0 -128 0
v -16 -144 0
v -32 -144 0
v -32 -128 0
v -16 -128 0
v -32 -144 0
v -48 -144 0
v -48 -128 0
v -32 -128 0
v -48 -144 0
v -64 -144 0
v -64 -128 0
v -48 -128 0
v -64 -144 0
v -80 -144 0
v -80 -128 0
v -64 -128 0
v -80 -144 0
v -96 -144 0
v -96 -128 0
v -80 -128 0
v -96 -144 0
v -112 -144 0
v -112 -128 0
v -96 -128 0
v -112 -144 0
v -128 -144 0
v -128 -128 0
v -112 -128 0
v -128 -144 0
v -144 -144 0
v -144 -128 0
v -128 -128 0
v -144 -144 0
v -160 -144 0
v -160 -128 0
v -144 -128 0
v -160 -144 0
v -176 -144 0
v -176 -128 0
v -160 -128 0
v -176 -144 0
v -192 -144 0
v -192 -128 0
v -176 -128 0
v -192 -144 0
v -208 -144 0
v -208 -128 0
v -192 -128 0
v -208 -144 0
v -224 -144 0
v -224 -128 0
v -208 -128 0
v -224 -144 0
v -240 -144 0
v -240 -128 0
v -224 -128 0
v -240 -144 0
v -256 -144 0
v -256 -128 0
v -240 -128 0
v 0 -160 0
v -16 -160 0
v -16 -144 0
v 0 -144 0
v -16 -160 0
v -32 -160 0
v -32 -144 0
v -16 -144 0
v -32 -160 0
v -48 -160 0
v -48 -144 0
v -32 -144 0
v -48 -160 0
v -64 -160 0
v -64 -144 0
v -48 -144 0
v -64 -160 0
v -80 -160 0
v -80 -144 0
v -64 -144 0
v -80 -160 0
v -96 -160 0
v -96 -144 0
v -80 -144 0
v -96 -160 0
v -112 -160 0
v -112 -144 0
v -96 -144 0
v -112 -160 0
v -128 -160 0
v -128 -144 0
v -112 -144 0
v -128 -160 0
v -144 -160 0
v -144 -144 0
v -128 -144 0
v -144 -160 0
v -160 -160 0
v -160 -144 0
v -144 -144 0
v -160 -160 0
v -176 -160 0
v -176 -144 0
v -160 -144 0
v -176 -160 0
v -192 -160 0
v -192 -144 0
v -176 -144 0
v -192 -160 0
v -208 -160 0
v -208 -144 0
v -192 -144 0
v -208 -160 0
v -224 -160 0
v -224 -144 0
v -208 -144 0
v -224 -160 0
v -240 -160 0
v -240 -144 0
v -224 -144 0
v -240 -160 0
v -256 -160 0
v -256 -144 0
v -240 -144 0
v 0 -176 0
v -16 -176 0
v -16 -160 0
v 0 -160 0
v -16 -176 0
v -32 -176 0
v -32 -160 0
v -16 -160 0
v -32 -176 0
v -48 -176 0
v -48 -160 0
v -32 -160 0
v -48 -176 0
v -64 -176 0
v -64 -160 0
v -48 -160 0
v -64 -176 0
v -80 -176 0
v -80 -160 0
v -64 -160 0
v -80 -176 0
v -96 -176 0
v -96 -160 0
v -80 -160 0
v -96 -176 0
v -112 -176 0
v -112 -160 0
v -96 -160 0
v -112 -176 0
v -128 -176 0
v -128 -160 0
v -112 -160 0
v -128 -176 0
v -144 -176 0
v -144 -160 0
v -128 -160 0
v -144 -176 0
v -160 -176 0
v -160 -160 0
v -144 -160 0
v -160 -176 0
v -176 -176 0
v -176 -160 0
v -160 -160 0
v -176 -176 0
v -192 -176 0
v -192 -160 0
v -176 -160 0
v -192 -176 0
v -208 -176 0
v -208 -160 0
v -192 -160 0
v -208 -176 0
v -224 -176 0
v -224 -160 0
v -208 -160 0
v -224 -176 0
v -240 -176 0
v -240 -160 0
v -224 -160 0
v -240 -176 0
v -256 -176 0
v -256 -160 0
v -240 -160 0
v 0 -192 0
v -16 -192 0
v -16 -176 0
v 0 -176 0
v -16 -192 0
v -32 -192 0
v -32 -176 0
v -16 -176 0
v -32 -192 0
v -48 -192 0
v -48 -176 0
v -32 -176 0
v -48 -192 0
v -64 -192 0
v -64 -176 0
v -48 -176 0
v -64 -192 0
v -80 -192 0
v -80 -176 0
v -64 -176 0
v -80 -192 0
v -96 -192 0
v -96 -176 0
v -80 -176 0
v -96 -192 0
v -112 -192 0
v -112 -176 0
v -96 -176 0
v -112 -192 0
v -128 -192 0
v -128 -176 0
v -112 -176 0
v -128 -192 0
v -144 -192 0
v -144 -176 0
v -128 -176 0
v -144 -192 0
v -160 -192 0
v -160 -176 0
v -144 -176 0
v -160 -192 0
v -176 -192 0
v -176 -176 0
v -160 -176 0
v -176 -192 0
v -192 -192 0
v -192 -176 0
v -176 -176 0
v -192 -192 0
v -208 -192 0
v -208 -176 0
v -192 -176 0
v -208 -192 0
v -224 -192 0
v -224 -176 0
v -208 -176 0
v -224 -192 0
v -240 -192 0
v -240 -176 0
v -224 -176 0
v -240 -192 0
v -256 -192 0
v -256 -176 0
v -240 -176 0
v 0 -208 0
v -16 -208 0
v -16 -192 0
v 0 -192 0
v -16 -208 0
v -32 -208 0
v -32 -192 0
v -16 -192 0
v -32 -208 0
v -48 -208 0
v -48 -192 0
v -32 -192 0
v -48 -208 0
v -64 -208 0
v -64 -192 0
v -48 -192 0
v -64 -208 0
v -80 -208 0
v -80 -192 0
v -64 -192 0
v -80 -208 0
v -96 -208 0
v -96 -192 0
v -80 -192 0
v -96 -208 0
v -112 -208 0
v -112 -192 0
v -96 -192 0
v -112 -208 0
v -128 -208 0
v -128 -192 0
v -112 -192 0
v -128 -208 0
v -144 -208 0
v -144 -192 0
v -128 -192 0
v -144 -208 0
v -160 -208 0
v -160 -192 0
v -144 -192 0
v -160 -208 0
v -176 -208 0
v -176 -192 0
v -160 -192 0
v -176 -208 0
v -192 -208 0
v -192 -192 0
v -176 -192 0
v -192 -208 0
v -208 -208 0
v -208 -192 0
v -192 -192 0
v -208 -208 0
v -224 -208 0
v -224 -192 0
v -208 -192 0
v -224 -208 0
v -240 -208 0
v -240 -192 0
v -224 -192 0
v -240 -208 0
v -256 -208 0
v -256 -192 0
v -240 -192 0
v 0 -224 0
v -16 -224 0
v -16 -208 0
v 0 -208 0
v -16 -224 0
v -32 -224 0
v -32 -208 0
v -16 -208 0
v -32 -224 0
v -48 -224 0
v -48 -208 0
v -32 -208 0
v -48 -224 0
v -64 -224 0
v -64 -208 0
v -48 -208 0
v -64 -224 0
v -80 -224 0
v -80 -208 0
v -64 -208 0
v -80 -224 0
v -96 -224 0
v -96 -208 0
v -80 -208 0
v -96 -224 0
v -112 -224 0
v -112 -208 0
v -96 -208 0
v -112 -224 0
v -128 -224 0
v -128 -208 0
v -112 -208 0
v -128 -224 0
v -144 -224 0
v -144 -208 0
v -128 -208 0
v -144 -224 0
v -160 -224 0
v -160 -208 0
v -144 -208 0
v -160 -224 0
v -176 -224 0
v -176 -208 0
v -160 -208 0
v -176 -224 0
v -192 -224 0
v -192 -208 0
v -176 -208 0
v -192 -224 0
v -208 -224 0
v -208 -208 0
v -192 -208 0
v -208 -224 0
v -224 -224 0
v -224 -208 0
v -208 -208 0
v -224 -224 0
v -240 -224 0
v -240 -208 0
v -224 -208 0
v -240 -224 0
v -256 -224 0
v -256 -208 0
v -240 -208 0
v 0 -240 0
v -16 -240 0
v -16 -224 0
v 0 -224 0
v -16 -240 0
v -32 -240 0
v -32 -224 0
v -16 -224 0
v -32 -240 0
v -48 -240 0
v -48 -224 0
v -32 -224 0
v -48 -240 0
v -64 -240 0
v -64 -224 0
v -48 -224 0
v -64 -240 0
v -80 -240 0
v -80 -224 0
v -64 -224 0
v -80 -240 0
v -96 -240 0
v -96 -224 0
v -80 -224 0
v -96 -240 0
v -112 -240 0
v -112 -224 0
v -96 -224 0
v -112 -240 0
v -128 -240 0
v -128 -224 0
v -112 -224 0
v -128 -240 0
v -144 -240 0
v -144 -224 0
v -128 -224 0
v -144 -240 0
v -160 -240 0
v -160 -224 0
v -144 -224 0
v -160 -240 0
v -176 -240 0
v -176 -224 0
v -160 -224 0
v -176 -240 0
v -192 -240 0
v -192 -224 0
v -176 -224 0
v -192 -240 0
v -208 -240 0
v -208 -224 0
v -192 -224 0
v -208 -240 0
v -224 -240 0
v -224 -224 0
v -208 -224 0
v -224 -240 0
v -240 -240 0
v -240 -224 0
v -224 -224 0
v -240 -240 0
v -256 -240 0
v -256 -224 0
v -240 -224 0
v 0 -256 0
v -16 -256 0
v -16 -240 0
v 0 -240 0
v -16 -256 0
v -32 -256 0
v -32 -240 0
v -16 -240 0
v -32 -256 0
v -48 -256 0
v -48 -240 0
v -32 -240 0
v -48 -256 0
v -64 -256 0
v -64 -240 0
v -48 -240 0
v -64 -256 0
v -80 -256 0
v -80 -240 0
v -64 -240 0
v -80 -256 0
v -96 -256 0
v -96 -240 0
v -80 -240 0
v -96 -256 0
v -112 -256 0
v -112 -240 0
v -96 -240 0
v -112 -256 0
v -128 -256 0
v -128 -240 0
v -112 -240 0
v -128 -256 0
v -144 -256 0
v -144 -240 0
v -128 -240 0
v -144 -256 0
v -160 -256 0
v -160 -240 0
v -144 -240 0
v -160 -256 0
v -176 -256 0
v -176 -240 0
v -160 -240 0
v -176 -256 0
v -192 -256 0
v -192 -240 0
v -176 -240 0
v -192 -256 0
v -208 -256 0
v -208 -240 0
v -192 -240 0
v -208 -256 0
v -224 -256 0
v -224 -240 0
v -208 -240 0
v -224 -256 0
v -240 -256 0
v -240 -240 0
v -224 -240 0
v -240 -256 0
v -256 -256 0
v -256 -240 0
v -240 -240 0

# Texture cooridinates (Count = 49)
vt 0.01171875 0.4375
vt 0.015625 0.4375
vt 0.015625 0.453125
vt 0.01171875 0.453125
vt 0.01953125 0.453125
vt 0.01953125 0.46875
vt 0.015625 0.46875
vt 0.02734375 0.4375
vt 0.03125 0.4375
vt 0.03125 0.453125
vt 0.02734375 0.453125
vt 0.02734375 0.421875
vt 0.03125 0.421875
vt 0.015625 0.390625
vt 0.01953125 0.390625
vt 0.01953125 0.40625
vt 0.015625 0.40625
vt 0.0234375 0.453125
vt 0.02734375 0.46875
vt 0.0234375 0.46875
vt 0.0234375 0.484375
vt 0.01953125 0.484375
vt 0.0078125 0.390625
vt 0.01171875 0.390625
vt 0.01171875 0.40625
vt 0.0078125 0.40625
vt 0.01953125 0.421875
vt 0.015625 0.421875
vt 0.03125 0.46875
vt 0.03125 0.484375
vt 0.02734375 0.484375
vt 0.01171875 0.421875
vt 0.0234375 0.4375
vt 0.0078125 0.421875
vt 0.0078125 0.453125
vt 0.01171875 0.46875
vt 0.0078125 0.46875
vt 0.015625 0.484375
vt 0.01171875 0.484375
vt 0.0234375 0.40625
vt 0.02734375 0.40625
vt 0.0234375 0.421875
vt 0.02734375 0.390625
vt 0.03125 0.390625
vt 0.03125 0.40625
vt 0.01953125 0.4375
vt 0.0078125 0.4375
vt 0.0234375 0.390625
vt 0.0078125 0.484375

# Normal
vn 0 0 -1

# Mesh description
g TitleIntro_mesh_0020

# Faces
f 1/1/1 2/2/1 3/3/1 4/4/1
f 5/3/1 6/5/1 7/6/1 8/7/1
f 9/8/1 10/9/1 11/10/1 12/11/1
f 13/12/1 14/13/1 15/9/1 16/8/1
f 17/14/1 18/15/1 19/16/1 20/17/1
f 21/18/1 22/11/1 23/19/1 24/20/1
f 25/6/1 26/20/1 27/21/1 28/22/1
f 29/3/1 30/5/1 31/6/1 32/7/1
f 33/5/1 34/18/1 35/20/1 36/6/1
f 37/23/1 38/24/1 39/25/1 40/26/1
f 41/17/1 42/16/1 43/27/1 44/28/1
f 45/17/1 46/16/1 47/27/1 48/28/1
f 49/19/1 50/29/1 51/30/1 52/31/1
f 53/32/1 54/28/1 55/2/1 56/1/1
f 57/33/1 58/8/1 59/11/1 60/18/1
f 61/32/1 62/28/1 63/2/1 64/1/1
f 65/11/1 66/10/1 67/29/1 68/19/1
f 69/3/1 70/5/1 71/6/1 72/7/1
f 73/8/1 74/9/1 75/10/1 76/11/1
f 77/26/1 78/25/1 79/32/1 80/34/1
f 81/35/1 82/4/1 83/36/1 84/37/1
f 85/36/1 86/7/1 87/38/1 88/39/1
f 89/40/1 90/41/1 91/12/1 92/42/1
f 93/24/1 94/14/1 95/17/1 96/25/1
f 97/43/1 98/44/1 99/45/1 100/41/1
f 101/14/1 102/15/1 103/16/1 104/17/1
f 105/43/1 106/44/1 107/45/1 108/41/1
f 109/19/1 110/29/1 111/30/1 112/31/1
f 113/3/1 114/5/1 115/6/1 116/7/1
f 117/6/1 118/20/1 119/21/1 120/22/1
f 121/16/1 122/40/1 123/42/1 124/27/1
f 125/26/1 126/25/1 127/32/1 128/34/1
f 129/18/1 130/11/1 131/19/1 132/20/1
f 133/26/1 134/25/1 135/32/1 136/34/1
f 137/28/1 138/27/1 139/46/1 140/2/1
f 141/2/1 142/46/1 143/5/1 144/3/1
f 145/25/1 146/17/1 147/28/1 148/32/1
f 149/5/1 150/18/1 151/20/1 152/6/1
f 153/35/1 154/4/1 155/36/1 156/37/1
f 157/8/1 158/9/1 159/10/1 160/11/1
f 161/25/1 162/17/1 163/28/1 164/32/1
f 165/36/1 166/7/1 167/38/1 168/39/1
f 169/36/1 170/7/1 171/38/1 172/39/1
f 173/12/1 174/13/1 175/9/1 176/8/1
f 177/3/1 178/5/1 179/6/1 180/7/1
f 181/18/1 182/11/1 183/19/1 184/20/1
f 185/2/1 186/46/1 187/5/1 188/3/1
f 189/28/1 190/27/1 191/46/1 192/2/1
f 193/47/1 194/1/1 195/4/1 196/35/1
f 197/35/1 198/4/1 199/36/1 200/37/1
f 201/6/1 202/20/1 203/21/1 204/22/1
f 205/34/1 206/32/1 207/1/1 208/47/1
f 209/27/1 210/42/1 211/33/1 212/46/1
f 213/16/1 214/40/1 215/42/1 216/27/1
f 217/16/1 218/40/1 219/42/1 220/27/1
f 221/15/1 222/48/1 223/40/1 224/16/1
f 225/3/1 226/5/1 227/6/1 228/7/1
f 229/47/1 230/1/1 231/4/1 232/35/1
f 233/34/1 234/32/1 235/1/1 236/47/1
f 237/12/1 238/13/1 239/9/1 240/8/1
f 241/40/1 242/41/1 243/12/1 244/42/1
f 245/24/1 246/14/1 247/17/1 248/25/1
f 249/27/1 250/42/1 251/33/1 252/46/1
f 253/25/1 254/17/1 255/28/1 256/32/1
f 257/26/1 258/25/1 259/32/1 260/34/1
f 261/7/1 262/6/1 263/22/1 264/38/1
f 265/33/1 266/8/1 267/11/1 268/18/1
f 269/46/1 270/33/1 271/18/1 272/5/1
f 273/17/1 274/16/1 275/27/1 276/28/1
f 277/24/1 278/14/1 279/17/1 280/25/1
f 281/40/1 282/41/1 283/12/1 284/42/1
f 285/48/1 286/43/1 287/41/1 288/40/1
f 289/2/1 290/46/1 291/5/1 292/3/1
f 293/40/1 294/41/1 295/12/1 296/42/1
f 297/18/1 298/11/1 299/19/1 300/20/1
f 301/46/1 302/33/1 303/18/1 304/5/1
f 305/16/1 306/40/1 307/42/1 308/27/1
f 309/25/1 310/17/1 311/28/1 312/32/1
f 313/4/1 314/3/1 315/7/1 316/36/1
f 317/17/1 318/16/1 319/27/1 320/28/1
f 321/34/1 322/32/1 323/1/1 324/47/1
f 325/3/1 326/5/1 327/6/1 328/7/1
f 329/40/1 330/41/1 331/12/1 332/42/1
f 333/43/1 334/44/1 335/45/1 336/41/1
f 337/34/1 338/32/1 339/1/1 340/47/1
f 341/4/1 342/3/1 343/7/1 344/36/1
f 345/1/1 346/2/1 347/3/1 348/4/1
f 349/6/1 350/20/1 351/21/1 352/22/1
f 353/18/1 354/11/1 355/19/1 356/20/1
f 357/46/1 358/33/1 359/18/1 360/5/1
f 361/36/1 362/7/1 363/38/1 364/39/1
f 365/47/1 366/1/1 367/4/1 368/35/1
f 369/46/1 370/33/1 371/18/1 372/5/1
f 373/40/1 374/41/1 375/12/1 376/42/1
f 377/28/1 378/27/1 379/46/1 380/2/1
f 381/43/1 382/44/1 383/45/1 384/41/1
f 385/40/1 386/41/1 387/12/1 388/42/1
f 389/46/1 390/33/1 391/18/1 392/5/1
f 393/20/1 394/19/1 395/31/1 396/21/1
f 397/42/1 398/12/1 399/8/1 400/33/1
f 401/19/1 402/29/1 403/30/1 404/31/1
f 405/37/1 406/36/1 407/39/1 408/49/1
f 409/28/1 410/27/1 411/46/1 412/2/1
f 413/17/1 414/16/1 415/27/1 416/28/1
f 417/42/1 418/12/1 419/8/1 420/33/1
f 421/47/1 422/1/1 423/4/1 424/35/1
f 425/28/1 426/27/1 427/46/1 428/2/1
f 429/35/1 430/4/1 431/36/1 432/37/1
f 433/37/1 434/36/1 435/39/1 436/49/1
f 437/14/1 438/15/1 439/16/1 440/17/1
f 441/12/1 442/13/1 443/9/1 444/8/1
f 445/48/1 446/43/1 447/41/1 448/40/1
f 449/28/1 450/27/1 451/46/1 452/2/1
f 453/1/1 454/2/1 455/3/1 456/4/1
f 457/12/1 458/13/1 459/9/1 460/8/1
f 461/15/1 462/48/1 463/40/1 464/16/1
f 465/41/1 466/45/1 467/13/1 468/12/1
f 469/20/1 470/19/1 471/31/1 472/21/1
f 473/5/1 474/18/1 475/20/1 476/6/1
f 477/2/1 478/46/1 479/5/1 480/3/1
f 481/4/1 482/3/1 483/7/1 484/36/1
f 485/35/1 486/4/1 487/36/1 488/37/1
f 489/46/1 490/33/1 491/18/1 492/5/1
f 493/27/1 494/42/1 495/33/1 496/46/1
f 497/26/1 498/25/1 499/32/1 500/34/1
f 501/2/1 502/46/1 503/5/1 504/3/1
f 505/8/1 506/9/1 507/10/1 508/11/1
f 509/35/1 510/4/1 511/36/1 512/37/1
f 513/28/1 514/27/1 515/46/1 516/2/1
f 517/47/1 518/1/1 519/4/1 520/35/1
f 521/28/1 522/27/1 523/46/1 524/2/1
f 525/16/1 526/40/1 527/42/1 528/27/1
f 529/7/1 530/6/1 531/22/1 532/38/1
f 533/11/1 534/10/1 535/29/1 536/19/1
f 537/11/1 538/10/1 539/29/1 540/19/1
f 541/35/1 542/4/1 543/36/1 544/37/1
f 545/26/1 546/25/1 547/32/1 548/34/1
f 549/28/1 550/27/1 551/46/1 552/2/1
f 553/15/1 554/48/1 555/40/1 556/16/1
f 557/12/1 558/13/1 559/9/1 560/8/1
f 561/4/1 562/3/1 563/7/1 564/36/1
f 565/48/1 566/43/1 567/41/1 568/40/1
f 569/3/1 570/5/1 571/6/1 572/7/1
f 573/6/1 574/20/1 575/21/1 576/22/1
f 577/19/1 578/29/1 579/30/1 580/31/1
f 581/23/1 582/24/1 583/25/1 584/26/1
f 585/37/1 586/36/1 587/39/1 588/49/1
f 589/42/1 590/12/1 591/8/1 592/33/1
f 593/42/1 594/12/1 595/8/1 596/33/1
f 597/14/1 598/15/1 599/16/1 600/17/1
f 601/33/1 602/8/1 603/11/1 604/18/1
f 605/23/1 606/24/1 607/25/1 608/26/1
f 609/32/1 610/28/1 611/2/1 612/1/1
f 613/3/1 614/5/1 615/6/1 616/7/1
f 617/46/1 618/33/1 619/18/1 620/5/1
f 621/6/1 622/20/1 623/21/1 624/22/1
f 625/24/1 626/14/1 627/17/1 628/25/1
f 629/33/1 630/8/1 631/11/1 632/18/1
f 633/34/1 634/32/1 635/1/1 636/47/1
f 637/46/1 638/33/1 639/18/1 640/5/1
f 641/5/1 642/18/1 643/20/1 644/6/1
f 645/47/1 646/1/1 647/4/1 648/35/1
f 649/15/1 650/48/1 651/40/1 652/16/1
f 653/47/1 654/1/1 655/4/1 656/35/1
f 657/37/1 658/36/1 659/39/1 660/49/1
f 661/2/1 662/46/1 663/5/1 664/3/1
f 665/8/1 666/9/1 667/10/1 668/11/1
f 669/4/1 670/3/1 671/7/1 672/36/1
f 673/34/1 674/32/1 675/1/1 676/47/1
f 677/36/1 678/7/1 679/38/1 680/39/1
f 681/28/1 682/27/1 683/46/1 684/2/1
f 685/23/1 686/24/1 687/25/1 688/26/1
f 689/5/1 690/18/1 691/20/1 692/6/1
f 693/36/1 694/7/1 695/38/1 696/39/1
f 697/15/1 698/48/1 699/40/1 700/16/1
f 701/18/1 702/11/1 703/19/1 704/20/1
f 705/15/1 706/48/1 707/40/1 708/16/1
f 709/1/1 710/2/1 711/3/1 712/4/1
f 713/24/1 714/14/1 715/17/1 716/25/1
f 717/14/1 718/15/1 719/16/1 720/17/1
f 721/33/1 722/8/1 723/11/1 724/18/1
f 725/17/1 726/16/1 727/27/1 728/28/1
f 729/15/1 730/48/1 731/40/1 732/16/1
f 733/4/1 734/3/1 735/7/1 736/36/1
f 737/7/1 738/6/1 739/22/1 740/38/1
f 741/43/1 742/44/1 743/45/1 744/41/1
f 745/16/1 746/40/1 747/42/1 748/27/1
f 749/5/1 750/18/1 751/20/1 752/6/1
f 753/43/1 754/44/1 755/45/1 756/41/1
f 757/16/1 758/40/1 759/42/1 760/27/1
f 761/3/1 762/5/1 763/6/1 764/7/1
f 765/28/1 766/27/1 767/46/1 768/2/1
f 769/8/1 770/9/1 771/10/1 772/11/1
f 773/28/1 774/27/1 775/46/1 776/2/1
f 777/36/1 778/7/1 779/38/1 780/39/1
f 781/27/1 782/42/1 783/33/1 784/46/1
f 785/34/1 786/32/1 787/1/1 788/47/1
f 789/32/1 790/28/1 791/2/1 792/1/1
f 793/48/1 794/43/1 795/41/1 796/40/1
f 797/2/1 798/46/1 799/5/1 800/3/1
f 801/46/1 802/33/1 803/18/1 804/5/1
f 805/8/1 806/9/1 807/10/1 808/11/1
f 809/43/1 810/44/1 811/45/1 812/41/1
f 813/20/1 814/19/1 815/31/1 816/21/1
f 817/4/1 818/3/1 819/7/1 820/36/1
f 821/47/1 822/1/1 823/4/1 824/35/1
f 825/20/1 826/19/1 827/31/1 828/21/1
f 829/5/1 830/18/1 831/20/1 832/6/1
f 833/35/1 834/4/1 835/36/1 836/37/1
f 837/40/1 838/41/1 839/12/1 840/42/1
f 841/20/1 842/19/1 843/31/1 844/21/1
f 845/47/1 846/1/1 847/4/1 848/35/1
f 849/16/1 850/40/1 851/42/1 852/27/1
f 853/16/1 854/40/1 855/42/1 856/27/1
f 857/5/1 858/18/1 859/20/1 860/6/1
f 861/12/1 862/13/1 863/9/1 864/8/1
f 865/27/1 866/42/1 867/33/1 868/46/1
f 869/2/1 870/46/1 871/5/1 872/3/1
f 873/23/1 874/24/1 875/25/1 876/26/1
f 877/5/1 878/18/1 879/20/1 880/6/1
f 881/17/1 882/16/1 883/27/1 884/28/1
f 885/7/1 886/6/1 887/22/1 888/38/1
f 889/18/1 890/11/1 891/19/1 892/20/1
f 893/26/1 894/25/1 895/32/1 896/34/1
f 897/1/1 898/2/1 899/3/1 900/4/1
f 901/4/1 902/3/1 903/7/1 904/36/1
f 905/43/1 906/44/1 907/45/1 908/41/1
f 909/15/1 910/48/1 911/40/1 912/16/1
f 913/17/1 914/16/1 915/27/1 916/28/1
f 917/4/1 918/3/1 919/7/1 920/36/1
f 921/18/1 922/11/1 923/19/1 924/20/1
f 925/46/1 926/33/1 927/18/1 928/5/1
f 929/14/1 930/15/1 931/16/1 932/17/1
f 933/1/1 934/2/1 935/3/1 936/4/1
f 937/11/1 938/10/1 939/29/1 940/19/1
f 941/16/1 942/40/1 943/42/1 944/27/1
f 945/36/1 946/7/1 947/38/1 948/39/1
f 949/11/1 950/10/1 951/29/1 952/19/1
f 953/3/1 954/5/1 955/6/1 956/7/1
f 957/46/1 958/33/1 959/18/1 960/5/1
f 961/28/1 962/27/1 963/46/1 964/2/1
f 965/8/1 966/9/1 967/10/1 968/11/1
f 969/8/1 970/9/1 971/10/1 972/11/1
f 973/7/1 974/6/1 975/22/1 976/38/1
f 977/48/1 978/43/1 979/41/1 980/40/1
f 981/4/1 982/3/1 983/7/1 984/36/1
f 985/42/1 986/12/1 987/8/1 988/33/1
f 989/1/1 990/2/1 991/3/1 992/4/1
f 993/46/1 994/33/1 995/18/1 996/5/1
f 997/17/1 998/16/1 999/27/1 1000/28/1
f 1001/26/1 1002/25/1 1003/32/1 1004/34/1
f 1005/27/1 1006/42/1 1007/33/1 1008/46/1
f 1009/14/1 1010/15/1 1011/16/1 1012/17/1
f 1013/25/1 1014/17/1 1015/28/1 1016/32/1
f 1017/1/1 1018/2/1 1019/3/1 1020/4/1
f 1021/40/1 1022/41/1 1023/12/1 1024/42/1

