# Tiled2Unity generated file. Do not modify by hand.
# Wavefront file for 'TitleIntro_mesh_0036.obj'

# Vertices (Count = 384)
v 0 -16 0
v -16 -16 0
v -16 0 0
v 0 0 0
v -16 -16 0
v -32 -16 0
v -32 0 0
v -16 0 0
v -32 -16 0
v -48 -16 0
v -48 0 0
v -32 0 0
v -48 -16 0
v -64 -16 0
v -64 0 0
v -48 0 0
v -64 -16 0
v -80 -16 0
v -80 0 0
v -64 0 0
v -80 -16 0
v -96 -16 0
v -96 0 0
v -80 0 0
v 0 -32 0
v -16 -32 0
v -16 -16 0
v 0 -16 0
v -16 -32 0
v -32 -32 0
v -32 -16 0
v -16 -16 0
v -32 -32 0
v -48 -32 0
v -48 -16 0
v -32 -16 0
v -48 -32 0
v -64 -32 0
v -64 -16 0
v -48 -16 0
v -64 -32 0
v -80 -32 0
v -80 -16 0
v -64 -16 0
v -80 -32 0
v -96 -32 0
v -96 -16 0
v -80 -16 0
v 0 -48 0
v -16 -48 0
v -16 -32 0
v 0 -32 0
v -16 -48 0
v -32 -48 0
v -32 -32 0
v -16 -32 0
v -32 -48 0
v -48 -48 0
v -48 -32 0
v -32 -32 0
v -48 -48 0
v -64 -48 0
v -64 -32 0
v -48 -32 0
v -64 -48 0
v -80 -48 0
v -80 -32 0
v -64 -32 0
v -80 -48 0
v -96 -48 0
v -96 -32 0
v -80 -32 0
v 0 -64 0
v -16 -64 0
v -16 -48 0
v 0 -48 0
v -16 -64 0
v -32 -64 0
v -32 -48 0
v -16 -48 0
v -32 -64 0
v -48 -64 0
v -48 -48 0
v -32 -48 0
v -48 -64 0
v -64 -64 0
v -64 -48 0
v -48 -48 0
v -64 -64 0
v -80 -64 0
v -80 -48 0
v -64 -48 0
v -80 -64 0
v -96 -64 0
v -96 -48 0
v -80 -48 0
v 0 -80 0
v -16 -80 0
v -16 -64 0
v 0 -64 0
v -16 -80 0
v -32 -80 0
v -32 -64 0
v -16 -64 0
v -32 -80 0
v -48 -80 0
v -48 -64 0
v -32 -64 0
v -48 -80 0
v -64 -80 0
v -64 -64 0
v -48 -64 0
v -64 -80 0
v -80 -80 0
v -80 -64 0
v -64 -64 0
v -80 -80 0
v -96 -80 0
v -96 -64 0
v -80 -64 0
v 0 -96 0
v -16 -96 0
v -16 -80 0
v 0 -80 0
v -16 -96 0
v -32 -96 0
v -32 -80 0
v -16 -80 0
v -32 -96 0
v -48 -96 0
v -48 -80 0
v -32 -80 0
v -48 -96 0
v -64 -96 0
v -64 -80 0
v -48 -80 0
v -64 -96 0
v -80 -96 0
v -80 -80 0
v -64 -80 0
v -80 -96 0
v -96 -96 0
v -96 -80 0
v -80 -80 0
v 0 -112 0
v -16 -112 0
v -16 -96 0
v 0 -96 0
v -16 -112 0
v -32 -112 0
v -32 -96 0
v -16 -96 0
v -32 -112 0
v -48 -112 0
v -48 -96 0
v -32 -96 0
v -48 -112 0
v -64 -112 0
v -64 -96 0
v -48 -96 0
v -64 -112 0
v -80 -112 0
v -80 -96 0
v -64 -96 0
v -80 -112 0
v -96 -112 0
v -96 -96 0
v -80 -96 0
v 0 -128 0
v -16 -128 0
v -16 -112 0
v 0 -112 0
v -16 -128 0
v -32 -128 0
v -32 -112 0
v -16 -112 0
v -32 -128 0
v -48 -128 0
v -48 -112 0
v -32 -112 0
v -48 -128 0
v -64 -128 0
v -64 -112 0
v -48 -112 0
v -64 -128 0
v -80 -128 0
v -80 -112 0
v -64 -112 0
v -80 -128 0
v -96 -128 0
v -96 -112 0
v -80 -112 0
v 0 -144 0
v -16 -144 0
v -16 -128 0
v 0 -128 0
v -16 -144 0
v -32 -144 0
v -32 -128 0
v -16 -128 0
v -32 -144 0
v -48 -144 0
v -48 -128 0
v -32 -128 0
v -48 -144 0
v -64 -144 0
v -64 -128 0
v -48 -128 0
v -64 -144 0
v -80 -144 0
v -80 -128 0
v -64 -128 0
v -80 -144 0
v -96 -144 0
v -96 -128 0
v -80 -128 0
v 0 -160 0
v -16 -160 0
v -16 -144 0
v 0 -144 0
v -16 -160 0
v -32 -160 0
v -32 -144 0
v -16 -144 0
v -32 -160 0
v -48 -160 0
v -48 -144 0
v -32 -144 0
v -48 -160 0
v -64 -160 0
v -64 -144 0
v -48 -144 0
v -64 -160 0
v -80 -160 0
v -80 -144 0
v -64 -144 0
v -80 -160 0
v -96 -160 0
v -96 -144 0
v -80 -144 0
v 0 -176 0
v -16 -176 0
v -16 -160 0
v 0 -160 0
v -16 -176 0
v -32 -176 0
v -32 -160 0
v -16 -160 0
v -32 -176 0
v -48 -176 0
v -48 -160 0
v -32 -160 0
v -48 -176 0
v -64 -176 0
v -64 -160 0
v -48 -160 0
v -64 -176 0
v -80 -176 0
v -80 -160 0
v -64 -160 0
v -80 -176 0
v -96 -176 0
v -96 -160 0
v -80 -160 0
v 0 -192 0
v -16 -192 0
v -16 -176 0
v 0 -176 0
v -16 -192 0
v -32 -192 0
v -32 -176 0
v -16 -176 0
v -32 -192 0
v -48 -192 0
v -48 -176 0
v -32 -176 0
v -48 -192 0
v -64 -192 0
v -64 -176 0
v -48 -176 0
v -64 -192 0
v -80 -192 0
v -80 -176 0
v -64 -176 0
v -80 -192 0
v -96 -192 0
v -96 -176 0
v -80 -176 0
v 0 -208 0
v -16 -208 0
v -16 -192 0
v 0 -192 0
v -16 -208 0
v -32 -208 0
v -32 -192 0
v -16 -192 0
v -32 -208 0
v -48 -208 0
v -48 -192 0
v -32 -192 0
v -48 -208 0
v -64 -208 0
v -64 -192 0
v -48 -192 0
v -64 -208 0
v -80 -208 0
v -80 -192 0
v -64 -192 0
v -80 -208 0
v -96 -208 0
v -96 -192 0
v -80 -192 0
v 0 -224 0
v -16 -224 0
v -16 -208 0
v 0 -208 0
v -16 -224 0
v -32 -224 0
v -32 -208 0
v -16 -208 0
v -32 -224 0
v -48 -224 0
v -48 -208 0
v -32 -208 0
v -48 -224 0
v -64 -224 0
v -64 -208 0
v -48 -208 0
v -64 -224 0
v -80 -224 0
v -80 -208 0
v -64 -208 0
v -80 -224 0
v -96 -224 0
v -96 -208 0
v -80 -208 0
v 0 -240 0
v -16 -240 0
v -16 -224 0
v 0 -224 0
v -16 -240 0
v -32 -240 0
v -32 -224 0
v -16 -224 0
v -32 -240 0
v -48 -240 0
v -48 -224 0
v -32 -224 0
v -48 -240 0
v -64 -240 0
v -64 -224 0
v -48 -224 0
v -64 -240 0
v -80 -240 0
v -80 -224 0
v -64 -224 0
v -80 -240 0
v -96 -240 0
v -96 -224 0
v -80 -224 0
v 0 -256 0
v -16 -256 0
v -16 -240 0
v 0 -240 0
v -16 -256 0
v -32 -256 0
v -32 -240 0
v -16 -240 0
v -32 -256 0
v -48 -256 0
v -48 -240 0
v -32 -240 0
v -48 -256 0
v -64 -256 0
v -64 -240 0
v -48 -240 0
v -64 -256 0
v -80 -256 0
v -80 -240 0
v -64 -240 0
v -80 -256 0
v -96 -256 0
v -96 -240 0
v -80 -240 0

# Texture cooridinates (Count = 49)
vt 0.02734375 0.40625
vt 0.03125 0.40625
vt 0.03125 0.421875
vt 0.02734375 0.421875
vt 0.01953125 0.421875
vt 0.0234375 0.421875
vt 0.0234375 0.4375
vt 0.01953125 0.4375
vt 0.01171875 0.40625
vt 0.015625 0.40625
vt 0.015625 0.421875
vt 0.01171875 0.421875
vt 0.01953125 0.453125
vt 0.0234375 0.453125
vt 0.0234375 0.46875
vt 0.01953125 0.46875
vt 0.02734375 0.453125
vt 0.02734375 0.46875
vt 0.0078125 0.453125
vt 0.01171875 0.453125
vt 0.01171875 0.46875
vt 0.0078125 0.46875
vt 0.01953125 0.390625
vt 0.0234375 0.390625
vt 0.0234375 0.40625
vt 0.01953125 0.40625
vt 0.02734375 0.390625
vt 0.015625 0.453125
vt 0.015625 0.46875
vt 0.03125 0.46875
vt 0.03125 0.484375
vt 0.02734375 0.484375
vt 0.0234375 0.484375
vt 0.015625 0.4375
vt 0.01171875 0.390625
vt 0.015625 0.390625
vt 0.01171875 0.4375
vt 0.0078125 0.4375
vt 0.01953125 0.484375
vt 0.015625 0.484375
vt 0.01171875 0.484375
vt 0.0078125 0.484375
vt 0.03125 0.453125
vt 0.0078125 0.421875
vt 0.02734375 0.4375
vt 0.0078125 0.40625
vt 0.0078125 0.390625
vt 0.03125 0.4375
vt 0.03125 0.390625

# Normal
vn 0 0 -1

# Mesh description
g TitleIntro_mesh_0036

# Faces
f 1/1/1 2/2/1 3/3/1 4/4/1
f 5/5/1 6/6/1 7/7/1 8/8/1
f 9/9/1 10/10/1 11/11/1 12/12/1
f 13/13/1 14/14/1 15/15/1 16/16/1
f 17/1/1 18/2/1 19/3/1 20/4/1
f 21/14/1 22/17/1 23/18/1 24/15/1
f 25/19/1 26/20/1 27/21/1 28/22/1
f 29/23/1 30/24/1 31/25/1 32/26/1
f 33/24/1 34/27/1 35/1/1 36/25/1
f 37/20/1 38/28/1 39/29/1 40/21/1
f 41/18/1 42/30/1 43/31/1 44/32/1
f 45/15/1 46/18/1 47/32/1 48/33/1
f 49/18/1 50/30/1 51/31/1 52/32/1
f 53/34/1 54/8/1 55/13/1 56/28/1
f 57/35/1 58/36/1 59/10/1 60/9/1
f 61/37/1 62/34/1 63/28/1 64/20/1
f 65/5/1 66/6/1 67/7/1 68/8/1
f 69/10/1 70/26/1 71/5/1 72/11/1
f 73/35/1 74/36/1 75/10/1 76/9/1
f 77/38/1 78/37/1 79/20/1 80/19/1
f 81/29/1 82/16/1 83/39/1 84/40/1
f 85/20/1 86/28/1 87/29/1 88/21/1
f 89/24/1 90/27/1 91/1/1 92/25/1
f 93/22/1 94/21/1 95/41/1 96/42/1
f 97/19/1 98/20/1 99/21/1 100/22/1
f 101/17/1 102/43/1 103/30/1 104/18/1
f 105/24/1 106/27/1 107/1/1 108/25/1
f 109/44/1 110/12/1 111/37/1 112/38/1
f 113/9/1 114/10/1 115/11/1 116/12/1
f 117/29/1 118/16/1 119/39/1 120/40/1
f 121/37/1 122/34/1 123/28/1 124/20/1
f 125/14/1 126/17/1 127/18/1 128/15/1
f 129/7/1 130/45/1 131/17/1 132/14/1
f 133/12/1 134/11/1 135/34/1 136/37/1
f 137/15/1 138/18/1 139/32/1 140/33/1
f 141/21/1 142/29/1 143/40/1 144/41/1
f 145/12/1 146/11/1 147/34/1 148/37/1
f 149/23/1 150/24/1 151/25/1 152/26/1
f 153/12/1 154/11/1 155/34/1 156/37/1
f 157/12/1 158/11/1 159/34/1 160/37/1
f 161/16/1 162/15/1 163/33/1 164/39/1
f 165/34/1 166/8/1 167/13/1 168/28/1
f 169/11/1 170/5/1 171/8/1 172/34/1
f 173/46/1 174/9/1 175/12/1 176/44/1
f 177/19/1 178/20/1 179/21/1 180/22/1
f 181/14/1 182/17/1 183/18/1 184/15/1
f 185/29/1 186/16/1 187/39/1 188/40/1
f 189/23/1 190/24/1 191/25/1 192/26/1
f 193/22/1 194/21/1 195/41/1 196/42/1
f 197/13/1 198/14/1 199/15/1 200/16/1
f 201/47/1 202/35/1 203/9/1 204/46/1
f 205/15/1 206/18/1 207/32/1 208/33/1
f 209/26/1 210/25/1 211/6/1 212/5/1
f 213/10/1 214/26/1 215/5/1 216/11/1
f 217/29/1 218/16/1 219/39/1 220/40/1
f 221/20/1 222/28/1 223/29/1 224/21/1
f 225/4/1 226/3/1 227/48/1 228/45/1
f 229/37/1 230/34/1 231/28/1 232/20/1
f 233/28/1 234/13/1 235/16/1 236/29/1
f 237/44/1 238/12/1 239/37/1 240/38/1
f 241/12/1 242/11/1 243/34/1 244/37/1
f 245/8/1 246/7/1 247/14/1 248/13/1
f 249/27/1 250/49/1 251/2/1 252/1/1
f 253/8/1 254/7/1 255/14/1 256/13/1
f 257/16/1 258/15/1 259/33/1 260/39/1
f 261/24/1 262/27/1 263/1/1 264/25/1
f 265/4/1 266/3/1 267/48/1 268/45/1
f 269/13/1 270/14/1 271/15/1 272/16/1
f 273/34/1 274/8/1 275/13/1 276/28/1
f 277/9/1 278/10/1 279/11/1 280/12/1
f 281/22/1 282/21/1 283/41/1 284/42/1
f 285/46/1 286/9/1 287/12/1 288/44/1
f 289/23/1 290/24/1 291/25/1 292/26/1
f 293/27/1 294/49/1 295/2/1 296/1/1
f 297/36/1 298/23/1 299/26/1 300/10/1
f 301/4/1 302/3/1 303/48/1 304/45/1
f 305/12/1 306/11/1 307/34/1 308/37/1
f 309/19/1 310/20/1 311/21/1 312/22/1
f 313/14/1 314/17/1 315/18/1 316/15/1
f 317/26/1 318/25/1 319/6/1 320/5/1
f 321/17/1 322/43/1 323/30/1 324/18/1
f 325/4/1 326/3/1 327/48/1 328/45/1
f 329/22/1 330/21/1 331/41/1 332/42/1
f 333/24/1 334/27/1 335/1/1 336/25/1
f 337/4/1 338/3/1 339/48/1 340/45/1
f 341/19/1 342/20/1 343/21/1 344/22/1
f 345/29/1 346/16/1 347/39/1 348/40/1
f 349/38/1 350/37/1 351/20/1 352/19/1
f 353/4/1 354/3/1 355/48/1 356/45/1
f 357/47/1 358/35/1 359/9/1 360/46/1
f 361/10/1 362/26/1 363/5/1 364/11/1
f 365/4/1 366/3/1 367/48/1 368/45/1
f 369/4/1 370/3/1 371/48/1 372/45/1
f 373/10/1 374/26/1 375/5/1 376/11/1
f 377/24/1 378/27/1 379/1/1 380/25/1
f 381/16/1 382/15/1 383/33/1 384/39/1

