# Tiled2Unity generated file. Do not modify by hand.
# Wavefront file for 'TitleIntro_mesh_0070.obj'

# Vertices (Count = 1024)
v 0 -16 0
v -16 -16 0
v -16 0 0
v 0 0 0
v -16 -16 0
v -32 -16 0
v -32 0 0
v -16 0 0
v -32 -16 0
v -48 -16 0
v -48 0 0
v -32 0 0
v -48 -16 0
v -64 -16 0
v -64 0 0
v -48 0 0
v -64 -16 0
v -80 -16 0
v -80 0 0
v -64 0 0
v -80 -16 0
v -96 -16 0
v -96 0 0
v -80 0 0
v -96 -16 0
v -112 -16 0
v -112 0 0
v -96 0 0
v -112 -16 0
v -128 -16 0
v -128 0 0
v -112 0 0
v -128 -16 0
v -144 -16 0
v -144 0 0
v -128 0 0
v -144 -16 0
v -160 -16 0
v -160 0 0
v -144 0 0
v -160 -16 0
v -176 -16 0
v -176 0 0
v -160 0 0
v -176 -16 0
v -192 -16 0
v -192 0 0
v -176 0 0
v -192 -16 0
v -208 -16 0
v -208 0 0
v -192 0 0
v -208 -16 0
v -224 -16 0
v -224 0 0
v -208 0 0
v -224 -16 0
v -240 -16 0
v -240 0 0
v -224 0 0
v -240 -16 0
v -256 -16 0
v -256 0 0
v -240 0 0
v 0 -32 0
v -16 -32 0
v -16 -16 0
v 0 -16 0
v -16 -32 0
v -32 -32 0
v -32 -16 0
v -16 -16 0
v -32 -32 0
v -48 -32 0
v -48 -16 0
v -32 -16 0
v -48 -32 0
v -64 -32 0
v -64 -16 0
v -48 -16 0
v -64 -32 0
v -80 -32 0
v -80 -16 0
v -64 -16 0
v -80 -32 0
v -96 -32 0
v -96 -16 0
v -80 -16 0
v -96 -32 0
v -112 -32 0
v -112 -16 0
v -96 -16 0
v -112 -32 0
v -128 -32 0
v -128 -16 0
v -112 -16 0
v -128 -32 0
v -144 -32 0
v -144 -16 0
v -128 -16 0
v -144 -32 0
v -160 -32 0
v -160 -16 0
v -144 -16 0
v -160 -32 0
v -176 -32 0
v -176 -16 0
v -160 -16 0
v -176 -32 0
v -192 -32 0
v -192 -16 0
v -176 -16 0
v -192 -32 0
v -208 -32 0
v -208 -16 0
v -192 -16 0
v -208 -32 0
v -224 -32 0
v -224 -16 0
v -208 -16 0
v -224 -32 0
v -240 -32 0
v -240 -16 0
v -224 -16 0
v -240 -32 0
v -256 -32 0
v -256 -16 0
v -240 -16 0
v 0 -48 0
v -16 -48 0
v -16 -32 0
v 0 -32 0
v -16 -48 0
v -32 -48 0
v -32 -32 0
v -16 -32 0
v -32 -48 0
v -48 -48 0
v -48 -32 0
v -32 -32 0
v -48 -48 0
v -64 -48 0
v -64 -32 0
v -48 -32 0
v -64 -48 0
v -80 -48 0
v -80 -32 0
v -64 -32 0
v -80 -48 0
v -96 -48 0
v -96 -32 0
v -80 -32 0
v -96 -48 0
v -112 -48 0
v -112 -32 0
v -96 -32 0
v -112 -48 0
v -128 -48 0
v -128 -32 0
v -112 -32 0
v -128 -48 0
v -144 -48 0
v -144 -32 0
v -128 -32 0
v -144 -48 0
v -160 -48 0
v -160 -32 0
v -144 -32 0
v -160 -48 0
v -176 -48 0
v -176 -32 0
v -160 -32 0
v -176 -48 0
v -192 -48 0
v -192 -32 0
v -176 -32 0
v -192 -48 0
v -208 -48 0
v -208 -32 0
v -192 -32 0
v -208 -48 0
v -224 -48 0
v -224 -32 0
v -208 -32 0
v -224 -48 0
v -240 -48 0
v -240 -32 0
v -224 -32 0
v -240 -48 0
v -256 -48 0
v -256 -32 0
v -240 -32 0
v 0 -64 0
v -16 -64 0
v -16 -48 0
v 0 -48 0
v -16 -64 0
v -32 -64 0
v -32 -48 0
v -16 -48 0
v -32 -64 0
v -48 -64 0
v -48 -48 0
v -32 -48 0
v -48 -64 0
v -64 -64 0
v -64 -48 0
v -48 -48 0
v -64 -64 0
v -80 -64 0
v -80 -48 0
v -64 -48 0
v -80 -64 0
v -96 -64 0
v -96 -48 0
v -80 -48 0
v -96 -64 0
v -112 -64 0
v -112 -48 0
v -96 -48 0
v -112 -64 0
v -128 -64 0
v -128 -48 0
v -112 -48 0
v -128 -64 0
v -144 -64 0
v -144 -48 0
v -128 -48 0
v -144 -64 0
v -160 -64 0
v -160 -48 0
v -144 -48 0
v -160 -64 0
v -176 -64 0
v -176 -48 0
v -160 -48 0
v -176 -64 0
v -192 -64 0
v -192 -48 0
v -176 -48 0
v -192 -64 0
v -208 -64 0
v -208 -48 0
v -192 -48 0
v -208 -64 0
v -224 -64 0
v -224 -48 0
v -208 -48 0
v -224 -64 0
v -240 -64 0
v -240 -48 0
v -224 -48 0
v -240 -64 0
v -256 -64 0
v -256 -48 0
v -240 -48 0
v 0 -80 0
v -16 -80 0
v -16 -64 0
v 0 -64 0
v -16 -80 0
v -32 -80 0
v -32 -64 0
v -16 -64 0
v -32 -80 0
v -48 -80 0
v -48 -64 0
v -32 -64 0
v -48 -80 0
v -64 -80 0
v -64 -64 0
v -48 -64 0
v -64 -80 0
v -80 -80 0
v -80 -64 0
v -64 -64 0
v -80 -80 0
v -96 -80 0
v -96 -64 0
v -80 -64 0
v -96 -80 0
v -112 -80 0
v -112 -64 0
v -96 -64 0
v -112 -80 0
v -128 -80 0
v -128 -64 0
v -112 -64 0
v -128 -80 0
v -144 -80 0
v -144 -64 0
v -128 -64 0
v -144 -80 0
v -160 -80 0
v -160 -64 0
v -144 -64 0
v -160 -80 0
v -176 -80 0
v -176 -64 0
v -160 -64 0
v -176 -80 0
v -192 -80 0
v -192 -64 0
v -176 -64 0
v -192 -80 0
v -208 -80 0
v -208 -64 0
v -192 -64 0
v -208 -80 0
v -224 -80 0
v -224 -64 0
v -208 -64 0
v -224 -80 0
v -240 -80 0
v -240 -64 0
v -224 -64 0
v -240 -80 0
v -256 -80 0
v -256 -64 0
v -240 -64 0
v 0 -96 0
v -16 -96 0
v -16 -80 0
v 0 -80 0
v -16 -96 0
v -32 -96 0
v -32 -80 0
v -16 -80 0
v -32 -96 0
v -48 -96 0
v -48 -80 0
v -32 -80 0
v -48 -96 0
v -64 -96 0
v -64 -80 0
v -48 -80 0
v -64 -96 0
v -80 -96 0
v -80 -80 0
v -64 -80 0
v -80 -96 0
v -96 -96 0
v -96 -80 0
v -80 -80 0
v -96 -96 0
v -112 -96 0
v -112 -80 0
v -96 -80 0
v -112 -96 0
v -128 -96 0
v -128 -80 0
v -112 -80 0
v -128 -96 0
v -144 -96 0
v -144 -80 0
v -128 -80 0
v -144 -96 0
v -160 -96 0
v -160 -80 0
v -144 -80 0
v -160 -96 0
v -176 -96 0
v -176 -80 0
v -160 -80 0
v -176 -96 0
v -192 -96 0
v -192 -80 0
v -176 -80 0
v -192 -96 0
v -208 -96 0
v -208 -80 0
v -192 -80 0
v -208 -96 0
v -224 -96 0
v -224 -80 0
v -208 -80 0
v -224 -96 0
v -240 -96 0
v -240 -80 0
v -224 -80 0
v -240 -96 0
v -256 -96 0
v -256 -80 0
v -240 -80 0
v 0 -112 0
v -16 -112 0
v -16 -96 0
v 0 -96 0
v -16 -112 0
v -32 -112 0
v -32 -96 0
v -16 -96 0
v -32 -112 0
v -48 -112 0
v -48 -96 0
v -32 -96 0
v -48 -112 0
v -64 -112 0
v -64 -96 0
v -48 -96 0
v -64 -112 0
v -80 -112 0
v -80 -96 0
v -64 -96 0
v -80 -112 0
v -96 -112 0
v -96 -96 0
v -80 -96 0
v -96 -112 0
v -112 -112 0
v -112 -96 0
v -96 -96 0
v -112 -112 0
v -128 -112 0
v -128 -96 0
v -112 -96 0
v -128 -112 0
v -144 -112 0
v -144 -96 0
v -128 -96 0
v -144 -112 0
v -160 -112 0
v -160 -96 0
v -144 -96 0
v -160 -112 0
v -176 -112 0
v -176 -96 0
v -160 -96 0
v -176 -112 0
v -192 -112 0
v -192 -96 0
v -176 -96 0
v -192 -112 0
v -208 -112 0
v -208 -96 0
v -192 -96 0
v -208 -112 0
v -224 -112 0
v -224 -96 0
v -208 -96 0
v -224 -112 0
v -240 -112 0
v -240 -96 0
v -224 -96 0
v -240 -112 0
v -256 -112 0
v -256 -96 0
v -240 -96 0
v 0 -128 0
v -16 -128 0
v -16 -112 0
v 0 -112 0
v -16 -128 0
v -32 -128 0
v -32 -112 0
v -16 -112 0
v -32 -128 0
v -48 -128 0
v -48 -112 0
v -32 -112 0
v -48 -128 0
v -64 -128 0
v -64 -112 0
v -48 -112 0
v -64 -128 0
v -80 -128 0
v -80 -112 0
v -64 -112 0
v -80 -128 0
v -96 -128 0
v -96 -112 0
v -80 -112 0
v -96 -128 0
v -112 -128 0
v -112 -112 0
v -96 -112 0
v -112 -128 0
v -128 -128 0
v -128 -112 0
v -112 -112 0
v -128 -128 0
v -144 -128 0
v -144 -112 0
v -128 -112 0
v -144 -128 0
v -160 -128 0
v -160 -112 0
v -144 -112 0
v -160 -128 0
v -176 -128 0
v -176 -112 0
v -160 -112 0
v -176 -128 0
v -192 -128 0
v -192 -112 0
v -176 -112 0
v -192 -128 0
v -208 -128 0
v -208 -112 0
v -192 -112 0
v -208 -128 0
v -224 -128 0
v -224 -112 0
v -208 -112 0
v -224 -128 0
v -240 -128 0
v -240 -112 0
v -224 -112 0
v -240 -128 0
v -256 -128 0
v -256 -112 0
v -240 -112 0
v 0 -144 0
v -16 -144 0
v -16 -128 0
v 0 -128 0
v -16 -144 0
v -32 -144 0
v -32 -128 0
v -16 -128 0
v -32 -144 0
v -48 -144 0
v -48 -128 0
v -32 -128 0
v -48 -144 0
v -64 -144 0
v -64 -128 0
v -48 -128 0
v -64 -144 0
v -80 -144 0
v -80 -128 0
v -64 -128 0
v -80 -144 0
v -96 -144 0
v -96 -128 0
v -80 -128 0
v -96 -144 0
v -112 -144 0
v -112 -128 0
v -96 -128 0
v -112 -144 0
v -128 -144 0
v -128 -128 0
v -112 -128 0
v -128 -144 0
v -144 -144 0
v -144 -128 0
v -128 -128 0
v -144 -144 0
v -160 -144 0
v -160 -128 0
v -144 -128 0
v -160 -144 0
v -176 -144 0
v -176 -128 0
v -160 -128 0
v -176 -144 0
v -192 -144 0
v -192 -128 0
v -176 -128 0
v -192 -144 0
v -208 -144 0
v -208 -128 0
v -192 -128 0
v -208 -144 0
v -224 -144 0
v -224 -128 0
v -208 -128 0
v -224 -144 0
v -240 -144 0
v -240 -128 0
v -224 -128 0
v -240 -144 0
v -256 -144 0
v -256 -128 0
v -240 -128 0
v 0 -160 0
v -16 -160 0
v -16 -144 0
v 0 -144 0
v -16 -160 0
v -32 -160 0
v -32 -144 0
v -16 -144 0
v -32 -160 0
v -48 -160 0
v -48 -144 0
v -32 -144 0
v -48 -160 0
v -64 -160 0
v -64 -144 0
v -48 -144 0
v -64 -160 0
v -80 -160 0
v -80 -144 0
v -64 -144 0
v -80 -160 0
v -96 -160 0
v -96 -144 0
v -80 -144 0
v -96 -160 0
v -112 -160 0
v -112 -144 0
v -96 -144 0
v -112 -160 0
v -128 -160 0
v -128 -144 0
v -112 -144 0
v -128 -160 0
v -144 -160 0
v -144 -144 0
v -128 -144 0
v -144 -160 0
v -160 -160 0
v -160 -144 0
v -144 -144 0
v -160 -160 0
v -176 -160 0
v -176 -144 0
v -160 -144 0
v -176 -160 0
v -192 -160 0
v -192 -144 0
v -176 -144 0
v -192 -160 0
v -208 -160 0
v -208 -144 0
v -192 -144 0
v -208 -160 0
v -224 -160 0
v -224 -144 0
v -208 -144 0
v -224 -160 0
v -240 -160 0
v -240 -144 0
v -224 -144 0
v -240 -160 0
v -256 -160 0
v -256 -144 0
v -240 -144 0
v 0 -176 0
v -16 -176 0
v -16 -160 0
v 0 -160 0
v -16 -176 0
v -32 -176 0
v -32 -160 0
v -16 -160 0
v -32 -176 0
v -48 -176 0
v -48 -160 0
v -32 -160 0
v -48 -176 0
v -64 -176 0
v -64 -160 0
v -48 -160 0
v -64 -176 0
v -80 -176 0
v -80 -160 0
v -64 -160 0
v -80 -176 0
v -96 -176 0
v -96 -160 0
v -80 -160 0
v -96 -176 0
v -112 -176 0
v -112 -160 0
v -96 -160 0
v -112 -176 0
v -128 -176 0
v -128 -160 0
v -112 -160 0
v -128 -176 0
v -144 -176 0
v -144 -160 0
v -128 -160 0
v -144 -176 0
v -160 -176 0
v -160 -160 0
v -144 -160 0
v -160 -176 0
v -176 -176 0
v -176 -160 0
v -160 -160 0
v -176 -176 0
v -192 -176 0
v -192 -160 0
v -176 -160 0
v -192 -176 0
v -208 -176 0
v -208 -160 0
v -192 -160 0
v -208 -176 0
v -224 -176 0
v -224 -160 0
v -208 -160 0
v -224 -176 0
v -240 -176 0
v -240 -160 0
v -224 -160 0
v -240 -176 0
v -256 -176 0
v -256 -160 0
v -240 -160 0
v 0 -192 0
v -16 -192 0
v -16 -176 0
v 0 -176 0
v -16 -192 0
v -32 -192 0
v -32 -176 0
v -16 -176 0
v -32 -192 0
v -48 -192 0
v -48 -176 0
v -32 -176 0
v -48 -192 0
v -64 -192 0
v -64 -176 0
v -48 -176 0
v -64 -192 0
v -80 -192 0
v -80 -176 0
v -64 -176 0
v -80 -192 0
v -96 -192 0
v -96 -176 0
v -80 -176 0
v -96 -192 0
v -112 -192 0
v -112 -176 0
v -96 -176 0
v -112 -192 0
v -128 -192 0
v -128 -176 0
v -112 -176 0
v -128 -192 0
v -144 -192 0
v -144 -176 0
v -128 -176 0
v -144 -192 0
v -160 -192 0
v -160 -176 0
v -144 -176 0
v -160 -192 0
v -176 -192 0
v -176 -176 0
v -160 -176 0
v -176 -192 0
v -192 -192 0
v -192 -176 0
v -176 -176 0
v -192 -192 0
v -208 -192 0
v -208 -176 0
v -192 -176 0
v -208 -192 0
v -224 -192 0
v -224 -176 0
v -208 -176 0
v -224 -192 0
v -240 -192 0
v -240 -176 0
v -224 -176 0
v -240 -192 0
v -256 -192 0
v -256 -176 0
v -240 -176 0
v 0 -208 0
v -16 -208 0
v -16 -192 0
v 0 -192 0
v -16 -208 0
v -32 -208 0
v -32 -192 0
v -16 -192 0
v -32 -208 0
v -48 -208 0
v -48 -192 0
v -32 -192 0
v -48 -208 0
v -64 -208 0
v -64 -192 0
v -48 -192 0
v -64 -208 0
v -80 -208 0
v -80 -192 0
v -64 -192 0
v -80 -208 0
v -96 -208 0
v -96 -192 0
v -80 -192 0
v -96 -208 0
v -112 -208 0
v -112 -192 0
v -96 -192 0
v -112 -208 0
v -128 -208 0
v -128 -192 0
v -112 -192 0
v -128 -208 0
v -144 -208 0
v -144 -192 0
v -128 -192 0
v -144 -208 0
v -160 -208 0
v -160 -192 0
v -144 -192 0
v -160 -208 0
v -176 -208 0
v -176 -192 0
v -160 -192 0
v -176 -208 0
v -192 -208 0
v -192 -192 0
v -176 -192 0
v -192 -208 0
v -208 -208 0
v -208 -192 0
v -192 -192 0
v -208 -208 0
v -224 -208 0
v -224 -192 0
v -208 -192 0
v -224 -208 0
v -240 -208 0
v -240 -192 0
v -224 -192 0
v -240 -208 0
v -256 -208 0
v -256 -192 0
v -240 -192 0
v 0 -224 0
v -16 -224 0
v -16 -208 0
v 0 -208 0
v -16 -224 0
v -32 -224 0
v -32 -208 0
v -16 -208 0
v -32 -224 0
v -48 -224 0
v -48 -208 0
v -32 -208 0
v -48 -224 0
v -64 -224 0
v -64 -208 0
v -48 -208 0
v -64 -224 0
v -80 -224 0
v -80 -208 0
v -64 -208 0
v -80 -224 0
v -96 -224 0
v -96 -208 0
v -80 -208 0
v -96 -224 0
v -112 -224 0
v -112 -208 0
v -96 -208 0
v -112 -224 0
v -128 -224 0
v -128 -208 0
v -112 -208 0
v -128 -224 0
v -144 -224 0
v -144 -208 0
v -128 -208 0
v -144 -224 0
v -160 -224 0
v -160 -208 0
v -144 -208 0
v -160 -224 0
v -176 -224 0
v -176 -208 0
v -160 -208 0
v -176 -224 0
v -192 -224 0
v -192 -208 0
v -176 -208 0
v -192 -224 0
v -208 -224 0
v -208 -208 0
v -192 -208 0
v -208 -224 0
v -224 -224 0
v -224 -208 0
v -208 -208 0
v -224 -224 0
v -240 -224 0
v -240 -208 0
v -224 -208 0
v -240 -224 0
v -256 -224 0
v -256 -208 0
v -240 -208 0
v 0 -240 0
v -16 -240 0
v -16 -224 0
v 0 -224 0
v -16 -240 0
v -32 -240 0
v -32 -224 0
v -16 -224 0
v -32 -240 0
v -48 -240 0
v -48 -224 0
v -32 -224 0
v -48 -240 0
v -64 -240 0
v -64 -224 0
v -48 -224 0
v -64 -240 0
v -80 -240 0
v -80 -224 0
v -64 -224 0
v -80 -240 0
v -96 -240 0
v -96 -224 0
v -80 -224 0
v -96 -240 0
v -112 -240 0
v -112 -224 0
v -96 -224 0
v -112 -240 0
v -128 -240 0
v -128 -224 0
v -112 -224 0
v -128 -240 0
v -144 -240 0
v -144 -224 0
v -128 -224 0
v -144 -240 0
v -160 -240 0
v -160 -224 0
v -144 -224 0
v -160 -240 0
v -176 -240 0
v -176 -224 0
v -160 -224 0
v -176 -240 0
v -192 -240 0
v -192 -224 0
v -176 -224 0
v -192 -240 0
v -208 -240 0
v -208 -224 0
v -192 -224 0
v -208 -240 0
v -224 -240 0
v -224 -224 0
v -208 -224 0
v -224 -240 0
v -240 -240 0
v -240 -224 0
v -224 -224 0
v -240 -240 0
v -256 -240 0
v -256 -224 0
v -240 -224 0
v 0 -256 0
v -16 -256 0
v -16 -240 0
v 0 -240 0
v -16 -256 0
v -32 -256 0
v -32 -240 0
v -16 -240 0
v -32 -256 0
v -48 -256 0
v -48 -240 0
v -32 -240 0
v -48 -256 0
v -64 -256 0
v -64 -240 0
v -48 -240 0
v -64 -256 0
v -80 -256 0
v -80 -240 0
v -64 -240 0
v -80 -256 0
v -96 -256 0
v -96 -240 0
v -80 -240 0
v -96 -256 0
v -112 -256 0
v -112 -240 0
v -96 -240 0
v -112 -256 0
v -128 -256 0
v -128 -240 0
v -112 -240 0
v -128 -256 0
v -144 -256 0
v -144 -240 0
v -128 -240 0
v -144 -256 0
v -160 -256 0
v -160 -240 0
v -144 -240 0
v -160 -256 0
v -176 -256 0
v -176 -240 0
v -160 -240 0
v -176 -256 0
v -192 -256 0
v -192 -240 0
v -176 -240 0
v -192 -256 0
v -208 -256 0
v -208 -240 0
v -192 -240 0
v -208 -256 0
v -224 -256 0
v -224 -240 0
v -208 -240 0
v -224 -256 0
v -240 -256 0
v -240 -240 0
v -224 -240 0
v -240 -256 0
v -256 -256 0
v -256 -240 0
v -240 -240 0

# Texture cooridinates (Count = 49)
vt 0.015625 0.453125
vt 0.01953125 0.453125
vt 0.01953125 0.46875
vt 0.015625 0.46875
vt 0.02734375 0.4375
vt 0.03125 0.4375
vt 0.03125 0.453125
vt 0.02734375 0.453125
vt 0.0078125 0.390625
vt 0.01171875 0.390625
vt 0.01171875 0.40625
vt 0.0078125 0.40625
vt 0.02734375 0.40625
vt 0.03125 0.40625
vt 0.03125 0.421875
vt 0.02734375 0.421875
vt 0.01171875 0.421875
vt 0.0078125 0.421875
vt 0.015625 0.4375
vt 0.01953125 0.4375
vt 0.01171875 0.453125
vt 0.01171875 0.46875
vt 0.015625 0.390625
vt 0.01953125 0.390625
vt 0.01953125 0.40625
vt 0.015625 0.40625
vt 0.0234375 0.453125
vt 0.0234375 0.46875
vt 0.01953125 0.484375
vt 0.015625 0.484375
vt 0.0234375 0.40625
vt 0.0234375 0.421875
vt 0.01953125 0.421875
vt 0.0234375 0.390625
vt 0.02734375 0.390625
vt 0.015625 0.421875
vt 0.01171875 0.4375
vt 0.01171875 0.484375
vt 0.0078125 0.4375
vt 0.0078125 0.453125
vt 0.0078125 0.46875
vt 0.02734375 0.46875
vt 0.02734375 0.484375
vt 0.0234375 0.484375
vt 0.03125 0.390625
vt 0.0234375 0.4375
vt 0.0078125 0.484375
vt 0.03125 0.46875
vt 0.03125 0.484375

# Normal
vn 0 0 -1

# Mesh description
g TitleIntro_mesh_0070

# Faces
f 1/1/1 2/2/1 3/3/1 4/4/1
f 5/5/1 6/6/1 7/7/1 8/8/1
f 9/9/1 10/10/1 11/11/1 12/12/1
f 13/13/1 14/14/1 15/15/1 16/16/1
f 17/12/1 18/11/1 19/17/1 20/18/1
f 21/19/1 22/20/1 23/2/1 24/1/1
f 25/21/1 26/1/1 27/4/1 28/22/1
f 29/23/1 30/24/1 31/25/1 32/26/1
f 33/2/1 34/27/1 35/28/1 36/3/1
f 37/4/1 38/3/1 39/29/1 40/30/1
f 41/25/1 42/31/1 43/32/1 44/33/1
f 45/24/1 46/34/1 47/31/1 48/25/1
f 49/9/1 50/10/1 51/11/1 52/12/1
f 53/2/1 54/27/1 55/28/1 56/3/1
f 57/34/1 58/35/1 59/13/1 60/31/1
f 61/17/1 62/36/1 63/19/1 64/37/1
f 65/22/1 66/4/1 67/30/1 68/38/1
f 69/18/1 70/17/1 71/37/1 72/39/1
f 73/40/1 74/21/1 75/22/1 76/41/1
f 77/16/1 78/15/1 79/6/1 80/5/1
f 81/11/1 82/26/1 83/36/1 84/17/1
f 85/28/1 86/42/1 87/43/1 88/44/1
f 89/1/1 90/2/1 91/3/1 92/4/1
f 93/35/1 94/45/1 95/14/1 96/13/1
f 97/16/1 98/15/1 99/6/1 100/5/1
f 101/31/1 102/13/1 103/16/1 104/32/1
f 105/46/1 106/5/1 107/8/1 108/27/1
f 109/16/1 110/15/1 111/6/1 112/5/1
f 113/24/1 114/34/1 115/31/1 116/25/1
f 117/20/1 118/46/1 119/27/1 120/2/1
f 121/20/1 122/46/1 123/27/1 124/2/1
f 125/20/1 126/46/1 127/27/1 128/2/1
f 129/4/1 130/3/1 131/29/1 132/30/1
f 133/28/1 134/42/1 135/43/1 136/44/1
f 137/27/1 138/8/1 139/42/1 140/28/1
f 141/41/1 142/22/1 143/38/1 144/47/1
f 145/20/1 146/46/1 147/27/1 148/2/1
f 149/26/1 150/25/1 151/33/1 152/36/1
f 153/10/1 154/23/1 155/26/1 156/11/1
f 157/19/1 158/20/1 159/2/1 160/1/1
f 161/5/1 162/6/1 163/7/1 164/8/1
f 165/23/1 166/24/1 167/25/1 168/26/1
f 169/11/1 170/26/1 171/36/1 172/17/1
f 173/5/1 174/6/1 175/7/1 176/8/1
f 177/18/1 178/17/1 179/37/1 180/39/1
f 181/20/1 182/46/1 183/27/1 184/2/1
f 185/9/1 186/10/1 187/11/1 188/12/1
f 189/40/1 190/21/1 191/22/1 192/41/1
f 193/19/1 194/20/1 195/2/1 196/1/1
f 197/13/1 198/14/1 199/15/1 200/16/1
f 201/25/1 202/31/1 203/32/1 204/33/1
f 205/9/1 206/10/1 207/11/1 208/12/1
f 209/8/1 210/7/1 211/48/1 212/42/1
f 213/46/1 214/5/1 215/8/1 216/27/1
f 217/18/1 218/17/1 219/37/1 220/39/1
f 221/28/1 222/42/1 223/43/1 224/44/1
f 225/10/1 226/23/1 227/26/1 228/11/1
f 229/3/1 230/28/1 231/44/1 232/29/1
f 233/12/1 234/11/1 235/17/1 236/18/1
f 237/5/1 238/6/1 239/7/1 240/8/1
f 241/17/1 242/36/1 243/19/1 244/37/1
f 245/21/1 246/1/1 247/4/1 248/22/1
f 249/11/1 250/26/1 251/36/1 252/17/1
f 253/11/1 254/26/1 255/36/1 256/17/1
f 257/33/1 258/32/1 259/46/1 260/20/1
f 261/39/1 262/37/1 263/21/1 264/40/1
f 265/13/1 266/14/1 267/15/1 268/16/1
f 269/3/1 270/28/1 271/44/1 272/29/1
f 273/17/1 274/36/1 275/19/1 276/37/1
f 277/27/1 278/8/1 279/42/1 280/28/1
f 281/11/1 282/26/1 283/36/1 284/17/1
f 285/8/1 286/7/1 287/48/1 288/42/1
f 289/46/1 290/5/1 291/8/1 292/27/1
f 293/5/1 294/6/1 295/7/1 296/8/1
f 297/25/1 298/31/1 299/32/1 300/33/1
f 301/36/1 302/33/1 303/20/1 304/19/1
f 305/34/1 306/35/1 307/13/1 308/31/1
f 309/5/1 310/6/1 311/7/1 312/8/1
f 313/12/1 314/11/1 315/17/1 316/18/1
f 317/25/1 318/31/1 319/32/1 320/33/1
f 321/2/1 322/27/1 323/28/1 324/3/1
f 325/32/1 326/16/1 327/5/1 328/46/1
f 329/26/1 330/25/1 331/33/1 332/36/1
f 333/39/1 334/37/1 335/21/1 336/40/1
f 337/23/1 338/24/1 339/25/1 340/26/1
f 341/13/1 342/14/1 343/15/1 344/16/1
f 345/2/1 346/27/1 347/28/1 348/3/1
f 349/22/1 350/4/1 351/30/1 352/38/1
f 353/18/1 354/17/1 355/37/1 356/39/1
f 357/36/1 358/33/1 359/20/1 360/19/1
f 361/42/1 362/48/1 363/49/1 364/43/1
f 365/34/1 366/35/1 367/13/1 368/31/1
f 369/1/1 370/2/1 371/3/1 372/4/1
f 373/5/1 374/6/1 375/7/1 376/8/1
f 377/18/1 378/17/1 379/37/1 380/39/1
f 381/23/1 382/24/1 383/25/1 384/26/1
f 385/20/1 386/46/1 387/27/1 388/2/1
f 389/41/1 390/22/1 391/38/1 392/47/1
f 393/18/1 394/17/1 395/37/1 396/39/1
f 397/4/1 398/3/1 399/29/1 400/30/1
f 401/31/1 402/13/1 403/16/1 404/32/1
f 405/32/1 406/16/1 407/5/1 408/46/1
f 409/19/1 410/20/1 411/2/1 412/1/1
f 413/39/1 414/37/1 415/21/1 416/40/1
f 417/22/1 418/4/1 419/30/1 420/38/1
f 421/2/1 422/27/1 423/28/1 424/3/1
f 425/12/1 426/11/1 427/17/1 428/18/1
f 429/46/1 430/5/1 431/8/1 432/27/1
f 433/2/1 434/27/1 435/28/1 436/3/1
f 437/46/1 438/5/1 439/8/1 440/27/1
f 441/32/1 442/16/1 443/5/1 444/46/1
f 445/8/1 446/7/1 447/48/1 448/42/1
f 449/16/1 450/15/1 451/6/1 452/5/1
f 453/16/1 454/15/1 455/6/1 456/5/1
f 457/5/1 458/6/1 459/7/1 460/8/1
f 461/16/1 462/15/1 463/6/1 464/5/1
f 465/42/1 466/48/1 467/49/1 468/43/1
f 469/33/1 470/32/1 471/46/1 472/20/1
f 473/26/1 474/25/1 475/33/1 476/36/1
f 477/24/1 478/34/1 479/31/1 480/25/1
f 481/41/1 482/22/1 483/38/1 484/47/1
f 485/10/1 486/23/1 487/26/1 488/11/1
f 489/9/1 490/10/1 491/11/1 492/12/1
f 493/20/1 494/46/1 495/27/1 496/2/1
f 497/10/1 498/23/1 499/26/1 500/11/1
f 501/12/1 502/11/1 503/17/1 504/18/1
f 505/31/1 506/13/1 507/16/1 508/32/1
f 509/1/1 510/2/1 511/3/1 512/4/1
f 513/25/1 514/31/1 515/32/1 516/33/1
f 517/18/1 518/17/1 519/37/1 520/39/1
f 521/11/1 522/26/1 523/36/1 524/17/1
f 525/40/1 526/21/1 527/22/1 528/41/1
f 529/4/1 530/3/1 531/29/1 532/30/1
f 533/8/1 534/7/1 535/48/1 536/42/1
f 537/35/1 538/45/1 539/14/1 540/13/1
f 541/34/1 542/35/1 543/13/1 544/31/1
f 545/28/1 546/42/1 547/43/1 548/44/1
f 549/35/1 550/45/1 551/14/1 552/13/1
f 553/21/1 554/1/1 555/4/1 556/22/1
f 557/13/1 558/14/1 559/15/1 560/16/1
f 561/34/1 562/35/1 563/13/1 564/31/1
f 565/42/1 566/48/1 567/49/1 568/43/1
f 569/18/1 570/17/1 571/37/1 572/39/1
f 573/8/1 574/7/1 575/48/1 576/42/1
f 577/1/1 578/2/1 579/3/1 580/4/1
f 581/24/1 582/34/1 583/31/1 584/25/1
f 585/37/1 586/19/1 587/1/1 588/21/1
f 589/12/1 590/11/1 591/17/1 592/18/1
f 593/32/1 594/16/1 595/5/1 596/46/1
f 597/36/1 598/33/1 599/20/1 600/19/1
f 601/11/1 602/26/1 603/36/1 604/17/1
f 605/2/1 606/27/1 607/28/1 608/3/1
f 609/26/1 610/25/1 611/33/1 612/36/1
f 613/25/1 614/31/1 615/32/1 616/33/1
f 617/28/1 618/42/1 619/43/1 620/44/1
f 621/36/1 622/33/1 623/20/1 624/19/1
f 625/13/1 626/14/1 627/15/1 628/16/1
f 629/46/1 630/5/1 631/8/1 632/27/1
f 633/40/1 634/21/1 635/22/1 636/41/1
f 637/20/1 638/46/1 639/27/1 640/2/1
f 641/25/1 642/31/1 643/32/1 644/33/1
f 645/42/1 646/48/1 647/49/1 648/43/1
f 649/26/1 650/25/1 651/33/1 652/36/1
f 653/34/1 654/35/1 655/13/1 656/31/1
f 657/18/1 658/17/1 659/37/1 660/39/1
f 661/13/1 662/14/1 663/15/1 664/16/1
f 665/36/1 666/33/1 667/20/1 668/19/1
f 669/18/1 670/17/1 671/37/1 672/39/1
f 673/27/1 674/8/1 675/42/1 676/28/1
f 677/21/1 678/1/1 679/4/1 680/22/1
f 681/46/1 682/5/1 683/8/1 684/27/1
f 685/10/1 686/23/1 687/26/1 688/11/1
f 689/10/1 690/23/1 691/26/1 692/11/1
f 693/10/1 694/23/1 695/26/1 696/11/1
f 697/23/1 698/24/1 699/25/1 700/26/1
f 701/9/1 702/10/1 703/11/1 704/12/1
f 705/18/1 706/17/1 707/37/1 708/39/1
f 709/39/1 710/37/1 711/21/1 712/40/1
f 713/36/1 714/33/1 715/20/1 716/19/1
f 717/9/1 718/10/1 719/11/1 720/12/1
f 721/8/1 722/7/1 723/48/1 724/42/1
f 725/13/1 726/14/1 727/15/1 728/16/1
f 729/40/1 730/21/1 731/22/1 732/41/1
f 733/20/1 734/46/1 735/27/1 736/2/1
f 737/36/1 738/33/1 739/20/1 740/19/1
f 741/17/1 742/36/1 743/19/1 744/37/1
f 745/21/1 746/1/1 747/4/1 748/22/1
f 749/5/1 750/6/1 751/7/1 752/8/1
f 753/17/1 754/36/1 755/19/1 756/37/1
f 757/34/1 758/35/1 759/13/1 760/31/1
f 761/35/1 762/45/1 763/14/1 764/13/1
f 765/24/1 766/34/1 767/31/1 768/25/1
f 769/35/1 770/45/1 771/14/1 772/13/1
f 773/41/1 774/22/1 775/38/1 776/47/1
f 777/41/1 778/22/1 779/38/1 780/47/1
f 781/3/1 782/28/1 783/44/1 784/29/1
f 785/46/1 786/5/1 787/8/1 788/27/1
f 789/35/1 790/45/1 791/14/1 792/13/1
f 793/4/1 794/3/1 795/29/1 796/30/1
f 797/3/1 798/28/1 799/44/1 800/29/1
f 801/22/1 802/4/1 803/30/1 804/38/1
f 805/31/1 806/13/1 807/16/1 808/32/1
f 809/12/1 810/11/1 811/17/1 812/18/1
f 813/21/1 814/1/1 815/4/1 816/22/1
f 817/24/1 818/34/1 819/31/1 820/25/1
f 821/9/1 822/10/1 823/11/1 824/12/1
f 825/37/1 826/19/1 827/1/1 828/21/1
f 829/13/1 830/14/1 831/15/1 832/16/1
f 833/19/1 834/20/1 835/2/1 836/1/1
f 837/26/1 838/25/1 839/33/1 840/36/1
f 841/37/1 842/19/1 843/1/1 844/21/1
f 845/36/1 846/33/1 847/20/1 848/19/1
f 849/34/1 850/35/1 851/13/1 852/31/1
f 853/5/1 854/6/1 855/7/1 856/8/1
f 857/13/1 858/14/1 859/15/1 860/16/1
f 861/26/1 862/25/1 863/33/1 864/36/1
f 865/41/1 866/22/1 867/38/1 868/47/1
f 869/23/1 870/24/1 871/25/1 872/26/1
f 873/42/1 874/48/1 875/49/1 876/43/1
f 877/33/1 878/32/1 879/46/1 880/20/1
f 881/39/1 882/37/1 883/21/1 884/40/1
f 885/12/1 886/11/1 887/17/1 888/18/1
f 889/13/1 890/14/1 891/15/1 892/16/1
f 893/2/1 894/27/1 895/28/1 896/3/1
f 897/22/1 898/4/1 899/30/1 900/38/1
f 901/37/1 902/19/1 903/1/1 904/21/1
f 905/37/1 906/19/1 907/1/1 908/21/1
f 909/42/1 910/48/1 911/49/1 912/43/1
f 913/21/1 914/1/1 915/4/1 916/22/1
f 917/20/1 918/46/1 919/27/1 920/2/1
f 921/2/1 922/27/1 923/28/1 924/3/1
f 925/17/1 926/36/1 927/19/1 928/37/1
f 929/21/1 930/1/1 931/4/1 932/22/1
f 933/42/1 934/48/1 935/49/1 936/43/1
f 937/4/1 938/3/1 939/29/1 940/30/1
f 941/40/1 942/21/1 943/22/1 944/41/1
f 945/20/1 946/46/1 947/27/1 948/2/1
f 949/10/1 950/23/1 951/26/1 952/11/1
f 953/4/1 954/3/1 955/29/1 956/30/1
f 957/4/1 958/3/1 959/29/1 960/30/1
f 961/31/1 962/13/1 963/16/1 964/32/1
f 965/18/1 966/17/1 967/37/1 968/39/1
f 969/5/1 970/6/1 971/7/1 972/8/1
f 973/31/1 974/13/1 975/16/1 976/32/1
f 977/28/1 978/42/1 979/43/1 980/44/1
f 981/41/1 982/22/1 983/38/1 984/47/1
f 985/11/1 986/26/1 987/36/1 988/17/1
f 989/3/1 990/28/1 991/44/1 992/29/1
f 993/31/1 994/13/1 995/16/1 996/32/1
f 997/23/1 998/24/1 999/25/1 1000/26/1
f 1001/11/1 1002/26/1 1003/36/1 1004/17/1
f 1005/27/1 1006/8/1 1007/42/1 1008/28/1
f 1009/4/1 1010/3/1 1011/29/1 1012/30/1
f 1013/9/1 1014/10/1 1015/11/1 1016/12/1
f 1017/16/1 1018/15/1 1019/6/1 1020/5/1
f 1021/3/1 1022/28/1 1023/44/1 1024/29/1

