# Tiled2Unity generated file. Do not modify by hand.
# Wavefront file for 'TitleIntro_mesh_0072.obj'

# Vertices (Count = 384)
v 0 -16 0
v -16 -16 0
v -16 0 0
v 0 0 0
v -16 -16 0
v -32 -16 0
v -32 0 0
v -16 0 0
v -32 -16 0
v -48 -16 0
v -48 0 0
v -32 0 0
v -48 -16 0
v -64 -16 0
v -64 0 0
v -48 0 0
v -64 -16 0
v -80 -16 0
v -80 0 0
v -64 0 0
v -80 -16 0
v -96 -16 0
v -96 0 0
v -80 0 0
v 0 -32 0
v -16 -32 0
v -16 -16 0
v 0 -16 0
v -16 -32 0
v -32 -32 0
v -32 -16 0
v -16 -16 0
v -32 -32 0
v -48 -32 0
v -48 -16 0
v -32 -16 0
v -48 -32 0
v -64 -32 0
v -64 -16 0
v -48 -16 0
v -64 -32 0
v -80 -32 0
v -80 -16 0
v -64 -16 0
v -80 -32 0
v -96 -32 0
v -96 -16 0
v -80 -16 0
v 0 -48 0
v -16 -48 0
v -16 -32 0
v 0 -32 0
v -16 -48 0
v -32 -48 0
v -32 -32 0
v -16 -32 0
v -32 -48 0
v -48 -48 0
v -48 -32 0
v -32 -32 0
v -48 -48 0
v -64 -48 0
v -64 -32 0
v -48 -32 0
v -64 -48 0
v -80 -48 0
v -80 -32 0
v -64 -32 0
v -80 -48 0
v -96 -48 0
v -96 -32 0
v -80 -32 0
v 0 -64 0
v -16 -64 0
v -16 -48 0
v 0 -48 0
v -16 -64 0
v -32 -64 0
v -32 -48 0
v -16 -48 0
v -32 -64 0
v -48 -64 0
v -48 -48 0
v -32 -48 0
v -48 -64 0
v -64 -64 0
v -64 -48 0
v -48 -48 0
v -64 -64 0
v -80 -64 0
v -80 -48 0
v -64 -48 0
v -80 -64 0
v -96 -64 0
v -96 -48 0
v -80 -48 0
v 0 -80 0
v -16 -80 0
v -16 -64 0
v 0 -64 0
v -16 -80 0
v -32 -80 0
v -32 -64 0
v -16 -64 0
v -32 -80 0
v -48 -80 0
v -48 -64 0
v -32 -64 0
v -48 -80 0
v -64 -80 0
v -64 -64 0
v -48 -64 0
v -64 -80 0
v -80 -80 0
v -80 -64 0
v -64 -64 0
v -80 -80 0
v -96 -80 0
v -96 -64 0
v -80 -64 0
v 0 -96 0
v -16 -96 0
v -16 -80 0
v 0 -80 0
v -16 -96 0
v -32 -96 0
v -32 -80 0
v -16 -80 0
v -32 -96 0
v -48 -96 0
v -48 -80 0
v -32 -80 0
v -48 -96 0
v -64 -96 0
v -64 -80 0
v -48 -80 0
v -64 -96 0
v -80 -96 0
v -80 -80 0
v -64 -80 0
v -80 -96 0
v -96 -96 0
v -96 -80 0
v -80 -80 0
v 0 -112 0
v -16 -112 0
v -16 -96 0
v 0 -96 0
v -16 -112 0
v -32 -112 0
v -32 -96 0
v -16 -96 0
v -32 -112 0
v -48 -112 0
v -48 -96 0
v -32 -96 0
v -48 -112 0
v -64 -112 0
v -64 -96 0
v -48 -96 0
v -64 -112 0
v -80 -112 0
v -80 -96 0
v -64 -96 0
v -80 -112 0
v -96 -112 0
v -96 -96 0
v -80 -96 0
v 0 -128 0
v -16 -128 0
v -16 -112 0
v 0 -112 0
v -16 -128 0
v -32 -128 0
v -32 -112 0
v -16 -112 0
v -32 -128 0
v -48 -128 0
v -48 -112 0
v -32 -112 0
v -48 -128 0
v -64 -128 0
v -64 -112 0
v -48 -112 0
v -64 -128 0
v -80 -128 0
v -80 -112 0
v -64 -112 0
v -80 -128 0
v -96 -128 0
v -96 -112 0
v -80 -112 0
v 0 -144 0
v -16 -144 0
v -16 -128 0
v 0 -128 0
v -16 -144 0
v -32 -144 0
v -32 -128 0
v -16 -128 0
v -32 -144 0
v -48 -144 0
v -48 -128 0
v -32 -128 0
v -48 -144 0
v -64 -144 0
v -64 -128 0
v -48 -128 0
v -64 -144 0
v -80 -144 0
v -80 -128 0
v -64 -128 0
v -80 -144 0
v -96 -144 0
v -96 -128 0
v -80 -128 0
v 0 -160 0
v -16 -160 0
v -16 -144 0
v 0 -144 0
v -16 -160 0
v -32 -160 0
v -32 -144 0
v -16 -144 0
v -32 -160 0
v -48 -160 0
v -48 -144 0
v -32 -144 0
v -48 -160 0
v -64 -160 0
v -64 -144 0
v -48 -144 0
v -64 -160 0
v -80 -160 0
v -80 -144 0
v -64 -144 0
v -80 -160 0
v -96 -160 0
v -96 -144 0
v -80 -144 0
v 0 -176 0
v -16 -176 0
v -16 -160 0
v 0 -160 0
v -16 -176 0
v -32 -176 0
v -32 -160 0
v -16 -160 0
v -32 -176 0
v -48 -176 0
v -48 -160 0
v -32 -160 0
v -48 -176 0
v -64 -176 0
v -64 -160 0
v -48 -160 0
v -64 -176 0
v -80 -176 0
v -80 -160 0
v -64 -160 0
v -80 -176 0
v -96 -176 0
v -96 -160 0
v -80 -160 0
v 0 -192 0
v -16 -192 0
v -16 -176 0
v 0 -176 0
v -16 -192 0
v -32 -192 0
v -32 -176 0
v -16 -176 0
v -32 -192 0
v -48 -192 0
v -48 -176 0
v -32 -176 0
v -48 -192 0
v -64 -192 0
v -64 -176 0
v -48 -176 0
v -64 -192 0
v -80 -192 0
v -80 -176 0
v -64 -176 0
v -80 -192 0
v -96 -192 0
v -96 -176 0
v -80 -176 0
v 0 -208 0
v -16 -208 0
v -16 -192 0
v 0 -192 0
v -16 -208 0
v -32 -208 0
v -32 -192 0
v -16 -192 0
v -32 -208 0
v -48 -208 0
v -48 -192 0
v -32 -192 0
v -48 -208 0
v -64 -208 0
v -64 -192 0
v -48 -192 0
v -64 -208 0
v -80 -208 0
v -80 -192 0
v -64 -192 0
v -80 -208 0
v -96 -208 0
v -96 -192 0
v -80 -192 0
v 0 -224 0
v -16 -224 0
v -16 -208 0
v 0 -208 0
v -16 -224 0
v -32 -224 0
v -32 -208 0
v -16 -208 0
v -32 -224 0
v -48 -224 0
v -48 -208 0
v -32 -208 0
v -48 -224 0
v -64 -224 0
v -64 -208 0
v -48 -208 0
v -64 -224 0
v -80 -224 0
v -80 -208 0
v -64 -208 0
v -80 -224 0
v -96 -224 0
v -96 -208 0
v -80 -208 0
v 0 -240 0
v -16 -240 0
v -16 -224 0
v 0 -224 0
v -16 -240 0
v -32 -240 0
v -32 -224 0
v -16 -224 0
v -32 -240 0
v -48 -240 0
v -48 -224 0
v -32 -224 0
v -48 -240 0
v -64 -240 0
v -64 -224 0
v -48 -224 0
v -64 -240 0
v -80 -240 0
v -80 -224 0
v -64 -224 0
v -80 -240 0
v -96 -240 0
v -96 -224 0
v -80 -224 0
v 0 -256 0
v -16 -256 0
v -16 -240 0
v 0 -240 0
v -16 -256 0
v -32 -256 0
v -32 -240 0
v -16 -240 0
v -32 -256 0
v -48 -256 0
v -48 -240 0
v -32 -240 0
v -48 -256 0
v -64 -256 0
v -64 -240 0
v -48 -240 0
v -64 -256 0
v -80 -256 0
v -80 -240 0
v -64 -240 0
v -80 -256 0
v -96 -256 0
v -96 -240 0
v -80 -240 0

# Texture cooridinates (Count = 49)
vt 0.02734375 0.40625
vt 0.03125 0.40625
vt 0.03125 0.421875
vt 0.02734375 0.421875
vt 0.02734375 0.453125
vt 0.03125 0.453125
vt 0.03125 0.46875
vt 0.02734375 0.46875
vt 0.01171875 0.4375
vt 0.015625 0.4375
vt 0.015625 0.453125
vt 0.01171875 0.453125
vt 0.015625 0.46875
vt 0.01171875 0.46875
vt 0.0078125 0.46875
vt 0.01171875 0.484375
vt 0.0078125 0.484375
vt 0.03125 0.484375
vt 0.02734375 0.484375
vt 0.0234375 0.421875
vt 0.02734375 0.4375
vt 0.0234375 0.4375
vt 0.0234375 0.390625
vt 0.02734375 0.390625
vt 0.0234375 0.40625
vt 0.01171875 0.390625
vt 0.015625 0.390625
vt 0.015625 0.40625
vt 0.01171875 0.40625
vt 0.03125 0.4375
vt 0.03125 0.390625
vt 0.01953125 0.40625
vt 0.01953125 0.421875
vt 0.015625 0.421875
vt 0.01953125 0.4375
vt 0.01953125 0.453125
vt 0.0234375 0.453125
vt 0.01953125 0.390625
vt 0.0078125 0.4375
vt 0.0078125 0.453125
vt 0.01953125 0.46875
vt 0.0234375 0.46875
vt 0.0234375 0.484375
vt 0.01953125 0.484375
vt 0.0078125 0.40625
vt 0.01171875 0.421875
vt 0.0078125 0.421875
vt 0.0078125 0.390625
vt 0.015625 0.484375

# Normal
vn 0 0 -1

# Mesh description
g TitleIntro_mesh_0072

# Faces
f 1/1/1 2/2/1 3/3/1 4/4/1
f 5/5/1 6/6/1 7/7/1 8/8/1
f 9/9/1 10/10/1 11/11/1 12/12/1
f 13/12/1 14/11/1 15/13/1 16/14/1
f 17/15/1 18/14/1 19/16/1 20/17/1
f 21/8/1 22/7/1 23/18/1 24/19/1
f 25/20/1 26/4/1 27/21/1 28/22/1
f 29/23/1 30/24/1 31/1/1 32/25/1
f 33/26/1 34/27/1 35/28/1 36/29/1
f 37/4/1 38/3/1 39/30/1 40/21/1
f 41/24/1 42/31/1 43/2/1 44/1/1
f 45/28/1 46/32/1 47/33/1 48/34/1
f 49/5/1 50/6/1 51/7/1 52/8/1
f 53/10/1 54/35/1 55/36/1 56/11/1
f 57/22/1 58/21/1 59/5/1 60/37/1
f 61/33/1 62/20/1 63/22/1 64/35/1
f 65/21/1 66/30/1 67/6/1 68/5/1
f 69/33/1 70/20/1 71/22/1 72/35/1
f 73/34/1 74/33/1 75/35/1 76/10/1
f 77/27/1 78/38/1 79/32/1 80/28/1
f 81/39/1 82/9/1 83/12/1 84/40/1
f 85/25/1 86/1/1 87/4/1 88/20/1
f 89/35/1 90/22/1 91/37/1 92/36/1
f 93/32/1 94/25/1 95/20/1 96/33/1
f 97/41/1 98/42/1 99/43/1 100/44/1
f 101/45/1 102/29/1 103/46/1 104/47/1
f 105/26/1 106/27/1 107/28/1 108/29/1
f 109/26/1 110/27/1 111/28/1 112/29/1
f 113/9/1 114/10/1 115/11/1 116/12/1
f 117/10/1 118/35/1 119/36/1 120/11/1
f 121/28/1 122/32/1 123/33/1 124/34/1
f 125/46/1 126/34/1 127/10/1 128/9/1
f 129/33/1 130/20/1 131/22/1 132/35/1
f 133/40/1 134/12/1 135/14/1 136/15/1
f 137/10/1 138/35/1 139/36/1 140/11/1
f 141/48/1 142/26/1 143/29/1 144/45/1
f 145/9/1 146/10/1 147/11/1 148/12/1
f 149/11/1 150/36/1 151/41/1 152/13/1
f 153/46/1 154/34/1 155/10/1 156/9/1
f 157/42/1 158/8/1 159/19/1 160/43/1
f 161/14/1 162/13/1 163/49/1 164/16/1
f 165/21/1 166/30/1 167/6/1 168/5/1
f 169/37/1 170/5/1 171/8/1 172/42/1
f 173/46/1 174/34/1 175/10/1 176/9/1
f 177/27/1 178/38/1 179/32/1 180/28/1
f 181/8/1 182/7/1 183/18/1 184/19/1
f 185/28/1 186/32/1 187/33/1 188/34/1
f 189/15/1 190/14/1 191/16/1 192/17/1
f 193/37/1 194/5/1 195/8/1 196/42/1
f 197/25/1 198/1/1 199/4/1 200/20/1
f 201/35/1 202/22/1 203/37/1 204/36/1
f 205/12/1 206/11/1 207/13/1 208/14/1
f 209/35/1 210/22/1 211/37/1 212/36/1
f 213/13/1 214/41/1 215/44/1 216/49/1
f 217/39/1 218/9/1 219/12/1 220/40/1
f 221/38/1 222/23/1 223/25/1 224/32/1
f 225/34/1 226/33/1 227/35/1 228/10/1
f 229/39/1 230/9/1 231/12/1 232/40/1
f 233/1/1 234/2/1 235/3/1 236/4/1
f 237/45/1 238/29/1 239/46/1 240/47/1
f 241/21/1 242/30/1 243/6/1 244/5/1
f 245/14/1 246/13/1 247/49/1 248/16/1
f 249/11/1 250/36/1 251/41/1 252/13/1
f 253/46/1 254/34/1 255/10/1 256/9/1
f 257/36/1 258/37/1 259/42/1 260/41/1
f 261/33/1 262/20/1 263/22/1 264/35/1
f 265/9/1 266/10/1 267/11/1 268/12/1
f 269/35/1 270/22/1 271/37/1 272/36/1
f 273/5/1 274/6/1 275/7/1 276/8/1
f 277/20/1 278/4/1 279/21/1 280/22/1
f 281/1/1 282/2/1 283/3/1 284/4/1
f 285/29/1 286/28/1 287/34/1 288/46/1
f 289/41/1 290/42/1 291/43/1 292/44/1
f 293/26/1 294/27/1 295/28/1 296/29/1
f 297/22/1 298/21/1 299/5/1 300/37/1
f 301/14/1 302/13/1 303/49/1 304/16/1
f 305/46/1 306/34/1 307/10/1 308/9/1
f 309/29/1 310/28/1 311/34/1 312/46/1
f 313/37/1 314/5/1 315/8/1 316/42/1
f 317/15/1 318/14/1 319/16/1 320/17/1
f 321/14/1 322/13/1 323/49/1 324/16/1
f 325/45/1 326/29/1 327/46/1 328/47/1
f 329/13/1 330/41/1 331/44/1 332/49/1
f 333/32/1 334/25/1 335/20/1 336/33/1
f 337/13/1 338/41/1 339/44/1 340/49/1
f 341/21/1 342/30/1 343/6/1 344/5/1
f 345/26/1 346/27/1 347/28/1 348/29/1
f 349/39/1 350/9/1 351/12/1 352/40/1
f 353/41/1 354/42/1 355/43/1 356/44/1
f 357/22/1 358/21/1 359/5/1 360/37/1
f 361/40/1 362/12/1 363/14/1 364/15/1
f 365/32/1 366/25/1 367/20/1 368/33/1
f 369/11/1 370/36/1 371/41/1 372/13/1
f 373/36/1 374/37/1 375/42/1 376/41/1
f 377/1/1 378/2/1 379/3/1 380/4/1
f 381/9/1 382/10/1 383/11/1 384/12/1

