# Tiled2Unity generated file. Do not modify by hand.
# Wavefront file for 'TitleIntro_mesh_0005.obj'

# Vertices (Count = 832)
v 0 -64 0
v -16 -64 0
v -16 -48 0
v 0 -48 0
v -16 -64 0
v -32 -64 0
v -32 -48 0
v -16 -48 0
v -32 -64 0
v -48 -64 0
v -48 -48 0
v -32 -48 0
v -48 -64 0
v -64 -64 0
v -64 -48 0
v -48 -48 0
v -64 -64 0
v -80 -64 0
v -80 -48 0
v -64 -48 0
v -80 -64 0
v -96 -64 0
v -96 -48 0
v -80 -48 0
v -96 -64 0
v -112 -64 0
v -112 -48 0
v -96 -48 0
v -112 -64 0
v -128 -64 0
v -128 -48 0
v -112 -48 0
v -128 -64 0
v -144 -64 0
v -144 -48 0
v -128 -48 0
v -144 -64 0
v -160 -64 0
v -160 -48 0
v -144 -48 0
v -160 -64 0
v -176 -64 0
v -176 -48 0
v -160 -48 0
v -176 -64 0
v -192 -64 0
v -192 -48 0
v -176 -48 0
v -192 -64 0
v -208 -64 0
v -208 -48 0
v -192 -48 0
v -208 -64 0
v -224 -64 0
v -224 -48 0
v -208 -48 0
v -224 -64 0
v -240 -64 0
v -240 -48 0
v -224 -48 0
v -240 -64 0
v -256 -64 0
v -256 -48 0
v -240 -48 0
v 0 -80 0
v -16 -80 0
v -16 -64 0
v 0 -64 0
v -16 -80 0
v -32 -80 0
v -32 -64 0
v -16 -64 0
v -32 -80 0
v -48 -80 0
v -48 -64 0
v -32 -64 0
v -48 -80 0
v -64 -80 0
v -64 -64 0
v -48 -64 0
v -64 -80 0
v -80 -80 0
v -80 -64 0
v -64 -64 0
v -80 -80 0
v -96 -80 0
v -96 -64 0
v -80 -64 0
v -96 -80 0
v -112 -80 0
v -112 -64 0
v -96 -64 0
v -112 -80 0
v -128 -80 0
v -128 -64 0
v -112 -64 0
v -128 -80 0
v -144 -80 0
v -144 -64 0
v -128 -64 0
v -144 -80 0
v -160 -80 0
v -160 -64 0
v -144 -64 0
v -160 -80 0
v -176 -80 0
v -176 -64 0
v -160 -64 0
v -176 -80 0
v -192 -80 0
v -192 -64 0
v -176 -64 0
v -192 -80 0
v -208 -80 0
v -208 -64 0
v -192 -64 0
v -208 -80 0
v -224 -80 0
v -224 -64 0
v -208 -64 0
v -224 -80 0
v -240 -80 0
v -240 -64 0
v -224 -64 0
v -240 -80 0
v -256 -80 0
v -256 -64 0
v -240 -64 0
v 0 -96 0
v -16 -96 0
v -16 -80 0
v 0 -80 0
v -16 -96 0
v -32 -96 0
v -32 -80 0
v -16 -80 0
v -32 -96 0
v -48 -96 0
v -48 -80 0
v -32 -80 0
v -48 -96 0
v -64 -96 0
v -64 -80 0
v -48 -80 0
v -64 -96 0
v -80 -96 0
v -80 -80 0
v -64 -80 0
v -80 -96 0
v -96 -96 0
v -96 -80 0
v -80 -80 0
v -96 -96 0
v -112 -96 0
v -112 -80 0
v -96 -80 0
v -112 -96 0
v -128 -96 0
v -128 -80 0
v -112 -80 0
v -128 -96 0
v -144 -96 0
v -144 -80 0
v -128 -80 0
v -144 -96 0
v -160 -96 0
v -160 -80 0
v -144 -80 0
v -160 -96 0
v -176 -96 0
v -176 -80 0
v -160 -80 0
v -176 -96 0
v -192 -96 0
v -192 -80 0
v -176 -80 0
v -192 -96 0
v -208 -96 0
v -208 -80 0
v -192 -80 0
v -208 -96 0
v -224 -96 0
v -224 -80 0
v -208 -80 0
v -224 -96 0
v -240 -96 0
v -240 -80 0
v -224 -80 0
v -240 -96 0
v -256 -96 0
v -256 -80 0
v -240 -80 0
v 0 -112 0
v -16 -112 0
v -16 -96 0
v 0 -96 0
v -16 -112 0
v -32 -112 0
v -32 -96 0
v -16 -96 0
v -32 -112 0
v -48 -112 0
v -48 -96 0
v -32 -96 0
v -48 -112 0
v -64 -112 0
v -64 -96 0
v -48 -96 0
v -64 -112 0
v -80 -112 0
v -80 -96 0
v -64 -96 0
v -80 -112 0
v -96 -112 0
v -96 -96 0
v -80 -96 0
v -96 -112 0
v -112 -112 0
v -112 -96 0
v -96 -96 0
v -112 -112 0
v -128 -112 0
v -128 -96 0
v -112 -96 0
v -128 -112 0
v -144 -112 0
v -144 -96 0
v -128 -96 0
v -144 -112 0
v -160 -112 0
v -160 -96 0
v -144 -96 0
v -160 -112 0
v -176 -112 0
v -176 -96 0
v -160 -96 0
v -176 -112 0
v -192 -112 0
v -192 -96 0
v -176 -96 0
v -192 -112 0
v -208 -112 0
v -208 -96 0
v -192 -96 0
v -208 -112 0
v -224 -112 0
v -224 -96 0
v -208 -96 0
v -224 -112 0
v -240 -112 0
v -240 -96 0
v -224 -96 0
v -240 -112 0
v -256 -112 0
v -256 -96 0
v -240 -96 0
v 0 -128 0
v -16 -128 0
v -16 -112 0
v 0 -112 0
v -16 -128 0
v -32 -128 0
v -32 -112 0
v -16 -112 0
v -32 -128 0
v -48 -128 0
v -48 -112 0
v -32 -112 0
v -48 -128 0
v -64 -128 0
v -64 -112 0
v -48 -112 0
v -64 -128 0
v -80 -128 0
v -80 -112 0
v -64 -112 0
v -80 -128 0
v -96 -128 0
v -96 -112 0
v -80 -112 0
v -96 -128 0
v -112 -128 0
v -112 -112 0
v -96 -112 0
v -112 -128 0
v -128 -128 0
v -128 -112 0
v -112 -112 0
v -128 -128 0
v -144 -128 0
v -144 -112 0
v -128 -112 0
v -144 -128 0
v -160 -128 0
v -160 -112 0
v -144 -112 0
v -160 -128 0
v -176 -128 0
v -176 -112 0
v -160 -112 0
v -176 -128 0
v -192 -128 0
v -192 -112 0
v -176 -112 0
v -192 -128 0
v -208 -128 0
v -208 -112 0
v -192 -112 0
v -208 -128 0
v -224 -128 0
v -224 -112 0
v -208 -112 0
v -224 -128 0
v -240 -128 0
v -240 -112 0
v -224 -112 0
v -240 -128 0
v -256 -128 0
v -256 -112 0
v -240 -112 0
v 0 -144 0
v -16 -144 0
v -16 -128 0
v 0 -128 0
v -16 -144 0
v -32 -144 0
v -32 -128 0
v -16 -128 0
v -32 -144 0
v -48 -144 0
v -48 -128 0
v -32 -128 0
v -48 -144 0
v -64 -144 0
v -64 -128 0
v -48 -128 0
v -64 -144 0
v -80 -144 0
v -80 -128 0
v -64 -128 0
v -80 -144 0
v -96 -144 0
v -96 -128 0
v -80 -128 0
v -96 -144 0
v -112 -144 0
v -112 -128 0
v -96 -128 0
v -112 -144 0
v -128 -144 0
v -128 -128 0
v -112 -128 0
v -128 -144 0
v -144 -144 0
v -144 -128 0
v -128 -128 0
v -144 -144 0
v -160 -144 0
v -160 -128 0
v -144 -128 0
v -160 -144 0
v -176 -144 0
v -176 -128 0
v -160 -128 0
v -176 -144 0
v -192 -144 0
v -192 -128 0
v -176 -128 0
v -192 -144 0
v -208 -144 0
v -208 -128 0
v -192 -128 0
v -208 -144 0
v -224 -144 0
v -224 -128 0
v -208 -128 0
v -224 -144 0
v -240 -144 0
v -240 -128 0
v -224 -128 0
v -240 -144 0
v -256 -144 0
v -256 -128 0
v -240 -128 0
v 0 -160 0
v -16 -160 0
v -16 -144 0
v 0 -144 0
v -16 -160 0
v -32 -160 0
v -32 -144 0
v -16 -144 0
v -32 -160 0
v -48 -160 0
v -48 -144 0
v -32 -144 0
v -48 -160 0
v -64 -160 0
v -64 -144 0
v -48 -144 0
v -64 -160 0
v -80 -160 0
v -80 -144 0
v -64 -144 0
v -80 -160 0
v -96 -160 0
v -96 -144 0
v -80 -144 0
v -96 -160 0
v -112 -160 0
v -112 -144 0
v -96 -144 0
v -112 -160 0
v -128 -160 0
v -128 -144 0
v -112 -144 0
v -128 -160 0
v -144 -160 0
v -144 -144 0
v -128 -144 0
v -144 -160 0
v -160 -160 0
v -160 -144 0
v -144 -144 0
v -160 -160 0
v -176 -160 0
v -176 -144 0
v -160 -144 0
v -176 -160 0
v -192 -160 0
v -192 -144 0
v -176 -144 0
v -192 -160 0
v -208 -160 0
v -208 -144 0
v -192 -144 0
v -208 -160 0
v -224 -160 0
v -224 -144 0
v -208 -144 0
v -224 -160 0
v -240 -160 0
v -240 -144 0
v -224 -144 0
v -240 -160 0
v -256 -160 0
v -256 -144 0
v -240 -144 0
v 0 -176 0
v -16 -176 0
v -16 -160 0
v 0 -160 0
v -16 -176 0
v -32 -176 0
v -32 -160 0
v -16 -160 0
v -32 -176 0
v -48 -176 0
v -48 -160 0
v -32 -160 0
v -48 -176 0
v -64 -176 0
v -64 -160 0
v -48 -160 0
v -64 -176 0
v -80 -176 0
v -80 -160 0
v -64 -160 0
v -80 -176 0
v -96 -176 0
v -96 -160 0
v -80 -160 0
v -96 -176 0
v -112 -176 0
v -112 -160 0
v -96 -160 0
v -112 -176 0
v -128 -176 0
v -128 -160 0
v -112 -160 0
v -128 -176 0
v -144 -176 0
v -144 -160 0
v -128 -160 0
v -144 -176 0
v -160 -176 0
v -160 -160 0
v -144 -160 0
v -160 -176 0
v -176 -176 0
v -176 -160 0
v -160 -160 0
v -176 -176 0
v -192 -176 0
v -192 -160 0
v -176 -160 0
v -192 -176 0
v -208 -176 0
v -208 -160 0
v -192 -160 0
v -208 -176 0
v -224 -176 0
v -224 -160 0
v -208 -160 0
v -224 -176 0
v -240 -176 0
v -240 -160 0
v -224 -160 0
v -240 -176 0
v -256 -176 0
v -256 -160 0
v -240 -160 0
v 0 -192 0
v -16 -192 0
v -16 -176 0
v 0 -176 0
v -16 -192 0
v -32 -192 0
v -32 -176 0
v -16 -176 0
v -32 -192 0
v -48 -192 0
v -48 -176 0
v -32 -176 0
v -48 -192 0
v -64 -192 0
v -64 -176 0
v -48 -176 0
v -64 -192 0
v -80 -192 0
v -80 -176 0
v -64 -176 0
v -80 -192 0
v -96 -192 0
v -96 -176 0
v -80 -176 0
v -96 -192 0
v -112 -192 0
v -112 -176 0
v -96 -176 0
v -112 -192 0
v -128 -192 0
v -128 -176 0
v -112 -176 0
v -128 -192 0
v -144 -192 0
v -144 -176 0
v -128 -176 0
v -144 -192 0
v -160 -192 0
v -160 -176 0
v -144 -176 0
v -160 -192 0
v -176 -192 0
v -176 -176 0
v -160 -176 0
v -176 -192 0
v -192 -192 0
v -192 -176 0
v -176 -176 0
v -192 -192 0
v -208 -192 0
v -208 -176 0
v -192 -176 0
v -208 -192 0
v -224 -192 0
v -224 -176 0
v -208 -176 0
v -224 -192 0
v -240 -192 0
v -240 -176 0
v -224 -176 0
v -240 -192 0
v -256 -192 0
v -256 -176 0
v -240 -176 0
v 0 -208 0
v -16 -208 0
v -16 -192 0
v 0 -192 0
v -16 -208 0
v -32 -208 0
v -32 -192 0
v -16 -192 0
v -32 -208 0
v -48 -208 0
v -48 -192 0
v -32 -192 0
v -48 -208 0
v -64 -208 0
v -64 -192 0
v -48 -192 0
v -64 -208 0
v -80 -208 0
v -80 -192 0
v -64 -192 0
v -80 -208 0
v -96 -208 0
v -96 -192 0
v -80 -192 0
v -96 -208 0
v -112 -208 0
v -112 -192 0
v -96 -192 0
v -112 -208 0
v -128 -208 0
v -128 -192 0
v -112 -192 0
v -128 -208 0
v -144 -208 0
v -144 -192 0
v -128 -192 0
v -144 -208 0
v -160 -208 0
v -160 -192 0
v -144 -192 0
v -160 -208 0
v -176 -208 0
v -176 -192 0
v -160 -192 0
v -176 -208 0
v -192 -208 0
v -192 -192 0
v -176 -192 0
v -192 -208 0
v -208 -208 0
v -208 -192 0
v -192 -192 0
v -208 -208 0
v -224 -208 0
v -224 -192 0
v -208 -192 0
v -224 -208 0
v -240 -208 0
v -240 -192 0
v -224 -192 0
v -240 -208 0
v -256 -208 0
v -256 -192 0
v -240 -192 0
v 0 -224 0
v -16 -224 0
v -16 -208 0
v 0 -208 0
v -16 -224 0
v -32 -224 0
v -32 -208 0
v -16 -208 0
v -32 -224 0
v -48 -224 0
v -48 -208 0
v -32 -208 0
v -48 -224 0
v -64 -224 0
v -64 -208 0
v -48 -208 0
v -64 -224 0
v -80 -224 0
v -80 -208 0
v -64 -208 0
v -80 -224 0
v -96 -224 0
v -96 -208 0
v -80 -208 0
v -96 -224 0
v -112 -224 0
v -112 -208 0
v -96 -208 0
v -112 -224 0
v -128 -224 0
v -128 -208 0
v -112 -208 0
v -128 -224 0
v -144 -224 0
v -144 -208 0
v -128 -208 0
v -144 -224 0
v -160 -224 0
v -160 -208 0
v -144 -208 0
v -160 -224 0
v -176 -224 0
v -176 -208 0
v -160 -208 0
v -176 -224 0
v -192 -224 0
v -192 -208 0
v -176 -208 0
v -192 -224 0
v -208 -224 0
v -208 -208 0
v -192 -208 0
v -208 -224 0
v -224 -224 0
v -224 -208 0
v -208 -208 0
v -224 -224 0
v -240 -224 0
v -240 -208 0
v -224 -208 0
v -240 -224 0
v -256 -224 0
v -256 -208 0
v -240 -208 0
v 0 -240 0
v -16 -240 0
v -16 -224 0
v 0 -224 0
v -16 -240 0
v -32 -240 0
v -32 -224 0
v -16 -224 0
v -32 -240 0
v -48 -240 0
v -48 -224 0
v -32 -224 0
v -48 -240 0
v -64 -240 0
v -64 -224 0
v -48 -224 0
v -64 -240 0
v -80 -240 0
v -80 -224 0
v -64 -224 0
v -80 -240 0
v -96 -240 0
v -96 -224 0
v -80 -224 0
v -96 -240 0
v -112 -240 0
v -112 -224 0
v -96 -224 0
v -112 -240 0
v -128 -240 0
v -128 -224 0
v -112 -224 0
v -128 -240 0
v -144 -240 0
v -144 -224 0
v -128 -224 0
v -144 -240 0
v -160 -240 0
v -160 -224 0
v -144 -224 0
v -160 -240 0
v -176 -240 0
v -176 -224 0
v -160 -224 0
v -176 -240 0
v -192 -240 0
v -192 -224 0
v -176 -224 0
v -192 -240 0
v -208 -240 0
v -208 -224 0
v -192 -224 0
v -208 -240 0
v -224 -240 0
v -224 -224 0
v -208 -224 0
v -224 -240 0
v -240 -240 0
v -240 -224 0
v -224 -224 0
v -240 -240 0
v -256 -240 0
v -256 -224 0
v -240 -224 0
v 0 -256 0
v -16 -256 0
v -16 -240 0
v 0 -240 0
v -16 -256 0
v -32 -256 0
v -32 -240 0
v -16 -240 0
v -32 -256 0
v -48 -256 0
v -48 -240 0
v -32 -240 0
v -48 -256 0
v -64 -256 0
v -64 -240 0
v -48 -240 0
v -64 -256 0
v -80 -256 0
v -80 -240 0
v -64 -240 0
v -80 -256 0
v -96 -256 0
v -96 -240 0
v -80 -240 0
v -96 -256 0
v -112 -256 0
v -112 -240 0
v -96 -240 0
v -112 -256 0
v -128 -256 0
v -128 -240 0
v -112 -240 0
v -128 -256 0
v -144 -256 0
v -144 -240 0
v -128 -240 0
v -144 -256 0
v -160 -256 0
v -160 -240 0
v -144 -240 0
v -160 -256 0
v -176 -256 0
v -176 -240 0
v -160 -240 0
v -176 -256 0
v -192 -256 0
v -192 -240 0
v -176 -240 0
v -192 -256 0
v -208 -256 0
v -208 -240 0
v -192 -240 0
v -208 -256 0
v -224 -256 0
v -224 -240 0
v -208 -240 0
v -224 -256 0
v -240 -256 0
v -240 -240 0
v -224 -240 0
v -240 -256 0
v -256 -256 0
v -256 -240 0
v -240 -240 0

# Texture cooridinates (Count = 49)
vt 0.015625 0.421875
vt 0.01953125 0.421875
vt 0.01953125 0.4375
vt 0.015625 0.4375
vt 0.01171875 0.4375
vt 0.015625 0.453125
vt 0.01171875 0.453125
vt 0.0234375 0.40625
vt 0.02734375 0.40625
vt 0.02734375 0.421875
vt 0.0234375 0.421875
vt 0.03125 0.40625
vt 0.03125 0.421875
vt 0.01171875 0.421875
vt 0.01953125 0.453125
vt 0.01953125 0.46875
vt 0.015625 0.46875
vt 0.0234375 0.453125
vt 0.02734375 0.453125
vt 0.02734375 0.46875
vt 0.0234375 0.46875
vt 0.0078125 0.46875
vt 0.01171875 0.46875
vt 0.01171875 0.484375
vt 0.0078125 0.484375
vt 0.03125 0.453125
vt 0.03125 0.46875
vt 0.01953125 0.390625
vt 0.0234375 0.390625
vt 0.01953125 0.40625
vt 0.01171875 0.390625
vt 0.015625 0.390625
vt 0.015625 0.40625
vt 0.01171875 0.40625
vt 0.03125 0.484375
vt 0.02734375 0.484375
vt 0.0078125 0.453125
vt 0.015625 0.484375
vt 0.0078125 0.421875
vt 0.0078125 0.4375
vt 0.0234375 0.484375
vt 0.01953125 0.484375
vt 0.0078125 0.40625
vt 0.03125 0.4375
vt 0.02734375 0.4375
vt 0.02734375 0.390625
vt 0.0234375 0.4375
vt 0.0078125 0.390625
vt 0.03125 0.390625

# Normal
vn 0 0 -1

# Mesh description
g TitleIntro_mesh_0005

# Faces
f 1/1/1 2/2/1 3/3/1 4/4/1
f 5/5/1 6/4/1 7/6/1 8/7/1
f 9/8/1 10/9/1 11/10/1 12/11/1
f 13/9/1 14/12/1 15/13/1 16/10/1
f 17/14/1 18/1/1 19/4/1 20/5/1
f 21/6/1 22/15/1 23/16/1 24/17/1
f 25/5/1 26/4/1 27/6/1 28/7/1
f 29/18/1 30/19/1 31/20/1 32/21/1
f 33/22/1 34/23/1 35/24/1 36/25/1
f 37/19/1 38/26/1 39/27/1 40/20/1
f 41/7/1 42/6/1 43/17/1 44/23/1
f 45/28/1 46/29/1 47/8/1 48/30/1
f 49/15/1 50/18/1 51/21/1 52/16/1
f 53/30/1 54/8/1 55/11/1 56/2/1
f 57/30/1 58/8/1 59/11/1 60/2/1
f 61/31/1 62/32/1 63/33/1 64/34/1
f 65/30/1 66/8/1 67/11/1 68/2/1
f 69/15/1 70/18/1 71/21/1 72/16/1
f 73/6/1 74/15/1 75/16/1 76/17/1
f 77/20/1 78/27/1 79/35/1 80/36/1
f 81/37/1 82/7/1 83/23/1 84/22/1
f 85/23/1 86/17/1 87/38/1 88/24/1
f 89/28/1 90/29/1 91/8/1 92/30/1
f 93/39/1 94/14/1 95/5/1 96/40/1
f 97/16/1 98/21/1 99/41/1 100/42/1
f 101/43/1 102/34/1 103/14/1 104/39/1
f 105/7/1 106/6/1 107/17/1 108/23/1
f 109/39/1 110/14/1 111/5/1 112/40/1
f 113/10/1 114/13/1 115/44/1 116/45/1
f 117/14/1 118/1/1 119/4/1 120/5/1
f 121/21/1 122/20/1 123/36/1 124/41/1
f 125/16/1 126/21/1 127/41/1 128/42/1
f 129/29/1 130/46/1 131/9/1 132/8/1
f 133/33/1 134/30/1 135/2/1 136/1/1
f 137/8/1 138/9/1 139/10/1 140/11/1
f 141/19/1 142/26/1 143/27/1 144/20/1
f 145/2/1 146/11/1 147/47/1 148/3/1
f 149/47/1 150/45/1 151/19/1 152/18/1
f 153/40/1 154/5/1 155/7/1 156/37/1
f 157/1/1 158/2/1 159/3/1 160/4/1
f 161/21/1 162/20/1 163/36/1 164/41/1
f 165/3/1 166/47/1 167/18/1 168/15/1
f 169/4/1 170/3/1 171/15/1 172/6/1
f 173/23/1 174/17/1 175/38/1 176/24/1
f 177/17/1 178/16/1 179/42/1 180/38/1
f 181/3/1 182/47/1 183/18/1 184/15/1
f 185/33/1 186/30/1 187/2/1 188/1/1
f 189/30/1 190/8/1 191/11/1 192/2/1
f 193/16/1 194/21/1 195/41/1 196/42/1
f 197/31/1 198/32/1 199/33/1 200/34/1
f 201/4/1 202/3/1 203/15/1 204/6/1
f 205/45/1 206/44/1 207/26/1 208/19/1
f 209/34/1 210/33/1 211/1/1 212/14/1
f 213/21/1 214/20/1 215/36/1 216/41/1
f 217/10/1 218/13/1 219/44/1 220/45/1
f 221/45/1 222/44/1 223/26/1 224/19/1
f 225/4/1 226/3/1 227/15/1 228/6/1
f 229/16/1 230/21/1 231/41/1 232/42/1
f 233/14/1 234/1/1 235/4/1 236/5/1
f 237/22/1 238/23/1 239/24/1 240/25/1
f 241/37/1 242/7/1 243/23/1 244/22/1
f 245/31/1 246/32/1 247/33/1 248/34/1
f 249/43/1 250/34/1 251/14/1 252/39/1
f 253/28/1 254/29/1 255/8/1 256/30/1
f 257/11/1 258/10/1 259/45/1 260/47/1
f 261/37/1 262/7/1 263/23/1 264/22/1
f 265/45/1 266/44/1 267/26/1 268/19/1
f 269/39/1 270/14/1 271/5/1 272/40/1
f 273/23/1 274/17/1 275/38/1 276/24/1
f 277/43/1 278/34/1 279/14/1 280/39/1
f 281/30/1 282/8/1 283/11/1 284/2/1
f 285/2/1 286/11/1 287/47/1 288/3/1
f 289/15/1 290/18/1 291/21/1 292/16/1
f 293/17/1 294/16/1 295/42/1 296/38/1
f 297/11/1 298/10/1 299/45/1 300/47/1
f 301/30/1 302/8/1 303/11/1 304/2/1
f 305/1/1 306/2/1 307/3/1 308/4/1
f 309/48/1 310/31/1 311/34/1 312/43/1
f 313/47/1 314/45/1 315/19/1 316/18/1
f 317/37/1 318/7/1 319/23/1 320/22/1
f 321/30/1 322/8/1 323/11/1 324/2/1
f 325/30/1 326/8/1 327/11/1 328/2/1
f 329/8/1 330/9/1 331/10/1 332/11/1
f 333/47/1 334/45/1 335/19/1 336/18/1
f 337/3/1 338/47/1 339/18/1 340/15/1
f 341/15/1 342/18/1 343/21/1 344/16/1
f 345/19/1 346/26/1 347/27/1 348/20/1
f 349/45/1 350/44/1 351/26/1 352/19/1
f 353/5/1 354/4/1 355/6/1 356/7/1
f 357/1/1 358/2/1 359/3/1 360/4/1
f 361/17/1 362/16/1 363/42/1 364/38/1
f 365/11/1 366/10/1 367/45/1 368/47/1
f 369/6/1 370/15/1 371/16/1 372/17/1
f 373/30/1 374/8/1 375/11/1 376/2/1
f 377/22/1 378/23/1 379/24/1 380/25/1
f 381/8/1 382/9/1 383/10/1 384/11/1
f 385/14/1 386/1/1 387/4/1 388/5/1
f 389/32/1 390/28/1 391/30/1 392/33/1
f 393/6/1 394/15/1 395/16/1 396/17/1
f 397/40/1 398/5/1 399/7/1 400/37/1
f 401/39/1 402/14/1 403/5/1 404/40/1
f 405/16/1 406/21/1 407/41/1 408/42/1
f 409/30/1 410/8/1 411/11/1 412/2/1
f 413/37/1 414/7/1 415/23/1 416/22/1
f 417/46/1 418/49/1 419/12/1 420/9/1
f 421/17/1 422/16/1 423/42/1 424/38/1
f 425/22/1 426/23/1 427/24/1 428/25/1
f 429/46/1 430/49/1 431/12/1 432/9/1
f 433/30/1 434/8/1 435/11/1 436/2/1
f 437/29/1 438/46/1 439/9/1 440/8/1
f 441/11/1 442/10/1 443/45/1 444/47/1
f 445/14/1 446/1/1 447/4/1 448/5/1
f 449/21/1 450/20/1 451/36/1 452/41/1
f 453/15/1 454/18/1 455/21/1 456/16/1
f 457/30/1 458/8/1 459/11/1 460/2/1
f 461/32/1 462/28/1 463/30/1 464/33/1
f 465/5/1 466/4/1 467/6/1 468/7/1
f 469/28/1 470/29/1 471/8/1 472/30/1
f 473/29/1 474/46/1 475/9/1 476/8/1
f 477/22/1 478/23/1 479/24/1 480/25/1
f 481/40/1 482/5/1 483/7/1 484/37/1
f 485/39/1 486/14/1 487/5/1 488/40/1
f 489/32/1 490/28/1 491/30/1 492/33/1
f 493/34/1 494/33/1 495/1/1 496/14/1
f 497/3/1 498/47/1 499/18/1 500/15/1
f 501/32/1 502/28/1 503/30/1 504/33/1
f 505/11/1 506/10/1 507/45/1 508/47/1
f 509/3/1 510/47/1 511/18/1 512/15/1
f 513/29/1 514/46/1 515/9/1 516/8/1
f 517/46/1 518/49/1 519/12/1 520/9/1
f 521/46/1 522/49/1 523/12/1 524/9/1
f 525/46/1 526/49/1 527/12/1 528/9/1
f 529/21/1 530/20/1 531/36/1 532/41/1
f 533/4/1 534/3/1 535/15/1 536/6/1
f 537/11/1 538/10/1 539/45/1 540/47/1
f 541/1/1 542/2/1 543/3/1 544/4/1
f 545/20/1 546/27/1 547/35/1 548/36/1
f 549/32/1 550/28/1 551/30/1 552/33/1
f 553/1/1 554/2/1 555/3/1 556/4/1
f 557/37/1 558/7/1 559/23/1 560/22/1
f 561/19/1 562/26/1 563/27/1 564/20/1
f 565/18/1 566/19/1 567/20/1 568/21/1
f 569/1/1 570/2/1 571/3/1 572/4/1
f 573/7/1 574/6/1 575/17/1 576/23/1
f 577/11/1 578/10/1 579/45/1 580/47/1
f 581/28/1 582/29/1 583/8/1 584/30/1
f 585/7/1 586/6/1 587/17/1 588/23/1
f 589/23/1 590/17/1 591/38/1 592/24/1
f 593/21/1 594/20/1 595/36/1 596/41/1
f 597/30/1 598/8/1 599/11/1 600/2/1
f 601/45/1 602/44/1 603/26/1 604/19/1
f 605/7/1 606/6/1 607/17/1 608/23/1
f 609/1/1 610/2/1 611/3/1 612/4/1
f 613/16/1 614/21/1 615/41/1 616/42/1
f 617/3/1 618/47/1 619/18/1 620/15/1
f 621/2/1 622/11/1 623/47/1 624/3/1
f 625/15/1 626/18/1 627/21/1 628/16/1
f 629/40/1 630/5/1 631/7/1 632/37/1
f 633/23/1 634/17/1 635/38/1 636/24/1
f 637/1/1 638/2/1 639/3/1 640/4/1
f 641/37/1 642/7/1 643/23/1 644/22/1
f 645/14/1 646/1/1 647/4/1 648/5/1
f 649/40/1 650/5/1 651/7/1 652/37/1
f 653/21/1 654/20/1 655/36/1 656/41/1
f 657/15/1 658/18/1 659/21/1 660/16/1
f 661/3/1 662/47/1 663/18/1 664/15/1
f 665/28/1 666/29/1 667/8/1 668/30/1
f 669/16/1 670/21/1 671/41/1 672/42/1
f 673/4/1 674/3/1 675/15/1 676/6/1
f 677/2/1 678/11/1 679/47/1 680/3/1
f 681/10/1 682/13/1 683/44/1 684/45/1
f 685/43/1 686/34/1 687/14/1 688/39/1
f 689/8/1 690/9/1 691/10/1 692/11/1
f 693/39/1 694/14/1 695/5/1 696/40/1
f 697/29/1 698/46/1 699/9/1 700/8/1
f 701/17/1 702/16/1 703/42/1 704/38/1
f 705/16/1 706/21/1 707/41/1 708/42/1
f 709/3/1 710/47/1 711/18/1 712/15/1
f 713/28/1 714/29/1 715/8/1 716/30/1
f 717/8/1 718/9/1 719/10/1 720/11/1
f 721/45/1 722/44/1 723/26/1 724/19/1
f 725/5/1 726/4/1 727/6/1 728/7/1
f 729/23/1 730/17/1 731/38/1 732/24/1
f 733/30/1 734/8/1 735/11/1 736/2/1
f 737/22/1 738/23/1 739/24/1 740/25/1
f 741/5/1 742/4/1 743/6/1 744/7/1
f 745/47/1 746/45/1 747/19/1 748/18/1
f 749/16/1 750/21/1 751/41/1 752/42/1
f 753/2/1 754/11/1 755/47/1 756/3/1
f 757/8/1 758/9/1 759/10/1 760/11/1
f 761/5/1 762/4/1 763/6/1 764/7/1
f 765/48/1 766/31/1 767/34/1 768/43/1
f 769/39/1 770/14/1 771/5/1 772/40/1
f 773/4/1 774/3/1 775/15/1 776/6/1
f 777/28/1 778/29/1 779/8/1 780/30/1
f 781/23/1 782/17/1 783/38/1 784/24/1
f 785/10/1 786/13/1 787/44/1 788/45/1
f 789/5/1 790/4/1 791/6/1 792/7/1
f 793/40/1 794/5/1 795/7/1 796/37/1
f 797/5/1 798/4/1 799/6/1 800/7/1
f 801/3/1 802/47/1 803/18/1 804/15/1
f 805/33/1 806/30/1 807/2/1 808/1/1
f 809/10/1 810/13/1 811/44/1 812/45/1
f 813/16/1 814/21/1 815/41/1 816/42/1
f 817/30/1 818/8/1 819/11/1 820/2/1
f 821/6/1 822/15/1 823/16/1 824/17/1
f 825/19/1 826/26/1 827/27/1 828/20/1
f 829/21/1 830/20/1 831/36/1 832/41/1

