# Tiled2Unity generated file. Do not modify by hand.
# Wavefront file for 'TitleIntro_mesh_0057.obj'

# Vertices (Count = 1024)
v 0 -16 0
v -16 -16 0
v -16 0 0
v 0 0 0
v -16 -16 0
v -32 -16 0
v -32 0 0
v -16 0 0
v -32 -16 0
v -48 -16 0
v -48 0 0
v -32 0 0
v -48 -16 0
v -64 -16 0
v -64 0 0
v -48 0 0
v -64 -16 0
v -80 -16 0
v -80 0 0
v -64 0 0
v -80 -16 0
v -96 -16 0
v -96 0 0
v -80 0 0
v -96 -16 0
v -112 -16 0
v -112 0 0
v -96 0 0
v -112 -16 0
v -128 -16 0
v -128 0 0
v -112 0 0
v -128 -16 0
v -144 -16 0
v -144 0 0
v -128 0 0
v -144 -16 0
v -160 -16 0
v -160 0 0
v -144 0 0
v -160 -16 0
v -176 -16 0
v -176 0 0
v -160 0 0
v -176 -16 0
v -192 -16 0
v -192 0 0
v -176 0 0
v -192 -16 0
v -208 -16 0
v -208 0 0
v -192 0 0
v -208 -16 0
v -224 -16 0
v -224 0 0
v -208 0 0
v -224 -16 0
v -240 -16 0
v -240 0 0
v -224 0 0
v -240 -16 0
v -256 -16 0
v -256 0 0
v -240 0 0
v 0 -32 0
v -16 -32 0
v -16 -16 0
v 0 -16 0
v -16 -32 0
v -32 -32 0
v -32 -16 0
v -16 -16 0
v -32 -32 0
v -48 -32 0
v -48 -16 0
v -32 -16 0
v -48 -32 0
v -64 -32 0
v -64 -16 0
v -48 -16 0
v -64 -32 0
v -80 -32 0
v -80 -16 0
v -64 -16 0
v -80 -32 0
v -96 -32 0
v -96 -16 0
v -80 -16 0
v -96 -32 0
v -112 -32 0
v -112 -16 0
v -96 -16 0
v -112 -32 0
v -128 -32 0
v -128 -16 0
v -112 -16 0
v -128 -32 0
v -144 -32 0
v -144 -16 0
v -128 -16 0
v -144 -32 0
v -160 -32 0
v -160 -16 0
v -144 -16 0
v -160 -32 0
v -176 -32 0
v -176 -16 0
v -160 -16 0
v -176 -32 0
v -192 -32 0
v -192 -16 0
v -176 -16 0
v -192 -32 0
v -208 -32 0
v -208 -16 0
v -192 -16 0
v -208 -32 0
v -224 -32 0
v -224 -16 0
v -208 -16 0
v -224 -32 0
v -240 -32 0
v -240 -16 0
v -224 -16 0
v -240 -32 0
v -256 -32 0
v -256 -16 0
v -240 -16 0
v 0 -48 0
v -16 -48 0
v -16 -32 0
v 0 -32 0
v -16 -48 0
v -32 -48 0
v -32 -32 0
v -16 -32 0
v -32 -48 0
v -48 -48 0
v -48 -32 0
v -32 -32 0
v -48 -48 0
v -64 -48 0
v -64 -32 0
v -48 -32 0
v -64 -48 0
v -80 -48 0
v -80 -32 0
v -64 -32 0
v -80 -48 0
v -96 -48 0
v -96 -32 0
v -80 -32 0
v -96 -48 0
v -112 -48 0
v -112 -32 0
v -96 -32 0
v -112 -48 0
v -128 -48 0
v -128 -32 0
v -112 -32 0
v -128 -48 0
v -144 -48 0
v -144 -32 0
v -128 -32 0
v -144 -48 0
v -160 -48 0
v -160 -32 0
v -144 -32 0
v -160 -48 0
v -176 -48 0
v -176 -32 0
v -160 -32 0
v -176 -48 0
v -192 -48 0
v -192 -32 0
v -176 -32 0
v -192 -48 0
v -208 -48 0
v -208 -32 0
v -192 -32 0
v -208 -48 0
v -224 -48 0
v -224 -32 0
v -208 -32 0
v -224 -48 0
v -240 -48 0
v -240 -32 0
v -224 -32 0
v -240 -48 0
v -256 -48 0
v -256 -32 0
v -240 -32 0
v 0 -64 0
v -16 -64 0
v -16 -48 0
v 0 -48 0
v -16 -64 0
v -32 -64 0
v -32 -48 0
v -16 -48 0
v -32 -64 0
v -48 -64 0
v -48 -48 0
v -32 -48 0
v -48 -64 0
v -64 -64 0
v -64 -48 0
v -48 -48 0
v -64 -64 0
v -80 -64 0
v -80 -48 0
v -64 -48 0
v -80 -64 0
v -96 -64 0
v -96 -48 0
v -80 -48 0
v -96 -64 0
v -112 -64 0
v -112 -48 0
v -96 -48 0
v -112 -64 0
v -128 -64 0
v -128 -48 0
v -112 -48 0
v -128 -64 0
v -144 -64 0
v -144 -48 0
v -128 -48 0
v -144 -64 0
v -160 -64 0
v -160 -48 0
v -144 -48 0
v -160 -64 0
v -176 -64 0
v -176 -48 0
v -160 -48 0
v -176 -64 0
v -192 -64 0
v -192 -48 0
v -176 -48 0
v -192 -64 0
v -208 -64 0
v -208 -48 0
v -192 -48 0
v -208 -64 0
v -224 -64 0
v -224 -48 0
v -208 -48 0
v -224 -64 0
v -240 -64 0
v -240 -48 0
v -224 -48 0
v -240 -64 0
v -256 -64 0
v -256 -48 0
v -240 -48 0
v 0 -80 0
v -16 -80 0
v -16 -64 0
v 0 -64 0
v -16 -80 0
v -32 -80 0
v -32 -64 0
v -16 -64 0
v -32 -80 0
v -48 -80 0
v -48 -64 0
v -32 -64 0
v -48 -80 0
v -64 -80 0
v -64 -64 0
v -48 -64 0
v -64 -80 0
v -80 -80 0
v -80 -64 0
v -64 -64 0
v -80 -80 0
v -96 -80 0
v -96 -64 0
v -80 -64 0
v -96 -80 0
v -112 -80 0
v -112 -64 0
v -96 -64 0
v -112 -80 0
v -128 -80 0
v -128 -64 0
v -112 -64 0
v -128 -80 0
v -144 -80 0
v -144 -64 0
v -128 -64 0
v -144 -80 0
v -160 -80 0
v -160 -64 0
v -144 -64 0
v -160 -80 0
v -176 -80 0
v -176 -64 0
v -160 -64 0
v -176 -80 0
v -192 -80 0
v -192 -64 0
v -176 -64 0
v -192 -80 0
v -208 -80 0
v -208 -64 0
v -192 -64 0
v -208 -80 0
v -224 -80 0
v -224 -64 0
v -208 -64 0
v -224 -80 0
v -240 -80 0
v -240 -64 0
v -224 -64 0
v -240 -80 0
v -256 -80 0
v -256 -64 0
v -240 -64 0
v 0 -96 0
v -16 -96 0
v -16 -80 0
v 0 -80 0
v -16 -96 0
v -32 -96 0
v -32 -80 0
v -16 -80 0
v -32 -96 0
v -48 -96 0
v -48 -80 0
v -32 -80 0
v -48 -96 0
v -64 -96 0
v -64 -80 0
v -48 -80 0
v -64 -96 0
v -80 -96 0
v -80 -80 0
v -64 -80 0
v -80 -96 0
v -96 -96 0
v -96 -80 0
v -80 -80 0
v -96 -96 0
v -112 -96 0
v -112 -80 0
v -96 -80 0
v -112 -96 0
v -128 -96 0
v -128 -80 0
v -112 -80 0
v -128 -96 0
v -144 -96 0
v -144 -80 0
v -128 -80 0
v -144 -96 0
v -160 -96 0
v -160 -80 0
v -144 -80 0
v -160 -96 0
v -176 -96 0
v -176 -80 0
v -160 -80 0
v -176 -96 0
v -192 -96 0
v -192 -80 0
v -176 -80 0
v -192 -96 0
v -208 -96 0
v -208 -80 0
v -192 -80 0
v -208 -96 0
v -224 -96 0
v -224 -80 0
v -208 -80 0
v -224 -96 0
v -240 -96 0
v -240 -80 0
v -224 -80 0
v -240 -96 0
v -256 -96 0
v -256 -80 0
v -240 -80 0
v 0 -112 0
v -16 -112 0
v -16 -96 0
v 0 -96 0
v -16 -112 0
v -32 -112 0
v -32 -96 0
v -16 -96 0
v -32 -112 0
v -48 -112 0
v -48 -96 0
v -32 -96 0
v -48 -112 0
v -64 -112 0
v -64 -96 0
v -48 -96 0
v -64 -112 0
v -80 -112 0
v -80 -96 0
v -64 -96 0
v -80 -112 0
v -96 -112 0
v -96 -96 0
v -80 -96 0
v -96 -112 0
v -112 -112 0
v -112 -96 0
v -96 -96 0
v -112 -112 0
v -128 -112 0
v -128 -96 0
v -112 -96 0
v -128 -112 0
v -144 -112 0
v -144 -96 0
v -128 -96 0
v -144 -112 0
v -160 -112 0
v -160 -96 0
v -144 -96 0
v -160 -112 0
v -176 -112 0
v -176 -96 0
v -160 -96 0
v -176 -112 0
v -192 -112 0
v -192 -96 0
v -176 -96 0
v -192 -112 0
v -208 -112 0
v -208 -96 0
v -192 -96 0
v -208 -112 0
v -224 -112 0
v -224 -96 0
v -208 -96 0
v -224 -112 0
v -240 -112 0
v -240 -96 0
v -224 -96 0
v -240 -112 0
v -256 -112 0
v -256 -96 0
v -240 -96 0
v 0 -128 0
v -16 -128 0
v -16 -112 0
v 0 -112 0
v -16 -128 0
v -32 -128 0
v -32 -112 0
v -16 -112 0
v -32 -128 0
v -48 -128 0
v -48 -112 0
v -32 -112 0
v -48 -128 0
v -64 -128 0
v -64 -112 0
v -48 -112 0
v -64 -128 0
v -80 -128 0
v -80 -112 0
v -64 -112 0
v -80 -128 0
v -96 -128 0
v -96 -112 0
v -80 -112 0
v -96 -128 0
v -112 -128 0
v -112 -112 0
v -96 -112 0
v -112 -128 0
v -128 -128 0
v -128 -112 0
v -112 -112 0
v -128 -128 0
v -144 -128 0
v -144 -112 0
v -128 -112 0
v -144 -128 0
v -160 -128 0
v -160 -112 0
v -144 -112 0
v -160 -128 0
v -176 -128 0
v -176 -112 0
v -160 -112 0
v -176 -128 0
v -192 -128 0
v -192 -112 0
v -176 -112 0
v -192 -128 0
v -208 -128 0
v -208 -112 0
v -192 -112 0
v -208 -128 0
v -224 -128 0
v -224 -112 0
v -208 -112 0
v -224 -128 0
v -240 -128 0
v -240 -112 0
v -224 -112 0
v -240 -128 0
v -256 -128 0
v -256 -112 0
v -240 -112 0
v 0 -144 0
v -16 -144 0
v -16 -128 0
v 0 -128 0
v -16 -144 0
v -32 -144 0
v -32 -128 0
v -16 -128 0
v -32 -144 0
v -48 -144 0
v -48 -128 0
v -32 -128 0
v -48 -144 0
v -64 -144 0
v -64 -128 0
v -48 -128 0
v -64 -144 0
v -80 -144 0
v -80 -128 0
v -64 -128 0
v -80 -144 0
v -96 -144 0
v -96 -128 0
v -80 -128 0
v -96 -144 0
v -112 -144 0
v -112 -128 0
v -96 -128 0
v -112 -144 0
v -128 -144 0
v -128 -128 0
v -112 -128 0
v -128 -144 0
v -144 -144 0
v -144 -128 0
v -128 -128 0
v -144 -144 0
v -160 -144 0
v -160 -128 0
v -144 -128 0
v -160 -144 0
v -176 -144 0
v -176 -128 0
v -160 -128 0
v -176 -144 0
v -192 -144 0
v -192 -128 0
v -176 -128 0
v -192 -144 0
v -208 -144 0
v -208 -128 0
v -192 -128 0
v -208 -144 0
v -224 -144 0
v -224 -128 0
v -208 -128 0
v -224 -144 0
v -240 -144 0
v -240 -128 0
v -224 -128 0
v -240 -144 0
v -256 -144 0
v -256 -128 0
v -240 -128 0
v 0 -160 0
v -16 -160 0
v -16 -144 0
v 0 -144 0
v -16 -160 0
v -32 -160 0
v -32 -144 0
v -16 -144 0
v -32 -160 0
v -48 -160 0
v -48 -144 0
v -32 -144 0
v -48 -160 0
v -64 -160 0
v -64 -144 0
v -48 -144 0
v -64 -160 0
v -80 -160 0
v -80 -144 0
v -64 -144 0
v -80 -160 0
v -96 -160 0
v -96 -144 0
v -80 -144 0
v -96 -160 0
v -112 -160 0
v -112 -144 0
v -96 -144 0
v -112 -160 0
v -128 -160 0
v -128 -144 0
v -112 -144 0
v -128 -160 0
v -144 -160 0
v -144 -144 0
v -128 -144 0
v -144 -160 0
v -160 -160 0
v -160 -144 0
v -144 -144 0
v -160 -160 0
v -176 -160 0
v -176 -144 0
v -160 -144 0
v -176 -160 0
v -192 -160 0
v -192 -144 0
v -176 -144 0
v -192 -160 0
v -208 -160 0
v -208 -144 0
v -192 -144 0
v -208 -160 0
v -224 -160 0
v -224 -144 0
v -208 -144 0
v -224 -160 0
v -240 -160 0
v -240 -144 0
v -224 -144 0
v -240 -160 0
v -256 -160 0
v -256 -144 0
v -240 -144 0
v 0 -176 0
v -16 -176 0
v -16 -160 0
v 0 -160 0
v -16 -176 0
v -32 -176 0
v -32 -160 0
v -16 -160 0
v -32 -176 0
v -48 -176 0
v -48 -160 0
v -32 -160 0
v -48 -176 0
v -64 -176 0
v -64 -160 0
v -48 -160 0
v -64 -176 0
v -80 -176 0
v -80 -160 0
v -64 -160 0
v -80 -176 0
v -96 -176 0
v -96 -160 0
v -80 -160 0
v -96 -176 0
v -112 -176 0
v -112 -160 0
v -96 -160 0
v -112 -176 0
v -128 -176 0
v -128 -160 0
v -112 -160 0
v -128 -176 0
v -144 -176 0
v -144 -160 0
v -128 -160 0
v -144 -176 0
v -160 -176 0
v -160 -160 0
v -144 -160 0
v -160 -176 0
v -176 -176 0
v -176 -160 0
v -160 -160 0
v -176 -176 0
v -192 -176 0
v -192 -160 0
v -176 -160 0
v -192 -176 0
v -208 -176 0
v -208 -160 0
v -192 -160 0
v -208 -176 0
v -224 -176 0
v -224 -160 0
v -208 -160 0
v -224 -176 0
v -240 -176 0
v -240 -160 0
v -224 -160 0
v -240 -176 0
v -256 -176 0
v -256 -160 0
v -240 -160 0
v 0 -192 0
v -16 -192 0
v -16 -176 0
v 0 -176 0
v -16 -192 0
v -32 -192 0
v -32 -176 0
v -16 -176 0
v -32 -192 0
v -48 -192 0
v -48 -176 0
v -32 -176 0
v -48 -192 0
v -64 -192 0
v -64 -176 0
v -48 -176 0
v -64 -192 0
v -80 -192 0
v -80 -176 0
v -64 -176 0
v -80 -192 0
v -96 -192 0
v -96 -176 0
v -80 -176 0
v -96 -192 0
v -112 -192 0
v -112 -176 0
v -96 -176 0
v -112 -192 0
v -128 -192 0
v -128 -176 0
v -112 -176 0
v -128 -192 0
v -144 -192 0
v -144 -176 0
v -128 -176 0
v -144 -192 0
v -160 -192 0
v -160 -176 0
v -144 -176 0
v -160 -192 0
v -176 -192 0
v -176 -176 0
v -160 -176 0
v -176 -192 0
v -192 -192 0
v -192 -176 0
v -176 -176 0
v -192 -192 0
v -208 -192 0
v -208 -176 0
v -192 -176 0
v -208 -192 0
v -224 -192 0
v -224 -176 0
v -208 -176 0
v -224 -192 0
v -240 -192 0
v -240 -176 0
v -224 -176 0
v -240 -192 0
v -256 -192 0
v -256 -176 0
v -240 -176 0
v 0 -208 0
v -16 -208 0
v -16 -192 0
v 0 -192 0
v -16 -208 0
v -32 -208 0
v -32 -192 0
v -16 -192 0
v -32 -208 0
v -48 -208 0
v -48 -192 0
v -32 -192 0
v -48 -208 0
v -64 -208 0
v -64 -192 0
v -48 -192 0
v -64 -208 0
v -80 -208 0
v -80 -192 0
v -64 -192 0
v -80 -208 0
v -96 -208 0
v -96 -192 0
v -80 -192 0
v -96 -208 0
v -112 -208 0
v -112 -192 0
v -96 -192 0
v -112 -208 0
v -128 -208 0
v -128 -192 0
v -112 -192 0
v -128 -208 0
v -144 -208 0
v -144 -192 0
v -128 -192 0
v -144 -208 0
v -160 -208 0
v -160 -192 0
v -144 -192 0
v -160 -208 0
v -176 -208 0
v -176 -192 0
v -160 -192 0
v -176 -208 0
v -192 -208 0
v -192 -192 0
v -176 -192 0
v -192 -208 0
v -208 -208 0
v -208 -192 0
v -192 -192 0
v -208 -208 0
v -224 -208 0
v -224 -192 0
v -208 -192 0
v -224 -208 0
v -240 -208 0
v -240 -192 0
v -224 -192 0
v -240 -208 0
v -256 -208 0
v -256 -192 0
v -240 -192 0
v 0 -224 0
v -16 -224 0
v -16 -208 0
v 0 -208 0
v -16 -224 0
v -32 -224 0
v -32 -208 0
v -16 -208 0
v -32 -224 0
v -48 -224 0
v -48 -208 0
v -32 -208 0
v -48 -224 0
v -64 -224 0
v -64 -208 0
v -48 -208 0
v -64 -224 0
v -80 -224 0
v -80 -208 0
v -64 -208 0
v -80 -224 0
v -96 -224 0
v -96 -208 0
v -80 -208 0
v -96 -224 0
v -112 -224 0
v -112 -208 0
v -96 -208 0
v -112 -224 0
v -128 -224 0
v -128 -208 0
v -112 -208 0
v -128 -224 0
v -144 -224 0
v -144 -208 0
v -128 -208 0
v -144 -224 0
v -160 -224 0
v -160 -208 0
v -144 -208 0
v -160 -224 0
v -176 -224 0
v -176 -208 0
v -160 -208 0
v -176 -224 0
v -192 -224 0
v -192 -208 0
v -176 -208 0
v -192 -224 0
v -208 -224 0
v -208 -208 0
v -192 -208 0
v -208 -224 0
v -224 -224 0
v -224 -208 0
v -208 -208 0
v -224 -224 0
v -240 -224 0
v -240 -208 0
v -224 -208 0
v -240 -224 0
v -256 -224 0
v -256 -208 0
v -240 -208 0
v 0 -240 0
v -16 -240 0
v -16 -224 0
v 0 -224 0
v -16 -240 0
v -32 -240 0
v -32 -224 0
v -16 -224 0
v -32 -240 0
v -48 -240 0
v -48 -224 0
v -32 -224 0
v -48 -240 0
v -64 -240 0
v -64 -224 0
v -48 -224 0
v -64 -240 0
v -80 -240 0
v -80 -224 0
v -64 -224 0
v -80 -240 0
v -96 -240 0
v -96 -224 0
v -80 -224 0
v -96 -240 0
v -112 -240 0
v -112 -224 0
v -96 -224 0
v -112 -240 0
v -128 -240 0
v -128 -224 0
v -112 -224 0
v -128 -240 0
v -144 -240 0
v -144 -224 0
v -128 -224 0
v -144 -240 0
v -160 -240 0
v -160 -224 0
v -144 -224 0
v -160 -240 0
v -176 -240 0
v -176 -224 0
v -160 -224 0
v -176 -240 0
v -192 -240 0
v -192 -224 0
v -176 -224 0
v -192 -240 0
v -208 -240 0
v -208 -224 0
v -192 -224 0
v -208 -240 0
v -224 -240 0
v -224 -224 0
v -208 -224 0
v -224 -240 0
v -240 -240 0
v -240 -224 0
v -224 -224 0
v -240 -240 0
v -256 -240 0
v -256 -224 0
v -240 -224 0
v 0 -256 0
v -16 -256 0
v -16 -240 0
v 0 -240 0
v -16 -256 0
v -32 -256 0
v -32 -240 0
v -16 -240 0
v -32 -256 0
v -48 -256 0
v -48 -240 0
v -32 -240 0
v -48 -256 0
v -64 -256 0
v -64 -240 0
v -48 -240 0
v -64 -256 0
v -80 -256 0
v -80 -240 0
v -64 -240 0
v -80 -256 0
v -96 -256 0
v -96 -240 0
v -80 -240 0
v -96 -256 0
v -112 -256 0
v -112 -240 0
v -96 -240 0
v -112 -256 0
v -128 -256 0
v -128 -240 0
v -112 -240 0
v -128 -256 0
v -144 -256 0
v -144 -240 0
v -128 -240 0
v -144 -256 0
v -160 -256 0
v -160 -240 0
v -144 -240 0
v -160 -256 0
v -176 -256 0
v -176 -240 0
v -160 -240 0
v -176 -256 0
v -192 -256 0
v -192 -240 0
v -176 -240 0
v -192 -256 0
v -208 -256 0
v -208 -240 0
v -192 -240 0
v -208 -256 0
v -224 -256 0
v -224 -240 0
v -208 -240 0
v -224 -256 0
v -240 -256 0
v -240 -240 0
v -224 -240 0
v -240 -256 0
v -256 -256 0
v -256 -240 0
v -240 -240 0

# Texture cooridinates (Count = 49)
vt 0.0078125 0.453125
vt 0.01171875 0.453125
vt 0.01171875 0.46875
vt 0.0078125 0.46875
vt 0.015625 0.453125
vt 0.015625 0.46875
vt 0.02734375 0.453125
vt 0.03125 0.453125
vt 0.03125 0.46875
vt 0.02734375 0.46875
vt 0.01953125 0.46875
vt 0.01953125 0.484375
vt 0.015625 0.484375
vt 0.0234375 0.40625
vt 0.02734375 0.40625
vt 0.02734375 0.421875
vt 0.0234375 0.421875
vt 0.01171875 0.484375
vt 0.0078125 0.484375
vt 0.0078125 0.421875
vt 0.01171875 0.421875
vt 0.01171875 0.4375
vt 0.0078125 0.4375
vt 0.0234375 0.4375
vt 0.02734375 0.4375
vt 0.0234375 0.453125
vt 0.015625 0.4375
vt 0.01953125 0.4375
vt 0.01953125 0.453125
vt 0.03125 0.421875
vt 0.03125 0.4375
vt 0.015625 0.421875
vt 0.01953125 0.421875
vt 0.0078125 0.40625
vt 0.01171875 0.40625
vt 0.03125 0.40625
vt 0.0078125 0.390625
vt 0.01171875 0.390625
vt 0.0234375 0.46875
vt 0.02734375 0.484375
vt 0.0234375 0.484375
vt 0.015625 0.40625
vt 0.01953125 0.40625
vt 0.015625 0.390625
vt 0.02734375 0.390625
vt 0.03125 0.390625
vt 0.01953125 0.390625
vt 0.0234375 0.390625
vt 0.03125 0.484375

# Normal
vn 0 0 -1

# Mesh description
g TitleIntro_mesh_0057

# Faces
f 1/1/1 2/2/1 3/3/1 4/4/1
f 5/2/1 6/5/1 7/6/1 8/3/1
f 9/7/1 10/8/1 11/9/1 12/10/1
f 13/6/1 14/11/1 15/12/1 16/13/1
f 17/6/1 18/11/1 19/12/1 20/13/1
f 21/14/1 22/15/1 23/16/1 24/17/1
f 25/4/1 26/3/1 27/18/1 28/19/1
f 29/20/1 30/21/1 31/22/1 32/23/1
f 33/24/1 34/25/1 35/7/1 36/26/1
f 37/27/1 38/28/1 39/29/1 40/5/1
f 41/23/1 42/22/1 43/2/1 44/1/1
f 45/4/1 46/3/1 47/18/1 48/19/1
f 49/7/1 50/8/1 51/9/1 52/10/1
f 53/22/1 54/27/1 55/5/1 56/2/1
f 57/16/1 58/30/1 59/31/1 60/25/1
f 61/32/1 62/33/1 63/28/1 64/27/1
f 65/34/1 66/35/1 67/21/1 68/20/1
f 69/15/1 70/36/1 71/30/1 72/16/1
f 73/6/1 74/11/1 75/12/1 76/13/1
f 77/32/1 78/33/1 79/28/1 80/27/1
f 81/1/1 82/2/1 83/3/1 84/4/1
f 85/37/1 86/38/1 87/35/1 88/34/1
f 89/34/1 90/35/1 91/21/1 92/20/1
f 93/5/1 94/29/1 95/11/1 96/6/1
f 97/6/1 98/11/1 99/12/1 100/13/1
f 101/16/1 102/30/1 103/31/1 104/25/1
f 105/39/1 106/10/1 107/40/1 108/41/1
f 109/42/1 110/43/1 111/33/1 112/32/1
f 113/32/1 114/33/1 115/28/1 116/27/1
f 117/20/1 118/21/1 119/22/1 120/23/1
f 121/38/1 122/44/1 123/42/1 124/35/1
f 125/45/1 126/46/1 127/36/1 128/15/1
f 129/4/1 130/3/1 131/18/1 132/19/1
f 133/44/1 134/47/1 135/43/1 136/42/1
f 137/23/1 138/22/1 139/2/1 140/1/1
f 141/23/1 142/22/1 143/2/1 144/1/1
f 145/38/1 146/44/1 147/42/1 148/35/1
f 149/33/1 150/17/1 151/24/1 152/28/1
f 153/44/1 154/47/1 155/43/1 156/42/1
f 157/25/1 158/31/1 159/8/1 160/7/1
f 161/34/1 162/35/1 163/21/1 164/20/1
f 165/1/1 166/2/1 167/3/1 168/4/1
f 169/42/1 170/43/1 171/33/1 172/32/1
f 173/39/1 174/10/1 175/40/1 176/41/1
f 177/7/1 178/8/1 179/9/1 180/10/1
f 181/4/1 182/3/1 183/18/1 184/19/1
f 185/4/1 186/3/1 187/18/1 188/19/1
f 189/33/1 190/17/1 191/24/1 192/28/1
f 193/20/1 194/21/1 195/22/1 196/23/1
f 197/2/1 198/5/1 199/6/1 200/3/1
f 201/43/1 202/14/1 203/17/1 204/33/1
f 205/25/1 206/31/1 207/8/1 208/7/1
f 209/15/1 210/36/1 211/30/1 212/16/1
f 213/45/1 214/46/1 215/36/1 216/15/1
f 217/39/1 218/10/1 219/40/1 220/41/1
f 221/28/1 222/24/1 223/26/1 224/29/1
f 225/27/1 226/28/1 227/29/1 228/5/1
f 229/16/1 230/30/1 231/31/1 232/25/1
f 233/37/1 234/38/1 235/35/1 236/34/1
f 237/24/1 238/25/1 239/7/1 240/26/1
f 241/22/1 242/27/1 243/5/1 244/2/1
f 245/34/1 246/35/1 247/21/1 248/20/1
f 249/26/1 250/7/1 251/10/1 252/39/1
f 253/45/1 254/46/1 255/36/1 256/15/1
f 257/4/1 258/3/1 259/18/1 260/19/1
f 261/35/1 262/42/1 263/32/1 264/21/1
f 265/7/1 266/8/1 267/9/1 268/10/1
f 269/27/1 270/28/1 271/29/1 272/5/1
f 273/28/1 274/24/1 275/26/1 276/29/1
f 277/20/1 278/21/1 279/22/1 280/23/1
f 281/3/1 282/6/1 283/13/1 284/18/1
f 285/24/1 286/25/1 287/7/1 288/26/1
f 289/15/1 290/36/1 291/30/1 292/16/1
f 293/28/1 294/24/1 295/26/1 296/29/1
f 297/43/1 298/14/1 299/17/1 300/33/1
f 301/28/1 302/24/1 303/26/1 304/29/1
f 305/48/1 306/45/1 307/15/1 308/14/1
f 309/48/1 310/45/1 311/15/1 312/14/1
f 313/10/1 314/9/1 315/49/1 316/40/1
f 317/27/1 318/28/1 319/29/1 320/5/1
f 321/35/1 322/42/1 323/32/1 324/21/1
f 325/17/1 326/16/1 327/25/1 328/24/1
f 329/23/1 330/22/1 331/2/1 332/1/1
f 333/20/1 334/21/1 335/22/1 336/23/1
f 337/42/1 338/43/1 339/33/1 340/32/1
f 341/5/1 342/29/1 343/11/1 344/6/1
f 345/35/1 346/42/1 347/32/1 348/21/1
f 349/45/1 350/46/1 351/36/1 352/15/1
f 353/42/1 354/43/1 355/33/1 356/32/1
f 357/32/1 358/33/1 359/28/1 360/27/1
f 361/27/1 362/28/1 363/29/1 364/5/1
f 365/42/1 366/43/1 367/33/1 368/32/1
f 369/15/1 370/36/1 371/30/1 372/16/1
f 373/37/1 374/38/1 375/35/1 376/34/1
f 377/25/1 378/31/1 379/8/1 380/7/1
f 381/25/1 382/31/1 383/8/1 384/7/1
f 385/42/1 386/43/1 387/33/1 388/32/1
f 389/38/1 390/44/1 391/42/1 392/35/1
f 393/29/1 394/26/1 395/39/1 396/11/1
f 397/11/1 398/39/1 399/41/1 400/12/1
f 401/42/1 402/43/1 403/33/1 404/32/1
f 405/4/1 406/3/1 407/18/1 408/19/1
f 409/5/1 410/29/1 411/11/1 412/6/1
f 413/26/1 414/7/1 415/10/1 416/39/1
f 417/11/1 418/39/1 419/41/1 420/12/1
f 421/29/1 422/26/1 423/39/1 424/11/1
f 425/25/1 426/31/1 427/8/1 428/7/1
f 429/45/1 430/46/1 431/36/1 432/15/1
f 433/2/1 434/5/1 435/6/1 436/3/1
f 437/14/1 438/15/1 439/16/1 440/17/1
f 441/21/1 442/32/1 443/27/1 444/22/1
f 445/35/1 446/42/1 447/32/1 448/21/1
f 449/21/1 450/32/1 451/27/1 452/22/1
f 453/22/1 454/27/1 455/5/1 456/2/1
f 457/29/1 458/26/1 459/39/1 460/11/1
f 461/48/1 462/45/1 463/15/1 464/14/1
f 465/22/1 466/27/1 467/5/1 468/2/1
f 469/10/1 470/9/1 471/49/1 472/40/1
f 473/7/1 474/8/1 475/9/1 476/10/1
f 477/21/1 478/32/1 479/27/1 480/22/1
f 481/5/1 482/29/1 483/11/1 484/6/1
f 485/42/1 486/43/1 487/33/1 488/32/1
f 489/10/1 490/9/1 491/49/1 492/40/1
f 493/23/1 494/22/1 495/2/1 496/1/1
f 497/10/1 498/9/1 499/49/1 500/40/1
f 501/38/1 502/44/1 503/42/1 504/35/1
f 505/1/1 506/2/1 507/3/1 508/4/1
f 509/21/1 510/32/1 511/27/1 512/22/1
f 513/17/1 514/16/1 515/25/1 516/24/1
f 517/48/1 518/45/1 519/15/1 520/14/1
f 521/42/1 522/43/1 523/33/1 524/32/1
f 525/32/1 526/33/1 527/28/1 528/27/1
f 529/29/1 530/26/1 531/39/1 532/11/1
f 533/23/1 534/22/1 535/2/1 536/1/1
f 537/42/1 538/43/1 539/33/1 540/32/1
f 541/44/1 542/47/1 543/43/1 544/42/1
f 545/29/1 546/26/1 547/39/1 548/11/1
f 549/16/1 550/30/1 551/31/1 552/25/1
f 553/45/1 554/46/1 555/36/1 556/15/1
f 557/21/1 558/32/1 559/27/1 560/22/1
f 561/48/1 562/45/1 563/15/1 564/14/1
f 565/28/1 566/24/1 567/26/1 568/29/1
f 569/39/1 570/10/1 571/40/1 572/41/1
f 573/48/1 574/45/1 575/15/1 576/14/1
f 577/26/1 578/7/1 579/10/1 580/39/1
f 581/33/1 582/17/1 583/24/1 584/28/1
f 585/23/1 586/22/1 587/2/1 588/1/1
f 589/25/1 590/31/1 591/8/1 592/7/1
f 593/10/1 594/9/1 595/49/1 596/40/1
f 597/34/1 598/35/1 599/21/1 600/20/1
f 601/43/1 602/14/1 603/17/1 604/33/1
f 605/2/1 606/5/1 607/6/1 608/3/1
f 609/48/1 610/45/1 611/15/1 612/14/1
f 613/24/1 614/25/1 615/7/1 616/26/1
f 617/47/1 618/48/1 619/14/1 620/43/1
f 621/43/1 622/14/1 623/17/1 624/33/1
f 625/39/1 626/10/1 627/40/1 628/41/1
f 629/42/1 630/43/1 631/33/1 632/32/1
f 633/47/1 634/48/1 635/14/1 636/43/1
f 637/6/1 638/11/1 639/12/1 640/13/1
f 641/11/1 642/39/1 643/41/1 644/12/1
f 645/14/1 646/15/1 647/16/1 648/17/1
f 649/32/1 650/33/1 651/28/1 652/27/1
f 653/24/1 654/25/1 655/7/1 656/26/1
f 657/22/1 658/27/1 659/5/1 660/2/1
f 661/37/1 662/38/1 663/35/1 664/34/1
f 665/17/1 666/16/1 667/25/1 668/24/1
f 669/17/1 670/16/1 671/25/1 672/24/1
f 673/45/1 674/46/1 675/36/1 676/15/1
f 677/16/1 678/30/1 679/31/1 680/25/1
f 681/48/1 682/45/1 683/15/1 684/14/1
f 685/23/1 686/22/1 687/2/1 688/1/1
f 689/35/1 690/42/1 691/32/1 692/21/1
f 693/43/1 694/14/1 695/17/1 696/33/1
f 697/38/1 698/44/1 699/42/1 700/35/1
f 701/38/1 702/44/1 703/42/1 704/35/1
f 705/26/1 706/7/1 707/10/1 708/39/1
f 709/1/1 710/2/1 711/3/1 712/4/1
f 713/42/1 714/43/1 715/33/1 716/32/1
f 717/45/1 718/46/1 719/36/1 720/15/1
f 721/29/1 722/26/1 723/39/1 724/11/1
f 725/32/1 726/33/1 727/28/1 728/27/1
f 729/42/1 730/43/1 731/33/1 732/32/1
f 733/2/1 734/5/1 735/6/1 736/3/1
f 737/25/1 738/31/1 739/8/1 740/7/1
f 741/32/1 742/33/1 743/28/1 744/27/1
f 745/21/1 746/32/1 747/27/1 748/22/1
f 749/43/1 750/14/1 751/17/1 752/33/1
f 753/2/1 754/5/1 755/6/1 756/3/1
f 757/16/1 758/30/1 759/31/1 760/25/1
f 761/7/1 762/8/1 763/9/1 764/10/1
f 765/35/1 766/42/1 767/32/1 768/21/1
f 769/20/1 770/21/1 771/22/1 772/23/1
f 773/43/1 774/14/1 775/17/1 776/33/1
f 777/32/1 778/33/1 779/28/1 780/27/1
f 781/35/1 782/42/1 783/32/1 784/21/1
f 785/29/1 786/26/1 787/39/1 788/11/1
f 789/17/1 790/16/1 791/25/1 792/24/1
f 793/15/1 794/36/1 795/30/1 796/16/1
f 797/15/1 798/36/1 799/30/1 800/16/1
f 801/1/1 802/2/1 803/3/1 804/4/1
f 805/39/1 806/10/1 807/40/1 808/41/1
f 809/24/1 810/25/1 811/7/1 812/26/1
f 813/39/1 814/10/1 815/40/1 816/41/1
f 817/3/1 818/6/1 819/13/1 820/18/1
f 821/14/1 822/15/1 823/16/1 824/17/1
f 825/24/1 826/25/1 827/7/1 828/26/1
f 829/27/1 830/28/1 831/29/1 832/5/1
f 833/6/1 834/11/1 835/12/1 836/13/1
f 837/42/1 838/43/1 839/33/1 840/32/1
f 841/34/1 842/35/1 843/21/1 844/20/1
f 845/4/1 846/3/1 847/18/1 848/19/1
f 849/4/1 850/3/1 851/18/1 852/19/1
f 853/38/1 854/44/1 855/42/1 856/35/1
f 857/15/1 858/36/1 859/30/1 860/16/1
f 861/38/1 862/44/1 863/42/1 864/35/1
f 865/47/1 866/48/1 867/14/1 868/43/1
f 869/4/1 870/3/1 871/18/1 872/19/1
f 873/43/1 874/14/1 875/17/1 876/33/1
f 877/15/1 878/36/1 879/30/1 880/16/1
f 881/27/1 882/28/1 883/29/1 884/5/1
f 885/38/1 886/44/1 887/42/1 888/35/1
f 889/2/1 890/5/1 891/6/1 892/3/1
f 893/17/1 894/16/1 895/25/1 896/24/1
f 897/27/1 898/28/1 899/29/1 900/5/1
f 901/14/1 902/15/1 903/16/1 904/17/1
f 905/47/1 906/48/1 907/14/1 908/43/1
f 909/26/1 910/7/1 911/10/1 912/39/1
f 913/32/1 914/33/1 915/28/1 916/27/1
f 917/4/1 918/3/1 919/18/1 920/19/1
f 921/5/1 922/29/1 923/11/1 924/6/1
f 925/32/1 926/33/1 927/28/1 928/27/1
f 929/47/1 930/48/1 931/14/1 932/43/1
f 933/48/1 934/45/1 935/15/1 936/14/1
f 937/20/1 938/21/1 939/22/1 940/23/1
f 941/15/1 942/36/1 943/30/1 944/16/1
f 945/16/1 946/30/1 947/31/1 948/25/1
f 949/27/1 950/28/1 951/29/1 952/5/1
f 953/1/1 954/2/1 955/3/1 956/4/1
f 957/22/1 958/27/1 959/5/1 960/2/1
f 961/22/1 962/27/1 963/5/1 964/2/1
f 965/26/1 966/7/1 967/10/1 968/39/1
f 969/25/1 970/31/1 971/8/1 972/7/1
f 973/22/1 974/27/1 975/5/1 976/2/1
f 977/43/1 978/14/1 979/17/1 980/33/1
f 981/42/1 982/43/1 983/33/1 984/32/1
f 985/32/1 986/33/1 987/28/1 988/27/1
f 989/37/1 990/38/1 991/35/1 992/34/1
f 993/10/1 994/9/1 995/49/1 996/40/1
f 997/27/1 998/28/1 999/29/1 1000/5/1
f 1001/3/1 1002/6/1 1003/13/1 1004/18/1
f 1005/2/1 1006/5/1 1007/6/1 1008/3/1
f 1009/6/1 1010/11/1 1011/12/1 1012/13/1
f 1013/42/1 1014/43/1 1015/33/1 1016/32/1
f 1017/1/1 1018/2/1 1019/3/1 1020/4/1
f 1021/43/1 1022/14/1 1023/17/1 1024/33/1

