# Tiled2Unity generated file. Do not modify by hand.
# Wavefront file for 'TitleIntro_mesh_0061.obj'

# Vertices (Count = 1024)
v 0 -16 0
v -16 -16 0
v -16 0 0
v 0 0 0
v -16 -16 0
v -32 -16 0
v -32 0 0
v -16 0 0
v -32 -16 0
v -48 -16 0
v -48 0 0
v -32 0 0
v -48 -16 0
v -64 -16 0
v -64 0 0
v -48 0 0
v -64 -16 0
v -80 -16 0
v -80 0 0
v -64 0 0
v -80 -16 0
v -96 -16 0
v -96 0 0
v -80 0 0
v -96 -16 0
v -112 -16 0
v -112 0 0
v -96 0 0
v -112 -16 0
v -128 -16 0
v -128 0 0
v -112 0 0
v -128 -16 0
v -144 -16 0
v -144 0 0
v -128 0 0
v -144 -16 0
v -160 -16 0
v -160 0 0
v -144 0 0
v -160 -16 0
v -176 -16 0
v -176 0 0
v -160 0 0
v -176 -16 0
v -192 -16 0
v -192 0 0
v -176 0 0
v -192 -16 0
v -208 -16 0
v -208 0 0
v -192 0 0
v -208 -16 0
v -224 -16 0
v -224 0 0
v -208 0 0
v -224 -16 0
v -240 -16 0
v -240 0 0
v -224 0 0
v -240 -16 0
v -256 -16 0
v -256 0 0
v -240 0 0
v 0 -32 0
v -16 -32 0
v -16 -16 0
v 0 -16 0
v -16 -32 0
v -32 -32 0
v -32 -16 0
v -16 -16 0
v -32 -32 0
v -48 -32 0
v -48 -16 0
v -32 -16 0
v -48 -32 0
v -64 -32 0
v -64 -16 0
v -48 -16 0
v -64 -32 0
v -80 -32 0
v -80 -16 0
v -64 -16 0
v -80 -32 0
v -96 -32 0
v -96 -16 0
v -80 -16 0
v -96 -32 0
v -112 -32 0
v -112 -16 0
v -96 -16 0
v -112 -32 0
v -128 -32 0
v -128 -16 0
v -112 -16 0
v -128 -32 0
v -144 -32 0
v -144 -16 0
v -128 -16 0
v -144 -32 0
v -160 -32 0
v -160 -16 0
v -144 -16 0
v -160 -32 0
v -176 -32 0
v -176 -16 0
v -160 -16 0
v -176 -32 0
v -192 -32 0
v -192 -16 0
v -176 -16 0
v -192 -32 0
v -208 -32 0
v -208 -16 0
v -192 -16 0
v -208 -32 0
v -224 -32 0
v -224 -16 0
v -208 -16 0
v -224 -32 0
v -240 -32 0
v -240 -16 0
v -224 -16 0
v -240 -32 0
v -256 -32 0
v -256 -16 0
v -240 -16 0
v 0 -48 0
v -16 -48 0
v -16 -32 0
v 0 -32 0
v -16 -48 0
v -32 -48 0
v -32 -32 0
v -16 -32 0
v -32 -48 0
v -48 -48 0
v -48 -32 0
v -32 -32 0
v -48 -48 0
v -64 -48 0
v -64 -32 0
v -48 -32 0
v -64 -48 0
v -80 -48 0
v -80 -32 0
v -64 -32 0
v -80 -48 0
v -96 -48 0
v -96 -32 0
v -80 -32 0
v -96 -48 0
v -112 -48 0
v -112 -32 0
v -96 -32 0
v -112 -48 0
v -128 -48 0
v -128 -32 0
v -112 -32 0
v -128 -48 0
v -144 -48 0
v -144 -32 0
v -128 -32 0
v -144 -48 0
v -160 -48 0
v -160 -32 0
v -144 -32 0
v -160 -48 0
v -176 -48 0
v -176 -32 0
v -160 -32 0
v -176 -48 0
v -192 -48 0
v -192 -32 0
v -176 -32 0
v -192 -48 0
v -208 -48 0
v -208 -32 0
v -192 -32 0
v -208 -48 0
v -224 -48 0
v -224 -32 0
v -208 -32 0
v -224 -48 0
v -240 -48 0
v -240 -32 0
v -224 -32 0
v -240 -48 0
v -256 -48 0
v -256 -32 0
v -240 -32 0
v 0 -64 0
v -16 -64 0
v -16 -48 0
v 0 -48 0
v -16 -64 0
v -32 -64 0
v -32 -48 0
v -16 -48 0
v -32 -64 0
v -48 -64 0
v -48 -48 0
v -32 -48 0
v -48 -64 0
v -64 -64 0
v -64 -48 0
v -48 -48 0
v -64 -64 0
v -80 -64 0
v -80 -48 0
v -64 -48 0
v -80 -64 0
v -96 -64 0
v -96 -48 0
v -80 -48 0
v -96 -64 0
v -112 -64 0
v -112 -48 0
v -96 -48 0
v -112 -64 0
v -128 -64 0
v -128 -48 0
v -112 -48 0
v -128 -64 0
v -144 -64 0
v -144 -48 0
v -128 -48 0
v -144 -64 0
v -160 -64 0
v -160 -48 0
v -144 -48 0
v -160 -64 0
v -176 -64 0
v -176 -48 0
v -160 -48 0
v -176 -64 0
v -192 -64 0
v -192 -48 0
v -176 -48 0
v -192 -64 0
v -208 -64 0
v -208 -48 0
v -192 -48 0
v -208 -64 0
v -224 -64 0
v -224 -48 0
v -208 -48 0
v -224 -64 0
v -240 -64 0
v -240 -48 0
v -224 -48 0
v -240 -64 0
v -256 -64 0
v -256 -48 0
v -240 -48 0
v 0 -80 0
v -16 -80 0
v -16 -64 0
v 0 -64 0
v -16 -80 0
v -32 -80 0
v -32 -64 0
v -16 -64 0
v -32 -80 0
v -48 -80 0
v -48 -64 0
v -32 -64 0
v -48 -80 0
v -64 -80 0
v -64 -64 0
v -48 -64 0
v -64 -80 0
v -80 -80 0
v -80 -64 0
v -64 -64 0
v -80 -80 0
v -96 -80 0
v -96 -64 0
v -80 -64 0
v -96 -80 0
v -112 -80 0
v -112 -64 0
v -96 -64 0
v -112 -80 0
v -128 -80 0
v -128 -64 0
v -112 -64 0
v -128 -80 0
v -144 -80 0
v -144 -64 0
v -128 -64 0
v -144 -80 0
v -160 -80 0
v -160 -64 0
v -144 -64 0
v -160 -80 0
v -176 -80 0
v -176 -64 0
v -160 -64 0
v -176 -80 0
v -192 -80 0
v -192 -64 0
v -176 -64 0
v -192 -80 0
v -208 -80 0
v -208 -64 0
v -192 -64 0
v -208 -80 0
v -224 -80 0
v -224 -64 0
v -208 -64 0
v -224 -80 0
v -240 -80 0
v -240 -64 0
v -224 -64 0
v -240 -80 0
v -256 -80 0
v -256 -64 0
v -240 -64 0
v 0 -96 0
v -16 -96 0
v -16 -80 0
v 0 -80 0
v -16 -96 0
v -32 -96 0
v -32 -80 0
v -16 -80 0
v -32 -96 0
v -48 -96 0
v -48 -80 0
v -32 -80 0
v -48 -96 0
v -64 -96 0
v -64 -80 0
v -48 -80 0
v -64 -96 0
v -80 -96 0
v -80 -80 0
v -64 -80 0
v -80 -96 0
v -96 -96 0
v -96 -80 0
v -80 -80 0
v -96 -96 0
v -112 -96 0
v -112 -80 0
v -96 -80 0
v -112 -96 0
v -128 -96 0
v -128 -80 0
v -112 -80 0
v -128 -96 0
v -144 -96 0
v -144 -80 0
v -128 -80 0
v -144 -96 0
v -160 -96 0
v -160 -80 0
v -144 -80 0
v -160 -96 0
v -176 -96 0
v -176 -80 0
v -160 -80 0
v -176 -96 0
v -192 -96 0
v -192 -80 0
v -176 -80 0
v -192 -96 0
v -208 -96 0
v -208 -80 0
v -192 -80 0
v -208 -96 0
v -224 -96 0
v -224 -80 0
v -208 -80 0
v -224 -96 0
v -240 -96 0
v -240 -80 0
v -224 -80 0
v -240 -96 0
v -256 -96 0
v -256 -80 0
v -240 -80 0
v 0 -112 0
v -16 -112 0
v -16 -96 0
v 0 -96 0
v -16 -112 0
v -32 -112 0
v -32 -96 0
v -16 -96 0
v -32 -112 0
v -48 -112 0
v -48 -96 0
v -32 -96 0
v -48 -112 0
v -64 -112 0
v -64 -96 0
v -48 -96 0
v -64 -112 0
v -80 -112 0
v -80 -96 0
v -64 -96 0
v -80 -112 0
v -96 -112 0
v -96 -96 0
v -80 -96 0
v -96 -112 0
v -112 -112 0
v -112 -96 0
v -96 -96 0
v -112 -112 0
v -128 -112 0
v -128 -96 0
v -112 -96 0
v -128 -112 0
v -144 -112 0
v -144 -96 0
v -128 -96 0
v -144 -112 0
v -160 -112 0
v -160 -96 0
v -144 -96 0
v -160 -112 0
v -176 -112 0
v -176 -96 0
v -160 -96 0
v -176 -112 0
v -192 -112 0
v -192 -96 0
v -176 -96 0
v -192 -112 0
v -208 -112 0
v -208 -96 0
v -192 -96 0
v -208 -112 0
v -224 -112 0
v -224 -96 0
v -208 -96 0
v -224 -112 0
v -240 -112 0
v -240 -96 0
v -224 -96 0
v -240 -112 0
v -256 -112 0
v -256 -96 0
v -240 -96 0
v 0 -128 0
v -16 -128 0
v -16 -112 0
v 0 -112 0
v -16 -128 0
v -32 -128 0
v -32 -112 0
v -16 -112 0
v -32 -128 0
v -48 -128 0
v -48 -112 0
v -32 -112 0
v -48 -128 0
v -64 -128 0
v -64 -112 0
v -48 -112 0
v -64 -128 0
v -80 -128 0
v -80 -112 0
v -64 -112 0
v -80 -128 0
v -96 -128 0
v -96 -112 0
v -80 -112 0
v -96 -128 0
v -112 -128 0
v -112 -112 0
v -96 -112 0
v -112 -128 0
v -128 -128 0
v -128 -112 0
v -112 -112 0
v -128 -128 0
v -144 -128 0
v -144 -112 0
v -128 -112 0
v -144 -128 0
v -160 -128 0
v -160 -112 0
v -144 -112 0
v -160 -128 0
v -176 -128 0
v -176 -112 0
v -160 -112 0
v -176 -128 0
v -192 -128 0
v -192 -112 0
v -176 -112 0
v -192 -128 0
v -208 -128 0
v -208 -112 0
v -192 -112 0
v -208 -128 0
v -224 -128 0
v -224 -112 0
v -208 -112 0
v -224 -128 0
v -240 -128 0
v -240 -112 0
v -224 -112 0
v -240 -128 0
v -256 -128 0
v -256 -112 0
v -240 -112 0
v 0 -144 0
v -16 -144 0
v -16 -128 0
v 0 -128 0
v -16 -144 0
v -32 -144 0
v -32 -128 0
v -16 -128 0
v -32 -144 0
v -48 -144 0
v -48 -128 0
v -32 -128 0
v -48 -144 0
v -64 -144 0
v -64 -128 0
v -48 -128 0
v -64 -144 0
v -80 -144 0
v -80 -128 0
v -64 -128 0
v -80 -144 0
v -96 -144 0
v -96 -128 0
v -80 -128 0
v -96 -144 0
v -112 -144 0
v -112 -128 0
v -96 -128 0
v -112 -144 0
v -128 -144 0
v -128 -128 0
v -112 -128 0
v -128 -144 0
v -144 -144 0
v -144 -128 0
v -128 -128 0
v -144 -144 0
v -160 -144 0
v -160 -128 0
v -144 -128 0
v -160 -144 0
v -176 -144 0
v -176 -128 0
v -160 -128 0
v -176 -144 0
v -192 -144 0
v -192 -128 0
v -176 -128 0
v -192 -144 0
v -208 -144 0
v -208 -128 0
v -192 -128 0
v -208 -144 0
v -224 -144 0
v -224 -128 0
v -208 -128 0
v -224 -144 0
v -240 -144 0
v -240 -128 0
v -224 -128 0
v -240 -144 0
v -256 -144 0
v -256 -128 0
v -240 -128 0
v 0 -160 0
v -16 -160 0
v -16 -144 0
v 0 -144 0
v -16 -160 0
v -32 -160 0
v -32 -144 0
v -16 -144 0
v -32 -160 0
v -48 -160 0
v -48 -144 0
v -32 -144 0
v -48 -160 0
v -64 -160 0
v -64 -144 0
v -48 -144 0
v -64 -160 0
v -80 -160 0
v -80 -144 0
v -64 -144 0
v -80 -160 0
v -96 -160 0
v -96 -144 0
v -80 -144 0
v -96 -160 0
v -112 -160 0
v -112 -144 0
v -96 -144 0
v -112 -160 0
v -128 -160 0
v -128 -144 0
v -112 -144 0
v -128 -160 0
v -144 -160 0
v -144 -144 0
v -128 -144 0
v -144 -160 0
v -160 -160 0
v -160 -144 0
v -144 -144 0
v -160 -160 0
v -176 -160 0
v -176 -144 0
v -160 -144 0
v -176 -160 0
v -192 -160 0
v -192 -144 0
v -176 -144 0
v -192 -160 0
v -208 -160 0
v -208 -144 0
v -192 -144 0
v -208 -160 0
v -224 -160 0
v -224 -144 0
v -208 -144 0
v -224 -160 0
v -240 -160 0
v -240 -144 0
v -224 -144 0
v -240 -160 0
v -256 -160 0
v -256 -144 0
v -240 -144 0
v 0 -176 0
v -16 -176 0
v -16 -160 0
v 0 -160 0
v -16 -176 0
v -32 -176 0
v -32 -160 0
v -16 -160 0
v -32 -176 0
v -48 -176 0
v -48 -160 0
v -32 -160 0
v -48 -176 0
v -64 -176 0
v -64 -160 0
v -48 -160 0
v -64 -176 0
v -80 -176 0
v -80 -160 0
v -64 -160 0
v -80 -176 0
v -96 -176 0
v -96 -160 0
v -80 -160 0
v -96 -176 0
v -112 -176 0
v -112 -160 0
v -96 -160 0
v -112 -176 0
v -128 -176 0
v -128 -160 0
v -112 -160 0
v -128 -176 0
v -144 -176 0
v -144 -160 0
v -128 -160 0
v -144 -176 0
v -160 -176 0
v -160 -160 0
v -144 -160 0
v -160 -176 0
v -176 -176 0
v -176 -160 0
v -160 -160 0
v -176 -176 0
v -192 -176 0
v -192 -160 0
v -176 -160 0
v -192 -176 0
v -208 -176 0
v -208 -160 0
v -192 -160 0
v -208 -176 0
v -224 -176 0
v -224 -160 0
v -208 -160 0
v -224 -176 0
v -240 -176 0
v -240 -160 0
v -224 -160 0
v -240 -176 0
v -256 -176 0
v -256 -160 0
v -240 -160 0
v 0 -192 0
v -16 -192 0
v -16 -176 0
v 0 -176 0
v -16 -192 0
v -32 -192 0
v -32 -176 0
v -16 -176 0
v -32 -192 0
v -48 -192 0
v -48 -176 0
v -32 -176 0
v -48 -192 0
v -64 -192 0
v -64 -176 0
v -48 -176 0
v -64 -192 0
v -80 -192 0
v -80 -176 0
v -64 -176 0
v -80 -192 0
v -96 -192 0
v -96 -176 0
v -80 -176 0
v -96 -192 0
v -112 -192 0
v -112 -176 0
v -96 -176 0
v -112 -192 0
v -128 -192 0
v -128 -176 0
v -112 -176 0
v -128 -192 0
v -144 -192 0
v -144 -176 0
v -128 -176 0
v -144 -192 0
v -160 -192 0
v -160 -176 0
v -144 -176 0
v -160 -192 0
v -176 -192 0
v -176 -176 0
v -160 -176 0
v -176 -192 0
v -192 -192 0
v -192 -176 0
v -176 -176 0
v -192 -192 0
v -208 -192 0
v -208 -176 0
v -192 -176 0
v -208 -192 0
v -224 -192 0
v -224 -176 0
v -208 -176 0
v -224 -192 0
v -240 -192 0
v -240 -176 0
v -224 -176 0
v -240 -192 0
v -256 -192 0
v -256 -176 0
v -240 -176 0
v 0 -208 0
v -16 -208 0
v -16 -192 0
v 0 -192 0
v -16 -208 0
v -32 -208 0
v -32 -192 0
v -16 -192 0
v -32 -208 0
v -48 -208 0
v -48 -192 0
v -32 -192 0
v -48 -208 0
v -64 -208 0
v -64 -192 0
v -48 -192 0
v -64 -208 0
v -80 -208 0
v -80 -192 0
v -64 -192 0
v -80 -208 0
v -96 -208 0
v -96 -192 0
v -80 -192 0
v -96 -208 0
v -112 -208 0
v -112 -192 0
v -96 -192 0
v -112 -208 0
v -128 -208 0
v -128 -192 0
v -112 -192 0
v -128 -208 0
v -144 -208 0
v -144 -192 0
v -128 -192 0
v -144 -208 0
v -160 -208 0
v -160 -192 0
v -144 -192 0
v -160 -208 0
v -176 -208 0
v -176 -192 0
v -160 -192 0
v -176 -208 0
v -192 -208 0
v -192 -192 0
v -176 -192 0
v -192 -208 0
v -208 -208 0
v -208 -192 0
v -192 -192 0
v -208 -208 0
v -224 -208 0
v -224 -192 0
v -208 -192 0
v -224 -208 0
v -240 -208 0
v -240 -192 0
v -224 -192 0
v -240 -208 0
v -256 -208 0
v -256 -192 0
v -240 -192 0
v 0 -224 0
v -16 -224 0
v -16 -208 0
v 0 -208 0
v -16 -224 0
v -32 -224 0
v -32 -208 0
v -16 -208 0
v -32 -224 0
v -48 -224 0
v -48 -208 0
v -32 -208 0
v -48 -224 0
v -64 -224 0
v -64 -208 0
v -48 -208 0
v -64 -224 0
v -80 -224 0
v -80 -208 0
v -64 -208 0
v -80 -224 0
v -96 -224 0
v -96 -208 0
v -80 -208 0
v -96 -224 0
v -112 -224 0
v -112 -208 0
v -96 -208 0
v -112 -224 0
v -128 -224 0
v -128 -208 0
v -112 -208 0
v -128 -224 0
v -144 -224 0
v -144 -208 0
v -128 -208 0
v -144 -224 0
v -160 -224 0
v -160 -208 0
v -144 -208 0
v -160 -224 0
v -176 -224 0
v -176 -208 0
v -160 -208 0
v -176 -224 0
v -192 -224 0
v -192 -208 0
v -176 -208 0
v -192 -224 0
v -208 -224 0
v -208 -208 0
v -192 -208 0
v -208 -224 0
v -224 -224 0
v -224 -208 0
v -208 -208 0
v -224 -224 0
v -240 -224 0
v -240 -208 0
v -224 -208 0
v -240 -224 0
v -256 -224 0
v -256 -208 0
v -240 -208 0
v 0 -240 0
v -16 -240 0
v -16 -224 0
v 0 -224 0
v -16 -240 0
v -32 -240 0
v -32 -224 0
v -16 -224 0
v -32 -240 0
v -48 -240 0
v -48 -224 0
v -32 -224 0
v -48 -240 0
v -64 -240 0
v -64 -224 0
v -48 -224 0
v -64 -240 0
v -80 -240 0
v -80 -224 0
v -64 -224 0
v -80 -240 0
v -96 -240 0
v -96 -224 0
v -80 -224 0
v -96 -240 0
v -112 -240 0
v -112 -224 0
v -96 -224 0
v -112 -240 0
v -128 -240 0
v -128 -224 0
v -112 -224 0
v -128 -240 0
v -144 -240 0
v -144 -224 0
v -128 -224 0
v -144 -240 0
v -160 -240 0
v -160 -224 0
v -144 -224 0
v -160 -240 0
v -176 -240 0
v -176 -224 0
v -160 -224 0
v -176 -240 0
v -192 -240 0
v -192 -224 0
v -176 -224 0
v -192 -240 0
v -208 -240 0
v -208 -224 0
v -192 -224 0
v -208 -240 0
v -224 -240 0
v -224 -224 0
v -208 -224 0
v -224 -240 0
v -240 -240 0
v -240 -224 0
v -224 -224 0
v -240 -240 0
v -256 -240 0
v -256 -224 0
v -240 -224 0
v 0 -256 0
v -16 -256 0
v -16 -240 0
v 0 -240 0
v -16 -256 0
v -32 -256 0
v -32 -240 0
v -16 -240 0
v -32 -256 0
v -48 -256 0
v -48 -240 0
v -32 -240 0
v -48 -256 0
v -64 -256 0
v -64 -240 0
v -48 -240 0
v -64 -256 0
v -80 -256 0
v -80 -240 0
v -64 -240 0
v -80 -256 0
v -96 -256 0
v -96 -240 0
v -80 -240 0
v -96 -256 0
v -112 -256 0
v -112 -240 0
v -96 -240 0
v -112 -256 0
v -128 -256 0
v -128 -240 0
v -112 -240 0
v -128 -256 0
v -144 -256 0
v -144 -240 0
v -128 -240 0
v -144 -256 0
v -160 -256 0
v -160 -240 0
v -144 -240 0
v -160 -256 0
v -176 -256 0
v -176 -240 0
v -160 -240 0
v -176 -256 0
v -192 -256 0
v -192 -240 0
v -176 -240 0
v -192 -256 0
v -208 -256 0
v -208 -240 0
v -192 -240 0
v -208 -256 0
v -224 -256 0
v -224 -240 0
v -208 -240 0
v -224 -256 0
v -240 -256 0
v -240 -240 0
v -224 -240 0
v -240 -256 0
v -256 -256 0
v -256 -240 0
v -240 -240 0

# Texture cooridinates (Count = 49)
vt 0.01171875 0.40625
vt 0.015625 0.40625
vt 0.015625 0.421875
vt 0.01171875 0.421875
vt 0.02734375 0.4375
vt 0.03125 0.4375
vt 0.03125 0.453125
vt 0.02734375 0.453125
vt 0.03125 0.46875
vt 0.02734375 0.46875
vt 0.0234375 0.453125
vt 0.0234375 0.46875
vt 0.01171875 0.46875
vt 0.015625 0.46875
vt 0.015625 0.484375
vt 0.01171875 0.484375
vt 0.0078125 0.453125
vt 0.01171875 0.453125
vt 0.0078125 0.46875
vt 0.015625 0.453125
vt 0.01953125 0.453125
vt 0.01953125 0.46875
vt 0.0078125 0.40625
vt 0.0078125 0.421875
vt 0.0078125 0.4375
vt 0.01171875 0.4375
vt 0.015625 0.4375
vt 0.01953125 0.484375
vt 0.01953125 0.390625
vt 0.0234375 0.390625
vt 0.0234375 0.40625
vt 0.01953125 0.40625
vt 0.0234375 0.421875
vt 0.01953125 0.421875
vt 0.02734375 0.40625
vt 0.02734375 0.421875
vt 0.0234375 0.4375
vt 0.0234375 0.484375
vt 0.02734375 0.390625
vt 0.03125 0.390625
vt 0.03125 0.40625
vt 0.03125 0.421875
vt 0.0078125 0.484375
vt 0.01953125 0.4375
vt 0.015625 0.390625
vt 0.02734375 0.484375
vt 0.0078125 0.390625
vt 0.01171875 0.390625
vt 0.03125 0.484375

# Normal
vn 0 0 -1

# Mesh description
g TitleIntro_mesh_0061

# Faces
f 1/1/1 2/2/1 3/3/1 4/4/1
f 5/5/1 6/6/1 7/7/1 8/8/1
f 9/8/1 10/7/1 11/9/1 12/10/1
f 13/11/1 14/8/1 15/10/1 16/12/1
f 17/13/1 18/14/1 19/15/1 20/16/1
f 21/17/1 22/18/1 23/13/1 24/19/1
f 25/13/1 26/14/1 27/15/1 28/16/1
f 29/20/1 30/21/1 31/22/1 32/14/1
f 33/23/1 34/1/1 35/4/1 36/24/1
f 37/25/1 38/26/1 39/18/1 40/17/1
f 41/4/1 42/3/1 43/27/1 44/26/1
f 45/5/1 46/6/1 47/7/1 48/8/1
f 49/11/1 50/8/1 51/10/1 52/12/1
f 53/5/1 54/6/1 55/7/1 56/8/1
f 57/14/1 58/22/1 59/28/1 60/15/1
f 61/29/1 62/30/1 63/31/1 64/32/1
f 65/32/1 66/31/1 67/33/1 68/34/1
f 69/32/1 70/31/1 71/33/1 72/34/1
f 73/31/1 74/35/1 75/36/1 76/33/1
f 77/8/1 78/7/1 79/9/1 80/10/1
f 81/8/1 82/7/1 83/9/1 84/10/1
f 85/13/1 86/14/1 87/15/1 88/16/1
f 89/37/1 90/5/1 91/8/1 92/11/1
f 93/26/1 94/27/1 95/20/1 96/18/1
f 97/37/1 98/5/1 99/8/1 100/11/1
f 101/8/1 102/7/1 103/9/1 104/10/1
f 105/22/1 106/12/1 107/38/1 108/28/1
f 109/14/1 110/22/1 111/28/1 112/15/1
f 113/39/1 114/40/1 115/41/1 116/35/1
f 117/36/1 118/42/1 119/6/1 120/5/1
f 121/19/1 122/13/1 123/16/1 124/43/1
f 125/22/1 126/12/1 127/38/1 128/28/1
f 129/37/1 130/5/1 131/8/1 132/11/1
f 133/18/1 134/20/1 135/14/1 136/13/1
f 137/26/1 138/27/1 139/20/1 140/18/1
f 141/1/1 142/2/1 143/3/1 144/4/1
f 145/44/1 146/37/1 147/11/1 148/21/1
f 149/3/1 150/34/1 151/44/1 152/27/1
f 153/30/1 154/39/1 155/35/1 156/31/1
f 157/22/1 158/12/1 159/38/1 160/28/1
f 161/31/1 162/35/1 163/36/1 164/33/1
f 165/26/1 166/27/1 167/20/1 168/18/1
f 169/11/1 170/8/1 171/10/1 172/12/1
f 173/45/1 174/29/1 175/32/1 176/2/1
f 177/13/1 178/14/1 179/15/1 180/16/1
f 181/26/1 182/27/1 183/20/1 184/18/1
f 185/12/1 186/10/1 187/46/1 188/38/1
f 189/47/1 190/48/1 191/1/1 192/23/1
f 193/47/1 194/48/1 195/1/1 196/23/1
f 197/33/1 198/36/1 199/5/1 200/37/1
f 201/25/1 202/26/1 203/18/1 204/17/1
f 205/22/1 206/12/1 207/38/1 208/28/1
f 209/24/1 210/4/1 211/26/1 212/25/1
f 213/11/1 214/8/1 215/10/1 216/12/1
f 217/37/1 218/5/1 219/8/1 220/11/1
f 221/3/1 222/34/1 223/44/1 224/27/1
f 225/10/1 226/9/1 227/49/1 228/46/1
f 229/5/1 230/6/1 231/7/1 232/8/1
f 233/36/1 234/42/1 235/6/1 236/5/1
f 237/34/1 238/33/1 239/37/1 240/44/1
f 241/32/1 242/31/1 243/33/1 244/34/1
f 245/30/1 246/39/1 247/35/1 248/31/1
f 249/29/1 250/30/1 251/31/1 252/32/1
f 253/22/1 254/12/1 255/38/1 256/28/1
f 257/1/1 258/2/1 259/3/1 260/4/1
f 261/32/1 262/31/1 263/33/1 264/34/1
f 265/32/1 266/31/1 267/33/1 268/34/1
f 269/14/1 270/22/1 271/28/1 272/15/1
f 273/44/1 274/37/1 275/11/1 276/21/1
f 277/36/1 278/42/1 279/6/1 280/5/1
f 281/30/1 282/39/1 283/35/1 284/31/1
f 285/14/1 286/22/1 287/28/1 288/15/1
f 289/14/1 290/22/1 291/28/1 292/15/1
f 293/23/1 294/1/1 295/4/1 296/24/1
f 297/23/1 298/1/1 299/4/1 300/24/1
f 301/10/1 302/9/1 303/49/1 304/46/1
f 305/10/1 306/9/1 307/49/1 308/46/1
f 309/25/1 310/26/1 311/18/1 312/17/1
f 313/23/1 314/1/1 315/4/1 316/24/1
f 317/19/1 318/13/1 319/16/1 320/43/1
f 321/35/1 322/41/1 323/42/1 324/36/1
f 325/18/1 326/20/1 327/14/1 328/13/1
f 329/47/1 330/48/1 331/1/1 332/23/1
f 333/19/1 334/13/1 335/16/1 336/43/1
f 337/2/1 338/32/1 339/34/1 340/3/1
f 341/8/1 342/7/1 343/9/1 344/10/1
f 345/48/1 346/45/1 347/2/1 348/1/1
f 349/20/1 350/21/1 351/22/1 352/14/1
f 353/32/1 354/31/1 355/33/1 356/34/1
f 357/35/1 358/41/1 359/42/1 360/36/1
f 361/44/1 362/37/1 363/11/1 364/21/1
f 365/37/1 366/5/1 367/8/1 368/11/1
f 369/24/1 370/4/1 371/26/1 372/25/1
f 373/22/1 374/12/1 375/38/1 376/28/1
f 377/23/1 378/1/1 379/4/1 380/24/1
f 381/36/1 382/42/1 383/6/1 384/5/1
f 385/19/1 386/13/1 387/16/1 388/43/1
f 389/27/1 390/44/1 391/21/1 392/20/1
f 393/27/1 394/44/1 395/21/1 396/20/1
f 397/5/1 398/6/1 399/7/1 400/8/1
f 401/34/1 402/33/1 403/37/1 404/44/1
f 405/27/1 406/44/1 407/21/1 408/20/1
f 409/10/1 410/9/1 411/49/1 412/46/1
f 413/18/1 414/20/1 415/14/1 416/13/1
f 417/23/1 418/1/1 419/4/1 420/24/1
f 421/44/1 422/37/1 423/11/1 424/21/1
f 425/14/1 426/22/1 427/28/1 428/15/1
f 429/13/1 430/14/1 431/15/1 432/16/1
f 433/37/1 434/5/1 435/8/1 436/11/1
f 437/29/1 438/30/1 439/31/1 440/32/1
f 441/32/1 442/31/1 443/33/1 444/34/1
f 445/24/1 446/4/1 447/26/1 448/25/1
f 449/27/1 450/44/1 451/21/1 452/20/1
f 453/2/1 454/32/1 455/34/1 456/3/1
f 457/27/1 458/44/1 459/21/1 460/20/1
f 461/47/1 462/48/1 463/1/1 464/23/1
f 465/45/1 466/29/1 467/32/1 468/2/1
f 469/2/1 470/32/1 471/34/1 472/3/1
f 473/8/1 474/7/1 475/9/1 476/10/1
f 477/30/1 478/39/1 479/35/1 480/31/1
f 481/33/1 482/36/1 483/5/1 484/37/1
f 485/10/1 486/9/1 487/49/1 488/46/1
f 489/26/1 490/27/1 491/20/1 492/18/1
f 493/32/1 494/31/1 495/33/1 496/34/1
f 497/24/1 498/4/1 499/26/1 500/25/1
f 501/24/1 502/4/1 503/26/1 504/25/1
f 505/19/1 506/13/1 507/16/1 508/43/1
f 509/30/1 510/39/1 511/35/1 512/31/1
f 513/23/1 514/1/1 515/4/1 516/24/1
f 517/30/1 518/39/1 519/35/1 520/31/1
f 521/5/1 522/6/1 523/7/1 524/8/1
f 525/35/1 526/41/1 527/42/1 528/36/1
f 529/21/1 530/11/1 531/12/1 532/22/1
f 533/17/1 534/18/1 535/13/1 536/19/1
f 537/25/1 538/26/1 539/18/1 540/17/1
f 541/31/1 542/35/1 543/36/1 544/33/1
f 545/29/1 546/30/1 547/31/1 548/32/1
f 549/30/1 550/39/1 551/35/1 552/31/1
f 553/29/1 554/30/1 555/31/1 556/32/1
f 557/25/1 558/26/1 559/18/1 560/17/1
f 561/20/1 562/21/1 563/22/1 564/14/1
f 565/44/1 566/37/1 567/11/1 568/21/1
f 569/13/1 570/14/1 571/15/1 572/16/1
f 573/33/1 574/36/1 575/5/1 576/37/1
f 577/37/1 578/5/1 579/8/1 580/11/1
f 581/35/1 582/41/1 583/42/1 584/36/1
f 585/3/1 586/34/1 587/44/1 588/27/1
f 589/1/1 590/2/1 591/3/1 592/4/1
f 593/44/1 594/37/1 595/11/1 596/21/1
f 597/12/1 598/10/1 599/46/1 600/38/1
f 601/1/1 602/2/1 603/3/1 604/4/1
f 605/1/1 606/2/1 607/3/1 608/4/1
f 609/22/1 610/12/1 611/38/1 612/28/1
f 613/5/1 614/6/1 615/7/1 616/8/1
f 617/13/1 618/14/1 619/15/1 620/16/1
f 621/18/1 622/20/1 623/14/1 624/13/1
f 625/8/1 626/7/1 627/9/1 628/10/1
f 629/8/1 630/7/1 631/9/1 632/10/1
f 633/8/1 634/7/1 635/9/1 636/10/1
f 637/21/1 638/11/1 639/12/1 640/22/1
f 641/30/1 642/39/1 643/35/1 644/31/1
f 645/2/1 646/32/1 647/34/1 648/3/1
f 649/20/1 650/21/1 651/22/1 652/14/1
f 653/19/1 654/13/1 655/16/1 656/43/1
f 657/2/1 658/32/1 659/34/1 660/3/1
f 661/31/1 662/35/1 663/36/1 664/33/1
f 665/26/1 666/27/1 667/20/1 668/18/1
f 669/33/1 670/36/1 671/5/1 672/37/1
f 673/35/1 674/41/1 675/42/1 676/36/1
f 677/25/1 678/26/1 679/18/1 680/17/1
f 681/3/1 682/34/1 683/44/1 684/27/1
f 685/24/1 686/4/1 687/26/1 688/25/1
f 689/5/1 690/6/1 691/7/1 692/8/1
f 693/5/1 694/6/1 695/7/1 696/8/1
f 697/36/1 698/42/1 699/6/1 700/5/1
f 701/31/1 702/35/1 703/36/1 704/33/1
f 705/10/1 706/9/1 707/49/1 708/46/1
f 709/35/1 710/41/1 711/42/1 712/36/1
f 713/26/1 714/27/1 715/20/1 716/18/1
f 717/45/1 718/29/1 719/32/1 720/2/1
f 721/3/1 722/34/1 723/44/1 724/27/1
f 725/47/1 726/48/1 727/1/1 728/23/1
f 729/25/1 730/26/1 731/18/1 732/17/1
f 733/30/1 734/39/1 735/35/1 736/31/1
f 737/47/1 738/48/1 739/1/1 740/23/1
f 741/26/1 742/27/1 743/20/1 744/18/1
f 745/17/1 746/18/1 747/13/1 748/19/1
f 749/18/1 750/20/1 751/14/1 752/13/1
f 753/8/1 754/7/1 755/9/1 756/10/1
f 757/17/1 758/18/1 759/13/1 760/19/1
f 761/30/1 762/39/1 763/35/1 764/31/1
f 765/22/1 766/12/1 767/38/1 768/28/1
f 769/8/1 770/7/1 771/9/1 772/10/1
f 773/17/1 774/18/1 775/13/1 776/19/1
f 777/27/1 778/44/1 779/21/1 780/20/1
f 781/29/1 782/30/1 783/31/1 784/32/1
f 785/8/1 786/7/1 787/9/1 788/10/1
f 789/44/1 790/37/1 791/11/1 792/21/1
f 793/13/1 794/14/1 795/15/1 796/16/1
f 797/29/1 798/30/1 799/31/1 800/32/1
f 801/37/1 802/5/1 803/8/1 804/11/1
f 805/25/1 806/26/1 807/18/1 808/17/1
f 809/11/1 810/8/1 811/10/1 812/12/1
f 813/32/1 814/31/1 815/33/1 816/34/1
f 817/36/1 818/42/1 819/6/1 820/5/1
f 821/10/1 822/9/1 823/49/1 824/46/1
f 825/12/1 826/10/1 827/46/1 828/38/1
f 829/32/1 830/31/1 831/33/1 832/34/1
f 833/19/1 834/13/1 835/16/1 836/43/1
f 837/8/1 838/7/1 839/9/1 840/10/1
f 841/35/1 842/41/1 843/42/1 844/36/1
f 845/2/1 846/32/1 847/34/1 848/3/1
f 849/44/1 850/37/1 851/11/1 852/21/1
f 853/11/1 854/8/1 855/10/1 856/12/1
f 857/35/1 858/41/1 859/42/1 860/36/1
f 861/24/1 862/4/1 863/26/1 864/25/1
f 865/47/1 866/48/1 867/1/1 868/23/1
f 869/44/1 870/37/1 871/11/1 872/21/1
f 873/45/1 874/29/1 875/32/1 876/2/1
f 877/5/1 878/6/1 879/7/1 880/8/1
f 881/27/1 882/44/1 883/21/1 884/20/1
f 885/31/1 886/35/1 887/36/1 888/33/1
f 889/8/1 890/7/1 891/9/1 892/10/1
f 893/20/1 894/21/1 895/22/1 896/14/1
f 897/27/1 898/44/1 899/21/1 900/20/1
f 901/32/1 902/31/1 903/33/1 904/34/1
f 905/3/1 906/34/1 907/44/1 908/27/1
f 909/2/1 910/32/1 911/34/1 912/3/1
f 913/18/1 914/20/1 915/14/1 916/13/1
f 917/25/1 918/26/1 919/18/1 920/17/1
f 921/24/1 922/4/1 923/26/1 924/25/1
f 925/14/1 926/22/1 927/28/1 928/15/1
f 929/12/1 930/10/1 931/46/1 932/38/1
f 933/10/1 934/9/1 935/49/1 936/46/1
f 937/22/1 938/12/1 939/38/1 940/28/1
f 941/12/1 942/10/1 943/46/1 944/38/1
f 945/37/1 946/5/1 947/8/1 948/11/1
f 949/26/1 950/27/1 951/20/1 952/18/1
f 953/35/1 954/41/1 955/42/1 956/36/1
f 957/31/1 958/35/1 959/36/1 960/33/1
f 961/31/1 962/35/1 963/36/1 964/33/1
f 965/5/1 966/6/1 967/7/1 968/8/1
f 969/11/1 970/8/1 971/10/1 972/12/1
f 973/36/1 974/42/1 975/6/1 976/5/1
f 977/4/1 978/3/1 979/27/1 980/26/1
f 981/30/1 982/39/1 983/35/1 984/31/1
f 985/11/1 986/8/1 987/10/1 988/12/1
f 989/10/1 990/9/1 991/49/1 992/46/1
f 993/18/1 994/20/1 995/14/1 996/13/1
f 997/20/1 998/21/1 999/22/1 1000/14/1
f 1001/29/1 1002/30/1 1003/31/1 1004/32/1
f 1005/32/1 1006/31/1 1007/33/1 1008/34/1
f 1009/30/1 1010/39/1 1011/35/1 1012/31/1
f 1013/4/1 1014/3/1 1015/27/1 1016/26/1
f 1017/36/1 1018/42/1 1019/6/1 1020/5/1
f 1021/21/1 1022/11/1 1023/12/1 1024/22/1

