# Tiled2Unity generated file. Do not modify by hand.
# Wavefront file for 'TitleIntro_mesh_0110.obj'

# Vertices (Count = 8)
v -32 -64 0
v -48 -64 0
v -48 -48 0
v -32 -48 0
v -32 -176 0
v -48 -176 0
v -48 -160 0
v -32 -160 0

# Texture cooridinates (Count = 8)
vt 0.7460938 0.984375
vt 0.75 0.984375
vt 0.75 1
vt 0.7460938 1
vt 0.7460938 0.875
vt 0.75 0.875
vt 0.75 0.890625
vt 0.7460938 0.890625

# Normal
vn 0 0 -1

# Mesh description
g TitleIntro_mesh_0110

# Faces
f 1/1/1 2/2/1 3/3/1 4/4/1
f 5/5/1 6/6/1 7/7/1 8/8/1

