# Tiled2Unity generated file. Do not modify by hand.
# Wavefront file for 'TitleIntro_mesh_0041.obj'

# Vertices (Count = 1024)
v 0 -16 0
v -16 -16 0
v -16 0 0
v 0 0 0
v -16 -16 0
v -32 -16 0
v -32 0 0
v -16 0 0
v -32 -16 0
v -48 -16 0
v -48 0 0
v -32 0 0
v -48 -16 0
v -64 -16 0
v -64 0 0
v -48 0 0
v -64 -16 0
v -80 -16 0
v -80 0 0
v -64 0 0
v -80 -16 0
v -96 -16 0
v -96 0 0
v -80 0 0
v -96 -16 0
v -112 -16 0
v -112 0 0
v -96 0 0
v -112 -16 0
v -128 -16 0
v -128 0 0
v -112 0 0
v -128 -16 0
v -144 -16 0
v -144 0 0
v -128 0 0
v -144 -16 0
v -160 -16 0
v -160 0 0
v -144 0 0
v -160 -16 0
v -176 -16 0
v -176 0 0
v -160 0 0
v -176 -16 0
v -192 -16 0
v -192 0 0
v -176 0 0
v -192 -16 0
v -208 -16 0
v -208 0 0
v -192 0 0
v -208 -16 0
v -224 -16 0
v -224 0 0
v -208 0 0
v -224 -16 0
v -240 -16 0
v -240 0 0
v -224 0 0
v -240 -16 0
v -256 -16 0
v -256 0 0
v -240 0 0
v 0 -32 0
v -16 -32 0
v -16 -16 0
v 0 -16 0
v -16 -32 0
v -32 -32 0
v -32 -16 0
v -16 -16 0
v -32 -32 0
v -48 -32 0
v -48 -16 0
v -32 -16 0
v -48 -32 0
v -64 -32 0
v -64 -16 0
v -48 -16 0
v -64 -32 0
v -80 -32 0
v -80 -16 0
v -64 -16 0
v -80 -32 0
v -96 -32 0
v -96 -16 0
v -80 -16 0
v -96 -32 0
v -112 -32 0
v -112 -16 0
v -96 -16 0
v -112 -32 0
v -128 -32 0
v -128 -16 0
v -112 -16 0
v -128 -32 0
v -144 -32 0
v -144 -16 0
v -128 -16 0
v -144 -32 0
v -160 -32 0
v -160 -16 0
v -144 -16 0
v -160 -32 0
v -176 -32 0
v -176 -16 0
v -160 -16 0
v -176 -32 0
v -192 -32 0
v -192 -16 0
v -176 -16 0
v -192 -32 0
v -208 -32 0
v -208 -16 0
v -192 -16 0
v -208 -32 0
v -224 -32 0
v -224 -16 0
v -208 -16 0
v -224 -32 0
v -240 -32 0
v -240 -16 0
v -224 -16 0
v -240 -32 0
v -256 -32 0
v -256 -16 0
v -240 -16 0
v 0 -48 0
v -16 -48 0
v -16 -32 0
v 0 -32 0
v -16 -48 0
v -32 -48 0
v -32 -32 0
v -16 -32 0
v -32 -48 0
v -48 -48 0
v -48 -32 0
v -32 -32 0
v -48 -48 0
v -64 -48 0
v -64 -32 0
v -48 -32 0
v -64 -48 0
v -80 -48 0
v -80 -32 0
v -64 -32 0
v -80 -48 0
v -96 -48 0
v -96 -32 0
v -80 -32 0
v -96 -48 0
v -112 -48 0
v -112 -32 0
v -96 -32 0
v -112 -48 0
v -128 -48 0
v -128 -32 0
v -112 -32 0
v -128 -48 0
v -144 -48 0
v -144 -32 0
v -128 -32 0
v -144 -48 0
v -160 -48 0
v -160 -32 0
v -144 -32 0
v -160 -48 0
v -176 -48 0
v -176 -32 0
v -160 -32 0
v -176 -48 0
v -192 -48 0
v -192 -32 0
v -176 -32 0
v -192 -48 0
v -208 -48 0
v -208 -32 0
v -192 -32 0
v -208 -48 0
v -224 -48 0
v -224 -32 0
v -208 -32 0
v -224 -48 0
v -240 -48 0
v -240 -32 0
v -224 -32 0
v -240 -48 0
v -256 -48 0
v -256 -32 0
v -240 -32 0
v 0 -64 0
v -16 -64 0
v -16 -48 0
v 0 -48 0
v -16 -64 0
v -32 -64 0
v -32 -48 0
v -16 -48 0
v -32 -64 0
v -48 -64 0
v -48 -48 0
v -32 -48 0
v -48 -64 0
v -64 -64 0
v -64 -48 0
v -48 -48 0
v -64 -64 0
v -80 -64 0
v -80 -48 0
v -64 -48 0
v -80 -64 0
v -96 -64 0
v -96 -48 0
v -80 -48 0
v -96 -64 0
v -112 -64 0
v -112 -48 0
v -96 -48 0
v -112 -64 0
v -128 -64 0
v -128 -48 0
v -112 -48 0
v -128 -64 0
v -144 -64 0
v -144 -48 0
v -128 -48 0
v -144 -64 0
v -160 -64 0
v -160 -48 0
v -144 -48 0
v -160 -64 0
v -176 -64 0
v -176 -48 0
v -160 -48 0
v -176 -64 0
v -192 -64 0
v -192 -48 0
v -176 -48 0
v -192 -64 0
v -208 -64 0
v -208 -48 0
v -192 -48 0
v -208 -64 0
v -224 -64 0
v -224 -48 0
v -208 -48 0
v -224 -64 0
v -240 -64 0
v -240 -48 0
v -224 -48 0
v -240 -64 0
v -256 -64 0
v -256 -48 0
v -240 -48 0
v 0 -80 0
v -16 -80 0
v -16 -64 0
v 0 -64 0
v -16 -80 0
v -32 -80 0
v -32 -64 0
v -16 -64 0
v -32 -80 0
v -48 -80 0
v -48 -64 0
v -32 -64 0
v -48 -80 0
v -64 -80 0
v -64 -64 0
v -48 -64 0
v -64 -80 0
v -80 -80 0
v -80 -64 0
v -64 -64 0
v -80 -80 0
v -96 -80 0
v -96 -64 0
v -80 -64 0
v -96 -80 0
v -112 -80 0
v -112 -64 0
v -96 -64 0
v -112 -80 0
v -128 -80 0
v -128 -64 0
v -112 -64 0
v -128 -80 0
v -144 -80 0
v -144 -64 0
v -128 -64 0
v -144 -80 0
v -160 -80 0
v -160 -64 0
v -144 -64 0
v -160 -80 0
v -176 -80 0
v -176 -64 0
v -160 -64 0
v -176 -80 0
v -192 -80 0
v -192 -64 0
v -176 -64 0
v -192 -80 0
v -208 -80 0
v -208 -64 0
v -192 -64 0
v -208 -80 0
v -224 -80 0
v -224 -64 0
v -208 -64 0
v -224 -80 0
v -240 -80 0
v -240 -64 0
v -224 -64 0
v -240 -80 0
v -256 -80 0
v -256 -64 0
v -240 -64 0
v 0 -96 0
v -16 -96 0
v -16 -80 0
v 0 -80 0
v -16 -96 0
v -32 -96 0
v -32 -80 0
v -16 -80 0
v -32 -96 0
v -48 -96 0
v -48 -80 0
v -32 -80 0
v -48 -96 0
v -64 -96 0
v -64 -80 0
v -48 -80 0
v -64 -96 0
v -80 -96 0
v -80 -80 0
v -64 -80 0
v -80 -96 0
v -96 -96 0
v -96 -80 0
v -80 -80 0
v -96 -96 0
v -112 -96 0
v -112 -80 0
v -96 -80 0
v -112 -96 0
v -128 -96 0
v -128 -80 0
v -112 -80 0
v -128 -96 0
v -144 -96 0
v -144 -80 0
v -128 -80 0
v -144 -96 0
v -160 -96 0
v -160 -80 0
v -144 -80 0
v -160 -96 0
v -176 -96 0
v -176 -80 0
v -160 -80 0
v -176 -96 0
v -192 -96 0
v -192 -80 0
v -176 -80 0
v -192 -96 0
v -208 -96 0
v -208 -80 0
v -192 -80 0
v -208 -96 0
v -224 -96 0
v -224 -80 0
v -208 -80 0
v -224 -96 0
v -240 -96 0
v -240 -80 0
v -224 -80 0
v -240 -96 0
v -256 -96 0
v -256 -80 0
v -240 -80 0
v 0 -112 0
v -16 -112 0
v -16 -96 0
v 0 -96 0
v -16 -112 0
v -32 -112 0
v -32 -96 0
v -16 -96 0
v -32 -112 0
v -48 -112 0
v -48 -96 0
v -32 -96 0
v -48 -112 0
v -64 -112 0
v -64 -96 0
v -48 -96 0
v -64 -112 0
v -80 -112 0
v -80 -96 0
v -64 -96 0
v -80 -112 0
v -96 -112 0
v -96 -96 0
v -80 -96 0
v -96 -112 0
v -112 -112 0
v -112 -96 0
v -96 -96 0
v -112 -112 0
v -128 -112 0
v -128 -96 0
v -112 -96 0
v -128 -112 0
v -144 -112 0
v -144 -96 0
v -128 -96 0
v -144 -112 0
v -160 -112 0
v -160 -96 0
v -144 -96 0
v -160 -112 0
v -176 -112 0
v -176 -96 0
v -160 -96 0
v -176 -112 0
v -192 -112 0
v -192 -96 0
v -176 -96 0
v -192 -112 0
v -208 -112 0
v -208 -96 0
v -192 -96 0
v -208 -112 0
v -224 -112 0
v -224 -96 0
v -208 -96 0
v -224 -112 0
v -240 -112 0
v -240 -96 0
v -224 -96 0
v -240 -112 0
v -256 -112 0
v -256 -96 0
v -240 -96 0
v 0 -128 0
v -16 -128 0
v -16 -112 0
v 0 -112 0
v -16 -128 0
v -32 -128 0
v -32 -112 0
v -16 -112 0
v -32 -128 0
v -48 -128 0
v -48 -112 0
v -32 -112 0
v -48 -128 0
v -64 -128 0
v -64 -112 0
v -48 -112 0
v -64 -128 0
v -80 -128 0
v -80 -112 0
v -64 -112 0
v -80 -128 0
v -96 -128 0
v -96 -112 0
v -80 -112 0
v -96 -128 0
v -112 -128 0
v -112 -112 0
v -96 -112 0
v -112 -128 0
v -128 -128 0
v -128 -112 0
v -112 -112 0
v -128 -128 0
v -144 -128 0
v -144 -112 0
v -128 -112 0
v -144 -128 0
v -160 -128 0
v -160 -112 0
v -144 -112 0
v -160 -128 0
v -176 -128 0
v -176 -112 0
v -160 -112 0
v -176 -128 0
v -192 -128 0
v -192 -112 0
v -176 -112 0
v -192 -128 0
v -208 -128 0
v -208 -112 0
v -192 -112 0
v -208 -128 0
v -224 -128 0
v -224 -112 0
v -208 -112 0
v -224 -128 0
v -240 -128 0
v -240 -112 0
v -224 -112 0
v -240 -128 0
v -256 -128 0
v -256 -112 0
v -240 -112 0
v 0 -144 0
v -16 -144 0
v -16 -128 0
v 0 -128 0
v -16 -144 0
v -32 -144 0
v -32 -128 0
v -16 -128 0
v -32 -144 0
v -48 -144 0
v -48 -128 0
v -32 -128 0
v -48 -144 0
v -64 -144 0
v -64 -128 0
v -48 -128 0
v -64 -144 0
v -80 -144 0
v -80 -128 0
v -64 -128 0
v -80 -144 0
v -96 -144 0
v -96 -128 0
v -80 -128 0
v -96 -144 0
v -112 -144 0
v -112 -128 0
v -96 -128 0
v -112 -144 0
v -128 -144 0
v -128 -128 0
v -112 -128 0
v -128 -144 0
v -144 -144 0
v -144 -128 0
v -128 -128 0
v -144 -144 0
v -160 -144 0
v -160 -128 0
v -144 -128 0
v -160 -144 0
v -176 -144 0
v -176 -128 0
v -160 -128 0
v -176 -144 0
v -192 -144 0
v -192 -128 0
v -176 -128 0
v -192 -144 0
v -208 -144 0
v -208 -128 0
v -192 -128 0
v -208 -144 0
v -224 -144 0
v -224 -128 0
v -208 -128 0
v -224 -144 0
v -240 -144 0
v -240 -128 0
v -224 -128 0
v -240 -144 0
v -256 -144 0
v -256 -128 0
v -240 -128 0
v 0 -160 0
v -16 -160 0
v -16 -144 0
v 0 -144 0
v -16 -160 0
v -32 -160 0
v -32 -144 0
v -16 -144 0
v -32 -160 0
v -48 -160 0
v -48 -144 0
v -32 -144 0
v -48 -160 0
v -64 -160 0
v -64 -144 0
v -48 -144 0
v -64 -160 0
v -80 -160 0
v -80 -144 0
v -64 -144 0
v -80 -160 0
v -96 -160 0
v -96 -144 0
v -80 -144 0
v -96 -160 0
v -112 -160 0
v -112 -144 0
v -96 -144 0
v -112 -160 0
v -128 -160 0
v -128 -144 0
v -112 -144 0
v -128 -160 0
v -144 -160 0
v -144 -144 0
v -128 -144 0
v -144 -160 0
v -160 -160 0
v -160 -144 0
v -144 -144 0
v -160 -160 0
v -176 -160 0
v -176 -144 0
v -160 -144 0
v -176 -160 0
v -192 -160 0
v -192 -144 0
v -176 -144 0
v -192 -160 0
v -208 -160 0
v -208 -144 0
v -192 -144 0
v -208 -160 0
v -224 -160 0
v -224 -144 0
v -208 -144 0
v -224 -160 0
v -240 -160 0
v -240 -144 0
v -224 -144 0
v -240 -160 0
v -256 -160 0
v -256 -144 0
v -240 -144 0
v 0 -176 0
v -16 -176 0
v -16 -160 0
v 0 -160 0
v -16 -176 0
v -32 -176 0
v -32 -160 0
v -16 -160 0
v -32 -176 0
v -48 -176 0
v -48 -160 0
v -32 -160 0
v -48 -176 0
v -64 -176 0
v -64 -160 0
v -48 -160 0
v -64 -176 0
v -80 -176 0
v -80 -160 0
v -64 -160 0
v -80 -176 0
v -96 -176 0
v -96 -160 0
v -80 -160 0
v -96 -176 0
v -112 -176 0
v -112 -160 0
v -96 -160 0
v -112 -176 0
v -128 -176 0
v -128 -160 0
v -112 -160 0
v -128 -176 0
v -144 -176 0
v -144 -160 0
v -128 -160 0
v -144 -176 0
v -160 -176 0
v -160 -160 0
v -144 -160 0
v -160 -176 0
v -176 -176 0
v -176 -160 0
v -160 -160 0
v -176 -176 0
v -192 -176 0
v -192 -160 0
v -176 -160 0
v -192 -176 0
v -208 -176 0
v -208 -160 0
v -192 -160 0
v -208 -176 0
v -224 -176 0
v -224 -160 0
v -208 -160 0
v -224 -176 0
v -240 -176 0
v -240 -160 0
v -224 -160 0
v -240 -176 0
v -256 -176 0
v -256 -160 0
v -240 -160 0
v 0 -192 0
v -16 -192 0
v -16 -176 0
v 0 -176 0
v -16 -192 0
v -32 -192 0
v -32 -176 0
v -16 -176 0
v -32 -192 0
v -48 -192 0
v -48 -176 0
v -32 -176 0
v -48 -192 0
v -64 -192 0
v -64 -176 0
v -48 -176 0
v -64 -192 0
v -80 -192 0
v -80 -176 0
v -64 -176 0
v -80 -192 0
v -96 -192 0
v -96 -176 0
v -80 -176 0
v -96 -192 0
v -112 -192 0
v -112 -176 0
v -96 -176 0
v -112 -192 0
v -128 -192 0
v -128 -176 0
v -112 -176 0
v -128 -192 0
v -144 -192 0
v -144 -176 0
v -128 -176 0
v -144 -192 0
v -160 -192 0
v -160 -176 0
v -144 -176 0
v -160 -192 0
v -176 -192 0
v -176 -176 0
v -160 -176 0
v -176 -192 0
v -192 -192 0
v -192 -176 0
v -176 -176 0
v -192 -192 0
v -208 -192 0
v -208 -176 0
v -192 -176 0
v -208 -192 0
v -224 -192 0
v -224 -176 0
v -208 -176 0
v -224 -192 0
v -240 -192 0
v -240 -176 0
v -224 -176 0
v -240 -192 0
v -256 -192 0
v -256 -176 0
v -240 -176 0
v 0 -208 0
v -16 -208 0
v -16 -192 0
v 0 -192 0
v -16 -208 0
v -32 -208 0
v -32 -192 0
v -16 -192 0
v -32 -208 0
v -48 -208 0
v -48 -192 0
v -32 -192 0
v -48 -208 0
v -64 -208 0
v -64 -192 0
v -48 -192 0
v -64 -208 0
v -80 -208 0
v -80 -192 0
v -64 -192 0
v -80 -208 0
v -96 -208 0
v -96 -192 0
v -80 -192 0
v -96 -208 0
v -112 -208 0
v -112 -192 0
v -96 -192 0
v -112 -208 0
v -128 -208 0
v -128 -192 0
v -112 -192 0
v -128 -208 0
v -144 -208 0
v -144 -192 0
v -128 -192 0
v -144 -208 0
v -160 -208 0
v -160 -192 0
v -144 -192 0
v -160 -208 0
v -176 -208 0
v -176 -192 0
v -160 -192 0
v -176 -208 0
v -192 -208 0
v -192 -192 0
v -176 -192 0
v -192 -208 0
v -208 -208 0
v -208 -192 0
v -192 -192 0
v -208 -208 0
v -224 -208 0
v -224 -192 0
v -208 -192 0
v -224 -208 0
v -240 -208 0
v -240 -192 0
v -224 -192 0
v -240 -208 0
v -256 -208 0
v -256 -192 0
v -240 -192 0
v 0 -224 0
v -16 -224 0
v -16 -208 0
v 0 -208 0
v -16 -224 0
v -32 -224 0
v -32 -208 0
v -16 -208 0
v -32 -224 0
v -48 -224 0
v -48 -208 0
v -32 -208 0
v -48 -224 0
v -64 -224 0
v -64 -208 0
v -48 -208 0
v -64 -224 0
v -80 -224 0
v -80 -208 0
v -64 -208 0
v -80 -224 0
v -96 -224 0
v -96 -208 0
v -80 -208 0
v -96 -224 0
v -112 -224 0
v -112 -208 0
v -96 -208 0
v -112 -224 0
v -128 -224 0
v -128 -208 0
v -112 -208 0
v -128 -224 0
v -144 -224 0
v -144 -208 0
v -128 -208 0
v -144 -224 0
v -160 -224 0
v -160 -208 0
v -144 -208 0
v -160 -224 0
v -176 -224 0
v -176 -208 0
v -160 -208 0
v -176 -224 0
v -192 -224 0
v -192 -208 0
v -176 -208 0
v -192 -224 0
v -208 -224 0
v -208 -208 0
v -192 -208 0
v -208 -224 0
v -224 -224 0
v -224 -208 0
v -208 -208 0
v -224 -224 0
v -240 -224 0
v -240 -208 0
v -224 -208 0
v -240 -224 0
v -256 -224 0
v -256 -208 0
v -240 -208 0
v 0 -240 0
v -16 -240 0
v -16 -224 0
v 0 -224 0
v -16 -240 0
v -32 -240 0
v -32 -224 0
v -16 -224 0
v -32 -240 0
v -48 -240 0
v -48 -224 0
v -32 -224 0
v -48 -240 0
v -64 -240 0
v -64 -224 0
v -48 -224 0
v -64 -240 0
v -80 -240 0
v -80 -224 0
v -64 -224 0
v -80 -240 0
v -96 -240 0
v -96 -224 0
v -80 -224 0
v -96 -240 0
v -112 -240 0
v -112 -224 0
v -96 -224 0
v -112 -240 0
v -128 -240 0
v -128 -224 0
v -112 -224 0
v -128 -240 0
v -144 -240 0
v -144 -224 0
v -128 -224 0
v -144 -240 0
v -160 -240 0
v -160 -224 0
v -144 -224 0
v -160 -240 0
v -176 -240 0
v -176 -224 0
v -160 -224 0
v -176 -240 0
v -192 -240 0
v -192 -224 0
v -176 -224 0
v -192 -240 0
v -208 -240 0
v -208 -224 0
v -192 -224 0
v -208 -240 0
v -224 -240 0
v -224 -224 0
v -208 -224 0
v -224 -240 0
v -240 -240 0
v -240 -224 0
v -224 -224 0
v -240 -240 0
v -256 -240 0
v -256 -224 0
v -240 -224 0
v 0 -256 0
v -16 -256 0
v -16 -240 0
v 0 -240 0
v -16 -256 0
v -32 -256 0
v -32 -240 0
v -16 -240 0
v -32 -256 0
v -48 -256 0
v -48 -240 0
v -32 -240 0
v -48 -256 0
v -64 -256 0
v -64 -240 0
v -48 -240 0
v -64 -256 0
v -80 -256 0
v -80 -240 0
v -64 -240 0
v -80 -256 0
v -96 -256 0
v -96 -240 0
v -80 -240 0
v -96 -256 0
v -112 -256 0
v -112 -240 0
v -96 -240 0
v -112 -256 0
v -128 -256 0
v -128 -240 0
v -112 -240 0
v -128 -256 0
v -144 -256 0
v -144 -240 0
v -128 -240 0
v -144 -256 0
v -160 -256 0
v -160 -240 0
v -144 -240 0
v -160 -256 0
v -176 -256 0
v -176 -240 0
v -160 -240 0
v -176 -256 0
v -192 -256 0
v -192 -240 0
v -176 -240 0
v -192 -256 0
v -208 -256 0
v -208 -240 0
v -192 -240 0
v -208 -256 0
v -224 -256 0
v -224 -240 0
v -208 -240 0
v -224 -256 0
v -240 -256 0
v -240 -240 0
v -224 -240 0
v -240 -256 0
v -256 -256 0
v -256 -240 0
v -240 -240 0

# Texture cooridinates (Count = 49)
vt 0.01171875 0.453125
vt 0.015625 0.453125
vt 0.015625 0.46875
vt 0.01171875 0.46875
vt 0.015625 0.4375
vt 0.01953125 0.4375
vt 0.01953125 0.453125
vt 0.0078125 0.421875
vt 0.01171875 0.421875
vt 0.01171875 0.4375
vt 0.0078125 0.4375
vt 0.0234375 0.46875
vt 0.02734375 0.46875
vt 0.02734375 0.484375
vt 0.0234375 0.484375
vt 0.0234375 0.4375
vt 0.02734375 0.4375
vt 0.02734375 0.453125
vt 0.0234375 0.453125
vt 0.01953125 0.421875
vt 0.0234375 0.421875
vt 0.0078125 0.453125
vt 0.0078125 0.46875
vt 0.0234375 0.40625
vt 0.02734375 0.40625
vt 0.02734375 0.421875
vt 0.01953125 0.390625
vt 0.0234375 0.390625
vt 0.01953125 0.40625
vt 0.015625 0.421875
vt 0.01953125 0.46875
vt 0.02734375 0.390625
vt 0.03125 0.390625
vt 0.03125 0.40625
vt 0.015625 0.484375
vt 0.01171875 0.484375
vt 0.03125 0.4375
vt 0.03125 0.453125
vt 0.015625 0.40625
vt 0.03125 0.421875
vt 0.0078125 0.390625
vt 0.01171875 0.390625
vt 0.01171875 0.40625
vt 0.0078125 0.40625
vt 0.015625 0.390625
vt 0.03125 0.46875
vt 0.03125 0.484375
vt 0.01953125 0.484375
vt 0.0078125 0.484375

# Normal
vn 0 0 -1

# Mesh description
g TitleIntro_mesh_0041

# Faces
f 1/1/1 2/2/1 3/3/1 4/4/1
f 5/5/1 6/6/1 7/7/1 8/2/1
f 9/8/1 10/9/1 11/10/1 12/11/1
f 13/12/1 14/13/1 15/14/1 16/15/1
f 17/12/1 18/13/1 19/14/1 20/15/1
f 21/8/1 22/9/1 23/10/1 24/11/1
f 25/16/1 26/17/1 27/18/1 28/19/1
f 29/10/1 30/5/1 31/2/1 32/1/1
f 33/20/1 34/21/1 35/16/1 36/6/1
f 37/22/1 38/1/1 39/4/1 40/23/1
f 41/24/1 42/25/1 43/26/1 44/21/1
f 45/27/1 46/28/1 47/24/1 48/29/1
f 49/30/1 50/20/1 51/6/1 52/5/1
f 53/7/1 54/19/1 55/12/1 56/31/1
f 57/24/1 58/25/1 59/26/1 60/21/1
f 61/19/1 62/18/1 63/13/1 64/12/1
f 65/28/1 66/32/1 67/25/1 68/24/1
f 69/32/1 70/33/1 71/34/1 72/25/1
f 73/28/1 74/32/1 75/25/1 76/24/1
f 77/4/1 78/3/1 79/35/1 80/36/1
f 81/6/1 82/16/1 83/19/1 84/7/1
f 85/17/1 86/37/1 87/38/1 88/18/1
f 89/11/1 90/10/1 91/1/1 92/22/1
f 93/12/1 94/13/1 95/14/1 96/15/1
f 97/5/1 98/6/1 99/7/1 100/2/1
f 101/39/1 102/29/1 103/20/1 104/30/1
f 105/20/1 106/21/1 107/16/1 108/6/1
f 109/20/1 110/21/1 111/16/1 112/6/1
f 113/20/1 114/21/1 115/16/1 116/6/1
f 117/25/1 118/34/1 119/40/1 120/26/1
f 121/25/1 122/34/1 123/40/1 124/26/1
f 125/41/1 126/42/1 127/43/1 128/44/1
f 129/4/1 130/3/1 131/35/1 132/36/1
f 133/32/1 134/33/1 135/34/1 136/25/1
f 137/2/1 138/7/1 139/31/1 140/3/1
f 141/32/1 142/33/1 143/34/1 144/25/1
f 145/10/1 146/5/1 147/2/1 148/1/1
f 149/42/1 150/45/1 151/39/1 152/43/1
f 153/45/1 154/27/1 155/29/1 156/39/1
f 157/20/1 158/21/1 159/16/1 160/6/1
f 161/29/1 162/24/1 163/21/1 164/20/1
f 165/10/1 166/5/1 167/2/1 168/1/1
f 169/39/1 170/29/1 171/20/1 172/30/1
f 173/28/1 174/32/1 175/25/1 176/24/1
f 177/17/1 178/37/1 179/38/1 180/18/1
f 181/5/1 182/6/1 183/7/1 184/2/1
f 185/1/1 186/2/1 187/3/1 188/4/1
f 189/20/1 190/21/1 191/16/1 192/6/1
f 193/18/1 194/38/1 195/46/1 196/13/1
f 197/26/1 198/40/1 199/37/1 200/17/1
f 201/7/1 202/19/1 203/12/1 204/31/1
f 205/19/1 206/18/1 207/13/1 208/12/1
f 209/30/1 210/20/1 211/6/1 212/5/1
f 213/26/1 214/40/1 215/37/1 216/17/1
f 217/45/1 218/27/1 219/29/1 220/39/1
f 221/21/1 222/26/1 223/17/1 224/16/1
f 225/16/1 226/17/1 227/18/1 228/19/1
f 229/5/1 230/6/1 231/7/1 232/2/1
f 233/29/1 234/24/1 235/21/1 236/20/1
f 237/42/1 238/45/1 239/39/1 240/43/1
f 241/28/1 242/32/1 243/25/1 244/24/1
f 245/42/1 246/45/1 247/39/1 248/43/1
f 249/5/1 250/6/1 251/7/1 252/2/1
f 253/28/1 254/32/1 255/25/1 256/24/1
f 257/11/1 258/10/1 259/1/1 260/22/1
f 261/12/1 262/13/1 263/14/1 264/15/1
f 265/26/1 266/40/1 267/37/1 268/17/1
f 269/17/1 270/37/1 271/38/1 272/18/1
f 273/13/1 274/46/1 275/47/1 276/14/1
f 277/44/1 278/43/1 279/9/1 280/8/1
f 281/12/1 282/13/1 283/14/1 284/15/1
f 285/31/1 286/12/1 287/15/1 288/48/1
f 289/24/1 290/25/1 291/26/1 292/21/1
f 293/7/1 294/19/1 295/12/1 296/31/1
f 297/24/1 298/25/1 299/26/1 300/21/1
f 301/10/1 302/5/1 303/2/1 304/1/1
f 305/10/1 306/5/1 307/2/1 308/1/1
f 309/8/1 310/9/1 311/10/1 312/11/1
f 313/18/1 314/38/1 315/46/1 316/13/1
f 317/21/1 318/26/1 319/17/1 320/16/1
f 321/16/1 322/17/1 323/18/1 324/19/1
f 325/3/1 326/31/1 327/48/1 328/35/1
f 329/42/1 330/45/1 331/39/1 332/43/1
f 333/10/1 334/5/1 335/2/1 336/1/1
f 337/7/1 338/19/1 339/12/1 340/31/1
f 341/39/1 342/29/1 343/20/1 344/30/1
f 345/32/1 346/33/1 347/34/1 348/25/1
f 349/20/1 350/21/1 351/16/1 352/6/1
f 353/8/1 354/9/1 355/10/1 356/11/1
f 357/9/1 358/30/1 359/5/1 360/10/1
f 361/16/1 362/17/1 363/18/1 364/19/1
f 365/45/1 366/27/1 367/29/1 368/39/1
f 369/17/1 370/37/1 371/38/1 372/18/1
f 373/10/1 374/5/1 375/2/1 376/1/1
f 377/8/1 378/9/1 379/10/1 380/11/1
f 381/3/1 382/31/1 383/48/1 384/35/1
f 385/20/1 386/21/1 387/16/1 388/6/1
f 389/20/1 390/21/1 391/16/1 392/6/1
f 393/8/1 394/9/1 395/10/1 396/11/1
f 397/11/1 398/10/1 399/1/1 400/22/1
f 401/19/1 402/18/1 403/13/1 404/12/1
f 405/44/1 406/43/1 407/9/1 408/8/1
f 409/2/1 410/7/1 411/31/1 412/3/1
f 413/19/1 414/18/1 415/13/1 416/12/1
f 417/30/1 418/20/1 419/6/1 420/5/1
f 421/5/1 422/6/1 423/7/1 424/2/1
f 425/32/1 426/33/1 427/34/1 428/25/1
f 429/10/1 430/5/1 431/2/1 432/1/1
f 433/41/1 434/42/1 435/43/1 436/44/1
f 437/6/1 438/16/1 439/19/1 440/7/1
f 441/27/1 442/28/1 443/24/1 444/29/1
f 445/8/1 446/9/1 447/10/1 448/11/1
f 449/3/1 450/31/1 451/48/1 452/35/1
f 453/30/1 454/20/1 455/6/1 456/5/1
f 457/4/1 458/3/1 459/35/1 460/36/1
f 461/2/1 462/7/1 463/31/1 464/3/1
f 465/2/1 466/7/1 467/31/1 468/3/1
f 469/22/1 470/1/1 471/4/1 472/23/1
f 473/13/1 474/46/1 475/47/1 476/14/1
f 477/28/1 478/32/1 479/25/1 480/24/1
f 481/29/1 482/24/1 483/21/1 484/20/1
f 485/22/1 486/1/1 487/4/1 488/23/1
f 489/8/1 490/9/1 491/10/1 492/11/1
f 493/28/1 494/32/1 495/25/1 496/24/1
f 497/12/1 498/13/1 499/14/1 500/15/1
f 501/3/1 502/31/1 503/48/1 504/35/1
f 505/10/1 506/5/1 507/2/1 508/1/1
f 509/10/1 510/5/1 511/2/1 512/1/1
f 513/12/1 514/13/1 515/14/1 516/15/1
f 517/9/1 518/30/1 519/5/1 520/10/1
f 521/11/1 522/10/1 523/1/1 524/22/1
f 525/9/1 526/30/1 527/5/1 528/10/1
f 529/1/1 530/2/1 531/3/1 532/4/1
f 533/7/1 534/19/1 535/12/1 536/31/1
f 537/26/1 538/40/1 539/37/1 540/17/1
f 541/24/1 542/25/1 543/26/1 544/21/1
f 545/10/1 546/5/1 547/2/1 548/1/1
f 549/20/1 550/21/1 551/16/1 552/6/1
f 553/19/1 554/18/1 555/13/1 556/12/1
f 557/21/1 558/26/1 559/17/1 560/16/1
f 561/24/1 562/25/1 563/26/1 564/21/1
f 565/31/1 566/12/1 567/15/1 568/48/1
f 569/27/1 570/28/1 571/24/1 572/29/1
f 573/22/1 574/1/1 575/4/1 576/23/1
f 577/12/1 578/13/1 579/14/1 580/15/1
f 581/21/1 582/26/1 583/17/1 584/16/1
f 585/23/1 586/4/1 587/36/1 588/49/1
f 589/18/1 590/38/1 591/46/1 592/13/1
f 593/11/1 594/10/1 595/1/1 596/22/1
f 597/9/1 598/30/1 599/5/1 600/10/1
f 601/44/1 602/43/1 603/9/1 604/8/1
f 605/17/1 606/37/1 607/38/1 608/18/1
f 609/11/1 610/10/1 611/1/1 612/22/1
f 613/45/1 614/27/1 615/29/1 616/39/1
f 617/2/1 618/7/1 619/31/1 620/3/1
f 621/13/1 622/46/1 623/47/1 624/14/1
f 625/16/1 626/17/1 627/18/1 628/19/1
f 629/32/1 630/33/1 631/34/1 632/25/1
f 633/10/1 634/5/1 635/2/1 636/1/1
f 637/3/1 638/31/1 639/48/1 640/35/1
f 641/23/1 642/4/1 643/36/1 644/49/1
f 645/11/1 646/10/1 647/1/1 648/22/1
f 649/24/1 650/25/1 651/26/1 652/21/1
f 653/3/1 654/31/1 655/48/1 656/35/1
f 657/21/1 658/26/1 659/17/1 660/16/1
f 661/13/1 662/46/1 663/47/1 664/14/1
f 665/11/1 666/10/1 667/1/1 668/22/1
f 669/24/1 670/25/1 671/26/1 672/21/1
f 673/4/1 674/3/1 675/35/1 676/36/1
f 677/29/1 678/24/1 679/21/1 680/20/1
f 681/29/1 682/24/1 683/21/1 684/20/1
f 685/13/1 686/46/1 687/47/1 688/14/1
f 689/29/1 690/24/1 691/21/1 692/20/1
f 693/21/1 694/26/1 695/17/1 696/16/1
f 697/12/1 698/13/1 699/14/1 700/15/1
f 701/6/1 702/16/1 703/19/1 704/7/1
f 705/22/1 706/1/1 707/4/1 708/23/1
f 709/22/1 710/1/1 711/4/1 712/23/1
f 713/10/1 714/5/1 715/2/1 716/1/1
f 717/11/1 718/10/1 719/1/1 720/22/1
f 721/5/1 722/6/1 723/7/1 724/2/1
f 725/6/1 726/16/1 727/19/1 728/7/1
f 729/8/1 730/9/1 731/10/1 732/11/1
f 733/21/1 734/26/1 735/17/1 736/16/1
f 737/19/1 738/18/1 739/13/1 740/12/1
f 741/2/1 742/7/1 743/31/1 744/3/1
f 745/27/1 746/28/1 747/24/1 748/29/1
f 749/2/1 750/7/1 751/31/1 752/3/1
f 753/45/1 754/27/1 755/29/1 756/39/1
f 757/16/1 758/17/1 759/18/1 760/19/1
f 761/23/1 762/4/1 763/36/1 764/49/1
f 765/44/1 766/43/1 767/9/1 768/8/1
f 769/18/1 770/38/1 771/46/1 772/13/1
f 773/41/1 774/42/1 775/43/1 776/44/1
f 777/20/1 778/21/1 779/16/1 780/6/1
f 781/8/1 782/9/1 783/10/1 784/11/1
f 785/32/1 786/33/1 787/34/1 788/25/1
f 789/5/1 790/6/1 791/7/1 792/2/1
f 793/19/1 794/18/1 795/13/1 796/12/1
f 797/10/1 798/5/1 799/2/1 800/1/1
f 801/10/1 802/5/1 803/2/1 804/1/1
f 805/24/1 806/25/1 807/26/1 808/21/1
f 809/4/1 810/3/1 811/35/1 812/36/1
f 813/7/1 814/19/1 815/12/1 816/31/1
f 817/9/1 818/30/1 819/5/1 820/10/1
f 821/45/1 822/27/1 823/29/1 824/39/1
f 825/1/1 826/2/1 827/3/1 828/4/1
f 829/10/1 830/5/1 831/2/1 832/1/1
f 833/3/1 834/31/1 835/48/1 836/35/1
f 837/2/1 838/7/1 839/31/1 840/3/1
f 841/32/1 842/33/1 843/34/1 844/25/1
f 845/1/1 846/2/1 847/3/1 848/4/1
f 849/21/1 850/26/1 851/17/1 852/16/1
f 853/24/1 854/25/1 855/26/1 856/21/1
f 857/6/1 858/16/1 859/19/1 860/7/1
f 861/4/1 862/3/1 863/35/1 864/36/1
f 865/19/1 866/18/1 867/13/1 868/12/1
f 869/6/1 870/16/1 871/19/1 872/7/1
f 873/24/1 874/25/1 875/26/1 876/21/1
f 877/32/1 878/33/1 879/34/1 880/25/1
f 881/6/1 882/16/1 883/19/1 884/7/1
f 885/32/1 886/33/1 887/34/1 888/25/1
f 889/9/1 890/30/1 891/5/1 892/10/1
f 893/5/1 894/6/1 895/7/1 896/2/1
f 897/42/1 898/45/1 899/39/1 900/43/1
f 901/13/1 902/46/1 903/47/1 904/14/1
f 905/24/1 906/25/1 907/26/1 908/21/1
f 909/13/1 910/46/1 911/47/1 912/14/1
f 913/12/1 914/13/1 915/14/1 916/15/1
f 917/43/1 918/39/1 919/30/1 920/9/1
f 921/19/1 922/18/1 923/13/1 924/12/1
f 925/1/1 926/2/1 927/3/1 928/4/1
f 929/4/1 930/3/1 931/35/1 932/36/1
f 933/22/1 934/1/1 935/4/1 936/23/1
f 937/21/1 938/26/1 939/17/1 940/16/1
f 941/18/1 942/38/1 943/46/1 944/13/1
f 945/1/1 946/2/1 947/3/1 948/4/1
f 949/24/1 950/25/1 951/26/1 952/21/1
f 953/10/1 954/5/1 955/2/1 956/1/1
f 957/4/1 958/3/1 959/35/1 960/36/1
f 961/22/1 962/1/1 963/4/1 964/23/1
f 965/45/1 966/27/1 967/29/1 968/39/1
f 969/1/1 970/2/1 971/3/1 972/4/1
f 973/25/1 974/34/1 975/40/1 976/26/1
f 977/16/1 978/17/1 979/18/1 980/19/1
f 981/43/1 982/39/1 983/30/1 984/9/1
f 985/11/1 986/10/1 987/1/1 988/22/1
f 989/9/1 990/30/1 991/5/1 992/10/1
f 993/44/1 994/43/1 995/9/1 996/8/1
f 997/23/1 998/4/1 999/36/1 1000/49/1
f 1001/11/1 1002/10/1 1003/1/1 1004/22/1
f 1005/23/1 1006/4/1 1007/36/1 1008/49/1
f 1009/1/1 1010/2/1 1011/3/1 1012/4/1
f 1013/28/1 1014/32/1 1015/25/1 1016/24/1
f 1017/6/1 1018/16/1 1019/19/1 1020/7/1
f 1021/11/1 1022/10/1 1023/1/1 1024/22/1

