# Tiled2Unity generated file. Do not modify by hand.
# Wavefront file for 'TitleIntro_mesh_0019.obj'

# Vertices (Count = 320)
v -176 -16 0
v -192 -16 0
v -192 0 0
v -176 0 0
v -192 -16 0
v -208 -16 0
v -208 0 0
v -192 0 0
v -208 -16 0
v -224 -16 0
v -224 0 0
v -208 0 0
v -224 -16 0
v -240 -16 0
v -240 0 0
v -224 0 0
v -240 -16 0
v -256 -16 0
v -256 0 0
v -240 0 0
v -176 -32 0
v -192 -32 0
v -192 -16 0
v -176 -16 0
v -192 -32 0
v -208 -32 0
v -208 -16 0
v -192 -16 0
v -208 -32 0
v -224 -32 0
v -224 -16 0
v -208 -16 0
v -224 -32 0
v -240 -32 0
v -240 -16 0
v -224 -16 0
v -240 -32 0
v -256 -32 0
v -256 -16 0
v -240 -16 0
v -176 -48 0
v -192 -48 0
v -192 -32 0
v -176 -32 0
v -192 -48 0
v -208 -48 0
v -208 -32 0
v -192 -32 0
v -208 -48 0
v -224 -48 0
v -224 -32 0
v -208 -32 0
v -224 -48 0
v -240 -48 0
v -240 -32 0
v -224 -32 0
v -240 -48 0
v -256 -48 0
v -256 -32 0
v -240 -32 0
v -176 -64 0
v -192 -64 0
v -192 -48 0
v -176 -48 0
v -192 -64 0
v -208 -64 0
v -208 -48 0
v -192 -48 0
v -208 -64 0
v -224 -64 0
v -224 -48 0
v -208 -48 0
v -224 -64 0
v -240 -64 0
v -240 -48 0
v -224 -48 0
v -240 -64 0
v -256 -64 0
v -256 -48 0
v -240 -48 0
v -176 -80 0
v -192 -80 0
v -192 -64 0
v -176 -64 0
v -192 -80 0
v -208 -80 0
v -208 -64 0
v -192 -64 0
v -208 -80 0
v -224 -80 0
v -224 -64 0
v -208 -64 0
v -224 -80 0
v -240 -80 0
v -240 -64 0
v -224 -64 0
v -240 -80 0
v -256 -80 0
v -256 -64 0
v -240 -64 0
v -176 -96 0
v -192 -96 0
v -192 -80 0
v -176 -80 0
v -192 -96 0
v -208 -96 0
v -208 -80 0
v -192 -80 0
v -208 -96 0
v -224 -96 0
v -224 -80 0
v -208 -80 0
v -224 -96 0
v -240 -96 0
v -240 -80 0
v -224 -80 0
v -240 -96 0
v -256 -96 0
v -256 -80 0
v -240 -80 0
v -176 -112 0
v -192 -112 0
v -192 -96 0
v -176 -96 0
v -192 -112 0
v -208 -112 0
v -208 -96 0
v -192 -96 0
v -208 -112 0
v -224 -112 0
v -224 -96 0
v -208 -96 0
v -224 -112 0
v -240 -112 0
v -240 -96 0
v -224 -96 0
v -240 -112 0
v -256 -112 0
v -256 -96 0
v -240 -96 0
v -176 -128 0
v -192 -128 0
v -192 -112 0
v -176 -112 0
v -192 -128 0
v -208 -128 0
v -208 -112 0
v -192 -112 0
v -208 -128 0
v -224 -128 0
v -224 -112 0
v -208 -112 0
v -224 -128 0
v -240 -128 0
v -240 -112 0
v -224 -112 0
v -240 -128 0
v -256 -128 0
v -256 -112 0
v -240 -112 0
v -176 -144 0
v -192 -144 0
v -192 -128 0
v -176 -128 0
v -192 -144 0
v -208 -144 0
v -208 -128 0
v -192 -128 0
v -208 -144 0
v -224 -144 0
v -224 -128 0
v -208 -128 0
v -224 -144 0
v -240 -144 0
v -240 -128 0
v -224 -128 0
v -240 -144 0
v -256 -144 0
v -256 -128 0
v -240 -128 0
v -176 -160 0
v -192 -160 0
v -192 -144 0
v -176 -144 0
v -192 -160 0
v -208 -160 0
v -208 -144 0
v -192 -144 0
v -208 -160 0
v -224 -160 0
v -224 -144 0
v -208 -144 0
v -224 -160 0
v -240 -160 0
v -240 -144 0
v -224 -144 0
v -240 -160 0
v -256 -160 0
v -256 -144 0
v -240 -144 0
v -176 -176 0
v -192 -176 0
v -192 -160 0
v -176 -160 0
v -192 -176 0
v -208 -176 0
v -208 -160 0
v -192 -160 0
v -208 -176 0
v -224 -176 0
v -224 -160 0
v -208 -160 0
v -224 -176 0
v -240 -176 0
v -240 -160 0
v -224 -160 0
v -240 -176 0
v -256 -176 0
v -256 -160 0
v -240 -160 0
v -176 -192 0
v -192 -192 0
v -192 -176 0
v -176 -176 0
v -192 -192 0
v -208 -192 0
v -208 -176 0
v -192 -176 0
v -208 -192 0
v -224 -192 0
v -224 -176 0
v -208 -176 0
v -224 -192 0
v -240 -192 0
v -240 -176 0
v -224 -176 0
v -240 -192 0
v -256 -192 0
v -256 -176 0
v -240 -176 0
v -176 -208 0
v -192 -208 0
v -192 -192 0
v -176 -192 0
v -192 -208 0
v -208 -208 0
v -208 -192 0
v -192 -192 0
v -208 -208 0
v -224 -208 0
v -224 -192 0
v -208 -192 0
v -224 -208 0
v -240 -208 0
v -240 -192 0
v -224 -192 0
v -240 -208 0
v -256 -208 0
v -256 -192 0
v -240 -192 0
v -176 -224 0
v -192 -224 0
v -192 -208 0
v -176 -208 0
v -192 -224 0
v -208 -224 0
v -208 -208 0
v -192 -208 0
v -208 -224 0
v -224 -224 0
v -224 -208 0
v -208 -208 0
v -224 -224 0
v -240 -224 0
v -240 -208 0
v -224 -208 0
v -240 -224 0
v -256 -224 0
v -256 -208 0
v -240 -208 0
v -176 -240 0
v -192 -240 0
v -192 -224 0
v -176 -224 0
v -192 -240 0
v -208 -240 0
v -208 -224 0
v -192 -224 0
v -208 -240 0
v -224 -240 0
v -224 -224 0
v -208 -224 0
v -224 -240 0
v -240 -240 0
v -240 -224 0
v -224 -224 0
v -240 -240 0
v -256 -240 0
v -256 -224 0
v -240 -224 0
v -176 -256 0
v -192 -256 0
v -192 -240 0
v -176 -240 0
v -192 -256 0
v -208 -256 0
v -208 -240 0
v -192 -240 0
v -208 -256 0
v -224 -256 0
v -224 -240 0
v -208 -240 0
v -224 -256 0
v -240 -256 0
v -240 -240 0
v -224 -240 0
v -240 -256 0
v -256 -256 0
v -256 -240 0
v -240 -240 0

# Texture cooridinates (Count = 49)
vt 0.015625 0.421875
vt 0.01953125 0.421875
vt 0.01953125 0.4375
vt 0.015625 0.4375
vt 0.02734375 0.46875
vt 0.03125 0.46875
vt 0.03125 0.484375
vt 0.02734375 0.484375
vt 0.01171875 0.40625
vt 0.015625 0.40625
vt 0.01171875 0.421875
vt 0.02734375 0.390625
vt 0.03125 0.390625
vt 0.03125 0.40625
vt 0.02734375 0.40625
vt 0.015625 0.46875
vt 0.01953125 0.46875
vt 0.01953125 0.484375
vt 0.015625 0.484375
vt 0.01171875 0.46875
vt 0.01171875 0.484375
vt 0.03125 0.421875
vt 0.02734375 0.421875
vt 0.01171875 0.390625
vt 0.015625 0.390625
vt 0.01171875 0.453125
vt 0.015625 0.453125
vt 0.0078125 0.390625
vt 0.0078125 0.40625
vt 0.03125 0.4375
vt 0.02734375 0.4375
vt 0.0234375 0.40625
vt 0.0234375 0.421875
vt 0.01953125 0.390625
vt 0.01953125 0.40625
vt 0.0234375 0.390625
vt 0.0234375 0.46875
vt 0.0234375 0.484375
vt 0.0234375 0.4375
vt 0.0234375 0.453125
vt 0.01953125 0.453125
vt 0.0078125 0.46875
vt 0.0078125 0.484375
vt 0.02734375 0.453125
vt 0.03125 0.453125
vt 0.0078125 0.421875
vt 0.01171875 0.4375
vt 0.0078125 0.4375
vt 0.0078125 0.453125

# Normal
vn 0 0 -1

# Mesh description
g TitleIntro_mesh_0019

# Faces
f 1/1/1 2/2/1 3/3/1 4/4/1
f 5/5/1 6/6/1 7/7/1 8/8/1
f 9/9/1 10/10/1 11/1/1 12/11/1
f 13/12/1 14/13/1 15/14/1 16/15/1
f 17/16/1 18/17/1 19/18/1 20/19/1
f 21/20/1 22/16/1 23/19/1 24/21/1
f 25/15/1 26/14/1 27/22/1 28/23/1
f 29/24/1 30/25/1 31/10/1 32/9/1
f 33/26/1 34/27/1 35/16/1 36/20/1
f 37/9/1 38/10/1 39/1/1 40/11/1
f 41/16/1 42/17/1 43/18/1 44/19/1
f 45/24/1 46/25/1 47/10/1 48/9/1
f 49/28/1 50/24/1 51/9/1 52/29/1
f 53/23/1 54/22/1 55/30/1 56/31/1
f 57/12/1 58/13/1 59/14/1 60/15/1
f 61/32/1 62/15/1 63/23/1 64/33/1
f 65/25/1 66/34/1 67/35/1 68/10/1
f 69/15/1 70/14/1 71/22/1 72/23/1
f 73/36/1 74/12/1 75/15/1 76/32/1
f 77/17/1 78/37/1 79/38/1 80/18/1
f 81/28/1 82/24/1 83/9/1 84/29/1
f 85/3/1 86/39/1 87/40/1 88/41/1
f 89/1/1 90/2/1 91/3/1 92/4/1
f 93/28/1 94/24/1 95/9/1 96/29/1
f 97/5/1 98/6/1 99/7/1 100/8/1
f 101/15/1 102/14/1 103/22/1 104/23/1
f 105/42/1 106/20/1 107/21/1 108/43/1
f 109/12/1 110/13/1 111/14/1 112/15/1
f 113/44/1 114/45/1 115/6/1 116/5/1
f 117/17/1 118/37/1 119/38/1 120/18/1
f 121/1/1 122/2/1 123/3/1 124/4/1
f 125/9/1 126/10/1 127/1/1 128/11/1
f 129/42/1 130/20/1 131/21/1 132/43/1
f 133/29/1 134/9/1 135/11/1 136/46/1
f 137/1/1 138/2/1 139/3/1 140/4/1
f 141/4/1 142/3/1 143/41/1 144/27/1
f 145/2/1 146/33/1 147/39/1 148/3/1
f 149/37/1 150/5/1 151/8/1 152/38/1
f 153/12/1 154/13/1 155/14/1 156/15/1
f 157/5/1 158/6/1 159/7/1 160/8/1
f 161/42/1 162/20/1 163/21/1 164/43/1
f 165/15/1 166/14/1 167/22/1 168/23/1
f 169/25/1 170/34/1 171/35/1 172/10/1
f 173/1/1 174/2/1 175/3/1 176/4/1
f 177/16/1 178/17/1 179/18/1 180/19/1
f 181/23/1 182/22/1 183/30/1 184/31/1
f 185/27/1 186/41/1 187/17/1 188/16/1
f 189/28/1 190/24/1 191/9/1 192/29/1
f 193/10/1 194/35/1 195/2/1 196/1/1
f 197/47/1 198/4/1 199/27/1 200/26/1
f 201/27/1 202/41/1 203/17/1 204/16/1
f 205/3/1 206/39/1 207/40/1 208/41/1
f 209/37/1 210/5/1 211/8/1 212/38/1
f 213/48/1 214/47/1 215/26/1 216/49/1
f 217/23/1 218/22/1 219/30/1 220/31/1
f 221/28/1 222/24/1 223/9/1 224/29/1
f 225/40/1 226/44/1 227/5/1 228/37/1
f 229/41/1 230/40/1 231/37/1 232/17/1
f 233/29/1 234/9/1 235/11/1 236/46/1
f 237/12/1 238/13/1 239/14/1 240/15/1
f 241/31/1 242/30/1 243/45/1 244/44/1
f 245/36/1 246/12/1 247/15/1 248/32/1
f 249/44/1 250/45/1 251/6/1 252/5/1
f 253/15/1 254/14/1 255/22/1 256/23/1
f 257/47/1 258/4/1 259/27/1 260/26/1
f 261/47/1 262/4/1 263/27/1 264/26/1
f 265/36/1 266/12/1 267/15/1 268/32/1
f 269/15/1 270/14/1 271/22/1 272/23/1
f 273/31/1 274/30/1 275/45/1 276/44/1
f 277/15/1 278/14/1 279/22/1 280/23/1
f 281/9/1 282/10/1 283/1/1 284/11/1
f 285/44/1 286/45/1 287/6/1 288/5/1
f 289/10/1 290/35/1 291/2/1 292/1/1
f 293/37/1 294/5/1 295/8/1 296/38/1
f 297/24/1 298/25/1 299/10/1 300/9/1
f 301/40/1 302/44/1 303/5/1 304/37/1
f 305/3/1 306/39/1 307/40/1 308/41/1
f 309/35/1 310/32/1 311/33/1 312/2/1
f 313/41/1 314/40/1 315/37/1 316/17/1
f 317/4/1 318/3/1 319/41/1 320/27/1

