# Tiled2Unity generated file. Do not modify by hand.
# Wavefront file for 'TitleIntro_mesh_0101.obj'

# Vertices (Count = 132)
v -64 -80 0
v -80 -80 0
v -80 -64 0
v -64 -64 0
v -80 -80 0
v -96 -80 0
v -96 -64 0
v -80 -64 0
v -96 -80 0
v -112 -80 0
v -112 -64 0
v -96 -64 0
v -64 -96 0
v -80 -96 0
v -80 -80 0
v -64 -80 0
v -96 -96 0
v -112 -96 0
v -112 -80 0
v -96 -80 0
v -64 -112 0
v -80 -112 0
v -80 -96 0
v -64 -96 0
v -96 -112 0
v -112 -112 0
v -112 -96 0
v -96 -96 0
v -96 -128 0
v -112 -128 0
v -112 -112 0
v -96 -112 0
v -96 -144 0
v -112 -144 0
v -112 -128 0
v -96 -128 0
v -112 -144 0
v -128 -144 0
v -128 -128 0
v -112 -128 0
v -128 -144 0
v -144 -144 0
v -144 -128 0
v -128 -128 0
v -144 -144 0
v -160 -144 0
v -160 -128 0
v -144 -128 0
v -160 -144 0
v -176 -144 0
v -176 -128 0
v -160 -128 0
v -176 -144 0
v -192 -144 0
v -192 -128 0
v -176 -128 0
v -192 -144 0
v -208 -144 0
v -208 -128 0
v -192 -128 0
v -208 -144 0
v -224 -144 0
v -224 -128 0
v -208 -128 0
v -224 -144 0
v -240 -144 0
v -240 -128 0
v -224 -128 0
v -240 -144 0
v -256 -144 0
v -256 -128 0
v -240 -128 0
v -96 -160 0
v -112 -160 0
v -112 -144 0
v -96 -144 0
v -112 -160 0
v -128 -160 0
v -128 -144 0
v -112 -144 0
v -208 -160 0
v -224 -160 0
v -224 -144 0
v -208 -144 0
v -224 -160 0
v -240 -160 0
v -240 -144 0
v -224 -144 0
v -240 -160 0
v -256 -160 0
v -256 -144 0
v -240 -144 0
v -176 -176 0
v -192 -176 0
v -192 -160 0
v -176 -160 0
v -192 -176 0
v -208 -176 0
v -208 -160 0
v -192 -160 0
v -208 -176 0
v -224 -176 0
v -224 -160 0
v -208 -160 0
v -224 -176 0
v -240 -176 0
v -240 -160 0
v -224 -160 0
v -240 -176 0
v -256 -176 0
v -256 -160 0
v -240 -160 0
v -192 -192 0
v -208 -192 0
v -208 -176 0
v -192 -176 0
v -192 -208 0
v -208 -208 0
v -208 -192 0
v -192 -192 0
v -192 -224 0
v -208 -224 0
v -208 -208 0
v -192 -208 0
v -192 -240 0
v -208 -240 0
v -208 -224 0
v -192 -224 0
v -192 -256 0
v -208 -256 0
v -208 -240 0
v -192 -240 0

# Texture cooridinates (Count = 33)
vt 0.7109375 0.890625
vt 0.7148438 0.890625
vt 0.7148438 0.90625
vt 0.7109375 0.90625
vt 0.7070313 0.890625
vt 0.7070313 0.90625
vt 0.7148438 0.921875
vt 0.7109375 0.921875
vt 0.71875 0.90625
vt 0.71875 0.921875
vt 0.7148438 0.875
vt 0.71875 0.875
vt 0.71875 0.890625
vt 0.71875 0.859375
vt 0.7226563 0.859375
vt 0.7226563 0.875
vt 0.7265625 0.875
vt 0.7265625 0.890625
vt 0.7226563 0.890625
vt 0.9648438 0.84375
vt 0.96875 0.84375
vt 0.96875 0.859375
vt 0.9648438 0.859375
vt 0.9765625 0.859375
vt 0.9804688 0.859375
vt 0.9804688 0.875
vt 0.9765625 0.875
vt 0.9765625 0.84375
vt 0.9804688 0.84375
vt 0.9765625 0.828125
vt 0.9804688 0.828125
vt 0.9726563 0.828125
vt 0.9726563 0.84375

# Normal
vn 0 0 -1

# Mesh description
g TitleIntro_mesh_0101

# Faces
f 1/1/1 2/2/1 3/3/1 4/4/1
f 5/5/1 6/1/1 7/4/1 8/6/1
f 9/5/1 10/1/1 11/4/1 12/6/1
f 13/5/1 14/1/1 15/4/1 16/6/1
f 17/4/1 18/3/1 19/7/1 20/8/1
f 21/1/1 22/2/1 23/3/1 24/4/1
f 25/4/1 26/3/1 27/7/1 28/8/1
f 29/4/1 30/3/1 31/7/1 32/8/1
f 33/5/1 34/1/1 35/4/1 36/6/1
f 37/3/1 38/9/1 39/10/1 40/7/1
f 41/4/1 42/3/1 43/7/1 44/8/1
f 45/5/1 46/1/1 47/4/1 48/6/1
f 49/4/1 50/3/1 51/7/1 52/8/1
f 53/3/1 54/9/1 55/10/1 56/7/1
f 57/3/1 58/9/1 59/10/1 60/7/1
f 61/11/1 62/12/1 63/13/1 64/2/1
f 65/14/1 66/15/1 67/16/1 68/12/1
f 69/16/1 70/17/1 71/18/1 72/19/1
f 73/5/1 74/1/1 75/4/1 76/6/1
f 77/1/1 78/2/1 79/3/1 80/4/1
f 81/11/1 82/12/1 83/13/1 84/2/1
f 85/14/1 86/15/1 87/16/1 88/12/1
f 89/16/1 90/17/1 91/18/1 92/19/1
f 93/20/1 94/21/1 95/22/1 96/23/1
f 97/24/1 98/25/1 99/26/1 100/27/1
f 101/11/1 102/12/1 103/13/1 104/2/1
f 105/14/1 106/15/1 107/16/1 108/12/1
f 109/16/1 110/17/1 111/18/1 112/19/1
f 113/28/1 114/29/1 115/25/1 116/24/1
f 117/30/1 118/31/1 119/29/1 120/28/1
f 121/32/1 122/30/1 123/28/1 124/33/1
f 125/32/1 126/30/1 127/28/1 128/33/1
f 129/32/1 130/30/1 131/28/1 132/33/1

