# Tiled2Unity generated file. Do not modify by hand.
# Wavefront file for 'TitleIntro_mesh_0087.obj'

# Vertices (Count = 1024)
v 0 -16 0
v -16 -16 0
v -16 0 0
v 0 0 0
v -16 -16 0
v -32 -16 0
v -32 0 0
v -16 0 0
v -32 -16 0
v -48 -16 0
v -48 0 0
v -32 0 0
v -48 -16 0
v -64 -16 0
v -64 0 0
v -48 0 0
v -64 -16 0
v -80 -16 0
v -80 0 0
v -64 0 0
v -80 -16 0
v -96 -16 0
v -96 0 0
v -80 0 0
v -96 -16 0
v -112 -16 0
v -112 0 0
v -96 0 0
v -112 -16 0
v -128 -16 0
v -128 0 0
v -112 0 0
v -128 -16 0
v -144 -16 0
v -144 0 0
v -128 0 0
v -144 -16 0
v -160 -16 0
v -160 0 0
v -144 0 0
v -160 -16 0
v -176 -16 0
v -176 0 0
v -160 0 0
v -176 -16 0
v -192 -16 0
v -192 0 0
v -176 0 0
v -192 -16 0
v -208 -16 0
v -208 0 0
v -192 0 0
v -208 -16 0
v -224 -16 0
v -224 0 0
v -208 0 0
v -224 -16 0
v -240 -16 0
v -240 0 0
v -224 0 0
v -240 -16 0
v -256 -16 0
v -256 0 0
v -240 0 0
v 0 -32 0
v -16 -32 0
v -16 -16 0
v 0 -16 0
v -16 -32 0
v -32 -32 0
v -32 -16 0
v -16 -16 0
v -32 -32 0
v -48 -32 0
v -48 -16 0
v -32 -16 0
v -48 -32 0
v -64 -32 0
v -64 -16 0
v -48 -16 0
v -64 -32 0
v -80 -32 0
v -80 -16 0
v -64 -16 0
v -80 -32 0
v -96 -32 0
v -96 -16 0
v -80 -16 0
v -96 -32 0
v -112 -32 0
v -112 -16 0
v -96 -16 0
v -112 -32 0
v -128 -32 0
v -128 -16 0
v -112 -16 0
v -128 -32 0
v -144 -32 0
v -144 -16 0
v -128 -16 0
v -144 -32 0
v -160 -32 0
v -160 -16 0
v -144 -16 0
v -160 -32 0
v -176 -32 0
v -176 -16 0
v -160 -16 0
v -176 -32 0
v -192 -32 0
v -192 -16 0
v -176 -16 0
v -192 -32 0
v -208 -32 0
v -208 -16 0
v -192 -16 0
v -208 -32 0
v -224 -32 0
v -224 -16 0
v -208 -16 0
v -224 -32 0
v -240 -32 0
v -240 -16 0
v -224 -16 0
v -240 -32 0
v -256 -32 0
v -256 -16 0
v -240 -16 0
v 0 -48 0
v -16 -48 0
v -16 -32 0
v 0 -32 0
v -16 -48 0
v -32 -48 0
v -32 -32 0
v -16 -32 0
v -32 -48 0
v -48 -48 0
v -48 -32 0
v -32 -32 0
v -48 -48 0
v -64 -48 0
v -64 -32 0
v -48 -32 0
v -64 -48 0
v -80 -48 0
v -80 -32 0
v -64 -32 0
v -80 -48 0
v -96 -48 0
v -96 -32 0
v -80 -32 0
v -96 -48 0
v -112 -48 0
v -112 -32 0
v -96 -32 0
v -112 -48 0
v -128 -48 0
v -128 -32 0
v -112 -32 0
v -128 -48 0
v -144 -48 0
v -144 -32 0
v -128 -32 0
v -144 -48 0
v -160 -48 0
v -160 -32 0
v -144 -32 0
v -160 -48 0
v -176 -48 0
v -176 -32 0
v -160 -32 0
v -176 -48 0
v -192 -48 0
v -192 -32 0
v -176 -32 0
v -192 -48 0
v -208 -48 0
v -208 -32 0
v -192 -32 0
v -208 -48 0
v -224 -48 0
v -224 -32 0
v -208 -32 0
v -224 -48 0
v -240 -48 0
v -240 -32 0
v -224 -32 0
v -240 -48 0
v -256 -48 0
v -256 -32 0
v -240 -32 0
v 0 -64 0
v -16 -64 0
v -16 -48 0
v 0 -48 0
v -16 -64 0
v -32 -64 0
v -32 -48 0
v -16 -48 0
v -32 -64 0
v -48 -64 0
v -48 -48 0
v -32 -48 0
v -48 -64 0
v -64 -64 0
v -64 -48 0
v -48 -48 0
v -64 -64 0
v -80 -64 0
v -80 -48 0
v -64 -48 0
v -80 -64 0
v -96 -64 0
v -96 -48 0
v -80 -48 0
v -96 -64 0
v -112 -64 0
v -112 -48 0
v -96 -48 0
v -112 -64 0
v -128 -64 0
v -128 -48 0
v -112 -48 0
v -128 -64 0
v -144 -64 0
v -144 -48 0
v -128 -48 0
v -144 -64 0
v -160 -64 0
v -160 -48 0
v -144 -48 0
v -160 -64 0
v -176 -64 0
v -176 -48 0
v -160 -48 0
v -176 -64 0
v -192 -64 0
v -192 -48 0
v -176 -48 0
v -192 -64 0
v -208 -64 0
v -208 -48 0
v -192 -48 0
v -208 -64 0
v -224 -64 0
v -224 -48 0
v -208 -48 0
v -224 -64 0
v -240 -64 0
v -240 -48 0
v -224 -48 0
v -240 -64 0
v -256 -64 0
v -256 -48 0
v -240 -48 0
v 0 -80 0
v -16 -80 0
v -16 -64 0
v 0 -64 0
v -16 -80 0
v -32 -80 0
v -32 -64 0
v -16 -64 0
v -32 -80 0
v -48 -80 0
v -48 -64 0
v -32 -64 0
v -48 -80 0
v -64 -80 0
v -64 -64 0
v -48 -64 0
v -64 -80 0
v -80 -80 0
v -80 -64 0
v -64 -64 0
v -80 -80 0
v -96 -80 0
v -96 -64 0
v -80 -64 0
v -96 -80 0
v -112 -80 0
v -112 -64 0
v -96 -64 0
v -112 -80 0
v -128 -80 0
v -128 -64 0
v -112 -64 0
v -128 -80 0
v -144 -80 0
v -144 -64 0
v -128 -64 0
v -144 -80 0
v -160 -80 0
v -160 -64 0
v -144 -64 0
v -160 -80 0
v -176 -80 0
v -176 -64 0
v -160 -64 0
v -176 -80 0
v -192 -80 0
v -192 -64 0
v -176 -64 0
v -192 -80 0
v -208 -80 0
v -208 -64 0
v -192 -64 0
v -208 -80 0
v -224 -80 0
v -224 -64 0
v -208 -64 0
v -224 -80 0
v -240 -80 0
v -240 -64 0
v -224 -64 0
v -240 -80 0
v -256 -80 0
v -256 -64 0
v -240 -64 0
v 0 -96 0
v -16 -96 0
v -16 -80 0
v 0 -80 0
v -16 -96 0
v -32 -96 0
v -32 -80 0
v -16 -80 0
v -32 -96 0
v -48 -96 0
v -48 -80 0
v -32 -80 0
v -48 -96 0
v -64 -96 0
v -64 -80 0
v -48 -80 0
v -64 -96 0
v -80 -96 0
v -80 -80 0
v -64 -80 0
v -80 -96 0
v -96 -96 0
v -96 -80 0
v -80 -80 0
v -96 -96 0
v -112 -96 0
v -112 -80 0
v -96 -80 0
v -112 -96 0
v -128 -96 0
v -128 -80 0
v -112 -80 0
v -128 -96 0
v -144 -96 0
v -144 -80 0
v -128 -80 0
v -144 -96 0
v -160 -96 0
v -160 -80 0
v -144 -80 0
v -160 -96 0
v -176 -96 0
v -176 -80 0
v -160 -80 0
v -176 -96 0
v -192 -96 0
v -192 -80 0
v -176 -80 0
v -192 -96 0
v -208 -96 0
v -208 -80 0
v -192 -80 0
v -208 -96 0
v -224 -96 0
v -224 -80 0
v -208 -80 0
v -224 -96 0
v -240 -96 0
v -240 -80 0
v -224 -80 0
v -240 -96 0
v -256 -96 0
v -256 -80 0
v -240 -80 0
v 0 -112 0
v -16 -112 0
v -16 -96 0
v 0 -96 0
v -16 -112 0
v -32 -112 0
v -32 -96 0
v -16 -96 0
v -32 -112 0
v -48 -112 0
v -48 -96 0
v -32 -96 0
v -48 -112 0
v -64 -112 0
v -64 -96 0
v -48 -96 0
v -64 -112 0
v -80 -112 0
v -80 -96 0
v -64 -96 0
v -80 -112 0
v -96 -112 0
v -96 -96 0
v -80 -96 0
v -96 -112 0
v -112 -112 0
v -112 -96 0
v -96 -96 0
v -112 -112 0
v -128 -112 0
v -128 -96 0
v -112 -96 0
v -128 -112 0
v -144 -112 0
v -144 -96 0
v -128 -96 0
v -144 -112 0
v -160 -112 0
v -160 -96 0
v -144 -96 0
v -160 -112 0
v -176 -112 0
v -176 -96 0
v -160 -96 0
v -176 -112 0
v -192 -112 0
v -192 -96 0
v -176 -96 0
v -192 -112 0
v -208 -112 0
v -208 -96 0
v -192 -96 0
v -208 -112 0
v -224 -112 0
v -224 -96 0
v -208 -96 0
v -224 -112 0
v -240 -112 0
v -240 -96 0
v -224 -96 0
v -240 -112 0
v -256 -112 0
v -256 -96 0
v -240 -96 0
v 0 -128 0
v -16 -128 0
v -16 -112 0
v 0 -112 0
v -16 -128 0
v -32 -128 0
v -32 -112 0
v -16 -112 0
v -32 -128 0
v -48 -128 0
v -48 -112 0
v -32 -112 0
v -48 -128 0
v -64 -128 0
v -64 -112 0
v -48 -112 0
v -64 -128 0
v -80 -128 0
v -80 -112 0
v -64 -112 0
v -80 -128 0
v -96 -128 0
v -96 -112 0
v -80 -112 0
v -96 -128 0
v -112 -128 0
v -112 -112 0
v -96 -112 0
v -112 -128 0
v -128 -128 0
v -128 -112 0
v -112 -112 0
v -128 -128 0
v -144 -128 0
v -144 -112 0
v -128 -112 0
v -144 -128 0
v -160 -128 0
v -160 -112 0
v -144 -112 0
v -160 -128 0
v -176 -128 0
v -176 -112 0
v -160 -112 0
v -176 -128 0
v -192 -128 0
v -192 -112 0
v -176 -112 0
v -192 -128 0
v -208 -128 0
v -208 -112 0
v -192 -112 0
v -208 -128 0
v -224 -128 0
v -224 -112 0
v -208 -112 0
v -224 -128 0
v -240 -128 0
v -240 -112 0
v -224 -112 0
v -240 -128 0
v -256 -128 0
v -256 -112 0
v -240 -112 0
v 0 -144 0
v -16 -144 0
v -16 -128 0
v 0 -128 0
v -16 -144 0
v -32 -144 0
v -32 -128 0
v -16 -128 0
v -32 -144 0
v -48 -144 0
v -48 -128 0
v -32 -128 0
v -48 -144 0
v -64 -144 0
v -64 -128 0
v -48 -128 0
v -64 -144 0
v -80 -144 0
v -80 -128 0
v -64 -128 0
v -80 -144 0
v -96 -144 0
v -96 -128 0
v -80 -128 0
v -96 -144 0
v -112 -144 0
v -112 -128 0
v -96 -128 0
v -112 -144 0
v -128 -144 0
v -128 -128 0
v -112 -128 0
v -128 -144 0
v -144 -144 0
v -144 -128 0
v -128 -128 0
v -144 -144 0
v -160 -144 0
v -160 -128 0
v -144 -128 0
v -160 -144 0
v -176 -144 0
v -176 -128 0
v -160 -128 0
v -176 -144 0
v -192 -144 0
v -192 -128 0
v -176 -128 0
v -192 -144 0
v -208 -144 0
v -208 -128 0
v -192 -128 0
v -208 -144 0
v -224 -144 0
v -224 -128 0
v -208 -128 0
v -224 -144 0
v -240 -144 0
v -240 -128 0
v -224 -128 0
v -240 -144 0
v -256 -144 0
v -256 -128 0
v -240 -128 0
v 0 -160 0
v -16 -160 0
v -16 -144 0
v 0 -144 0
v -16 -160 0
v -32 -160 0
v -32 -144 0
v -16 -144 0
v -32 -160 0
v -48 -160 0
v -48 -144 0
v -32 -144 0
v -48 -160 0
v -64 -160 0
v -64 -144 0
v -48 -144 0
v -64 -160 0
v -80 -160 0
v -80 -144 0
v -64 -144 0
v -80 -160 0
v -96 -160 0
v -96 -144 0
v -80 -144 0
v -96 -160 0
v -112 -160 0
v -112 -144 0
v -96 -144 0
v -112 -160 0
v -128 -160 0
v -128 -144 0
v -112 -144 0
v -128 -160 0
v -144 -160 0
v -144 -144 0
v -128 -144 0
v -144 -160 0
v -160 -160 0
v -160 -144 0
v -144 -144 0
v -160 -160 0
v -176 -160 0
v -176 -144 0
v -160 -144 0
v -176 -160 0
v -192 -160 0
v -192 -144 0
v -176 -144 0
v -192 -160 0
v -208 -160 0
v -208 -144 0
v -192 -144 0
v -208 -160 0
v -224 -160 0
v -224 -144 0
v -208 -144 0
v -224 -160 0
v -240 -160 0
v -240 -144 0
v -224 -144 0
v -240 -160 0
v -256 -160 0
v -256 -144 0
v -240 -144 0
v 0 -176 0
v -16 -176 0
v -16 -160 0
v 0 -160 0
v -16 -176 0
v -32 -176 0
v -32 -160 0
v -16 -160 0
v -32 -176 0
v -48 -176 0
v -48 -160 0
v -32 -160 0
v -48 -176 0
v -64 -176 0
v -64 -160 0
v -48 -160 0
v -64 -176 0
v -80 -176 0
v -80 -160 0
v -64 -160 0
v -80 -176 0
v -96 -176 0
v -96 -160 0
v -80 -160 0
v -96 -176 0
v -112 -176 0
v -112 -160 0
v -96 -160 0
v -112 -176 0
v -128 -176 0
v -128 -160 0
v -112 -160 0
v -128 -176 0
v -144 -176 0
v -144 -160 0
v -128 -160 0
v -144 -176 0
v -160 -176 0
v -160 -160 0
v -144 -160 0
v -160 -176 0
v -176 -176 0
v -176 -160 0
v -160 -160 0
v -176 -176 0
v -192 -176 0
v -192 -160 0
v -176 -160 0
v -192 -176 0
v -208 -176 0
v -208 -160 0
v -192 -160 0
v -208 -176 0
v -224 -176 0
v -224 -160 0
v -208 -160 0
v -224 -176 0
v -240 -176 0
v -240 -160 0
v -224 -160 0
v -240 -176 0
v -256 -176 0
v -256 -160 0
v -240 -160 0
v 0 -192 0
v -16 -192 0
v -16 -176 0
v 0 -176 0
v -16 -192 0
v -32 -192 0
v -32 -176 0
v -16 -176 0
v -32 -192 0
v -48 -192 0
v -48 -176 0
v -32 -176 0
v -48 -192 0
v -64 -192 0
v -64 -176 0
v -48 -176 0
v -64 -192 0
v -80 -192 0
v -80 -176 0
v -64 -176 0
v -80 -192 0
v -96 -192 0
v -96 -176 0
v -80 -176 0
v -96 -192 0
v -112 -192 0
v -112 -176 0
v -96 -176 0
v -112 -192 0
v -128 -192 0
v -128 -176 0
v -112 -176 0
v -128 -192 0
v -144 -192 0
v -144 -176 0
v -128 -176 0
v -144 -192 0
v -160 -192 0
v -160 -176 0
v -144 -176 0
v -160 -192 0
v -176 -192 0
v -176 -176 0
v -160 -176 0
v -176 -192 0
v -192 -192 0
v -192 -176 0
v -176 -176 0
v -192 -192 0
v -208 -192 0
v -208 -176 0
v -192 -176 0
v -208 -192 0
v -224 -192 0
v -224 -176 0
v -208 -176 0
v -224 -192 0
v -240 -192 0
v -240 -176 0
v -224 -176 0
v -240 -192 0
v -256 -192 0
v -256 -176 0
v -240 -176 0
v 0 -208 0
v -16 -208 0
v -16 -192 0
v 0 -192 0
v -16 -208 0
v -32 -208 0
v -32 -192 0
v -16 -192 0
v -32 -208 0
v -48 -208 0
v -48 -192 0
v -32 -192 0
v -48 -208 0
v -64 -208 0
v -64 -192 0
v -48 -192 0
v -64 -208 0
v -80 -208 0
v -80 -192 0
v -64 -192 0
v -80 -208 0
v -96 -208 0
v -96 -192 0
v -80 -192 0
v -96 -208 0
v -112 -208 0
v -112 -192 0
v -96 -192 0
v -112 -208 0
v -128 -208 0
v -128 -192 0
v -112 -192 0
v -128 -208 0
v -144 -208 0
v -144 -192 0
v -128 -192 0
v -144 -208 0
v -160 -208 0
v -160 -192 0
v -144 -192 0
v -160 -208 0
v -176 -208 0
v -176 -192 0
v -160 -192 0
v -176 -208 0
v -192 -208 0
v -192 -192 0
v -176 -192 0
v -192 -208 0
v -208 -208 0
v -208 -192 0
v -192 -192 0
v -208 -208 0
v -224 -208 0
v -224 -192 0
v -208 -192 0
v -224 -208 0
v -240 -208 0
v -240 -192 0
v -224 -192 0
v -240 -208 0
v -256 -208 0
v -256 -192 0
v -240 -192 0
v 0 -224 0
v -16 -224 0
v -16 -208 0
v 0 -208 0
v -16 -224 0
v -32 -224 0
v -32 -208 0
v -16 -208 0
v -32 -224 0
v -48 -224 0
v -48 -208 0
v -32 -208 0
v -48 -224 0
v -64 -224 0
v -64 -208 0
v -48 -208 0
v -64 -224 0
v -80 -224 0
v -80 -208 0
v -64 -208 0
v -80 -224 0
v -96 -224 0
v -96 -208 0
v -80 -208 0
v -96 -224 0
v -112 -224 0
v -112 -208 0
v -96 -208 0
v -112 -224 0
v -128 -224 0
v -128 -208 0
v -112 -208 0
v -128 -224 0
v -144 -224 0
v -144 -208 0
v -128 -208 0
v -144 -224 0
v -160 -224 0
v -160 -208 0
v -144 -208 0
v -160 -224 0
v -176 -224 0
v -176 -208 0
v -160 -208 0
v -176 -224 0
v -192 -224 0
v -192 -208 0
v -176 -208 0
v -192 -224 0
v -208 -224 0
v -208 -208 0
v -192 -208 0
v -208 -224 0
v -224 -224 0
v -224 -208 0
v -208 -208 0
v -224 -224 0
v -240 -224 0
v -240 -208 0
v -224 -208 0
v -240 -224 0
v -256 -224 0
v -256 -208 0
v -240 -208 0
v 0 -240 0
v -16 -240 0
v -16 -224 0
v 0 -224 0
v -16 -240 0
v -32 -240 0
v -32 -224 0
v -16 -224 0
v -32 -240 0
v -48 -240 0
v -48 -224 0
v -32 -224 0
v -48 -240 0
v -64 -240 0
v -64 -224 0
v -48 -224 0
v -64 -240 0
v -80 -240 0
v -80 -224 0
v -64 -224 0
v -80 -240 0
v -96 -240 0
v -96 -224 0
v -80 -224 0
v -96 -240 0
v -112 -240 0
v -112 -224 0
v -96 -224 0
v -112 -240 0
v -128 -240 0
v -128 -224 0
v -112 -224 0
v -128 -240 0
v -144 -240 0
v -144 -224 0
v -128 -224 0
v -144 -240 0
v -160 -240 0
v -160 -224 0
v -144 -224 0
v -160 -240 0
v -176 -240 0
v -176 -224 0
v -160 -224 0
v -176 -240 0
v -192 -240 0
v -192 -224 0
v -176 -224 0
v -192 -240 0
v -208 -240 0
v -208 -224 0
v -192 -224 0
v -208 -240 0
v -224 -240 0
v -224 -224 0
v -208 -224 0
v -224 -240 0
v -240 -240 0
v -240 -224 0
v -224 -224 0
v -240 -240 0
v -256 -240 0
v -256 -224 0
v -240 -224 0
v 0 -256 0
v -16 -256 0
v -16 -240 0
v 0 -240 0
v -16 -256 0
v -32 -256 0
v -32 -240 0
v -16 -240 0
v -32 -256 0
v -48 -256 0
v -48 -240 0
v -32 -240 0
v -48 -256 0
v -64 -256 0
v -64 -240 0
v -48 -240 0
v -64 -256 0
v -80 -256 0
v -80 -240 0
v -64 -240 0
v -80 -256 0
v -96 -256 0
v -96 -240 0
v -80 -240 0
v -96 -256 0
v -112 -256 0
v -112 -240 0
v -96 -240 0
v -112 -256 0
v -128 -256 0
v -128 -240 0
v -112 -240 0
v -128 -256 0
v -144 -256 0
v -144 -240 0
v -128 -240 0
v -144 -256 0
v -160 -256 0
v -160 -240 0
v -144 -240 0
v -160 -256 0
v -176 -256 0
v -176 -240 0
v -160 -240 0
v -176 -256 0
v -192 -256 0
v -192 -240 0
v -176 -240 0
v -192 -256 0
v -208 -256 0
v -208 -240 0
v -192 -240 0
v -208 -256 0
v -224 -256 0
v -224 -240 0
v -208 -240 0
v -224 -256 0
v -240 -256 0
v -240 -240 0
v -224 -240 0
v -240 -256 0
v -256 -256 0
v -256 -240 0
v -240 -240 0

# Texture cooridinates (Count = 49)
vt 0.015625 0.4375
vt 0.01953125 0.4375
vt 0.01953125 0.453125
vt 0.015625 0.453125
vt 0.0234375 0.453125
vt 0.0234375 0.46875
vt 0.01953125 0.46875
vt 0.02734375 0.453125
vt 0.02734375 0.46875
vt 0.0234375 0.4375
vt 0.0078125 0.46875
vt 0.01171875 0.46875
vt 0.01171875 0.484375
vt 0.0078125 0.484375
vt 0.01171875 0.40625
vt 0.015625 0.40625
vt 0.015625 0.421875
vt 0.01171875 0.421875
vt 0.01953125 0.40625
vt 0.01953125 0.421875
vt 0.0234375 0.421875
vt 0.02734375 0.421875
vt 0.02734375 0.4375
vt 0.0234375 0.390625
vt 0.02734375 0.390625
vt 0.02734375 0.40625
vt 0.0234375 0.40625
vt 0.015625 0.46875
vt 0.015625 0.484375
vt 0.01171875 0.453125
vt 0.03125 0.40625
vt 0.03125 0.421875
vt 0.01171875 0.390625
vt 0.015625 0.390625
vt 0.01171875 0.4375
vt 0.01953125 0.390625
vt 0.0078125 0.453125
vt 0.01953125 0.484375
vt 0.0078125 0.421875
vt 0.0078125 0.4375
vt 0.03125 0.4375
vt 0.03125 0.453125
vt 0.0078125 0.390625
vt 0.0078125 0.40625
vt 0.03125 0.46875
vt 0.03125 0.484375
vt 0.02734375 0.484375
vt 0.0234375 0.484375
vt 0.03125 0.390625

# Normal
vn 0 0 -1

# Mesh description
g TitleIntro_mesh_0087

# Faces
f 1/1/1 2/2/1 3/3/1 4/4/1
f 5/3/1 6/5/1 7/6/1 8/7/1
f 9/5/1 10/8/1 11/9/1 12/6/1
f 13/2/1 14/10/1 15/5/1 16/3/1
f 17/11/1 18/12/1 19/13/1 20/14/1
f 21/15/1 22/16/1 23/17/1 24/18/1
f 25/16/1 26/19/1 27/20/1 28/17/1
f 29/21/1 30/22/1 31/23/1 32/10/1
f 33/24/1 34/25/1 35/26/1 36/27/1
f 37/12/1 38/28/1 39/29/1 40/13/1
f 41/30/1 42/4/1 43/28/1 44/12/1
f 45/1/1 46/2/1 47/3/1 48/4/1
f 49/26/1 50/31/1 51/32/1 52/22/1
f 53/15/1 54/16/1 55/17/1 56/18/1
f 57/10/1 58/23/1 59/8/1 60/5/1
f 61/33/1 62/34/1 63/16/1 64/15/1
f 65/2/1 66/10/1 67/5/1 68/3/1
f 69/18/1 70/17/1 71/1/1 72/35/1
f 73/36/1 74/24/1 75/27/1 76/19/1
f 77/16/1 78/19/1 79/20/1 80/17/1
f 81/37/1 82/30/1 83/12/1 84/11/1
f 85/28/1 86/7/1 87/38/1 88/29/1
f 89/15/1 90/16/1 91/17/1 92/18/1
f 93/39/1 94/18/1 95/35/1 96/40/1
f 97/34/1 98/36/1 99/19/1 100/16/1
f 101/23/1 102/41/1 103/42/1 104/8/1
f 105/10/1 106/23/1 107/8/1 108/5/1
f 109/2/1 110/10/1 111/5/1 112/3/1
f 113/12/1 114/28/1 115/29/1 116/13/1
f 117/33/1 118/34/1 119/16/1 120/15/1
f 121/20/1 122/21/1 123/10/1 124/2/1
f 125/2/1 126/10/1 127/5/1 128/3/1
f 129/43/1 130/33/1 131/15/1 132/44/1
f 133/20/1 134/21/1 135/10/1 136/2/1
f 137/40/1 138/35/1 139/30/1 140/37/1
f 141/28/1 142/7/1 143/38/1 144/29/1
f 145/15/1 146/16/1 147/17/1 148/18/1
f 149/39/1 150/18/1 151/35/1 152/40/1
f 153/17/1 154/20/1 155/2/1 156/1/1
f 157/15/1 158/16/1 159/17/1 160/18/1
f 161/20/1 162/21/1 163/10/1 164/2/1
f 165/16/1 166/19/1 167/20/1 168/17/1
f 169/33/1 170/34/1 171/16/1 172/15/1
f 173/11/1 174/12/1 175/13/1 176/14/1
f 177/1/1 178/2/1 179/3/1 180/4/1
f 181/3/1 182/5/1 183/6/1 184/7/1
f 185/15/1 186/16/1 187/17/1 188/18/1
f 189/43/1 190/33/1 191/15/1 192/44/1
f 193/20/1 194/21/1 195/10/1 196/2/1
f 197/30/1 198/4/1 199/28/1 200/12/1
f 201/20/1 202/21/1 203/10/1 204/2/1
f 205/20/1 206/21/1 207/10/1 208/2/1
f 209/2/1 210/10/1 211/5/1 212/3/1
f 213/8/1 214/42/1 215/45/1 216/9/1
f 217/1/1 218/2/1 219/3/1 220/4/1
f 221/22/1 222/32/1 223/41/1 224/23/1
f 225/27/1 226/26/1 227/22/1 228/21/1
f 229/30/1 230/4/1 231/28/1 232/12/1
f 233/9/1 234/45/1 235/46/1 236/47/1
f 237/23/1 238/41/1 239/42/1 240/8/1
f 241/37/1 242/30/1 243/12/1 244/11/1
f 245/8/1 246/42/1 247/45/1 248/9/1
f 249/43/1 250/33/1 251/15/1 252/44/1
f 253/11/1 254/12/1 255/13/1 256/14/1
f 257/34/1 258/36/1 259/19/1 260/16/1
f 261/34/1 262/36/1 263/19/1 264/16/1
f 265/37/1 266/30/1 267/12/1 268/11/1
f 269/3/1 270/5/1 271/6/1 272/7/1
f 273/11/1 274/12/1 275/13/1 276/14/1
f 277/24/1 278/25/1 279/26/1 280/27/1
f 281/40/1 282/35/1 283/30/1 284/37/1
f 285/18/1 286/17/1 287/1/1 288/35/1
f 289/21/1 290/22/1 291/23/1 292/10/1
f 293/17/1 294/20/1 295/2/1 296/1/1
f 297/19/1 298/27/1 299/21/1 300/20/1
f 301/2/1 302/10/1 303/5/1 304/3/1
f 305/27/1 306/26/1 307/22/1 308/21/1
f 309/4/1 310/3/1 311/7/1 312/28/1
f 313/28/1 314/7/1 315/38/1 316/29/1
f 317/10/1 318/23/1 319/8/1 320/5/1
f 321/8/1 322/42/1 323/45/1 324/9/1
f 325/34/1 326/36/1 327/19/1 328/16/1
f 329/21/1 330/22/1 331/23/1 332/10/1
f 333/2/1 334/10/1 335/5/1 336/3/1
f 337/26/1 338/31/1 339/32/1 340/22/1
f 341/15/1 342/16/1 343/17/1 344/18/1
f 345/10/1 346/23/1 347/8/1 348/5/1
f 349/20/1 350/21/1 351/10/1 352/2/1
f 353/18/1 354/17/1 355/1/1 356/35/1
f 357/20/1 358/21/1 359/10/1 360/2/1
f 361/7/1 362/6/1 363/48/1 364/38/1
f 365/33/1 366/34/1 367/16/1 368/15/1
f 369/37/1 370/30/1 371/12/1 372/11/1
f 373/24/1 374/25/1 375/26/1 376/27/1
f 377/16/1 378/19/1 379/20/1 380/17/1
f 381/17/1 382/20/1 383/2/1 384/1/1
f 385/3/1 386/5/1 387/6/1 388/7/1
f 389/35/1 390/1/1 391/4/1 392/30/1
f 393/21/1 394/22/1 395/23/1 396/10/1
f 397/33/1 398/34/1 399/16/1 400/15/1
f 401/16/1 402/19/1 403/20/1 404/17/1
f 405/15/1 406/16/1 407/17/1 408/18/1
f 409/3/1 410/5/1 411/6/1 412/7/1
f 413/24/1 414/25/1 415/26/1 416/27/1
f 417/2/1 418/10/1 419/5/1 420/3/1
f 421/15/1 422/16/1 423/17/1 424/18/1
f 425/6/1 426/9/1 427/47/1 428/48/1
f 429/22/1 430/32/1 431/41/1 432/23/1
f 433/24/1 434/25/1 435/26/1 436/27/1
f 437/18/1 438/17/1 439/1/1 440/35/1
f 441/11/1 442/12/1 443/13/1 444/14/1
f 445/4/1 446/3/1 447/7/1 448/28/1
f 449/21/1 450/22/1 451/23/1 452/10/1
f 453/10/1 454/23/1 455/8/1 456/5/1
f 457/16/1 458/19/1 459/20/1 460/17/1
f 461/23/1 462/41/1 463/42/1 464/8/1
f 465/28/1 466/7/1 467/38/1 468/29/1
f 469/20/1 470/21/1 471/10/1 472/2/1
f 473/15/1 474/16/1 475/17/1 476/18/1
f 477/8/1 478/42/1 479/45/1 480/9/1
f 481/10/1 482/23/1 483/8/1 484/5/1
f 485/7/1 486/6/1 487/48/1 488/38/1
f 489/2/1 490/10/1 491/5/1 492/3/1
f 493/25/1 494/49/1 495/31/1 496/26/1
f 497/26/1 498/31/1 499/32/1 500/22/1
f 501/6/1 502/9/1 503/47/1 504/48/1
f 505/37/1 506/30/1 507/12/1 508/11/1
f 509/10/1 510/23/1 511/8/1 512/5/1
f 513/2/1 514/10/1 515/5/1 516/3/1
f 517/16/1 518/19/1 519/20/1 520/17/1
f 521/25/1 522/49/1 523/31/1 524/26/1
f 525/37/1 526/30/1 527/12/1 528/11/1
f 529/28/1 530/7/1 531/38/1 532/29/1
f 533/27/1 534/26/1 535/22/1 536/21/1
f 537/30/1 538/4/1 539/28/1 540/12/1
f 541/37/1 542/30/1 543/12/1 544/11/1
f 545/15/1 546/16/1 547/17/1 548/18/1
f 549/36/1 550/24/1 551/27/1 552/19/1
f 553/2/1 554/10/1 555/5/1 556/3/1
f 557/37/1 558/30/1 559/12/1 560/11/1
f 561/34/1 562/36/1 563/19/1 564/16/1
f 565/27/1 566/26/1 567/22/1 568/21/1
f 569/40/1 570/35/1 571/30/1 572/37/1
f 573/19/1 574/27/1 575/21/1 576/20/1
f 577/18/1 578/17/1 579/1/1 580/35/1
f 581/6/1 582/9/1 583/47/1 584/48/1
f 585/21/1 586/22/1 587/23/1 588/10/1
f 589/26/1 590/31/1 591/32/1 592/22/1
f 593/40/1 594/35/1 595/30/1 596/37/1
f 597/17/1 598/20/1 599/2/1 600/1/1
f 601/21/1 602/22/1 603/23/1 604/10/1
f 605/12/1 606/28/1 607/29/1 608/13/1
f 609/33/1 610/34/1 611/16/1 612/15/1
f 613/22/1 614/32/1 615/41/1 616/23/1
f 617/23/1 618/41/1 619/42/1 620/8/1
f 621/34/1 622/36/1 623/19/1 624/16/1
f 625/34/1 626/36/1 627/19/1 628/16/1
f 629/10/1 630/23/1 631/8/1 632/5/1
f 633/40/1 634/35/1 635/30/1 636/37/1
f 637/26/1 638/31/1 639/32/1 640/22/1
f 641/5/1 642/8/1 643/9/1 644/6/1
f 645/4/1 646/3/1 647/7/1 648/28/1
f 649/4/1 650/3/1 651/7/1 652/28/1
f 653/22/1 654/32/1 655/41/1 656/23/1
f 657/15/1 658/16/1 659/17/1 660/18/1
f 661/28/1 662/7/1 663/38/1 664/29/1
f 665/5/1 666/8/1 667/9/1 668/6/1
f 669/4/1 670/3/1 671/7/1 672/28/1
f 673/44/1 674/15/1 675/18/1 676/39/1
f 677/2/1 678/10/1 679/5/1 680/3/1
f 681/34/1 682/36/1 683/19/1 684/16/1
f 685/28/1 686/7/1 687/38/1 688/29/1
f 689/44/1 690/15/1 691/18/1 692/39/1
f 693/18/1 694/17/1 695/1/1 696/35/1
f 697/9/1 698/45/1 699/46/1 700/47/1
f 701/21/1 702/22/1 703/23/1 704/10/1
f 705/1/1 706/2/1 707/3/1 708/4/1
f 709/35/1 710/1/1 711/4/1 712/30/1
f 713/2/1 714/10/1 715/5/1 716/3/1
f 717/18/1 718/17/1 719/1/1 720/35/1
f 721/25/1 722/49/1 723/31/1 724/26/1
f 725/24/1 726/25/1 727/26/1 728/27/1
f 729/11/1 730/12/1 731/13/1 732/14/1
f 733/30/1 734/4/1 735/28/1 736/12/1
f 737/6/1 738/9/1 739/47/1 740/48/1
f 741/26/1 742/31/1 743/32/1 744/22/1
f 745/39/1 746/18/1 747/35/1 748/40/1
f 749/15/1 750/16/1 751/17/1 752/18/1
f 753/17/1 754/20/1 755/2/1 756/1/1
f 757/11/1 758/12/1 759/13/1 760/14/1
f 761/11/1 762/12/1 763/13/1 764/14/1
f 765/37/1 766/30/1 767/12/1 768/11/1
f 769/16/1 770/19/1 771/20/1 772/17/1
f 773/25/1 774/49/1 775/31/1 776/26/1
f 777/34/1 778/36/1 779/19/1 780/16/1
f 781/36/1 782/24/1 783/27/1 784/19/1
f 785/36/1 786/24/1 787/27/1 788/19/1
f 789/23/1 790/41/1 791/42/1 792/8/1
f 793/43/1 794/33/1 795/15/1 796/44/1
f 797/21/1 798/22/1 799/23/1 800/10/1
f 801/4/1 802/3/1 803/7/1 804/28/1
f 805/11/1 806/12/1 807/13/1 808/14/1
f 809/39/1 810/18/1 811/35/1 812/40/1
f 813/12/1 814/28/1 815/29/1 816/13/1
f 817/9/1 818/45/1 819/46/1 820/47/1
f 821/26/1 822/31/1 823/32/1 824/22/1
f 825/33/1 826/34/1 827/16/1 828/15/1
f 829/44/1 830/15/1 831/18/1 832/39/1
f 833/6/1 834/9/1 835/47/1 836/48/1
f 837/35/1 838/1/1 839/4/1 840/30/1
f 841/34/1 842/36/1 843/19/1 844/16/1
f 845/10/1 846/23/1 847/8/1 848/5/1
f 849/39/1 850/18/1 851/35/1 852/40/1
f 853/22/1 854/32/1 855/41/1 856/23/1
f 857/21/1 858/22/1 859/23/1 860/10/1
f 861/2/1 862/10/1 863/5/1 864/3/1
f 865/27/1 866/26/1 867/22/1 868/21/1
f 869/16/1 870/19/1 871/20/1 872/17/1
f 873/39/1 874/18/1 875/35/1 876/40/1
f 877/24/1 878/25/1 879/26/1 880/27/1
f 881/3/1 882/5/1 883/6/1 884/7/1
f 885/30/1 886/4/1 887/28/1 888/12/1
f 889/10/1 890/23/1 891/8/1 892/5/1
f 893/19/1 894/27/1 895/21/1 896/20/1
f 897/40/1 898/35/1 899/30/1 900/37/1
f 901/15/1 902/16/1 903/17/1 904/18/1
f 905/27/1 906/26/1 907/22/1 908/21/1
f 909/44/1 910/15/1 911/18/1 912/39/1
f 913/37/1 914/30/1 915/12/1 916/11/1
f 917/24/1 918/25/1 919/26/1 920/27/1
f 921/28/1 922/7/1 923/38/1 924/29/1
f 925/28/1 926/7/1 927/38/1 928/29/1
f 929/26/1 930/31/1 931/32/1 932/22/1
f 933/3/1 934/5/1 935/6/1 936/7/1
f 937/35/1 938/1/1 939/4/1 940/30/1
f 941/37/1 942/30/1 943/12/1 944/11/1
f 945/24/1 946/25/1 947/26/1 948/27/1
f 949/5/1 950/8/1 951/9/1 952/6/1
f 953/22/1 954/32/1 955/41/1 956/23/1
f 957/4/1 958/3/1 959/7/1 960/28/1
f 961/43/1 962/33/1 963/15/1 964/44/1
f 965/16/1 966/19/1 967/20/1 968/17/1
f 969/40/1 970/35/1 971/30/1 972/37/1
f 973/43/1 974/33/1 975/15/1 976/44/1
f 977/20/1 978/21/1 979/10/1 980/2/1
f 981/23/1 982/41/1 983/42/1 984/8/1
f 985/8/1 986/42/1 987/45/1 988/9/1
f 989/5/1 990/8/1 991/9/1 992/6/1
f 993/20/1 994/21/1 995/10/1 996/2/1
f 997/5/1 998/8/1 999/9/1 1000/6/1
f 1001/24/1 1002/25/1 1003/26/1 1004/27/1
f 1005/21/1 1006/22/1 1007/23/1 1008/10/1
f 1009/35/1 1010/1/1 1011/4/1 1012/30/1
f 1013/19/1 1014/27/1 1015/21/1 1016/20/1
f 1017/36/1 1018/24/1 1019/27/1 1020/19/1
f 1021/10/1 1022/23/1 1023/8/1 1024/5/1

