# Tiled2Unity generated file. Do not modify by hand.
# Wavefront file for 'TitleIntro_mesh_0076.obj'

# Vertices (Count = 1024)
v 0 -16 0
v -16 -16 0
v -16 0 0
v 0 0 0
v -16 -16 0
v -32 -16 0
v -32 0 0
v -16 0 0
v -32 -16 0
v -48 -16 0
v -48 0 0
v -32 0 0
v -48 -16 0
v -64 -16 0
v -64 0 0
v -48 0 0
v -64 -16 0
v -80 -16 0
v -80 0 0
v -64 0 0
v -80 -16 0
v -96 -16 0
v -96 0 0
v -80 0 0
v -96 -16 0
v -112 -16 0
v -112 0 0
v -96 0 0
v -112 -16 0
v -128 -16 0
v -128 0 0
v -112 0 0
v -128 -16 0
v -144 -16 0
v -144 0 0
v -128 0 0
v -144 -16 0
v -160 -16 0
v -160 0 0
v -144 0 0
v -160 -16 0
v -176 -16 0
v -176 0 0
v -160 0 0
v -176 -16 0
v -192 -16 0
v -192 0 0
v -176 0 0
v -192 -16 0
v -208 -16 0
v -208 0 0
v -192 0 0
v -208 -16 0
v -224 -16 0
v -224 0 0
v -208 0 0
v -224 -16 0
v -240 -16 0
v -240 0 0
v -224 0 0
v -240 -16 0
v -256 -16 0
v -256 0 0
v -240 0 0
v 0 -32 0
v -16 -32 0
v -16 -16 0
v 0 -16 0
v -16 -32 0
v -32 -32 0
v -32 -16 0
v -16 -16 0
v -32 -32 0
v -48 -32 0
v -48 -16 0
v -32 -16 0
v -48 -32 0
v -64 -32 0
v -64 -16 0
v -48 -16 0
v -64 -32 0
v -80 -32 0
v -80 -16 0
v -64 -16 0
v -80 -32 0
v -96 -32 0
v -96 -16 0
v -80 -16 0
v -96 -32 0
v -112 -32 0
v -112 -16 0
v -96 -16 0
v -112 -32 0
v -128 -32 0
v -128 -16 0
v -112 -16 0
v -128 -32 0
v -144 -32 0
v -144 -16 0
v -128 -16 0
v -144 -32 0
v -160 -32 0
v -160 -16 0
v -144 -16 0
v -160 -32 0
v -176 -32 0
v -176 -16 0
v -160 -16 0
v -176 -32 0
v -192 -32 0
v -192 -16 0
v -176 -16 0
v -192 -32 0
v -208 -32 0
v -208 -16 0
v -192 -16 0
v -208 -32 0
v -224 -32 0
v -224 -16 0
v -208 -16 0
v -224 -32 0
v -240 -32 0
v -240 -16 0
v -224 -16 0
v -240 -32 0
v -256 -32 0
v -256 -16 0
v -240 -16 0
v 0 -48 0
v -16 -48 0
v -16 -32 0
v 0 -32 0
v -16 -48 0
v -32 -48 0
v -32 -32 0
v -16 -32 0
v -32 -48 0
v -48 -48 0
v -48 -32 0
v -32 -32 0
v -48 -48 0
v -64 -48 0
v -64 -32 0
v -48 -32 0
v -64 -48 0
v -80 -48 0
v -80 -32 0
v -64 -32 0
v -80 -48 0
v -96 -48 0
v -96 -32 0
v -80 -32 0
v -96 -48 0
v -112 -48 0
v -112 -32 0
v -96 -32 0
v -112 -48 0
v -128 -48 0
v -128 -32 0
v -112 -32 0
v -128 -48 0
v -144 -48 0
v -144 -32 0
v -128 -32 0
v -144 -48 0
v -160 -48 0
v -160 -32 0
v -144 -32 0
v -160 -48 0
v -176 -48 0
v -176 -32 0
v -160 -32 0
v -176 -48 0
v -192 -48 0
v -192 -32 0
v -176 -32 0
v -192 -48 0
v -208 -48 0
v -208 -32 0
v -192 -32 0
v -208 -48 0
v -224 -48 0
v -224 -32 0
v -208 -32 0
v -224 -48 0
v -240 -48 0
v -240 -32 0
v -224 -32 0
v -240 -48 0
v -256 -48 0
v -256 -32 0
v -240 -32 0
v 0 -64 0
v -16 -64 0
v -16 -48 0
v 0 -48 0
v -16 -64 0
v -32 -64 0
v -32 -48 0
v -16 -48 0
v -32 -64 0
v -48 -64 0
v -48 -48 0
v -32 -48 0
v -48 -64 0
v -64 -64 0
v -64 -48 0
v -48 -48 0
v -64 -64 0
v -80 -64 0
v -80 -48 0
v -64 -48 0
v -80 -64 0
v -96 -64 0
v -96 -48 0
v -80 -48 0
v -96 -64 0
v -112 -64 0
v -112 -48 0
v -96 -48 0
v -112 -64 0
v -128 -64 0
v -128 -48 0
v -112 -48 0
v -128 -64 0
v -144 -64 0
v -144 -48 0
v -128 -48 0
v -144 -64 0
v -160 -64 0
v -160 -48 0
v -144 -48 0
v -160 -64 0
v -176 -64 0
v -176 -48 0
v -160 -48 0
v -176 -64 0
v -192 -64 0
v -192 -48 0
v -176 -48 0
v -192 -64 0
v -208 -64 0
v -208 -48 0
v -192 -48 0
v -208 -64 0
v -224 -64 0
v -224 -48 0
v -208 -48 0
v -224 -64 0
v -240 -64 0
v -240 -48 0
v -224 -48 0
v -240 -64 0
v -256 -64 0
v -256 -48 0
v -240 -48 0
v 0 -80 0
v -16 -80 0
v -16 -64 0
v 0 -64 0
v -16 -80 0
v -32 -80 0
v -32 -64 0
v -16 -64 0
v -32 -80 0
v -48 -80 0
v -48 -64 0
v -32 -64 0
v -48 -80 0
v -64 -80 0
v -64 -64 0
v -48 -64 0
v -64 -80 0
v -80 -80 0
v -80 -64 0
v -64 -64 0
v -80 -80 0
v -96 -80 0
v -96 -64 0
v -80 -64 0
v -96 -80 0
v -112 -80 0
v -112 -64 0
v -96 -64 0
v -112 -80 0
v -128 -80 0
v -128 -64 0
v -112 -64 0
v -128 -80 0
v -144 -80 0
v -144 -64 0
v -128 -64 0
v -144 -80 0
v -160 -80 0
v -160 -64 0
v -144 -64 0
v -160 -80 0
v -176 -80 0
v -176 -64 0
v -160 -64 0
v -176 -80 0
v -192 -80 0
v -192 -64 0
v -176 -64 0
v -192 -80 0
v -208 -80 0
v -208 -64 0
v -192 -64 0
v -208 -80 0
v -224 -80 0
v -224 -64 0
v -208 -64 0
v -224 -80 0
v -240 -80 0
v -240 -64 0
v -224 -64 0
v -240 -80 0
v -256 -80 0
v -256 -64 0
v -240 -64 0
v 0 -96 0
v -16 -96 0
v -16 -80 0
v 0 -80 0
v -16 -96 0
v -32 -96 0
v -32 -80 0
v -16 -80 0
v -32 -96 0
v -48 -96 0
v -48 -80 0
v -32 -80 0
v -48 -96 0
v -64 -96 0
v -64 -80 0
v -48 -80 0
v -64 -96 0
v -80 -96 0
v -80 -80 0
v -64 -80 0
v -80 -96 0
v -96 -96 0
v -96 -80 0
v -80 -80 0
v -96 -96 0
v -112 -96 0
v -112 -80 0
v -96 -80 0
v -112 -96 0
v -128 -96 0
v -128 -80 0
v -112 -80 0
v -128 -96 0
v -144 -96 0
v -144 -80 0
v -128 -80 0
v -144 -96 0
v -160 -96 0
v -160 -80 0
v -144 -80 0
v -160 -96 0
v -176 -96 0
v -176 -80 0
v -160 -80 0
v -176 -96 0
v -192 -96 0
v -192 -80 0
v -176 -80 0
v -192 -96 0
v -208 -96 0
v -208 -80 0
v -192 -80 0
v -208 -96 0
v -224 -96 0
v -224 -80 0
v -208 -80 0
v -224 -96 0
v -240 -96 0
v -240 -80 0
v -224 -80 0
v -240 -96 0
v -256 -96 0
v -256 -80 0
v -240 -80 0
v 0 -112 0
v -16 -112 0
v -16 -96 0
v 0 -96 0
v -16 -112 0
v -32 -112 0
v -32 -96 0
v -16 -96 0
v -32 -112 0
v -48 -112 0
v -48 -96 0
v -32 -96 0
v -48 -112 0
v -64 -112 0
v -64 -96 0
v -48 -96 0
v -64 -112 0
v -80 -112 0
v -80 -96 0
v -64 -96 0
v -80 -112 0
v -96 -112 0
v -96 -96 0
v -80 -96 0
v -96 -112 0
v -112 -112 0
v -112 -96 0
v -96 -96 0
v -112 -112 0
v -128 -112 0
v -128 -96 0
v -112 -96 0
v -128 -112 0
v -144 -112 0
v -144 -96 0
v -128 -96 0
v -144 -112 0
v -160 -112 0
v -160 -96 0
v -144 -96 0
v -160 -112 0
v -176 -112 0
v -176 -96 0
v -160 -96 0
v -176 -112 0
v -192 -112 0
v -192 -96 0
v -176 -96 0
v -192 -112 0
v -208 -112 0
v -208 -96 0
v -192 -96 0
v -208 -112 0
v -224 -112 0
v -224 -96 0
v -208 -96 0
v -224 -112 0
v -240 -112 0
v -240 -96 0
v -224 -96 0
v -240 -112 0
v -256 -112 0
v -256 -96 0
v -240 -96 0
v 0 -128 0
v -16 -128 0
v -16 -112 0
v 0 -112 0
v -16 -128 0
v -32 -128 0
v -32 -112 0
v -16 -112 0
v -32 -128 0
v -48 -128 0
v -48 -112 0
v -32 -112 0
v -48 -128 0
v -64 -128 0
v -64 -112 0
v -48 -112 0
v -64 -128 0
v -80 -128 0
v -80 -112 0
v -64 -112 0
v -80 -128 0
v -96 -128 0
v -96 -112 0
v -80 -112 0
v -96 -128 0
v -112 -128 0
v -112 -112 0
v -96 -112 0
v -112 -128 0
v -128 -128 0
v -128 -112 0
v -112 -112 0
v -128 -128 0
v -144 -128 0
v -144 -112 0
v -128 -112 0
v -144 -128 0
v -160 -128 0
v -160 -112 0
v -144 -112 0
v -160 -128 0
v -176 -128 0
v -176 -112 0
v -160 -112 0
v -176 -128 0
v -192 -128 0
v -192 -112 0
v -176 -112 0
v -192 -128 0
v -208 -128 0
v -208 -112 0
v -192 -112 0
v -208 -128 0
v -224 -128 0
v -224 -112 0
v -208 -112 0
v -224 -128 0
v -240 -128 0
v -240 -112 0
v -224 -112 0
v -240 -128 0
v -256 -128 0
v -256 -112 0
v -240 -112 0
v 0 -144 0
v -16 -144 0
v -16 -128 0
v 0 -128 0
v -16 -144 0
v -32 -144 0
v -32 -128 0
v -16 -128 0
v -32 -144 0
v -48 -144 0
v -48 -128 0
v -32 -128 0
v -48 -144 0
v -64 -144 0
v -64 -128 0
v -48 -128 0
v -64 -144 0
v -80 -144 0
v -80 -128 0
v -64 -128 0
v -80 -144 0
v -96 -144 0
v -96 -128 0
v -80 -128 0
v -96 -144 0
v -112 -144 0
v -112 -128 0
v -96 -128 0
v -112 -144 0
v -128 -144 0
v -128 -128 0
v -112 -128 0
v -128 -144 0
v -144 -144 0
v -144 -128 0
v -128 -128 0
v -144 -144 0
v -160 -144 0
v -160 -128 0
v -144 -128 0
v -160 -144 0
v -176 -144 0
v -176 -128 0
v -160 -128 0
v -176 -144 0
v -192 -144 0
v -192 -128 0
v -176 -128 0
v -192 -144 0
v -208 -144 0
v -208 -128 0
v -192 -128 0
v -208 -144 0
v -224 -144 0
v -224 -128 0
v -208 -128 0
v -224 -144 0
v -240 -144 0
v -240 -128 0
v -224 -128 0
v -240 -144 0
v -256 -144 0
v -256 -128 0
v -240 -128 0
v 0 -160 0
v -16 -160 0
v -16 -144 0
v 0 -144 0
v -16 -160 0
v -32 -160 0
v -32 -144 0
v -16 -144 0
v -32 -160 0
v -48 -160 0
v -48 -144 0
v -32 -144 0
v -48 -160 0
v -64 -160 0
v -64 -144 0
v -48 -144 0
v -64 -160 0
v -80 -160 0
v -80 -144 0
v -64 -144 0
v -80 -160 0
v -96 -160 0
v -96 -144 0
v -80 -144 0
v -96 -160 0
v -112 -160 0
v -112 -144 0
v -96 -144 0
v -112 -160 0
v -128 -160 0
v -128 -144 0
v -112 -144 0
v -128 -160 0
v -144 -160 0
v -144 -144 0
v -128 -144 0
v -144 -160 0
v -160 -160 0
v -160 -144 0
v -144 -144 0
v -160 -160 0
v -176 -160 0
v -176 -144 0
v -160 -144 0
v -176 -160 0
v -192 -160 0
v -192 -144 0
v -176 -144 0
v -192 -160 0
v -208 -160 0
v -208 -144 0
v -192 -144 0
v -208 -160 0
v -224 -160 0
v -224 -144 0
v -208 -144 0
v -224 -160 0
v -240 -160 0
v -240 -144 0
v -224 -144 0
v -240 -160 0
v -256 -160 0
v -256 -144 0
v -240 -144 0
v 0 -176 0
v -16 -176 0
v -16 -160 0
v 0 -160 0
v -16 -176 0
v -32 -176 0
v -32 -160 0
v -16 -160 0
v -32 -176 0
v -48 -176 0
v -48 -160 0
v -32 -160 0
v -48 -176 0
v -64 -176 0
v -64 -160 0
v -48 -160 0
v -64 -176 0
v -80 -176 0
v -80 -160 0
v -64 -160 0
v -80 -176 0
v -96 -176 0
v -96 -160 0
v -80 -160 0
v -96 -176 0
v -112 -176 0
v -112 -160 0
v -96 -160 0
v -112 -176 0
v -128 -176 0
v -128 -160 0
v -112 -160 0
v -128 -176 0
v -144 -176 0
v -144 -160 0
v -128 -160 0
v -144 -176 0
v -160 -176 0
v -160 -160 0
v -144 -160 0
v -160 -176 0
v -176 -176 0
v -176 -160 0
v -160 -160 0
v -176 -176 0
v -192 -176 0
v -192 -160 0
v -176 -160 0
v -192 -176 0
v -208 -176 0
v -208 -160 0
v -192 -160 0
v -208 -176 0
v -224 -176 0
v -224 -160 0
v -208 -160 0
v -224 -176 0
v -240 -176 0
v -240 -160 0
v -224 -160 0
v -240 -176 0
v -256 -176 0
v -256 -160 0
v -240 -160 0
v 0 -192 0
v -16 -192 0
v -16 -176 0
v 0 -176 0
v -16 -192 0
v -32 -192 0
v -32 -176 0
v -16 -176 0
v -32 -192 0
v -48 -192 0
v -48 -176 0
v -32 -176 0
v -48 -192 0
v -64 -192 0
v -64 -176 0
v -48 -176 0
v -64 -192 0
v -80 -192 0
v -80 -176 0
v -64 -176 0
v -80 -192 0
v -96 -192 0
v -96 -176 0
v -80 -176 0
v -96 -192 0
v -112 -192 0
v -112 -176 0
v -96 -176 0
v -112 -192 0
v -128 -192 0
v -128 -176 0
v -112 -176 0
v -128 -192 0
v -144 -192 0
v -144 -176 0
v -128 -176 0
v -144 -192 0
v -160 -192 0
v -160 -176 0
v -144 -176 0
v -160 -192 0
v -176 -192 0
v -176 -176 0
v -160 -176 0
v -176 -192 0
v -192 -192 0
v -192 -176 0
v -176 -176 0
v -192 -192 0
v -208 -192 0
v -208 -176 0
v -192 -176 0
v -208 -192 0
v -224 -192 0
v -224 -176 0
v -208 -176 0
v -224 -192 0
v -240 -192 0
v -240 -176 0
v -224 -176 0
v -240 -192 0
v -256 -192 0
v -256 -176 0
v -240 -176 0
v 0 -208 0
v -16 -208 0
v -16 -192 0
v 0 -192 0
v -16 -208 0
v -32 -208 0
v -32 -192 0
v -16 -192 0
v -32 -208 0
v -48 -208 0
v -48 -192 0
v -32 -192 0
v -48 -208 0
v -64 -208 0
v -64 -192 0
v -48 -192 0
v -64 -208 0
v -80 -208 0
v -80 -192 0
v -64 -192 0
v -80 -208 0
v -96 -208 0
v -96 -192 0
v -80 -192 0
v -96 -208 0
v -112 -208 0
v -112 -192 0
v -96 -192 0
v -112 -208 0
v -128 -208 0
v -128 -192 0
v -112 -192 0
v -128 -208 0
v -144 -208 0
v -144 -192 0
v -128 -192 0
v -144 -208 0
v -160 -208 0
v -160 -192 0
v -144 -192 0
v -160 -208 0
v -176 -208 0
v -176 -192 0
v -160 -192 0
v -176 -208 0
v -192 -208 0
v -192 -192 0
v -176 -192 0
v -192 -208 0
v -208 -208 0
v -208 -192 0
v -192 -192 0
v -208 -208 0
v -224 -208 0
v -224 -192 0
v -208 -192 0
v -224 -208 0
v -240 -208 0
v -240 -192 0
v -224 -192 0
v -240 -208 0
v -256 -208 0
v -256 -192 0
v -240 -192 0
v 0 -224 0
v -16 -224 0
v -16 -208 0
v 0 -208 0
v -16 -224 0
v -32 -224 0
v -32 -208 0
v -16 -208 0
v -32 -224 0
v -48 -224 0
v -48 -208 0
v -32 -208 0
v -48 -224 0
v -64 -224 0
v -64 -208 0
v -48 -208 0
v -64 -224 0
v -80 -224 0
v -80 -208 0
v -64 -208 0
v -80 -224 0
v -96 -224 0
v -96 -208 0
v -80 -208 0
v -96 -224 0
v -112 -224 0
v -112 -208 0
v -96 -208 0
v -112 -224 0
v -128 -224 0
v -128 -208 0
v -112 -208 0
v -128 -224 0
v -144 -224 0
v -144 -208 0
v -128 -208 0
v -144 -224 0
v -160 -224 0
v -160 -208 0
v -144 -208 0
v -160 -224 0
v -176 -224 0
v -176 -208 0
v -160 -208 0
v -176 -224 0
v -192 -224 0
v -192 -208 0
v -176 -208 0
v -192 -224 0
v -208 -224 0
v -208 -208 0
v -192 -208 0
v -208 -224 0
v -224 -224 0
v -224 -208 0
v -208 -208 0
v -224 -224 0
v -240 -224 0
v -240 -208 0
v -224 -208 0
v -240 -224 0
v -256 -224 0
v -256 -208 0
v -240 -208 0
v 0 -240 0
v -16 -240 0
v -16 -224 0
v 0 -224 0
v -16 -240 0
v -32 -240 0
v -32 -224 0
v -16 -224 0
v -32 -240 0
v -48 -240 0
v -48 -224 0
v -32 -224 0
v -48 -240 0
v -64 -240 0
v -64 -224 0
v -48 -224 0
v -64 -240 0
v -80 -240 0
v -80 -224 0
v -64 -224 0
v -80 -240 0
v -96 -240 0
v -96 -224 0
v -80 -224 0
v -96 -240 0
v -112 -240 0
v -112 -224 0
v -96 -224 0
v -112 -240 0
v -128 -240 0
v -128 -224 0
v -112 -224 0
v -128 -240 0
v -144 -240 0
v -144 -224 0
v -128 -224 0
v -144 -240 0
v -160 -240 0
v -160 -224 0
v -144 -224 0
v -160 -240 0
v -176 -240 0
v -176 -224 0
v -160 -224 0
v -176 -240 0
v -192 -240 0
v -192 -224 0
v -176 -224 0
v -192 -240 0
v -208 -240 0
v -208 -224 0
v -192 -224 0
v -208 -240 0
v -224 -240 0
v -224 -224 0
v -208 -224 0
v -224 -240 0
v -240 -240 0
v -240 -224 0
v -224 -224 0
v -240 -240 0
v -256 -240 0
v -256 -224 0
v -240 -224 0
v 0 -256 0
v -16 -256 0
v -16 -240 0
v 0 -240 0
v -16 -256 0
v -32 -256 0
v -32 -240 0
v -16 -240 0
v -32 -256 0
v -48 -256 0
v -48 -240 0
v -32 -240 0
v -48 -256 0
v -64 -256 0
v -64 -240 0
v -48 -240 0
v -64 -256 0
v -80 -256 0
v -80 -240 0
v -64 -240 0
v -80 -256 0
v -96 -256 0
v -96 -240 0
v -80 -240 0
v -96 -256 0
v -112 -256 0
v -112 -240 0
v -96 -240 0
v -112 -256 0
v -128 -256 0
v -128 -240 0
v -112 -240 0
v -128 -256 0
v -144 -256 0
v -144 -240 0
v -128 -240 0
v -144 -256 0
v -160 -256 0
v -160 -240 0
v -144 -240 0
v -160 -256 0
v -176 -256 0
v -176 -240 0
v -160 -240 0
v -176 -256 0
v -192 -256 0
v -192 -240 0
v -176 -240 0
v -192 -256 0
v -208 -256 0
v -208 -240 0
v -192 -240 0
v -208 -256 0
v -224 -256 0
v -224 -240 0
v -208 -240 0
v -224 -256 0
v -240 -256 0
v -240 -240 0
v -224 -240 0
v -240 -256 0
v -256 -256 0
v -256 -240 0
v -240 -240 0

# Texture cooridinates (Count = 49)
vt 0.02734375 0.421875
vt 0.03125 0.421875
vt 0.03125 0.4375
vt 0.02734375 0.4375
vt 0.015625 0.40625
vt 0.01953125 0.40625
vt 0.01953125 0.421875
vt 0.015625 0.421875
vt 0.02734375 0.453125
vt 0.03125 0.453125
vt 0.03125 0.46875
vt 0.02734375 0.46875
vt 0.01171875 0.40625
vt 0.01171875 0.421875
vt 0.0078125 0.421875
vt 0.01171875 0.4375
vt 0.0078125 0.4375
vt 0.0078125 0.453125
vt 0.01171875 0.453125
vt 0.01171875 0.46875
vt 0.0078125 0.46875
vt 0.0234375 0.40625
vt 0.0234375 0.421875
vt 0.015625 0.4375
vt 0.0234375 0.4375
vt 0.0234375 0.453125
vt 0.01171875 0.484375
vt 0.0078125 0.484375
vt 0.015625 0.453125
vt 0.015625 0.46875
vt 0.01953125 0.46875
vt 0.0234375 0.46875
vt 0.0234375 0.484375
vt 0.01953125 0.484375
vt 0.01171875 0.390625
vt 0.015625 0.390625
vt 0.01953125 0.4375
vt 0.01953125 0.390625
vt 0.0234375 0.390625
vt 0.02734375 0.484375
vt 0.0078125 0.390625
vt 0.0078125 0.40625
vt 0.01953125 0.453125
vt 0.015625 0.484375
vt 0.02734375 0.40625
vt 0.02734375 0.390625
vt 0.03125 0.40625
vt 0.03125 0.390625
vt 0.03125 0.484375

# Normal
vn 0 0 -1

# Mesh description
g TitleIntro_mesh_0076

# Faces
f 1/1/1 2/2/1 3/3/1 4/4/1
f 5/5/1 6/6/1 7/7/1 8/8/1
f 9/9/1 10/10/1 11/11/1 12/12/1
f 13/1/1 14/2/1 15/3/1 16/4/1
f 17/13/1 18/5/1 19/8/1 20/14/1
f 21/15/1 22/14/1 23/16/1 24/17/1
f 25/18/1 26/19/1 27/20/1 28/21/1
f 29/9/1 30/10/1 31/11/1 32/12/1
f 33/6/1 34/22/1 35/23/1 36/7/1
f 37/14/1 38/8/1 39/24/1 40/16/1
f 41/14/1 42/8/1 43/24/1 44/16/1
f 45/25/1 46/4/1 47/9/1 48/26/1
f 49/21/1 50/20/1 51/27/1 52/28/1
f 53/17/1 54/16/1 55/19/1 56/18/1
f 57/19/1 58/29/1 59/30/1 60/20/1
f 61/4/1 62/3/1 63/10/1 64/9/1
f 65/18/1 66/19/1 67/20/1 68/21/1
f 69/31/1 70/32/1 71/33/1 72/34/1
f 73/25/1 74/4/1 75/9/1 76/26/1
f 77/35/1 78/36/1 79/5/1 80/13/1
f 81/8/1 82/7/1 83/37/1 84/24/1
f 85/38/1 86/39/1 87/22/1 88/6/1
f 89/15/1 90/14/1 91/16/1 92/17/1
f 93/32/1 94/12/1 95/40/1 96/33/1
f 97/41/1 98/35/1 99/13/1 100/42/1
f 101/31/1 102/32/1 103/33/1 104/34/1
f 105/35/1 106/36/1 107/5/1 108/13/1
f 109/43/1 110/26/1 111/32/1 112/31/1
f 113/20/1 114/30/1 115/44/1 116/27/1
f 117/36/1 118/38/1 119/6/1 120/5/1
f 121/20/1 122/30/1 123/44/1 124/27/1
f 125/26/1 126/9/1 127/12/1 128/32/1
f 129/37/1 130/25/1 131/26/1 132/43/1
f 133/6/1 134/22/1 135/23/1 136/7/1
f 137/22/1 138/45/1 139/1/1 140/23/1
f 141/36/1 142/38/1 143/6/1 144/5/1
f 145/39/1 146/46/1 147/45/1 148/22/1
f 149/15/1 150/14/1 151/16/1 152/17/1
f 153/8/1 154/7/1 155/37/1 156/24/1
f 157/15/1 158/14/1 159/16/1 160/17/1
f 161/9/1 162/10/1 163/11/1 164/12/1
f 165/42/1 166/13/1 167/14/1 168/15/1
f 169/18/1 170/19/1 171/20/1 172/21/1
f 173/6/1 174/22/1 175/23/1 176/7/1
f 177/45/1 178/47/1 179/2/1 180/1/1
f 181/5/1 182/6/1 183/7/1 184/8/1
f 185/32/1 186/12/1 187/40/1 188/33/1
f 189/1/1 190/2/1 191/3/1 192/4/1
f 193/31/1 194/32/1 195/33/1 196/34/1
f 197/43/1 198/26/1 199/32/1 200/31/1
f 201/6/1 202/22/1 203/23/1 204/7/1
f 205/41/1 206/35/1 207/13/1 208/42/1
f 209/29/1 210/43/1 211/31/1 212/30/1
f 213/41/1 214/35/1 215/13/1 216/42/1
f 217/20/1 218/30/1 219/44/1 220/27/1
f 221/8/1 222/7/1 223/37/1 224/24/1
f 225/38/1 226/39/1 227/22/1 228/6/1
f 229/36/1 230/38/1 231/6/1 232/5/1
f 233/20/1 234/30/1 235/44/1 236/27/1
f 237/18/1 238/19/1 239/20/1 240/21/1
f 241/36/1 242/38/1 243/6/1 244/5/1
f 245/17/1 246/16/1 247/19/1 248/18/1
f 249/24/1 250/37/1 251/43/1 252/29/1
f 253/21/1 254/20/1 255/27/1 256/28/1
f 257/16/1 258/24/1 259/29/1 260/19/1
f 261/21/1 262/20/1 263/27/1 264/28/1
f 265/23/1 266/1/1 267/4/1 268/25/1
f 269/19/1 270/29/1 271/30/1 272/20/1
f 273/29/1 274/43/1 275/31/1 276/30/1
f 277/46/1 278/48/1 279/47/1 280/45/1
f 281/38/1 282/39/1 283/22/1 284/6/1
f 285/17/1 286/16/1 287/19/1 288/18/1
f 289/21/1 290/20/1 291/27/1 292/28/1
f 293/23/1 294/1/1 295/4/1 296/25/1
f 297/26/1 298/9/1 299/12/1 300/32/1
f 301/13/1 302/5/1 303/8/1 304/14/1
f 305/25/1 306/4/1 307/9/1 308/26/1
f 309/19/1 310/29/1 311/30/1 312/20/1
f 313/23/1 314/1/1 315/4/1 316/25/1
f 317/4/1 318/3/1 319/10/1 320/9/1
f 321/35/1 322/36/1 323/5/1 324/13/1
f 325/1/1 326/2/1 327/3/1 328/4/1
f 329/29/1 330/43/1 331/31/1 332/30/1
f 333/24/1 334/37/1 335/43/1 336/29/1
f 337/25/1 338/4/1 339/9/1 340/26/1
f 341/38/1 342/39/1 343/22/1 344/6/1
f 345/14/1 346/8/1 347/24/1 348/16/1
f 349/4/1 350/3/1 351/10/1 352/9/1
f 353/15/1 354/14/1 355/16/1 356/17/1
f 357/29/1 358/43/1 359/31/1 360/30/1
f 361/30/1 362/31/1 363/34/1 364/44/1
f 365/46/1 366/48/1 367/47/1 368/45/1
f 369/22/1 370/45/1 371/1/1 372/23/1
f 373/25/1 374/4/1 375/9/1 376/26/1
f 377/37/1 378/25/1 379/26/1 380/43/1
f 381/46/1 382/48/1 383/47/1 384/45/1
f 385/9/1 386/10/1 387/11/1 388/12/1
f 389/46/1 390/48/1 391/47/1 392/45/1
f 393/16/1 394/24/1 395/29/1 396/19/1
f 397/24/1 398/37/1 399/43/1 400/29/1
f 401/21/1 402/20/1 403/27/1 404/28/1
f 405/24/1 406/37/1 407/43/1 408/29/1
f 409/35/1 410/36/1 411/5/1 412/13/1
f 413/12/1 414/11/1 415/49/1 416/40/1
f 417/43/1 418/26/1 419/32/1 420/31/1
f 421/15/1 422/14/1 423/16/1 424/17/1
f 425/15/1 426/14/1 427/16/1 428/17/1
f 429/31/1 430/32/1 431/33/1 432/34/1
f 433/16/1 434/24/1 435/29/1 436/19/1
f 437/16/1 438/24/1 439/29/1 440/19/1
f 441/26/1 442/9/1 443/12/1 444/32/1
f 445/1/1 446/2/1 447/3/1 448/4/1
f 449/12/1 450/11/1 451/49/1 452/40/1
f 453/29/1 454/43/1 455/31/1 456/30/1
f 457/20/1 458/30/1 459/44/1 460/27/1
f 461/14/1 462/8/1 463/24/1 464/16/1
f 465/18/1 466/19/1 467/20/1 468/21/1
f 469/18/1 470/19/1 471/20/1 472/21/1
f 473/32/1 474/12/1 475/40/1 476/33/1
f 477/43/1 478/26/1 479/32/1 480/31/1
f 481/46/1 482/48/1 483/47/1 484/45/1
f 485/8/1 486/7/1 487/37/1 488/24/1
f 489/35/1 490/36/1 491/5/1 492/13/1
f 493/18/1 494/19/1 495/20/1 496/21/1
f 497/16/1 498/24/1 499/29/1 500/19/1
f 501/8/1 502/7/1 503/37/1 504/24/1
f 505/12/1 506/11/1 507/49/1 508/40/1
f 509/17/1 510/16/1 511/19/1 512/18/1
f 513/36/1 514/38/1 515/6/1 516/5/1
f 517/17/1 518/16/1 519/19/1 520/18/1
f 521/30/1 522/31/1 523/34/1 524/44/1
f 525/46/1 526/48/1 527/47/1 528/45/1
f 529/38/1 530/39/1 531/22/1 532/6/1
f 533/22/1 534/45/1 535/1/1 536/23/1
f 537/38/1 538/39/1 539/22/1 540/6/1
f 541/23/1 542/1/1 543/4/1 544/25/1
f 545/22/1 546/45/1 547/1/1 548/23/1
f 549/23/1 550/1/1 551/4/1 552/25/1
f 553/25/1 554/4/1 555/9/1 556/26/1
f 557/18/1 558/19/1 559/20/1 560/21/1
f 561/15/1 562/14/1 563/16/1 564/17/1
f 565/43/1 566/26/1 567/32/1 568/31/1
f 569/37/1 570/25/1 571/26/1 572/43/1
f 573/23/1 574/1/1 575/4/1 576/25/1
f 577/14/1 578/8/1 579/24/1 580/16/1
f 581/39/1 582/46/1 583/45/1 584/22/1
f 585/32/1 586/12/1 587/40/1 588/33/1
f 589/26/1 590/9/1 591/12/1 592/32/1
f 593/41/1 594/35/1 595/13/1 596/42/1
f 597/16/1 598/24/1 599/29/1 600/19/1
f 601/17/1 602/16/1 603/19/1 604/18/1
f 605/19/1 606/29/1 607/30/1 608/20/1
f 609/46/1 610/48/1 611/47/1 612/45/1
f 613/9/1 614/10/1 615/11/1 616/12/1
f 617/36/1 618/38/1 619/6/1 620/5/1
f 621/23/1 622/1/1 623/4/1 624/25/1
f 625/14/1 626/8/1 627/24/1 628/16/1
f 629/15/1 630/14/1 631/16/1 632/17/1
f 633/39/1 634/46/1 635/45/1 636/22/1
f 637/19/1 638/29/1 639/30/1 640/20/1
f 641/5/1 642/6/1 643/7/1 644/8/1
f 645/43/1 646/26/1 647/32/1 648/31/1
f 649/35/1 650/36/1 651/5/1 652/13/1
f 653/39/1 654/46/1 655/45/1 656/22/1
f 657/29/1 658/43/1 659/31/1 660/30/1
f 661/14/1 662/8/1 663/24/1 664/16/1
f 665/14/1 666/8/1 667/24/1 668/16/1
f 669/20/1 670/30/1 671/44/1 672/27/1
f 673/46/1 674/48/1 675/47/1 676/45/1
f 677/5/1 678/6/1 679/7/1 680/8/1
f 681/9/1 682/10/1 683/11/1 684/12/1
f 685/13/1 686/5/1 687/8/1 688/14/1
f 689/30/1 690/31/1 691/34/1 692/44/1
f 693/5/1 694/6/1 695/7/1 696/8/1
f 697/36/1 698/38/1 699/6/1 700/5/1
f 701/36/1 702/38/1 703/6/1 704/5/1
f 705/20/1 706/30/1 707/44/1 708/27/1
f 709/45/1 710/47/1 711/2/1 712/1/1
f 713/36/1 714/38/1 715/6/1 716/5/1
f 717/5/1 718/6/1 719/7/1 720/8/1
f 721/14/1 722/8/1 723/24/1 724/16/1
f 725/7/1 726/23/1 727/25/1 728/37/1
f 729/46/1 730/48/1 731/47/1 732/45/1
f 733/31/1 734/32/1 735/33/1 736/34/1
f 737/31/1 738/32/1 739/33/1 740/34/1
f 741/5/1 742/6/1 743/7/1 744/8/1
f 745/19/1 746/29/1 747/30/1 748/20/1
f 749/12/1 750/11/1 751/49/1 752/40/1
f 753/42/1 754/13/1 755/14/1 756/15/1
f 757/25/1 758/4/1 759/9/1 760/26/1
f 761/39/1 762/46/1 763/45/1 764/22/1
f 765/14/1 766/8/1 767/24/1 768/16/1
f 769/23/1 770/1/1 771/4/1 772/25/1
f 773/21/1 774/20/1 775/27/1 776/28/1
f 777/14/1 778/8/1 779/24/1 780/16/1
f 781/17/1 782/16/1 783/19/1 784/18/1
f 785/43/1 786/26/1 787/32/1 788/31/1
f 789/17/1 790/16/1 791/19/1 792/18/1
f 793/5/1 794/6/1 795/7/1 796/8/1
f 797/30/1 798/31/1 799/34/1 800/44/1
f 801/42/1 802/13/1 803/14/1 804/15/1
f 805/8/1 806/7/1 807/37/1 808/24/1
f 809/24/1 810/37/1 811/43/1 812/29/1
f 813/38/1 814/39/1 815/22/1 816/6/1
f 817/39/1 818/46/1 819/45/1 820/22/1
f 821/19/1 822/29/1 823/30/1 824/20/1
f 825/31/1 826/32/1 827/33/1 828/34/1
f 829/7/1 830/23/1 831/25/1 832/37/1
f 833/22/1 834/45/1 835/1/1 836/23/1
f 837/41/1 838/35/1 839/13/1 840/42/1
f 841/37/1 842/25/1 843/26/1 844/43/1
f 845/41/1 846/35/1 847/13/1 848/42/1
f 849/7/1 850/23/1 851/25/1 852/37/1
f 853/46/1 854/48/1 855/47/1 856/45/1
f 857/16/1 858/24/1 859/29/1 860/19/1
f 861/12/1 862/11/1 863/49/1 864/40/1
f 865/45/1 866/47/1 867/2/1 868/1/1
f 869/30/1 870/31/1 871/34/1 872/44/1
f 873/45/1 874/47/1 875/2/1 876/1/1
f 877/45/1 878/47/1 879/2/1 880/1/1
f 881/38/1 882/39/1 883/22/1 884/6/1
f 885/37/1 886/25/1 887/26/1 888/43/1
f 889/18/1 890/19/1 891/20/1 892/21/1
f 893/45/1 894/47/1 895/2/1 896/1/1
f 897/13/1 898/5/1 899/8/1 900/14/1
f 901/16/1 902/24/1 903/29/1 904/19/1
f 905/37/1 906/25/1 907/26/1 908/43/1
f 909/32/1 910/12/1 911/40/1 912/33/1
f 913/16/1 914/24/1 915/29/1 916/19/1
f 917/8/1 918/7/1 919/37/1 920/24/1
f 921/36/1 922/38/1 923/6/1 924/5/1
f 925/45/1 926/47/1 927/2/1 928/1/1
f 929/17/1 930/16/1 931/19/1 932/18/1
f 933/17/1 934/16/1 935/19/1 936/18/1
f 937/20/1 938/30/1 939/44/1 940/27/1
f 941/23/1 942/1/1 943/4/1 944/25/1
f 945/35/1 946/36/1 947/5/1 948/13/1
f 949/20/1 950/30/1 951/44/1 952/27/1
f 953/8/1 954/7/1 955/37/1 956/24/1
f 957/6/1 958/22/1 959/23/1 960/7/1
f 961/46/1 962/48/1 963/47/1 964/45/1
f 965/22/1 966/45/1 967/1/1 968/23/1
f 969/8/1 970/7/1 971/37/1 972/24/1
f 973/32/1 974/12/1 975/40/1 976/33/1
f 977/12/1 978/11/1 979/49/1 980/40/1
f 981/42/1 982/13/1 983/14/1 984/15/1
f 985/12/1 986/11/1 987/49/1 988/40/1
f 989/7/1 990/23/1 991/25/1 992/37/1
f 993/8/1 994/7/1 995/37/1 996/24/1
f 997/4/1 998/3/1 999/10/1 1000/9/1
f 1001/25/1 1002/4/1 1003/9/1 1004/26/1
f 1005/32/1 1006/12/1 1007/40/1 1008/33/1
f 1009/1/1 1010/2/1 1011/3/1 1012/4/1
f 1013/25/1 1014/4/1 1015/9/1 1016/26/1
f 1017/14/1 1018/8/1 1019/24/1 1020/16/1
f 1021/23/1 1022/1/1 1023/4/1 1024/25/1

