# Tiled2Unity generated file. Do not modify by hand.
# Wavefront file for 'TitleIntro_mesh_0017.obj'

# Vertices (Count = 1024)
v 0 -16 0
v -16 -16 0
v -16 0 0
v 0 0 0
v -16 -16 0
v -32 -16 0
v -32 0 0
v -16 0 0
v -32 -16 0
v -48 -16 0
v -48 0 0
v -32 0 0
v -48 -16 0
v -64 -16 0
v -64 0 0
v -48 0 0
v -64 -16 0
v -80 -16 0
v -80 0 0
v -64 0 0
v -80 -16 0
v -96 -16 0
v -96 0 0
v -80 0 0
v -96 -16 0
v -112 -16 0
v -112 0 0
v -96 0 0
v -112 -16 0
v -128 -16 0
v -128 0 0
v -112 0 0
v -128 -16 0
v -144 -16 0
v -144 0 0
v -128 0 0
v -144 -16 0
v -160 -16 0
v -160 0 0
v -144 0 0
v -160 -16 0
v -176 -16 0
v -176 0 0
v -160 0 0
v -176 -16 0
v -192 -16 0
v -192 0 0
v -176 0 0
v -192 -16 0
v -208 -16 0
v -208 0 0
v -192 0 0
v -208 -16 0
v -224 -16 0
v -224 0 0
v -208 0 0
v -224 -16 0
v -240 -16 0
v -240 0 0
v -224 0 0
v -240 -16 0
v -256 -16 0
v -256 0 0
v -240 0 0
v 0 -32 0
v -16 -32 0
v -16 -16 0
v 0 -16 0
v -16 -32 0
v -32 -32 0
v -32 -16 0
v -16 -16 0
v -32 -32 0
v -48 -32 0
v -48 -16 0
v -32 -16 0
v -48 -32 0
v -64 -32 0
v -64 -16 0
v -48 -16 0
v -64 -32 0
v -80 -32 0
v -80 -16 0
v -64 -16 0
v -80 -32 0
v -96 -32 0
v -96 -16 0
v -80 -16 0
v -96 -32 0
v -112 -32 0
v -112 -16 0
v -96 -16 0
v -112 -32 0
v -128 -32 0
v -128 -16 0
v -112 -16 0
v -128 -32 0
v -144 -32 0
v -144 -16 0
v -128 -16 0
v -144 -32 0
v -160 -32 0
v -160 -16 0
v -144 -16 0
v -160 -32 0
v -176 -32 0
v -176 -16 0
v -160 -16 0
v -176 -32 0
v -192 -32 0
v -192 -16 0
v -176 -16 0
v -192 -32 0
v -208 -32 0
v -208 -16 0
v -192 -16 0
v -208 -32 0
v -224 -32 0
v -224 -16 0
v -208 -16 0
v -224 -32 0
v -240 -32 0
v -240 -16 0
v -224 -16 0
v -240 -32 0
v -256 -32 0
v -256 -16 0
v -240 -16 0
v 0 -48 0
v -16 -48 0
v -16 -32 0
v 0 -32 0
v -16 -48 0
v -32 -48 0
v -32 -32 0
v -16 -32 0
v -32 -48 0
v -48 -48 0
v -48 -32 0
v -32 -32 0
v -48 -48 0
v -64 -48 0
v -64 -32 0
v -48 -32 0
v -64 -48 0
v -80 -48 0
v -80 -32 0
v -64 -32 0
v -80 -48 0
v -96 -48 0
v -96 -32 0
v -80 -32 0
v -96 -48 0
v -112 -48 0
v -112 -32 0
v -96 -32 0
v -112 -48 0
v -128 -48 0
v -128 -32 0
v -112 -32 0
v -128 -48 0
v -144 -48 0
v -144 -32 0
v -128 -32 0
v -144 -48 0
v -160 -48 0
v -160 -32 0
v -144 -32 0
v -160 -48 0
v -176 -48 0
v -176 -32 0
v -160 -32 0
v -176 -48 0
v -192 -48 0
v -192 -32 0
v -176 -32 0
v -192 -48 0
v -208 -48 0
v -208 -32 0
v -192 -32 0
v -208 -48 0
v -224 -48 0
v -224 -32 0
v -208 -32 0
v -224 -48 0
v -240 -48 0
v -240 -32 0
v -224 -32 0
v -240 -48 0
v -256 -48 0
v -256 -32 0
v -240 -32 0
v 0 -64 0
v -16 -64 0
v -16 -48 0
v 0 -48 0
v -16 -64 0
v -32 -64 0
v -32 -48 0
v -16 -48 0
v -32 -64 0
v -48 -64 0
v -48 -48 0
v -32 -48 0
v -48 -64 0
v -64 -64 0
v -64 -48 0
v -48 -48 0
v -64 -64 0
v -80 -64 0
v -80 -48 0
v -64 -48 0
v -80 -64 0
v -96 -64 0
v -96 -48 0
v -80 -48 0
v -96 -64 0
v -112 -64 0
v -112 -48 0
v -96 -48 0
v -112 -64 0
v -128 -64 0
v -128 -48 0
v -112 -48 0
v -128 -64 0
v -144 -64 0
v -144 -48 0
v -128 -48 0
v -144 -64 0
v -160 -64 0
v -160 -48 0
v -144 -48 0
v -160 -64 0
v -176 -64 0
v -176 -48 0
v -160 -48 0
v -176 -64 0
v -192 -64 0
v -192 -48 0
v -176 -48 0
v -192 -64 0
v -208 -64 0
v -208 -48 0
v -192 -48 0
v -208 -64 0
v -224 -64 0
v -224 -48 0
v -208 -48 0
v -224 -64 0
v -240 -64 0
v -240 -48 0
v -224 -48 0
v -240 -64 0
v -256 -64 0
v -256 -48 0
v -240 -48 0
v 0 -80 0
v -16 -80 0
v -16 -64 0
v 0 -64 0
v -16 -80 0
v -32 -80 0
v -32 -64 0
v -16 -64 0
v -32 -80 0
v -48 -80 0
v -48 -64 0
v -32 -64 0
v -48 -80 0
v -64 -80 0
v -64 -64 0
v -48 -64 0
v -64 -80 0
v -80 -80 0
v -80 -64 0
v -64 -64 0
v -80 -80 0
v -96 -80 0
v -96 -64 0
v -80 -64 0
v -96 -80 0
v -112 -80 0
v -112 -64 0
v -96 -64 0
v -112 -80 0
v -128 -80 0
v -128 -64 0
v -112 -64 0
v -128 -80 0
v -144 -80 0
v -144 -64 0
v -128 -64 0
v -144 -80 0
v -160 -80 0
v -160 -64 0
v -144 -64 0
v -160 -80 0
v -176 -80 0
v -176 -64 0
v -160 -64 0
v -176 -80 0
v -192 -80 0
v -192 -64 0
v -176 -64 0
v -192 -80 0
v -208 -80 0
v -208 -64 0
v -192 -64 0
v -208 -80 0
v -224 -80 0
v -224 -64 0
v -208 -64 0
v -224 -80 0
v -240 -80 0
v -240 -64 0
v -224 -64 0
v -240 -80 0
v -256 -80 0
v -256 -64 0
v -240 -64 0
v 0 -96 0
v -16 -96 0
v -16 -80 0
v 0 -80 0
v -16 -96 0
v -32 -96 0
v -32 -80 0
v -16 -80 0
v -32 -96 0
v -48 -96 0
v -48 -80 0
v -32 -80 0
v -48 -96 0
v -64 -96 0
v -64 -80 0
v -48 -80 0
v -64 -96 0
v -80 -96 0
v -80 -80 0
v -64 -80 0
v -80 -96 0
v -96 -96 0
v -96 -80 0
v -80 -80 0
v -96 -96 0
v -112 -96 0
v -112 -80 0
v -96 -80 0
v -112 -96 0
v -128 -96 0
v -128 -80 0
v -112 -80 0
v -128 -96 0
v -144 -96 0
v -144 -80 0
v -128 -80 0
v -144 -96 0
v -160 -96 0
v -160 -80 0
v -144 -80 0
v -160 -96 0
v -176 -96 0
v -176 -80 0
v -160 -80 0
v -176 -96 0
v -192 -96 0
v -192 -80 0
v -176 -80 0
v -192 -96 0
v -208 -96 0
v -208 -80 0
v -192 -80 0
v -208 -96 0
v -224 -96 0
v -224 -80 0
v -208 -80 0
v -224 -96 0
v -240 -96 0
v -240 -80 0
v -224 -80 0
v -240 -96 0
v -256 -96 0
v -256 -80 0
v -240 -80 0
v 0 -112 0
v -16 -112 0
v -16 -96 0
v 0 -96 0
v -16 -112 0
v -32 -112 0
v -32 -96 0
v -16 -96 0
v -32 -112 0
v -48 -112 0
v -48 -96 0
v -32 -96 0
v -48 -112 0
v -64 -112 0
v -64 -96 0
v -48 -96 0
v -64 -112 0
v -80 -112 0
v -80 -96 0
v -64 -96 0
v -80 -112 0
v -96 -112 0
v -96 -96 0
v -80 -96 0
v -96 -112 0
v -112 -112 0
v -112 -96 0
v -96 -96 0
v -112 -112 0
v -128 -112 0
v -128 -96 0
v -112 -96 0
v -128 -112 0
v -144 -112 0
v -144 -96 0
v -128 -96 0
v -144 -112 0
v -160 -112 0
v -160 -96 0
v -144 -96 0
v -160 -112 0
v -176 -112 0
v -176 -96 0
v -160 -96 0
v -176 -112 0
v -192 -112 0
v -192 -96 0
v -176 -96 0
v -192 -112 0
v -208 -112 0
v -208 -96 0
v -192 -96 0
v -208 -112 0
v -224 -112 0
v -224 -96 0
v -208 -96 0
v -224 -112 0
v -240 -112 0
v -240 -96 0
v -224 -96 0
v -240 -112 0
v -256 -112 0
v -256 -96 0
v -240 -96 0
v 0 -128 0
v -16 -128 0
v -16 -112 0
v 0 -112 0
v -16 -128 0
v -32 -128 0
v -32 -112 0
v -16 -112 0
v -32 -128 0
v -48 -128 0
v -48 -112 0
v -32 -112 0
v -48 -128 0
v -64 -128 0
v -64 -112 0
v -48 -112 0
v -64 -128 0
v -80 -128 0
v -80 -112 0
v -64 -112 0
v -80 -128 0
v -96 -128 0
v -96 -112 0
v -80 -112 0
v -96 -128 0
v -112 -128 0
v -112 -112 0
v -96 -112 0
v -112 -128 0
v -128 -128 0
v -128 -112 0
v -112 -112 0
v -128 -128 0
v -144 -128 0
v -144 -112 0
v -128 -112 0
v -144 -128 0
v -160 -128 0
v -160 -112 0
v -144 -112 0
v -160 -128 0
v -176 -128 0
v -176 -112 0
v -160 -112 0
v -176 -128 0
v -192 -128 0
v -192 -112 0
v -176 -112 0
v -192 -128 0
v -208 -128 0
v -208 -112 0
v -192 -112 0
v -208 -128 0
v -224 -128 0
v -224 -112 0
v -208 -112 0
v -224 -128 0
v -240 -128 0
v -240 -112 0
v -224 -112 0
v -240 -128 0
v -256 -128 0
v -256 -112 0
v -240 -112 0
v 0 -144 0
v -16 -144 0
v -16 -128 0
v 0 -128 0
v -16 -144 0
v -32 -144 0
v -32 -128 0
v -16 -128 0
v -32 -144 0
v -48 -144 0
v -48 -128 0
v -32 -128 0
v -48 -144 0
v -64 -144 0
v -64 -128 0
v -48 -128 0
v -64 -144 0
v -80 -144 0
v -80 -128 0
v -64 -128 0
v -80 -144 0
v -96 -144 0
v -96 -128 0
v -80 -128 0
v -96 -144 0
v -112 -144 0
v -112 -128 0
v -96 -128 0
v -112 -144 0
v -128 -144 0
v -128 -128 0
v -112 -128 0
v -128 -144 0
v -144 -144 0
v -144 -128 0
v -128 -128 0
v -144 -144 0
v -160 -144 0
v -160 -128 0
v -144 -128 0
v -160 -144 0
v -176 -144 0
v -176 -128 0
v -160 -128 0
v -176 -144 0
v -192 -144 0
v -192 -128 0
v -176 -128 0
v -192 -144 0
v -208 -144 0
v -208 -128 0
v -192 -128 0
v -208 -144 0
v -224 -144 0
v -224 -128 0
v -208 -128 0
v -224 -144 0
v -240 -144 0
v -240 -128 0
v -224 -128 0
v -240 -144 0
v -256 -144 0
v -256 -128 0
v -240 -128 0
v 0 -160 0
v -16 -160 0
v -16 -144 0
v 0 -144 0
v -16 -160 0
v -32 -160 0
v -32 -144 0
v -16 -144 0
v -32 -160 0
v -48 -160 0
v -48 -144 0
v -32 -144 0
v -48 -160 0
v -64 -160 0
v -64 -144 0
v -48 -144 0
v -64 -160 0
v -80 -160 0
v -80 -144 0
v -64 -144 0
v -80 -160 0
v -96 -160 0
v -96 -144 0
v -80 -144 0
v -96 -160 0
v -112 -160 0
v -112 -144 0
v -96 -144 0
v -112 -160 0
v -128 -160 0
v -128 -144 0
v -112 -144 0
v -128 -160 0
v -144 -160 0
v -144 -144 0
v -128 -144 0
v -144 -160 0
v -160 -160 0
v -160 -144 0
v -144 -144 0
v -160 -160 0
v -176 -160 0
v -176 -144 0
v -160 -144 0
v -176 -160 0
v -192 -160 0
v -192 -144 0
v -176 -144 0
v -192 -160 0
v -208 -160 0
v -208 -144 0
v -192 -144 0
v -208 -160 0
v -224 -160 0
v -224 -144 0
v -208 -144 0
v -224 -160 0
v -240 -160 0
v -240 -144 0
v -224 -144 0
v -240 -160 0
v -256 -160 0
v -256 -144 0
v -240 -144 0
v 0 -176 0
v -16 -176 0
v -16 -160 0
v 0 -160 0
v -16 -176 0
v -32 -176 0
v -32 -160 0
v -16 -160 0
v -32 -176 0
v -48 -176 0
v -48 -160 0
v -32 -160 0
v -48 -176 0
v -64 -176 0
v -64 -160 0
v -48 -160 0
v -64 -176 0
v -80 -176 0
v -80 -160 0
v -64 -160 0
v -80 -176 0
v -96 -176 0
v -96 -160 0
v -80 -160 0
v -96 -176 0
v -112 -176 0
v -112 -160 0
v -96 -160 0
v -112 -176 0
v -128 -176 0
v -128 -160 0
v -112 -160 0
v -128 -176 0
v -144 -176 0
v -144 -160 0
v -128 -160 0
v -144 -176 0
v -160 -176 0
v -160 -160 0
v -144 -160 0
v -160 -176 0
v -176 -176 0
v -176 -160 0
v -160 -160 0
v -176 -176 0
v -192 -176 0
v -192 -160 0
v -176 -160 0
v -192 -176 0
v -208 -176 0
v -208 -160 0
v -192 -160 0
v -208 -176 0
v -224 -176 0
v -224 -160 0
v -208 -160 0
v -224 -176 0
v -240 -176 0
v -240 -160 0
v -224 -160 0
v -240 -176 0
v -256 -176 0
v -256 -160 0
v -240 -160 0
v 0 -192 0
v -16 -192 0
v -16 -176 0
v 0 -176 0
v -16 -192 0
v -32 -192 0
v -32 -176 0
v -16 -176 0
v -32 -192 0
v -48 -192 0
v -48 -176 0
v -32 -176 0
v -48 -192 0
v -64 -192 0
v -64 -176 0
v -48 -176 0
v -64 -192 0
v -80 -192 0
v -80 -176 0
v -64 -176 0
v -80 -192 0
v -96 -192 0
v -96 -176 0
v -80 -176 0
v -96 -192 0
v -112 -192 0
v -112 -176 0
v -96 -176 0
v -112 -192 0
v -128 -192 0
v -128 -176 0
v -112 -176 0
v -128 -192 0
v -144 -192 0
v -144 -176 0
v -128 -176 0
v -144 -192 0
v -160 -192 0
v -160 -176 0
v -144 -176 0
v -160 -192 0
v -176 -192 0
v -176 -176 0
v -160 -176 0
v -176 -192 0
v -192 -192 0
v -192 -176 0
v -176 -176 0
v -192 -192 0
v -208 -192 0
v -208 -176 0
v -192 -176 0
v -208 -192 0
v -224 -192 0
v -224 -176 0
v -208 -176 0
v -224 -192 0
v -240 -192 0
v -240 -176 0
v -224 -176 0
v -240 -192 0
v -256 -192 0
v -256 -176 0
v -240 -176 0
v 0 -208 0
v -16 -208 0
v -16 -192 0
v 0 -192 0
v -16 -208 0
v -32 -208 0
v -32 -192 0
v -16 -192 0
v -32 -208 0
v -48 -208 0
v -48 -192 0
v -32 -192 0
v -48 -208 0
v -64 -208 0
v -64 -192 0
v -48 -192 0
v -64 -208 0
v -80 -208 0
v -80 -192 0
v -64 -192 0
v -80 -208 0
v -96 -208 0
v -96 -192 0
v -80 -192 0
v -96 -208 0
v -112 -208 0
v -112 -192 0
v -96 -192 0
v -112 -208 0
v -128 -208 0
v -128 -192 0
v -112 -192 0
v -128 -208 0
v -144 -208 0
v -144 -192 0
v -128 -192 0
v -144 -208 0
v -160 -208 0
v -160 -192 0
v -144 -192 0
v -160 -208 0
v -176 -208 0
v -176 -192 0
v -160 -192 0
v -176 -208 0
v -192 -208 0
v -192 -192 0
v -176 -192 0
v -192 -208 0
v -208 -208 0
v -208 -192 0
v -192 -192 0
v -208 -208 0
v -224 -208 0
v -224 -192 0
v -208 -192 0
v -224 -208 0
v -240 -208 0
v -240 -192 0
v -224 -192 0
v -240 -208 0
v -256 -208 0
v -256 -192 0
v -240 -192 0
v 0 -224 0
v -16 -224 0
v -16 -208 0
v 0 -208 0
v -16 -224 0
v -32 -224 0
v -32 -208 0
v -16 -208 0
v -32 -224 0
v -48 -224 0
v -48 -208 0
v -32 -208 0
v -48 -224 0
v -64 -224 0
v -64 -208 0
v -48 -208 0
v -64 -224 0
v -80 -224 0
v -80 -208 0
v -64 -208 0
v -80 -224 0
v -96 -224 0
v -96 -208 0
v -80 -208 0
v -96 -224 0
v -112 -224 0
v -112 -208 0
v -96 -208 0
v -112 -224 0
v -128 -224 0
v -128 -208 0
v -112 -208 0
v -128 -224 0
v -144 -224 0
v -144 -208 0
v -128 -208 0
v -144 -224 0
v -160 -224 0
v -160 -208 0
v -144 -208 0
v -160 -224 0
v -176 -224 0
v -176 -208 0
v -160 -208 0
v -176 -224 0
v -192 -224 0
v -192 -208 0
v -176 -208 0
v -192 -224 0
v -208 -224 0
v -208 -208 0
v -192 -208 0
v -208 -224 0
v -224 -224 0
v -224 -208 0
v -208 -208 0
v -224 -224 0
v -240 -224 0
v -240 -208 0
v -224 -208 0
v -240 -224 0
v -256 -224 0
v -256 -208 0
v -240 -208 0
v 0 -240 0
v -16 -240 0
v -16 -224 0
v 0 -224 0
v -16 -240 0
v -32 -240 0
v -32 -224 0
v -16 -224 0
v -32 -240 0
v -48 -240 0
v -48 -224 0
v -32 -224 0
v -48 -240 0
v -64 -240 0
v -64 -224 0
v -48 -224 0
v -64 -240 0
v -80 -240 0
v -80 -224 0
v -64 -224 0
v -80 -240 0
v -96 -240 0
v -96 -224 0
v -80 -224 0
v -96 -240 0
v -112 -240 0
v -112 -224 0
v -96 -224 0
v -112 -240 0
v -128 -240 0
v -128 -224 0
v -112 -224 0
v -128 -240 0
v -144 -240 0
v -144 -224 0
v -128 -224 0
v -144 -240 0
v -160 -240 0
v -160 -224 0
v -144 -224 0
v -160 -240 0
v -176 -240 0
v -176 -224 0
v -160 -224 0
v -176 -240 0
v -192 -240 0
v -192 -224 0
v -176 -224 0
v -192 -240 0
v -208 -240 0
v -208 -224 0
v -192 -224 0
v -208 -240 0
v -224 -240 0
v -224 -224 0
v -208 -224 0
v -224 -240 0
v -240 -240 0
v -240 -224 0
v -224 -224 0
v -240 -240 0
v -256 -240 0
v -256 -224 0
v -240 -224 0
v 0 -256 0
v -16 -256 0
v -16 -240 0
v 0 -240 0
v -16 -256 0
v -32 -256 0
v -32 -240 0
v -16 -240 0
v -32 -256 0
v -48 -256 0
v -48 -240 0
v -32 -240 0
v -48 -256 0
v -64 -256 0
v -64 -240 0
v -48 -240 0
v -64 -256 0
v -80 -256 0
v -80 -240 0
v -64 -240 0
v -80 -256 0
v -96 -256 0
v -96 -240 0
v -80 -240 0
v -96 -256 0
v -112 -256 0
v -112 -240 0
v -96 -240 0
v -112 -256 0
v -128 -256 0
v -128 -240 0
v -112 -240 0
v -128 -256 0
v -144 -256 0
v -144 -240 0
v -128 -240 0
v -144 -256 0
v -160 -256 0
v -160 -240 0
v -144 -240 0
v -160 -256 0
v -176 -256 0
v -176 -240 0
v -160 -240 0
v -176 -256 0
v -192 -256 0
v -192 -240 0
v -176 -240 0
v -192 -256 0
v -208 -256 0
v -208 -240 0
v -192 -240 0
v -208 -256 0
v -224 -256 0
v -224 -240 0
v -208 -240 0
v -224 -256 0
v -240 -256 0
v -240 -240 0
v -224 -240 0
v -240 -256 0
v -256 -256 0
v -256 -240 0
v -240 -240 0

# Texture cooridinates (Count = 49)
vt 0.0078125 0.421875
vt 0.01171875 0.421875
vt 0.01171875 0.4375
vt 0.0078125 0.4375
vt 0.015625 0.421875
vt 0.01953125 0.421875
vt 0.01953125 0.4375
vt 0.015625 0.4375
vt 0.02734375 0.46875
vt 0.03125 0.46875
vt 0.03125 0.484375
vt 0.02734375 0.484375
vt 0.01171875 0.390625
vt 0.015625 0.390625
vt 0.015625 0.40625
vt 0.01171875 0.40625
vt 0.0078125 0.46875
vt 0.01171875 0.46875
vt 0.01171875 0.484375
vt 0.0078125 0.484375
vt 0.01953125 0.453125
vt 0.0234375 0.453125
vt 0.0234375 0.46875
vt 0.01953125 0.46875
vt 0.0234375 0.421875
vt 0.0234375 0.4375
vt 0.015625 0.453125
vt 0.01171875 0.453125
vt 0.02734375 0.390625
vt 0.03125 0.390625
vt 0.03125 0.40625
vt 0.02734375 0.40625
vt 0.0234375 0.390625
vt 0.0234375 0.40625
vt 0.02734375 0.421875
vt 0.02734375 0.453125
vt 0.01953125 0.390625
vt 0.01953125 0.40625
vt 0.015625 0.46875
vt 0.03125 0.421875
vt 0.03125 0.4375
vt 0.02734375 0.4375
vt 0.0078125 0.453125
vt 0.0078125 0.390625
vt 0.0078125 0.40625
vt 0.03125 0.453125
vt 0.0234375 0.484375
vt 0.015625 0.484375
vt 0.01953125 0.484375

# Normal
vn 0 0 -1

# Mesh description
g TitleIntro_mesh_0017

# Faces
f 1/1/1 2/2/1 3/3/1 4/4/1
f 5/5/1 6/6/1 7/7/1 8/8/1
f 9/1/1 10/2/1 11/3/1 12/4/1
f 13/9/1 14/10/1 15/11/1 16/12/1
f 17/13/1 18/14/1 19/15/1 20/16/1
f 21/17/1 22/18/1 23/19/1 24/20/1
f 25/21/1 26/22/1 27/23/1 28/24/1
f 29/6/1 30/25/1 31/26/1 32/7/1
f 33/3/1 34/8/1 35/27/1 36/28/1
f 37/29/1 38/30/1 39/31/1 40/32/1
f 41/13/1 42/14/1 43/15/1 44/16/1
f 45/33/1 46/29/1 47/32/1 48/34/1
f 49/34/1 50/32/1 51/35/1 52/25/1
f 53/22/1 54/36/1 55/9/1 56/23/1
f 57/3/1 58/8/1 59/27/1 60/28/1
f 61/17/1 62/18/1 63/19/1 64/20/1
f 65/3/1 66/8/1 67/27/1 68/28/1
f 69/2/1 70/5/1 71/8/1 72/3/1
f 73/14/1 74/37/1 75/38/1 76/15/1
f 77/3/1 78/8/1 79/27/1 80/28/1
f 81/2/1 82/5/1 83/8/1 84/3/1
f 85/37/1 86/33/1 87/34/1 88/38/1
f 89/28/1 90/27/1 91/39/1 92/18/1
f 93/35/1 94/40/1 95/41/1 96/42/1
f 97/26/1 98/42/1 99/36/1 100/22/1
f 101/4/1 102/3/1 103/28/1 104/43/1
f 105/14/1 106/37/1 107/38/1 108/15/1
f 109/4/1 110/3/1 111/28/1 112/43/1
f 113/44/1 114/13/1 115/16/1 116/45/1
f 117/32/1 118/31/1 119/40/1 120/35/1
f 121/17/1 122/18/1 123/19/1 124/20/1
f 125/44/1 126/13/1 127/16/1 128/45/1
f 129/34/1 130/32/1 131/35/1 132/25/1
f 133/36/1 134/46/1 135/10/1 136/9/1
f 137/36/1 138/46/1 139/10/1 140/9/1
f 141/13/1 142/14/1 143/15/1 144/16/1
f 145/22/1 146/36/1 147/9/1 148/23/1
f 149/44/1 150/13/1 151/16/1 152/45/1
f 153/43/1 154/28/1 155/18/1 156/17/1
f 157/23/1 158/9/1 159/12/1 160/47/1
f 161/21/1 162/22/1 163/23/1 164/24/1
f 165/35/1 166/40/1 167/41/1 168/42/1
f 169/1/1 170/2/1 171/3/1 172/4/1
f 173/26/1 174/42/1 175/36/1 176/22/1
f 177/18/1 178/39/1 179/48/1 180/19/1
f 181/44/1 182/13/1 183/16/1 184/45/1
f 185/21/1 186/22/1 187/23/1 188/24/1
f 189/5/1 190/6/1 191/7/1 192/8/1
f 193/44/1 194/13/1 195/16/1 196/45/1
f 197/43/1 198/28/1 199/18/1 200/17/1
f 201/13/1 202/14/1 203/15/1 204/16/1
f 205/33/1 206/29/1 207/32/1 208/34/1
f 209/26/1 210/42/1 211/36/1 212/22/1
f 213/34/1 214/32/1 215/35/1 216/25/1
f 217/29/1 218/30/1 219/31/1 220/32/1
f 221/6/1 222/25/1 223/26/1 224/7/1
f 225/33/1 226/29/1 227/32/1 228/34/1
f 229/7/1 230/26/1 231/22/1 232/21/1
f 233/29/1 234/30/1 235/31/1 236/32/1
f 237/37/1 238/33/1 239/34/1 240/38/1
f 241/13/1 242/14/1 243/15/1 244/16/1
f 245/35/1 246/40/1 247/41/1 248/42/1
f 249/14/1 250/37/1 251/38/1 252/15/1
f 253/7/1 254/26/1 255/22/1 256/21/1
f 257/9/1 258/10/1 259/11/1 260/12/1
f 261/7/1 262/26/1 263/22/1 264/21/1
f 265/17/1 266/18/1 267/19/1 268/20/1
f 269/21/1 270/22/1 271/23/1 272/24/1
f 273/4/1 274/3/1 275/28/1 276/43/1
f 277/7/1 278/26/1 279/22/1 280/21/1
f 281/32/1 282/31/1 283/40/1 284/35/1
f 285/5/1 286/6/1 287/7/1 288/8/1
f 289/27/1 290/21/1 291/24/1 292/39/1
f 293/22/1 294/36/1 295/9/1 296/23/1
f 297/6/1 298/25/1 299/26/1 300/7/1
f 301/33/1 302/29/1 303/32/1 304/34/1
f 305/32/1 306/31/1 307/40/1 308/35/1
f 309/13/1 310/14/1 311/15/1 312/16/1
f 313/25/1 314/35/1 315/42/1 316/26/1
f 317/17/1 318/18/1 319/19/1 320/20/1
f 321/37/1 322/33/1 323/34/1 324/38/1
f 325/1/1 326/2/1 327/3/1 328/4/1
f 329/44/1 330/13/1 331/16/1 332/45/1
f 333/28/1 334/27/1 335/39/1 336/18/1
f 337/9/1 338/10/1 339/11/1 340/12/1
f 341/33/1 342/29/1 343/32/1 344/34/1
f 345/4/1 346/3/1 347/28/1 348/43/1
f 349/5/1 350/6/1 351/7/1 352/8/1
f 353/15/1 354/38/1 355/6/1 356/5/1
f 357/2/1 358/5/1 359/8/1 360/3/1
f 361/25/1 362/35/1 363/42/1 364/26/1
f 365/13/1 366/14/1 367/15/1 368/16/1
f 369/43/1 370/28/1 371/18/1 372/17/1
f 373/5/1 374/6/1 375/7/1 376/8/1
f 377/23/1 378/9/1 379/12/1 380/47/1
f 381/44/1 382/13/1 383/16/1 384/45/1
f 385/43/1 386/28/1 387/18/1 388/17/1
f 389/7/1 390/26/1 391/22/1 392/21/1
f 393/22/1 394/36/1 395/9/1 396/23/1
f 397/43/1 398/28/1 399/18/1 400/17/1
f 401/28/1 402/27/1 403/39/1 404/18/1
f 405/23/1 406/9/1 407/12/1 408/47/1
f 409/32/1 410/31/1 411/40/1 412/35/1
f 413/4/1 414/3/1 415/28/1 416/43/1
f 417/21/1 418/22/1 419/23/1 420/24/1
f 421/5/1 422/6/1 423/7/1 424/8/1
f 425/17/1 426/18/1 427/19/1 428/20/1
f 429/37/1 430/33/1 431/34/1 432/38/1
f 433/4/1 434/3/1 435/28/1 436/43/1
f 437/33/1 438/29/1 439/32/1 440/34/1
f 441/45/1 442/16/1 443/2/1 444/1/1
f 445/18/1 446/39/1 447/48/1 448/19/1
f 449/24/1 450/23/1 451/47/1 452/49/1
f 453/29/1 454/30/1 455/31/1 456/32/1
f 457/14/1 458/37/1 459/38/1 460/15/1
f 461/39/1 462/24/1 463/49/1 464/48/1
f 465/23/1 466/9/1 467/12/1 468/47/1
f 469/45/1 470/16/1 471/2/1 472/1/1
f 473/33/1 474/29/1 475/32/1 476/34/1
f 477/21/1 478/22/1 479/23/1 480/24/1
f 481/17/1 482/18/1 483/19/1 484/20/1
f 485/4/1 486/3/1 487/28/1 488/43/1
f 489/2/1 490/5/1 491/8/1 492/3/1
f 493/3/1 494/8/1 495/27/1 496/28/1
f 497/23/1 498/9/1 499/12/1 500/47/1
f 501/24/1 502/23/1 503/47/1 504/49/1
f 505/9/1 506/10/1 507/11/1 508/12/1
f 509/15/1 510/38/1 511/6/1 512/5/1
f 513/29/1 514/30/1 515/31/1 516/32/1
f 517/27/1 518/21/1 519/24/1 520/39/1
f 521/39/1 522/24/1 523/49/1 524/48/1
f 525/2/1 526/5/1 527/8/1 528/3/1
f 529/23/1 530/9/1 531/12/1 532/47/1
f 533/24/1 534/23/1 535/47/1 536/49/1
f 537/25/1 538/35/1 539/42/1 540/26/1
f 541/34/1 542/32/1 543/35/1 544/25/1
f 545/39/1 546/24/1 547/49/1 548/48/1
f 549/38/1 550/34/1 551/25/1 552/6/1
f 553/45/1 554/16/1 555/2/1 556/1/1
f 557/13/1 558/14/1 559/15/1 560/16/1
f 561/29/1 562/30/1 563/31/1 564/32/1
f 565/6/1 566/25/1 567/26/1 568/7/1
f 569/44/1 570/13/1 571/16/1 572/45/1
f 573/33/1 574/29/1 575/32/1 576/34/1
f 577/26/1 578/42/1 579/36/1 580/22/1
f 581/43/1 582/28/1 583/18/1 584/17/1
f 585/1/1 586/2/1 587/3/1 588/4/1
f 589/28/1 590/27/1 591/39/1 592/18/1
f 593/35/1 594/40/1 595/41/1 596/42/1
f 597/45/1 598/16/1 599/2/1 600/1/1
f 601/13/1 602/14/1 603/15/1 604/16/1
f 605/16/1 606/15/1 607/5/1 608/2/1
f 609/39/1 610/24/1 611/49/1 612/48/1
f 613/38/1 614/34/1 615/25/1 616/6/1
f 617/23/1 618/9/1 619/12/1 620/47/1
f 621/33/1 622/29/1 623/32/1 624/34/1
f 625/29/1 626/30/1 627/31/1 628/32/1
f 629/27/1 630/21/1 631/24/1 632/39/1
f 633/45/1 634/16/1 635/2/1 636/1/1
f 637/44/1 638/13/1 639/16/1 640/45/1
f 641/36/1 642/46/1 643/10/1 644/9/1
f 645/45/1 646/16/1 647/2/1 648/1/1
f 649/18/1 650/39/1 651/48/1 652/19/1
f 653/8/1 654/7/1 655/21/1 656/27/1
f 657/14/1 658/37/1 659/38/1 660/15/1
f 661/1/1 662/2/1 663/3/1 664/4/1
f 665/13/1 666/14/1 667/15/1 668/16/1
f 669/45/1 670/16/1 671/2/1 672/1/1
f 673/4/1 674/3/1 675/28/1 676/43/1
f 677/27/1 678/21/1 679/24/1 680/39/1
f 681/28/1 682/27/1 683/39/1 684/18/1
f 685/33/1 686/29/1 687/32/1 688/34/1
f 689/17/1 690/18/1 691/19/1 692/20/1
f 693/27/1 694/21/1 695/24/1 696/39/1
f 697/42/1 698/41/1 699/46/1 700/36/1
f 701/22/1 702/36/1 703/9/1 704/23/1
f 705/39/1 706/24/1 707/49/1 708/48/1
f 709/5/1 710/6/1 711/7/1 712/8/1
f 713/26/1 714/42/1 715/36/1 716/22/1
f 717/14/1 718/37/1 719/38/1 720/15/1
f 721/5/1 722/6/1 723/7/1 724/8/1
f 725/21/1 726/22/1 727/23/1 728/24/1
f 729/36/1 730/46/1 731/10/1 732/9/1
f 733/34/1 734/32/1 735/35/1 736/25/1
f 737/6/1 738/25/1 739/26/1 740/7/1
f 741/16/1 742/15/1 743/5/1 744/2/1
f 745/24/1 746/23/1 747/47/1 748/49/1
f 749/23/1 750/9/1 751/12/1 752/47/1
f 753/28/1 754/27/1 755/39/1 756/18/1
f 757/43/1 758/28/1 759/18/1 760/17/1
f 761/45/1 762/16/1 763/2/1 764/1/1
f 765/39/1 766/24/1 767/49/1 768/48/1
f 769/35/1 770/40/1 771/41/1 772/42/1
f 773/43/1 774/28/1 775/18/1 776/17/1
f 777/29/1 778/30/1 779/31/1 780/32/1
f 781/22/1 782/36/1 783/9/1 784/23/1
f 785/42/1 786/41/1 787/46/1 788/36/1
f 789/42/1 790/41/1 791/46/1 792/36/1
f 793/28/1 794/27/1 795/39/1 796/18/1
f 797/14/1 798/37/1 799/38/1 800/15/1
f 801/24/1 802/23/1 803/47/1 804/49/1
f 805/28/1 806/27/1 807/39/1 808/18/1
f 809/23/1 810/9/1 811/12/1 812/47/1
f 813/39/1 814/24/1 815/49/1 816/48/1
f 817/42/1 818/41/1 819/46/1 820/36/1
f 821/24/1 822/23/1 823/47/1 824/49/1
f 825/35/1 826/40/1 827/41/1 828/42/1
f 829/32/1 830/31/1 831/40/1 832/35/1
f 833/3/1 834/8/1 835/27/1 836/28/1
f 837/8/1 838/7/1 839/21/1 840/27/1
f 841/6/1 842/25/1 843/26/1 844/7/1
f 845/38/1 846/34/1 847/25/1 848/6/1
f 849/38/1 850/34/1 851/25/1 852/6/1
f 853/29/1 854/30/1 855/31/1 856/32/1
f 857/24/1 858/23/1 859/47/1 860/49/1
f 861/39/1 862/24/1 863/49/1 864/48/1
f 865/42/1 866/41/1 867/46/1 868/36/1
f 869/14/1 870/37/1 871/38/1 872/15/1
f 873/22/1 874/36/1 875/9/1 876/23/1
f 877/22/1 878/36/1 879/9/1 880/23/1
f 881/9/1 882/10/1 883/11/1 884/12/1
f 885/26/1 886/42/1 887/36/1 888/22/1
f 889/26/1 890/42/1 891/36/1 892/22/1
f 893/3/1 894/8/1 895/27/1 896/28/1
f 897/35/1 898/40/1 899/41/1 900/42/1
f 901/4/1 902/3/1 903/28/1 904/43/1
f 905/8/1 906/7/1 907/21/1 908/27/1
f 909/2/1 910/5/1 911/8/1 912/3/1
f 913/23/1 914/9/1 915/12/1 916/47/1
f 917/17/1 918/18/1 919/19/1 920/20/1
f 921/33/1 922/29/1 923/32/1 924/34/1
f 925/22/1 926/36/1 927/9/1 928/23/1
f 929/39/1 930/24/1 931/49/1 932/48/1
f 933/13/1 934/14/1 935/15/1 936/16/1
f 937/42/1 938/41/1 939/46/1 940/36/1
f 941/23/1 942/9/1 943/12/1 944/47/1
f 945/16/1 946/15/1 947/5/1 948/2/1
f 949/35/1 950/40/1 951/41/1 952/42/1
f 953/1/1 954/2/1 955/3/1 956/4/1
f 957/35/1 958/40/1 959/41/1 960/42/1
f 961/45/1 962/16/1 963/2/1 964/1/1
f 965/13/1 966/14/1 967/15/1 968/16/1
f 969/1/1 970/2/1 971/3/1 972/4/1
f 973/43/1 974/28/1 975/18/1 976/17/1
f 977/24/1 978/23/1 979/47/1 980/49/1
f 981/27/1 982/21/1 983/24/1 984/39/1
f 985/24/1 986/23/1 987/47/1 988/49/1
f 989/25/1 990/35/1 991/42/1 992/26/1
f 993/6/1 994/25/1 995/26/1 996/7/1
f 997/42/1 998/41/1 999/46/1 1000/36/1
f 1001/45/1 1002/16/1 1003/2/1 1004/1/1
f 1005/26/1 1006/42/1 1007/36/1 1008/22/1
f 1009/4/1 1010/3/1 1011/28/1 1012/43/1
f 1013/6/1 1014/25/1 1015/26/1 1016/7/1
f 1017/13/1 1018/14/1 1019/15/1 1020/16/1
f 1021/17/1 1022/18/1 1023/19/1 1024/20/1

