# Tiled2Unity generated file. Do not modify by hand.
# Wavefront file for 'TitleIntro_mesh_0025.obj'

# Vertices (Count = 1024)
v 0 -16 0
v -16 -16 0
v -16 0 0
v 0 0 0
v -16 -16 0
v -32 -16 0
v -32 0 0
v -16 0 0
v -32 -16 0
v -48 -16 0
v -48 0 0
v -32 0 0
v -48 -16 0
v -64 -16 0
v -64 0 0
v -48 0 0
v -64 -16 0
v -80 -16 0
v -80 0 0
v -64 0 0
v -80 -16 0
v -96 -16 0
v -96 0 0
v -80 0 0
v -96 -16 0
v -112 -16 0
v -112 0 0
v -96 0 0
v -112 -16 0
v -128 -16 0
v -128 0 0
v -112 0 0
v -128 -16 0
v -144 -16 0
v -144 0 0
v -128 0 0
v -144 -16 0
v -160 -16 0
v -160 0 0
v -144 0 0
v -160 -16 0
v -176 -16 0
v -176 0 0
v -160 0 0
v -176 -16 0
v -192 -16 0
v -192 0 0
v -176 0 0
v -192 -16 0
v -208 -16 0
v -208 0 0
v -192 0 0
v -208 -16 0
v -224 -16 0
v -224 0 0
v -208 0 0
v -224 -16 0
v -240 -16 0
v -240 0 0
v -224 0 0
v -240 -16 0
v -256 -16 0
v -256 0 0
v -240 0 0
v 0 -32 0
v -16 -32 0
v -16 -16 0
v 0 -16 0
v -16 -32 0
v -32 -32 0
v -32 -16 0
v -16 -16 0
v -32 -32 0
v -48 -32 0
v -48 -16 0
v -32 -16 0
v -48 -32 0
v -64 -32 0
v -64 -16 0
v -48 -16 0
v -64 -32 0
v -80 -32 0
v -80 -16 0
v -64 -16 0
v -80 -32 0
v -96 -32 0
v -96 -16 0
v -80 -16 0
v -96 -32 0
v -112 -32 0
v -112 -16 0
v -96 -16 0
v -112 -32 0
v -128 -32 0
v -128 -16 0
v -112 -16 0
v -128 -32 0
v -144 -32 0
v -144 -16 0
v -128 -16 0
v -144 -32 0
v -160 -32 0
v -160 -16 0
v -144 -16 0
v -160 -32 0
v -176 -32 0
v -176 -16 0
v -160 -16 0
v -176 -32 0
v -192 -32 0
v -192 -16 0
v -176 -16 0
v -192 -32 0
v -208 -32 0
v -208 -16 0
v -192 -16 0
v -208 -32 0
v -224 -32 0
v -224 -16 0
v -208 -16 0
v -224 -32 0
v -240 -32 0
v -240 -16 0
v -224 -16 0
v -240 -32 0
v -256 -32 0
v -256 -16 0
v -240 -16 0
v 0 -48 0
v -16 -48 0
v -16 -32 0
v 0 -32 0
v -16 -48 0
v -32 -48 0
v -32 -32 0
v -16 -32 0
v -32 -48 0
v -48 -48 0
v -48 -32 0
v -32 -32 0
v -48 -48 0
v -64 -48 0
v -64 -32 0
v -48 -32 0
v -64 -48 0
v -80 -48 0
v -80 -32 0
v -64 -32 0
v -80 -48 0
v -96 -48 0
v -96 -32 0
v -80 -32 0
v -96 -48 0
v -112 -48 0
v -112 -32 0
v -96 -32 0
v -112 -48 0
v -128 -48 0
v -128 -32 0
v -112 -32 0
v -128 -48 0
v -144 -48 0
v -144 -32 0
v -128 -32 0
v -144 -48 0
v -160 -48 0
v -160 -32 0
v -144 -32 0
v -160 -48 0
v -176 -48 0
v -176 -32 0
v -160 -32 0
v -176 -48 0
v -192 -48 0
v -192 -32 0
v -176 -32 0
v -192 -48 0
v -208 -48 0
v -208 -32 0
v -192 -32 0
v -208 -48 0
v -224 -48 0
v -224 -32 0
v -208 -32 0
v -224 -48 0
v -240 -48 0
v -240 -32 0
v -224 -32 0
v -240 -48 0
v -256 -48 0
v -256 -32 0
v -240 -32 0
v 0 -64 0
v -16 -64 0
v -16 -48 0
v 0 -48 0
v -16 -64 0
v -32 -64 0
v -32 -48 0
v -16 -48 0
v -32 -64 0
v -48 -64 0
v -48 -48 0
v -32 -48 0
v -48 -64 0
v -64 -64 0
v -64 -48 0
v -48 -48 0
v -64 -64 0
v -80 -64 0
v -80 -48 0
v -64 -48 0
v -80 -64 0
v -96 -64 0
v -96 -48 0
v -80 -48 0
v -96 -64 0
v -112 -64 0
v -112 -48 0
v -96 -48 0
v -112 -64 0
v -128 -64 0
v -128 -48 0
v -112 -48 0
v -128 -64 0
v -144 -64 0
v -144 -48 0
v -128 -48 0
v -144 -64 0
v -160 -64 0
v -160 -48 0
v -144 -48 0
v -160 -64 0
v -176 -64 0
v -176 -48 0
v -160 -48 0
v -176 -64 0
v -192 -64 0
v -192 -48 0
v -176 -48 0
v -192 -64 0
v -208 -64 0
v -208 -48 0
v -192 -48 0
v -208 -64 0
v -224 -64 0
v -224 -48 0
v -208 -48 0
v -224 -64 0
v -240 -64 0
v -240 -48 0
v -224 -48 0
v -240 -64 0
v -256 -64 0
v -256 -48 0
v -240 -48 0
v 0 -80 0
v -16 -80 0
v -16 -64 0
v 0 -64 0
v -16 -80 0
v -32 -80 0
v -32 -64 0
v -16 -64 0
v -32 -80 0
v -48 -80 0
v -48 -64 0
v -32 -64 0
v -48 -80 0
v -64 -80 0
v -64 -64 0
v -48 -64 0
v -64 -80 0
v -80 -80 0
v -80 -64 0
v -64 -64 0
v -80 -80 0
v -96 -80 0
v -96 -64 0
v -80 -64 0
v -96 -80 0
v -112 -80 0
v -112 -64 0
v -96 -64 0
v -112 -80 0
v -128 -80 0
v -128 -64 0
v -112 -64 0
v -128 -80 0
v -144 -80 0
v -144 -64 0
v -128 -64 0
v -144 -80 0
v -160 -80 0
v -160 -64 0
v -144 -64 0
v -160 -80 0
v -176 -80 0
v -176 -64 0
v -160 -64 0
v -176 -80 0
v -192 -80 0
v -192 -64 0
v -176 -64 0
v -192 -80 0
v -208 -80 0
v -208 -64 0
v -192 -64 0
v -208 -80 0
v -224 -80 0
v -224 -64 0
v -208 -64 0
v -224 -80 0
v -240 -80 0
v -240 -64 0
v -224 -64 0
v -240 -80 0
v -256 -80 0
v -256 -64 0
v -240 -64 0
v 0 -96 0
v -16 -96 0
v -16 -80 0
v 0 -80 0
v -16 -96 0
v -32 -96 0
v -32 -80 0
v -16 -80 0
v -32 -96 0
v -48 -96 0
v -48 -80 0
v -32 -80 0
v -48 -96 0
v -64 -96 0
v -64 -80 0
v -48 -80 0
v -64 -96 0
v -80 -96 0
v -80 -80 0
v -64 -80 0
v -80 -96 0
v -96 -96 0
v -96 -80 0
v -80 -80 0
v -96 -96 0
v -112 -96 0
v -112 -80 0
v -96 -80 0
v -112 -96 0
v -128 -96 0
v -128 -80 0
v -112 -80 0
v -128 -96 0
v -144 -96 0
v -144 -80 0
v -128 -80 0
v -144 -96 0
v -160 -96 0
v -160 -80 0
v -144 -80 0
v -160 -96 0
v -176 -96 0
v -176 -80 0
v -160 -80 0
v -176 -96 0
v -192 -96 0
v -192 -80 0
v -176 -80 0
v -192 -96 0
v -208 -96 0
v -208 -80 0
v -192 -80 0
v -208 -96 0
v -224 -96 0
v -224 -80 0
v -208 -80 0
v -224 -96 0
v -240 -96 0
v -240 -80 0
v -224 -80 0
v -240 -96 0
v -256 -96 0
v -256 -80 0
v -240 -80 0
v 0 -112 0
v -16 -112 0
v -16 -96 0
v 0 -96 0
v -16 -112 0
v -32 -112 0
v -32 -96 0
v -16 -96 0
v -32 -112 0
v -48 -112 0
v -48 -96 0
v -32 -96 0
v -48 -112 0
v -64 -112 0
v -64 -96 0
v -48 -96 0
v -64 -112 0
v -80 -112 0
v -80 -96 0
v -64 -96 0
v -80 -112 0
v -96 -112 0
v -96 -96 0
v -80 -96 0
v -96 -112 0
v -112 -112 0
v -112 -96 0
v -96 -96 0
v -112 -112 0
v -128 -112 0
v -128 -96 0
v -112 -96 0
v -128 -112 0
v -144 -112 0
v -144 -96 0
v -128 -96 0
v -144 -112 0
v -160 -112 0
v -160 -96 0
v -144 -96 0
v -160 -112 0
v -176 -112 0
v -176 -96 0
v -160 -96 0
v -176 -112 0
v -192 -112 0
v -192 -96 0
v -176 -96 0
v -192 -112 0
v -208 -112 0
v -208 -96 0
v -192 -96 0
v -208 -112 0
v -224 -112 0
v -224 -96 0
v -208 -96 0
v -224 -112 0
v -240 -112 0
v -240 -96 0
v -224 -96 0
v -240 -112 0
v -256 -112 0
v -256 -96 0
v -240 -96 0
v 0 -128 0
v -16 -128 0
v -16 -112 0
v 0 -112 0
v -16 -128 0
v -32 -128 0
v -32 -112 0
v -16 -112 0
v -32 -128 0
v -48 -128 0
v -48 -112 0
v -32 -112 0
v -48 -128 0
v -64 -128 0
v -64 -112 0
v -48 -112 0
v -64 -128 0
v -80 -128 0
v -80 -112 0
v -64 -112 0
v -80 -128 0
v -96 -128 0
v -96 -112 0
v -80 -112 0
v -96 -128 0
v -112 -128 0
v -112 -112 0
v -96 -112 0
v -112 -128 0
v -128 -128 0
v -128 -112 0
v -112 -112 0
v -128 -128 0
v -144 -128 0
v -144 -112 0
v -128 -112 0
v -144 -128 0
v -160 -128 0
v -160 -112 0
v -144 -112 0
v -160 -128 0
v -176 -128 0
v -176 -112 0
v -160 -112 0
v -176 -128 0
v -192 -128 0
v -192 -112 0
v -176 -112 0
v -192 -128 0
v -208 -128 0
v -208 -112 0
v -192 -112 0
v -208 -128 0
v -224 -128 0
v -224 -112 0
v -208 -112 0
v -224 -128 0
v -240 -128 0
v -240 -112 0
v -224 -112 0
v -240 -128 0
v -256 -128 0
v -256 -112 0
v -240 -112 0
v 0 -144 0
v -16 -144 0
v -16 -128 0
v 0 -128 0
v -16 -144 0
v -32 -144 0
v -32 -128 0
v -16 -128 0
v -32 -144 0
v -48 -144 0
v -48 -128 0
v -32 -128 0
v -48 -144 0
v -64 -144 0
v -64 -128 0
v -48 -128 0
v -64 -144 0
v -80 -144 0
v -80 -128 0
v -64 -128 0
v -80 -144 0
v -96 -144 0
v -96 -128 0
v -80 -128 0
v -96 -144 0
v -112 -144 0
v -112 -128 0
v -96 -128 0
v -112 -144 0
v -128 -144 0
v -128 -128 0
v -112 -128 0
v -128 -144 0
v -144 -144 0
v -144 -128 0
v -128 -128 0
v -144 -144 0
v -160 -144 0
v -160 -128 0
v -144 -128 0
v -160 -144 0
v -176 -144 0
v -176 -128 0
v -160 -128 0
v -176 -144 0
v -192 -144 0
v -192 -128 0
v -176 -128 0
v -192 -144 0
v -208 -144 0
v -208 -128 0
v -192 -128 0
v -208 -144 0
v -224 -144 0
v -224 -128 0
v -208 -128 0
v -224 -144 0
v -240 -144 0
v -240 -128 0
v -224 -128 0
v -240 -144 0
v -256 -144 0
v -256 -128 0
v -240 -128 0
v 0 -160 0
v -16 -160 0
v -16 -144 0
v 0 -144 0
v -16 -160 0
v -32 -160 0
v -32 -144 0
v -16 -144 0
v -32 -160 0
v -48 -160 0
v -48 -144 0
v -32 -144 0
v -48 -160 0
v -64 -160 0
v -64 -144 0
v -48 -144 0
v -64 -160 0
v -80 -160 0
v -80 -144 0
v -64 -144 0
v -80 -160 0
v -96 -160 0
v -96 -144 0
v -80 -144 0
v -96 -160 0
v -112 -160 0
v -112 -144 0
v -96 -144 0
v -112 -160 0
v -128 -160 0
v -128 -144 0
v -112 -144 0
v -128 -160 0
v -144 -160 0
v -144 -144 0
v -128 -144 0
v -144 -160 0
v -160 -160 0
v -160 -144 0
v -144 -144 0
v -160 -160 0
v -176 -160 0
v -176 -144 0
v -160 -144 0
v -176 -160 0
v -192 -160 0
v -192 -144 0
v -176 -144 0
v -192 -160 0
v -208 -160 0
v -208 -144 0
v -192 -144 0
v -208 -160 0
v -224 -160 0
v -224 -144 0
v -208 -144 0
v -224 -160 0
v -240 -160 0
v -240 -144 0
v -224 -144 0
v -240 -160 0
v -256 -160 0
v -256 -144 0
v -240 -144 0
v 0 -176 0
v -16 -176 0
v -16 -160 0
v 0 -160 0
v -16 -176 0
v -32 -176 0
v -32 -160 0
v -16 -160 0
v -32 -176 0
v -48 -176 0
v -48 -160 0
v -32 -160 0
v -48 -176 0
v -64 -176 0
v -64 -160 0
v -48 -160 0
v -64 -176 0
v -80 -176 0
v -80 -160 0
v -64 -160 0
v -80 -176 0
v -96 -176 0
v -96 -160 0
v -80 -160 0
v -96 -176 0
v -112 -176 0
v -112 -160 0
v -96 -160 0
v -112 -176 0
v -128 -176 0
v -128 -160 0
v -112 -160 0
v -128 -176 0
v -144 -176 0
v -144 -160 0
v -128 -160 0
v -144 -176 0
v -160 -176 0
v -160 -160 0
v -144 -160 0
v -160 -176 0
v -176 -176 0
v -176 -160 0
v -160 -160 0
v -176 -176 0
v -192 -176 0
v -192 -160 0
v -176 -160 0
v -192 -176 0
v -208 -176 0
v -208 -160 0
v -192 -160 0
v -208 -176 0
v -224 -176 0
v -224 -160 0
v -208 -160 0
v -224 -176 0
v -240 -176 0
v -240 -160 0
v -224 -160 0
v -240 -176 0
v -256 -176 0
v -256 -160 0
v -240 -160 0
v 0 -192 0
v -16 -192 0
v -16 -176 0
v 0 -176 0
v -16 -192 0
v -32 -192 0
v -32 -176 0
v -16 -176 0
v -32 -192 0
v -48 -192 0
v -48 -176 0
v -32 -176 0
v -48 -192 0
v -64 -192 0
v -64 -176 0
v -48 -176 0
v -64 -192 0
v -80 -192 0
v -80 -176 0
v -64 -176 0
v -80 -192 0
v -96 -192 0
v -96 -176 0
v -80 -176 0
v -96 -192 0
v -112 -192 0
v -112 -176 0
v -96 -176 0
v -112 -192 0
v -128 -192 0
v -128 -176 0
v -112 -176 0
v -128 -192 0
v -144 -192 0
v -144 -176 0
v -128 -176 0
v -144 -192 0
v -160 -192 0
v -160 -176 0
v -144 -176 0
v -160 -192 0
v -176 -192 0
v -176 -176 0
v -160 -176 0
v -176 -192 0
v -192 -192 0
v -192 -176 0
v -176 -176 0
v -192 -192 0
v -208 -192 0
v -208 -176 0
v -192 -176 0
v -208 -192 0
v -224 -192 0
v -224 -176 0
v -208 -176 0
v -224 -192 0
v -240 -192 0
v -240 -176 0
v -224 -176 0
v -240 -192 0
v -256 -192 0
v -256 -176 0
v -240 -176 0
v 0 -208 0
v -16 -208 0
v -16 -192 0
v 0 -192 0
v -16 -208 0
v -32 -208 0
v -32 -192 0
v -16 -192 0
v -32 -208 0
v -48 -208 0
v -48 -192 0
v -32 -192 0
v -48 -208 0
v -64 -208 0
v -64 -192 0
v -48 -192 0
v -64 -208 0
v -80 -208 0
v -80 -192 0
v -64 -192 0
v -80 -208 0
v -96 -208 0
v -96 -192 0
v -80 -192 0
v -96 -208 0
v -112 -208 0
v -112 -192 0
v -96 -192 0
v -112 -208 0
v -128 -208 0
v -128 -192 0
v -112 -192 0
v -128 -208 0
v -144 -208 0
v -144 -192 0
v -128 -192 0
v -144 -208 0
v -160 -208 0
v -160 -192 0
v -144 -192 0
v -160 -208 0
v -176 -208 0
v -176 -192 0
v -160 -192 0
v -176 -208 0
v -192 -208 0
v -192 -192 0
v -176 -192 0
v -192 -208 0
v -208 -208 0
v -208 -192 0
v -192 -192 0
v -208 -208 0
v -224 -208 0
v -224 -192 0
v -208 -192 0
v -224 -208 0
v -240 -208 0
v -240 -192 0
v -224 -192 0
v -240 -208 0
v -256 -208 0
v -256 -192 0
v -240 -192 0
v 0 -224 0
v -16 -224 0
v -16 -208 0
v 0 -208 0
v -16 -224 0
v -32 -224 0
v -32 -208 0
v -16 -208 0
v -32 -224 0
v -48 -224 0
v -48 -208 0
v -32 -208 0
v -48 -224 0
v -64 -224 0
v -64 -208 0
v -48 -208 0
v -64 -224 0
v -80 -224 0
v -80 -208 0
v -64 -208 0
v -80 -224 0
v -96 -224 0
v -96 -208 0
v -80 -208 0
v -96 -224 0
v -112 -224 0
v -112 -208 0
v -96 -208 0
v -112 -224 0
v -128 -224 0
v -128 -208 0
v -112 -208 0
v -128 -224 0
v -144 -224 0
v -144 -208 0
v -128 -208 0
v -144 -224 0
v -160 -224 0
v -160 -208 0
v -144 -208 0
v -160 -224 0
v -176 -224 0
v -176 -208 0
v -160 -208 0
v -176 -224 0
v -192 -224 0
v -192 -208 0
v -176 -208 0
v -192 -224 0
v -208 -224 0
v -208 -208 0
v -192 -208 0
v -208 -224 0
v -224 -224 0
v -224 -208 0
v -208 -208 0
v -224 -224 0
v -240 -224 0
v -240 -208 0
v -224 -208 0
v -240 -224 0
v -256 -224 0
v -256 -208 0
v -240 -208 0
v 0 -240 0
v -16 -240 0
v -16 -224 0
v 0 -224 0
v -16 -240 0
v -32 -240 0
v -32 -224 0
v -16 -224 0
v -32 -240 0
v -48 -240 0
v -48 -224 0
v -32 -224 0
v -48 -240 0
v -64 -240 0
v -64 -224 0
v -48 -224 0
v -64 -240 0
v -80 -240 0
v -80 -224 0
v -64 -224 0
v -80 -240 0
v -96 -240 0
v -96 -224 0
v -80 -224 0
v -96 -240 0
v -112 -240 0
v -112 -224 0
v -96 -224 0
v -112 -240 0
v -128 -240 0
v -128 -224 0
v -112 -224 0
v -128 -240 0
v -144 -240 0
v -144 -224 0
v -128 -224 0
v -144 -240 0
v -160 -240 0
v -160 -224 0
v -144 -224 0
v -160 -240 0
v -176 -240 0
v -176 -224 0
v -160 -224 0
v -176 -240 0
v -192 -240 0
v -192 -224 0
v -176 -224 0
v -192 -240 0
v -208 -240 0
v -208 -224 0
v -192 -224 0
v -208 -240 0
v -224 -240 0
v -224 -224 0
v -208 -224 0
v -224 -240 0
v -240 -240 0
v -240 -224 0
v -224 -224 0
v -240 -240 0
v -256 -240 0
v -256 -224 0
v -240 -224 0
v 0 -256 0
v -16 -256 0
v -16 -240 0
v 0 -240 0
v -16 -256 0
v -32 -256 0
v -32 -240 0
v -16 -240 0
v -32 -256 0
v -48 -256 0
v -48 -240 0
v -32 -240 0
v -48 -256 0
v -64 -256 0
v -64 -240 0
v -48 -240 0
v -64 -256 0
v -80 -256 0
v -80 -240 0
v -64 -240 0
v -80 -256 0
v -96 -256 0
v -96 -240 0
v -80 -240 0
v -96 -256 0
v -112 -256 0
v -112 -240 0
v -96 -240 0
v -112 -256 0
v -128 -256 0
v -128 -240 0
v -112 -240 0
v -128 -256 0
v -144 -256 0
v -144 -240 0
v -128 -240 0
v -144 -256 0
v -160 -256 0
v -160 -240 0
v -144 -240 0
v -160 -256 0
v -176 -256 0
v -176 -240 0
v -160 -240 0
v -176 -256 0
v -192 -256 0
v -192 -240 0
v -176 -240 0
v -192 -256 0
v -208 -256 0
v -208 -240 0
v -192 -240 0
v -208 -256 0
v -224 -256 0
v -224 -240 0
v -208 -240 0
v -224 -256 0
v -240 -256 0
v -240 -240 0
v -224 -240 0
v -240 -256 0
v -256 -256 0
v -256 -240 0
v -240 -240 0

# Texture cooridinates (Count = 49)
vt 0.02734375 0.46875
vt 0.03125 0.46875
vt 0.03125 0.484375
vt 0.02734375 0.484375
vt 0.02734375 0.4375
vt 0.03125 0.4375
vt 0.03125 0.453125
vt 0.02734375 0.453125
vt 0.015625 0.453125
vt 0.01953125 0.453125
vt 0.01953125 0.46875
vt 0.015625 0.46875
vt 0.01953125 0.390625
vt 0.0234375 0.390625
vt 0.0234375 0.40625
vt 0.01953125 0.40625
vt 0.02734375 0.40625
vt 0.02734375 0.421875
vt 0.0234375 0.421875
vt 0.01171875 0.421875
vt 0.015625 0.421875
vt 0.015625 0.4375
vt 0.01171875 0.4375
vt 0.01171875 0.390625
vt 0.015625 0.390625
vt 0.015625 0.40625
vt 0.01171875 0.40625
vt 0.01171875 0.453125
vt 0.02734375 0.390625
vt 0.01171875 0.46875
vt 0.01953125 0.421875
vt 0.0234375 0.453125
vt 0.0234375 0.46875
vt 0.01953125 0.4375
vt 0.0078125 0.453125
vt 0.0078125 0.46875
vt 0.01171875 0.484375
vt 0.0078125 0.484375
vt 0.01953125 0.484375
vt 0.015625 0.484375
vt 0.0234375 0.4375
vt 0.03125 0.390625
vt 0.03125 0.40625
vt 0.0234375 0.484375
vt 0.03125 0.421875
vt 0.0078125 0.40625
vt 0.0078125 0.421875
vt 0.0078125 0.4375
vt 0.0078125 0.390625

# Normal
vn 0 0 -1

# Mesh description
g TitleIntro_mesh_0025

# Faces
f 1/1/1 2/2/1 3/3/1 4/4/1
f 5/5/1 6/6/1 7/7/1 8/8/1
f 9/9/1 10/10/1 11/11/1 12/12/1
f 13/13/1 14/14/1 15/15/1 16/16/1
f 17/15/1 18/17/1 19/18/1 20/19/1
f 21/20/1 22/21/1 23/22/1 24/23/1
f 25/20/1 26/21/1 27/22/1 28/23/1
f 29/5/1 30/6/1 31/7/1 32/8/1
f 33/24/1 34/25/1 35/26/1 36/27/1
f 37/23/1 38/22/1 39/9/1 40/28/1
f 41/14/1 42/29/1 43/17/1 44/15/1
f 45/28/1 46/9/1 47/12/1 48/30/1
f 49/16/1 50/15/1 51/19/1 52/31/1
f 53/9/1 54/10/1 55/11/1 56/12/1
f 57/32/1 58/8/1 59/1/1 60/33/1
f 61/21/1 62/31/1 63/34/1 64/22/1
f 65/35/1 66/28/1 67/30/1 68/36/1
f 69/36/1 70/30/1 71/37/1 72/38/1
f 73/20/1 74/21/1 75/22/1 76/23/1
f 77/15/1 78/17/1 79/18/1 80/19/1
f 81/32/1 82/8/1 83/1/1 84/33/1
f 85/12/1 86/11/1 87/39/1 88/40/1
f 89/14/1 90/29/1 91/17/1 92/15/1
f 93/34/1 94/41/1 95/32/1 96/10/1
f 97/41/1 98/5/1 99/8/1 100/32/1
f 101/20/1 102/21/1 103/22/1 104/23/1
f 105/36/1 106/30/1 107/37/1 108/38/1
f 109/36/1 110/30/1 111/37/1 112/38/1
f 113/5/1 114/6/1 115/7/1 116/8/1
f 117/29/1 118/42/1 119/43/1 120/17/1
f 121/34/1 122/41/1 123/32/1 124/10/1
f 125/12/1 126/11/1 127/39/1 128/40/1
f 129/23/1 130/22/1 131/9/1 132/28/1
f 133/22/1 134/34/1 135/10/1 136/9/1
f 137/14/1 138/29/1 139/17/1 140/15/1
f 141/5/1 142/6/1 143/7/1 144/8/1
f 145/20/1 146/21/1 147/22/1 148/23/1
f 149/25/1 150/13/1 151/16/1 152/26/1
f 153/22/1 154/34/1 155/10/1 156/9/1
f 157/33/1 158/1/1 159/4/1 160/44/1
f 161/27/1 162/26/1 163/21/1 164/20/1
f 165/22/1 166/34/1 167/10/1 168/9/1
f 169/13/1 170/14/1 171/15/1 172/16/1
f 173/30/1 174/12/1 175/40/1 176/37/1
f 177/22/1 178/34/1 179/10/1 180/9/1
f 181/8/1 182/7/1 183/2/1 184/1/1
f 185/14/1 186/29/1 187/17/1 188/15/1
f 189/19/1 190/18/1 191/5/1 192/41/1
f 193/10/1 194/32/1 195/33/1 196/11/1
f 197/10/1 198/32/1 199/33/1 200/11/1
f 201/31/1 202/19/1 203/41/1 204/34/1
f 205/11/1 206/33/1 207/44/1 208/39/1
f 209/16/1 210/15/1 211/19/1 212/31/1
f 213/31/1 214/19/1 215/41/1 216/34/1
f 217/29/1 218/42/1 219/43/1 220/17/1
f 221/26/1 222/16/1 223/31/1 224/21/1
f 225/17/1 226/43/1 227/45/1 228/18/1
f 229/5/1 230/6/1 231/7/1 232/8/1
f 233/24/1 234/25/1 235/26/1 236/27/1
f 237/21/1 238/31/1 239/34/1 240/22/1
f 241/17/1 242/43/1 243/45/1 244/18/1
f 245/30/1 246/12/1 247/40/1 248/37/1
f 249/23/1 250/22/1 251/9/1 252/28/1
f 253/1/1 254/2/1 255/3/1 256/4/1
f 257/22/1 258/34/1 259/10/1 260/9/1
f 261/20/1 262/21/1 263/22/1 264/23/1
f 265/19/1 266/18/1 267/5/1 268/41/1
f 269/21/1 270/31/1 271/34/1 272/22/1
f 273/23/1 274/22/1 275/9/1 276/28/1
f 277/36/1 278/30/1 279/37/1 280/38/1
f 281/31/1 282/19/1 283/41/1 284/34/1
f 285/21/1 286/31/1 287/34/1 288/22/1
f 289/9/1 290/10/1 291/11/1 292/12/1
f 293/33/1 294/1/1 295/4/1 296/44/1
f 297/10/1 298/32/1 299/33/1 300/11/1
f 301/22/1 302/34/1 303/10/1 304/9/1
f 305/32/1 306/8/1 307/1/1 308/33/1
f 309/13/1 310/14/1 311/15/1 312/16/1
f 313/19/1 314/18/1 315/5/1 316/41/1
f 317/14/1 318/29/1 319/17/1 320/15/1
f 321/19/1 322/18/1 323/5/1 324/41/1
f 325/14/1 326/29/1 327/17/1 328/15/1
f 329/30/1 330/12/1 331/40/1 332/37/1
f 333/11/1 334/33/1 335/44/1 336/39/1
f 337/5/1 338/6/1 339/7/1 340/8/1
f 341/14/1 342/29/1 343/17/1 344/15/1
f 345/16/1 346/15/1 347/19/1 348/31/1
f 349/41/1 350/5/1 351/8/1 352/32/1
f 353/5/1 354/6/1 355/7/1 356/8/1
f 357/26/1 358/16/1 359/31/1 360/21/1
f 361/13/1 362/14/1 363/15/1 364/16/1
f 365/21/1 366/31/1 367/34/1 368/22/1
f 369/15/1 370/17/1 371/18/1 372/19/1
f 373/34/1 374/41/1 375/32/1 376/10/1
f 377/11/1 378/33/1 379/44/1 380/39/1
f 381/46/1 382/27/1 383/20/1 384/47/1
f 385/13/1 386/14/1 387/15/1 388/16/1
f 389/15/1 390/17/1 391/18/1 392/19/1
f 393/12/1 394/11/1 395/39/1 396/40/1
f 397/9/1 398/10/1 399/11/1 400/12/1
f 401/26/1 402/16/1 403/31/1 404/21/1
f 405/23/1 406/22/1 407/9/1 408/28/1
f 409/13/1 410/14/1 411/15/1 412/16/1
f 413/20/1 414/21/1 415/22/1 416/23/1
f 417/46/1 418/27/1 419/20/1 420/47/1
f 421/41/1 422/5/1 423/8/1 424/32/1
f 425/48/1 426/23/1 427/28/1 428/35/1
f 429/1/1 430/2/1 431/3/1 432/4/1
f 433/34/1 434/41/1 435/32/1 436/10/1
f 437/11/1 438/33/1 439/44/1 440/39/1
f 441/5/1 442/6/1 443/7/1 444/8/1
f 445/46/1 446/27/1 447/20/1 448/47/1
f 449/5/1 450/6/1 451/7/1 452/8/1
f 453/22/1 454/34/1 455/10/1 456/9/1
f 457/5/1 458/6/1 459/7/1 460/8/1
f 461/31/1 462/19/1 463/41/1 464/34/1
f 465/46/1 466/27/1 467/20/1 468/47/1
f 469/36/1 470/30/1 471/37/1 472/38/1
f 473/28/1 474/9/1 475/12/1 476/30/1
f 477/13/1 478/14/1 479/15/1 480/16/1
f 481/33/1 482/1/1 483/4/1 484/44/1
f 485/46/1 486/27/1 487/20/1 488/47/1
f 489/19/1 490/18/1 491/5/1 492/41/1
f 493/47/1 494/20/1 495/23/1 496/48/1
f 497/19/1 498/18/1 499/5/1 500/41/1
f 501/25/1 502/13/1 503/16/1 504/26/1
f 505/20/1 506/21/1 507/22/1 508/23/1
f 509/46/1 510/27/1 511/20/1 512/47/1
f 513/5/1 514/6/1 515/7/1 516/8/1
f 517/21/1 518/31/1 519/34/1 520/22/1
f 521/33/1 522/1/1 523/4/1 524/44/1
f 525/30/1 526/12/1 527/40/1 528/37/1
f 529/8/1 530/7/1 531/2/1 532/1/1
f 533/31/1 534/19/1 535/41/1 536/34/1
f 537/36/1 538/30/1 539/37/1 540/38/1
f 541/29/1 542/42/1 543/43/1 544/17/1
f 545/1/1 546/2/1 547/3/1 548/4/1
f 549/1/1 550/2/1 551/3/1 552/4/1
f 553/12/1 554/11/1 555/39/1 556/40/1
f 557/41/1 558/5/1 559/8/1 560/32/1
f 561/12/1 562/11/1 563/39/1 564/40/1
f 565/28/1 566/9/1 567/12/1 568/30/1
f 569/18/1 570/45/1 571/6/1 572/5/1
f 573/25/1 574/13/1 575/16/1 576/26/1
f 577/30/1 578/12/1 579/40/1 580/37/1
f 581/30/1 582/12/1 583/40/1 584/37/1
f 585/18/1 586/45/1 587/6/1 588/5/1
f 589/27/1 590/26/1 591/21/1 592/20/1
f 593/23/1 594/22/1 595/9/1 596/28/1
f 597/12/1 598/11/1 599/39/1 600/40/1
f 601/30/1 602/12/1 603/40/1 604/37/1
f 605/26/1 606/16/1 607/31/1 608/21/1
f 609/35/1 610/28/1 611/30/1 612/36/1
f 613/24/1 614/25/1 615/26/1 616/27/1
f 617/25/1 618/13/1 619/16/1 620/26/1
f 621/10/1 622/32/1 623/33/1 624/11/1
f 625/29/1 626/42/1 627/43/1 628/17/1
f 629/35/1 630/28/1 631/30/1 632/36/1
f 633/30/1 634/12/1 635/40/1 636/37/1
f 637/5/1 638/6/1 639/7/1 640/8/1
f 641/30/1 642/12/1 643/40/1 644/37/1
f 645/18/1 646/45/1 647/6/1 648/5/1
f 649/48/1 650/23/1 651/28/1 652/35/1
f 653/19/1 654/18/1 655/5/1 656/41/1
f 657/49/1 658/24/1 659/27/1 660/46/1
f 661/8/1 662/7/1 663/2/1 664/1/1
f 665/47/1 666/20/1 667/23/1 668/48/1
f 669/17/1 670/43/1 671/45/1 672/18/1
f 673/1/1 674/2/1 675/3/1 676/4/1
f 677/48/1 678/23/1 679/28/1 680/35/1
f 681/29/1 682/42/1 683/43/1 684/17/1
f 685/5/1 686/6/1 687/7/1 688/8/1
f 689/10/1 690/32/1 691/33/1 692/11/1
f 693/24/1 694/25/1 695/26/1 696/27/1
f 697/34/1 698/41/1 699/32/1 700/10/1
f 701/27/1 702/26/1 703/21/1 704/20/1
f 705/24/1 706/25/1 707/26/1 708/27/1
f 709/1/1 710/2/1 711/3/1 712/4/1
f 713/9/1 714/10/1 715/11/1 716/12/1
f 717/25/1 718/13/1 719/16/1 720/26/1
f 721/23/1 722/22/1 723/9/1 724/28/1
f 725/41/1 726/5/1 727/8/1 728/32/1
f 729/31/1 730/19/1 731/41/1 732/34/1
f 733/15/1 734/17/1 735/18/1 736/19/1
f 737/21/1 738/31/1 739/34/1 740/22/1
f 741/31/1 742/19/1 743/41/1 744/34/1
f 745/14/1 746/29/1 747/17/1 748/15/1
f 749/46/1 750/27/1 751/20/1 752/47/1
f 753/11/1 754/33/1 755/44/1 756/39/1
f 757/32/1 758/8/1 759/1/1 760/33/1
f 761/36/1 762/30/1 763/37/1 764/38/1
f 765/15/1 766/17/1 767/18/1 768/19/1
f 769/8/1 770/7/1 771/2/1 772/1/1
f 773/8/1 774/7/1 775/2/1 776/1/1
f 777/24/1 778/25/1 779/26/1 780/27/1
f 781/34/1 782/41/1 783/32/1 784/10/1
f 785/25/1 786/13/1 787/16/1 788/26/1
f 789/25/1 790/13/1 791/16/1 792/26/1
f 793/19/1 794/18/1 795/5/1 796/41/1
f 797/12/1 798/11/1 799/39/1 800/40/1
f 801/41/1 802/5/1 803/8/1 804/32/1
f 805/34/1 806/41/1 807/32/1 808/10/1
f 809/28/1 810/9/1 811/12/1 812/30/1
f 813/26/1 814/16/1 815/31/1 816/21/1
f 817/23/1 818/22/1 819/9/1 820/28/1
f 821/33/1 822/1/1 823/4/1 824/44/1
f 825/19/1 826/18/1 827/5/1 828/41/1
f 829/11/1 830/33/1 831/44/1 832/39/1
f 833/22/1 834/34/1 835/10/1 836/9/1
f 837/46/1 838/27/1 839/20/1 840/47/1
f 841/47/1 842/20/1 843/23/1 844/48/1
f 845/12/1 846/11/1 847/39/1 848/40/1
f 849/33/1 850/1/1 851/4/1 852/44/1
f 853/21/1 854/31/1 855/34/1 856/22/1
f 857/24/1 858/25/1 859/26/1 860/27/1
f 861/8/1 862/7/1 863/2/1 864/1/1
f 865/11/1 866/33/1 867/44/1 868/39/1
f 869/5/1 870/6/1 871/7/1 872/8/1
f 873/31/1 874/19/1 875/41/1 876/34/1
f 877/17/1 878/43/1 879/45/1 880/18/1
f 881/26/1 882/16/1 883/31/1 884/21/1
f 885/47/1 886/20/1 887/23/1 888/48/1
f 889/49/1 890/24/1 891/27/1 892/46/1
f 893/10/1 894/32/1 895/33/1 896/11/1
f 897/36/1 898/30/1 899/37/1 900/38/1
f 901/33/1 902/1/1 903/4/1 904/44/1
f 905/25/1 906/13/1 907/16/1 908/26/1
f 909/21/1 910/31/1 911/34/1 912/22/1
f 913/12/1 914/11/1 915/39/1 916/40/1
f 917/31/1 918/19/1 919/41/1 920/34/1
f 921/22/1 922/34/1 923/10/1 924/9/1
f 925/48/1 926/23/1 927/28/1 928/35/1
f 929/41/1 930/5/1 931/8/1 932/32/1
f 933/48/1 934/23/1 935/28/1 936/35/1
f 937/23/1 938/22/1 939/9/1 940/28/1
f 941/5/1 942/6/1 943/7/1 944/8/1
f 945/47/1 946/20/1 947/23/1 948/48/1
f 949/33/1 950/1/1 951/4/1 952/44/1
f 953/34/1 954/41/1 955/32/1 956/10/1
f 957/47/1 958/20/1 959/23/1 960/48/1
f 961/49/1 962/24/1 963/27/1 964/46/1
f 965/22/1 966/34/1 967/10/1 968/9/1
f 969/13/1 970/14/1 971/15/1 972/16/1
f 973/41/1 974/5/1 975/8/1 976/32/1
f 977/35/1 978/28/1 979/30/1 980/36/1
f 981/11/1 982/33/1 983/44/1 984/39/1
f 985/48/1 986/23/1 987/28/1 988/35/1
f 989/17/1 990/43/1 991/45/1 992/18/1
f 993/30/1 994/12/1 995/40/1 996/37/1
f 997/41/1 998/5/1 999/8/1 1000/32/1
f 1001/10/1 1002/32/1 1003/33/1 1004/11/1
f 1005/8/1 1006/7/1 1007/2/1 1008/1/1
f 1009/14/1 1010/29/1 1011/17/1 1012/15/1
f 1013/11/1 1014/33/1 1015/44/1 1016/39/1
f 1017/23/1 1018/22/1 1019/9/1 1020/28/1
f 1021/22/1 1022/34/1 1023/10/1 1024/9/1

