# Tiled2Unity generated file. Do not modify by hand.
# Wavefront file for 'TitleIntro_mesh_0062.obj'

# Vertices (Count = 1024)
v 0 -16 0
v -16 -16 0
v -16 0 0
v 0 0 0
v -16 -16 0
v -32 -16 0
v -32 0 0
v -16 0 0
v -32 -16 0
v -48 -16 0
v -48 0 0
v -32 0 0
v -48 -16 0
v -64 -16 0
v -64 0 0
v -48 0 0
v -64 -16 0
v -80 -16 0
v -80 0 0
v -64 0 0
v -80 -16 0
v -96 -16 0
v -96 0 0
v -80 0 0
v -96 -16 0
v -112 -16 0
v -112 0 0
v -96 0 0
v -112 -16 0
v -128 -16 0
v -128 0 0
v -112 0 0
v -128 -16 0
v -144 -16 0
v -144 0 0
v -128 0 0
v -144 -16 0
v -160 -16 0
v -160 0 0
v -144 0 0
v -160 -16 0
v -176 -16 0
v -176 0 0
v -160 0 0
v -176 -16 0
v -192 -16 0
v -192 0 0
v -176 0 0
v -192 -16 0
v -208 -16 0
v -208 0 0
v -192 0 0
v -208 -16 0
v -224 -16 0
v -224 0 0
v -208 0 0
v -224 -16 0
v -240 -16 0
v -240 0 0
v -224 0 0
v -240 -16 0
v -256 -16 0
v -256 0 0
v -240 0 0
v 0 -32 0
v -16 -32 0
v -16 -16 0
v 0 -16 0
v -16 -32 0
v -32 -32 0
v -32 -16 0
v -16 -16 0
v -32 -32 0
v -48 -32 0
v -48 -16 0
v -32 -16 0
v -48 -32 0
v -64 -32 0
v -64 -16 0
v -48 -16 0
v -64 -32 0
v -80 -32 0
v -80 -16 0
v -64 -16 0
v -80 -32 0
v -96 -32 0
v -96 -16 0
v -80 -16 0
v -96 -32 0
v -112 -32 0
v -112 -16 0
v -96 -16 0
v -112 -32 0
v -128 -32 0
v -128 -16 0
v -112 -16 0
v -128 -32 0
v -144 -32 0
v -144 -16 0
v -128 -16 0
v -144 -32 0
v -160 -32 0
v -160 -16 0
v -144 -16 0
v -160 -32 0
v -176 -32 0
v -176 -16 0
v -160 -16 0
v -176 -32 0
v -192 -32 0
v -192 -16 0
v -176 -16 0
v -192 -32 0
v -208 -32 0
v -208 -16 0
v -192 -16 0
v -208 -32 0
v -224 -32 0
v -224 -16 0
v -208 -16 0
v -224 -32 0
v -240 -32 0
v -240 -16 0
v -224 -16 0
v -240 -32 0
v -256 -32 0
v -256 -16 0
v -240 -16 0
v 0 -48 0
v -16 -48 0
v -16 -32 0
v 0 -32 0
v -16 -48 0
v -32 -48 0
v -32 -32 0
v -16 -32 0
v -32 -48 0
v -48 -48 0
v -48 -32 0
v -32 -32 0
v -48 -48 0
v -64 -48 0
v -64 -32 0
v -48 -32 0
v -64 -48 0
v -80 -48 0
v -80 -32 0
v -64 -32 0
v -80 -48 0
v -96 -48 0
v -96 -32 0
v -80 -32 0
v -96 -48 0
v -112 -48 0
v -112 -32 0
v -96 -32 0
v -112 -48 0
v -128 -48 0
v -128 -32 0
v -112 -32 0
v -128 -48 0
v -144 -48 0
v -144 -32 0
v -128 -32 0
v -144 -48 0
v -160 -48 0
v -160 -32 0
v -144 -32 0
v -160 -48 0
v -176 -48 0
v -176 -32 0
v -160 -32 0
v -176 -48 0
v -192 -48 0
v -192 -32 0
v -176 -32 0
v -192 -48 0
v -208 -48 0
v -208 -32 0
v -192 -32 0
v -208 -48 0
v -224 -48 0
v -224 -32 0
v -208 -32 0
v -224 -48 0
v -240 -48 0
v -240 -32 0
v -224 -32 0
v -240 -48 0
v -256 -48 0
v -256 -32 0
v -240 -32 0
v 0 -64 0
v -16 -64 0
v -16 -48 0
v 0 -48 0
v -16 -64 0
v -32 -64 0
v -32 -48 0
v -16 -48 0
v -32 -64 0
v -48 -64 0
v -48 -48 0
v -32 -48 0
v -48 -64 0
v -64 -64 0
v -64 -48 0
v -48 -48 0
v -64 -64 0
v -80 -64 0
v -80 -48 0
v -64 -48 0
v -80 -64 0
v -96 -64 0
v -96 -48 0
v -80 -48 0
v -96 -64 0
v -112 -64 0
v -112 -48 0
v -96 -48 0
v -112 -64 0
v -128 -64 0
v -128 -48 0
v -112 -48 0
v -128 -64 0
v -144 -64 0
v -144 -48 0
v -128 -48 0
v -144 -64 0
v -160 -64 0
v -160 -48 0
v -144 -48 0
v -160 -64 0
v -176 -64 0
v -176 -48 0
v -160 -48 0
v -176 -64 0
v -192 -64 0
v -192 -48 0
v -176 -48 0
v -192 -64 0
v -208 -64 0
v -208 -48 0
v -192 -48 0
v -208 -64 0
v -224 -64 0
v -224 -48 0
v -208 -48 0
v -224 -64 0
v -240 -64 0
v -240 -48 0
v -224 -48 0
v -240 -64 0
v -256 -64 0
v -256 -48 0
v -240 -48 0
v 0 -80 0
v -16 -80 0
v -16 -64 0
v 0 -64 0
v -16 -80 0
v -32 -80 0
v -32 -64 0
v -16 -64 0
v -32 -80 0
v -48 -80 0
v -48 -64 0
v -32 -64 0
v -48 -80 0
v -64 -80 0
v -64 -64 0
v -48 -64 0
v -64 -80 0
v -80 -80 0
v -80 -64 0
v -64 -64 0
v -80 -80 0
v -96 -80 0
v -96 -64 0
v -80 -64 0
v -96 -80 0
v -112 -80 0
v -112 -64 0
v -96 -64 0
v -112 -80 0
v -128 -80 0
v -128 -64 0
v -112 -64 0
v -128 -80 0
v -144 -80 0
v -144 -64 0
v -128 -64 0
v -144 -80 0
v -160 -80 0
v -160 -64 0
v -144 -64 0
v -160 -80 0
v -176 -80 0
v -176 -64 0
v -160 -64 0
v -176 -80 0
v -192 -80 0
v -192 -64 0
v -176 -64 0
v -192 -80 0
v -208 -80 0
v -208 -64 0
v -192 -64 0
v -208 -80 0
v -224 -80 0
v -224 -64 0
v -208 -64 0
v -224 -80 0
v -240 -80 0
v -240 -64 0
v -224 -64 0
v -240 -80 0
v -256 -80 0
v -256 -64 0
v -240 -64 0
v 0 -96 0
v -16 -96 0
v -16 -80 0
v 0 -80 0
v -16 -96 0
v -32 -96 0
v -32 -80 0
v -16 -80 0
v -32 -96 0
v -48 -96 0
v -48 -80 0
v -32 -80 0
v -48 -96 0
v -64 -96 0
v -64 -80 0
v -48 -80 0
v -64 -96 0
v -80 -96 0
v -80 -80 0
v -64 -80 0
v -80 -96 0
v -96 -96 0
v -96 -80 0
v -80 -80 0
v -96 -96 0
v -112 -96 0
v -112 -80 0
v -96 -80 0
v -112 -96 0
v -128 -96 0
v -128 -80 0
v -112 -80 0
v -128 -96 0
v -144 -96 0
v -144 -80 0
v -128 -80 0
v -144 -96 0
v -160 -96 0
v -160 -80 0
v -144 -80 0
v -160 -96 0
v -176 -96 0
v -176 -80 0
v -160 -80 0
v -176 -96 0
v -192 -96 0
v -192 -80 0
v -176 -80 0
v -192 -96 0
v -208 -96 0
v -208 -80 0
v -192 -80 0
v -208 -96 0
v -224 -96 0
v -224 -80 0
v -208 -80 0
v -224 -96 0
v -240 -96 0
v -240 -80 0
v -224 -80 0
v -240 -96 0
v -256 -96 0
v -256 -80 0
v -240 -80 0
v 0 -112 0
v -16 -112 0
v -16 -96 0
v 0 -96 0
v -16 -112 0
v -32 -112 0
v -32 -96 0
v -16 -96 0
v -32 -112 0
v -48 -112 0
v -48 -96 0
v -32 -96 0
v -48 -112 0
v -64 -112 0
v -64 -96 0
v -48 -96 0
v -64 -112 0
v -80 -112 0
v -80 -96 0
v -64 -96 0
v -80 -112 0
v -96 -112 0
v -96 -96 0
v -80 -96 0
v -96 -112 0
v -112 -112 0
v -112 -96 0
v -96 -96 0
v -112 -112 0
v -128 -112 0
v -128 -96 0
v -112 -96 0
v -128 -112 0
v -144 -112 0
v -144 -96 0
v -128 -96 0
v -144 -112 0
v -160 -112 0
v -160 -96 0
v -144 -96 0
v -160 -112 0
v -176 -112 0
v -176 -96 0
v -160 -96 0
v -176 -112 0
v -192 -112 0
v -192 -96 0
v -176 -96 0
v -192 -112 0
v -208 -112 0
v -208 -96 0
v -192 -96 0
v -208 -112 0
v -224 -112 0
v -224 -96 0
v -208 -96 0
v -224 -112 0
v -240 -112 0
v -240 -96 0
v -224 -96 0
v -240 -112 0
v -256 -112 0
v -256 -96 0
v -240 -96 0
v 0 -128 0
v -16 -128 0
v -16 -112 0
v 0 -112 0
v -16 -128 0
v -32 -128 0
v -32 -112 0
v -16 -112 0
v -32 -128 0
v -48 -128 0
v -48 -112 0
v -32 -112 0
v -48 -128 0
v -64 -128 0
v -64 -112 0
v -48 -112 0
v -64 -128 0
v -80 -128 0
v -80 -112 0
v -64 -112 0
v -80 -128 0
v -96 -128 0
v -96 -112 0
v -80 -112 0
v -96 -128 0
v -112 -128 0
v -112 -112 0
v -96 -112 0
v -112 -128 0
v -128 -128 0
v -128 -112 0
v -112 -112 0
v -128 -128 0
v -144 -128 0
v -144 -112 0
v -128 -112 0
v -144 -128 0
v -160 -128 0
v -160 -112 0
v -144 -112 0
v -160 -128 0
v -176 -128 0
v -176 -112 0
v -160 -112 0
v -176 -128 0
v -192 -128 0
v -192 -112 0
v -176 -112 0
v -192 -128 0
v -208 -128 0
v -208 -112 0
v -192 -112 0
v -208 -128 0
v -224 -128 0
v -224 -112 0
v -208 -112 0
v -224 -128 0
v -240 -128 0
v -240 -112 0
v -224 -112 0
v -240 -128 0
v -256 -128 0
v -256 -112 0
v -240 -112 0
v 0 -144 0
v -16 -144 0
v -16 -128 0
v 0 -128 0
v -16 -144 0
v -32 -144 0
v -32 -128 0
v -16 -128 0
v -32 -144 0
v -48 -144 0
v -48 -128 0
v -32 -128 0
v -48 -144 0
v -64 -144 0
v -64 -128 0
v -48 -128 0
v -64 -144 0
v -80 -144 0
v -80 -128 0
v -64 -128 0
v -80 -144 0
v -96 -144 0
v -96 -128 0
v -80 -128 0
v -96 -144 0
v -112 -144 0
v -112 -128 0
v -96 -128 0
v -112 -144 0
v -128 -144 0
v -128 -128 0
v -112 -128 0
v -128 -144 0
v -144 -144 0
v -144 -128 0
v -128 -128 0
v -144 -144 0
v -160 -144 0
v -160 -128 0
v -144 -128 0
v -160 -144 0
v -176 -144 0
v -176 -128 0
v -160 -128 0
v -176 -144 0
v -192 -144 0
v -192 -128 0
v -176 -128 0
v -192 -144 0
v -208 -144 0
v -208 -128 0
v -192 -128 0
v -208 -144 0
v -224 -144 0
v -224 -128 0
v -208 -128 0
v -224 -144 0
v -240 -144 0
v -240 -128 0
v -224 -128 0
v -240 -144 0
v -256 -144 0
v -256 -128 0
v -240 -128 0
v 0 -160 0
v -16 -160 0
v -16 -144 0
v 0 -144 0
v -16 -160 0
v -32 -160 0
v -32 -144 0
v -16 -144 0
v -32 -160 0
v -48 -160 0
v -48 -144 0
v -32 -144 0
v -48 -160 0
v -64 -160 0
v -64 -144 0
v -48 -144 0
v -64 -160 0
v -80 -160 0
v -80 -144 0
v -64 -144 0
v -80 -160 0
v -96 -160 0
v -96 -144 0
v -80 -144 0
v -96 -160 0
v -112 -160 0
v -112 -144 0
v -96 -144 0
v -112 -160 0
v -128 -160 0
v -128 -144 0
v -112 -144 0
v -128 -160 0
v -144 -160 0
v -144 -144 0
v -128 -144 0
v -144 -160 0
v -160 -160 0
v -160 -144 0
v -144 -144 0
v -160 -160 0
v -176 -160 0
v -176 -144 0
v -160 -144 0
v -176 -160 0
v -192 -160 0
v -192 -144 0
v -176 -144 0
v -192 -160 0
v -208 -160 0
v -208 -144 0
v -192 -144 0
v -208 -160 0
v -224 -160 0
v -224 -144 0
v -208 -144 0
v -224 -160 0
v -240 -160 0
v -240 -144 0
v -224 -144 0
v -240 -160 0
v -256 -160 0
v -256 -144 0
v -240 -144 0
v 0 -176 0
v -16 -176 0
v -16 -160 0
v 0 -160 0
v -16 -176 0
v -32 -176 0
v -32 -160 0
v -16 -160 0
v -32 -176 0
v -48 -176 0
v -48 -160 0
v -32 -160 0
v -48 -176 0
v -64 -176 0
v -64 -160 0
v -48 -160 0
v -64 -176 0
v -80 -176 0
v -80 -160 0
v -64 -160 0
v -80 -176 0
v -96 -176 0
v -96 -160 0
v -80 -160 0
v -96 -176 0
v -112 -176 0
v -112 -160 0
v -96 -160 0
v -112 -176 0
v -128 -176 0
v -128 -160 0
v -112 -160 0
v -128 -176 0
v -144 -176 0
v -144 -160 0
v -128 -160 0
v -144 -176 0
v -160 -176 0
v -160 -160 0
v -144 -160 0
v -160 -176 0
v -176 -176 0
v -176 -160 0
v -160 -160 0
v -176 -176 0
v -192 -176 0
v -192 -160 0
v -176 -160 0
v -192 -176 0
v -208 -176 0
v -208 -160 0
v -192 -160 0
v -208 -176 0
v -224 -176 0
v -224 -160 0
v -208 -160 0
v -224 -176 0
v -240 -176 0
v -240 -160 0
v -224 -160 0
v -240 -176 0
v -256 -176 0
v -256 -160 0
v -240 -160 0
v 0 -192 0
v -16 -192 0
v -16 -176 0
v 0 -176 0
v -16 -192 0
v -32 -192 0
v -32 -176 0
v -16 -176 0
v -32 -192 0
v -48 -192 0
v -48 -176 0
v -32 -176 0
v -48 -192 0
v -64 -192 0
v -64 -176 0
v -48 -176 0
v -64 -192 0
v -80 -192 0
v -80 -176 0
v -64 -176 0
v -80 -192 0
v -96 -192 0
v -96 -176 0
v -80 -176 0
v -96 -192 0
v -112 -192 0
v -112 -176 0
v -96 -176 0
v -112 -192 0
v -128 -192 0
v -128 -176 0
v -112 -176 0
v -128 -192 0
v -144 -192 0
v -144 -176 0
v -128 -176 0
v -144 -192 0
v -160 -192 0
v -160 -176 0
v -144 -176 0
v -160 -192 0
v -176 -192 0
v -176 -176 0
v -160 -176 0
v -176 -192 0
v -192 -192 0
v -192 -176 0
v -176 -176 0
v -192 -192 0
v -208 -192 0
v -208 -176 0
v -192 -176 0
v -208 -192 0
v -224 -192 0
v -224 -176 0
v -208 -176 0
v -224 -192 0
v -240 -192 0
v -240 -176 0
v -224 -176 0
v -240 -192 0
v -256 -192 0
v -256 -176 0
v -240 -176 0
v 0 -208 0
v -16 -208 0
v -16 -192 0
v 0 -192 0
v -16 -208 0
v -32 -208 0
v -32 -192 0
v -16 -192 0
v -32 -208 0
v -48 -208 0
v -48 -192 0
v -32 -192 0
v -48 -208 0
v -64 -208 0
v -64 -192 0
v -48 -192 0
v -64 -208 0
v -80 -208 0
v -80 -192 0
v -64 -192 0
v -80 -208 0
v -96 -208 0
v -96 -192 0
v -80 -192 0
v -96 -208 0
v -112 -208 0
v -112 -192 0
v -96 -192 0
v -112 -208 0
v -128 -208 0
v -128 -192 0
v -112 -192 0
v -128 -208 0
v -144 -208 0
v -144 -192 0
v -128 -192 0
v -144 -208 0
v -160 -208 0
v -160 -192 0
v -144 -192 0
v -160 -208 0
v -176 -208 0
v -176 -192 0
v -160 -192 0
v -176 -208 0
v -192 -208 0
v -192 -192 0
v -176 -192 0
v -192 -208 0
v -208 -208 0
v -208 -192 0
v -192 -192 0
v -208 -208 0
v -224 -208 0
v -224 -192 0
v -208 -192 0
v -224 -208 0
v -240 -208 0
v -240 -192 0
v -224 -192 0
v -240 -208 0
v -256 -208 0
v -256 -192 0
v -240 -192 0
v 0 -224 0
v -16 -224 0
v -16 -208 0
v 0 -208 0
v -16 -224 0
v -32 -224 0
v -32 -208 0
v -16 -208 0
v -32 -224 0
v -48 -224 0
v -48 -208 0
v -32 -208 0
v -48 -224 0
v -64 -224 0
v -64 -208 0
v -48 -208 0
v -64 -224 0
v -80 -224 0
v -80 -208 0
v -64 -208 0
v -80 -224 0
v -96 -224 0
v -96 -208 0
v -80 -208 0
v -96 -224 0
v -112 -224 0
v -112 -208 0
v -96 -208 0
v -112 -224 0
v -128 -224 0
v -128 -208 0
v -112 -208 0
v -128 -224 0
v -144 -224 0
v -144 -208 0
v -128 -208 0
v -144 -224 0
v -160 -224 0
v -160 -208 0
v -144 -208 0
v -160 -224 0
v -176 -224 0
v -176 -208 0
v -160 -208 0
v -176 -224 0
v -192 -224 0
v -192 -208 0
v -176 -208 0
v -192 -224 0
v -208 -224 0
v -208 -208 0
v -192 -208 0
v -208 -224 0
v -224 -224 0
v -224 -208 0
v -208 -208 0
v -224 -224 0
v -240 -224 0
v -240 -208 0
v -224 -208 0
v -240 -224 0
v -256 -224 0
v -256 -208 0
v -240 -208 0
v 0 -240 0
v -16 -240 0
v -16 -224 0
v 0 -224 0
v -16 -240 0
v -32 -240 0
v -32 -224 0
v -16 -224 0
v -32 -240 0
v -48 -240 0
v -48 -224 0
v -32 -224 0
v -48 -240 0
v -64 -240 0
v -64 -224 0
v -48 -224 0
v -64 -240 0
v -80 -240 0
v -80 -224 0
v -64 -224 0
v -80 -240 0
v -96 -240 0
v -96 -224 0
v -80 -224 0
v -96 -240 0
v -112 -240 0
v -112 -224 0
v -96 -224 0
v -112 -240 0
v -128 -240 0
v -128 -224 0
v -112 -224 0
v -128 -240 0
v -144 -240 0
v -144 -224 0
v -128 -224 0
v -144 -240 0
v -160 -240 0
v -160 -224 0
v -144 -224 0
v -160 -240 0
v -176 -240 0
v -176 -224 0
v -160 -224 0
v -176 -240 0
v -192 -240 0
v -192 -224 0
v -176 -224 0
v -192 -240 0
v -208 -240 0
v -208 -224 0
v -192 -224 0
v -208 -240 0
v -224 -240 0
v -224 -224 0
v -208 -224 0
v -224 -240 0
v -240 -240 0
v -240 -224 0
v -224 -224 0
v -240 -240 0
v -256 -240 0
v -256 -224 0
v -240 -224 0
v 0 -256 0
v -16 -256 0
v -16 -240 0
v 0 -240 0
v -16 -256 0
v -32 -256 0
v -32 -240 0
v -16 -240 0
v -32 -256 0
v -48 -256 0
v -48 -240 0
v -32 -240 0
v -48 -256 0
v -64 -256 0
v -64 -240 0
v -48 -240 0
v -64 -256 0
v -80 -256 0
v -80 -240 0
v -64 -240 0
v -80 -256 0
v -96 -256 0
v -96 -240 0
v -80 -240 0
v -96 -256 0
v -112 -256 0
v -112 -240 0
v -96 -240 0
v -112 -256 0
v -128 -256 0
v -128 -240 0
v -112 -240 0
v -128 -256 0
v -144 -256 0
v -144 -240 0
v -128 -240 0
v -144 -256 0
v -160 -256 0
v -160 -240 0
v -144 -240 0
v -160 -256 0
v -176 -256 0
v -176 -240 0
v -160 -240 0
v -176 -256 0
v -192 -256 0
v -192 -240 0
v -176 -240 0
v -192 -256 0
v -208 -256 0
v -208 -240 0
v -192 -240 0
v -208 -256 0
v -224 -256 0
v -224 -240 0
v -208 -240 0
v -224 -256 0
v -240 -256 0
v -240 -240 0
v -224 -240 0
v -240 -256 0
v -256 -256 0
v -256 -240 0
v -240 -240 0

# Texture cooridinates (Count = 49)
vt 0.0078125 0.453125
vt 0.01171875 0.453125
vt 0.01171875 0.46875
vt 0.0078125 0.46875
vt 0.015625 0.46875
vt 0.01953125 0.46875
vt 0.01953125 0.484375
vt 0.015625 0.484375
vt 0.02734375 0.46875
vt 0.03125 0.46875
vt 0.03125 0.484375
vt 0.02734375 0.484375
vt 0.0234375 0.421875
vt 0.02734375 0.421875
vt 0.02734375 0.4375
vt 0.0234375 0.4375
vt 0.03125 0.4375
vt 0.03125 0.453125
vt 0.02734375 0.453125
vt 0.01171875 0.484375
vt 0.0078125 0.484375
vt 0.0234375 0.453125
vt 0.015625 0.453125
vt 0.0234375 0.46875
vt 0.0234375 0.484375
vt 0.01953125 0.4375
vt 0.01953125 0.453125
vt 0.0078125 0.40625
vt 0.01171875 0.40625
vt 0.01171875 0.421875
vt 0.0078125 0.421875
vt 0.0234375 0.40625
vt 0.02734375 0.40625
vt 0.0078125 0.390625
vt 0.01171875 0.390625
vt 0.01171875 0.4375
vt 0.0078125 0.4375
vt 0.03125 0.40625
vt 0.03125 0.421875
vt 0.015625 0.4375
vt 0.015625 0.390625
vt 0.015625 0.40625
vt 0.015625 0.421875
vt 0.01953125 0.390625
vt 0.01953125 0.40625
vt 0.01953125 0.421875
vt 0.0234375 0.390625
vt 0.02734375 0.390625
vt 0.03125 0.390625

# Normal
vn 0 0 -1

# Mesh description
g TitleIntro_mesh_0062

# Faces
f 1/1/1 2/2/1 3/3/1 4/4/1
f 5/5/1 6/6/1 7/7/1 8/8/1
f 9/9/1 10/10/1 11/11/1 12/12/1
f 13/13/1 14/14/1 15/15/1 16/16/1
f 17/15/1 18/17/1 19/18/1 20/19/1
f 21/4/1 22/3/1 23/20/1 24/21/1
f 25/16/1 26/15/1 27/19/1 28/22/1
f 29/2/1 30/23/1 31/5/1 32/3/1
f 33/24/1 34/9/1 35/12/1 36/25/1
f 37/26/1 38/16/1 39/22/1 40/27/1
f 41/4/1 42/3/1 43/20/1 44/21/1
f 45/28/1 46/29/1 47/30/1 48/31/1
f 49/22/1 50/19/1 51/9/1 52/24/1
f 53/32/1 54/33/1 55/14/1 56/13/1
f 57/9/1 58/10/1 59/11/1 60/12/1
f 61/27/1 62/22/1 63/24/1 64/6/1
f 65/34/1 66/35/1 67/29/1 68/28/1
f 69/34/1 70/35/1 71/29/1 72/28/1
f 73/27/1 74/22/1 75/24/1 76/6/1
f 77/15/1 78/17/1 79/18/1 80/19/1
f 81/31/1 82/30/1 83/36/1 84/37/1
f 85/34/1 86/35/1 87/29/1 88/28/1
f 89/1/1 90/2/1 91/3/1 92/4/1
f 93/26/1 94/16/1 95/22/1 96/27/1
f 97/33/1 98/38/1 99/39/1 100/14/1
f 101/1/1 102/2/1 103/3/1 104/4/1
f 105/2/1 106/23/1 107/5/1 108/3/1
f 109/33/1 110/38/1 111/39/1 112/14/1
f 113/13/1 114/14/1 115/15/1 116/16/1
f 117/40/1 118/26/1 119/27/1 120/23/1
f 121/35/1 122/41/1 123/42/1 124/29/1
f 125/37/1 126/36/1 127/2/1 128/1/1
f 129/35/1 130/41/1 131/42/1 132/29/1
f 133/14/1 134/39/1 135/17/1 136/15/1
f 137/31/1 138/30/1 139/36/1 140/37/1
f 141/29/1 142/42/1 143/43/1 144/30/1
f 145/16/1 146/15/1 147/19/1 148/22/1
f 149/40/1 150/26/1 151/27/1 152/23/1
f 153/41/1 154/44/1 155/45/1 156/42/1
f 157/46/1 158/13/1 159/16/1 160/26/1
f 161/30/1 162/43/1 163/40/1 164/36/1
f 165/16/1 166/15/1 167/19/1 168/22/1
f 169/47/1 170/48/1 171/33/1 172/32/1
f 173/27/1 174/22/1 175/24/1 176/6/1
f 177/9/1 178/10/1 179/11/1 180/12/1
f 181/26/1 182/16/1 183/22/1 184/27/1
f 185/42/1 186/45/1 187/46/1 188/43/1
f 189/46/1 190/13/1 191/16/1 192/26/1
f 193/4/1 194/3/1 195/20/1 196/21/1
f 197/2/1 198/23/1 199/5/1 200/3/1
f 201/40/1 202/26/1 203/27/1 204/23/1
f 205/19/1 206/18/1 207/10/1 208/9/1
f 209/28/1 210/29/1 211/30/1 212/31/1
f 213/6/1 214/24/1 215/25/1 216/7/1
f 217/45/1 218/32/1 219/13/1 220/46/1
f 221/37/1 222/36/1 223/2/1 224/1/1
f 225/13/1 226/14/1 227/15/1 228/16/1
f 229/46/1 230/13/1 231/16/1 232/26/1
f 233/45/1 234/32/1 235/13/1 236/46/1
f 237/33/1 238/38/1 239/39/1 240/14/1
f 241/27/1 242/22/1 243/24/1 244/6/1
f 245/36/1 246/40/1 247/23/1 248/2/1
f 249/4/1 250/3/1 251/20/1 252/21/1
f 253/5/1 254/6/1 255/7/1 256/8/1
f 257/6/1 258/24/1 259/25/1 260/7/1
f 261/28/1 262/29/1 263/30/1 264/31/1
f 265/1/1 266/2/1 267/3/1 268/4/1
f 269/13/1 270/14/1 271/15/1 272/16/1
f 273/5/1 274/6/1 275/7/1 276/8/1
f 277/33/1 278/38/1 279/39/1 280/14/1
f 281/37/1 282/36/1 283/2/1 284/1/1
f 285/16/1 286/15/1 287/19/1 288/22/1
f 289/4/1 290/3/1 291/20/1 292/21/1
f 293/32/1 294/33/1 295/14/1 296/13/1
f 297/42/1 298/45/1 299/46/1 300/43/1
f 301/29/1 302/42/1 303/43/1 304/30/1
f 305/41/1 306/44/1 307/45/1 308/42/1
f 309/19/1 310/18/1 311/10/1 312/9/1
f 313/36/1 314/40/1 315/23/1 316/2/1
f 317/44/1 318/47/1 319/32/1 320/45/1
f 321/15/1 322/17/1 323/18/1 324/19/1
f 325/37/1 326/36/1 327/2/1 328/1/1
f 329/26/1 330/16/1 331/22/1 332/27/1
f 333/22/1 334/19/1 335/9/1 336/24/1
f 337/33/1 338/38/1 339/39/1 340/14/1
f 341/32/1 342/33/1 343/14/1 344/13/1
f 345/16/1 346/15/1 347/19/1 348/22/1
f 349/26/1 350/16/1 351/22/1 352/27/1
f 353/43/1 354/46/1 355/26/1 356/40/1
f 357/3/1 358/5/1 359/8/1 360/20/1
f 361/30/1 362/43/1 363/40/1 364/36/1
f 365/45/1 366/32/1 367/13/1 368/46/1
f 369/26/1 370/16/1 371/22/1 372/27/1
f 373/46/1 374/13/1 375/16/1 376/26/1
f 377/24/1 378/9/1 379/12/1 380/25/1
f 381/27/1 382/22/1 383/24/1 384/6/1
f 385/16/1 386/15/1 387/19/1 388/22/1
f 389/36/1 390/40/1 391/23/1 392/2/1
f 393/31/1 394/30/1 395/36/1 396/37/1
f 397/2/1 398/23/1 399/5/1 400/3/1
f 401/48/1 402/49/1 403/38/1 404/33/1
f 405/40/1 406/26/1 407/27/1 408/23/1
f 409/26/1 410/16/1 411/22/1 412/27/1
f 413/28/1 414/29/1 415/30/1 416/31/1
f 417/41/1 418/44/1 419/45/1 420/42/1
f 421/31/1 422/30/1 423/36/1 424/37/1
f 425/23/1 426/27/1 427/6/1 428/5/1
f 429/47/1 430/48/1 431/33/1 432/32/1
f 433/42/1 434/45/1 435/46/1 436/43/1
f 437/47/1 438/48/1 439/33/1 440/32/1
f 441/9/1 442/10/1 443/11/1 444/12/1
f 445/36/1 446/40/1 447/23/1 448/2/1
f 449/46/1 450/13/1 451/16/1 452/26/1
f 453/2/1 454/23/1 455/5/1 456/3/1
f 457/3/1 458/5/1 459/8/1 460/20/1
f 461/43/1 462/46/1 463/26/1 464/40/1
f 465/48/1 466/49/1 467/38/1 468/33/1
f 469/46/1 470/13/1 471/16/1 472/26/1
f 473/4/1 474/3/1 475/20/1 476/21/1
f 477/48/1 478/49/1 479/38/1 480/33/1
f 481/43/1 482/46/1 483/26/1 484/40/1
f 485/28/1 486/29/1 487/30/1 488/31/1
f 489/35/1 490/41/1 491/42/1 492/29/1
f 493/41/1 494/44/1 495/45/1 496/42/1
f 497/41/1 498/44/1 499/45/1 500/42/1
f 501/27/1 502/22/1 503/24/1 504/6/1
f 505/45/1 506/32/1 507/13/1 508/46/1
f 509/29/1 510/42/1 511/43/1 512/30/1
f 513/46/1 514/13/1 515/16/1 516/26/1
f 517/40/1 518/26/1 519/27/1 520/23/1
f 521/28/1 522/29/1 523/30/1 524/31/1
f 525/2/1 526/23/1 527/5/1 528/3/1
f 529/19/1 530/18/1 531/10/1 532/9/1
f 533/34/1 534/35/1 535/29/1 536/28/1
f 537/30/1 538/43/1 539/40/1 540/36/1
f 541/1/1 542/2/1 543/3/1 544/4/1
f 545/30/1 546/43/1 547/40/1 548/36/1
f 549/34/1 550/35/1 551/29/1 552/28/1
f 553/1/1 554/2/1 555/3/1 556/4/1
f 557/5/1 558/6/1 559/7/1 560/8/1
f 561/34/1 562/35/1 563/29/1 564/28/1
f 565/24/1 566/9/1 567/12/1 568/25/1
f 569/5/1 570/6/1 571/7/1 572/8/1
f 573/4/1 574/3/1 575/20/1 576/21/1
f 577/16/1 578/15/1 579/19/1 580/22/1
f 581/28/1 582/29/1 583/30/1 584/31/1
f 585/29/1 586/42/1 587/43/1 588/30/1
f 589/5/1 590/6/1 591/7/1 592/8/1
f 593/23/1 594/27/1 595/6/1 596/5/1
f 597/44/1 598/47/1 599/32/1 600/45/1
f 601/1/1 602/2/1 603/3/1 604/4/1
f 605/14/1 606/39/1 607/17/1 608/15/1
f 609/32/1 610/33/1 611/14/1 612/13/1
f 613/35/1 614/41/1 615/42/1 616/29/1
f 617/44/1 618/47/1 619/32/1 620/45/1
f 621/43/1 622/46/1 623/26/1 624/40/1
f 625/14/1 626/39/1 627/17/1 628/15/1
f 629/27/1 630/22/1 631/24/1 632/6/1
f 633/36/1 634/40/1 635/23/1 636/2/1
f 637/46/1 638/13/1 639/16/1 640/26/1
f 641/47/1 642/48/1 643/33/1 644/32/1
f 645/47/1 646/48/1 647/33/1 648/32/1
f 649/41/1 650/44/1 651/45/1 652/42/1
f 653/42/1 654/45/1 655/46/1 656/43/1
f 657/27/1 658/22/1 659/24/1 660/6/1
f 661/23/1 662/27/1 663/6/1 664/5/1
f 665/31/1 666/30/1 667/36/1 668/37/1
f 669/40/1 670/26/1 671/27/1 672/23/1
f 673/34/1 674/35/1 675/29/1 676/28/1
f 677/47/1 678/48/1 679/33/1 680/32/1
f 681/31/1 682/30/1 683/36/1 684/37/1
f 685/34/1 686/35/1 687/29/1 688/28/1
f 689/32/1 690/33/1 691/14/1 692/13/1
f 693/48/1 694/49/1 695/38/1 696/33/1
f 697/30/1 698/43/1 699/40/1 700/36/1
f 701/43/1 702/46/1 703/26/1 704/40/1
f 705/44/1 706/47/1 707/32/1 708/45/1
f 709/1/1 710/2/1 711/3/1 712/4/1
f 713/30/1 714/43/1 715/40/1 716/36/1
f 717/43/1 718/46/1 719/26/1 720/40/1
f 721/26/1 722/16/1 723/22/1 724/27/1
f 725/44/1 726/47/1 727/32/1 728/45/1
f 729/14/1 730/39/1 731/17/1 732/15/1
f 733/33/1 734/38/1 735/39/1 736/14/1
f 737/48/1 738/49/1 739/38/1 740/33/1
f 741/22/1 742/19/1 743/9/1 744/24/1
f 745/44/1 746/47/1 747/32/1 748/45/1
f 749/1/1 750/2/1 751/3/1 752/4/1
f 753/30/1 754/43/1 755/40/1 756/36/1
f 757/37/1 758/36/1 759/2/1 760/1/1
f 761/5/1 762/6/1 763/7/1 764/8/1
f 765/27/1 766/22/1 767/24/1 768/6/1
f 769/23/1 770/27/1 771/6/1 772/5/1
f 773/31/1 774/30/1 775/36/1 776/37/1
f 777/4/1 778/3/1 779/20/1 780/21/1
f 781/3/1 782/5/1 783/8/1 784/20/1
f 785/44/1 786/47/1 787/32/1 788/45/1
f 789/41/1 790/44/1 791/45/1 792/42/1
f 793/45/1 794/32/1 795/13/1 796/46/1
f 797/34/1 798/35/1 799/29/1 800/28/1
f 801/2/1 802/23/1 803/5/1 804/3/1
f 805/31/1 806/30/1 807/36/1 808/37/1
f 809/13/1 810/14/1 811/15/1 812/16/1
f 813/4/1 814/3/1 815/20/1 816/21/1
f 817/40/1 818/26/1 819/27/1 820/23/1
f 821/48/1 822/49/1 823/38/1 824/33/1
f 825/3/1 826/5/1 827/8/1 828/20/1
f 829/48/1 830/49/1 831/38/1 832/33/1
f 833/48/1 834/49/1 835/38/1 836/33/1
f 837/48/1 838/49/1 839/38/1 840/33/1
f 841/30/1 842/43/1 843/40/1 844/36/1
f 845/33/1 846/38/1 847/39/1 848/14/1
f 849/35/1 850/41/1 851/42/1 852/29/1
f 853/13/1 854/14/1 855/15/1 856/16/1
f 857/5/1 858/6/1 859/7/1 860/8/1
f 861/24/1 862/9/1 863/12/1 864/25/1
f 865/41/1 866/44/1 867/45/1 868/42/1
f 869/29/1 870/42/1 871/43/1 872/30/1
f 873/22/1 874/19/1 875/9/1 876/24/1
f 877/41/1 878/44/1 879/45/1 880/42/1
f 881/4/1 882/3/1 883/20/1 884/21/1
f 885/24/1 886/9/1 887/12/1 888/25/1
f 889/34/1 890/35/1 891/29/1 892/28/1
f 893/2/1 894/23/1 895/5/1 896/3/1
f 897/48/1 898/49/1 899/38/1 900/33/1
f 901/35/1 902/41/1 903/42/1 904/29/1
f 905/34/1 906/35/1 907/29/1 908/28/1
f 909/24/1 910/9/1 911/12/1 912/25/1
f 913/5/1 914/6/1 915/7/1 916/8/1
f 917/33/1 918/38/1 919/39/1 920/14/1
f 921/48/1 922/49/1 923/38/1 924/33/1
f 925/30/1 926/43/1 927/40/1 928/36/1
f 929/13/1 930/14/1 931/15/1 932/16/1
f 933/16/1 934/15/1 935/19/1 936/22/1
f 937/37/1 938/36/1 939/2/1 940/1/1
f 941/1/1 942/2/1 943/3/1 944/4/1
f 945/48/1 946/49/1 947/38/1 948/33/1
f 949/45/1 950/32/1 951/13/1 952/46/1
f 953/41/1 954/44/1 955/45/1 956/42/1
f 957/19/1 958/18/1 959/10/1 960/9/1
f 961/5/1 962/6/1 963/7/1 964/8/1
f 965/16/1 966/15/1 967/19/1 968/22/1
f 969/34/1 970/35/1 971/29/1 972/28/1
f 973/6/1 974/24/1 975/25/1 976/7/1
f 977/34/1 978/35/1 979/29/1 980/28/1
f 981/2/1 982/23/1 983/5/1 984/3/1
f 985/1/1 986/2/1 987/3/1 988/4/1
f 989/14/1 990/39/1 991/17/1 992/15/1
f 993/9/1 994/10/1 995/11/1 996/12/1
f 997/45/1 998/32/1 999/13/1 1000/46/1
f 1001/45/1 1002/32/1 1003/13/1 1004/46/1
f 1005/36/1 1006/40/1 1007/23/1 1008/2/1
f 1009/43/1 1010/46/1 1011/26/1 1012/40/1
f 1013/24/1 1014/9/1 1015/12/1 1016/25/1
f 1017/34/1 1018/35/1 1019/29/1 1020/28/1
f 1021/6/1 1022/24/1 1023/25/1 1024/7/1

