# Tiled2Unity generated file. Do not modify by hand.
# Wavefront file for 'TitleIntro_mesh_0010.obj'

# Vertices (Count = 320)
v -176 -16 0
v -192 -16 0
v -192 0 0
v -176 0 0
v -192 -16 0
v -208 -16 0
v -208 0 0
v -192 0 0
v -208 -16 0
v -224 -16 0
v -224 0 0
v -208 0 0
v -224 -16 0
v -240 -16 0
v -240 0 0
v -224 0 0
v -240 -16 0
v -256 -16 0
v -256 0 0
v -240 0 0
v -176 -32 0
v -192 -32 0
v -192 -16 0
v -176 -16 0
v -192 -32 0
v -208 -32 0
v -208 -16 0
v -192 -16 0
v -208 -32 0
v -224 -32 0
v -224 -16 0
v -208 -16 0
v -224 -32 0
v -240 -32 0
v -240 -16 0
v -224 -16 0
v -240 -32 0
v -256 -32 0
v -256 -16 0
v -240 -16 0
v -176 -48 0
v -192 -48 0
v -192 -32 0
v -176 -32 0
v -192 -48 0
v -208 -48 0
v -208 -32 0
v -192 -32 0
v -208 -48 0
v -224 -48 0
v -224 -32 0
v -208 -32 0
v -224 -48 0
v -240 -48 0
v -240 -32 0
v -224 -32 0
v -240 -48 0
v -256 -48 0
v -256 -32 0
v -240 -32 0
v -176 -64 0
v -192 -64 0
v -192 -48 0
v -176 -48 0
v -192 -64 0
v -208 -64 0
v -208 -48 0
v -192 -48 0
v -208 -64 0
v -224 -64 0
v -224 -48 0
v -208 -48 0
v -224 -64 0
v -240 -64 0
v -240 -48 0
v -224 -48 0
v -240 -64 0
v -256 -64 0
v -256 -48 0
v -240 -48 0
v -176 -80 0
v -192 -80 0
v -192 -64 0
v -176 -64 0
v -192 -80 0
v -208 -80 0
v -208 -64 0
v -192 -64 0
v -208 -80 0
v -224 -80 0
v -224 -64 0
v -208 -64 0
v -224 -80 0
v -240 -80 0
v -240 -64 0
v -224 -64 0
v -240 -80 0
v -256 -80 0
v -256 -64 0
v -240 -64 0
v -176 -96 0
v -192 -96 0
v -192 -80 0
v -176 -80 0
v -192 -96 0
v -208 -96 0
v -208 -80 0
v -192 -80 0
v -208 -96 0
v -224 -96 0
v -224 -80 0
v -208 -80 0
v -224 -96 0
v -240 -96 0
v -240 -80 0
v -224 -80 0
v -240 -96 0
v -256 -96 0
v -256 -80 0
v -240 -80 0
v -176 -112 0
v -192 -112 0
v -192 -96 0
v -176 -96 0
v -192 -112 0
v -208 -112 0
v -208 -96 0
v -192 -96 0
v -208 -112 0
v -224 -112 0
v -224 -96 0
v -208 -96 0
v -224 -112 0
v -240 -112 0
v -240 -96 0
v -224 -96 0
v -240 -112 0
v -256 -112 0
v -256 -96 0
v -240 -96 0
v -176 -128 0
v -192 -128 0
v -192 -112 0
v -176 -112 0
v -192 -128 0
v -208 -128 0
v -208 -112 0
v -192 -112 0
v -208 -128 0
v -224 -128 0
v -224 -112 0
v -208 -112 0
v -224 -128 0
v -240 -128 0
v -240 -112 0
v -224 -112 0
v -240 -128 0
v -256 -128 0
v -256 -112 0
v -240 -112 0
v -176 -144 0
v -192 -144 0
v -192 -128 0
v -176 -128 0
v -192 -144 0
v -208 -144 0
v -208 -128 0
v -192 -128 0
v -208 -144 0
v -224 -144 0
v -224 -128 0
v -208 -128 0
v -224 -144 0
v -240 -144 0
v -240 -128 0
v -224 -128 0
v -240 -144 0
v -256 -144 0
v -256 -128 0
v -240 -128 0
v -176 -160 0
v -192 -160 0
v -192 -144 0
v -176 -144 0
v -192 -160 0
v -208 -160 0
v -208 -144 0
v -192 -144 0
v -208 -160 0
v -224 -160 0
v -224 -144 0
v -208 -144 0
v -224 -160 0
v -240 -160 0
v -240 -144 0
v -224 -144 0
v -240 -160 0
v -256 -160 0
v -256 -144 0
v -240 -144 0
v -176 -176 0
v -192 -176 0
v -192 -160 0
v -176 -160 0
v -192 -176 0
v -208 -176 0
v -208 -160 0
v -192 -160 0
v -208 -176 0
v -224 -176 0
v -224 -160 0
v -208 -160 0
v -224 -176 0
v -240 -176 0
v -240 -160 0
v -224 -160 0
v -240 -176 0
v -256 -176 0
v -256 -160 0
v -240 -160 0
v -176 -192 0
v -192 -192 0
v -192 -176 0
v -176 -176 0
v -192 -192 0
v -208 -192 0
v -208 -176 0
v -192 -176 0
v -208 -192 0
v -224 -192 0
v -224 -176 0
v -208 -176 0
v -224 -192 0
v -240 -192 0
v -240 -176 0
v -224 -176 0
v -240 -192 0
v -256 -192 0
v -256 -176 0
v -240 -176 0
v -176 -208 0
v -192 -208 0
v -192 -192 0
v -176 -192 0
v -192 -208 0
v -208 -208 0
v -208 -192 0
v -192 -192 0
v -208 -208 0
v -224 -208 0
v -224 -192 0
v -208 -192 0
v -224 -208 0
v -240 -208 0
v -240 -192 0
v -224 -192 0
v -240 -208 0
v -256 -208 0
v -256 -192 0
v -240 -192 0
v -176 -224 0
v -192 -224 0
v -192 -208 0
v -176 -208 0
v -192 -224 0
v -208 -224 0
v -208 -208 0
v -192 -208 0
v -208 -224 0
v -224 -224 0
v -224 -208 0
v -208 -208 0
v -224 -224 0
v -240 -224 0
v -240 -208 0
v -224 -208 0
v -240 -224 0
v -256 -224 0
v -256 -208 0
v -240 -208 0
v -176 -240 0
v -192 -240 0
v -192 -224 0
v -176 -224 0
v -192 -240 0
v -208 -240 0
v -208 -224 0
v -192 -224 0
v -208 -240 0
v -224 -240 0
v -224 -224 0
v -208 -224 0
v -224 -240 0
v -240 -240 0
v -240 -224 0
v -224 -224 0
v -240 -240 0
v -256 -240 0
v -256 -224 0
v -240 -224 0
v -176 -256 0
v -192 -256 0
v -192 -240 0
v -176 -240 0
v -192 -256 0
v -208 -256 0
v -208 -240 0
v -192 -240 0
v -208 -256 0
v -224 -256 0
v -224 -240 0
v -208 -240 0
v -224 -256 0
v -240 -256 0
v -240 -240 0
v -224 -240 0
v -240 -256 0
v -256 -256 0
v -256 -240 0
v -240 -240 0

# Texture cooridinates (Count = 48)
vt 0.0234375 0.390625
vt 0.02734375 0.390625
vt 0.02734375 0.40625
vt 0.0234375 0.40625
vt 0.0078125 0.390625
vt 0.01171875 0.390625
vt 0.01171875 0.40625
vt 0.0078125 0.40625
vt 0.0078125 0.4375
vt 0.01171875 0.4375
vt 0.01171875 0.453125
vt 0.0078125 0.453125
vt 0.015625 0.421875
vt 0.01953125 0.421875
vt 0.01953125 0.4375
vt 0.015625 0.4375
vt 0.015625 0.453125
vt 0.01953125 0.390625
vt 0.01953125 0.40625
vt 0.01171875 0.46875
vt 0.0078125 0.46875
vt 0.02734375 0.421875
vt 0.03125 0.421875
vt 0.03125 0.4375
vt 0.02734375 0.4375
vt 0.0234375 0.453125
vt 0.02734375 0.453125
vt 0.02734375 0.46875
vt 0.0234375 0.46875
vt 0.0234375 0.4375
vt 0.0234375 0.421875
vt 0.01953125 0.46875
vt 0.0234375 0.484375
vt 0.01953125 0.484375
vt 0.015625 0.40625
vt 0.01171875 0.421875
vt 0.01953125 0.453125
vt 0.03125 0.46875
vt 0.03125 0.484375
vt 0.02734375 0.484375
vt 0.015625 0.46875
vt 0.015625 0.484375
vt 0.01171875 0.484375
vt 0.015625 0.390625
vt 0.03125 0.40625
vt 0.0078125 0.421875
vt 0.03125 0.390625
vt 0.03125 0.453125

# Normal
vn 0 0 -1

# Mesh description
g TitleIntro_mesh_0010

# Faces
f 1/1/1 2/2/1 3/3/1 4/4/1
f 5/5/1 6/6/1 7/7/1 8/8/1
f 9/9/1 10/10/1 11/11/1 12/12/1
f 13/13/1 14/14/1 15/15/1 16/16/1
f 17/10/1 18/16/1 19/17/1 20/11/1
f 21/18/1 22/1/1 23/4/1 24/19/1
f 25/12/1 26/11/1 27/20/1 28/21/1
f 29/22/1 30/23/1 31/24/1 32/25/1
f 33/26/1 34/27/1 35/28/1 36/29/1
f 37/30/1 38/25/1 39/27/1 40/26/1
f 41/26/1 42/27/1 43/28/1 44/29/1
f 45/31/1 46/22/1 47/25/1 48/30/1
f 49/1/1 50/2/1 51/3/1 52/4/1
f 53/12/1 54/11/1 55/20/1 56/21/1
f 57/32/1 58/29/1 59/33/1 60/34/1
f 61/7/1 62/35/1 63/13/1 64/36/1
f 65/37/1 66/26/1 67/29/1 68/32/1
f 69/1/1 70/2/1 71/3/1 72/4/1
f 73/9/1 74/10/1 75/11/1 76/12/1
f 77/26/1 78/27/1 79/28/1 80/29/1
f 81/28/1 82/38/1 83/39/1 84/40/1
f 85/1/1 86/2/1 87/3/1 88/4/1
f 89/4/1 90/3/1 91/22/1 92/31/1
f 93/31/1 94/22/1 95/25/1 96/30/1
f 97/28/1 98/38/1 99/39/1 100/40/1
f 101/7/1 102/35/1 103/13/1 104/36/1
f 105/9/1 106/10/1 107/11/1 108/12/1
f 109/17/1 110/37/1 111/32/1 112/41/1
f 113/20/1 114/41/1 115/42/1 116/43/1
f 117/9/1 118/10/1 119/11/1 120/12/1
f 121/36/1 122/13/1 123/16/1 124/10/1
f 125/16/1 126/15/1 127/37/1 128/17/1
f 129/15/1 130/30/1 131/26/1 132/37/1
f 133/18/1 134/1/1 135/4/1 136/19/1
f 137/22/1 138/23/1 139/24/1 140/25/1
f 141/6/1 142/44/1 143/35/1 144/7/1
f 145/14/1 146/31/1 147/30/1 148/15/1
f 149/19/1 150/4/1 151/31/1 152/14/1
f 153/35/1 154/19/1 155/14/1 156/13/1
f 157/10/1 158/16/1 159/17/1 160/11/1
f 161/31/1 162/22/1 163/25/1 164/30/1
f 165/37/1 166/26/1 167/29/1 168/32/1
f 169/17/1 170/37/1 171/32/1 172/41/1
f 173/26/1 174/27/1 175/28/1 176/29/1
f 177/3/1 178/45/1 179/23/1 180/22/1
f 181/31/1 182/22/1 183/25/1 184/30/1
f 185/35/1 186/19/1 187/14/1 188/13/1
f 189/44/1 190/18/1 191/19/1 192/35/1
f 193/8/1 194/7/1 195/36/1 196/46/1
f 197/36/1 198/13/1 199/16/1 200/10/1
f 201/44/1 202/18/1 203/19/1 204/35/1
f 205/29/1 206/28/1 207/40/1 208/33/1
f 209/14/1 210/31/1 211/30/1 212/15/1
f 213/17/1 214/37/1 215/32/1 216/41/1
f 217/17/1 218/37/1 219/32/1 220/41/1
f 221/35/1 222/19/1 223/14/1 224/13/1
f 225/13/1 226/14/1 227/15/1 228/16/1
f 229/2/1 230/47/1 231/45/1 232/3/1
f 233/16/1 234/15/1 235/37/1 236/17/1
f 237/14/1 238/31/1 239/30/1 240/15/1
f 241/20/1 242/41/1 243/42/1 244/43/1
f 245/15/1 246/30/1 247/26/1 248/37/1
f 249/18/1 250/1/1 251/4/1 252/19/1
f 253/14/1 254/31/1 255/30/1 256/15/1
f 257/27/1 258/48/1 259/38/1 260/28/1
f 261/35/1 262/19/1 263/14/1 264/13/1
f 265/11/1 266/17/1 267/41/1 268/20/1
f 269/19/1 270/4/1 271/31/1 272/14/1
f 273/15/1 274/30/1 275/26/1 276/37/1
f 277/13/1 278/14/1 279/15/1 280/16/1
f 281/1/1 282/2/1 283/3/1 284/4/1
f 285/44/1 286/18/1 287/19/1 288/35/1
f 289/35/1 290/19/1 291/14/1 292/13/1
f 293/32/1 294/29/1 295/33/1 296/34/1
f 297/16/1 298/15/1 299/37/1 300/17/1
f 301/25/1 302/24/1 303/48/1 304/27/1
f 305/19/1 306/4/1 307/31/1 308/14/1
f 309/17/1 310/37/1 311/32/1 312/41/1
f 313/17/1 314/37/1 315/32/1 316/41/1
f 317/9/1 318/10/1 319/11/1 320/12/1

