# Tiled2Unity generated file. Do not modify by hand.
# Wavefront file for 'TitleIntro_mesh_0059.obj'

# Vertices (Count = 1024)
v 0 -16 0
v -16 -16 0
v -16 0 0
v 0 0 0
v -16 -16 0
v -32 -16 0
v -32 0 0
v -16 0 0
v -32 -16 0
v -48 -16 0
v -48 0 0
v -32 0 0
v -48 -16 0
v -64 -16 0
v -64 0 0
v -48 0 0
v -64 -16 0
v -80 -16 0
v -80 0 0
v -64 0 0
v -80 -16 0
v -96 -16 0
v -96 0 0
v -80 0 0
v -96 -16 0
v -112 -16 0
v -112 0 0
v -96 0 0
v -112 -16 0
v -128 -16 0
v -128 0 0
v -112 0 0
v -128 -16 0
v -144 -16 0
v -144 0 0
v -128 0 0
v -144 -16 0
v -160 -16 0
v -160 0 0
v -144 0 0
v -160 -16 0
v -176 -16 0
v -176 0 0
v -160 0 0
v -176 -16 0
v -192 -16 0
v -192 0 0
v -176 0 0
v -192 -16 0
v -208 -16 0
v -208 0 0
v -192 0 0
v -208 -16 0
v -224 -16 0
v -224 0 0
v -208 0 0
v -224 -16 0
v -240 -16 0
v -240 0 0
v -224 0 0
v -240 -16 0
v -256 -16 0
v -256 0 0
v -240 0 0
v 0 -32 0
v -16 -32 0
v -16 -16 0
v 0 -16 0
v -16 -32 0
v -32 -32 0
v -32 -16 0
v -16 -16 0
v -32 -32 0
v -48 -32 0
v -48 -16 0
v -32 -16 0
v -48 -32 0
v -64 -32 0
v -64 -16 0
v -48 -16 0
v -64 -32 0
v -80 -32 0
v -80 -16 0
v -64 -16 0
v -80 -32 0
v -96 -32 0
v -96 -16 0
v -80 -16 0
v -96 -32 0
v -112 -32 0
v -112 -16 0
v -96 -16 0
v -112 -32 0
v -128 -32 0
v -128 -16 0
v -112 -16 0
v -128 -32 0
v -144 -32 0
v -144 -16 0
v -128 -16 0
v -144 -32 0
v -160 -32 0
v -160 -16 0
v -144 -16 0
v -160 -32 0
v -176 -32 0
v -176 -16 0
v -160 -16 0
v -176 -32 0
v -192 -32 0
v -192 -16 0
v -176 -16 0
v -192 -32 0
v -208 -32 0
v -208 -16 0
v -192 -16 0
v -208 -32 0
v -224 -32 0
v -224 -16 0
v -208 -16 0
v -224 -32 0
v -240 -32 0
v -240 -16 0
v -224 -16 0
v -240 -32 0
v -256 -32 0
v -256 -16 0
v -240 -16 0
v 0 -48 0
v -16 -48 0
v -16 -32 0
v 0 -32 0
v -16 -48 0
v -32 -48 0
v -32 -32 0
v -16 -32 0
v -32 -48 0
v -48 -48 0
v -48 -32 0
v -32 -32 0
v -48 -48 0
v -64 -48 0
v -64 -32 0
v -48 -32 0
v -64 -48 0
v -80 -48 0
v -80 -32 0
v -64 -32 0
v -80 -48 0
v -96 -48 0
v -96 -32 0
v -80 -32 0
v -96 -48 0
v -112 -48 0
v -112 -32 0
v -96 -32 0
v -112 -48 0
v -128 -48 0
v -128 -32 0
v -112 -32 0
v -128 -48 0
v -144 -48 0
v -144 -32 0
v -128 -32 0
v -144 -48 0
v -160 -48 0
v -160 -32 0
v -144 -32 0
v -160 -48 0
v -176 -48 0
v -176 -32 0
v -160 -32 0
v -176 -48 0
v -192 -48 0
v -192 -32 0
v -176 -32 0
v -192 -48 0
v -208 -48 0
v -208 -32 0
v -192 -32 0
v -208 -48 0
v -224 -48 0
v -224 -32 0
v -208 -32 0
v -224 -48 0
v -240 -48 0
v -240 -32 0
v -224 -32 0
v -240 -48 0
v -256 -48 0
v -256 -32 0
v -240 -32 0
v 0 -64 0
v -16 -64 0
v -16 -48 0
v 0 -48 0
v -16 -64 0
v -32 -64 0
v -32 -48 0
v -16 -48 0
v -32 -64 0
v -48 -64 0
v -48 -48 0
v -32 -48 0
v -48 -64 0
v -64 -64 0
v -64 -48 0
v -48 -48 0
v -64 -64 0
v -80 -64 0
v -80 -48 0
v -64 -48 0
v -80 -64 0
v -96 -64 0
v -96 -48 0
v -80 -48 0
v -96 -64 0
v -112 -64 0
v -112 -48 0
v -96 -48 0
v -112 -64 0
v -128 -64 0
v -128 -48 0
v -112 -48 0
v -128 -64 0
v -144 -64 0
v -144 -48 0
v -128 -48 0
v -144 -64 0
v -160 -64 0
v -160 -48 0
v -144 -48 0
v -160 -64 0
v -176 -64 0
v -176 -48 0
v -160 -48 0
v -176 -64 0
v -192 -64 0
v -192 -48 0
v -176 -48 0
v -192 -64 0
v -208 -64 0
v -208 -48 0
v -192 -48 0
v -208 -64 0
v -224 -64 0
v -224 -48 0
v -208 -48 0
v -224 -64 0
v -240 -64 0
v -240 -48 0
v -224 -48 0
v -240 -64 0
v -256 -64 0
v -256 -48 0
v -240 -48 0
v 0 -80 0
v -16 -80 0
v -16 -64 0
v 0 -64 0
v -16 -80 0
v -32 -80 0
v -32 -64 0
v -16 -64 0
v -32 -80 0
v -48 -80 0
v -48 -64 0
v -32 -64 0
v -48 -80 0
v -64 -80 0
v -64 -64 0
v -48 -64 0
v -64 -80 0
v -80 -80 0
v -80 -64 0
v -64 -64 0
v -80 -80 0
v -96 -80 0
v -96 -64 0
v -80 -64 0
v -96 -80 0
v -112 -80 0
v -112 -64 0
v -96 -64 0
v -112 -80 0
v -128 -80 0
v -128 -64 0
v -112 -64 0
v -128 -80 0
v -144 -80 0
v -144 -64 0
v -128 -64 0
v -144 -80 0
v -160 -80 0
v -160 -64 0
v -144 -64 0
v -160 -80 0
v -176 -80 0
v -176 -64 0
v -160 -64 0
v -176 -80 0
v -192 -80 0
v -192 -64 0
v -176 -64 0
v -192 -80 0
v -208 -80 0
v -208 -64 0
v -192 -64 0
v -208 -80 0
v -224 -80 0
v -224 -64 0
v -208 -64 0
v -224 -80 0
v -240 -80 0
v -240 -64 0
v -224 -64 0
v -240 -80 0
v -256 -80 0
v -256 -64 0
v -240 -64 0
v 0 -96 0
v -16 -96 0
v -16 -80 0
v 0 -80 0
v -16 -96 0
v -32 -96 0
v -32 -80 0
v -16 -80 0
v -32 -96 0
v -48 -96 0
v -48 -80 0
v -32 -80 0
v -48 -96 0
v -64 -96 0
v -64 -80 0
v -48 -80 0
v -64 -96 0
v -80 -96 0
v -80 -80 0
v -64 -80 0
v -80 -96 0
v -96 -96 0
v -96 -80 0
v -80 -80 0
v -96 -96 0
v -112 -96 0
v -112 -80 0
v -96 -80 0
v -112 -96 0
v -128 -96 0
v -128 -80 0
v -112 -80 0
v -128 -96 0
v -144 -96 0
v -144 -80 0
v -128 -80 0
v -144 -96 0
v -160 -96 0
v -160 -80 0
v -144 -80 0
v -160 -96 0
v -176 -96 0
v -176 -80 0
v -160 -80 0
v -176 -96 0
v -192 -96 0
v -192 -80 0
v -176 -80 0
v -192 -96 0
v -208 -96 0
v -208 -80 0
v -192 -80 0
v -208 -96 0
v -224 -96 0
v -224 -80 0
v -208 -80 0
v -224 -96 0
v -240 -96 0
v -240 -80 0
v -224 -80 0
v -240 -96 0
v -256 -96 0
v -256 -80 0
v -240 -80 0
v 0 -112 0
v -16 -112 0
v -16 -96 0
v 0 -96 0
v -16 -112 0
v -32 -112 0
v -32 -96 0
v -16 -96 0
v -32 -112 0
v -48 -112 0
v -48 -96 0
v -32 -96 0
v -48 -112 0
v -64 -112 0
v -64 -96 0
v -48 -96 0
v -64 -112 0
v -80 -112 0
v -80 -96 0
v -64 -96 0
v -80 -112 0
v -96 -112 0
v -96 -96 0
v -80 -96 0
v -96 -112 0
v -112 -112 0
v -112 -96 0
v -96 -96 0
v -112 -112 0
v -128 -112 0
v -128 -96 0
v -112 -96 0
v -128 -112 0
v -144 -112 0
v -144 -96 0
v -128 -96 0
v -144 -112 0
v -160 -112 0
v -160 -96 0
v -144 -96 0
v -160 -112 0
v -176 -112 0
v -176 -96 0
v -160 -96 0
v -176 -112 0
v -192 -112 0
v -192 -96 0
v -176 -96 0
v -192 -112 0
v -208 -112 0
v -208 -96 0
v -192 -96 0
v -208 -112 0
v -224 -112 0
v -224 -96 0
v -208 -96 0
v -224 -112 0
v -240 -112 0
v -240 -96 0
v -224 -96 0
v -240 -112 0
v -256 -112 0
v -256 -96 0
v -240 -96 0
v 0 -128 0
v -16 -128 0
v -16 -112 0
v 0 -112 0
v -16 -128 0
v -32 -128 0
v -32 -112 0
v -16 -112 0
v -32 -128 0
v -48 -128 0
v -48 -112 0
v -32 -112 0
v -48 -128 0
v -64 -128 0
v -64 -112 0
v -48 -112 0
v -64 -128 0
v -80 -128 0
v -80 -112 0
v -64 -112 0
v -80 -128 0
v -96 -128 0
v -96 -112 0
v -80 -112 0
v -96 -128 0
v -112 -128 0
v -112 -112 0
v -96 -112 0
v -112 -128 0
v -128 -128 0
v -128 -112 0
v -112 -112 0
v -128 -128 0
v -144 -128 0
v -144 -112 0
v -128 -112 0
v -144 -128 0
v -160 -128 0
v -160 -112 0
v -144 -112 0
v -160 -128 0
v -176 -128 0
v -176 -112 0
v -160 -112 0
v -176 -128 0
v -192 -128 0
v -192 -112 0
v -176 -112 0
v -192 -128 0
v -208 -128 0
v -208 -112 0
v -192 -112 0
v -208 -128 0
v -224 -128 0
v -224 -112 0
v -208 -112 0
v -224 -128 0
v -240 -128 0
v -240 -112 0
v -224 -112 0
v -240 -128 0
v -256 -128 0
v -256 -112 0
v -240 -112 0
v 0 -144 0
v -16 -144 0
v -16 -128 0
v 0 -128 0
v -16 -144 0
v -32 -144 0
v -32 -128 0
v -16 -128 0
v -32 -144 0
v -48 -144 0
v -48 -128 0
v -32 -128 0
v -48 -144 0
v -64 -144 0
v -64 -128 0
v -48 -128 0
v -64 -144 0
v -80 -144 0
v -80 -128 0
v -64 -128 0
v -80 -144 0
v -96 -144 0
v -96 -128 0
v -80 -128 0
v -96 -144 0
v -112 -144 0
v -112 -128 0
v -96 -128 0
v -112 -144 0
v -128 -144 0
v -128 -128 0
v -112 -128 0
v -128 -144 0
v -144 -144 0
v -144 -128 0
v -128 -128 0
v -144 -144 0
v -160 -144 0
v -160 -128 0
v -144 -128 0
v -160 -144 0
v -176 -144 0
v -176 -128 0
v -160 -128 0
v -176 -144 0
v -192 -144 0
v -192 -128 0
v -176 -128 0
v -192 -144 0
v -208 -144 0
v -208 -128 0
v -192 -128 0
v -208 -144 0
v -224 -144 0
v -224 -128 0
v -208 -128 0
v -224 -144 0
v -240 -144 0
v -240 -128 0
v -224 -128 0
v -240 -144 0
v -256 -144 0
v -256 -128 0
v -240 -128 0
v 0 -160 0
v -16 -160 0
v -16 -144 0
v 0 -144 0
v -16 -160 0
v -32 -160 0
v -32 -144 0
v -16 -144 0
v -32 -160 0
v -48 -160 0
v -48 -144 0
v -32 -144 0
v -48 -160 0
v -64 -160 0
v -64 -144 0
v -48 -144 0
v -64 -160 0
v -80 -160 0
v -80 -144 0
v -64 -144 0
v -80 -160 0
v -96 -160 0
v -96 -144 0
v -80 -144 0
v -96 -160 0
v -112 -160 0
v -112 -144 0
v -96 -144 0
v -112 -160 0
v -128 -160 0
v -128 -144 0
v -112 -144 0
v -128 -160 0
v -144 -160 0
v -144 -144 0
v -128 -144 0
v -144 -160 0
v -160 -160 0
v -160 -144 0
v -144 -144 0
v -160 -160 0
v -176 -160 0
v -176 -144 0
v -160 -144 0
v -176 -160 0
v -192 -160 0
v -192 -144 0
v -176 -144 0
v -192 -160 0
v -208 -160 0
v -208 -144 0
v -192 -144 0
v -208 -160 0
v -224 -160 0
v -224 -144 0
v -208 -144 0
v -224 -160 0
v -240 -160 0
v -240 -144 0
v -224 -144 0
v -240 -160 0
v -256 -160 0
v -256 -144 0
v -240 -144 0
v 0 -176 0
v -16 -176 0
v -16 -160 0
v 0 -160 0
v -16 -176 0
v -32 -176 0
v -32 -160 0
v -16 -160 0
v -32 -176 0
v -48 -176 0
v -48 -160 0
v -32 -160 0
v -48 -176 0
v -64 -176 0
v -64 -160 0
v -48 -160 0
v -64 -176 0
v -80 -176 0
v -80 -160 0
v -64 -160 0
v -80 -176 0
v -96 -176 0
v -96 -160 0
v -80 -160 0
v -96 -176 0
v -112 -176 0
v -112 -160 0
v -96 -160 0
v -112 -176 0
v -128 -176 0
v -128 -160 0
v -112 -160 0
v -128 -176 0
v -144 -176 0
v -144 -160 0
v -128 -160 0
v -144 -176 0
v -160 -176 0
v -160 -160 0
v -144 -160 0
v -160 -176 0
v -176 -176 0
v -176 -160 0
v -160 -160 0
v -176 -176 0
v -192 -176 0
v -192 -160 0
v -176 -160 0
v -192 -176 0
v -208 -176 0
v -208 -160 0
v -192 -160 0
v -208 -176 0
v -224 -176 0
v -224 -160 0
v -208 -160 0
v -224 -176 0
v -240 -176 0
v -240 -160 0
v -224 -160 0
v -240 -176 0
v -256 -176 0
v -256 -160 0
v -240 -160 0
v 0 -192 0
v -16 -192 0
v -16 -176 0
v 0 -176 0
v -16 -192 0
v -32 -192 0
v -32 -176 0
v -16 -176 0
v -32 -192 0
v -48 -192 0
v -48 -176 0
v -32 -176 0
v -48 -192 0
v -64 -192 0
v -64 -176 0
v -48 -176 0
v -64 -192 0
v -80 -192 0
v -80 -176 0
v -64 -176 0
v -80 -192 0
v -96 -192 0
v -96 -176 0
v -80 -176 0
v -96 -192 0
v -112 -192 0
v -112 -176 0
v -96 -176 0
v -112 -192 0
v -128 -192 0
v -128 -176 0
v -112 -176 0
v -128 -192 0
v -144 -192 0
v -144 -176 0
v -128 -176 0
v -144 -192 0
v -160 -192 0
v -160 -176 0
v -144 -176 0
v -160 -192 0
v -176 -192 0
v -176 -176 0
v -160 -176 0
v -176 -192 0
v -192 -192 0
v -192 -176 0
v -176 -176 0
v -192 -192 0
v -208 -192 0
v -208 -176 0
v -192 -176 0
v -208 -192 0
v -224 -192 0
v -224 -176 0
v -208 -176 0
v -224 -192 0
v -240 -192 0
v -240 -176 0
v -224 -176 0
v -240 -192 0
v -256 -192 0
v -256 -176 0
v -240 -176 0
v 0 -208 0
v -16 -208 0
v -16 -192 0
v 0 -192 0
v -16 -208 0
v -32 -208 0
v -32 -192 0
v -16 -192 0
v -32 -208 0
v -48 -208 0
v -48 -192 0
v -32 -192 0
v -48 -208 0
v -64 -208 0
v -64 -192 0
v -48 -192 0
v -64 -208 0
v -80 -208 0
v -80 -192 0
v -64 -192 0
v -80 -208 0
v -96 -208 0
v -96 -192 0
v -80 -192 0
v -96 -208 0
v -112 -208 0
v -112 -192 0
v -96 -192 0
v -112 -208 0
v -128 -208 0
v -128 -192 0
v -112 -192 0
v -128 -208 0
v -144 -208 0
v -144 -192 0
v -128 -192 0
v -144 -208 0
v -160 -208 0
v -160 -192 0
v -144 -192 0
v -160 -208 0
v -176 -208 0
v -176 -192 0
v -160 -192 0
v -176 -208 0
v -192 -208 0
v -192 -192 0
v -176 -192 0
v -192 -208 0
v -208 -208 0
v -208 -192 0
v -192 -192 0
v -208 -208 0
v -224 -208 0
v -224 -192 0
v -208 -192 0
v -224 -208 0
v -240 -208 0
v -240 -192 0
v -224 -192 0
v -240 -208 0
v -256 -208 0
v -256 -192 0
v -240 -192 0
v 0 -224 0
v -16 -224 0
v -16 -208 0
v 0 -208 0
v -16 -224 0
v -32 -224 0
v -32 -208 0
v -16 -208 0
v -32 -224 0
v -48 -224 0
v -48 -208 0
v -32 -208 0
v -48 -224 0
v -64 -224 0
v -64 -208 0
v -48 -208 0
v -64 -224 0
v -80 -224 0
v -80 -208 0
v -64 -208 0
v -80 -224 0
v -96 -224 0
v -96 -208 0
v -80 -208 0
v -96 -224 0
v -112 -224 0
v -112 -208 0
v -96 -208 0
v -112 -224 0
v -128 -224 0
v -128 -208 0
v -112 -208 0
v -128 -224 0
v -144 -224 0
v -144 -208 0
v -128 -208 0
v -144 -224 0
v -160 -224 0
v -160 -208 0
v -144 -208 0
v -160 -224 0
v -176 -224 0
v -176 -208 0
v -160 -208 0
v -176 -224 0
v -192 -224 0
v -192 -208 0
v -176 -208 0
v -192 -224 0
v -208 -224 0
v -208 -208 0
v -192 -208 0
v -208 -224 0
v -224 -224 0
v -224 -208 0
v -208 -208 0
v -224 -224 0
v -240 -224 0
v -240 -208 0
v -224 -208 0
v -240 -224 0
v -256 -224 0
v -256 -208 0
v -240 -208 0
v 0 -240 0
v -16 -240 0
v -16 -224 0
v 0 -224 0
v -16 -240 0
v -32 -240 0
v -32 -224 0
v -16 -224 0
v -32 -240 0
v -48 -240 0
v -48 -224 0
v -32 -224 0
v -48 -240 0
v -64 -240 0
v -64 -224 0
v -48 -224 0
v -64 -240 0
v -80 -240 0
v -80 -224 0
v -64 -224 0
v -80 -240 0
v -96 -240 0
v -96 -224 0
v -80 -224 0
v -96 -240 0
v -112 -240 0
v -112 -224 0
v -96 -224 0
v -112 -240 0
v -128 -240 0
v -128 -224 0
v -112 -224 0
v -128 -240 0
v -144 -240 0
v -144 -224 0
v -128 -224 0
v -144 -240 0
v -160 -240 0
v -160 -224 0
v -144 -224 0
v -160 -240 0
v -176 -240 0
v -176 -224 0
v -160 -224 0
v -176 -240 0
v -192 -240 0
v -192 -224 0
v -176 -224 0
v -192 -240 0
v -208 -240 0
v -208 -224 0
v -192 -224 0
v -208 -240 0
v -224 -240 0
v -224 -224 0
v -208 -224 0
v -224 -240 0
v -240 -240 0
v -240 -224 0
v -224 -224 0
v -240 -240 0
v -256 -240 0
v -256 -224 0
v -240 -224 0
v 0 -256 0
v -16 -256 0
v -16 -240 0
v 0 -240 0
v -16 -256 0
v -32 -256 0
v -32 -240 0
v -16 -240 0
v -32 -256 0
v -48 -256 0
v -48 -240 0
v -32 -240 0
v -48 -256 0
v -64 -256 0
v -64 -240 0
v -48 -240 0
v -64 -256 0
v -80 -256 0
v -80 -240 0
v -64 -240 0
v -80 -256 0
v -96 -256 0
v -96 -240 0
v -80 -240 0
v -96 -256 0
v -112 -256 0
v -112 -240 0
v -96 -240 0
v -112 -256 0
v -128 -256 0
v -128 -240 0
v -112 -240 0
v -128 -256 0
v -144 -256 0
v -144 -240 0
v -128 -240 0
v -144 -256 0
v -160 -256 0
v -160 -240 0
v -144 -240 0
v -160 -256 0
v -176 -256 0
v -176 -240 0
v -160 -240 0
v -176 -256 0
v -192 -256 0
v -192 -240 0
v -176 -240 0
v -192 -256 0
v -208 -256 0
v -208 -240 0
v -192 -240 0
v -208 -256 0
v -224 -256 0
v -224 -240 0
v -208 -240 0
v -224 -256 0
v -240 -256 0
v -240 -240 0
v -224 -240 0
v -240 -256 0
v -256 -256 0
v -256 -240 0
v -240 -240 0

# Texture cooridinates (Count = 49)
vt 0.0078125 0.390625
vt 0.01171875 0.390625
vt 0.01171875 0.40625
vt 0.0078125 0.40625
vt 0.01171875 0.46875
vt 0.015625 0.46875
vt 0.015625 0.484375
vt 0.01171875 0.484375
vt 0.015625 0.390625
vt 0.01953125 0.390625
vt 0.01953125 0.40625
vt 0.015625 0.40625
vt 0.02734375 0.453125
vt 0.03125 0.453125
vt 0.03125 0.46875
vt 0.02734375 0.46875
vt 0.015625 0.453125
vt 0.01953125 0.453125
vt 0.01953125 0.46875
vt 0.01953125 0.421875
vt 0.015625 0.421875
vt 0.0078125 0.421875
vt 0.01171875 0.421875
vt 0.01171875 0.4375
vt 0.0078125 0.4375
vt 0.0078125 0.453125
vt 0.01171875 0.453125
vt 0.0078125 0.46875
vt 0.02734375 0.421875
vt 0.03125 0.421875
vt 0.03125 0.4375
vt 0.02734375 0.4375
vt 0.0234375 0.421875
vt 0.0234375 0.4375
vt 0.01953125 0.4375
vt 0.02734375 0.390625
vt 0.03125 0.390625
vt 0.03125 0.40625
vt 0.02734375 0.40625
vt 0.0234375 0.453125
vt 0.0234375 0.46875
vt 0.015625 0.4375
vt 0.03125 0.484375
vt 0.02734375 0.484375
vt 0.0078125 0.484375
vt 0.0234375 0.40625
vt 0.0234375 0.484375
vt 0.0234375 0.390625
vt 0.01953125 0.484375

# Normal
vn 0 0 -1

# Mesh description
g TitleIntro_mesh_0059

# Faces
f 1/1/1 2/2/1 3/3/1 4/4/1
f 5/5/1 6/6/1 7/7/1 8/8/1
f 9/1/1 10/2/1 11/3/1 12/4/1
f 13/9/1 14/10/1 15/11/1 16/12/1
f 17/13/1 18/14/1 19/15/1 20/16/1
f 21/17/1 22/18/1 23/19/1 24/6/1
f 25/12/1 26/11/1 27/20/1 28/21/1
f 29/22/1 30/23/1 31/24/1 32/25/1
f 33/4/1 34/3/1 35/23/1 36/22/1
f 37/2/1 38/9/1 39/12/1 40/3/1
f 41/3/1 42/12/1 43/21/1 44/23/1
f 45/17/1 46/18/1 47/19/1 48/6/1
f 49/26/1 50/27/1 51/5/1 52/28/1
f 53/29/1 54/30/1 55/31/1 56/32/1
f 57/22/1 58/23/1 59/24/1 60/25/1
f 61/20/1 62/33/1 63/34/1 64/35/1
f 65/36/1 66/37/1 67/38/1 68/39/1
f 69/25/1 70/24/1 71/27/1 72/26/1
f 73/18/1 74/40/1 75/41/1 76/19/1
f 77/24/1 78/42/1 79/17/1 80/27/1
f 81/5/1 82/6/1 83/7/1 84/8/1
f 85/35/1 86/34/1 87/40/1 88/18/1
f 89/4/1 90/3/1 91/23/1 92/22/1
f 93/16/1 94/15/1 95/43/1 96/44/1
f 97/28/1 98/5/1 99/8/1 100/45/1
f 101/36/1 102/37/1 103/38/1 104/39/1
f 105/39/1 106/38/1 107/30/1 108/29/1
f 109/46/1 110/39/1 111/29/1 112/33/1
f 113/9/1 114/10/1 115/11/1 116/12/1
f 117/41/1 118/16/1 119/44/1 120/47/1
f 121/10/1 122/48/1 123/46/1 124/11/1
f 125/12/1 126/11/1 127/20/1 128/21/1
f 129/6/1 130/19/1 131/49/1 132/7/1
f 133/23/1 134/21/1 135/42/1 136/24/1
f 137/17/1 138/18/1 139/19/1 140/6/1
f 141/48/1 142/36/1 143/39/1 144/46/1
f 145/20/1 146/33/1 147/34/1 148/35/1
f 149/34/1 150/32/1 151/13/1 152/40/1
f 153/5/1 154/6/1 155/7/1 156/8/1
f 157/3/1 158/12/1 159/21/1 160/23/1
f 161/3/1 162/12/1 163/21/1 164/23/1
f 165/12/1 166/11/1 167/20/1 168/21/1
f 169/32/1 170/31/1 171/14/1 172/13/1
f 173/6/1 174/19/1 175/49/1 176/7/1
f 177/10/1 178/48/1 179/46/1 180/11/1
f 181/36/1 182/37/1 183/38/1 184/39/1
f 185/41/1 186/16/1 187/44/1 188/47/1
f 189/9/1 190/10/1 191/11/1 192/12/1
f 193/18/1 194/40/1 195/41/1 196/19/1
f 197/21/1 198/20/1 199/35/1 200/42/1
f 201/46/1 202/39/1 203/29/1 204/33/1
f 205/25/1 206/24/1 207/27/1 208/26/1
f 209/9/1 210/10/1 211/11/1 212/12/1
f 213/3/1 214/12/1 215/21/1 216/23/1
f 217/48/1 218/36/1 219/39/1 220/46/1
f 221/23/1 222/21/1 223/42/1 224/24/1
f 225/16/1 226/15/1 227/43/1 228/44/1
f 229/40/1 230/13/1 231/16/1 232/41/1
f 233/21/1 234/20/1 235/35/1 236/42/1
f 237/10/1 238/48/1 239/46/1 240/11/1
f 241/46/1 242/39/1 243/29/1 244/33/1
f 245/41/1 246/16/1 247/44/1 248/47/1
f 249/5/1 250/6/1 251/7/1 252/8/1
f 253/36/1 254/37/1 255/38/1 256/39/1
f 257/16/1 258/15/1 259/43/1 260/44/1
f 261/2/1 262/9/1 263/12/1 264/3/1
f 265/34/1 266/32/1 267/13/1 268/40/1
f 269/23/1 270/21/1 271/42/1 272/24/1
f 273/34/1 274/32/1 275/13/1 276/40/1
f 277/32/1 278/31/1 279/14/1 280/13/1
f 281/33/1 282/29/1 283/32/1 284/34/1
f 285/18/1 286/40/1 287/41/1 288/19/1
f 289/42/1 290/35/1 291/18/1 292/17/1
f 293/16/1 294/15/1 295/43/1 296/44/1
f 297/4/1 298/3/1 299/23/1 300/22/1
f 301/17/1 302/18/1 303/19/1 304/6/1
f 305/22/1 306/23/1 307/24/1 308/25/1
f 309/33/1 310/29/1 311/32/1 312/34/1
f 313/35/1 314/34/1 315/40/1 316/18/1
f 317/23/1 318/21/1 319/42/1 320/24/1
f 321/13/1 322/14/1 323/15/1 324/16/1
f 325/27/1 326/17/1 327/6/1 328/5/1
f 329/34/1 330/32/1 331/13/1 332/40/1
f 333/25/1 334/24/1 335/27/1 336/26/1
f 337/16/1 338/15/1 339/43/1 340/44/1
f 341/9/1 342/10/1 343/11/1 344/12/1
f 345/41/1 346/16/1 347/44/1 348/47/1
f 349/26/1 350/27/1 351/5/1 352/28/1
f 353/27/1 354/17/1 355/6/1 356/5/1
f 357/10/1 358/48/1 359/46/1 360/11/1
f 361/29/1 362/30/1 363/31/1 364/32/1
f 365/5/1 366/6/1 367/7/1 368/8/1
f 369/10/1 370/48/1 371/46/1 372/11/1
f 373/1/1 374/2/1 375/3/1 376/4/1
f 377/48/1 378/36/1 379/39/1 380/46/1
f 381/48/1 382/36/1 383/39/1 384/46/1
f 385/5/1 386/6/1 387/7/1 388/8/1
f 389/20/1 390/33/1 391/34/1 392/35/1
f 393/11/1 394/46/1 395/33/1 396/20/1
f 397/5/1 398/6/1 399/7/1 400/8/1
f 401/9/1 402/10/1 403/11/1 404/12/1
f 405/21/1 406/20/1 407/35/1 408/42/1
f 409/10/1 410/48/1 411/46/1 412/11/1
f 413/16/1 414/15/1 415/43/1 416/44/1
f 417/27/1 418/17/1 419/6/1 420/5/1
f 421/18/1 422/40/1 423/41/1 424/19/1
f 425/39/1 426/38/1 427/30/1 428/29/1
f 429/42/1 430/35/1 431/18/1 432/17/1
f 433/25/1 434/24/1 435/27/1 436/26/1
f 437/48/1 438/36/1 439/39/1 440/46/1
f 441/42/1 442/35/1 443/18/1 444/17/1
f 445/21/1 446/20/1 447/35/1 448/42/1
f 449/22/1 450/23/1 451/24/1 452/25/1
f 453/26/1 454/27/1 455/5/1 456/28/1
f 457/16/1 458/15/1 459/43/1 460/44/1
f 461/40/1 462/13/1 463/16/1 464/41/1
f 465/6/1 466/19/1 467/49/1 468/7/1
f 469/12/1 470/11/1 471/20/1 472/21/1
f 473/39/1 474/38/1 475/30/1 476/29/1
f 477/48/1 478/36/1 479/39/1 480/46/1
f 481/28/1 482/5/1 483/8/1 484/45/1
f 485/26/1 486/27/1 487/5/1 488/28/1
f 489/1/1 490/2/1 491/3/1 492/4/1
f 493/46/1 494/39/1 495/29/1 496/33/1
f 497/25/1 498/24/1 499/27/1 500/26/1
f 501/4/1 502/3/1 503/23/1 504/22/1
f 505/41/1 506/16/1 507/44/1 508/47/1
f 509/11/1 510/46/1 511/33/1 512/20/1
f 513/35/1 514/34/1 515/40/1 516/18/1
f 517/25/1 518/24/1 519/27/1 520/26/1
f 521/21/1 522/20/1 523/35/1 524/42/1
f 525/5/1 526/6/1 527/7/1 528/8/1
f 529/19/1 530/41/1 531/47/1 532/49/1
f 533/46/1 534/39/1 535/29/1 536/33/1
f 537/41/1 538/16/1 539/44/1 540/47/1
f 541/5/1 542/6/1 543/7/1 544/8/1
f 545/40/1 546/13/1 547/16/1 548/41/1
f 549/3/1 550/12/1 551/21/1 552/23/1
f 553/40/1 554/13/1 555/16/1 556/41/1
f 557/21/1 558/20/1 559/35/1 560/42/1
f 561/24/1 562/42/1 563/17/1 564/27/1
f 565/20/1 566/33/1 567/34/1 568/35/1
f 569/40/1 570/13/1 571/16/1 572/41/1
f 573/4/1 574/3/1 575/23/1 576/22/1
f 577/16/1 578/15/1 579/43/1 580/44/1
f 581/41/1 582/16/1 583/44/1 584/47/1
f 585/34/1 586/32/1 587/13/1 588/40/1
f 589/16/1 590/15/1 591/43/1 592/44/1
f 593/10/1 594/48/1 595/46/1 596/11/1
f 597/6/1 598/19/1 599/49/1 600/7/1
f 601/16/1 602/15/1 603/43/1 604/44/1
f 605/5/1 606/6/1 607/7/1 608/8/1
f 609/13/1 610/14/1 611/15/1 612/16/1
f 613/33/1 614/29/1 615/32/1 616/34/1
f 617/23/1 618/21/1 619/42/1 620/24/1
f 621/23/1 622/21/1 623/42/1 624/24/1
f 625/11/1 626/46/1 627/33/1 628/20/1
f 629/1/1 630/2/1 631/3/1 632/4/1
f 633/33/1 634/29/1 635/32/1 636/34/1
f 637/22/1 638/23/1 639/24/1 640/25/1
f 641/36/1 642/37/1 643/38/1 644/39/1
f 645/34/1 646/32/1 647/13/1 648/40/1
f 649/23/1 650/21/1 651/42/1 652/24/1
f 653/34/1 654/32/1 655/13/1 656/40/1
f 657/19/1 658/41/1 659/47/1 660/49/1
f 661/13/1 662/14/1 663/15/1 664/16/1
f 665/46/1 666/39/1 667/29/1 668/33/1
f 669/17/1 670/18/1 671/19/1 672/6/1
f 673/6/1 674/19/1 675/49/1 676/7/1
f 677/18/1 678/40/1 679/41/1 680/19/1
f 681/48/1 682/36/1 683/39/1 684/46/1
f 685/32/1 686/31/1 687/14/1 688/13/1
f 689/12/1 690/11/1 691/20/1 692/21/1
f 693/25/1 694/24/1 695/27/1 696/26/1
f 697/36/1 698/37/1 699/38/1 700/39/1
f 701/48/1 702/36/1 703/39/1 704/46/1
f 705/2/1 706/9/1 707/12/1 708/3/1
f 709/16/1 710/15/1 711/43/1 712/44/1
f 713/39/1 714/38/1 715/30/1 716/29/1
f 717/20/1 718/33/1 719/34/1 720/35/1
f 721/28/1 722/5/1 723/8/1 724/45/1
f 725/1/1 726/2/1 727/3/1 728/4/1
f 729/24/1 730/42/1 731/17/1 732/27/1
f 733/35/1 734/34/1 735/40/1 736/18/1
f 737/9/1 738/10/1 739/11/1 740/12/1
f 741/48/1 742/36/1 743/39/1 744/46/1
f 745/6/1 746/19/1 747/49/1 748/7/1
f 749/17/1 750/18/1 751/19/1 752/6/1
f 753/23/1 754/21/1 755/42/1 756/24/1
f 757/17/1 758/18/1 759/19/1 760/6/1
f 761/41/1 762/16/1 763/44/1 764/47/1
f 765/24/1 766/42/1 767/17/1 768/27/1
f 769/13/1 770/14/1 771/15/1 772/16/1
f 773/46/1 774/39/1 775/29/1 776/33/1
f 777/19/1 778/41/1 779/47/1 780/49/1
f 781/39/1 782/38/1 783/30/1 784/29/1
f 785/25/1 786/24/1 787/27/1 788/26/1
f 789/28/1 790/5/1 791/8/1 792/45/1
f 793/2/1 794/9/1 795/12/1 796/3/1
f 797/13/1 798/14/1 799/15/1 800/16/1
f 801/16/1 802/15/1 803/43/1 804/44/1
f 805/21/1 806/20/1 807/35/1 808/42/1
f 809/36/1 810/37/1 811/38/1 812/39/1
f 813/13/1 814/14/1 815/15/1 816/16/1
f 817/29/1 818/30/1 819/31/1 820/32/1
f 821/10/1 822/48/1 823/46/1 824/11/1
f 825/21/1 826/20/1 827/35/1 828/42/1
f 829/11/1 830/46/1 831/33/1 832/20/1
f 833/10/1 834/48/1 835/46/1 836/11/1
f 837/11/1 838/46/1 839/33/1 840/20/1
f 841/16/1 842/15/1 843/43/1 844/44/1
f 845/28/1 846/5/1 847/8/1 848/45/1
f 849/29/1 850/30/1 851/31/1 852/32/1
f 853/27/1 854/17/1 855/6/1 856/5/1
f 857/23/1 858/21/1 859/42/1 860/24/1
f 861/22/1 862/23/1 863/24/1 864/25/1
f 865/19/1 866/41/1 867/47/1 868/49/1
f 869/21/1 870/20/1 871/35/1 872/42/1
f 873/13/1 874/14/1 875/15/1 876/16/1
f 877/25/1 878/24/1 879/27/1 880/26/1
f 881/24/1 882/42/1 883/17/1 884/27/1
f 885/28/1 886/5/1 887/8/1 888/45/1
f 889/10/1 890/48/1 891/46/1 892/11/1
f 893/40/1 894/13/1 895/16/1 896/41/1
f 897/17/1 898/18/1 899/19/1 900/6/1
f 901/3/1 902/12/1 903/21/1 904/23/1
f 905/39/1 906/38/1 907/30/1 908/29/1
f 909/26/1 910/27/1 911/5/1 912/28/1
f 913/27/1 914/17/1 915/6/1 916/5/1
f 917/33/1 918/29/1 919/32/1 920/34/1
f 921/2/1 922/9/1 923/12/1 924/3/1
f 925/4/1 926/3/1 927/23/1 928/22/1
f 929/42/1 930/35/1 931/18/1 932/17/1
f 933/16/1 934/15/1 935/43/1 936/44/1
f 937/11/1 938/46/1 939/33/1 940/20/1
f 941/27/1 942/17/1 943/6/1 944/5/1
f 945/23/1 946/21/1 947/42/1 948/24/1
f 949/10/1 950/48/1 951/46/1 952/11/1
f 953/10/1 954/48/1 955/46/1 956/11/1
f 957/23/1 958/21/1 959/42/1 960/24/1
f 961/34/1 962/32/1 963/13/1 964/40/1
f 965/46/1 966/39/1 967/29/1 968/33/1
f 969/1/1 970/2/1 971/3/1 972/4/1
f 973/1/1 974/2/1 975/3/1 976/4/1
f 977/11/1 978/46/1 979/33/1 980/20/1
f 981/32/1 982/31/1 983/14/1 984/13/1
f 985/28/1 986/5/1 987/8/1 988/45/1
f 989/22/1 990/23/1 991/24/1 992/25/1
f 993/16/1 994/15/1 995/43/1 996/44/1
f 997/16/1 998/15/1 999/43/1 1000/44/1
f 1001/33/1 1002/29/1 1003/32/1 1004/34/1
f 1005/21/1 1006/20/1 1007/35/1 1008/42/1
f 1009/39/1 1010/38/1 1011/30/1 1012/29/1
f 1013/22/1 1014/23/1 1015/24/1 1016/25/1
f 1017/11/1 1018/46/1 1019/33/1 1020/20/1
f 1021/35/1 1022/34/1 1023/40/1 1024/18/1

