# Tiled2Unity generated file. Do not modify by hand.
# Wavefront file for 'TitleIntro_mesh_0031.obj'

# Vertices (Count = 1024)
v 0 -16 0
v -16 -16 0
v -16 0 0
v 0 0 0
v -16 -16 0
v -32 -16 0
v -32 0 0
v -16 0 0
v -32 -16 0
v -48 -16 0
v -48 0 0
v -32 0 0
v -48 -16 0
v -64 -16 0
v -64 0 0
v -48 0 0
v -64 -16 0
v -80 -16 0
v -80 0 0
v -64 0 0
v -80 -16 0
v -96 -16 0
v -96 0 0
v -80 0 0
v -96 -16 0
v -112 -16 0
v -112 0 0
v -96 0 0
v -112 -16 0
v -128 -16 0
v -128 0 0
v -112 0 0
v -128 -16 0
v -144 -16 0
v -144 0 0
v -128 0 0
v -144 -16 0
v -160 -16 0
v -160 0 0
v -144 0 0
v -160 -16 0
v -176 -16 0
v -176 0 0
v -160 0 0
v -176 -16 0
v -192 -16 0
v -192 0 0
v -176 0 0
v -192 -16 0
v -208 -16 0
v -208 0 0
v -192 0 0
v -208 -16 0
v -224 -16 0
v -224 0 0
v -208 0 0
v -224 -16 0
v -240 -16 0
v -240 0 0
v -224 0 0
v -240 -16 0
v -256 -16 0
v -256 0 0
v -240 0 0
v 0 -32 0
v -16 -32 0
v -16 -16 0
v 0 -16 0
v -16 -32 0
v -32 -32 0
v -32 -16 0
v -16 -16 0
v -32 -32 0
v -48 -32 0
v -48 -16 0
v -32 -16 0
v -48 -32 0
v -64 -32 0
v -64 -16 0
v -48 -16 0
v -64 -32 0
v -80 -32 0
v -80 -16 0
v -64 -16 0
v -80 -32 0
v -96 -32 0
v -96 -16 0
v -80 -16 0
v -96 -32 0
v -112 -32 0
v -112 -16 0
v -96 -16 0
v -112 -32 0
v -128 -32 0
v -128 -16 0
v -112 -16 0
v -128 -32 0
v -144 -32 0
v -144 -16 0
v -128 -16 0
v -144 -32 0
v -160 -32 0
v -160 -16 0
v -144 -16 0
v -160 -32 0
v -176 -32 0
v -176 -16 0
v -160 -16 0
v -176 -32 0
v -192 -32 0
v -192 -16 0
v -176 -16 0
v -192 -32 0
v -208 -32 0
v -208 -16 0
v -192 -16 0
v -208 -32 0
v -224 -32 0
v -224 -16 0
v -208 -16 0
v -224 -32 0
v -240 -32 0
v -240 -16 0
v -224 -16 0
v -240 -32 0
v -256 -32 0
v -256 -16 0
v -240 -16 0
v 0 -48 0
v -16 -48 0
v -16 -32 0
v 0 -32 0
v -16 -48 0
v -32 -48 0
v -32 -32 0
v -16 -32 0
v -32 -48 0
v -48 -48 0
v -48 -32 0
v -32 -32 0
v -48 -48 0
v -64 -48 0
v -64 -32 0
v -48 -32 0
v -64 -48 0
v -80 -48 0
v -80 -32 0
v -64 -32 0
v -80 -48 0
v -96 -48 0
v -96 -32 0
v -80 -32 0
v -96 -48 0
v -112 -48 0
v -112 -32 0
v -96 -32 0
v -112 -48 0
v -128 -48 0
v -128 -32 0
v -112 -32 0
v -128 -48 0
v -144 -48 0
v -144 -32 0
v -128 -32 0
v -144 -48 0
v -160 -48 0
v -160 -32 0
v -144 -32 0
v -160 -48 0
v -176 -48 0
v -176 -32 0
v -160 -32 0
v -176 -48 0
v -192 -48 0
v -192 -32 0
v -176 -32 0
v -192 -48 0
v -208 -48 0
v -208 -32 0
v -192 -32 0
v -208 -48 0
v -224 -48 0
v -224 -32 0
v -208 -32 0
v -224 -48 0
v -240 -48 0
v -240 -32 0
v -224 -32 0
v -240 -48 0
v -256 -48 0
v -256 -32 0
v -240 -32 0
v 0 -64 0
v -16 -64 0
v -16 -48 0
v 0 -48 0
v -16 -64 0
v -32 -64 0
v -32 -48 0
v -16 -48 0
v -32 -64 0
v -48 -64 0
v -48 -48 0
v -32 -48 0
v -48 -64 0
v -64 -64 0
v -64 -48 0
v -48 -48 0
v -64 -64 0
v -80 -64 0
v -80 -48 0
v -64 -48 0
v -80 -64 0
v -96 -64 0
v -96 -48 0
v -80 -48 0
v -96 -64 0
v -112 -64 0
v -112 -48 0
v -96 -48 0
v -112 -64 0
v -128 -64 0
v -128 -48 0
v -112 -48 0
v -128 -64 0
v -144 -64 0
v -144 -48 0
v -128 -48 0
v -144 -64 0
v -160 -64 0
v -160 -48 0
v -144 -48 0
v -160 -64 0
v -176 -64 0
v -176 -48 0
v -160 -48 0
v -176 -64 0
v -192 -64 0
v -192 -48 0
v -176 -48 0
v -192 -64 0
v -208 -64 0
v -208 -48 0
v -192 -48 0
v -208 -64 0
v -224 -64 0
v -224 -48 0
v -208 -48 0
v -224 -64 0
v -240 -64 0
v -240 -48 0
v -224 -48 0
v -240 -64 0
v -256 -64 0
v -256 -48 0
v -240 -48 0
v 0 -80 0
v -16 -80 0
v -16 -64 0
v 0 -64 0
v -16 -80 0
v -32 -80 0
v -32 -64 0
v -16 -64 0
v -32 -80 0
v -48 -80 0
v -48 -64 0
v -32 -64 0
v -48 -80 0
v -64 -80 0
v -64 -64 0
v -48 -64 0
v -64 -80 0
v -80 -80 0
v -80 -64 0
v -64 -64 0
v -80 -80 0
v -96 -80 0
v -96 -64 0
v -80 -64 0
v -96 -80 0
v -112 -80 0
v -112 -64 0
v -96 -64 0
v -112 -80 0
v -128 -80 0
v -128 -64 0
v -112 -64 0
v -128 -80 0
v -144 -80 0
v -144 -64 0
v -128 -64 0
v -144 -80 0
v -160 -80 0
v -160 -64 0
v -144 -64 0
v -160 -80 0
v -176 -80 0
v -176 -64 0
v -160 -64 0
v -176 -80 0
v -192 -80 0
v -192 -64 0
v -176 -64 0
v -192 -80 0
v -208 -80 0
v -208 -64 0
v -192 -64 0
v -208 -80 0
v -224 -80 0
v -224 -64 0
v -208 -64 0
v -224 -80 0
v -240 -80 0
v -240 -64 0
v -224 -64 0
v -240 -80 0
v -256 -80 0
v -256 -64 0
v -240 -64 0
v 0 -96 0
v -16 -96 0
v -16 -80 0
v 0 -80 0
v -16 -96 0
v -32 -96 0
v -32 -80 0
v -16 -80 0
v -32 -96 0
v -48 -96 0
v -48 -80 0
v -32 -80 0
v -48 -96 0
v -64 -96 0
v -64 -80 0
v -48 -80 0
v -64 -96 0
v -80 -96 0
v -80 -80 0
v -64 -80 0
v -80 -96 0
v -96 -96 0
v -96 -80 0
v -80 -80 0
v -96 -96 0
v -112 -96 0
v -112 -80 0
v -96 -80 0
v -112 -96 0
v -128 -96 0
v -128 -80 0
v -112 -80 0
v -128 -96 0
v -144 -96 0
v -144 -80 0
v -128 -80 0
v -144 -96 0
v -160 -96 0
v -160 -80 0
v -144 -80 0
v -160 -96 0
v -176 -96 0
v -176 -80 0
v -160 -80 0
v -176 -96 0
v -192 -96 0
v -192 -80 0
v -176 -80 0
v -192 -96 0
v -208 -96 0
v -208 -80 0
v -192 -80 0
v -208 -96 0
v -224 -96 0
v -224 -80 0
v -208 -80 0
v -224 -96 0
v -240 -96 0
v -240 -80 0
v -224 -80 0
v -240 -96 0
v -256 -96 0
v -256 -80 0
v -240 -80 0
v 0 -112 0
v -16 -112 0
v -16 -96 0
v 0 -96 0
v -16 -112 0
v -32 -112 0
v -32 -96 0
v -16 -96 0
v -32 -112 0
v -48 -112 0
v -48 -96 0
v -32 -96 0
v -48 -112 0
v -64 -112 0
v -64 -96 0
v -48 -96 0
v -64 -112 0
v -80 -112 0
v -80 -96 0
v -64 -96 0
v -80 -112 0
v -96 -112 0
v -96 -96 0
v -80 -96 0
v -96 -112 0
v -112 -112 0
v -112 -96 0
v -96 -96 0
v -112 -112 0
v -128 -112 0
v -128 -96 0
v -112 -96 0
v -128 -112 0
v -144 -112 0
v -144 -96 0
v -128 -96 0
v -144 -112 0
v -160 -112 0
v -160 -96 0
v -144 -96 0
v -160 -112 0
v -176 -112 0
v -176 -96 0
v -160 -96 0
v -176 -112 0
v -192 -112 0
v -192 -96 0
v -176 -96 0
v -192 -112 0
v -208 -112 0
v -208 -96 0
v -192 -96 0
v -208 -112 0
v -224 -112 0
v -224 -96 0
v -208 -96 0
v -224 -112 0
v -240 -112 0
v -240 -96 0
v -224 -96 0
v -240 -112 0
v -256 -112 0
v -256 -96 0
v -240 -96 0
v 0 -128 0
v -16 -128 0
v -16 -112 0
v 0 -112 0
v -16 -128 0
v -32 -128 0
v -32 -112 0
v -16 -112 0
v -32 -128 0
v -48 -128 0
v -48 -112 0
v -32 -112 0
v -48 -128 0
v -64 -128 0
v -64 -112 0
v -48 -112 0
v -64 -128 0
v -80 -128 0
v -80 -112 0
v -64 -112 0
v -80 -128 0
v -96 -128 0
v -96 -112 0
v -80 -112 0
v -96 -128 0
v -112 -128 0
v -112 -112 0
v -96 -112 0
v -112 -128 0
v -128 -128 0
v -128 -112 0
v -112 -112 0
v -128 -128 0
v -144 -128 0
v -144 -112 0
v -128 -112 0
v -144 -128 0
v -160 -128 0
v -160 -112 0
v -144 -112 0
v -160 -128 0
v -176 -128 0
v -176 -112 0
v -160 -112 0
v -176 -128 0
v -192 -128 0
v -192 -112 0
v -176 -112 0
v -192 -128 0
v -208 -128 0
v -208 -112 0
v -192 -112 0
v -208 -128 0
v -224 -128 0
v -224 -112 0
v -208 -112 0
v -224 -128 0
v -240 -128 0
v -240 -112 0
v -224 -112 0
v -240 -128 0
v -256 -128 0
v -256 -112 0
v -240 -112 0
v 0 -144 0
v -16 -144 0
v -16 -128 0
v 0 -128 0
v -16 -144 0
v -32 -144 0
v -32 -128 0
v -16 -128 0
v -32 -144 0
v -48 -144 0
v -48 -128 0
v -32 -128 0
v -48 -144 0
v -64 -144 0
v -64 -128 0
v -48 -128 0
v -64 -144 0
v -80 -144 0
v -80 -128 0
v -64 -128 0
v -80 -144 0
v -96 -144 0
v -96 -128 0
v -80 -128 0
v -96 -144 0
v -112 -144 0
v -112 -128 0
v -96 -128 0
v -112 -144 0
v -128 -144 0
v -128 -128 0
v -112 -128 0
v -128 -144 0
v -144 -144 0
v -144 -128 0
v -128 -128 0
v -144 -144 0
v -160 -144 0
v -160 -128 0
v -144 -128 0
v -160 -144 0
v -176 -144 0
v -176 -128 0
v -160 -128 0
v -176 -144 0
v -192 -144 0
v -192 -128 0
v -176 -128 0
v -192 -144 0
v -208 -144 0
v -208 -128 0
v -192 -128 0
v -208 -144 0
v -224 -144 0
v -224 -128 0
v -208 -128 0
v -224 -144 0
v -240 -144 0
v -240 -128 0
v -224 -128 0
v -240 -144 0
v -256 -144 0
v -256 -128 0
v -240 -128 0
v 0 -160 0
v -16 -160 0
v -16 -144 0
v 0 -144 0
v -16 -160 0
v -32 -160 0
v -32 -144 0
v -16 -144 0
v -32 -160 0
v -48 -160 0
v -48 -144 0
v -32 -144 0
v -48 -160 0
v -64 -160 0
v -64 -144 0
v -48 -144 0
v -64 -160 0
v -80 -160 0
v -80 -144 0
v -64 -144 0
v -80 -160 0
v -96 -160 0
v -96 -144 0
v -80 -144 0
v -96 -160 0
v -112 -160 0
v -112 -144 0
v -96 -144 0
v -112 -160 0
v -128 -160 0
v -128 -144 0
v -112 -144 0
v -128 -160 0
v -144 -160 0
v -144 -144 0
v -128 -144 0
v -144 -160 0
v -160 -160 0
v -160 -144 0
v -144 -144 0
v -160 -160 0
v -176 -160 0
v -176 -144 0
v -160 -144 0
v -176 -160 0
v -192 -160 0
v -192 -144 0
v -176 -144 0
v -192 -160 0
v -208 -160 0
v -208 -144 0
v -192 -144 0
v -208 -160 0
v -224 -160 0
v -224 -144 0
v -208 -144 0
v -224 -160 0
v -240 -160 0
v -240 -144 0
v -224 -144 0
v -240 -160 0
v -256 -160 0
v -256 -144 0
v -240 -144 0
v 0 -176 0
v -16 -176 0
v -16 -160 0
v 0 -160 0
v -16 -176 0
v -32 -176 0
v -32 -160 0
v -16 -160 0
v -32 -176 0
v -48 -176 0
v -48 -160 0
v -32 -160 0
v -48 -176 0
v -64 -176 0
v -64 -160 0
v -48 -160 0
v -64 -176 0
v -80 -176 0
v -80 -160 0
v -64 -160 0
v -80 -176 0
v -96 -176 0
v -96 -160 0
v -80 -160 0
v -96 -176 0
v -112 -176 0
v -112 -160 0
v -96 -160 0
v -112 -176 0
v -128 -176 0
v -128 -160 0
v -112 -160 0
v -128 -176 0
v -144 -176 0
v -144 -160 0
v -128 -160 0
v -144 -176 0
v -160 -176 0
v -160 -160 0
v -144 -160 0
v -160 -176 0
v -176 -176 0
v -176 -160 0
v -160 -160 0
v -176 -176 0
v -192 -176 0
v -192 -160 0
v -176 -160 0
v -192 -176 0
v -208 -176 0
v -208 -160 0
v -192 -160 0
v -208 -176 0
v -224 -176 0
v -224 -160 0
v -208 -160 0
v -224 -176 0
v -240 -176 0
v -240 -160 0
v -224 -160 0
v -240 -176 0
v -256 -176 0
v -256 -160 0
v -240 -160 0
v 0 -192 0
v -16 -192 0
v -16 -176 0
v 0 -176 0
v -16 -192 0
v -32 -192 0
v -32 -176 0
v -16 -176 0
v -32 -192 0
v -48 -192 0
v -48 -176 0
v -32 -176 0
v -48 -192 0
v -64 -192 0
v -64 -176 0
v -48 -176 0
v -64 -192 0
v -80 -192 0
v -80 -176 0
v -64 -176 0
v -80 -192 0
v -96 -192 0
v -96 -176 0
v -80 -176 0
v -96 -192 0
v -112 -192 0
v -112 -176 0
v -96 -176 0
v -112 -192 0
v -128 -192 0
v -128 -176 0
v -112 -176 0
v -128 -192 0
v -144 -192 0
v -144 -176 0
v -128 -176 0
v -144 -192 0
v -160 -192 0
v -160 -176 0
v -144 -176 0
v -160 -192 0
v -176 -192 0
v -176 -176 0
v -160 -176 0
v -176 -192 0
v -192 -192 0
v -192 -176 0
v -176 -176 0
v -192 -192 0
v -208 -192 0
v -208 -176 0
v -192 -176 0
v -208 -192 0
v -224 -192 0
v -224 -176 0
v -208 -176 0
v -224 -192 0
v -240 -192 0
v -240 -176 0
v -224 -176 0
v -240 -192 0
v -256 -192 0
v -256 -176 0
v -240 -176 0
v 0 -208 0
v -16 -208 0
v -16 -192 0
v 0 -192 0
v -16 -208 0
v -32 -208 0
v -32 -192 0
v -16 -192 0
v -32 -208 0
v -48 -208 0
v -48 -192 0
v -32 -192 0
v -48 -208 0
v -64 -208 0
v -64 -192 0
v -48 -192 0
v -64 -208 0
v -80 -208 0
v -80 -192 0
v -64 -192 0
v -80 -208 0
v -96 -208 0
v -96 -192 0
v -80 -192 0
v -96 -208 0
v -112 -208 0
v -112 -192 0
v -96 -192 0
v -112 -208 0
v -128 -208 0
v -128 -192 0
v -112 -192 0
v -128 -208 0
v -144 -208 0
v -144 -192 0
v -128 -192 0
v -144 -208 0
v -160 -208 0
v -160 -192 0
v -144 -192 0
v -160 -208 0
v -176 -208 0
v -176 -192 0
v -160 -192 0
v -176 -208 0
v -192 -208 0
v -192 -192 0
v -176 -192 0
v -192 -208 0
v -208 -208 0
v -208 -192 0
v -192 -192 0
v -208 -208 0
v -224 -208 0
v -224 -192 0
v -208 -192 0
v -224 -208 0
v -240 -208 0
v -240 -192 0
v -224 -192 0
v -240 -208 0
v -256 -208 0
v -256 -192 0
v -240 -192 0
v 0 -224 0
v -16 -224 0
v -16 -208 0
v 0 -208 0
v -16 -224 0
v -32 -224 0
v -32 -208 0
v -16 -208 0
v -32 -224 0
v -48 -224 0
v -48 -208 0
v -32 -208 0
v -48 -224 0
v -64 -224 0
v -64 -208 0
v -48 -208 0
v -64 -224 0
v -80 -224 0
v -80 -208 0
v -64 -208 0
v -80 -224 0
v -96 -224 0
v -96 -208 0
v -80 -208 0
v -96 -224 0
v -112 -224 0
v -112 -208 0
v -96 -208 0
v -112 -224 0
v -128 -224 0
v -128 -208 0
v -112 -208 0
v -128 -224 0
v -144 -224 0
v -144 -208 0
v -128 -208 0
v -144 -224 0
v -160 -224 0
v -160 -208 0
v -144 -208 0
v -160 -224 0
v -176 -224 0
v -176 -208 0
v -160 -208 0
v -176 -224 0
v -192 -224 0
v -192 -208 0
v -176 -208 0
v -192 -224 0
v -208 -224 0
v -208 -208 0
v -192 -208 0
v -208 -224 0
v -224 -224 0
v -224 -208 0
v -208 -208 0
v -224 -224 0
v -240 -224 0
v -240 -208 0
v -224 -208 0
v -240 -224 0
v -256 -224 0
v -256 -208 0
v -240 -208 0
v 0 -240 0
v -16 -240 0
v -16 -224 0
v 0 -224 0
v -16 -240 0
v -32 -240 0
v -32 -224 0
v -16 -224 0
v -32 -240 0
v -48 -240 0
v -48 -224 0
v -32 -224 0
v -48 -240 0
v -64 -240 0
v -64 -224 0
v -48 -224 0
v -64 -240 0
v -80 -240 0
v -80 -224 0
v -64 -224 0
v -80 -240 0
v -96 -240 0
v -96 -224 0
v -80 -224 0
v -96 -240 0
v -112 -240 0
v -112 -224 0
v -96 -224 0
v -112 -240 0
v -128 -240 0
v -128 -224 0
v -112 -224 0
v -128 -240 0
v -144 -240 0
v -144 -224 0
v -128 -224 0
v -144 -240 0
v -160 -240 0
v -160 -224 0
v -144 -224 0
v -160 -240 0
v -176 -240 0
v -176 -224 0
v -160 -224 0
v -176 -240 0
v -192 -240 0
v -192 -224 0
v -176 -224 0
v -192 -240 0
v -208 -240 0
v -208 -224 0
v -192 -224 0
v -208 -240 0
v -224 -240 0
v -224 -224 0
v -208 -224 0
v -224 -240 0
v -240 -240 0
v -240 -224 0
v -224 -224 0
v -240 -240 0
v -256 -240 0
v -256 -224 0
v -240 -224 0
v 0 -256 0
v -16 -256 0
v -16 -240 0
v 0 -240 0
v -16 -256 0
v -32 -256 0
v -32 -240 0
v -16 -240 0
v -32 -256 0
v -48 -256 0
v -48 -240 0
v -32 -240 0
v -48 -256 0
v -64 -256 0
v -64 -240 0
v -48 -240 0
v -64 -256 0
v -80 -256 0
v -80 -240 0
v -64 -240 0
v -80 -256 0
v -96 -256 0
v -96 -240 0
v -80 -240 0
v -96 -256 0
v -112 -256 0
v -112 -240 0
v -96 -240 0
v -112 -256 0
v -128 -256 0
v -128 -240 0
v -112 -240 0
v -128 -256 0
v -144 -256 0
v -144 -240 0
v -128 -240 0
v -144 -256 0
v -160 -256 0
v -160 -240 0
v -144 -240 0
v -160 -256 0
v -176 -256 0
v -176 -240 0
v -160 -240 0
v -176 -256 0
v -192 -256 0
v -192 -240 0
v -176 -240 0
v -192 -256 0
v -208 -256 0
v -208 -240 0
v -192 -240 0
v -208 -256 0
v -224 -256 0
v -224 -240 0
v -208 -240 0
v -224 -256 0
v -240 -256 0
v -240 -240 0
v -224 -240 0
v -240 -256 0
v -256 -256 0
v -256 -240 0
v -240 -240 0

# Texture cooridinates (Count = 49)
vt 0.015625 0.46875
vt 0.01953125 0.46875
vt 0.01953125 0.484375
vt 0.015625 0.484375
vt 0.02734375 0.40625
vt 0.03125 0.40625
vt 0.03125 0.421875
vt 0.02734375 0.421875
vt 0.01171875 0.46875
vt 0.01171875 0.484375
vt 0.0234375 0.46875
vt 0.0234375 0.484375
vt 0.01171875 0.40625
vt 0.015625 0.40625
vt 0.015625 0.421875
vt 0.01171875 0.421875
vt 0.02734375 0.390625
vt 0.03125 0.390625
vt 0.015625 0.4375
vt 0.01171875 0.4375
vt 0.0234375 0.421875
vt 0.02734375 0.4375
vt 0.0234375 0.4375
vt 0.0234375 0.40625
vt 0.0078125 0.4375
vt 0.01171875 0.453125
vt 0.0078125 0.453125
vt 0.01953125 0.40625
vt 0.01953125 0.421875
vt 0.0078125 0.390625
vt 0.01171875 0.390625
vt 0.0078125 0.40625
vt 0.02734375 0.453125
vt 0.0234375 0.453125
vt 0.01953125 0.453125
vt 0.0078125 0.421875
vt 0.015625 0.453125
vt 0.0234375 0.390625
vt 0.015625 0.390625
vt 0.01953125 0.390625
vt 0.02734375 0.46875
vt 0.03125 0.46875
vt 0.03125 0.484375
vt 0.02734375 0.484375
vt 0.01953125 0.4375
vt 0.03125 0.4375
vt 0.03125 0.453125
vt 0.0078125 0.46875
vt 0.0078125 0.484375

# Normal
vn 0 0 -1

# Mesh description
g TitleIntro_mesh_0031

# Faces
f 1/1/1 2/2/1 3/3/1 4/4/1
f 5/5/1 6/6/1 7/7/1 8/8/1
f 9/9/1 10/1/1 11/4/1 12/10/1
f 13/2/1 14/11/1 15/12/1 16/3/1
f 17/13/1 18/14/1 19/15/1 20/16/1
f 21/17/1 22/18/1 23/6/1 24/5/1
f 25/16/1 26/15/1 27/19/1 28/20/1
f 29/21/1 30/8/1 31/22/1 32/23/1
f 33/24/1 34/5/1 35/8/1 36/21/1
f 37/25/1 38/20/1 39/26/1 40/27/1
f 41/14/1 42/28/1 43/29/1 44/15/1
f 45/30/1 46/31/1 47/13/1 48/32/1
f 49/24/1 50/5/1 51/8/1 52/21/1
f 53/28/1 54/24/1 55/21/1 56/29/1
f 57/23/1 58/22/1 59/33/1 60/34/1
f 61/35/1 62/34/1 63/11/1 64/2/1
f 65/32/1 66/13/1 67/16/1 68/36/1
f 69/26/1 70/37/1 71/1/1 72/9/1
f 73/38/1 74/17/1 75/5/1 76/24/1
f 77/31/1 78/39/1 79/14/1 80/13/1
f 81/31/1 82/39/1 83/14/1 84/13/1
f 85/20/1 86/19/1 87/37/1 88/26/1
f 89/23/1 90/22/1 91/33/1 92/34/1
f 93/24/1 94/5/1 95/8/1 96/21/1
f 97/39/1 98/40/1 99/28/1 100/14/1
f 101/9/1 102/1/1 103/4/1 104/10/1
f 105/25/1 106/20/1 107/26/1 108/27/1
f 109/34/1 110/33/1 111/41/1 112/11/1
f 113/41/1 114/42/1 115/43/1 116/44/1
f 117/2/1 118/11/1 119/12/1 120/3/1
f 121/11/1 122/41/1 123/44/1 124/12/1
f 125/1/1 126/2/1 127/3/1 128/4/1
f 129/11/1 130/41/1 131/44/1 132/12/1
f 133/30/1 134/31/1 135/13/1 136/32/1
f 137/35/1 138/34/1 139/11/1 140/2/1
f 141/13/1 142/14/1 143/15/1 144/16/1
f 145/45/1 146/23/1 147/34/1 148/35/1
f 149/8/1 150/7/1 151/46/1 152/22/1
f 153/8/1 154/7/1 155/46/1 156/22/1
f 157/15/1 158/29/1 159/45/1 160/19/1
f 161/25/1 162/20/1 163/26/1 164/27/1
f 165/23/1 166/22/1 167/33/1 168/34/1
f 169/21/1 170/8/1 171/22/1 172/23/1
f 173/35/1 174/34/1 175/11/1 176/2/1
f 177/25/1 178/20/1 179/26/1 180/27/1
f 181/38/1 182/17/1 183/5/1 184/24/1
f 185/2/1 186/11/1 187/12/1 188/3/1
f 189/25/1 190/20/1 191/26/1 192/27/1
f 193/33/1 194/47/1 195/42/1 196/41/1
f 197/37/1 198/35/1 199/2/1 200/1/1
f 201/17/1 202/18/1 203/6/1 204/5/1
f 205/45/1 206/23/1 207/34/1 208/35/1
f 209/17/1 210/18/1 211/6/1 212/5/1
f 213/2/1 214/11/1 215/12/1 216/3/1
f 217/13/1 218/14/1 219/15/1 220/16/1
f 221/1/1 222/2/1 223/3/1 224/4/1
f 225/19/1 226/45/1 227/35/1 228/37/1
f 229/39/1 230/40/1 231/28/1 232/14/1
f 233/29/1 234/21/1 235/23/1 236/45/1
f 237/2/1 238/11/1 239/12/1 240/3/1
f 241/17/1 242/18/1 243/6/1 244/5/1
f 245/32/1 246/13/1 247/16/1 248/36/1
f 249/39/1 250/40/1 251/28/1 252/14/1
f 253/36/1 254/16/1 255/20/1 256/25/1
f 257/17/1 258/18/1 259/6/1 260/5/1
f 261/40/1 262/38/1 263/24/1 264/28/1
f 265/1/1 266/2/1 267/3/1 268/4/1
f 269/33/1 270/47/1 271/42/1 272/41/1
f 273/37/1 274/35/1 275/2/1 276/1/1
f 277/20/1 278/19/1 279/37/1 280/26/1
f 281/45/1 282/23/1 283/34/1 284/35/1
f 285/13/1 286/14/1 287/15/1 288/16/1
f 289/9/1 290/1/1 291/4/1 292/10/1
f 293/13/1 294/14/1 295/15/1 296/16/1
f 297/32/1 298/13/1 299/16/1 300/36/1
f 301/37/1 302/35/1 303/2/1 304/1/1
f 305/13/1 306/14/1 307/15/1 308/16/1
f 309/40/1 310/38/1 311/24/1 312/28/1
f 313/20/1 314/19/1 315/37/1 316/26/1
f 317/38/1 318/17/1 319/5/1 320/24/1
f 321/33/1 322/47/1 323/42/1 324/41/1
f 325/23/1 326/22/1 327/33/1 328/34/1
f 329/34/1 330/33/1 331/41/1 332/11/1
f 333/34/1 334/33/1 335/41/1 336/11/1
f 337/21/1 338/8/1 339/22/1 340/23/1
f 341/40/1 342/38/1 343/24/1 344/28/1
f 345/37/1 346/35/1 347/2/1 348/1/1
f 349/26/1 350/37/1 351/1/1 352/9/1
f 353/35/1 354/34/1 355/11/1 356/2/1
f 357/22/1 358/46/1 359/47/1 360/33/1
f 361/8/1 362/7/1 363/46/1 364/22/1
f 365/36/1 366/16/1 367/20/1 368/25/1
f 369/26/1 370/37/1 371/1/1 372/9/1
f 373/30/1 374/31/1 375/13/1 376/32/1
f 377/15/1 378/29/1 379/45/1 380/19/1
f 381/1/1 382/2/1 383/3/1 384/4/1
f 385/30/1 386/31/1 387/13/1 388/32/1
f 389/25/1 390/20/1 391/26/1 392/27/1
f 393/2/1 394/11/1 395/12/1 396/3/1
f 397/13/1 398/14/1 399/15/1 400/16/1
f 401/25/1 402/20/1 403/26/1 404/27/1
f 405/25/1 406/20/1 407/26/1 408/27/1
f 409/38/1 410/17/1 411/5/1 412/24/1
f 413/35/1 414/34/1 415/11/1 416/2/1
f 417/26/1 418/37/1 419/1/1 420/9/1
f 421/48/1 422/9/1 423/10/1 424/49/1
f 425/16/1 426/15/1 427/19/1 428/20/1
f 429/22/1 430/46/1 431/47/1 432/33/1
f 433/25/1 434/20/1 435/26/1 436/27/1
f 437/15/1 438/29/1 439/45/1 440/19/1
f 441/20/1 442/19/1 443/37/1 444/26/1
f 445/16/1 446/15/1 447/19/1 448/20/1
f 449/35/1 450/34/1 451/11/1 452/2/1
f 453/21/1 454/8/1 455/22/1 456/23/1
f 457/9/1 458/1/1 459/4/1 460/10/1
f 461/1/1 462/2/1 463/3/1 464/4/1
f 465/5/1 466/6/1 467/7/1 468/8/1
f 469/19/1 470/45/1 471/35/1 472/37/1
f 473/8/1 474/7/1 475/46/1 476/22/1
f 477/41/1 478/42/1 479/43/1 480/44/1
f 481/26/1 482/37/1 483/1/1 484/9/1
f 485/30/1 486/31/1 487/13/1 488/32/1
f 489/36/1 490/16/1 491/20/1 492/25/1
f 493/39/1 494/40/1 495/28/1 496/14/1
f 497/37/1 498/35/1 499/2/1 500/1/1
f 501/35/1 502/34/1 503/11/1 504/2/1
f 505/25/1 506/20/1 507/26/1 508/27/1
f 509/31/1 510/39/1 511/14/1 512/13/1
f 513/31/1 514/39/1 515/14/1 516/13/1
f 517/5/1 518/6/1 519/7/1 520/8/1
f 521/13/1 522/14/1 523/15/1 524/16/1
f 525/39/1 526/40/1 527/28/1 528/14/1
f 529/34/1 530/33/1 531/41/1 532/11/1
f 533/13/1 534/14/1 535/15/1 536/16/1
f 537/2/1 538/11/1 539/12/1 540/3/1
f 541/16/1 542/15/1 543/19/1 544/20/1
f 545/36/1 546/16/1 547/20/1 548/25/1
f 549/38/1 550/17/1 551/5/1 552/24/1
f 553/29/1 554/21/1 555/23/1 556/45/1
f 557/40/1 558/38/1 559/24/1 560/28/1
f 561/33/1 562/47/1 563/42/1 564/41/1
f 565/27/1 566/26/1 567/9/1 568/48/1
f 569/21/1 570/8/1 571/22/1 572/23/1
f 573/36/1 574/16/1 575/20/1 576/25/1
f 577/36/1 578/16/1 579/20/1 580/25/1
f 581/1/1 582/2/1 583/3/1 584/4/1
f 585/40/1 586/38/1 587/24/1 588/28/1
f 589/24/1 590/5/1 591/8/1 592/21/1
f 593/39/1 594/40/1 595/28/1 596/14/1
f 597/25/1 598/20/1 599/26/1 600/27/1
f 601/17/1 602/18/1 603/6/1 604/5/1
f 605/5/1 606/6/1 607/7/1 608/8/1
f 609/41/1 610/42/1 611/43/1 612/44/1
f 613/16/1 614/15/1 615/19/1 616/20/1
f 617/26/1 618/37/1 619/1/1 620/9/1
f 621/28/1 622/24/1 623/21/1 624/29/1
f 625/25/1 626/20/1 627/26/1 628/27/1
f 629/21/1 630/8/1 631/22/1 632/23/1
f 633/13/1 634/14/1 635/15/1 636/16/1
f 637/29/1 638/21/1 639/23/1 640/45/1
f 641/20/1 642/19/1 643/37/1 644/26/1
f 645/24/1 646/5/1 647/8/1 648/21/1
f 649/24/1 650/5/1 651/8/1 652/21/1
f 653/28/1 654/24/1 655/21/1 656/29/1
f 657/11/1 658/41/1 659/44/1 660/12/1
f 661/38/1 662/17/1 663/5/1 664/24/1
f 665/37/1 666/35/1 667/2/1 668/1/1
f 669/39/1 670/40/1 671/28/1 672/14/1
f 673/20/1 674/19/1 675/37/1 676/26/1
f 677/34/1 678/33/1 679/41/1 680/11/1
f 681/8/1 682/7/1 683/46/1 684/22/1
f 685/31/1 686/39/1 687/14/1 688/13/1
f 689/30/1 690/31/1 691/13/1 692/32/1
f 693/29/1 694/21/1 695/23/1 696/45/1
f 697/29/1 698/21/1 699/23/1 700/45/1
f 701/29/1 702/21/1 703/23/1 704/45/1
f 705/29/1 706/21/1 707/23/1 708/45/1
f 709/15/1 710/29/1 711/45/1 712/19/1
f 713/1/1 714/2/1 715/3/1 716/4/1
f 717/38/1 718/17/1 719/5/1 720/24/1
f 721/48/1 722/9/1 723/10/1 724/49/1
f 725/22/1 726/46/1 727/47/1 728/33/1
f 729/13/1 730/14/1 731/15/1 732/16/1
f 733/26/1 734/37/1 735/1/1 736/9/1
f 737/8/1 738/7/1 739/46/1 740/22/1
f 741/2/1 742/11/1 743/12/1 744/3/1
f 745/33/1 746/47/1 747/42/1 748/41/1
f 749/9/1 750/1/1 751/4/1 752/10/1
f 753/28/1 754/24/1 755/21/1 756/29/1
f 757/34/1 758/33/1 759/41/1 760/11/1
f 761/38/1 762/17/1 763/5/1 764/24/1
f 765/24/1 766/5/1 767/8/1 768/21/1
f 769/38/1 770/17/1 771/5/1 772/24/1
f 773/28/1 774/24/1 775/21/1 776/29/1
f 777/19/1 778/45/1 779/35/1 780/37/1
f 781/39/1 782/40/1 783/28/1 784/14/1
f 785/37/1 786/35/1 787/2/1 788/1/1
f 789/41/1 790/42/1 791/43/1 792/44/1
f 793/14/1 794/28/1 795/29/1 796/15/1
f 797/32/1 798/13/1 799/16/1 800/36/1
f 801/31/1 802/39/1 803/14/1 804/13/1
f 805/36/1 806/16/1 807/20/1 808/25/1
f 809/24/1 810/5/1 811/8/1 812/21/1
f 813/33/1 814/47/1 815/42/1 816/41/1
f 817/1/1 818/2/1 819/3/1 820/4/1
f 821/32/1 822/13/1 823/16/1 824/36/1
f 825/1/1 826/2/1 827/3/1 828/4/1
f 829/22/1 830/46/1 831/47/1 832/33/1
f 833/45/1 834/23/1 835/34/1 836/35/1
f 837/21/1 838/8/1 839/22/1 840/23/1
f 841/41/1 842/42/1 843/43/1 844/44/1
f 845/25/1 846/20/1 847/26/1 848/27/1
f 849/5/1 850/6/1 851/7/1 852/8/1
f 853/8/1 854/7/1 855/46/1 856/22/1
f 857/26/1 858/37/1 859/1/1 860/9/1
f 861/22/1 862/46/1 863/47/1 864/33/1
f 865/45/1 866/23/1 867/34/1 868/35/1
f 869/17/1 870/18/1 871/6/1 872/5/1
f 873/22/1 874/46/1 875/47/1 876/33/1
f 877/37/1 878/35/1 879/2/1 880/1/1
f 881/13/1 882/14/1 883/15/1 884/16/1
f 885/31/1 886/39/1 887/14/1 888/13/1
f 889/39/1 890/40/1 891/28/1 892/14/1
f 893/24/1 894/5/1 895/8/1 896/21/1
f 897/8/1 898/7/1 899/46/1 900/22/1
f 901/20/1 902/19/1 903/37/1 904/26/1
f 905/19/1 906/45/1 907/35/1 908/37/1
f 909/35/1 910/34/1 911/11/1 912/2/1
f 913/5/1 914/6/1 915/7/1 916/8/1
f 917/14/1 918/28/1 919/29/1 920/15/1
f 921/39/1 922/40/1 923/28/1 924/14/1
f 925/14/1 926/28/1 927/29/1 928/15/1
f 929/24/1 930/5/1 931/8/1 932/21/1
f 933/32/1 934/13/1 935/16/1 936/36/1
f 937/32/1 938/13/1 939/16/1 940/36/1
f 941/40/1 942/38/1 943/24/1 944/28/1
f 945/24/1 946/5/1 947/8/1 948/21/1
f 949/8/1 950/7/1 951/46/1 952/22/1
f 953/2/1 954/11/1 955/12/1 956/3/1
f 957/25/1 958/20/1 959/26/1 960/27/1
f 961/19/1 962/45/1 963/35/1 964/37/1
f 965/9/1 966/1/1 967/4/1 968/10/1
f 969/15/1 970/29/1 971/45/1 972/19/1
f 973/34/1 974/33/1 975/41/1 976/11/1
f 977/8/1 978/7/1 979/46/1 980/22/1
f 981/1/1 982/2/1 983/3/1 984/4/1
f 985/21/1 986/8/1 987/22/1 988/23/1
f 989/2/1 990/11/1 991/12/1 992/3/1
f 993/16/1 994/15/1 995/19/1 996/20/1
f 997/15/1 998/29/1 999/45/1 1000/19/1
f 1001/20/1 1002/19/1 1003/37/1 1004/26/1
f 1005/20/1 1006/19/1 1007/37/1 1008/26/1
f 1009/36/1 1010/16/1 1011/20/1 1012/25/1
f 1013/31/1 1014/39/1 1015/14/1 1016/13/1
f 1017/41/1 1018/42/1 1019/43/1 1020/44/1
f 1021/38/1 1022/17/1 1023/5/1 1024/24/1

