# Tiled2Unity generated file. Do not modify by hand.
# Wavefront file for 'TitleIntro_mesh_0046.obj'

# Vertices (Count = 320)
v -176 -16 0
v -192 -16 0
v -192 0 0
v -176 0 0
v -192 -16 0
v -208 -16 0
v -208 0 0
v -192 0 0
v -208 -16 0
v -224 -16 0
v -224 0 0
v -208 0 0
v -224 -16 0
v -240 -16 0
v -240 0 0
v -224 0 0
v -240 -16 0
v -256 -16 0
v -256 0 0
v -240 0 0
v -176 -32 0
v -192 -32 0
v -192 -16 0
v -176 -16 0
v -192 -32 0
v -208 -32 0
v -208 -16 0
v -192 -16 0
v -208 -32 0
v -224 -32 0
v -224 -16 0
v -208 -16 0
v -224 -32 0
v -240 -32 0
v -240 -16 0
v -224 -16 0
v -240 -32 0
v -256 -32 0
v -256 -16 0
v -240 -16 0
v -176 -48 0
v -192 -48 0
v -192 -32 0
v -176 -32 0
v -192 -48 0
v -208 -48 0
v -208 -32 0
v -192 -32 0
v -208 -48 0
v -224 -48 0
v -224 -32 0
v -208 -32 0
v -224 -48 0
v -240 -48 0
v -240 -32 0
v -224 -32 0
v -240 -48 0
v -256 -48 0
v -256 -32 0
v -240 -32 0
v -176 -64 0
v -192 -64 0
v -192 -48 0
v -176 -48 0
v -192 -64 0
v -208 -64 0
v -208 -48 0
v -192 -48 0
v -208 -64 0
v -224 -64 0
v -224 -48 0
v -208 -48 0
v -224 -64 0
v -240 -64 0
v -240 -48 0
v -224 -48 0
v -240 -64 0
v -256 -64 0
v -256 -48 0
v -240 -48 0
v -176 -80 0
v -192 -80 0
v -192 -64 0
v -176 -64 0
v -192 -80 0
v -208 -80 0
v -208 -64 0
v -192 -64 0
v -208 -80 0
v -224 -80 0
v -224 -64 0
v -208 -64 0
v -224 -80 0
v -240 -80 0
v -240 -64 0
v -224 -64 0
v -240 -80 0
v -256 -80 0
v -256 -64 0
v -240 -64 0
v -176 -96 0
v -192 -96 0
v -192 -80 0
v -176 -80 0
v -192 -96 0
v -208 -96 0
v -208 -80 0
v -192 -80 0
v -208 -96 0
v -224 -96 0
v -224 -80 0
v -208 -80 0
v -224 -96 0
v -240 -96 0
v -240 -80 0
v -224 -80 0
v -240 -96 0
v -256 -96 0
v -256 -80 0
v -240 -80 0
v -176 -112 0
v -192 -112 0
v -192 -96 0
v -176 -96 0
v -192 -112 0
v -208 -112 0
v -208 -96 0
v -192 -96 0
v -208 -112 0
v -224 -112 0
v -224 -96 0
v -208 -96 0
v -224 -112 0
v -240 -112 0
v -240 -96 0
v -224 -96 0
v -240 -112 0
v -256 -112 0
v -256 -96 0
v -240 -96 0
v -176 -128 0
v -192 -128 0
v -192 -112 0
v -176 -112 0
v -192 -128 0
v -208 -128 0
v -208 -112 0
v -192 -112 0
v -208 -128 0
v -224 -128 0
v -224 -112 0
v -208 -112 0
v -224 -128 0
v -240 -128 0
v -240 -112 0
v -224 -112 0
v -240 -128 0
v -256 -128 0
v -256 -112 0
v -240 -112 0
v -176 -144 0
v -192 -144 0
v -192 -128 0
v -176 -128 0
v -192 -144 0
v -208 -144 0
v -208 -128 0
v -192 -128 0
v -208 -144 0
v -224 -144 0
v -224 -128 0
v -208 -128 0
v -224 -144 0
v -240 -144 0
v -240 -128 0
v -224 -128 0
v -240 -144 0
v -256 -144 0
v -256 -128 0
v -240 -128 0
v -176 -160 0
v -192 -160 0
v -192 -144 0
v -176 -144 0
v -192 -160 0
v -208 -160 0
v -208 -144 0
v -192 -144 0
v -208 -160 0
v -224 -160 0
v -224 -144 0
v -208 -144 0
v -224 -160 0
v -240 -160 0
v -240 -144 0
v -224 -144 0
v -240 -160 0
v -256 -160 0
v -256 -144 0
v -240 -144 0
v -176 -176 0
v -192 -176 0
v -192 -160 0
v -176 -160 0
v -192 -176 0
v -208 -176 0
v -208 -160 0
v -192 -160 0
v -208 -176 0
v -224 -176 0
v -224 -160 0
v -208 -160 0
v -224 -176 0
v -240 -176 0
v -240 -160 0
v -224 -160 0
v -240 -176 0
v -256 -176 0
v -256 -160 0
v -240 -160 0
v -176 -192 0
v -192 -192 0
v -192 -176 0
v -176 -176 0
v -192 -192 0
v -208 -192 0
v -208 -176 0
v -192 -176 0
v -208 -192 0
v -224 -192 0
v -224 -176 0
v -208 -176 0
v -224 -192 0
v -240 -192 0
v -240 -176 0
v -224 -176 0
v -240 -192 0
v -256 -192 0
v -256 -176 0
v -240 -176 0
v -176 -208 0
v -192 -208 0
v -192 -192 0
v -176 -192 0
v -192 -208 0
v -208 -208 0
v -208 -192 0
v -192 -192 0
v -208 -208 0
v -224 -208 0
v -224 -192 0
v -208 -192 0
v -224 -208 0
v -240 -208 0
v -240 -192 0
v -224 -192 0
v -240 -208 0
v -256 -208 0
v -256 -192 0
v -240 -192 0
v -176 -224 0
v -192 -224 0
v -192 -208 0
v -176 -208 0
v -192 -224 0
v -208 -224 0
v -208 -208 0
v -192 -208 0
v -208 -224 0
v -224 -224 0
v -224 -208 0
v -208 -208 0
v -224 -224 0
v -240 -224 0
v -240 -208 0
v -224 -208 0
v -240 -224 0
v -256 -224 0
v -256 -208 0
v -240 -208 0
v -176 -240 0
v -192 -240 0
v -192 -224 0
v -176 -224 0
v -192 -240 0
v -208 -240 0
v -208 -224 0
v -192 -224 0
v -208 -240 0
v -224 -240 0
v -224 -224 0
v -208 -224 0
v -224 -240 0
v -240 -240 0
v -240 -224 0
v -224 -224 0
v -240 -240 0
v -256 -240 0
v -256 -224 0
v -240 -224 0
v -176 -256 0
v -192 -256 0
v -192 -240 0
v -176 -240 0
v -192 -256 0
v -208 -256 0
v -208 -240 0
v -192 -240 0
v -208 -256 0
v -224 -256 0
v -224 -240 0
v -208 -240 0
v -224 -256 0
v -240 -256 0
v -240 -240 0
v -224 -240 0
v -240 -256 0
v -256 -256 0
v -256 -240 0
v -240 -240 0

# Texture cooridinates (Count = 48)
vt 0.02734375 0.390625
vt 0.03125 0.390625
vt 0.03125 0.40625
vt 0.02734375 0.40625
vt 0.015625 0.4375
vt 0.01953125 0.4375
vt 0.01953125 0.453125
vt 0.015625 0.453125
vt 0.01171875 0.390625
vt 0.015625 0.390625
vt 0.015625 0.40625
vt 0.01171875 0.40625
vt 0.0234375 0.390625
vt 0.0234375 0.40625
vt 0.0078125 0.4375
vt 0.01171875 0.4375
vt 0.01171875 0.453125
vt 0.0078125 0.453125
vt 0.0078125 0.390625
vt 0.0078125 0.40625
vt 0.01171875 0.421875
vt 0.0078125 0.421875
vt 0.02734375 0.421875
vt 0.03125 0.421875
vt 0.03125 0.4375
vt 0.02734375 0.4375
vt 0.0234375 0.421875
vt 0.01953125 0.390625
vt 0.01953125 0.40625
vt 0.0234375 0.46875
vt 0.02734375 0.46875
vt 0.02734375 0.484375
vt 0.0234375 0.484375
vt 0.0234375 0.453125
vt 0.02734375 0.453125
vt 0.03125 0.453125
vt 0.03125 0.46875
vt 0.0234375 0.4375
vt 0.015625 0.421875
vt 0.01953125 0.46875
vt 0.015625 0.46875
vt 0.01953125 0.421875
vt 0.01171875 0.46875
vt 0.015625 0.484375
vt 0.01171875 0.484375
vt 0.01953125 0.484375
vt 0.03125 0.484375
vt 0.0078125 0.46875

# Normal
vn 0 0 -1

# Mesh description
g TitleIntro_mesh_0046

# Faces
f 1/1/1 2/2/1 3/3/1 4/4/1
f 5/5/1 6/6/1 7/7/1 8/8/1
f 9/9/1 10/10/1 11/11/1 12/12/1
f 13/13/1 14/1/1 15/4/1 16/14/1
f 17/15/1 18/16/1 19/17/1 20/18/1
f 21/19/1 22/9/1 23/12/1 24/20/1
f 25/20/1 26/12/1 27/21/1 28/22/1
f 29/23/1 30/24/1 31/25/1 32/26/1
f 33/14/1 34/4/1 35/23/1 36/27/1
f 37/10/1 38/28/1 39/29/1 40/11/1
f 41/30/1 42/31/1 43/32/1 44/33/1
f 45/34/1 46/35/1 47/31/1 48/30/1
f 49/13/1 50/1/1 51/4/1 52/14/1
f 53/35/1 54/36/1 55/37/1 56/31/1
f 57/10/1 58/28/1 59/29/1 60/11/1
f 61/38/1 62/26/1 63/35/1 64/34/1
f 65/12/1 66/11/1 67/39/1 68/21/1
f 69/27/1 70/23/1 71/26/1 72/38/1
f 73/14/1 74/4/1 75/23/1 76/27/1
f 77/12/1 78/11/1 79/39/1 80/21/1
f 81/12/1 82/11/1 83/39/1 84/21/1
f 85/8/1 86/7/1 87/40/1 88/41/1
f 89/4/1 90/3/1 91/24/1 92/23/1
f 93/39/1 94/42/1 95/6/1 96/5/1
f 97/27/1 98/23/1 99/26/1 100/38/1
f 101/27/1 102/23/1 103/26/1 104/38/1
f 105/28/1 106/13/1 107/14/1 108/29/1
f 109/38/1 110/26/1 111/35/1 112/34/1
f 113/27/1 114/23/1 115/26/1 116/38/1
f 117/34/1 118/35/1 119/31/1 120/30/1
f 121/8/1 122/7/1 123/40/1 124/41/1
f 125/43/1 126/41/1 127/44/1 128/45/1
f 129/26/1 130/25/1 131/36/1 132/35/1
f 133/19/1 134/9/1 135/12/1 136/20/1
f 137/22/1 138/21/1 139/16/1 140/15/1
f 141/34/1 142/35/1 143/31/1 144/30/1
f 145/43/1 146/41/1 147/44/1 148/45/1
f 149/40/1 150/30/1 151/33/1 152/46/1
f 153/12/1 154/11/1 155/39/1 156/21/1
f 157/38/1 158/26/1 159/35/1 160/34/1
f 161/23/1 162/24/1 163/25/1 164/26/1
f 165/39/1 166/42/1 167/6/1 168/5/1
f 169/22/1 170/21/1 171/16/1 172/15/1
f 173/9/1 174/10/1 175/11/1 176/12/1
f 177/1/1 178/2/1 179/3/1 180/4/1
f 181/41/1 182/40/1 183/46/1 184/44/1
f 185/20/1 186/12/1 187/21/1 188/22/1
f 189/15/1 190/16/1 191/17/1 192/18/1
f 193/20/1 194/12/1 195/21/1 196/22/1
f 197/22/1 198/21/1 199/16/1 200/15/1
f 201/22/1 202/21/1 203/16/1 204/15/1
f 205/21/1 206/39/1 207/5/1 208/16/1
f 209/11/1 210/29/1 211/42/1 212/39/1
f 213/6/1 214/38/1 215/34/1 216/7/1
f 217/28/1 218/13/1 219/14/1 220/29/1
f 221/23/1 222/24/1 223/25/1 224/26/1
f 225/40/1 226/30/1 227/33/1 228/46/1
f 229/16/1 230/5/1 231/8/1 232/17/1
f 233/26/1 234/25/1 235/36/1 236/35/1
f 237/41/1 238/40/1 239/46/1 240/44/1
f 241/16/1 242/5/1 243/8/1 244/17/1
f 245/26/1 246/25/1 247/36/1 248/35/1
f 249/35/1 250/36/1 251/37/1 252/31/1
f 253/29/1 254/14/1 255/27/1 256/42/1
f 257/34/1 258/35/1 259/31/1 260/30/1
f 261/31/1 262/37/1 263/47/1 264/32/1
f 265/6/1 266/38/1 267/34/1 268/7/1
f 269/4/1 270/3/1 271/24/1 272/23/1
f 273/22/1 274/21/1 275/16/1 276/15/1
f 277/35/1 278/36/1 279/37/1 280/31/1
f 281/1/1 282/2/1 283/3/1 284/4/1
f 285/41/1 286/40/1 287/46/1 288/44/1
f 289/29/1 290/14/1 291/27/1 292/42/1
f 293/35/1 294/36/1 295/37/1 296/31/1
f 297/6/1 298/38/1 299/34/1 300/7/1
f 301/18/1 302/17/1 303/43/1 304/48/1
f 305/34/1 306/35/1 307/31/1 308/30/1
f 309/40/1 310/30/1 311/33/1 312/46/1
f 313/20/1 314/12/1 315/21/1 316/22/1
f 317/5/1 318/6/1 319/7/1 320/8/1

