# Tiled2Unity generated file. Do not modify by hand.
# Wavefront file for 'TitleIntro_mesh_0065.obj'

# Vertices (Count = 1024)
v 0 -16 0
v -16 -16 0
v -16 0 0
v 0 0 0
v -16 -16 0
v -32 -16 0
v -32 0 0
v -16 0 0
v -32 -16 0
v -48 -16 0
v -48 0 0
v -32 0 0
v -48 -16 0
v -64 -16 0
v -64 0 0
v -48 0 0
v -64 -16 0
v -80 -16 0
v -80 0 0
v -64 0 0
v -80 -16 0
v -96 -16 0
v -96 0 0
v -80 0 0
v -96 -16 0
v -112 -16 0
v -112 0 0
v -96 0 0
v -112 -16 0
v -128 -16 0
v -128 0 0
v -112 0 0
v -128 -16 0
v -144 -16 0
v -144 0 0
v -128 0 0
v -144 -16 0
v -160 -16 0
v -160 0 0
v -144 0 0
v -160 -16 0
v -176 -16 0
v -176 0 0
v -160 0 0
v -176 -16 0
v -192 -16 0
v -192 0 0
v -176 0 0
v -192 -16 0
v -208 -16 0
v -208 0 0
v -192 0 0
v -208 -16 0
v -224 -16 0
v -224 0 0
v -208 0 0
v -224 -16 0
v -240 -16 0
v -240 0 0
v -224 0 0
v -240 -16 0
v -256 -16 0
v -256 0 0
v -240 0 0
v 0 -32 0
v -16 -32 0
v -16 -16 0
v 0 -16 0
v -16 -32 0
v -32 -32 0
v -32 -16 0
v -16 -16 0
v -32 -32 0
v -48 -32 0
v -48 -16 0
v -32 -16 0
v -48 -32 0
v -64 -32 0
v -64 -16 0
v -48 -16 0
v -64 -32 0
v -80 -32 0
v -80 -16 0
v -64 -16 0
v -80 -32 0
v -96 -32 0
v -96 -16 0
v -80 -16 0
v -96 -32 0
v -112 -32 0
v -112 -16 0
v -96 -16 0
v -112 -32 0
v -128 -32 0
v -128 -16 0
v -112 -16 0
v -128 -32 0
v -144 -32 0
v -144 -16 0
v -128 -16 0
v -144 -32 0
v -160 -32 0
v -160 -16 0
v -144 -16 0
v -160 -32 0
v -176 -32 0
v -176 -16 0
v -160 -16 0
v -176 -32 0
v -192 -32 0
v -192 -16 0
v -176 -16 0
v -192 -32 0
v -208 -32 0
v -208 -16 0
v -192 -16 0
v -208 -32 0
v -224 -32 0
v -224 -16 0
v -208 -16 0
v -224 -32 0
v -240 -32 0
v -240 -16 0
v -224 -16 0
v -240 -32 0
v -256 -32 0
v -256 -16 0
v -240 -16 0
v 0 -48 0
v -16 -48 0
v -16 -32 0
v 0 -32 0
v -16 -48 0
v -32 -48 0
v -32 -32 0
v -16 -32 0
v -32 -48 0
v -48 -48 0
v -48 -32 0
v -32 -32 0
v -48 -48 0
v -64 -48 0
v -64 -32 0
v -48 -32 0
v -64 -48 0
v -80 -48 0
v -80 -32 0
v -64 -32 0
v -80 -48 0
v -96 -48 0
v -96 -32 0
v -80 -32 0
v -96 -48 0
v -112 -48 0
v -112 -32 0
v -96 -32 0
v -112 -48 0
v -128 -48 0
v -128 -32 0
v -112 -32 0
v -128 -48 0
v -144 -48 0
v -144 -32 0
v -128 -32 0
v -144 -48 0
v -160 -48 0
v -160 -32 0
v -144 -32 0
v -160 -48 0
v -176 -48 0
v -176 -32 0
v -160 -32 0
v -176 -48 0
v -192 -48 0
v -192 -32 0
v -176 -32 0
v -192 -48 0
v -208 -48 0
v -208 -32 0
v -192 -32 0
v -208 -48 0
v -224 -48 0
v -224 -32 0
v -208 -32 0
v -224 -48 0
v -240 -48 0
v -240 -32 0
v -224 -32 0
v -240 -48 0
v -256 -48 0
v -256 -32 0
v -240 -32 0
v 0 -64 0
v -16 -64 0
v -16 -48 0
v 0 -48 0
v -16 -64 0
v -32 -64 0
v -32 -48 0
v -16 -48 0
v -32 -64 0
v -48 -64 0
v -48 -48 0
v -32 -48 0
v -48 -64 0
v -64 -64 0
v -64 -48 0
v -48 -48 0
v -64 -64 0
v -80 -64 0
v -80 -48 0
v -64 -48 0
v -80 -64 0
v -96 -64 0
v -96 -48 0
v -80 -48 0
v -96 -64 0
v -112 -64 0
v -112 -48 0
v -96 -48 0
v -112 -64 0
v -128 -64 0
v -128 -48 0
v -112 -48 0
v -128 -64 0
v -144 -64 0
v -144 -48 0
v -128 -48 0
v -144 -64 0
v -160 -64 0
v -160 -48 0
v -144 -48 0
v -160 -64 0
v -176 -64 0
v -176 -48 0
v -160 -48 0
v -176 -64 0
v -192 -64 0
v -192 -48 0
v -176 -48 0
v -192 -64 0
v -208 -64 0
v -208 -48 0
v -192 -48 0
v -208 -64 0
v -224 -64 0
v -224 -48 0
v -208 -48 0
v -224 -64 0
v -240 -64 0
v -240 -48 0
v -224 -48 0
v -240 -64 0
v -256 -64 0
v -256 -48 0
v -240 -48 0
v 0 -80 0
v -16 -80 0
v -16 -64 0
v 0 -64 0
v -16 -80 0
v -32 -80 0
v -32 -64 0
v -16 -64 0
v -32 -80 0
v -48 -80 0
v -48 -64 0
v -32 -64 0
v -48 -80 0
v -64 -80 0
v -64 -64 0
v -48 -64 0
v -64 -80 0
v -80 -80 0
v -80 -64 0
v -64 -64 0
v -80 -80 0
v -96 -80 0
v -96 -64 0
v -80 -64 0
v -96 -80 0
v -112 -80 0
v -112 -64 0
v -96 -64 0
v -112 -80 0
v -128 -80 0
v -128 -64 0
v -112 -64 0
v -128 -80 0
v -144 -80 0
v -144 -64 0
v -128 -64 0
v -144 -80 0
v -160 -80 0
v -160 -64 0
v -144 -64 0
v -160 -80 0
v -176 -80 0
v -176 -64 0
v -160 -64 0
v -176 -80 0
v -192 -80 0
v -192 -64 0
v -176 -64 0
v -192 -80 0
v -208 -80 0
v -208 -64 0
v -192 -64 0
v -208 -80 0
v -224 -80 0
v -224 -64 0
v -208 -64 0
v -224 -80 0
v -240 -80 0
v -240 -64 0
v -224 -64 0
v -240 -80 0
v -256 -80 0
v -256 -64 0
v -240 -64 0
v 0 -96 0
v -16 -96 0
v -16 -80 0
v 0 -80 0
v -16 -96 0
v -32 -96 0
v -32 -80 0
v -16 -80 0
v -32 -96 0
v -48 -96 0
v -48 -80 0
v -32 -80 0
v -48 -96 0
v -64 -96 0
v -64 -80 0
v -48 -80 0
v -64 -96 0
v -80 -96 0
v -80 -80 0
v -64 -80 0
v -80 -96 0
v -96 -96 0
v -96 -80 0
v -80 -80 0
v -96 -96 0
v -112 -96 0
v -112 -80 0
v -96 -80 0
v -112 -96 0
v -128 -96 0
v -128 -80 0
v -112 -80 0
v -128 -96 0
v -144 -96 0
v -144 -80 0
v -128 -80 0
v -144 -96 0
v -160 -96 0
v -160 -80 0
v -144 -80 0
v -160 -96 0
v -176 -96 0
v -176 -80 0
v -160 -80 0
v -176 -96 0
v -192 -96 0
v -192 -80 0
v -176 -80 0
v -192 -96 0
v -208 -96 0
v -208 -80 0
v -192 -80 0
v -208 -96 0
v -224 -96 0
v -224 -80 0
v -208 -80 0
v -224 -96 0
v -240 -96 0
v -240 -80 0
v -224 -80 0
v -240 -96 0
v -256 -96 0
v -256 -80 0
v -240 -80 0
v 0 -112 0
v -16 -112 0
v -16 -96 0
v 0 -96 0
v -16 -112 0
v -32 -112 0
v -32 -96 0
v -16 -96 0
v -32 -112 0
v -48 -112 0
v -48 -96 0
v -32 -96 0
v -48 -112 0
v -64 -112 0
v -64 -96 0
v -48 -96 0
v -64 -112 0
v -80 -112 0
v -80 -96 0
v -64 -96 0
v -80 -112 0
v -96 -112 0
v -96 -96 0
v -80 -96 0
v -96 -112 0
v -112 -112 0
v -112 -96 0
v -96 -96 0
v -112 -112 0
v -128 -112 0
v -128 -96 0
v -112 -96 0
v -128 -112 0
v -144 -112 0
v -144 -96 0
v -128 -96 0
v -144 -112 0
v -160 -112 0
v -160 -96 0
v -144 -96 0
v -160 -112 0
v -176 -112 0
v -176 -96 0
v -160 -96 0
v -176 -112 0
v -192 -112 0
v -192 -96 0
v -176 -96 0
v -192 -112 0
v -208 -112 0
v -208 -96 0
v -192 -96 0
v -208 -112 0
v -224 -112 0
v -224 -96 0
v -208 -96 0
v -224 -112 0
v -240 -112 0
v -240 -96 0
v -224 -96 0
v -240 -112 0
v -256 -112 0
v -256 -96 0
v -240 -96 0
v 0 -128 0
v -16 -128 0
v -16 -112 0
v 0 -112 0
v -16 -128 0
v -32 -128 0
v -32 -112 0
v -16 -112 0
v -32 -128 0
v -48 -128 0
v -48 -112 0
v -32 -112 0
v -48 -128 0
v -64 -128 0
v -64 -112 0
v -48 -112 0
v -64 -128 0
v -80 -128 0
v -80 -112 0
v -64 -112 0
v -80 -128 0
v -96 -128 0
v -96 -112 0
v -80 -112 0
v -96 -128 0
v -112 -128 0
v -112 -112 0
v -96 -112 0
v -112 -128 0
v -128 -128 0
v -128 -112 0
v -112 -112 0
v -128 -128 0
v -144 -128 0
v -144 -112 0
v -128 -112 0
v -144 -128 0
v -160 -128 0
v -160 -112 0
v -144 -112 0
v -160 -128 0
v -176 -128 0
v -176 -112 0
v -160 -112 0
v -176 -128 0
v -192 -128 0
v -192 -112 0
v -176 -112 0
v -192 -128 0
v -208 -128 0
v -208 -112 0
v -192 -112 0
v -208 -128 0
v -224 -128 0
v -224 -112 0
v -208 -112 0
v -224 -128 0
v -240 -128 0
v -240 -112 0
v -224 -112 0
v -240 -128 0
v -256 -128 0
v -256 -112 0
v -240 -112 0
v 0 -144 0
v -16 -144 0
v -16 -128 0
v 0 -128 0
v -16 -144 0
v -32 -144 0
v -32 -128 0
v -16 -128 0
v -32 -144 0
v -48 -144 0
v -48 -128 0
v -32 -128 0
v -48 -144 0
v -64 -144 0
v -64 -128 0
v -48 -128 0
v -64 -144 0
v -80 -144 0
v -80 -128 0
v -64 -128 0
v -80 -144 0
v -96 -144 0
v -96 -128 0
v -80 -128 0
v -96 -144 0
v -112 -144 0
v -112 -128 0
v -96 -128 0
v -112 -144 0
v -128 -144 0
v -128 -128 0
v -112 -128 0
v -128 -144 0
v -144 -144 0
v -144 -128 0
v -128 -128 0
v -144 -144 0
v -160 -144 0
v -160 -128 0
v -144 -128 0
v -160 -144 0
v -176 -144 0
v -176 -128 0
v -160 -128 0
v -176 -144 0
v -192 -144 0
v -192 -128 0
v -176 -128 0
v -192 -144 0
v -208 -144 0
v -208 -128 0
v -192 -128 0
v -208 -144 0
v -224 -144 0
v -224 -128 0
v -208 -128 0
v -224 -144 0
v -240 -144 0
v -240 -128 0
v -224 -128 0
v -240 -144 0
v -256 -144 0
v -256 -128 0
v -240 -128 0
v 0 -160 0
v -16 -160 0
v -16 -144 0
v 0 -144 0
v -16 -160 0
v -32 -160 0
v -32 -144 0
v -16 -144 0
v -32 -160 0
v -48 -160 0
v -48 -144 0
v -32 -144 0
v -48 -160 0
v -64 -160 0
v -64 -144 0
v -48 -144 0
v -64 -160 0
v -80 -160 0
v -80 -144 0
v -64 -144 0
v -80 -160 0
v -96 -160 0
v -96 -144 0
v -80 -144 0
v -96 -160 0
v -112 -160 0
v -112 -144 0
v -96 -144 0
v -112 -160 0
v -128 -160 0
v -128 -144 0
v -112 -144 0
v -128 -160 0
v -144 -160 0
v -144 -144 0
v -128 -144 0
v -144 -160 0
v -160 -160 0
v -160 -144 0
v -144 -144 0
v -160 -160 0
v -176 -160 0
v -176 -144 0
v -160 -144 0
v -176 -160 0
v -192 -160 0
v -192 -144 0
v -176 -144 0
v -192 -160 0
v -208 -160 0
v -208 -144 0
v -192 -144 0
v -208 -160 0
v -224 -160 0
v -224 -144 0
v -208 -144 0
v -224 -160 0
v -240 -160 0
v -240 -144 0
v -224 -144 0
v -240 -160 0
v -256 -160 0
v -256 -144 0
v -240 -144 0
v 0 -176 0
v -16 -176 0
v -16 -160 0
v 0 -160 0
v -16 -176 0
v -32 -176 0
v -32 -160 0
v -16 -160 0
v -32 -176 0
v -48 -176 0
v -48 -160 0
v -32 -160 0
v -48 -176 0
v -64 -176 0
v -64 -160 0
v -48 -160 0
v -64 -176 0
v -80 -176 0
v -80 -160 0
v -64 -160 0
v -80 -176 0
v -96 -176 0
v -96 -160 0
v -80 -160 0
v -96 -176 0
v -112 -176 0
v -112 -160 0
v -96 -160 0
v -112 -176 0
v -128 -176 0
v -128 -160 0
v -112 -160 0
v -128 -176 0
v -144 -176 0
v -144 -160 0
v -128 -160 0
v -144 -176 0
v -160 -176 0
v -160 -160 0
v -144 -160 0
v -160 -176 0
v -176 -176 0
v -176 -160 0
v -160 -160 0
v -176 -176 0
v -192 -176 0
v -192 -160 0
v -176 -160 0
v -192 -176 0
v -208 -176 0
v -208 -160 0
v -192 -160 0
v -208 -176 0
v -224 -176 0
v -224 -160 0
v -208 -160 0
v -224 -176 0
v -240 -176 0
v -240 -160 0
v -224 -160 0
v -240 -176 0
v -256 -176 0
v -256 -160 0
v -240 -160 0
v 0 -192 0
v -16 -192 0
v -16 -176 0
v 0 -176 0
v -16 -192 0
v -32 -192 0
v -32 -176 0
v -16 -176 0
v -32 -192 0
v -48 -192 0
v -48 -176 0
v -32 -176 0
v -48 -192 0
v -64 -192 0
v -64 -176 0
v -48 -176 0
v -64 -192 0
v -80 -192 0
v -80 -176 0
v -64 -176 0
v -80 -192 0
v -96 -192 0
v -96 -176 0
v -80 -176 0
v -96 -192 0
v -112 -192 0
v -112 -176 0
v -96 -176 0
v -112 -192 0
v -128 -192 0
v -128 -176 0
v -112 -176 0
v -128 -192 0
v -144 -192 0
v -144 -176 0
v -128 -176 0
v -144 -192 0
v -160 -192 0
v -160 -176 0
v -144 -176 0
v -160 -192 0
v -176 -192 0
v -176 -176 0
v -160 -176 0
v -176 -192 0
v -192 -192 0
v -192 -176 0
v -176 -176 0
v -192 -192 0
v -208 -192 0
v -208 -176 0
v -192 -176 0
v -208 -192 0
v -224 -192 0
v -224 -176 0
v -208 -176 0
v -224 -192 0
v -240 -192 0
v -240 -176 0
v -224 -176 0
v -240 -192 0
v -256 -192 0
v -256 -176 0
v -240 -176 0
v 0 -208 0
v -16 -208 0
v -16 -192 0
v 0 -192 0
v -16 -208 0
v -32 -208 0
v -32 -192 0
v -16 -192 0
v -32 -208 0
v -48 -208 0
v -48 -192 0
v -32 -192 0
v -48 -208 0
v -64 -208 0
v -64 -192 0
v -48 -192 0
v -64 -208 0
v -80 -208 0
v -80 -192 0
v -64 -192 0
v -80 -208 0
v -96 -208 0
v -96 -192 0
v -80 -192 0
v -96 -208 0
v -112 -208 0
v -112 -192 0
v -96 -192 0
v -112 -208 0
v -128 -208 0
v -128 -192 0
v -112 -192 0
v -128 -208 0
v -144 -208 0
v -144 -192 0
v -128 -192 0
v -144 -208 0
v -160 -208 0
v -160 -192 0
v -144 -192 0
v -160 -208 0
v -176 -208 0
v -176 -192 0
v -160 -192 0
v -176 -208 0
v -192 -208 0
v -192 -192 0
v -176 -192 0
v -192 -208 0
v -208 -208 0
v -208 -192 0
v -192 -192 0
v -208 -208 0
v -224 -208 0
v -224 -192 0
v -208 -192 0
v -224 -208 0
v -240 -208 0
v -240 -192 0
v -224 -192 0
v -240 -208 0
v -256 -208 0
v -256 -192 0
v -240 -192 0
v 0 -224 0
v -16 -224 0
v -16 -208 0
v 0 -208 0
v -16 -224 0
v -32 -224 0
v -32 -208 0
v -16 -208 0
v -32 -224 0
v -48 -224 0
v -48 -208 0
v -32 -208 0
v -48 -224 0
v -64 -224 0
v -64 -208 0
v -48 -208 0
v -64 -224 0
v -80 -224 0
v -80 -208 0
v -64 -208 0
v -80 -224 0
v -96 -224 0
v -96 -208 0
v -80 -208 0
v -96 -224 0
v -112 -224 0
v -112 -208 0
v -96 -208 0
v -112 -224 0
v -128 -224 0
v -128 -208 0
v -112 -208 0
v -128 -224 0
v -144 -224 0
v -144 -208 0
v -128 -208 0
v -144 -224 0
v -160 -224 0
v -160 -208 0
v -144 -208 0
v -160 -224 0
v -176 -224 0
v -176 -208 0
v -160 -208 0
v -176 -224 0
v -192 -224 0
v -192 -208 0
v -176 -208 0
v -192 -224 0
v -208 -224 0
v -208 -208 0
v -192 -208 0
v -208 -224 0
v -224 -224 0
v -224 -208 0
v -208 -208 0
v -224 -224 0
v -240 -224 0
v -240 -208 0
v -224 -208 0
v -240 -224 0
v -256 -224 0
v -256 -208 0
v -240 -208 0
v 0 -240 0
v -16 -240 0
v -16 -224 0
v 0 -224 0
v -16 -240 0
v -32 -240 0
v -32 -224 0
v -16 -224 0
v -32 -240 0
v -48 -240 0
v -48 -224 0
v -32 -224 0
v -48 -240 0
v -64 -240 0
v -64 -224 0
v -48 -224 0
v -64 -240 0
v -80 -240 0
v -80 -224 0
v -64 -224 0
v -80 -240 0
v -96 -240 0
v -96 -224 0
v -80 -224 0
v -96 -240 0
v -112 -240 0
v -112 -224 0
v -96 -224 0
v -112 -240 0
v -128 -240 0
v -128 -224 0
v -112 -224 0
v -128 -240 0
v -144 -240 0
v -144 -224 0
v -128 -224 0
v -144 -240 0
v -160 -240 0
v -160 -224 0
v -144 -224 0
v -160 -240 0
v -176 -240 0
v -176 -224 0
v -160 -224 0
v -176 -240 0
v -192 -240 0
v -192 -224 0
v -176 -224 0
v -192 -240 0
v -208 -240 0
v -208 -224 0
v -192 -224 0
v -208 -240 0
v -224 -240 0
v -224 -224 0
v -208 -224 0
v -224 -240 0
v -240 -240 0
v -240 -224 0
v -224 -224 0
v -240 -240 0
v -256 -240 0
v -256 -224 0
v -240 -224 0
v 0 -256 0
v -16 -256 0
v -16 -240 0
v 0 -240 0
v -16 -256 0
v -32 -256 0
v -32 -240 0
v -16 -240 0
v -32 -256 0
v -48 -256 0
v -48 -240 0
v -32 -240 0
v -48 -256 0
v -64 -256 0
v -64 -240 0
v -48 -240 0
v -64 -256 0
v -80 -256 0
v -80 -240 0
v -64 -240 0
v -80 -256 0
v -96 -256 0
v -96 -240 0
v -80 -240 0
v -96 -256 0
v -112 -256 0
v -112 -240 0
v -96 -240 0
v -112 -256 0
v -128 -256 0
v -128 -240 0
v -112 -240 0
v -128 -256 0
v -144 -256 0
v -144 -240 0
v -128 -240 0
v -144 -256 0
v -160 -256 0
v -160 -240 0
v -144 -240 0
v -160 -256 0
v -176 -256 0
v -176 -240 0
v -160 -240 0
v -176 -256 0
v -192 -256 0
v -192 -240 0
v -176 -240 0
v -192 -256 0
v -208 -256 0
v -208 -240 0
v -192 -240 0
v -208 -256 0
v -224 -256 0
v -224 -240 0
v -208 -240 0
v -224 -256 0
v -240 -256 0
v -240 -240 0
v -224 -240 0
v -240 -256 0
v -256 -256 0
v -256 -240 0
v -240 -240 0

# Texture cooridinates (Count = 49)
vt 0.0078125 0.390625
vt 0.01171875 0.390625
vt 0.01171875 0.40625
vt 0.0078125 0.40625
vt 0.015625 0.40625
vt 0.015625 0.421875
vt 0.01171875 0.421875
vt 0.01171875 0.453125
vt 0.015625 0.453125
vt 0.015625 0.46875
vt 0.01171875 0.46875
vt 0.02734375 0.40625
vt 0.03125 0.40625
vt 0.03125 0.421875
vt 0.02734375 0.421875
vt 0.0078125 0.421875
vt 0.0234375 0.390625
vt 0.02734375 0.390625
vt 0.0234375 0.40625
vt 0.015625 0.484375
vt 0.01171875 0.484375
vt 0.01953125 0.40625
vt 0.0234375 0.421875
vt 0.01953125 0.421875
vt 0.01953125 0.390625
vt 0.03125 0.390625
vt 0.02734375 0.4375
vt 0.0234375 0.4375
vt 0.01953125 0.46875
vt 0.0234375 0.46875
vt 0.0234375 0.484375
vt 0.01953125 0.484375
vt 0.01953125 0.4375
vt 0.01171875 0.4375
vt 0.015625 0.4375
vt 0.0234375 0.453125
vt 0.01953125 0.453125
vt 0.02734375 0.453125
vt 0.03125 0.453125
vt 0.03125 0.46875
vt 0.02734375 0.46875
vt 0.0078125 0.46875
vt 0.0078125 0.484375
vt 0.0078125 0.453125
vt 0.03125 0.4375
vt 0.015625 0.390625
vt 0.0078125 0.4375
vt 0.03125 0.484375
vt 0.02734375 0.484375

# Normal
vn 0 0 -1

# Mesh description
g TitleIntro_mesh_0065

# Faces
f 1/1/1 2/2/1 3/3/1 4/4/1
f 5/3/1 6/5/1 7/6/1 8/7/1
f 9/8/1 10/9/1 11/10/1 12/11/1
f 13/12/1 14/13/1 15/14/1 16/15/1
f 17/4/1 18/3/1 19/7/1 20/16/1
f 21/17/1 22/18/1 23/12/1 24/19/1
f 25/11/1 26/10/1 27/20/1 28/21/1
f 29/22/1 30/19/1 31/23/1 32/24/1
f 33/25/1 34/17/1 35/19/1 36/22/1
f 37/18/1 38/26/1 39/13/1 40/12/1
f 41/23/1 42/15/1 43/27/1 44/28/1
f 45/18/1 46/26/1 47/13/1 48/12/1
f 49/29/1 50/30/1 51/31/1 52/32/1
f 53/18/1 54/26/1 55/13/1 56/12/1
f 57/25/1 58/17/1 59/19/1 60/22/1
f 61/24/1 62/23/1 63/28/1 64/33/1
f 65/34/1 66/35/1 67/9/1 68/8/1
f 69/33/1 70/28/1 71/36/1 72/37/1
f 73/37/1 74/36/1 75/30/1 76/29/1
f 77/38/1 78/39/1 79/40/1 80/41/1
f 81/42/1 82/11/1 83/21/1 84/43/1
f 85/44/1 86/8/1 87/11/1 88/42/1
f 89/27/1 90/45/1 91/39/1 92/38/1
f 93/19/1 94/12/1 95/15/1 96/23/1
f 97/24/1 98/23/1 99/28/1 100/33/1
f 101/2/1 102/46/1 103/5/1 104/3/1
f 105/34/1 106/35/1 107/9/1 108/8/1
f 109/8/1 110/9/1 111/10/1 112/11/1
f 113/23/1 114/15/1 115/27/1 116/28/1
f 117/12/1 118/13/1 119/14/1 120/15/1
f 121/29/1 122/30/1 123/31/1 124/32/1
f 125/10/1 126/29/1 127/32/1 128/20/1
f 129/36/1 130/38/1 131/41/1 132/30/1
f 133/3/1 134/5/1 135/6/1 136/7/1
f 137/35/1 138/33/1 139/37/1 140/9/1
f 141/42/1 142/11/1 143/21/1 144/43/1
f 145/33/1 146/28/1 147/36/1 148/37/1
f 149/44/1 150/8/1 151/11/1 152/42/1
f 153/1/1 154/2/1 155/3/1 156/4/1
f 157/1/1 158/2/1 159/3/1 160/4/1
f 161/44/1 162/8/1 163/11/1 164/42/1
f 165/17/1 166/18/1 167/12/1 168/19/1
f 169/29/1 170/30/1 171/31/1 172/32/1
f 173/34/1 174/35/1 175/9/1 176/8/1
f 177/23/1 178/15/1 179/27/1 180/28/1
f 181/34/1 182/35/1 183/9/1 184/8/1
f 185/29/1 186/30/1 187/31/1 188/32/1
f 189/22/1 190/19/1 191/23/1 192/24/1
f 193/29/1 194/30/1 195/31/1 196/32/1
f 197/11/1 198/10/1 199/20/1 200/21/1
f 201/24/1 202/23/1 203/28/1 204/33/1
f 205/9/1 206/37/1 207/29/1 208/10/1
f 209/29/1 210/30/1 211/31/1 212/32/1
f 213/1/1 214/2/1 215/3/1 216/4/1
f 217/17/1 218/18/1 219/12/1 220/19/1
f 221/10/1 222/29/1 223/32/1 224/20/1
f 225/47/1 226/34/1 227/8/1 228/44/1
f 229/46/1 230/25/1 231/22/1 232/5/1
f 233/44/1 234/8/1 235/11/1 236/42/1
f 237/9/1 238/37/1 239/29/1 240/10/1
f 241/18/1 242/26/1 243/13/1 244/12/1
f 245/19/1 246/12/1 247/15/1 248/23/1
f 249/3/1 250/5/1 251/6/1 252/7/1
f 253/17/1 254/18/1 255/12/1 256/19/1
f 257/15/1 258/14/1 259/45/1 260/27/1
f 261/11/1 262/10/1 263/20/1 264/21/1
f 265/41/1 266/40/1 267/48/1 268/49/1
f 269/27/1 270/45/1 271/39/1 272/38/1
f 273/11/1 274/10/1 275/20/1 276/21/1
f 277/17/1 278/18/1 279/12/1 280/19/1
f 281/4/1 282/3/1 283/7/1 284/16/1
f 285/10/1 286/29/1 287/32/1 288/20/1
f 289/9/1 290/37/1 291/29/1 292/10/1
f 293/28/1 294/27/1 295/38/1 296/36/1
f 297/27/1 298/45/1 299/39/1 300/38/1
f 301/17/1 302/18/1 303/12/1 304/19/1
f 305/42/1 306/11/1 307/21/1 308/43/1
f 309/42/1 310/11/1 311/21/1 312/43/1
f 313/47/1 314/34/1 315/8/1 316/44/1
f 317/25/1 318/17/1 319/19/1 320/22/1
f 321/15/1 322/14/1 323/45/1 324/27/1
f 325/18/1 326/26/1 327/13/1 328/12/1
f 329/30/1 330/41/1 331/49/1 332/31/1
f 333/16/1 334/7/1 335/34/1 336/47/1
f 337/27/1 338/45/1 339/39/1 340/38/1
f 341/3/1 342/5/1 343/6/1 344/7/1
f 345/27/1 346/45/1 347/39/1 348/38/1
f 349/3/1 350/5/1 351/6/1 352/7/1
f 353/41/1 354/40/1 355/48/1 356/49/1
f 357/46/1 358/25/1 359/22/1 360/5/1
f 361/29/1 362/30/1 363/31/1 364/32/1
f 365/3/1 366/5/1 367/6/1 368/7/1
f 369/41/1 370/40/1 371/48/1 372/49/1
f 373/19/1 374/12/1 375/15/1 376/23/1
f 377/25/1 378/17/1 379/19/1 380/22/1
f 381/37/1 382/36/1 383/30/1 384/29/1
f 385/47/1 386/34/1 387/8/1 388/44/1
f 389/23/1 390/15/1 391/27/1 392/28/1
f 393/1/1 394/2/1 395/3/1 396/4/1
f 397/12/1 398/13/1 399/14/1 400/15/1
f 401/37/1 402/36/1 403/30/1 404/29/1
f 405/42/1 406/11/1 407/21/1 408/43/1
f 409/22/1 410/19/1 411/23/1 412/24/1
f 413/41/1 414/40/1 415/48/1 416/49/1
f 417/28/1 418/27/1 419/38/1 420/36/1
f 421/30/1 422/41/1 423/49/1 424/31/1
f 425/5/1 426/22/1 427/24/1 428/6/1
f 429/17/1 430/18/1 431/12/1 432/19/1
f 433/18/1 434/26/1 435/13/1 436/12/1
f 437/42/1 438/11/1 439/21/1 440/43/1
f 441/27/1 442/45/1 443/39/1 444/38/1
f 445/27/1 446/45/1 447/39/1 448/38/1
f 449/4/1 450/3/1 451/7/1 452/16/1
f 453/47/1 454/34/1 455/8/1 456/44/1
f 457/3/1 458/5/1 459/6/1 460/7/1
f 461/5/1 462/22/1 463/24/1 464/6/1
f 465/38/1 466/39/1 467/40/1 468/41/1
f 469/7/1 470/6/1 471/35/1 472/34/1
f 473/29/1 474/30/1 475/31/1 476/32/1
f 477/17/1 478/18/1 479/12/1 480/19/1
f 481/23/1 482/15/1 483/27/1 484/28/1
f 485/16/1 486/7/1 487/34/1 488/47/1
f 489/19/1 490/12/1 491/15/1 492/23/1
f 493/28/1 494/27/1 495/38/1 496/36/1
f 497/6/1 498/24/1 499/33/1 500/35/1
f 501/38/1 502/39/1 503/40/1 504/41/1
f 505/34/1 506/35/1 507/9/1 508/8/1
f 509/12/1 510/13/1 511/14/1 512/15/1
f 513/46/1 514/25/1 515/22/1 516/5/1
f 517/28/1 518/27/1 519/38/1 520/36/1
f 521/30/1 522/41/1 523/49/1 524/31/1
f 525/34/1 526/35/1 527/9/1 528/8/1
f 529/24/1 530/23/1 531/28/1 532/33/1
f 533/22/1 534/19/1 535/23/1 536/24/1
f 537/18/1 538/26/1 539/13/1 540/12/1
f 541/23/1 542/15/1 543/27/1 544/28/1
f 545/18/1 546/26/1 547/13/1 548/12/1
f 549/28/1 550/27/1 551/38/1 552/36/1
f 553/18/1 554/26/1 555/13/1 556/12/1
f 557/36/1 558/38/1 559/41/1 560/30/1
f 561/22/1 562/19/1 563/23/1 564/24/1
f 565/12/1 566/13/1 567/14/1 568/15/1
f 569/29/1 570/30/1 571/31/1 572/32/1
f 573/12/1 574/13/1 575/14/1 576/15/1
f 577/19/1 578/12/1 579/15/1 580/23/1
f 581/33/1 582/28/1 583/36/1 584/37/1
f 585/25/1 586/17/1 587/19/1 588/22/1
f 589/4/1 590/3/1 591/7/1 592/16/1
f 593/47/1 594/34/1 595/8/1 596/44/1
f 597/28/1 598/27/1 599/38/1 600/36/1
f 601/18/1 602/26/1 603/13/1 604/12/1
f 605/34/1 606/35/1 607/9/1 608/8/1
f 609/30/1 610/41/1 611/49/1 612/31/1
f 613/35/1 614/33/1 615/37/1 616/9/1
f 617/15/1 618/14/1 619/45/1 620/27/1
f 621/9/1 622/37/1 623/29/1 624/10/1
f 625/28/1 626/27/1 627/38/1 628/36/1
f 629/5/1 630/22/1 631/24/1 632/6/1
f 633/9/1 634/37/1 635/29/1 636/10/1
f 637/16/1 638/7/1 639/34/1 640/47/1
f 641/35/1 642/33/1 643/37/1 644/9/1
f 645/36/1 646/38/1 647/41/1 648/30/1
f 649/27/1 650/45/1 651/39/1 652/38/1
f 653/10/1 654/29/1 655/32/1 656/20/1
f 657/12/1 658/13/1 659/14/1 660/15/1
f 661/3/1 662/5/1 663/6/1 664/7/1
f 665/3/1 666/5/1 667/6/1 668/7/1
f 669/10/1 670/29/1 671/32/1 672/20/1
f 673/7/1 674/6/1 675/35/1 676/34/1
f 677/28/1 678/27/1 679/38/1 680/36/1
f 681/44/1 682/8/1 683/11/1 684/42/1
f 685/3/1 686/5/1 687/6/1 688/7/1
f 689/27/1 690/45/1 691/39/1 692/38/1
f 693/27/1 694/45/1 695/39/1 696/38/1
f 697/35/1 698/33/1 699/37/1 700/9/1
f 701/36/1 702/38/1 703/41/1 704/30/1
f 705/38/1 706/39/1 707/40/1 708/41/1
f 709/3/1 710/5/1 711/6/1 712/7/1
f 713/28/1 714/27/1 715/38/1 716/36/1
f 717/19/1 718/12/1 719/15/1 720/23/1
f 721/30/1 722/41/1 723/49/1 724/31/1
f 725/37/1 726/36/1 727/30/1 728/29/1
f 729/27/1 730/45/1 731/39/1 732/38/1
f 733/36/1 734/38/1 735/41/1 736/30/1
f 737/19/1 738/12/1 739/15/1 740/23/1
f 741/9/1 742/37/1 743/29/1 744/10/1
f 745/22/1 746/19/1 747/23/1 748/24/1
f 749/16/1 750/7/1 751/34/1 752/47/1
f 753/4/1 754/3/1 755/7/1 756/16/1
f 757/42/1 758/11/1 759/21/1 760/43/1
f 761/29/1 762/30/1 763/31/1 764/32/1
f 765/37/1 766/36/1 767/30/1 768/29/1
f 769/6/1 770/24/1 771/33/1 772/35/1
f 773/1/1 774/2/1 775/3/1 776/4/1
f 777/15/1 778/14/1 779/45/1 780/27/1
f 781/11/1 782/10/1 783/20/1 784/21/1
f 785/35/1 786/33/1 787/37/1 788/9/1
f 789/17/1 790/18/1 791/12/1 792/19/1
f 793/2/1 794/46/1 795/5/1 796/3/1
f 797/3/1 798/5/1 799/6/1 800/7/1
f 801/15/1 802/14/1 803/45/1 804/27/1
f 805/11/1 806/10/1 807/20/1 808/21/1
f 809/17/1 810/18/1 811/12/1 812/19/1
f 813/29/1 814/30/1 815/31/1 816/32/1
f 817/42/1 818/11/1 819/21/1 820/43/1
f 821/12/1 822/13/1 823/14/1 824/15/1
f 825/37/1 826/36/1 827/30/1 828/29/1
f 829/15/1 830/14/1 831/45/1 832/27/1
f 833/24/1 834/23/1 835/28/1 836/33/1
f 837/11/1 838/10/1 839/20/1 840/21/1
f 841/8/1 842/9/1 843/10/1 844/11/1
f 845/2/1 846/46/1 847/5/1 848/3/1
f 849/5/1 850/22/1 851/24/1 852/6/1
f 853/46/1 854/25/1 855/22/1 856/5/1
f 857/46/1 858/25/1 859/22/1 860/5/1
f 861/9/1 862/37/1 863/29/1 864/10/1
f 865/8/1 866/9/1 867/10/1 868/11/1
f 869/42/1 870/11/1 871/21/1 872/43/1
f 873/15/1 874/14/1 875/45/1 876/27/1
f 877/11/1 878/10/1 879/20/1 880/21/1
f 881/24/1 882/23/1 883/28/1 884/33/1
f 885/2/1 886/46/1 887/5/1 888/3/1
f 889/1/1 890/2/1 891/3/1 892/4/1
f 893/41/1 894/40/1 895/48/1 896/49/1
f 897/9/1 898/37/1 899/29/1 900/10/1
f 901/12/1 902/13/1 903/14/1 904/15/1
f 905/1/1 906/2/1 907/3/1 908/4/1
f 909/1/1 910/2/1 911/3/1 912/4/1
f 913/36/1 914/38/1 915/41/1 916/30/1
f 917/8/1 918/9/1 919/10/1 920/11/1
f 921/28/1 922/27/1 923/38/1 924/36/1
f 925/36/1 926/38/1 927/41/1 928/30/1
f 929/4/1 930/3/1 931/7/1 932/16/1
f 933/46/1 934/25/1 935/22/1 936/5/1
f 937/2/1 938/46/1 939/5/1 940/3/1
f 941/10/1 942/29/1 943/32/1 944/20/1
f 945/2/1 946/46/1 947/5/1 948/3/1
f 949/5/1 950/22/1 951/24/1 952/6/1
f 953/19/1 954/12/1 955/15/1 956/23/1
f 957/12/1 958/13/1 959/14/1 960/15/1
f 961/46/1 962/25/1 963/22/1 964/5/1
f 965/37/1 966/36/1 967/30/1 968/29/1
f 969/42/1 970/11/1 971/21/1 972/43/1
f 973/42/1 974/11/1 975/21/1 976/43/1
f 977/42/1 978/11/1 979/21/1 980/43/1
f 981/3/1 982/5/1 983/6/1 984/7/1
f 985/7/1 986/6/1 987/35/1 988/34/1
f 989/3/1 990/5/1 991/6/1 992/7/1
f 993/24/1 994/23/1 995/28/1 996/33/1
f 997/25/1 998/17/1 999/19/1 1000/22/1
f 1001/38/1 1002/39/1 1003/40/1 1004/41/1
f 1005/24/1 1006/23/1 1007/28/1 1008/33/1
f 1009/9/1 1010/37/1 1011/29/1 1012/10/1
f 1013/35/1 1014/33/1 1015/37/1 1016/9/1
f 1017/8/1 1018/9/1 1019/10/1 1020/11/1
f 1021/2/1 1022/46/1 1023/5/1 1024/3/1

