# Tiled2Unity generated file. Do not modify by hand.
# Wavefront file for 'TitleIntro_mesh_0056.obj'

# Vertices (Count = 1024)
v 0 -16 0
v -16 -16 0
v -16 0 0
v 0 0 0
v -16 -16 0
v -32 -16 0
v -32 0 0
v -16 0 0
v -32 -16 0
v -48 -16 0
v -48 0 0
v -32 0 0
v -48 -16 0
v -64 -16 0
v -64 0 0
v -48 0 0
v -64 -16 0
v -80 -16 0
v -80 0 0
v -64 0 0
v -80 -16 0
v -96 -16 0
v -96 0 0
v -80 0 0
v -96 -16 0
v -112 -16 0
v -112 0 0
v -96 0 0
v -112 -16 0
v -128 -16 0
v -128 0 0
v -112 0 0
v -128 -16 0
v -144 -16 0
v -144 0 0
v -128 0 0
v -144 -16 0
v -160 -16 0
v -160 0 0
v -144 0 0
v -160 -16 0
v -176 -16 0
v -176 0 0
v -160 0 0
v -176 -16 0
v -192 -16 0
v -192 0 0
v -176 0 0
v -192 -16 0
v -208 -16 0
v -208 0 0
v -192 0 0
v -208 -16 0
v -224 -16 0
v -224 0 0
v -208 0 0
v -224 -16 0
v -240 -16 0
v -240 0 0
v -224 0 0
v -240 -16 0
v -256 -16 0
v -256 0 0
v -240 0 0
v 0 -32 0
v -16 -32 0
v -16 -16 0
v 0 -16 0
v -16 -32 0
v -32 -32 0
v -32 -16 0
v -16 -16 0
v -32 -32 0
v -48 -32 0
v -48 -16 0
v -32 -16 0
v -48 -32 0
v -64 -32 0
v -64 -16 0
v -48 -16 0
v -64 -32 0
v -80 -32 0
v -80 -16 0
v -64 -16 0
v -80 -32 0
v -96 -32 0
v -96 -16 0
v -80 -16 0
v -96 -32 0
v -112 -32 0
v -112 -16 0
v -96 -16 0
v -112 -32 0
v -128 -32 0
v -128 -16 0
v -112 -16 0
v -128 -32 0
v -144 -32 0
v -144 -16 0
v -128 -16 0
v -144 -32 0
v -160 -32 0
v -160 -16 0
v -144 -16 0
v -160 -32 0
v -176 -32 0
v -176 -16 0
v -160 -16 0
v -176 -32 0
v -192 -32 0
v -192 -16 0
v -176 -16 0
v -192 -32 0
v -208 -32 0
v -208 -16 0
v -192 -16 0
v -208 -32 0
v -224 -32 0
v -224 -16 0
v -208 -16 0
v -224 -32 0
v -240 -32 0
v -240 -16 0
v -224 -16 0
v -240 -32 0
v -256 -32 0
v -256 -16 0
v -240 -16 0
v 0 -48 0
v -16 -48 0
v -16 -32 0
v 0 -32 0
v -16 -48 0
v -32 -48 0
v -32 -32 0
v -16 -32 0
v -32 -48 0
v -48 -48 0
v -48 -32 0
v -32 -32 0
v -48 -48 0
v -64 -48 0
v -64 -32 0
v -48 -32 0
v -64 -48 0
v -80 -48 0
v -80 -32 0
v -64 -32 0
v -80 -48 0
v -96 -48 0
v -96 -32 0
v -80 -32 0
v -96 -48 0
v -112 -48 0
v -112 -32 0
v -96 -32 0
v -112 -48 0
v -128 -48 0
v -128 -32 0
v -112 -32 0
v -128 -48 0
v -144 -48 0
v -144 -32 0
v -128 -32 0
v -144 -48 0
v -160 -48 0
v -160 -32 0
v -144 -32 0
v -160 -48 0
v -176 -48 0
v -176 -32 0
v -160 -32 0
v -176 -48 0
v -192 -48 0
v -192 -32 0
v -176 -32 0
v -192 -48 0
v -208 -48 0
v -208 -32 0
v -192 -32 0
v -208 -48 0
v -224 -48 0
v -224 -32 0
v -208 -32 0
v -224 -48 0
v -240 -48 0
v -240 -32 0
v -224 -32 0
v -240 -48 0
v -256 -48 0
v -256 -32 0
v -240 -32 0
v 0 -64 0
v -16 -64 0
v -16 -48 0
v 0 -48 0
v -16 -64 0
v -32 -64 0
v -32 -48 0
v -16 -48 0
v -32 -64 0
v -48 -64 0
v -48 -48 0
v -32 -48 0
v -48 -64 0
v -64 -64 0
v -64 -48 0
v -48 -48 0
v -64 -64 0
v -80 -64 0
v -80 -48 0
v -64 -48 0
v -80 -64 0
v -96 -64 0
v -96 -48 0
v -80 -48 0
v -96 -64 0
v -112 -64 0
v -112 -48 0
v -96 -48 0
v -112 -64 0
v -128 -64 0
v -128 -48 0
v -112 -48 0
v -128 -64 0
v -144 -64 0
v -144 -48 0
v -128 -48 0
v -144 -64 0
v -160 -64 0
v -160 -48 0
v -144 -48 0
v -160 -64 0
v -176 -64 0
v -176 -48 0
v -160 -48 0
v -176 -64 0
v -192 -64 0
v -192 -48 0
v -176 -48 0
v -192 -64 0
v -208 -64 0
v -208 -48 0
v -192 -48 0
v -208 -64 0
v -224 -64 0
v -224 -48 0
v -208 -48 0
v -224 -64 0
v -240 -64 0
v -240 -48 0
v -224 -48 0
v -240 -64 0
v -256 -64 0
v -256 -48 0
v -240 -48 0
v 0 -80 0
v -16 -80 0
v -16 -64 0
v 0 -64 0
v -16 -80 0
v -32 -80 0
v -32 -64 0
v -16 -64 0
v -32 -80 0
v -48 -80 0
v -48 -64 0
v -32 -64 0
v -48 -80 0
v -64 -80 0
v -64 -64 0
v -48 -64 0
v -64 -80 0
v -80 -80 0
v -80 -64 0
v -64 -64 0
v -80 -80 0
v -96 -80 0
v -96 -64 0
v -80 -64 0
v -96 -80 0
v -112 -80 0
v -112 -64 0
v -96 -64 0
v -112 -80 0
v -128 -80 0
v -128 -64 0
v -112 -64 0
v -128 -80 0
v -144 -80 0
v -144 -64 0
v -128 -64 0
v -144 -80 0
v -160 -80 0
v -160 -64 0
v -144 -64 0
v -160 -80 0
v -176 -80 0
v -176 -64 0
v -160 -64 0
v -176 -80 0
v -192 -80 0
v -192 -64 0
v -176 -64 0
v -192 -80 0
v -208 -80 0
v -208 -64 0
v -192 -64 0
v -208 -80 0
v -224 -80 0
v -224 -64 0
v -208 -64 0
v -224 -80 0
v -240 -80 0
v -240 -64 0
v -224 -64 0
v -240 -80 0
v -256 -80 0
v -256 -64 0
v -240 -64 0
v 0 -96 0
v -16 -96 0
v -16 -80 0
v 0 -80 0
v -16 -96 0
v -32 -96 0
v -32 -80 0
v -16 -80 0
v -32 -96 0
v -48 -96 0
v -48 -80 0
v -32 -80 0
v -48 -96 0
v -64 -96 0
v -64 -80 0
v -48 -80 0
v -64 -96 0
v -80 -96 0
v -80 -80 0
v -64 -80 0
v -80 -96 0
v -96 -96 0
v -96 -80 0
v -80 -80 0
v -96 -96 0
v -112 -96 0
v -112 -80 0
v -96 -80 0
v -112 -96 0
v -128 -96 0
v -128 -80 0
v -112 -80 0
v -128 -96 0
v -144 -96 0
v -144 -80 0
v -128 -80 0
v -144 -96 0
v -160 -96 0
v -160 -80 0
v -144 -80 0
v -160 -96 0
v -176 -96 0
v -176 -80 0
v -160 -80 0
v -176 -96 0
v -192 -96 0
v -192 -80 0
v -176 -80 0
v -192 -96 0
v -208 -96 0
v -208 -80 0
v -192 -80 0
v -208 -96 0
v -224 -96 0
v -224 -80 0
v -208 -80 0
v -224 -96 0
v -240 -96 0
v -240 -80 0
v -224 -80 0
v -240 -96 0
v -256 -96 0
v -256 -80 0
v -240 -80 0
v 0 -112 0
v -16 -112 0
v -16 -96 0
v 0 -96 0
v -16 -112 0
v -32 -112 0
v -32 -96 0
v -16 -96 0
v -32 -112 0
v -48 -112 0
v -48 -96 0
v -32 -96 0
v -48 -112 0
v -64 -112 0
v -64 -96 0
v -48 -96 0
v -64 -112 0
v -80 -112 0
v -80 -96 0
v -64 -96 0
v -80 -112 0
v -96 -112 0
v -96 -96 0
v -80 -96 0
v -96 -112 0
v -112 -112 0
v -112 -96 0
v -96 -96 0
v -112 -112 0
v -128 -112 0
v -128 -96 0
v -112 -96 0
v -128 -112 0
v -144 -112 0
v -144 -96 0
v -128 -96 0
v -144 -112 0
v -160 -112 0
v -160 -96 0
v -144 -96 0
v -160 -112 0
v -176 -112 0
v -176 -96 0
v -160 -96 0
v -176 -112 0
v -192 -112 0
v -192 -96 0
v -176 -96 0
v -192 -112 0
v -208 -112 0
v -208 -96 0
v -192 -96 0
v -208 -112 0
v -224 -112 0
v -224 -96 0
v -208 -96 0
v -224 -112 0
v -240 -112 0
v -240 -96 0
v -224 -96 0
v -240 -112 0
v -256 -112 0
v -256 -96 0
v -240 -96 0
v 0 -128 0
v -16 -128 0
v -16 -112 0
v 0 -112 0
v -16 -128 0
v -32 -128 0
v -32 -112 0
v -16 -112 0
v -32 -128 0
v -48 -128 0
v -48 -112 0
v -32 -112 0
v -48 -128 0
v -64 -128 0
v -64 -112 0
v -48 -112 0
v -64 -128 0
v -80 -128 0
v -80 -112 0
v -64 -112 0
v -80 -128 0
v -96 -128 0
v -96 -112 0
v -80 -112 0
v -96 -128 0
v -112 -128 0
v -112 -112 0
v -96 -112 0
v -112 -128 0
v -128 -128 0
v -128 -112 0
v -112 -112 0
v -128 -128 0
v -144 -128 0
v -144 -112 0
v -128 -112 0
v -144 -128 0
v -160 -128 0
v -160 -112 0
v -144 -112 0
v -160 -128 0
v -176 -128 0
v -176 -112 0
v -160 -112 0
v -176 -128 0
v -192 -128 0
v -192 -112 0
v -176 -112 0
v -192 -128 0
v -208 -128 0
v -208 -112 0
v -192 -112 0
v -208 -128 0
v -224 -128 0
v -224 -112 0
v -208 -112 0
v -224 -128 0
v -240 -128 0
v -240 -112 0
v -224 -112 0
v -240 -128 0
v -256 -128 0
v -256 -112 0
v -240 -112 0
v 0 -144 0
v -16 -144 0
v -16 -128 0
v 0 -128 0
v -16 -144 0
v -32 -144 0
v -32 -128 0
v -16 -128 0
v -32 -144 0
v -48 -144 0
v -48 -128 0
v -32 -128 0
v -48 -144 0
v -64 -144 0
v -64 -128 0
v -48 -128 0
v -64 -144 0
v -80 -144 0
v -80 -128 0
v -64 -128 0
v -80 -144 0
v -96 -144 0
v -96 -128 0
v -80 -128 0
v -96 -144 0
v -112 -144 0
v -112 -128 0
v -96 -128 0
v -112 -144 0
v -128 -144 0
v -128 -128 0
v -112 -128 0
v -128 -144 0
v -144 -144 0
v -144 -128 0
v -128 -128 0
v -144 -144 0
v -160 -144 0
v -160 -128 0
v -144 -128 0
v -160 -144 0
v -176 -144 0
v -176 -128 0
v -160 -128 0
v -176 -144 0
v -192 -144 0
v -192 -128 0
v -176 -128 0
v -192 -144 0
v -208 -144 0
v -208 -128 0
v -192 -128 0
v -208 -144 0
v -224 -144 0
v -224 -128 0
v -208 -128 0
v -224 -144 0
v -240 -144 0
v -240 -128 0
v -224 -128 0
v -240 -144 0
v -256 -144 0
v -256 -128 0
v -240 -128 0
v 0 -160 0
v -16 -160 0
v -16 -144 0
v 0 -144 0
v -16 -160 0
v -32 -160 0
v -32 -144 0
v -16 -144 0
v -32 -160 0
v -48 -160 0
v -48 -144 0
v -32 -144 0
v -48 -160 0
v -64 -160 0
v -64 -144 0
v -48 -144 0
v -64 -160 0
v -80 -160 0
v -80 -144 0
v -64 -144 0
v -80 -160 0
v -96 -160 0
v -96 -144 0
v -80 -144 0
v -96 -160 0
v -112 -160 0
v -112 -144 0
v -96 -144 0
v -112 -160 0
v -128 -160 0
v -128 -144 0
v -112 -144 0
v -128 -160 0
v -144 -160 0
v -144 -144 0
v -128 -144 0
v -144 -160 0
v -160 -160 0
v -160 -144 0
v -144 -144 0
v -160 -160 0
v -176 -160 0
v -176 -144 0
v -160 -144 0
v -176 -160 0
v -192 -160 0
v -192 -144 0
v -176 -144 0
v -192 -160 0
v -208 -160 0
v -208 -144 0
v -192 -144 0
v -208 -160 0
v -224 -160 0
v -224 -144 0
v -208 -144 0
v -224 -160 0
v -240 -160 0
v -240 -144 0
v -224 -144 0
v -240 -160 0
v -256 -160 0
v -256 -144 0
v -240 -144 0
v 0 -176 0
v -16 -176 0
v -16 -160 0
v 0 -160 0
v -16 -176 0
v -32 -176 0
v -32 -160 0
v -16 -160 0
v -32 -176 0
v -48 -176 0
v -48 -160 0
v -32 -160 0
v -48 -176 0
v -64 -176 0
v -64 -160 0
v -48 -160 0
v -64 -176 0
v -80 -176 0
v -80 -160 0
v -64 -160 0
v -80 -176 0
v -96 -176 0
v -96 -160 0
v -80 -160 0
v -96 -176 0
v -112 -176 0
v -112 -160 0
v -96 -160 0
v -112 -176 0
v -128 -176 0
v -128 -160 0
v -112 -160 0
v -128 -176 0
v -144 -176 0
v -144 -160 0
v -128 -160 0
v -144 -176 0
v -160 -176 0
v -160 -160 0
v -144 -160 0
v -160 -176 0
v -176 -176 0
v -176 -160 0
v -160 -160 0
v -176 -176 0
v -192 -176 0
v -192 -160 0
v -176 -160 0
v -192 -176 0
v -208 -176 0
v -208 -160 0
v -192 -160 0
v -208 -176 0
v -224 -176 0
v -224 -160 0
v -208 -160 0
v -224 -176 0
v -240 -176 0
v -240 -160 0
v -224 -160 0
v -240 -176 0
v -256 -176 0
v -256 -160 0
v -240 -160 0
v 0 -192 0
v -16 -192 0
v -16 -176 0
v 0 -176 0
v -16 -192 0
v -32 -192 0
v -32 -176 0
v -16 -176 0
v -32 -192 0
v -48 -192 0
v -48 -176 0
v -32 -176 0
v -48 -192 0
v -64 -192 0
v -64 -176 0
v -48 -176 0
v -64 -192 0
v -80 -192 0
v -80 -176 0
v -64 -176 0
v -80 -192 0
v -96 -192 0
v -96 -176 0
v -80 -176 0
v -96 -192 0
v -112 -192 0
v -112 -176 0
v -96 -176 0
v -112 -192 0
v -128 -192 0
v -128 -176 0
v -112 -176 0
v -128 -192 0
v -144 -192 0
v -144 -176 0
v -128 -176 0
v -144 -192 0
v -160 -192 0
v -160 -176 0
v -144 -176 0
v -160 -192 0
v -176 -192 0
v -176 -176 0
v -160 -176 0
v -176 -192 0
v -192 -192 0
v -192 -176 0
v -176 -176 0
v -192 -192 0
v -208 -192 0
v -208 -176 0
v -192 -176 0
v -208 -192 0
v -224 -192 0
v -224 -176 0
v -208 -176 0
v -224 -192 0
v -240 -192 0
v -240 -176 0
v -224 -176 0
v -240 -192 0
v -256 -192 0
v -256 -176 0
v -240 -176 0
v 0 -208 0
v -16 -208 0
v -16 -192 0
v 0 -192 0
v -16 -208 0
v -32 -208 0
v -32 -192 0
v -16 -192 0
v -32 -208 0
v -48 -208 0
v -48 -192 0
v -32 -192 0
v -48 -208 0
v -64 -208 0
v -64 -192 0
v -48 -192 0
v -64 -208 0
v -80 -208 0
v -80 -192 0
v -64 -192 0
v -80 -208 0
v -96 -208 0
v -96 -192 0
v -80 -192 0
v -96 -208 0
v -112 -208 0
v -112 -192 0
v -96 -192 0
v -112 -208 0
v -128 -208 0
v -128 -192 0
v -112 -192 0
v -128 -208 0
v -144 -208 0
v -144 -192 0
v -128 -192 0
v -144 -208 0
v -160 -208 0
v -160 -192 0
v -144 -192 0
v -160 -208 0
v -176 -208 0
v -176 -192 0
v -160 -192 0
v -176 -208 0
v -192 -208 0
v -192 -192 0
v -176 -192 0
v -192 -208 0
v -208 -208 0
v -208 -192 0
v -192 -192 0
v -208 -208 0
v -224 -208 0
v -224 -192 0
v -208 -192 0
v -224 -208 0
v -240 -208 0
v -240 -192 0
v -224 -192 0
v -240 -208 0
v -256 -208 0
v -256 -192 0
v -240 -192 0
v 0 -224 0
v -16 -224 0
v -16 -208 0
v 0 -208 0
v -16 -224 0
v -32 -224 0
v -32 -208 0
v -16 -208 0
v -32 -224 0
v -48 -224 0
v -48 -208 0
v -32 -208 0
v -48 -224 0
v -64 -224 0
v -64 -208 0
v -48 -208 0
v -64 -224 0
v -80 -224 0
v -80 -208 0
v -64 -208 0
v -80 -224 0
v -96 -224 0
v -96 -208 0
v -80 -208 0
v -96 -224 0
v -112 -224 0
v -112 -208 0
v -96 -208 0
v -112 -224 0
v -128 -224 0
v -128 -208 0
v -112 -208 0
v -128 -224 0
v -144 -224 0
v -144 -208 0
v -128 -208 0
v -144 -224 0
v -160 -224 0
v -160 -208 0
v -144 -208 0
v -160 -224 0
v -176 -224 0
v -176 -208 0
v -160 -208 0
v -176 -224 0
v -192 -224 0
v -192 -208 0
v -176 -208 0
v -192 -224 0
v -208 -224 0
v -208 -208 0
v -192 -208 0
v -208 -224 0
v -224 -224 0
v -224 -208 0
v -208 -208 0
v -224 -224 0
v -240 -224 0
v -240 -208 0
v -224 -208 0
v -240 -224 0
v -256 -224 0
v -256 -208 0
v -240 -208 0
v 0 -240 0
v -16 -240 0
v -16 -224 0
v 0 -224 0
v -16 -240 0
v -32 -240 0
v -32 -224 0
v -16 -224 0
v -32 -240 0
v -48 -240 0
v -48 -224 0
v -32 -224 0
v -48 -240 0
v -64 -240 0
v -64 -224 0
v -48 -224 0
v -64 -240 0
v -80 -240 0
v -80 -224 0
v -64 -224 0
v -80 -240 0
v -96 -240 0
v -96 -224 0
v -80 -224 0
v -96 -240 0
v -112 -240 0
v -112 -224 0
v -96 -224 0
v -112 -240 0
v -128 -240 0
v -128 -224 0
v -112 -224 0
v -128 -240 0
v -144 -240 0
v -144 -224 0
v -128 -224 0
v -144 -240 0
v -160 -240 0
v -160 -224 0
v -144 -224 0
v -160 -240 0
v -176 -240 0
v -176 -224 0
v -160 -224 0
v -176 -240 0
v -192 -240 0
v -192 -224 0
v -176 -224 0
v -192 -240 0
v -208 -240 0
v -208 -224 0
v -192 -224 0
v -208 -240 0
v -224 -240 0
v -224 -224 0
v -208 -224 0
v -224 -240 0
v -240 -240 0
v -240 -224 0
v -224 -224 0
v -240 -240 0
v -256 -240 0
v -256 -224 0
v -240 -224 0
v 0 -256 0
v -16 -256 0
v -16 -240 0
v 0 -240 0
v -16 -256 0
v -32 -256 0
v -32 -240 0
v -16 -240 0
v -32 -256 0
v -48 -256 0
v -48 -240 0
v -32 -240 0
v -48 -256 0
v -64 -256 0
v -64 -240 0
v -48 -240 0
v -64 -256 0
v -80 -256 0
v -80 -240 0
v -64 -240 0
v -80 -256 0
v -96 -256 0
v -96 -240 0
v -80 -240 0
v -96 -256 0
v -112 -256 0
v -112 -240 0
v -96 -240 0
v -112 -256 0
v -128 -256 0
v -128 -240 0
v -112 -240 0
v -128 -256 0
v -144 -256 0
v -144 -240 0
v -128 -240 0
v -144 -256 0
v -160 -256 0
v -160 -240 0
v -144 -240 0
v -160 -256 0
v -176 -256 0
v -176 -240 0
v -160 -240 0
v -176 -256 0
v -192 -256 0
v -192 -240 0
v -176 -240 0
v -192 -256 0
v -208 -256 0
v -208 -240 0
v -192 -240 0
v -208 -256 0
v -224 -256 0
v -224 -240 0
v -208 -240 0
v -224 -256 0
v -240 -256 0
v -240 -240 0
v -224 -240 0
v -240 -256 0
v -256 -256 0
v -256 -240 0
v -240 -240 0

# Texture cooridinates (Count = 49)
vt 0.01953125 0.390625
vt 0.0234375 0.390625
vt 0.0234375 0.40625
vt 0.01953125 0.40625
vt 0.01171875 0.4375
vt 0.015625 0.4375
vt 0.015625 0.453125
vt 0.01171875 0.453125
vt 0.01953125 0.453125
vt 0.01953125 0.46875
vt 0.015625 0.46875
vt 0.0078125 0.421875
vt 0.01171875 0.421875
vt 0.0078125 0.4375
vt 0.01171875 0.46875
vt 0.0234375 0.421875
vt 0.02734375 0.421875
vt 0.02734375 0.4375
vt 0.0234375 0.4375
vt 0.02734375 0.390625
vt 0.03125 0.390625
vt 0.03125 0.40625
vt 0.02734375 0.40625
vt 0.01171875 0.390625
vt 0.015625 0.390625
vt 0.015625 0.40625
vt 0.01171875 0.40625
vt 0.01953125 0.421875
vt 0.01953125 0.4375
vt 0.0078125 0.40625
vt 0.02734375 0.453125
vt 0.03125 0.453125
vt 0.03125 0.46875
vt 0.02734375 0.46875
vt 0.03125 0.421875
vt 0.015625 0.421875
vt 0.0078125 0.453125
vt 0.0078125 0.46875
vt 0.03125 0.4375
vt 0.0234375 0.453125
vt 0.0234375 0.46875
vt 0.01171875 0.484375
vt 0.0078125 0.484375
vt 0.0078125 0.390625
vt 0.03125 0.484375
vt 0.02734375 0.484375
vt 0.015625 0.484375
vt 0.0234375 0.484375
vt 0.01953125 0.484375

# Normal
vn 0 0 -1

# Mesh description
g TitleIntro_mesh_0056

# Faces
f 1/1/1 2/2/1 3/3/1 4/4/1
f 5/5/1 6/6/1 7/7/1 8/8/1
f 9/7/1 10/9/1 11/10/1 12/11/1
f 13/12/1 14/13/1 15/5/1 16/14/1
f 17/8/1 18/7/1 19/11/1 20/15/1
f 21/16/1 22/17/1 23/18/1 24/19/1
f 25/20/1 26/21/1 27/22/1 28/23/1
f 29/3/1 30/23/1 31/17/1 32/16/1
f 33/2/1 34/20/1 35/23/1 36/3/1
f 37/8/1 38/7/1 39/11/1 40/15/1
f 41/7/1 42/9/1 43/10/1 44/11/1
f 45/24/1 46/25/1 47/26/1 48/27/1
f 49/16/1 50/17/1 51/18/1 52/19/1
f 53/28/1 54/16/1 55/19/1 56/29/1
f 57/3/1 58/23/1 59/17/1 60/16/1
f 61/30/1 62/27/1 63/13/1 64/12/1
f 65/31/1 66/32/1 67/33/1 68/34/1
f 69/23/1 70/22/1 71/35/1 72/17/1
f 73/36/1 74/28/1 75/29/1 76/6/1
f 77/3/1 78/23/1 79/17/1 80/16/1
f 81/37/1 82/8/1 83/15/1 84/38/1
f 85/18/1 86/39/1 87/32/1 88/31/1
f 89/5/1 90/6/1 91/7/1 92/8/1
f 93/7/1 94/9/1 95/10/1 96/11/1
f 97/9/1 98/40/1 99/41/1 100/10/1
f 101/31/1 102/32/1 103/33/1 104/34/1
f 105/7/1 106/9/1 107/10/1 108/11/1
f 109/12/1 110/13/1 111/5/1 112/14/1
f 113/25/1 114/1/1 115/4/1 116/26/1
f 117/31/1 118/32/1 119/33/1 120/34/1
f 121/8/1 122/7/1 123/11/1 124/15/1
f 125/18/1 126/39/1 127/32/1 128/31/1
f 129/12/1 130/13/1 131/5/1 132/14/1
f 133/8/1 134/7/1 135/11/1 136/15/1
f 137/38/1 138/15/1 139/42/1 140/43/1
f 141/14/1 142/5/1 143/8/1 144/37/1
f 145/26/1 146/4/1 147/28/1 148/36/1
f 149/12/1 150/13/1 151/5/1 152/14/1
f 153/44/1 154/24/1 155/27/1 156/30/1
f 157/5/1 158/6/1 159/7/1 160/8/1
f 161/26/1 162/4/1 163/28/1 164/36/1
f 165/8/1 166/7/1 167/11/1 168/15/1
f 169/34/1 170/33/1 171/45/1 172/46/1
f 173/20/1 174/21/1 175/22/1 176/23/1
f 177/25/1 178/1/1 179/4/1 180/26/1
f 181/20/1 182/21/1 183/22/1 184/23/1
f 185/37/1 186/8/1 187/15/1 188/38/1
f 189/34/1 190/33/1 191/45/1 192/46/1
f 193/13/1 194/36/1 195/6/1 196/5/1
f 197/28/1 198/16/1 199/19/1 200/29/1
f 201/26/1 202/4/1 203/28/1 204/36/1
f 205/28/1 206/16/1 207/19/1 208/29/1
f 209/30/1 210/27/1 211/13/1 212/12/1
f 213/1/1 214/2/1 215/3/1 216/4/1
f 217/15/1 218/11/1 219/47/1 220/42/1
f 221/23/1 222/22/1 223/35/1 224/17/1
f 225/3/1 226/23/1 227/17/1 228/16/1
f 229/31/1 230/32/1 231/33/1 232/34/1
f 233/27/1 234/26/1 235/36/1 236/13/1
f 237/29/1 238/19/1 239/40/1 240/9/1
f 241/30/1 242/27/1 243/13/1 244/12/1
f 245/25/1 246/1/1 247/4/1 248/26/1
f 249/27/1 250/26/1 251/36/1 252/13/1
f 253/26/1 254/4/1 255/28/1 256/36/1
f 257/30/1 258/27/1 259/13/1 260/12/1
f 261/20/1 262/21/1 263/22/1 264/23/1
f 265/24/1 266/25/1 267/26/1 268/27/1
f 269/10/1 270/41/1 271/48/1 272/49/1
f 273/41/1 274/34/1 275/46/1 276/48/1
f 277/1/1 278/2/1 279/3/1 280/4/1
f 281/2/1 282/20/1 283/23/1 284/3/1
f 285/12/1 286/13/1 287/5/1 288/14/1
f 289/19/1 290/18/1 291/31/1 292/40/1
f 293/14/1 294/5/1 295/8/1 296/37/1
f 297/28/1 298/16/1 299/19/1 300/29/1
f 301/38/1 302/15/1 303/42/1 304/43/1
f 305/18/1 306/39/1 307/32/1 308/31/1
f 309/24/1 310/25/1 311/26/1 312/27/1
f 313/7/1 314/9/1 315/10/1 316/11/1
f 317/40/1 318/31/1 319/34/1 320/41/1
f 321/27/1 322/26/1 323/36/1 324/13/1
f 325/7/1 326/9/1 327/10/1 328/11/1
f 329/17/1 330/35/1 331/39/1 332/18/1
f 333/34/1 334/33/1 335/45/1 336/46/1
f 337/2/1 338/20/1 339/23/1 340/3/1
f 341/9/1 342/40/1 343/41/1 344/10/1
f 345/7/1 346/9/1 347/10/1 348/11/1
f 349/25/1 350/1/1 351/4/1 352/26/1
f 353/15/1 354/11/1 355/47/1 356/42/1
f 357/27/1 358/26/1 359/36/1 360/13/1
f 361/13/1 362/36/1 363/6/1 364/5/1
f 365/13/1 366/36/1 367/6/1 368/5/1
f 369/26/1 370/4/1 371/28/1 372/36/1
f 373/14/1 374/5/1 375/8/1 376/37/1
f 377/24/1 378/25/1 379/26/1 380/27/1
f 381/40/1 382/31/1 383/34/1 384/41/1
f 385/23/1 386/22/1 387/35/1 388/17/1
f 389/6/1 390/29/1 391/9/1 392/7/1
f 393/9/1 394/40/1 395/41/1 396/10/1
f 397/29/1 398/19/1 399/40/1 400/9/1
f 401/41/1 402/34/1 403/46/1 404/48/1
f 405/3/1 406/23/1 407/17/1 408/16/1
f 409/17/1 410/35/1 411/39/1 412/18/1
f 413/14/1 414/5/1 415/8/1 416/37/1
f 417/24/1 418/25/1 419/26/1 420/27/1
f 421/12/1 422/13/1 423/5/1 424/14/1
f 425/6/1 426/29/1 427/9/1 428/7/1
f 429/17/1 430/35/1 431/39/1 432/18/1
f 433/5/1 434/6/1 435/7/1 436/8/1
f 437/31/1 438/32/1 439/33/1 440/34/1
f 441/44/1 442/24/1 443/27/1 444/30/1
f 445/10/1 446/41/1 447/48/1 448/49/1
f 449/6/1 450/29/1 451/9/1 452/7/1
f 453/12/1 454/13/1 455/5/1 456/14/1
f 457/12/1 458/13/1 459/5/1 460/14/1
f 461/18/1 462/39/1 463/32/1 464/31/1
f 465/40/1 466/31/1 467/34/1 468/41/1
f 469/31/1 470/32/1 471/33/1 472/34/1
f 473/26/1 474/4/1 475/28/1 476/36/1
f 477/1/1 478/2/1 479/3/1 480/4/1
f 481/26/1 482/4/1 483/28/1 484/36/1
f 485/28/1 486/16/1 487/19/1 488/29/1
f 489/25/1 490/1/1 491/4/1 492/26/1
f 493/41/1 494/34/1 495/46/1 496/48/1
f 497/44/1 498/24/1 499/27/1 500/30/1
f 501/25/1 502/1/1 503/4/1 504/26/1
f 505/24/1 506/25/1 507/26/1 508/27/1
f 509/44/1 510/24/1 511/27/1 512/30/1
f 513/27/1 514/26/1 515/36/1 516/13/1
f 517/31/1 518/32/1 519/33/1 520/34/1
f 521/1/1 522/2/1 523/3/1 524/4/1
f 525/15/1 526/11/1 527/47/1 528/42/1
f 529/37/1 530/8/1 531/15/1 532/38/1
f 533/8/1 534/7/1 535/11/1 536/15/1
f 537/36/1 538/28/1 539/29/1 540/6/1
f 541/20/1 542/21/1 543/22/1 544/23/1
f 545/13/1 546/36/1 547/6/1 548/5/1
f 549/30/1 550/27/1 551/13/1 552/12/1
f 553/15/1 554/11/1 555/47/1 556/42/1
f 557/6/1 558/29/1 559/9/1 560/7/1
f 561/30/1 562/27/1 563/13/1 564/12/1
f 565/3/1 566/23/1 567/17/1 568/16/1
f 569/28/1 570/16/1 571/19/1 572/29/1
f 573/27/1 574/26/1 575/36/1 576/13/1
f 577/12/1 578/13/1 579/5/1 580/14/1
f 581/11/1 582/10/1 583/49/1 584/47/1
f 585/29/1 586/19/1 587/40/1 588/9/1
f 589/1/1 590/2/1 591/3/1 592/4/1
f 593/41/1 594/34/1 595/46/1 596/48/1
f 597/18/1 598/39/1 599/32/1 600/31/1
f 601/15/1 602/11/1 603/47/1 604/42/1
f 605/15/1 606/11/1 607/47/1 608/42/1
f 609/34/1 610/33/1 611/45/1 612/46/1
f 613/34/1 614/33/1 615/45/1 616/46/1
f 617/27/1 618/26/1 619/36/1 620/13/1
f 621/28/1 622/16/1 623/19/1 624/29/1
f 625/18/1 626/39/1 627/32/1 628/31/1
f 629/34/1 630/33/1 631/45/1 632/46/1
f 633/20/1 634/21/1 635/22/1 636/23/1
f 637/18/1 638/39/1 639/32/1 640/31/1
f 641/16/1 642/17/1 643/18/1 644/19/1
f 645/2/1 646/20/1 647/23/1 648/3/1
f 649/37/1 650/8/1 651/15/1 652/38/1
f 653/10/1 654/41/1 655/48/1 656/49/1
f 657/5/1 658/6/1 659/7/1 660/8/1
f 661/17/1 662/35/1 663/39/1 664/18/1
f 665/12/1 666/13/1 667/5/1 668/14/1
f 669/15/1 670/11/1 671/47/1 672/42/1
f 673/14/1 674/5/1 675/8/1 676/37/1
f 677/28/1 678/16/1 679/19/1 680/29/1
f 681/29/1 682/19/1 683/40/1 684/9/1
f 685/25/1 686/1/1 687/4/1 688/26/1
f 689/10/1 690/41/1 691/48/1 692/49/1
f 693/34/1 694/33/1 695/45/1 696/46/1
f 697/27/1 698/26/1 699/36/1 700/13/1
f 701/12/1 702/13/1 703/5/1 704/14/1
f 705/28/1 706/16/1 707/19/1 708/29/1
f 709/27/1 710/26/1 711/36/1 712/13/1
f 713/8/1 714/7/1 715/11/1 716/15/1
f 717/26/1 718/4/1 719/28/1 720/36/1
f 721/44/1 722/24/1 723/27/1 724/30/1
f 725/25/1 726/1/1 727/4/1 728/26/1
f 729/10/1 730/41/1 731/48/1 732/49/1
f 733/25/1 734/1/1 735/4/1 736/26/1
f 737/19/1 738/18/1 739/31/1 740/40/1
f 741/44/1 742/24/1 743/27/1 744/30/1
f 745/12/1 746/13/1 747/5/1 748/14/1
f 749/27/1 750/26/1 751/36/1 752/13/1
f 753/10/1 754/41/1 755/48/1 756/49/1
f 757/17/1 758/35/1 759/39/1 760/18/1
f 761/28/1 762/16/1 763/19/1 764/29/1
f 765/11/1 766/10/1 767/49/1 768/47/1
f 769/38/1 770/15/1 771/42/1 772/43/1
f 773/36/1 774/28/1 775/29/1 776/6/1
f 777/13/1 778/36/1 779/6/1 780/5/1
f 781/10/1 782/41/1 783/48/1 784/49/1
f 785/44/1 786/24/1 787/27/1 788/30/1
f 789/8/1 790/7/1 791/11/1 792/15/1
f 793/34/1 794/33/1 795/45/1 796/46/1
f 797/18/1 798/39/1 799/32/1 800/31/1
f 801/19/1 802/18/1 803/31/1 804/40/1
f 805/8/1 806/7/1 807/11/1 808/15/1
f 809/17/1 810/35/1 811/39/1 812/18/1
f 813/13/1 814/36/1 815/6/1 816/5/1
f 817/6/1 818/29/1 819/9/1 820/7/1
f 821/3/1 822/23/1 823/17/1 824/16/1
f 825/12/1 826/13/1 827/5/1 828/14/1
f 829/28/1 830/16/1 831/19/1 832/29/1
f 833/17/1 834/35/1 835/39/1 836/18/1
f 837/29/1 838/19/1 839/40/1 840/9/1
f 841/28/1 842/16/1 843/19/1 844/29/1
f 845/13/1 846/36/1 847/6/1 848/5/1
f 849/41/1 850/34/1 851/46/1 852/48/1
f 853/44/1 854/24/1 855/27/1 856/30/1
f 857/29/1 858/19/1 859/40/1 860/9/1
f 861/9/1 862/40/1 863/41/1 864/10/1
f 865/27/1 866/26/1 867/36/1 868/13/1
f 869/26/1 870/4/1 871/28/1 872/36/1
f 873/3/1 874/23/1 875/17/1 876/16/1
f 877/5/1 878/6/1 879/7/1 880/8/1
f 881/6/1 882/29/1 883/9/1 884/7/1
f 885/40/1 886/31/1 887/34/1 888/41/1
f 889/12/1 890/13/1 891/5/1 892/14/1
f 893/19/1 894/18/1 895/31/1 896/40/1
f 897/16/1 898/17/1 899/18/1 900/19/1
f 901/11/1 902/10/1 903/49/1 904/47/1
f 905/15/1 906/11/1 907/47/1 908/42/1
f 909/31/1 910/32/1 911/33/1 912/34/1
f 913/24/1 914/25/1 915/26/1 916/27/1
f 917/24/1 918/25/1 919/26/1 920/27/1
f 921/36/1 922/28/1 923/29/1 924/6/1
f 925/16/1 926/17/1 927/18/1 928/19/1
f 929/30/1 930/27/1 931/13/1 932/12/1
f 933/18/1 934/39/1 935/32/1 936/31/1
f 937/17/1 938/35/1 939/39/1 940/18/1
f 941/29/1 942/19/1 943/40/1 944/9/1
f 945/10/1 946/41/1 947/48/1 948/49/1
f 949/24/1 950/25/1 951/26/1 952/27/1
f 953/18/1 954/39/1 955/32/1 956/31/1
f 957/38/1 958/15/1 959/42/1 960/43/1
f 961/26/1 962/4/1 963/28/1 964/36/1
f 965/28/1 966/16/1 967/19/1 968/29/1
f 969/36/1 970/28/1 971/29/1 972/6/1
f 973/31/1 974/32/1 975/33/1 976/34/1
f 977/36/1 978/28/1 979/29/1 980/6/1
f 981/18/1 982/39/1 983/32/1 984/31/1
f 985/17/1 986/35/1 987/39/1 988/18/1
f 989/15/1 990/11/1 991/47/1 992/42/1
f 993/14/1 994/5/1 995/8/1 996/37/1
f 997/29/1 998/19/1 999/40/1 1000/9/1
f 1001/11/1 1002/10/1 1003/49/1 1004/47/1
f 1005/14/1 1006/5/1 1007/8/1 1008/37/1
f 1009/1/1 1010/2/1 1011/3/1 1012/4/1
f 1013/9/1 1014/40/1 1015/41/1 1016/10/1
f 1017/7/1 1018/9/1 1019/10/1 1020/11/1
f 1021/6/1 1022/29/1 1023/9/1 1024/7/1

