# Tiled2Unity generated file. Do not modify by hand.
# Wavefront file for 'TitleIntro_mesh_0082.obj'

# Vertices (Count = 320)
v -176 -16 0
v -192 -16 0
v -192 0 0
v -176 0 0
v -192 -16 0
v -208 -16 0
v -208 0 0
v -192 0 0
v -208 -16 0
v -224 -16 0
v -224 0 0
v -208 0 0
v -224 -16 0
v -240 -16 0
v -240 0 0
v -224 0 0
v -240 -16 0
v -256 -16 0
v -256 0 0
v -240 0 0
v -176 -32 0
v -192 -32 0
v -192 -16 0
v -176 -16 0
v -192 -32 0
v -208 -32 0
v -208 -16 0
v -192 -16 0
v -208 -32 0
v -224 -32 0
v -224 -16 0
v -208 -16 0
v -224 -32 0
v -240 -32 0
v -240 -16 0
v -224 -16 0
v -240 -32 0
v -256 -32 0
v -256 -16 0
v -240 -16 0
v -176 -48 0
v -192 -48 0
v -192 -32 0
v -176 -32 0
v -192 -48 0
v -208 -48 0
v -208 -32 0
v -192 -32 0
v -208 -48 0
v -224 -48 0
v -224 -32 0
v -208 -32 0
v -224 -48 0
v -240 -48 0
v -240 -32 0
v -224 -32 0
v -240 -48 0
v -256 -48 0
v -256 -32 0
v -240 -32 0
v -176 -64 0
v -192 -64 0
v -192 -48 0
v -176 -48 0
v -192 -64 0
v -208 -64 0
v -208 -48 0
v -192 -48 0
v -208 -64 0
v -224 -64 0
v -224 -48 0
v -208 -48 0
v -224 -64 0
v -240 -64 0
v -240 -48 0
v -224 -48 0
v -240 -64 0
v -256 -64 0
v -256 -48 0
v -240 -48 0
v -176 -80 0
v -192 -80 0
v -192 -64 0
v -176 -64 0
v -192 -80 0
v -208 -80 0
v -208 -64 0
v -192 -64 0
v -208 -80 0
v -224 -80 0
v -224 -64 0
v -208 -64 0
v -224 -80 0
v -240 -80 0
v -240 -64 0
v -224 -64 0
v -240 -80 0
v -256 -80 0
v -256 -64 0
v -240 -64 0
v -176 -96 0
v -192 -96 0
v -192 -80 0
v -176 -80 0
v -192 -96 0
v -208 -96 0
v -208 -80 0
v -192 -80 0
v -208 -96 0
v -224 -96 0
v -224 -80 0
v -208 -80 0
v -224 -96 0
v -240 -96 0
v -240 -80 0
v -224 -80 0
v -240 -96 0
v -256 -96 0
v -256 -80 0
v -240 -80 0
v -176 -112 0
v -192 -112 0
v -192 -96 0
v -176 -96 0
v -192 -112 0
v -208 -112 0
v -208 -96 0
v -192 -96 0
v -208 -112 0
v -224 -112 0
v -224 -96 0
v -208 -96 0
v -224 -112 0
v -240 -112 0
v -240 -96 0
v -224 -96 0
v -240 -112 0
v -256 -112 0
v -256 -96 0
v -240 -96 0
v -176 -128 0
v -192 -128 0
v -192 -112 0
v -176 -112 0
v -192 -128 0
v -208 -128 0
v -208 -112 0
v -192 -112 0
v -208 -128 0
v -224 -128 0
v -224 -112 0
v -208 -112 0
v -224 -128 0
v -240 -128 0
v -240 -112 0
v -224 -112 0
v -240 -128 0
v -256 -128 0
v -256 -112 0
v -240 -112 0
v -176 -144 0
v -192 -144 0
v -192 -128 0
v -176 -128 0
v -192 -144 0
v -208 -144 0
v -208 -128 0
v -192 -128 0
v -208 -144 0
v -224 -144 0
v -224 -128 0
v -208 -128 0
v -224 -144 0
v -240 -144 0
v -240 -128 0
v -224 -128 0
v -240 -144 0
v -256 -144 0
v -256 -128 0
v -240 -128 0
v -176 -160 0
v -192 -160 0
v -192 -144 0
v -176 -144 0
v -192 -160 0
v -208 -160 0
v -208 -144 0
v -192 -144 0
v -208 -160 0
v -224 -160 0
v -224 -144 0
v -208 -144 0
v -224 -160 0
v -240 -160 0
v -240 -144 0
v -224 -144 0
v -240 -160 0
v -256 -160 0
v -256 -144 0
v -240 -144 0
v -176 -176 0
v -192 -176 0
v -192 -160 0
v -176 -160 0
v -192 -176 0
v -208 -176 0
v -208 -160 0
v -192 -160 0
v -208 -176 0
v -224 -176 0
v -224 -160 0
v -208 -160 0
v -224 -176 0
v -240 -176 0
v -240 -160 0
v -224 -160 0
v -240 -176 0
v -256 -176 0
v -256 -160 0
v -240 -160 0
v -176 -192 0
v -192 -192 0
v -192 -176 0
v -176 -176 0
v -192 -192 0
v -208 -192 0
v -208 -176 0
v -192 -176 0
v -208 -192 0
v -224 -192 0
v -224 -176 0
v -208 -176 0
v -224 -192 0
v -240 -192 0
v -240 -176 0
v -224 -176 0
v -240 -192 0
v -256 -192 0
v -256 -176 0
v -240 -176 0
v -176 -208 0
v -192 -208 0
v -192 -192 0
v -176 -192 0
v -192 -208 0
v -208 -208 0
v -208 -192 0
v -192 -192 0
v -208 -208 0
v -224 -208 0
v -224 -192 0
v -208 -192 0
v -224 -208 0
v -240 -208 0
v -240 -192 0
v -224 -192 0
v -240 -208 0
v -256 -208 0
v -256 -192 0
v -240 -192 0
v -176 -224 0
v -192 -224 0
v -192 -208 0
v -176 -208 0
v -192 -224 0
v -208 -224 0
v -208 -208 0
v -192 -208 0
v -208 -224 0
v -224 -224 0
v -224 -208 0
v -208 -208 0
v -224 -224 0
v -240 -224 0
v -240 -208 0
v -224 -208 0
v -240 -224 0
v -256 -224 0
v -256 -208 0
v -240 -208 0
v -176 -240 0
v -192 -240 0
v -192 -224 0
v -176 -224 0
v -192 -240 0
v -208 -240 0
v -208 -224 0
v -192 -224 0
v -208 -240 0
v -224 -240 0
v -224 -224 0
v -208 -224 0
v -224 -240 0
v -240 -240 0
v -240 -224 0
v -224 -224 0
v -240 -240 0
v -256 -240 0
v -256 -224 0
v -240 -224 0
v -176 -256 0
v -192 -256 0
v -192 -240 0
v -176 -240 0
v -192 -256 0
v -208 -256 0
v -208 -240 0
v -192 -240 0
v -208 -256 0
v -224 -256 0
v -224 -240 0
v -208 -240 0
v -224 -256 0
v -240 -256 0
v -240 -240 0
v -224 -240 0
v -240 -256 0
v -256 -256 0
v -256 -240 0
v -240 -240 0

# Texture cooridinates (Count = 49)
vt 0.015625 0.421875
vt 0.01953125 0.421875
vt 0.01953125 0.4375
vt 0.015625 0.4375
vt 0.01171875 0.4375
vt 0.015625 0.453125
vt 0.01171875 0.453125
vt 0.02734375 0.421875
vt 0.03125 0.421875
vt 0.03125 0.4375
vt 0.02734375 0.4375
vt 0.015625 0.40625
vt 0.01953125 0.40625
vt 0.01953125 0.46875
vt 0.0234375 0.46875
vt 0.0234375 0.484375
vt 0.01953125 0.484375
vt 0.02734375 0.46875
vt 0.03125 0.46875
vt 0.03125 0.484375
vt 0.02734375 0.484375
vt 0.0078125 0.4375
vt 0.0078125 0.453125
vt 0.01171875 0.390625
vt 0.015625 0.390625
vt 0.01171875 0.40625
vt 0.03125 0.453125
vt 0.02734375 0.453125
vt 0.01171875 0.421875
vt 0.01171875 0.46875
vt 0.0078125 0.46875
vt 0.0234375 0.390625
vt 0.02734375 0.390625
vt 0.02734375 0.40625
vt 0.0234375 0.40625
vt 0.01953125 0.453125
vt 0.0234375 0.421875
vt 0.0234375 0.4375
vt 0.01171875 0.484375
vt 0.0078125 0.484375
vt 0.03125 0.390625
vt 0.03125 0.40625
vt 0.01953125 0.390625
vt 0.0078125 0.40625
vt 0.0078125 0.421875
vt 0.0234375 0.453125
vt 0.015625 0.46875
vt 0.015625 0.484375
vt 0.0078125 0.390625

# Normal
vn 0 0 -1

# Mesh description
g TitleIntro_mesh_0082

# Faces
f 1/1/1 2/2/1 3/3/1 4/4/1
f 5/5/1 6/4/1 7/6/1 8/7/1
f 9/8/1 10/9/1 11/10/1 12/11/1
f 13/12/1 14/13/1 15/2/1 16/1/1
f 17/14/1 18/15/1 19/16/1 20/17/1
f 21/18/1 22/19/1 23/20/1 24/21/1
f 25/22/1 26/5/1 27/7/1 28/23/1
f 29/24/1 30/25/1 31/12/1 32/26/1
f 33/11/1 34/10/1 35/27/1 36/28/1
f 37/29/1 38/1/1 39/4/1 40/5/1
f 41/23/1 42/7/1 43/30/1 44/31/1
f 45/1/1 46/2/1 47/3/1 48/4/1
f 49/22/1 50/5/1 51/7/1 52/23/1
f 53/32/1 54/33/1 55/34/1 56/35/1
f 57/4/1 58/3/1 59/36/1 60/6/1
f 61/8/1 62/9/1 63/10/1 64/11/1
f 65/8/1 66/9/1 67/10/1 68/11/1
f 69/37/1 70/8/1 71/11/1 72/38/1
f 73/2/1 74/37/1 75/38/1 76/3/1
f 77/31/1 78/30/1 79/39/1 80/40/1
f 81/33/1 82/41/1 83/42/1 84/34/1
f 85/11/1 86/10/1 87/27/1 88/28/1
f 89/43/1 90/32/1 91/35/1 92/13/1
f 93/44/1 94/26/1 95/29/1 96/45/1
f 97/13/1 98/35/1 99/37/1 100/2/1
f 101/5/1 102/4/1 103/6/1 104/7/1
f 105/5/1 106/4/1 107/6/1 108/7/1
f 109/43/1 110/32/1 111/35/1 112/13/1
f 113/23/1 114/7/1 115/30/1 116/31/1
f 117/46/1 118/28/1 119/18/1 120/15/1
f 121/18/1 122/19/1 123/20/1 124/21/1
f 125/34/1 126/42/1 127/9/1 128/8/1
f 129/37/1 130/8/1 131/11/1 132/38/1
f 133/29/1 134/1/1 135/4/1 136/5/1
f 137/33/1 138/41/1 139/42/1 140/34/1
f 141/38/1 142/11/1 143/28/1 144/46/1
f 145/38/1 146/11/1 147/28/1 148/46/1
f 149/3/1 150/38/1 151/46/1 152/36/1
f 153/47/1 154/14/1 155/17/1 156/48/1
f 157/2/1 158/37/1 159/38/1 160/3/1
f 161/4/1 162/3/1 163/36/1 164/6/1
f 165/7/1 166/6/1 167/47/1 168/30/1
f 169/3/1 170/38/1 171/46/1 172/36/1
f 173/8/1 174/9/1 175/10/1 176/11/1
f 177/6/1 178/36/1 179/14/1 180/47/1
f 181/45/1 182/29/1 183/5/1 184/22/1
f 185/7/1 186/6/1 187/47/1 188/30/1
f 189/43/1 190/32/1 191/35/1 192/13/1
f 193/8/1 194/9/1 195/10/1 196/11/1
f 197/7/1 198/6/1 199/47/1 200/30/1
f 201/46/1 202/28/1 203/18/1 204/15/1
f 205/14/1 206/15/1 207/16/1 208/17/1
f 209/26/1 210/12/1 211/1/1 212/29/1
f 213/30/1 214/47/1 215/48/1 216/39/1
f 217/6/1 218/36/1 219/14/1 220/47/1
f 221/4/1 222/3/1 223/36/1 224/6/1
f 225/49/1 226/24/1 227/26/1 228/44/1
f 229/30/1 230/47/1 231/48/1 232/39/1
f 233/43/1 234/32/1 235/35/1 236/13/1
f 237/4/1 238/3/1 239/36/1 240/6/1
f 241/14/1 242/15/1 243/16/1 244/17/1
f 245/4/1 246/3/1 247/36/1 248/6/1
f 249/32/1 250/33/1 251/34/1 252/35/1
f 253/2/1 254/37/1 255/38/1 256/3/1
f 257/7/1 258/6/1 259/47/1 260/30/1
f 261/23/1 262/7/1 263/30/1 264/31/1
f 265/7/1 266/6/1 267/47/1 268/30/1
f 269/24/1 270/25/1 271/12/1 272/26/1
f 273/36/1 274/46/1 275/15/1 276/14/1
f 277/14/1 278/15/1 279/16/1 280/17/1
f 281/34/1 282/42/1 283/9/1 284/8/1
f 285/11/1 286/10/1 287/27/1 288/28/1
f 289/22/1 290/5/1 291/7/1 292/23/1
f 293/31/1 294/30/1 295/39/1 296/40/1
f 297/35/1 298/34/1 299/8/1 300/37/1
f 301/47/1 302/14/1 303/17/1 304/48/1
f 305/14/1 306/15/1 307/16/1 308/17/1
f 309/24/1 310/25/1 311/12/1 312/26/1
f 313/24/1 314/25/1 315/12/1 316/26/1
f 317/47/1 318/14/1 319/17/1 320/48/1

