# Tiled2Unity generated file. Do not modify by hand.
# Wavefront file for 'TitleIntro_mesh_0029.obj'

# Vertices (Count = 1024)
v 0 -16 0
v -16 -16 0
v -16 0 0
v 0 0 0
v -16 -16 0
v -32 -16 0
v -32 0 0
v -16 0 0
v -32 -16 0
v -48 -16 0
v -48 0 0
v -32 0 0
v -48 -16 0
v -64 -16 0
v -64 0 0
v -48 0 0
v -64 -16 0
v -80 -16 0
v -80 0 0
v -64 0 0
v -80 -16 0
v -96 -16 0
v -96 0 0
v -80 0 0
v -96 -16 0
v -112 -16 0
v -112 0 0
v -96 0 0
v -112 -16 0
v -128 -16 0
v -128 0 0
v -112 0 0
v -128 -16 0
v -144 -16 0
v -144 0 0
v -128 0 0
v -144 -16 0
v -160 -16 0
v -160 0 0
v -144 0 0
v -160 -16 0
v -176 -16 0
v -176 0 0
v -160 0 0
v -176 -16 0
v -192 -16 0
v -192 0 0
v -176 0 0
v -192 -16 0
v -208 -16 0
v -208 0 0
v -192 0 0
v -208 -16 0
v -224 -16 0
v -224 0 0
v -208 0 0
v -224 -16 0
v -240 -16 0
v -240 0 0
v -224 0 0
v -240 -16 0
v -256 -16 0
v -256 0 0
v -240 0 0
v 0 -32 0
v -16 -32 0
v -16 -16 0
v 0 -16 0
v -16 -32 0
v -32 -32 0
v -32 -16 0
v -16 -16 0
v -32 -32 0
v -48 -32 0
v -48 -16 0
v -32 -16 0
v -48 -32 0
v -64 -32 0
v -64 -16 0
v -48 -16 0
v -64 -32 0
v -80 -32 0
v -80 -16 0
v -64 -16 0
v -80 -32 0
v -96 -32 0
v -96 -16 0
v -80 -16 0
v -96 -32 0
v -112 -32 0
v -112 -16 0
v -96 -16 0
v -112 -32 0
v -128 -32 0
v -128 -16 0
v -112 -16 0
v -128 -32 0
v -144 -32 0
v -144 -16 0
v -128 -16 0
v -144 -32 0
v -160 -32 0
v -160 -16 0
v -144 -16 0
v -160 -32 0
v -176 -32 0
v -176 -16 0
v -160 -16 0
v -176 -32 0
v -192 -32 0
v -192 -16 0
v -176 -16 0
v -192 -32 0
v -208 -32 0
v -208 -16 0
v -192 -16 0
v -208 -32 0
v -224 -32 0
v -224 -16 0
v -208 -16 0
v -224 -32 0
v -240 -32 0
v -240 -16 0
v -224 -16 0
v -240 -32 0
v -256 -32 0
v -256 -16 0
v -240 -16 0
v 0 -48 0
v -16 -48 0
v -16 -32 0
v 0 -32 0
v -16 -48 0
v -32 -48 0
v -32 -32 0
v -16 -32 0
v -32 -48 0
v -48 -48 0
v -48 -32 0
v -32 -32 0
v -48 -48 0
v -64 -48 0
v -64 -32 0
v -48 -32 0
v -64 -48 0
v -80 -48 0
v -80 -32 0
v -64 -32 0
v -80 -48 0
v -96 -48 0
v -96 -32 0
v -80 -32 0
v -96 -48 0
v -112 -48 0
v -112 -32 0
v -96 -32 0
v -112 -48 0
v -128 -48 0
v -128 -32 0
v -112 -32 0
v -128 -48 0
v -144 -48 0
v -144 -32 0
v -128 -32 0
v -144 -48 0
v -160 -48 0
v -160 -32 0
v -144 -32 0
v -160 -48 0
v -176 -48 0
v -176 -32 0
v -160 -32 0
v -176 -48 0
v -192 -48 0
v -192 -32 0
v -176 -32 0
v -192 -48 0
v -208 -48 0
v -208 -32 0
v -192 -32 0
v -208 -48 0
v -224 -48 0
v -224 -32 0
v -208 -32 0
v -224 -48 0
v -240 -48 0
v -240 -32 0
v -224 -32 0
v -240 -48 0
v -256 -48 0
v -256 -32 0
v -240 -32 0
v 0 -64 0
v -16 -64 0
v -16 -48 0
v 0 -48 0
v -16 -64 0
v -32 -64 0
v -32 -48 0
v -16 -48 0
v -32 -64 0
v -48 -64 0
v -48 -48 0
v -32 -48 0
v -48 -64 0
v -64 -64 0
v -64 -48 0
v -48 -48 0
v -64 -64 0
v -80 -64 0
v -80 -48 0
v -64 -48 0
v -80 -64 0
v -96 -64 0
v -96 -48 0
v -80 -48 0
v -96 -64 0
v -112 -64 0
v -112 -48 0
v -96 -48 0
v -112 -64 0
v -128 -64 0
v -128 -48 0
v -112 -48 0
v -128 -64 0
v -144 -64 0
v -144 -48 0
v -128 -48 0
v -144 -64 0
v -160 -64 0
v -160 -48 0
v -144 -48 0
v -160 -64 0
v -176 -64 0
v -176 -48 0
v -160 -48 0
v -176 -64 0
v -192 -64 0
v -192 -48 0
v -176 -48 0
v -192 -64 0
v -208 -64 0
v -208 -48 0
v -192 -48 0
v -208 -64 0
v -224 -64 0
v -224 -48 0
v -208 -48 0
v -224 -64 0
v -240 -64 0
v -240 -48 0
v -224 -48 0
v -240 -64 0
v -256 -64 0
v -256 -48 0
v -240 -48 0
v 0 -80 0
v -16 -80 0
v -16 -64 0
v 0 -64 0
v -16 -80 0
v -32 -80 0
v -32 -64 0
v -16 -64 0
v -32 -80 0
v -48 -80 0
v -48 -64 0
v -32 -64 0
v -48 -80 0
v -64 -80 0
v -64 -64 0
v -48 -64 0
v -64 -80 0
v -80 -80 0
v -80 -64 0
v -64 -64 0
v -80 -80 0
v -96 -80 0
v -96 -64 0
v -80 -64 0
v -96 -80 0
v -112 -80 0
v -112 -64 0
v -96 -64 0
v -112 -80 0
v -128 -80 0
v -128 -64 0
v -112 -64 0
v -128 -80 0
v -144 -80 0
v -144 -64 0
v -128 -64 0
v -144 -80 0
v -160 -80 0
v -160 -64 0
v -144 -64 0
v -160 -80 0
v -176 -80 0
v -176 -64 0
v -160 -64 0
v -176 -80 0
v -192 -80 0
v -192 -64 0
v -176 -64 0
v -192 -80 0
v -208 -80 0
v -208 -64 0
v -192 -64 0
v -208 -80 0
v -224 -80 0
v -224 -64 0
v -208 -64 0
v -224 -80 0
v -240 -80 0
v -240 -64 0
v -224 -64 0
v -240 -80 0
v -256 -80 0
v -256 -64 0
v -240 -64 0
v 0 -96 0
v -16 -96 0
v -16 -80 0
v 0 -80 0
v -16 -96 0
v -32 -96 0
v -32 -80 0
v -16 -80 0
v -32 -96 0
v -48 -96 0
v -48 -80 0
v -32 -80 0
v -48 -96 0
v -64 -96 0
v -64 -80 0
v -48 -80 0
v -64 -96 0
v -80 -96 0
v -80 -80 0
v -64 -80 0
v -80 -96 0
v -96 -96 0
v -96 -80 0
v -80 -80 0
v -96 -96 0
v -112 -96 0
v -112 -80 0
v -96 -80 0
v -112 -96 0
v -128 -96 0
v -128 -80 0
v -112 -80 0
v -128 -96 0
v -144 -96 0
v -144 -80 0
v -128 -80 0
v -144 -96 0
v -160 -96 0
v -160 -80 0
v -144 -80 0
v -160 -96 0
v -176 -96 0
v -176 -80 0
v -160 -80 0
v -176 -96 0
v -192 -96 0
v -192 -80 0
v -176 -80 0
v -192 -96 0
v -208 -96 0
v -208 -80 0
v -192 -80 0
v -208 -96 0
v -224 -96 0
v -224 -80 0
v -208 -80 0
v -224 -96 0
v -240 -96 0
v -240 -80 0
v -224 -80 0
v -240 -96 0
v -256 -96 0
v -256 -80 0
v -240 -80 0
v 0 -112 0
v -16 -112 0
v -16 -96 0
v 0 -96 0
v -16 -112 0
v -32 -112 0
v -32 -96 0
v -16 -96 0
v -32 -112 0
v -48 -112 0
v -48 -96 0
v -32 -96 0
v -48 -112 0
v -64 -112 0
v -64 -96 0
v -48 -96 0
v -64 -112 0
v -80 -112 0
v -80 -96 0
v -64 -96 0
v -80 -112 0
v -96 -112 0
v -96 -96 0
v -80 -96 0
v -96 -112 0
v -112 -112 0
v -112 -96 0
v -96 -96 0
v -112 -112 0
v -128 -112 0
v -128 -96 0
v -112 -96 0
v -128 -112 0
v -144 -112 0
v -144 -96 0
v -128 -96 0
v -144 -112 0
v -160 -112 0
v -160 -96 0
v -144 -96 0
v -160 -112 0
v -176 -112 0
v -176 -96 0
v -160 -96 0
v -176 -112 0
v -192 -112 0
v -192 -96 0
v -176 -96 0
v -192 -112 0
v -208 -112 0
v -208 -96 0
v -192 -96 0
v -208 -112 0
v -224 -112 0
v -224 -96 0
v -208 -96 0
v -224 -112 0
v -240 -112 0
v -240 -96 0
v -224 -96 0
v -240 -112 0
v -256 -112 0
v -256 -96 0
v -240 -96 0
v 0 -128 0
v -16 -128 0
v -16 -112 0
v 0 -112 0
v -16 -128 0
v -32 -128 0
v -32 -112 0
v -16 -112 0
v -32 -128 0
v -48 -128 0
v -48 -112 0
v -32 -112 0
v -48 -128 0
v -64 -128 0
v -64 -112 0
v -48 -112 0
v -64 -128 0
v -80 -128 0
v -80 -112 0
v -64 -112 0
v -80 -128 0
v -96 -128 0
v -96 -112 0
v -80 -112 0
v -96 -128 0
v -112 -128 0
v -112 -112 0
v -96 -112 0
v -112 -128 0
v -128 -128 0
v -128 -112 0
v -112 -112 0
v -128 -128 0
v -144 -128 0
v -144 -112 0
v -128 -112 0
v -144 -128 0
v -160 -128 0
v -160 -112 0
v -144 -112 0
v -160 -128 0
v -176 -128 0
v -176 -112 0
v -160 -112 0
v -176 -128 0
v -192 -128 0
v -192 -112 0
v -176 -112 0
v -192 -128 0
v -208 -128 0
v -208 -112 0
v -192 -112 0
v -208 -128 0
v -224 -128 0
v -224 -112 0
v -208 -112 0
v -224 -128 0
v -240 -128 0
v -240 -112 0
v -224 -112 0
v -240 -128 0
v -256 -128 0
v -256 -112 0
v -240 -112 0
v 0 -144 0
v -16 -144 0
v -16 -128 0
v 0 -128 0
v -16 -144 0
v -32 -144 0
v -32 -128 0
v -16 -128 0
v -32 -144 0
v -48 -144 0
v -48 -128 0
v -32 -128 0
v -48 -144 0
v -64 -144 0
v -64 -128 0
v -48 -128 0
v -64 -144 0
v -80 -144 0
v -80 -128 0
v -64 -128 0
v -80 -144 0
v -96 -144 0
v -96 -128 0
v -80 -128 0
v -96 -144 0
v -112 -144 0
v -112 -128 0
v -96 -128 0
v -112 -144 0
v -128 -144 0
v -128 -128 0
v -112 -128 0
v -128 -144 0
v -144 -144 0
v -144 -128 0
v -128 -128 0
v -144 -144 0
v -160 -144 0
v -160 -128 0
v -144 -128 0
v -160 -144 0
v -176 -144 0
v -176 -128 0
v -160 -128 0
v -176 -144 0
v -192 -144 0
v -192 -128 0
v -176 -128 0
v -192 -144 0
v -208 -144 0
v -208 -128 0
v -192 -128 0
v -208 -144 0
v -224 -144 0
v -224 -128 0
v -208 -128 0
v -224 -144 0
v -240 -144 0
v -240 -128 0
v -224 -128 0
v -240 -144 0
v -256 -144 0
v -256 -128 0
v -240 -128 0
v 0 -160 0
v -16 -160 0
v -16 -144 0
v 0 -144 0
v -16 -160 0
v -32 -160 0
v -32 -144 0
v -16 -144 0
v -32 -160 0
v -48 -160 0
v -48 -144 0
v -32 -144 0
v -48 -160 0
v -64 -160 0
v -64 -144 0
v -48 -144 0
v -64 -160 0
v -80 -160 0
v -80 -144 0
v -64 -144 0
v -80 -160 0
v -96 -160 0
v -96 -144 0
v -80 -144 0
v -96 -160 0
v -112 -160 0
v -112 -144 0
v -96 -144 0
v -112 -160 0
v -128 -160 0
v -128 -144 0
v -112 -144 0
v -128 -160 0
v -144 -160 0
v -144 -144 0
v -128 -144 0
v -144 -160 0
v -160 -160 0
v -160 -144 0
v -144 -144 0
v -160 -160 0
v -176 -160 0
v -176 -144 0
v -160 -144 0
v -176 -160 0
v -192 -160 0
v -192 -144 0
v -176 -144 0
v -192 -160 0
v -208 -160 0
v -208 -144 0
v -192 -144 0
v -208 -160 0
v -224 -160 0
v -224 -144 0
v -208 -144 0
v -224 -160 0
v -240 -160 0
v -240 -144 0
v -224 -144 0
v -240 -160 0
v -256 -160 0
v -256 -144 0
v -240 -144 0
v 0 -176 0
v -16 -176 0
v -16 -160 0
v 0 -160 0
v -16 -176 0
v -32 -176 0
v -32 -160 0
v -16 -160 0
v -32 -176 0
v -48 -176 0
v -48 -160 0
v -32 -160 0
v -48 -176 0
v -64 -176 0
v -64 -160 0
v -48 -160 0
v -64 -176 0
v -80 -176 0
v -80 -160 0
v -64 -160 0
v -80 -176 0
v -96 -176 0
v -96 -160 0
v -80 -160 0
v -96 -176 0
v -112 -176 0
v -112 -160 0
v -96 -160 0
v -112 -176 0
v -128 -176 0
v -128 -160 0
v -112 -160 0
v -128 -176 0
v -144 -176 0
v -144 -160 0
v -128 -160 0
v -144 -176 0
v -160 -176 0
v -160 -160 0
v -144 -160 0
v -160 -176 0
v -176 -176 0
v -176 -160 0
v -160 -160 0
v -176 -176 0
v -192 -176 0
v -192 -160 0
v -176 -160 0
v -192 -176 0
v -208 -176 0
v -208 -160 0
v -192 -160 0
v -208 -176 0
v -224 -176 0
v -224 -160 0
v -208 -160 0
v -224 -176 0
v -240 -176 0
v -240 -160 0
v -224 -160 0
v -240 -176 0
v -256 -176 0
v -256 -160 0
v -240 -160 0
v 0 -192 0
v -16 -192 0
v -16 -176 0
v 0 -176 0
v -16 -192 0
v -32 -192 0
v -32 -176 0
v -16 -176 0
v -32 -192 0
v -48 -192 0
v -48 -176 0
v -32 -176 0
v -48 -192 0
v -64 -192 0
v -64 -176 0
v -48 -176 0
v -64 -192 0
v -80 -192 0
v -80 -176 0
v -64 -176 0
v -80 -192 0
v -96 -192 0
v -96 -176 0
v -80 -176 0
v -96 -192 0
v -112 -192 0
v -112 -176 0
v -96 -176 0
v -112 -192 0
v -128 -192 0
v -128 -176 0
v -112 -176 0
v -128 -192 0
v -144 -192 0
v -144 -176 0
v -128 -176 0
v -144 -192 0
v -160 -192 0
v -160 -176 0
v -144 -176 0
v -160 -192 0
v -176 -192 0
v -176 -176 0
v -160 -176 0
v -176 -192 0
v -192 -192 0
v -192 -176 0
v -176 -176 0
v -192 -192 0
v -208 -192 0
v -208 -176 0
v -192 -176 0
v -208 -192 0
v -224 -192 0
v -224 -176 0
v -208 -176 0
v -224 -192 0
v -240 -192 0
v -240 -176 0
v -224 -176 0
v -240 -192 0
v -256 -192 0
v -256 -176 0
v -240 -176 0
v 0 -208 0
v -16 -208 0
v -16 -192 0
v 0 -192 0
v -16 -208 0
v -32 -208 0
v -32 -192 0
v -16 -192 0
v -32 -208 0
v -48 -208 0
v -48 -192 0
v -32 -192 0
v -48 -208 0
v -64 -208 0
v -64 -192 0
v -48 -192 0
v -64 -208 0
v -80 -208 0
v -80 -192 0
v -64 -192 0
v -80 -208 0
v -96 -208 0
v -96 -192 0
v -80 -192 0
v -96 -208 0
v -112 -208 0
v -112 -192 0
v -96 -192 0
v -112 -208 0
v -128 -208 0
v -128 -192 0
v -112 -192 0
v -128 -208 0
v -144 -208 0
v -144 -192 0
v -128 -192 0
v -144 -208 0
v -160 -208 0
v -160 -192 0
v -144 -192 0
v -160 -208 0
v -176 -208 0
v -176 -192 0
v -160 -192 0
v -176 -208 0
v -192 -208 0
v -192 -192 0
v -176 -192 0
v -192 -208 0
v -208 -208 0
v -208 -192 0
v -192 -192 0
v -208 -208 0
v -224 -208 0
v -224 -192 0
v -208 -192 0
v -224 -208 0
v -240 -208 0
v -240 -192 0
v -224 -192 0
v -240 -208 0
v -256 -208 0
v -256 -192 0
v -240 -192 0
v 0 -224 0
v -16 -224 0
v -16 -208 0
v 0 -208 0
v -16 -224 0
v -32 -224 0
v -32 -208 0
v -16 -208 0
v -32 -224 0
v -48 -224 0
v -48 -208 0
v -32 -208 0
v -48 -224 0
v -64 -224 0
v -64 -208 0
v -48 -208 0
v -64 -224 0
v -80 -224 0
v -80 -208 0
v -64 -208 0
v -80 -224 0
v -96 -224 0
v -96 -208 0
v -80 -208 0
v -96 -224 0
v -112 -224 0
v -112 -208 0
v -96 -208 0
v -112 -224 0
v -128 -224 0
v -128 -208 0
v -112 -208 0
v -128 -224 0
v -144 -224 0
v -144 -208 0
v -128 -208 0
v -144 -224 0
v -160 -224 0
v -160 -208 0
v -144 -208 0
v -160 -224 0
v -176 -224 0
v -176 -208 0
v -160 -208 0
v -176 -224 0
v -192 -224 0
v -192 -208 0
v -176 -208 0
v -192 -224 0
v -208 -224 0
v -208 -208 0
v -192 -208 0
v -208 -224 0
v -224 -224 0
v -224 -208 0
v -208 -208 0
v -224 -224 0
v -240 -224 0
v -240 -208 0
v -224 -208 0
v -240 -224 0
v -256 -224 0
v -256 -208 0
v -240 -208 0
v 0 -240 0
v -16 -240 0
v -16 -224 0
v 0 -224 0
v -16 -240 0
v -32 -240 0
v -32 -224 0
v -16 -224 0
v -32 -240 0
v -48 -240 0
v -48 -224 0
v -32 -224 0
v -48 -240 0
v -64 -240 0
v -64 -224 0
v -48 -224 0
v -64 -240 0
v -80 -240 0
v -80 -224 0
v -64 -224 0
v -80 -240 0
v -96 -240 0
v -96 -224 0
v -80 -224 0
v -96 -240 0
v -112 -240 0
v -112 -224 0
v -96 -224 0
v -112 -240 0
v -128 -240 0
v -128 -224 0
v -112 -224 0
v -128 -240 0
v -144 -240 0
v -144 -224 0
v -128 -224 0
v -144 -240 0
v -160 -240 0
v -160 -224 0
v -144 -224 0
v -160 -240 0
v -176 -240 0
v -176 -224 0
v -160 -224 0
v -176 -240 0
v -192 -240 0
v -192 -224 0
v -176 -224 0
v -192 -240 0
v -208 -240 0
v -208 -224 0
v -192 -224 0
v -208 -240 0
v -224 -240 0
v -224 -224 0
v -208 -224 0
v -224 -240 0
v -240 -240 0
v -240 -224 0
v -224 -224 0
v -240 -240 0
v -256 -240 0
v -256 -224 0
v -240 -224 0
v 0 -256 0
v -16 -256 0
v -16 -240 0
v 0 -240 0
v -16 -256 0
v -32 -256 0
v -32 -240 0
v -16 -240 0
v -32 -256 0
v -48 -256 0
v -48 -240 0
v -32 -240 0
v -48 -256 0
v -64 -256 0
v -64 -240 0
v -48 -240 0
v -64 -256 0
v -80 -256 0
v -80 -240 0
v -64 -240 0
v -80 -256 0
v -96 -256 0
v -96 -240 0
v -80 -240 0
v -96 -256 0
v -112 -256 0
v -112 -240 0
v -96 -240 0
v -112 -256 0
v -128 -256 0
v -128 -240 0
v -112 -240 0
v -128 -256 0
v -144 -256 0
v -144 -240 0
v -128 -240 0
v -144 -256 0
v -160 -256 0
v -160 -240 0
v -144 -240 0
v -160 -256 0
v -176 -256 0
v -176 -240 0
v -160 -240 0
v -176 -256 0
v -192 -256 0
v -192 -240 0
v -176 -240 0
v -192 -256 0
v -208 -256 0
v -208 -240 0
v -192 -240 0
v -208 -256 0
v -224 -256 0
v -224 -240 0
v -208 -240 0
v -224 -256 0
v -240 -256 0
v -240 -240 0
v -224 -240 0
v -240 -256 0
v -256 -256 0
v -256 -240 0
v -240 -240 0

# Texture cooridinates (Count = 49)
vt 0.0234375 0.453125
vt 0.02734375 0.453125
vt 0.02734375 0.46875
vt 0.0234375 0.46875
vt 0.015625 0.4375
vt 0.01953125 0.4375
vt 0.01953125 0.453125
vt 0.015625 0.453125
vt 0.02734375 0.40625
vt 0.03125 0.40625
vt 0.03125 0.421875
vt 0.02734375 0.421875
vt 0.015625 0.40625
vt 0.01953125 0.40625
vt 0.01953125 0.421875
vt 0.015625 0.421875
vt 0.01171875 0.390625
vt 0.015625 0.390625
vt 0.01171875 0.40625
vt 0.02734375 0.390625
vt 0.03125 0.390625
vt 0.01171875 0.4375
vt 0.01171875 0.453125
vt 0.0234375 0.40625
vt 0.0234375 0.421875
vt 0.01171875 0.421875
vt 0.01953125 0.46875
vt 0.015625 0.46875
vt 0.0078125 0.453125
vt 0.01171875 0.46875
vt 0.0078125 0.46875
vt 0.0234375 0.4375
vt 0.02734375 0.4375
vt 0.03125 0.46875
vt 0.03125 0.484375
vt 0.02734375 0.484375
vt 0.03125 0.4375
vt 0.03125 0.453125
vt 0.0078125 0.4375
vt 0.0234375 0.484375
vt 0.01953125 0.484375
vt 0.015625 0.484375
vt 0.01171875 0.484375
vt 0.0078125 0.484375
vt 0.0078125 0.40625
vt 0.0078125 0.421875
vt 0.01953125 0.390625
vt 0.0234375 0.390625
vt 0.0078125 0.390625

# Normal
vn 0 0 -1

# Mesh description
g TitleIntro_mesh_0029

# Faces
f 1/1/1 2/2/1 3/3/1 4/4/1
f 5/5/1 6/6/1 7/7/1 8/8/1
f 9/9/1 10/10/1 11/11/1 12/12/1
f 13/13/1 14/14/1 15/15/1 16/16/1
f 17/17/1 18/18/1 19/13/1 20/19/1
f 21/16/1 22/15/1 23/6/1 24/5/1
f 25/5/1 26/6/1 27/7/1 28/8/1
f 29/20/1 30/21/1 31/10/1 32/9/1
f 33/22/1 34/5/1 35/8/1 36/23/1
f 37/14/1 38/24/1 39/25/1 40/15/1
f 41/13/1 42/14/1 43/15/1 44/16/1
f 45/19/1 46/13/1 47/16/1 48/26/1
f 49/5/1 50/6/1 51/7/1 52/8/1
f 53/8/1 54/7/1 55/27/1 56/28/1
f 57/29/1 58/23/1 59/30/1 60/31/1
f 61/32/1 62/33/1 63/2/1 64/1/1
f 65/3/1 66/34/1 67/35/1 68/36/1
f 69/13/1 70/14/1 71/15/1 72/16/1
f 73/6/1 74/32/1 75/1/1 76/7/1
f 77/7/1 78/1/1 79/4/1 80/27/1
f 81/33/1 82/37/1 83/38/1 84/2/1
f 85/39/1 86/22/1 87/23/1 88/29/1
f 89/17/1 90/18/1 91/13/1 92/19/1
f 93/2/1 94/38/1 95/34/1 96/3/1
f 97/20/1 98/21/1 99/10/1 100/9/1
f 101/29/1 102/23/1 103/30/1 104/31/1
f 105/2/1 106/38/1 107/34/1 108/3/1
f 109/32/1 110/33/1 111/2/1 112/1/1
f 113/4/1 114/3/1 115/36/1 116/40/1
f 117/28/1 118/27/1 119/41/1 120/42/1
f 121/12/1 122/11/1 123/37/1 124/33/1
f 125/31/1 126/30/1 127/43/1 128/44/1
f 129/19/1 130/13/1 131/16/1 132/26/1
f 133/19/1 134/13/1 135/16/1 136/26/1
f 137/3/1 138/34/1 139/35/1 140/36/1
f 141/33/1 142/37/1 143/38/1 144/2/1
f 145/3/1 146/34/1 147/35/1 148/36/1
f 149/45/1 150/19/1 151/26/1 152/46/1
f 153/17/1 154/18/1 155/13/1 156/19/1
f 157/29/1 158/23/1 159/30/1 160/31/1
f 161/46/1 162/26/1 163/22/1 164/39/1
f 165/6/1 166/32/1 167/1/1 168/7/1
f 169/45/1 170/19/1 171/26/1 172/46/1
f 173/47/1 174/48/1 175/24/1 176/14/1
f 177/31/1 178/30/1 179/43/1 180/44/1
f 181/18/1 182/47/1 183/14/1 184/13/1
f 185/46/1 186/26/1 187/22/1 188/39/1
f 189/7/1 190/1/1 191/4/1 192/27/1
f 193/32/1 194/33/1 195/2/1 196/1/1
f 197/2/1 198/38/1 199/34/1 200/3/1
f 201/28/1 202/27/1 203/41/1 204/42/1
f 205/3/1 206/34/1 207/35/1 208/36/1
f 209/8/1 210/7/1 211/27/1 212/28/1
f 213/7/1 214/1/1 215/4/1 216/27/1
f 217/15/1 218/25/1 219/32/1 220/6/1
f 221/3/1 222/34/1 223/35/1 224/36/1
f 225/1/1 226/2/1 227/3/1 228/4/1
f 229/47/1 230/48/1 231/24/1 232/14/1
f 233/30/1 234/28/1 235/42/1 236/43/1
f 237/27/1 238/4/1 239/40/1 240/41/1
f 241/24/1 242/9/1 243/12/1 244/25/1
f 245/28/1 246/27/1 247/41/1 248/42/1
f 249/39/1 250/22/1 251/23/1 252/29/1
f 253/18/1 254/47/1 255/14/1 256/13/1
f 257/48/1 258/20/1 259/9/1 260/24/1
f 261/14/1 262/24/1 263/25/1 264/15/1
f 265/30/1 266/28/1 267/42/1 268/43/1
f 269/49/1 270/17/1 271/19/1 272/45/1
f 273/14/1 274/24/1 275/25/1 276/15/1
f 277/20/1 278/21/1 279/10/1 280/9/1
f 281/18/1 282/47/1 283/14/1 284/13/1
f 285/30/1 286/28/1 287/42/1 288/43/1
f 289/2/1 290/38/1 291/34/1 292/3/1
f 293/45/1 294/19/1 295/26/1 296/46/1
f 297/33/1 298/37/1 299/38/1 300/2/1
f 301/26/1 302/16/1 303/5/1 304/22/1
f 305/7/1 306/1/1 307/4/1 308/27/1
f 309/13/1 310/14/1 311/15/1 312/16/1
f 313/16/1 314/15/1 315/6/1 316/5/1
f 317/17/1 318/18/1 319/13/1 320/19/1
f 321/3/1 322/34/1 323/35/1 324/36/1
f 325/33/1 326/37/1 327/38/1 328/2/1
f 329/27/1 330/4/1 331/40/1 332/41/1
f 333/5/1 334/6/1 335/7/1 336/8/1
f 337/20/1 338/21/1 339/10/1 340/9/1
f 341/27/1 342/4/1 343/40/1 344/41/1
f 345/25/1 346/12/1 347/33/1 348/32/1
f 349/13/1 350/14/1 351/15/1 352/16/1
f 353/5/1 354/6/1 355/7/1 356/8/1
f 357/49/1 358/17/1 359/19/1 360/45/1
f 361/15/1 362/25/1 363/32/1 364/6/1
f 365/12/1 366/11/1 367/37/1 368/33/1
f 369/27/1 370/4/1 371/40/1 372/41/1
f 373/20/1 374/21/1 375/10/1 376/9/1
f 377/48/1 378/20/1 379/9/1 380/24/1
f 381/12/1 382/11/1 383/37/1 384/33/1
f 385/14/1 386/24/1 387/25/1 388/15/1
f 389/14/1 390/24/1 391/25/1 392/15/1
f 393/33/1 394/37/1 395/38/1 396/2/1
f 397/13/1 398/14/1 399/15/1 400/16/1
f 401/18/1 402/47/1 403/14/1 404/13/1
f 405/32/1 406/33/1 407/2/1 408/1/1
f 409/27/1 410/4/1 411/40/1 412/41/1
f 413/22/1 414/5/1 415/8/1 416/23/1
f 417/24/1 418/9/1 419/12/1 420/25/1
f 421/39/1 422/22/1 423/23/1 424/29/1
f 425/22/1 426/5/1 427/8/1 428/23/1
f 429/6/1 430/32/1 431/1/1 432/7/1
f 433/12/1 434/11/1 435/37/1 436/33/1
f 437/49/1 438/17/1 439/19/1 440/45/1
f 441/6/1 442/32/1 443/1/1 444/7/1
f 445/3/1 446/34/1 447/35/1 448/36/1
f 449/45/1 450/19/1 451/26/1 452/46/1
f 453/47/1 454/48/1 455/24/1 456/14/1
f 457/16/1 458/15/1 459/6/1 460/5/1
f 461/32/1 462/33/1 463/2/1 464/1/1
f 465/8/1 466/7/1 467/27/1 468/28/1
f 469/23/1 470/8/1 471/28/1 472/30/1
f 473/2/1 474/38/1 475/34/1 476/3/1
f 477/13/1 478/14/1 479/15/1 480/16/1
f 481/46/1 482/26/1 483/22/1 484/39/1
f 485/31/1 486/30/1 487/43/1 488/44/1
f 489/7/1 490/1/1 491/4/1 492/27/1
f 493/8/1 494/7/1 495/27/1 496/28/1
f 497/16/1 498/15/1 499/6/1 500/5/1
f 501/24/1 502/9/1 503/12/1 504/25/1
f 505/15/1 506/25/1 507/32/1 508/6/1
f 509/6/1 510/32/1 511/1/1 512/7/1
f 513/14/1 514/24/1 515/25/1 516/15/1
f 517/15/1 518/25/1 519/32/1 520/6/1
f 521/24/1 522/9/1 523/12/1 524/25/1
f 525/7/1 526/1/1 527/4/1 528/27/1
f 529/48/1 530/20/1 531/9/1 532/24/1
f 533/3/1 534/34/1 535/35/1 536/36/1
f 537/1/1 538/2/1 539/3/1 540/4/1
f 541/1/1 542/2/1 543/3/1 544/4/1
f 545/1/1 546/2/1 547/3/1 548/4/1
f 549/1/1 550/2/1 551/3/1 552/4/1
f 553/45/1 554/19/1 555/26/1 556/46/1
f 557/39/1 558/22/1 559/23/1 560/29/1
f 561/32/1 562/33/1 563/2/1 564/1/1
f 565/29/1 566/23/1 567/30/1 568/31/1
f 569/30/1 570/28/1 571/42/1 572/43/1
f 573/45/1 574/19/1 575/26/1 576/46/1
f 577/33/1 578/37/1 579/38/1 580/2/1
f 581/27/1 582/4/1 583/40/1 584/41/1
f 585/12/1 586/11/1 587/37/1 588/33/1
f 589/47/1 590/48/1 591/24/1 592/14/1
f 593/17/1 594/18/1 595/13/1 596/19/1
f 597/1/1 598/2/1 599/3/1 600/4/1
f 601/19/1 602/13/1 603/16/1 604/26/1
f 605/47/1 606/48/1 607/24/1 608/14/1
f 609/33/1 610/37/1 611/38/1 612/2/1
f 613/26/1 614/16/1 615/5/1 616/22/1
f 617/28/1 618/27/1 619/41/1 620/42/1
f 621/48/1 622/20/1 623/9/1 624/24/1
f 625/45/1 626/19/1 627/26/1 628/46/1
f 629/31/1 630/30/1 631/43/1 632/44/1
f 633/23/1 634/8/1 635/28/1 636/30/1
f 637/33/1 638/37/1 639/38/1 640/2/1
f 641/16/1 642/15/1 643/6/1 644/5/1
f 645/47/1 646/48/1 647/24/1 648/14/1
f 649/12/1 650/11/1 651/37/1 652/33/1
f 653/15/1 654/25/1 655/32/1 656/6/1
f 657/18/1 658/47/1 659/14/1 660/13/1
f 661/7/1 662/1/1 663/4/1 664/27/1
f 665/7/1 666/1/1 667/4/1 668/27/1
f 669/45/1 670/19/1 671/26/1 672/46/1
f 673/19/1 674/13/1 675/16/1 676/26/1
f 677/46/1 678/26/1 679/22/1 680/39/1
f 681/9/1 682/10/1 683/11/1 684/12/1
f 685/5/1 686/6/1 687/7/1 688/8/1
f 689/49/1 690/17/1 691/19/1 692/45/1
f 693/18/1 694/47/1 695/14/1 696/13/1
f 697/7/1 698/1/1 699/4/1 700/27/1
f 701/18/1 702/47/1 703/14/1 704/13/1
f 705/45/1 706/19/1 707/26/1 708/46/1
f 709/3/1 710/34/1 711/35/1 712/36/1
f 713/17/1 714/18/1 715/13/1 716/19/1
f 717/33/1 718/37/1 719/38/1 720/2/1
f 721/14/1 722/24/1 723/25/1 724/15/1
f 725/18/1 726/47/1 727/14/1 728/13/1
f 729/45/1 730/19/1 731/26/1 732/46/1
f 733/3/1 734/34/1 735/35/1 736/36/1
f 737/14/1 738/24/1 739/25/1 740/15/1
f 741/24/1 742/9/1 743/12/1 744/25/1
f 745/30/1 746/28/1 747/42/1 748/43/1
f 749/24/1 750/9/1 751/12/1 752/25/1
f 753/18/1 754/47/1 755/14/1 756/13/1
f 757/4/1 758/3/1 759/36/1 760/40/1
f 761/15/1 762/25/1 763/32/1 764/6/1
f 765/32/1 766/33/1 767/2/1 768/1/1
f 769/32/1 770/33/1 771/2/1 772/1/1
f 773/31/1 774/30/1 775/43/1 776/44/1
f 777/13/1 778/14/1 779/15/1 780/16/1
f 781/32/1 782/33/1 783/2/1 784/1/1
f 785/30/1 786/28/1 787/42/1 788/43/1
f 789/13/1 790/14/1 791/15/1 792/16/1
f 793/23/1 794/8/1 795/28/1 796/30/1
f 797/3/1 798/34/1 799/35/1 800/36/1
f 801/30/1 802/28/1 803/42/1 804/43/1
f 805/32/1 806/33/1 807/2/1 808/1/1
f 809/48/1 810/20/1 811/9/1 812/24/1
f 813/14/1 814/24/1 815/25/1 816/15/1
f 817/13/1 818/14/1 819/15/1 820/16/1
f 821/31/1 822/30/1 823/43/1 824/44/1
f 825/12/1 826/11/1 827/37/1 828/33/1
f 829/13/1 830/14/1 831/15/1 832/16/1
f 833/46/1 834/26/1 835/22/1 836/39/1
f 837/23/1 838/8/1 839/28/1 840/30/1
f 841/31/1 842/30/1 843/43/1 844/44/1
f 845/4/1 846/3/1 847/36/1 848/40/1
f 849/28/1 850/27/1 851/41/1 852/42/1
f 853/33/1 854/37/1 855/38/1 856/2/1
f 857/24/1 858/9/1 859/12/1 860/25/1
f 861/6/1 862/32/1 863/1/1 864/7/1
f 865/22/1 866/5/1 867/8/1 868/23/1
f 869/29/1 870/23/1 871/30/1 872/31/1
f 873/49/1 874/17/1 875/19/1 876/45/1
f 877/27/1 878/4/1 879/40/1 880/41/1
f 881/16/1 882/15/1 883/6/1 884/5/1
f 885/29/1 886/23/1 887/30/1 888/31/1
f 889/29/1 890/23/1 891/30/1 892/31/1
f 893/1/1 894/2/1 895/3/1 896/4/1
f 897/31/1 898/30/1 899/43/1 900/44/1
f 901/14/1 902/24/1 903/25/1 904/15/1
f 905/9/1 906/10/1 907/11/1 908/12/1
f 909/45/1 910/19/1 911/26/1 912/46/1
f 913/7/1 914/1/1 915/4/1 916/27/1
f 917/49/1 918/17/1 919/19/1 920/45/1
f 921/1/1 922/2/1 923/3/1 924/4/1
f 925/17/1 926/18/1 927/13/1 928/19/1
f 929/23/1 930/8/1 931/28/1 932/30/1
f 933/3/1 934/34/1 935/35/1 936/36/1
f 937/1/1 938/2/1 939/3/1 940/4/1
f 941/27/1 942/4/1 943/40/1 944/41/1
f 945/47/1 946/48/1 947/24/1 948/14/1
f 949/3/1 950/34/1 951/35/1 952/36/1
f 953/18/1 954/47/1 955/14/1 956/13/1
f 957/5/1 958/6/1 959/7/1 960/8/1
f 961/9/1 962/10/1 963/11/1 964/12/1
f 965/12/1 966/11/1 967/37/1 968/33/1
f 969/46/1 970/26/1 971/22/1 972/39/1
f 973/18/1 974/47/1 975/14/1 976/13/1
f 977/4/1 978/3/1 979/36/1 980/40/1
f 981/9/1 982/10/1 983/11/1 984/12/1
f 985/19/1 986/13/1 987/16/1 988/26/1
f 989/9/1 990/10/1 991/11/1 992/12/1
f 993/28/1 994/27/1 995/41/1 996/42/1
f 997/18/1 998/47/1 999/14/1 1000/13/1
f 1001/20/1 1002/21/1 1003/10/1 1004/9/1
f 1005/12/1 1006/11/1 1007/37/1 1008/33/1
f 1009/31/1 1010/30/1 1011/43/1 1012/44/1
f 1013/22/1 1014/5/1 1015/8/1 1016/23/1
f 1017/23/1 1018/8/1 1019/28/1 1020/30/1
f 1021/12/1 1022/11/1 1023/37/1 1024/33/1

