# Tiled2Unity generated file. Do not modify by hand.
# Wavefront file for 'TitleIntro_mesh_0018.obj'

# Vertices (Count = 384)
v 0 -16 0
v -16 -16 0
v -16 0 0
v 0 0 0
v -16 -16 0
v -32 -16 0
v -32 0 0
v -16 0 0
v -32 -16 0
v -48 -16 0
v -48 0 0
v -32 0 0
v -48 -16 0
v -64 -16 0
v -64 0 0
v -48 0 0
v -64 -16 0
v -80 -16 0
v -80 0 0
v -64 0 0
v -80 -16 0
v -96 -16 0
v -96 0 0
v -80 0 0
v 0 -32 0
v -16 -32 0
v -16 -16 0
v 0 -16 0
v -16 -32 0
v -32 -32 0
v -32 -16 0
v -16 -16 0
v -32 -32 0
v -48 -32 0
v -48 -16 0
v -32 -16 0
v -48 -32 0
v -64 -32 0
v -64 -16 0
v -48 -16 0
v -64 -32 0
v -80 -32 0
v -80 -16 0
v -64 -16 0
v -80 -32 0
v -96 -32 0
v -96 -16 0
v -80 -16 0
v 0 -48 0
v -16 -48 0
v -16 -32 0
v 0 -32 0
v -16 -48 0
v -32 -48 0
v -32 -32 0
v -16 -32 0
v -32 -48 0
v -48 -48 0
v -48 -32 0
v -32 -32 0
v -48 -48 0
v -64 -48 0
v -64 -32 0
v -48 -32 0
v -64 -48 0
v -80 -48 0
v -80 -32 0
v -64 -32 0
v -80 -48 0
v -96 -48 0
v -96 -32 0
v -80 -32 0
v 0 -64 0
v -16 -64 0
v -16 -48 0
v 0 -48 0
v -16 -64 0
v -32 -64 0
v -32 -48 0
v -16 -48 0
v -32 -64 0
v -48 -64 0
v -48 -48 0
v -32 -48 0
v -48 -64 0
v -64 -64 0
v -64 -48 0
v -48 -48 0
v -64 -64 0
v -80 -64 0
v -80 -48 0
v -64 -48 0
v -80 -64 0
v -96 -64 0
v -96 -48 0
v -80 -48 0
v 0 -80 0
v -16 -80 0
v -16 -64 0
v 0 -64 0
v -16 -80 0
v -32 -80 0
v -32 -64 0
v -16 -64 0
v -32 -80 0
v -48 -80 0
v -48 -64 0
v -32 -64 0
v -48 -80 0
v -64 -80 0
v -64 -64 0
v -48 -64 0
v -64 -80 0
v -80 -80 0
v -80 -64 0
v -64 -64 0
v -80 -80 0
v -96 -80 0
v -96 -64 0
v -80 -64 0
v 0 -96 0
v -16 -96 0
v -16 -80 0
v 0 -80 0
v -16 -96 0
v -32 -96 0
v -32 -80 0
v -16 -80 0
v -32 -96 0
v -48 -96 0
v -48 -80 0
v -32 -80 0
v -48 -96 0
v -64 -96 0
v -64 -80 0
v -48 -80 0
v -64 -96 0
v -80 -96 0
v -80 -80 0
v -64 -80 0
v -80 -96 0
v -96 -96 0
v -96 -80 0
v -80 -80 0
v 0 -112 0
v -16 -112 0
v -16 -96 0
v 0 -96 0
v -16 -112 0
v -32 -112 0
v -32 -96 0
v -16 -96 0
v -32 -112 0
v -48 -112 0
v -48 -96 0
v -32 -96 0
v -48 -112 0
v -64 -112 0
v -64 -96 0
v -48 -96 0
v -64 -112 0
v -80 -112 0
v -80 -96 0
v -64 -96 0
v -80 -112 0
v -96 -112 0
v -96 -96 0
v -80 -96 0
v 0 -128 0
v -16 -128 0
v -16 -112 0
v 0 -112 0
v -16 -128 0
v -32 -128 0
v -32 -112 0
v -16 -112 0
v -32 -128 0
v -48 -128 0
v -48 -112 0
v -32 -112 0
v -48 -128 0
v -64 -128 0
v -64 -112 0
v -48 -112 0
v -64 -128 0
v -80 -128 0
v -80 -112 0
v -64 -112 0
v -80 -128 0
v -96 -128 0
v -96 -112 0
v -80 -112 0
v 0 -144 0
v -16 -144 0
v -16 -128 0
v 0 -128 0
v -16 -144 0
v -32 -144 0
v -32 -128 0
v -16 -128 0
v -32 -144 0
v -48 -144 0
v -48 -128 0
v -32 -128 0
v -48 -144 0
v -64 -144 0
v -64 -128 0
v -48 -128 0
v -64 -144 0
v -80 -144 0
v -80 -128 0
v -64 -128 0
v -80 -144 0
v -96 -144 0
v -96 -128 0
v -80 -128 0
v 0 -160 0
v -16 -160 0
v -16 -144 0
v 0 -144 0
v -16 -160 0
v -32 -160 0
v -32 -144 0
v -16 -144 0
v -32 -160 0
v -48 -160 0
v -48 -144 0
v -32 -144 0
v -48 -160 0
v -64 -160 0
v -64 -144 0
v -48 -144 0
v -64 -160 0
v -80 -160 0
v -80 -144 0
v -64 -144 0
v -80 -160 0
v -96 -160 0
v -96 -144 0
v -80 -144 0
v 0 -176 0
v -16 -176 0
v -16 -160 0
v 0 -160 0
v -16 -176 0
v -32 -176 0
v -32 -160 0
v -16 -160 0
v -32 -176 0
v -48 -176 0
v -48 -160 0
v -32 -160 0
v -48 -176 0
v -64 -176 0
v -64 -160 0
v -48 -160 0
v -64 -176 0
v -80 -176 0
v -80 -160 0
v -64 -160 0
v -80 -176 0
v -96 -176 0
v -96 -160 0
v -80 -160 0
v 0 -192 0
v -16 -192 0
v -16 -176 0
v 0 -176 0
v -16 -192 0
v -32 -192 0
v -32 -176 0
v -16 -176 0
v -32 -192 0
v -48 -192 0
v -48 -176 0
v -32 -176 0
v -48 -192 0
v -64 -192 0
v -64 -176 0
v -48 -176 0
v -64 -192 0
v -80 -192 0
v -80 -176 0
v -64 -176 0
v -80 -192 0
v -96 -192 0
v -96 -176 0
v -80 -176 0
v 0 -208 0
v -16 -208 0
v -16 -192 0
v 0 -192 0
v -16 -208 0
v -32 -208 0
v -32 -192 0
v -16 -192 0
v -32 -208 0
v -48 -208 0
v -48 -192 0
v -32 -192 0
v -48 -208 0
v -64 -208 0
v -64 -192 0
v -48 -192 0
v -64 -208 0
v -80 -208 0
v -80 -192 0
v -64 -192 0
v -80 -208 0
v -96 -208 0
v -96 -192 0
v -80 -192 0
v 0 -224 0
v -16 -224 0
v -16 -208 0
v 0 -208 0
v -16 -224 0
v -32 -224 0
v -32 -208 0
v -16 -208 0
v -32 -224 0
v -48 -224 0
v -48 -208 0
v -32 -208 0
v -48 -224 0
v -64 -224 0
v -64 -208 0
v -48 -208 0
v -64 -224 0
v -80 -224 0
v -80 -208 0
v -64 -208 0
v -80 -224 0
v -96 -224 0
v -96 -208 0
v -80 -208 0
v 0 -240 0
v -16 -240 0
v -16 -224 0
v 0 -224 0
v -16 -240 0
v -32 -240 0
v -32 -224 0
v -16 -224 0
v -32 -240 0
v -48 -240 0
v -48 -224 0
v -32 -224 0
v -48 -240 0
v -64 -240 0
v -64 -224 0
v -48 -224 0
v -64 -240 0
v -80 -240 0
v -80 -224 0
v -64 -224 0
v -80 -240 0
v -96 -240 0
v -96 -224 0
v -80 -224 0
v 0 -256 0
v -16 -256 0
v -16 -240 0
v 0 -240 0
v -16 -256 0
v -32 -256 0
v -32 -240 0
v -16 -240 0
v -32 -256 0
v -48 -256 0
v -48 -240 0
v -32 -240 0
v -48 -256 0
v -64 -256 0
v -64 -240 0
v -48 -240 0
v -64 -256 0
v -80 -256 0
v -80 -240 0
v -64 -240 0
v -80 -256 0
v -96 -256 0
v -96 -240 0
v -80 -240 0

# Texture cooridinates (Count = 49)
vt 0.01171875 0.453125
vt 0.015625 0.453125
vt 0.015625 0.46875
vt 0.01171875 0.46875
vt 0.0234375 0.40625
vt 0.02734375 0.40625
vt 0.02734375 0.421875
vt 0.0234375 0.421875
vt 0.01171875 0.421875
vt 0.015625 0.421875
vt 0.015625 0.4375
vt 0.01171875 0.4375
vt 0.02734375 0.390625
vt 0.03125 0.390625
vt 0.03125 0.40625
vt 0.01953125 0.453125
vt 0.01953125 0.46875
vt 0.03125 0.421875
vt 0.03125 0.4375
vt 0.02734375 0.4375
vt 0.01953125 0.4375
vt 0.01953125 0.421875
vt 0.0078125 0.453125
vt 0.0078125 0.46875
vt 0.01171875 0.390625
vt 0.015625 0.390625
vt 0.015625 0.40625
vt 0.01171875 0.40625
vt 0.0234375 0.390625
vt 0.01953125 0.40625
vt 0.0234375 0.453125
vt 0.02734375 0.453125
vt 0.02734375 0.46875
vt 0.0234375 0.46875
vt 0.0234375 0.484375
vt 0.01953125 0.484375
vt 0.02734375 0.484375
vt 0.0078125 0.390625
vt 0.0078125 0.40625
vt 0.01953125 0.390625
vt 0.03125 0.453125
vt 0.03125 0.46875
vt 0.0234375 0.4375
vt 0.03125 0.484375
vt 0.01171875 0.484375
vt 0.0078125 0.484375
vt 0.0078125 0.421875
vt 0.0078125 0.4375
vt 0.015625 0.484375

# Normal
vn 0 0 -1

# Mesh description
g TitleIntro_mesh_0018

# Faces
f 1/1/1 2/2/1 3/3/1 4/4/1
f 5/5/1 6/6/1 7/7/1 8/8/1
f 9/9/1 10/10/1 11/11/1 12/12/1
f 13/13/1 14/14/1 15/15/1 16/6/1
f 17/2/1 18/16/1 19/17/1 20/3/1
f 21/13/1 22/14/1 23/15/1 24/6/1
f 25/7/1 26/18/1 27/19/1 28/20/1
f 29/11/1 30/21/1 31/16/1 32/2/1
f 33/10/1 34/22/1 35/21/1 36/11/1
f 37/23/1 38/1/1 39/4/1 40/24/1
f 41/13/1 42/14/1 43/15/1 44/6/1
f 45/10/1 46/22/1 47/21/1 48/11/1
f 49/25/1 50/26/1 51/27/1 52/28/1
f 53/25/1 54/26/1 55/27/1 56/28/1
f 57/29/1 58/13/1 59/6/1 60/5/1
f 61/30/1 62/5/1 63/8/1 64/22/1
f 65/31/1 66/32/1 67/33/1 68/34/1
f 69/17/1 70/34/1 71/35/1 72/36/1
f 73/31/1 74/32/1 75/33/1 76/34/1
f 77/34/1 78/33/1 79/37/1 80/35/1
f 81/7/1 82/18/1 83/19/1 84/20/1
f 85/38/1 86/25/1 87/28/1 88/39/1
f 89/9/1 90/10/1 91/11/1 92/12/1
f 93/23/1 94/1/1 95/4/1 96/24/1
f 97/40/1 98/29/1 99/5/1 100/30/1
f 101/32/1 102/41/1 103/42/1 104/33/1
f 105/31/1 106/32/1 107/33/1 108/34/1
f 109/8/1 110/7/1 111/20/1 112/43/1
f 113/12/1 114/11/1 115/2/1 116/1/1
f 117/38/1 118/25/1 119/28/1 120/39/1
f 121/5/1 122/6/1 123/7/1 124/8/1
f 125/32/1 126/41/1 127/42/1 128/33/1
f 129/6/1 130/15/1 131/18/1 132/7/1
f 133/13/1 134/14/1 135/15/1 136/6/1
f 137/33/1 138/42/1 139/44/1 140/37/1
f 141/24/1 142/4/1 143/45/1 144/46/1
f 145/47/1 146/9/1 147/12/1 148/48/1
f 149/7/1 150/18/1 151/19/1 152/20/1
f 153/8/1 154/7/1 155/20/1 156/43/1
f 157/11/1 158/21/1 159/16/1 160/2/1
f 161/28/1 162/27/1 163/10/1 164/9/1
f 165/13/1 166/14/1 167/15/1 168/6/1
f 169/1/1 170/2/1 171/3/1 172/4/1
f 173/26/1 174/40/1 175/30/1 176/27/1
f 177/40/1 178/29/1 179/5/1 180/30/1
f 181/29/1 182/13/1 183/6/1 184/5/1
f 185/12/1 186/11/1 187/2/1 188/1/1
f 189/24/1 190/4/1 191/45/1 192/46/1
f 193/29/1 194/13/1 195/6/1 196/5/1
f 197/30/1 198/5/1 199/8/1 200/22/1
f 201/21/1 202/43/1 203/31/1 204/16/1
f 205/21/1 206/43/1 207/31/1 208/16/1
f 209/17/1 210/34/1 211/35/1 212/36/1
f 213/33/1 214/42/1 215/44/1 216/37/1
f 217/40/1 218/29/1 219/5/1 220/30/1
f 221/11/1 222/21/1 223/16/1 224/2/1
f 225/31/1 226/32/1 227/33/1 228/34/1
f 229/1/1 230/2/1 231/3/1 232/4/1
f 233/12/1 234/11/1 235/2/1 236/1/1
f 237/17/1 238/34/1 239/35/1 240/36/1
f 241/13/1 242/14/1 243/15/1 244/6/1
f 245/4/1 246/3/1 247/49/1 248/45/1
f 249/29/1 250/13/1 251/6/1 252/5/1
f 253/33/1 254/42/1 255/44/1 256/37/1
f 257/29/1 258/13/1 259/6/1 260/5/1
f 261/43/1 262/20/1 263/32/1 264/31/1
f 265/11/1 266/21/1 267/16/1 268/2/1
f 269/3/1 270/17/1 271/36/1 272/49/1
f 273/17/1 274/34/1 275/35/1 276/36/1
f 277/12/1 278/11/1 279/2/1 280/1/1
f 281/6/1 282/15/1 283/18/1 284/7/1
f 285/30/1 286/5/1 287/8/1 288/22/1
f 289/48/1 290/12/1 291/1/1 292/23/1
f 293/17/1 294/34/1 295/35/1 296/36/1
f 297/4/1 298/3/1 299/49/1 300/45/1
f 301/1/1 302/2/1 303/3/1 304/4/1
f 305/47/1 306/9/1 307/12/1 308/48/1
f 309/40/1 310/29/1 311/5/1 312/30/1
f 313/43/1 314/20/1 315/32/1 316/31/1
f 317/23/1 318/1/1 319/4/1 320/24/1
f 321/25/1 322/26/1 323/27/1 324/28/1
f 325/24/1 326/4/1 327/45/1 328/46/1
f 329/25/1 330/26/1 331/27/1 332/28/1
f 333/20/1 334/19/1 335/41/1 336/32/1
f 337/11/1 338/21/1 339/16/1 340/2/1
f 341/21/1 342/43/1 343/31/1 344/16/1
f 345/26/1 346/40/1 347/30/1 348/27/1
f 349/2/1 350/16/1 351/17/1 352/3/1
f 353/34/1 354/33/1 355/37/1 356/35/1
f 357/10/1 358/22/1 359/21/1 360/11/1
f 361/43/1 362/20/1 363/32/1 364/31/1
f 365/43/1 366/20/1 367/32/1 368/31/1
f 369/5/1 370/6/1 371/7/1 372/8/1
f 373/32/1 374/41/1 375/42/1 376/33/1
f 377/23/1 378/1/1 379/4/1 380/24/1
f 381/2/1 382/16/1 383/17/1 384/3/1

