# Tiled2Unity generated file. Do not modify by hand.
# Wavefront file for 'TitleIntro_mesh_0084.obj'

# Vertices (Count = 1024)
v 0 -16 0
v -16 -16 0
v -16 0 0
v 0 0 0
v -16 -16 0
v -32 -16 0
v -32 0 0
v -16 0 0
v -32 -16 0
v -48 -16 0
v -48 0 0
v -32 0 0
v -48 -16 0
v -64 -16 0
v -64 0 0
v -48 0 0
v -64 -16 0
v -80 -16 0
v -80 0 0
v -64 0 0
v -80 -16 0
v -96 -16 0
v -96 0 0
v -80 0 0
v -96 -16 0
v -112 -16 0
v -112 0 0
v -96 0 0
v -112 -16 0
v -128 -16 0
v -128 0 0
v -112 0 0
v -128 -16 0
v -144 -16 0
v -144 0 0
v -128 0 0
v -144 -16 0
v -160 -16 0
v -160 0 0
v -144 0 0
v -160 -16 0
v -176 -16 0
v -176 0 0
v -160 0 0
v -176 -16 0
v -192 -16 0
v -192 0 0
v -176 0 0
v -192 -16 0
v -208 -16 0
v -208 0 0
v -192 0 0
v -208 -16 0
v -224 -16 0
v -224 0 0
v -208 0 0
v -224 -16 0
v -240 -16 0
v -240 0 0
v -224 0 0
v -240 -16 0
v -256 -16 0
v -256 0 0
v -240 0 0
v 0 -32 0
v -16 -32 0
v -16 -16 0
v 0 -16 0
v -16 -32 0
v -32 -32 0
v -32 -16 0
v -16 -16 0
v -32 -32 0
v -48 -32 0
v -48 -16 0
v -32 -16 0
v -48 -32 0
v -64 -32 0
v -64 -16 0
v -48 -16 0
v -64 -32 0
v -80 -32 0
v -80 -16 0
v -64 -16 0
v -80 -32 0
v -96 -32 0
v -96 -16 0
v -80 -16 0
v -96 -32 0
v -112 -32 0
v -112 -16 0
v -96 -16 0
v -112 -32 0
v -128 -32 0
v -128 -16 0
v -112 -16 0
v -128 -32 0
v -144 -32 0
v -144 -16 0
v -128 -16 0
v -144 -32 0
v -160 -32 0
v -160 -16 0
v -144 -16 0
v -160 -32 0
v -176 -32 0
v -176 -16 0
v -160 -16 0
v -176 -32 0
v -192 -32 0
v -192 -16 0
v -176 -16 0
v -192 -32 0
v -208 -32 0
v -208 -16 0
v -192 -16 0
v -208 -32 0
v -224 -32 0
v -224 -16 0
v -208 -16 0
v -224 -32 0
v -240 -32 0
v -240 -16 0
v -224 -16 0
v -240 -32 0
v -256 -32 0
v -256 -16 0
v -240 -16 0
v 0 -48 0
v -16 -48 0
v -16 -32 0
v 0 -32 0
v -16 -48 0
v -32 -48 0
v -32 -32 0
v -16 -32 0
v -32 -48 0
v -48 -48 0
v -48 -32 0
v -32 -32 0
v -48 -48 0
v -64 -48 0
v -64 -32 0
v -48 -32 0
v -64 -48 0
v -80 -48 0
v -80 -32 0
v -64 -32 0
v -80 -48 0
v -96 -48 0
v -96 -32 0
v -80 -32 0
v -96 -48 0
v -112 -48 0
v -112 -32 0
v -96 -32 0
v -112 -48 0
v -128 -48 0
v -128 -32 0
v -112 -32 0
v -128 -48 0
v -144 -48 0
v -144 -32 0
v -128 -32 0
v -144 -48 0
v -160 -48 0
v -160 -32 0
v -144 -32 0
v -160 -48 0
v -176 -48 0
v -176 -32 0
v -160 -32 0
v -176 -48 0
v -192 -48 0
v -192 -32 0
v -176 -32 0
v -192 -48 0
v -208 -48 0
v -208 -32 0
v -192 -32 0
v -208 -48 0
v -224 -48 0
v -224 -32 0
v -208 -32 0
v -224 -48 0
v -240 -48 0
v -240 -32 0
v -224 -32 0
v -240 -48 0
v -256 -48 0
v -256 -32 0
v -240 -32 0
v 0 -64 0
v -16 -64 0
v -16 -48 0
v 0 -48 0
v -16 -64 0
v -32 -64 0
v -32 -48 0
v -16 -48 0
v -32 -64 0
v -48 -64 0
v -48 -48 0
v -32 -48 0
v -48 -64 0
v -64 -64 0
v -64 -48 0
v -48 -48 0
v -64 -64 0
v -80 -64 0
v -80 -48 0
v -64 -48 0
v -80 -64 0
v -96 -64 0
v -96 -48 0
v -80 -48 0
v -96 -64 0
v -112 -64 0
v -112 -48 0
v -96 -48 0
v -112 -64 0
v -128 -64 0
v -128 -48 0
v -112 -48 0
v -128 -64 0
v -144 -64 0
v -144 -48 0
v -128 -48 0
v -144 -64 0
v -160 -64 0
v -160 -48 0
v -144 -48 0
v -160 -64 0
v -176 -64 0
v -176 -48 0
v -160 -48 0
v -176 -64 0
v -192 -64 0
v -192 -48 0
v -176 -48 0
v -192 -64 0
v -208 -64 0
v -208 -48 0
v -192 -48 0
v -208 -64 0
v -224 -64 0
v -224 -48 0
v -208 -48 0
v -224 -64 0
v -240 -64 0
v -240 -48 0
v -224 -48 0
v -240 -64 0
v -256 -64 0
v -256 -48 0
v -240 -48 0
v 0 -80 0
v -16 -80 0
v -16 -64 0
v 0 -64 0
v -16 -80 0
v -32 -80 0
v -32 -64 0
v -16 -64 0
v -32 -80 0
v -48 -80 0
v -48 -64 0
v -32 -64 0
v -48 -80 0
v -64 -80 0
v -64 -64 0
v -48 -64 0
v -64 -80 0
v -80 -80 0
v -80 -64 0
v -64 -64 0
v -80 -80 0
v -96 -80 0
v -96 -64 0
v -80 -64 0
v -96 -80 0
v -112 -80 0
v -112 -64 0
v -96 -64 0
v -112 -80 0
v -128 -80 0
v -128 -64 0
v -112 -64 0
v -128 -80 0
v -144 -80 0
v -144 -64 0
v -128 -64 0
v -144 -80 0
v -160 -80 0
v -160 -64 0
v -144 -64 0
v -160 -80 0
v -176 -80 0
v -176 -64 0
v -160 -64 0
v -176 -80 0
v -192 -80 0
v -192 -64 0
v -176 -64 0
v -192 -80 0
v -208 -80 0
v -208 -64 0
v -192 -64 0
v -208 -80 0
v -224 -80 0
v -224 -64 0
v -208 -64 0
v -224 -80 0
v -240 -80 0
v -240 -64 0
v -224 -64 0
v -240 -80 0
v -256 -80 0
v -256 -64 0
v -240 -64 0
v 0 -96 0
v -16 -96 0
v -16 -80 0
v 0 -80 0
v -16 -96 0
v -32 -96 0
v -32 -80 0
v -16 -80 0
v -32 -96 0
v -48 -96 0
v -48 -80 0
v -32 -80 0
v -48 -96 0
v -64 -96 0
v -64 -80 0
v -48 -80 0
v -64 -96 0
v -80 -96 0
v -80 -80 0
v -64 -80 0
v -80 -96 0
v -96 -96 0
v -96 -80 0
v -80 -80 0
v -96 -96 0
v -112 -96 0
v -112 -80 0
v -96 -80 0
v -112 -96 0
v -128 -96 0
v -128 -80 0
v -112 -80 0
v -128 -96 0
v -144 -96 0
v -144 -80 0
v -128 -80 0
v -144 -96 0
v -160 -96 0
v -160 -80 0
v -144 -80 0
v -160 -96 0
v -176 -96 0
v -176 -80 0
v -160 -80 0
v -176 -96 0
v -192 -96 0
v -192 -80 0
v -176 -80 0
v -192 -96 0
v -208 -96 0
v -208 -80 0
v -192 -80 0
v -208 -96 0
v -224 -96 0
v -224 -80 0
v -208 -80 0
v -224 -96 0
v -240 -96 0
v -240 -80 0
v -224 -80 0
v -240 -96 0
v -256 -96 0
v -256 -80 0
v -240 -80 0
v 0 -112 0
v -16 -112 0
v -16 -96 0
v 0 -96 0
v -16 -112 0
v -32 -112 0
v -32 -96 0
v -16 -96 0
v -32 -112 0
v -48 -112 0
v -48 -96 0
v -32 -96 0
v -48 -112 0
v -64 -112 0
v -64 -96 0
v -48 -96 0
v -64 -112 0
v -80 -112 0
v -80 -96 0
v -64 -96 0
v -80 -112 0
v -96 -112 0
v -96 -96 0
v -80 -96 0
v -96 -112 0
v -112 -112 0
v -112 -96 0
v -96 -96 0
v -112 -112 0
v -128 -112 0
v -128 -96 0
v -112 -96 0
v -128 -112 0
v -144 -112 0
v -144 -96 0
v -128 -96 0
v -144 -112 0
v -160 -112 0
v -160 -96 0
v -144 -96 0
v -160 -112 0
v -176 -112 0
v -176 -96 0
v -160 -96 0
v -176 -112 0
v -192 -112 0
v -192 -96 0
v -176 -96 0
v -192 -112 0
v -208 -112 0
v -208 -96 0
v -192 -96 0
v -208 -112 0
v -224 -112 0
v -224 -96 0
v -208 -96 0
v -224 -112 0
v -240 -112 0
v -240 -96 0
v -224 -96 0
v -240 -112 0
v -256 -112 0
v -256 -96 0
v -240 -96 0
v 0 -128 0
v -16 -128 0
v -16 -112 0
v 0 -112 0
v -16 -128 0
v -32 -128 0
v -32 -112 0
v -16 -112 0
v -32 -128 0
v -48 -128 0
v -48 -112 0
v -32 -112 0
v -48 -128 0
v -64 -128 0
v -64 -112 0
v -48 -112 0
v -64 -128 0
v -80 -128 0
v -80 -112 0
v -64 -112 0
v -80 -128 0
v -96 -128 0
v -96 -112 0
v -80 -112 0
v -96 -128 0
v -112 -128 0
v -112 -112 0
v -96 -112 0
v -112 -128 0
v -128 -128 0
v -128 -112 0
v -112 -112 0
v -128 -128 0
v -144 -128 0
v -144 -112 0
v -128 -112 0
v -144 -128 0
v -160 -128 0
v -160 -112 0
v -144 -112 0
v -160 -128 0
v -176 -128 0
v -176 -112 0
v -160 -112 0
v -176 -128 0
v -192 -128 0
v -192 -112 0
v -176 -112 0
v -192 -128 0
v -208 -128 0
v -208 -112 0
v -192 -112 0
v -208 -128 0
v -224 -128 0
v -224 -112 0
v -208 -112 0
v -224 -128 0
v -240 -128 0
v -240 -112 0
v -224 -112 0
v -240 -128 0
v -256 -128 0
v -256 -112 0
v -240 -112 0
v 0 -144 0
v -16 -144 0
v -16 -128 0
v 0 -128 0
v -16 -144 0
v -32 -144 0
v -32 -128 0
v -16 -128 0
v -32 -144 0
v -48 -144 0
v -48 -128 0
v -32 -128 0
v -48 -144 0
v -64 -144 0
v -64 -128 0
v -48 -128 0
v -64 -144 0
v -80 -144 0
v -80 -128 0
v -64 -128 0
v -80 -144 0
v -96 -144 0
v -96 -128 0
v -80 -128 0
v -96 -144 0
v -112 -144 0
v -112 -128 0
v -96 -128 0
v -112 -144 0
v -128 -144 0
v -128 -128 0
v -112 -128 0
v -128 -144 0
v -144 -144 0
v -144 -128 0
v -128 -128 0
v -144 -144 0
v -160 -144 0
v -160 -128 0
v -144 -128 0
v -160 -144 0
v -176 -144 0
v -176 -128 0
v -160 -128 0
v -176 -144 0
v -192 -144 0
v -192 -128 0
v -176 -128 0
v -192 -144 0
v -208 -144 0
v -208 -128 0
v -192 -128 0
v -208 -144 0
v -224 -144 0
v -224 -128 0
v -208 -128 0
v -224 -144 0
v -240 -144 0
v -240 -128 0
v -224 -128 0
v -240 -144 0
v -256 -144 0
v -256 -128 0
v -240 -128 0
v 0 -160 0
v -16 -160 0
v -16 -144 0
v 0 -144 0
v -16 -160 0
v -32 -160 0
v -32 -144 0
v -16 -144 0
v -32 -160 0
v -48 -160 0
v -48 -144 0
v -32 -144 0
v -48 -160 0
v -64 -160 0
v -64 -144 0
v -48 -144 0
v -64 -160 0
v -80 -160 0
v -80 -144 0
v -64 -144 0
v -80 -160 0
v -96 -160 0
v -96 -144 0
v -80 -144 0
v -96 -160 0
v -112 -160 0
v -112 -144 0
v -96 -144 0
v -112 -160 0
v -128 -160 0
v -128 -144 0
v -112 -144 0
v -128 -160 0
v -144 -160 0
v -144 -144 0
v -128 -144 0
v -144 -160 0
v -160 -160 0
v -160 -144 0
v -144 -144 0
v -160 -160 0
v -176 -160 0
v -176 -144 0
v -160 -144 0
v -176 -160 0
v -192 -160 0
v -192 -144 0
v -176 -144 0
v -192 -160 0
v -208 -160 0
v -208 -144 0
v -192 -144 0
v -208 -160 0
v -224 -160 0
v -224 -144 0
v -208 -144 0
v -224 -160 0
v -240 -160 0
v -240 -144 0
v -224 -144 0
v -240 -160 0
v -256 -160 0
v -256 -144 0
v -240 -144 0
v 0 -176 0
v -16 -176 0
v -16 -160 0
v 0 -160 0
v -16 -176 0
v -32 -176 0
v -32 -160 0
v -16 -160 0
v -32 -176 0
v -48 -176 0
v -48 -160 0
v -32 -160 0
v -48 -176 0
v -64 -176 0
v -64 -160 0
v -48 -160 0
v -64 -176 0
v -80 -176 0
v -80 -160 0
v -64 -160 0
v -80 -176 0
v -96 -176 0
v -96 -160 0
v -80 -160 0
v -96 -176 0
v -112 -176 0
v -112 -160 0
v -96 -160 0
v -112 -176 0
v -128 -176 0
v -128 -160 0
v -112 -160 0
v -128 -176 0
v -144 -176 0
v -144 -160 0
v -128 -160 0
v -144 -176 0
v -160 -176 0
v -160 -160 0
v -144 -160 0
v -160 -176 0
v -176 -176 0
v -176 -160 0
v -160 -160 0
v -176 -176 0
v -192 -176 0
v -192 -160 0
v -176 -160 0
v -192 -176 0
v -208 -176 0
v -208 -160 0
v -192 -160 0
v -208 -176 0
v -224 -176 0
v -224 -160 0
v -208 -160 0
v -224 -176 0
v -240 -176 0
v -240 -160 0
v -224 -160 0
v -240 -176 0
v -256 -176 0
v -256 -160 0
v -240 -160 0
v 0 -192 0
v -16 -192 0
v -16 -176 0
v 0 -176 0
v -16 -192 0
v -32 -192 0
v -32 -176 0
v -16 -176 0
v -32 -192 0
v -48 -192 0
v -48 -176 0
v -32 -176 0
v -48 -192 0
v -64 -192 0
v -64 -176 0
v -48 -176 0
v -64 -192 0
v -80 -192 0
v -80 -176 0
v -64 -176 0
v -80 -192 0
v -96 -192 0
v -96 -176 0
v -80 -176 0
v -96 -192 0
v -112 -192 0
v -112 -176 0
v -96 -176 0
v -112 -192 0
v -128 -192 0
v -128 -176 0
v -112 -176 0
v -128 -192 0
v -144 -192 0
v -144 -176 0
v -128 -176 0
v -144 -192 0
v -160 -192 0
v -160 -176 0
v -144 -176 0
v -160 -192 0
v -176 -192 0
v -176 -176 0
v -160 -176 0
v -176 -192 0
v -192 -192 0
v -192 -176 0
v -176 -176 0
v -192 -192 0
v -208 -192 0
v -208 -176 0
v -192 -176 0
v -208 -192 0
v -224 -192 0
v -224 -176 0
v -208 -176 0
v -224 -192 0
v -240 -192 0
v -240 -176 0
v -224 -176 0
v -240 -192 0
v -256 -192 0
v -256 -176 0
v -240 -176 0
v 0 -208 0
v -16 -208 0
v -16 -192 0
v 0 -192 0
v -16 -208 0
v -32 -208 0
v -32 -192 0
v -16 -192 0
v -32 -208 0
v -48 -208 0
v -48 -192 0
v -32 -192 0
v -48 -208 0
v -64 -208 0
v -64 -192 0
v -48 -192 0
v -64 -208 0
v -80 -208 0
v -80 -192 0
v -64 -192 0
v -80 -208 0
v -96 -208 0
v -96 -192 0
v -80 -192 0
v -96 -208 0
v -112 -208 0
v -112 -192 0
v -96 -192 0
v -112 -208 0
v -128 -208 0
v -128 -192 0
v -112 -192 0
v -128 -208 0
v -144 -208 0
v -144 -192 0
v -128 -192 0
v -144 -208 0
v -160 -208 0
v -160 -192 0
v -144 -192 0
v -160 -208 0
v -176 -208 0
v -176 -192 0
v -160 -192 0
v -176 -208 0
v -192 -208 0
v -192 -192 0
v -176 -192 0
v -192 -208 0
v -208 -208 0
v -208 -192 0
v -192 -192 0
v -208 -208 0
v -224 -208 0
v -224 -192 0
v -208 -192 0
v -224 -208 0
v -240 -208 0
v -240 -192 0
v -224 -192 0
v -240 -208 0
v -256 -208 0
v -256 -192 0
v -240 -192 0
v 0 -224 0
v -16 -224 0
v -16 -208 0
v 0 -208 0
v -16 -224 0
v -32 -224 0
v -32 -208 0
v -16 -208 0
v -32 -224 0
v -48 -224 0
v -48 -208 0
v -32 -208 0
v -48 -224 0
v -64 -224 0
v -64 -208 0
v -48 -208 0
v -64 -224 0
v -80 -224 0
v -80 -208 0
v -64 -208 0
v -80 -224 0
v -96 -224 0
v -96 -208 0
v -80 -208 0
v -96 -224 0
v -112 -224 0
v -112 -208 0
v -96 -208 0
v -112 -224 0
v -128 -224 0
v -128 -208 0
v -112 -208 0
v -128 -224 0
v -144 -224 0
v -144 -208 0
v -128 -208 0
v -144 -224 0
v -160 -224 0
v -160 -208 0
v -144 -208 0
v -160 -224 0
v -176 -224 0
v -176 -208 0
v -160 -208 0
v -176 -224 0
v -192 -224 0
v -192 -208 0
v -176 -208 0
v -192 -224 0
v -208 -224 0
v -208 -208 0
v -192 -208 0
v -208 -224 0
v -224 -224 0
v -224 -208 0
v -208 -208 0
v -224 -224 0
v -240 -224 0
v -240 -208 0
v -224 -208 0
v -240 -224 0
v -256 -224 0
v -256 -208 0
v -240 -208 0
v 0 -240 0
v -16 -240 0
v -16 -224 0
v 0 -224 0
v -16 -240 0
v -32 -240 0
v -32 -224 0
v -16 -224 0
v -32 -240 0
v -48 -240 0
v -48 -224 0
v -32 -224 0
v -48 -240 0
v -64 -240 0
v -64 -224 0
v -48 -224 0
v -64 -240 0
v -80 -240 0
v -80 -224 0
v -64 -224 0
v -80 -240 0
v -96 -240 0
v -96 -224 0
v -80 -224 0
v -96 -240 0
v -112 -240 0
v -112 -224 0
v -96 -224 0
v -112 -240 0
v -128 -240 0
v -128 -224 0
v -112 -224 0
v -128 -240 0
v -144 -240 0
v -144 -224 0
v -128 -224 0
v -144 -240 0
v -160 -240 0
v -160 -224 0
v -144 -224 0
v -160 -240 0
v -176 -240 0
v -176 -224 0
v -160 -224 0
v -176 -240 0
v -192 -240 0
v -192 -224 0
v -176 -224 0
v -192 -240 0
v -208 -240 0
v -208 -224 0
v -192 -224 0
v -208 -240 0
v -224 -240 0
v -224 -224 0
v -208 -224 0
v -224 -240 0
v -240 -240 0
v -240 -224 0
v -224 -224 0
v -240 -240 0
v -256 -240 0
v -256 -224 0
v -240 -224 0
v 0 -256 0
v -16 -256 0
v -16 -240 0
v 0 -240 0
v -16 -256 0
v -32 -256 0
v -32 -240 0
v -16 -240 0
v -32 -256 0
v -48 -256 0
v -48 -240 0
v -32 -240 0
v -48 -256 0
v -64 -256 0
v -64 -240 0
v -48 -240 0
v -64 -256 0
v -80 -256 0
v -80 -240 0
v -64 -240 0
v -80 -256 0
v -96 -256 0
v -96 -240 0
v -80 -240 0
v -96 -256 0
v -112 -256 0
v -112 -240 0
v -96 -240 0
v -112 -256 0
v -128 -256 0
v -128 -240 0
v -112 -240 0
v -128 -256 0
v -144 -256 0
v -144 -240 0
v -128 -240 0
v -144 -256 0
v -160 -256 0
v -160 -240 0
v -144 -240 0
v -160 -256 0
v -176 -256 0
v -176 -240 0
v -160 -240 0
v -176 -256 0
v -192 -256 0
v -192 -240 0
v -176 -240 0
v -192 -256 0
v -208 -256 0
v -208 -240 0
v -192 -240 0
v -208 -256 0
v -224 -256 0
v -224 -240 0
v -208 -240 0
v -224 -256 0
v -240 -256 0
v -240 -240 0
v -224 -240 0
v -240 -256 0
v -256 -256 0
v -256 -240 0
v -240 -240 0

# Texture cooridinates (Count = 49)
vt 0.0078125 0.46875
vt 0.01171875 0.46875
vt 0.01171875 0.484375
vt 0.0078125 0.484375
vt 0.0234375 0.4375
vt 0.02734375 0.4375
vt 0.02734375 0.453125
vt 0.0234375 0.453125
vt 0.01171875 0.453125
vt 0.015625 0.453125
vt 0.015625 0.46875
vt 0.0078125 0.4375
vt 0.01171875 0.4375
vt 0.0078125 0.453125
vt 0.02734375 0.390625
vt 0.03125 0.390625
vt 0.03125 0.40625
vt 0.02734375 0.40625
vt 0.0078125 0.421875
vt 0.01171875 0.421875
vt 0.015625 0.390625
vt 0.01953125 0.390625
vt 0.01953125 0.40625
vt 0.015625 0.40625
vt 0.01953125 0.453125
vt 0.0234375 0.46875
vt 0.01953125 0.46875
vt 0.015625 0.4375
vt 0.0234375 0.390625
vt 0.0234375 0.40625
vt 0.0234375 0.421875
vt 0.01953125 0.421875
vt 0.03125 0.4375
vt 0.03125 0.453125
vt 0.0234375 0.484375
vt 0.01953125 0.484375
vt 0.02734375 0.46875
vt 0.02734375 0.484375
vt 0.01953125 0.4375
vt 0.0078125 0.40625
vt 0.01171875 0.40625
vt 0.015625 0.421875
vt 0.01171875 0.390625
vt 0.015625 0.484375
vt 0.03125 0.46875
vt 0.03125 0.484375
vt 0.03125 0.421875
vt 0.02734375 0.421875
vt 0.0078125 0.390625

# Normal
vn 0 0 -1

# Mesh description
g TitleIntro_mesh_0084

# Faces
f 1/1/1 2/2/1 3/3/1 4/4/1
f 5/5/1 6/6/1 7/7/1 8/8/1
f 9/9/1 10/10/1 11/11/1 12/2/1
f 13/12/1 14/13/1 15/9/1 16/14/1
f 17/15/1 18/16/1 19/17/1 20/18/1
f 21/19/1 22/20/1 23/13/1 24/12/1
f 25/21/1 26/22/1 27/23/1 28/24/1
f 29/25/1 30/8/1 31/26/1 32/27/1
f 33/15/1 34/16/1 35/17/1 36/18/1
f 37/13/1 38/28/1 39/10/1 40/9/1
f 41/22/1 42/29/1 43/30/1 44/23/1
f 45/23/1 46/30/1 47/31/1 48/32/1
f 49/6/1 50/33/1 51/34/1 52/7/1
f 53/9/1 54/10/1 55/11/1 56/2/1
f 57/10/1 58/25/1 59/27/1 60/11/1
f 61/27/1 62/26/1 63/35/1 64/36/1
f 65/5/1 66/6/1 67/7/1 68/8/1
f 69/26/1 70/37/1 71/38/1 72/35/1
f 73/6/1 74/33/1 75/34/1 76/7/1
f 77/39/1 78/5/1 79/8/1 80/25/1
f 81/40/1 82/41/1 83/20/1 84/19/1
f 85/29/1 86/15/1 87/18/1 88/30/1
f 89/6/1 90/33/1 91/34/1 92/7/1
f 93/20/1 94/42/1 95/28/1 96/13/1
f 97/40/1 98/41/1 99/20/1 100/19/1
f 101/28/1 102/39/1 103/25/1 104/10/1
f 105/26/1 106/37/1 107/38/1 108/35/1
f 109/9/1 110/10/1 111/11/1 112/2/1
f 113/13/1 114/28/1 115/10/1 116/9/1
f 117/25/1 118/8/1 119/26/1 120/27/1
f 121/14/1 122/9/1 123/2/1 124/1/1
f 125/42/1 126/32/1 127/39/1 128/28/1
f 129/43/1 130/21/1 131/24/1 132/41/1
f 133/13/1 134/28/1 135/10/1 136/9/1
f 137/23/1 138/30/1 139/31/1 140/32/1
f 141/41/1 142/24/1 143/42/1 144/20/1
f 145/41/1 146/24/1 147/42/1 148/20/1
f 149/29/1 150/15/1 151/18/1 152/30/1
f 153/8/1 154/7/1 155/37/1 156/26/1
f 157/11/1 158/27/1 159/36/1 160/44/1
f 161/43/1 162/21/1 163/24/1 164/41/1
f 165/20/1 166/42/1 167/28/1 168/13/1
f 169/2/1 170/11/1 171/44/1 172/3/1
f 173/37/1 174/45/1 175/46/1 176/38/1
f 177/28/1 178/39/1 179/25/1 180/10/1
f 181/21/1 182/22/1 183/23/1 184/24/1
f 185/6/1 186/33/1 187/34/1 188/7/1
f 189/12/1 190/13/1 191/9/1 192/14/1
f 193/15/1 194/16/1 195/17/1 196/18/1
f 197/18/1 198/17/1 199/47/1 200/48/1
f 201/39/1 202/5/1 203/8/1 204/25/1
f 205/10/1 206/25/1 207/27/1 208/11/1
f 209/5/1 210/6/1 211/7/1 212/8/1
f 213/27/1 214/26/1 215/35/1 216/36/1
f 217/41/1 218/24/1 219/42/1 220/20/1
f 221/14/1 222/9/1 223/2/1 224/1/1
f 225/49/1 226/43/1 227/41/1 228/40/1
f 229/27/1 230/26/1 231/35/1 232/36/1
f 233/40/1 234/41/1 235/20/1 236/19/1
f 237/19/1 238/20/1 239/13/1 240/12/1
f 241/28/1 242/39/1 243/25/1 244/10/1
f 245/25/1 246/8/1 247/26/1 248/27/1
f 249/29/1 250/15/1 251/18/1 252/30/1
f 253/27/1 254/26/1 255/35/1 256/36/1
f 257/7/1 258/34/1 259/45/1 260/37/1
f 261/15/1 262/16/1 263/17/1 264/18/1
f 265/11/1 266/27/1 267/36/1 268/44/1
f 269/6/1 270/33/1 271/34/1 272/7/1
f 273/9/1 274/10/1 275/11/1 276/2/1
f 277/21/1 278/22/1 279/23/1 280/24/1
f 281/31/1 282/48/1 283/6/1 284/5/1
f 285/32/1 286/31/1 287/5/1 288/39/1
f 289/30/1 290/18/1 291/48/1 292/31/1
f 293/41/1 294/24/1 295/42/1 296/20/1
f 297/29/1 298/15/1 299/18/1 300/30/1
f 301/30/1 302/18/1 303/48/1 304/31/1
f 305/25/1 306/8/1 307/26/1 308/27/1
f 309/39/1 310/5/1 311/8/1 312/25/1
f 313/25/1 314/8/1 315/26/1 316/27/1
f 317/48/1 318/47/1 319/33/1 320/6/1
f 321/18/1 322/17/1 323/47/1 324/48/1
f 325/42/1 326/32/1 327/39/1 328/28/1
f 329/9/1 330/10/1 331/11/1 332/2/1
f 333/41/1 334/24/1 335/42/1 336/20/1
f 337/25/1 338/8/1 339/26/1 340/27/1
f 341/25/1 342/8/1 343/26/1 344/27/1
f 345/25/1 346/8/1 347/26/1 348/27/1
f 349/10/1 350/25/1 351/27/1 352/11/1
f 353/42/1 354/32/1 355/39/1 356/28/1
f 357/2/1 358/11/1 359/44/1 360/3/1
f 361/39/1 362/5/1 363/8/1 364/25/1
f 365/8/1 366/7/1 367/37/1 368/26/1
f 369/7/1 370/34/1 371/45/1 372/37/1
f 373/49/1 374/43/1 375/41/1 376/40/1
f 377/14/1 378/9/1 379/2/1 380/1/1
f 381/42/1 382/32/1 383/39/1 384/28/1
f 385/6/1 386/33/1 387/34/1 388/7/1
f 389/18/1 390/17/1 391/47/1 392/48/1
f 393/23/1 394/30/1 395/31/1 396/32/1
f 397/41/1 398/24/1 399/42/1 400/20/1
f 401/9/1 402/10/1 403/11/1 404/2/1
f 405/29/1 406/15/1 407/18/1 408/30/1
f 409/26/1 410/37/1 411/38/1 412/35/1
f 413/28/1 414/39/1 415/25/1 416/10/1
f 417/6/1 418/33/1 419/34/1 420/7/1
f 421/20/1 422/42/1 423/28/1 424/13/1
f 425/15/1 426/16/1 427/17/1 428/18/1
f 429/20/1 430/42/1 431/28/1 432/13/1
f 433/49/1 434/43/1 435/41/1 436/40/1
f 437/23/1 438/30/1 439/31/1 440/32/1
f 441/5/1 442/6/1 443/7/1 444/8/1
f 445/26/1 446/37/1 447/38/1 448/35/1
f 449/31/1 450/48/1 451/6/1 452/5/1
f 453/22/1 454/29/1 455/30/1 456/23/1
f 457/18/1 458/17/1 459/47/1 460/48/1
f 461/6/1 462/33/1 463/34/1 464/7/1
f 465/9/1 466/10/1 467/11/1 468/2/1
f 469/8/1 470/7/1 471/37/1 472/26/1
f 473/15/1 474/16/1 475/17/1 476/18/1
f 477/40/1 478/41/1 479/20/1 480/19/1
f 481/49/1 482/43/1 483/41/1 484/40/1
f 485/7/1 486/34/1 487/45/1 488/37/1
f 489/8/1 490/7/1 491/37/1 492/26/1
f 493/21/1 494/22/1 495/23/1 496/24/1
f 497/9/1 498/10/1 499/11/1 500/2/1
f 501/29/1 502/15/1 503/18/1 504/30/1
f 505/21/1 506/22/1 507/23/1 508/24/1
f 509/29/1 510/15/1 511/18/1 512/30/1
f 513/25/1 514/8/1 515/26/1 516/27/1
f 517/18/1 518/17/1 519/47/1 520/48/1
f 521/32/1 522/31/1 523/5/1 524/39/1
f 525/41/1 526/24/1 527/42/1 528/20/1
f 529/27/1 530/26/1 531/35/1 532/36/1
f 533/7/1 534/34/1 535/45/1 536/37/1
f 537/21/1 538/22/1 539/23/1 540/24/1
f 541/6/1 542/33/1 543/34/1 544/7/1
f 545/6/1 546/33/1 547/34/1 548/7/1
f 549/28/1 550/39/1 551/25/1 552/10/1
f 553/39/1 554/5/1 555/8/1 556/25/1
f 557/8/1 558/7/1 559/37/1 560/26/1
f 561/9/1 562/10/1 563/11/1 564/2/1
f 565/15/1 566/16/1 567/17/1 568/18/1
f 569/30/1 570/18/1 571/48/1 572/31/1
f 573/20/1 574/42/1 575/28/1 576/13/1
f 577/8/1 578/7/1 579/37/1 580/26/1
f 581/32/1 582/31/1 583/5/1 584/39/1
f 585/49/1 586/43/1 587/41/1 588/40/1
f 589/26/1 590/37/1 591/38/1 592/35/1
f 593/30/1 594/18/1 595/48/1 596/31/1
f 597/29/1 598/15/1 599/18/1 600/30/1
f 601/31/1 602/48/1 603/6/1 604/5/1
f 605/48/1 606/47/1 607/33/1 608/6/1
f 609/40/1 610/41/1 611/20/1 612/19/1
f 613/22/1 614/29/1 615/30/1 616/23/1
f 617/40/1 618/41/1 619/20/1 620/19/1
f 621/11/1 622/27/1 623/36/1 624/44/1
f 625/42/1 626/32/1 627/39/1 628/28/1
f 629/9/1 630/10/1 631/11/1 632/2/1
f 633/49/1 634/43/1 635/41/1 636/40/1
f 637/48/1 638/47/1 639/33/1 640/6/1
f 641/2/1 642/11/1 643/44/1 644/3/1
f 645/28/1 646/39/1 647/25/1 648/10/1
f 649/19/1 650/20/1 651/13/1 652/12/1
f 653/31/1 654/48/1 655/6/1 656/5/1
f 657/5/1 658/6/1 659/7/1 660/8/1
f 661/22/1 662/29/1 663/30/1 664/23/1
f 665/24/1 666/23/1 667/32/1 668/42/1
f 669/11/1 670/27/1 671/36/1 672/44/1
f 673/9/1 674/10/1 675/11/1 676/2/1
f 677/11/1 678/27/1 679/36/1 680/44/1
f 681/39/1 682/5/1 683/8/1 684/25/1
f 685/27/1 686/26/1 687/35/1 688/36/1
f 689/7/1 690/34/1 691/45/1 692/37/1
f 693/29/1 694/15/1 695/18/1 696/30/1
f 697/28/1 698/39/1 699/25/1 700/10/1
f 701/39/1 702/5/1 703/8/1 704/25/1
f 705/19/1 706/20/1 707/13/1 708/12/1
f 709/28/1 710/39/1 711/25/1 712/10/1
f 713/2/1 714/11/1 715/44/1 716/3/1
f 717/25/1 718/8/1 719/26/1 720/27/1
f 721/5/1 722/6/1 723/7/1 724/8/1
f 725/11/1 726/27/1 727/36/1 728/44/1
f 729/30/1 730/18/1 731/48/1 732/31/1
f 733/14/1 734/9/1 735/2/1 736/1/1
f 737/9/1 738/10/1 739/11/1 740/2/1
f 741/29/1 742/15/1 743/18/1 744/30/1
f 745/27/1 746/26/1 747/35/1 748/36/1
f 749/6/1 750/33/1 751/34/1 752/7/1
f 753/2/1 754/11/1 755/44/1 756/3/1
f 757/42/1 758/32/1 759/39/1 760/28/1
f 761/49/1 762/43/1 763/41/1 764/40/1
f 765/21/1 766/22/1 767/23/1 768/24/1
f 769/9/1 770/10/1 771/11/1 772/2/1
f 773/2/1 774/11/1 775/44/1 776/3/1
f 777/1/1 778/2/1 779/3/1 780/4/1
f 781/18/1 782/17/1 783/47/1 784/48/1
f 785/7/1 786/34/1 787/45/1 788/37/1
f 789/7/1 790/34/1 791/45/1 792/37/1
f 793/13/1 794/28/1 795/10/1 796/9/1
f 797/19/1 798/20/1 799/13/1 800/12/1
f 801/23/1 802/30/1 803/31/1 804/32/1
f 805/21/1 806/22/1 807/23/1 808/24/1
f 809/22/1 810/29/1 811/30/1 812/23/1
f 813/21/1 814/22/1 815/23/1 816/24/1
f 817/10/1 818/25/1 819/27/1 820/11/1
f 821/30/1 822/18/1 823/48/1 824/31/1
f 825/9/1 826/10/1 827/11/1 828/2/1
f 829/8/1 830/7/1 831/37/1 832/26/1
f 833/25/1 834/8/1 835/26/1 836/27/1
f 837/8/1 838/7/1 839/37/1 840/26/1
f 841/24/1 842/23/1 843/32/1 844/42/1
f 845/13/1 846/28/1 847/10/1 848/9/1
f 849/6/1 850/33/1 851/34/1 852/7/1
f 853/31/1 854/48/1 855/6/1 856/5/1
f 857/15/1 858/16/1 859/17/1 860/18/1
f 861/25/1 862/8/1 863/26/1 864/27/1
f 865/37/1 866/45/1 867/46/1 868/38/1
f 869/8/1 870/7/1 871/37/1 872/26/1
f 873/28/1 874/39/1 875/25/1 876/10/1
f 877/30/1 878/18/1 879/48/1 880/31/1
f 881/21/1 882/22/1 883/23/1 884/24/1
f 885/42/1 886/32/1 887/39/1 888/28/1
f 889/6/1 890/33/1 891/34/1 892/7/1
f 893/11/1 894/27/1 895/36/1 896/44/1
f 897/6/1 898/33/1 899/34/1 900/7/1
f 901/12/1 902/13/1 903/9/1 904/14/1
f 905/13/1 906/28/1 907/10/1 908/9/1
f 909/19/1 910/20/1 911/13/1 912/12/1
f 913/42/1 914/32/1 915/39/1 916/28/1
f 917/25/1 918/8/1 919/26/1 920/27/1
f 921/5/1 922/6/1 923/7/1 924/8/1
f 925/5/1 926/6/1 927/7/1 928/8/1
f 929/25/1 930/8/1 931/26/1 932/27/1
f 933/40/1 934/41/1 935/20/1 936/19/1
f 937/29/1 938/15/1 939/18/1 940/30/1
f 941/26/1 942/37/1 943/38/1 944/35/1
f 945/8/1 946/7/1 947/37/1 948/26/1
f 949/27/1 950/26/1 951/35/1 952/36/1
f 953/21/1 954/22/1 955/23/1 956/24/1
f 957/13/1 958/28/1 959/10/1 960/9/1
f 961/15/1 962/16/1 963/17/1 964/18/1
f 965/22/1 966/29/1 967/30/1 968/23/1
f 969/31/1 970/48/1 971/6/1 972/5/1
f 973/48/1 974/47/1 975/33/1 976/6/1
f 977/8/1 978/7/1 979/37/1 980/26/1
f 981/19/1 982/20/1 983/13/1 984/12/1
f 985/42/1 986/32/1 987/39/1 988/28/1
f 989/21/1 990/22/1 991/23/1 992/24/1
f 993/15/1 994/16/1 995/17/1 996/18/1
f 997/41/1 998/24/1 999/42/1 1000/20/1
f 1001/23/1 1002/30/1 1003/31/1 1004/32/1
f 1005/37/1 1006/45/1 1007/46/1 1008/38/1
f 1009/14/1 1010/9/1 1011/2/1 1012/1/1
f 1013/48/1 1014/47/1 1015/33/1 1016/6/1
f 1017/5/1 1018/6/1 1019/7/1 1020/8/1
f 1021/29/1 1022/15/1 1023/18/1 1024/30/1

