# Tiled2Unity generated file. Do not modify by hand.
# Wavefront file for 'TitleIntro_mesh_0052.obj'

# Vertices (Count = 1024)
v 0 -16 0
v -16 -16 0
v -16 0 0
v 0 0 0
v -16 -16 0
v -32 -16 0
v -32 0 0
v -16 0 0
v -32 -16 0
v -48 -16 0
v -48 0 0
v -32 0 0
v -48 -16 0
v -64 -16 0
v -64 0 0
v -48 0 0
v -64 -16 0
v -80 -16 0
v -80 0 0
v -64 0 0
v -80 -16 0
v -96 -16 0
v -96 0 0
v -80 0 0
v -96 -16 0
v -112 -16 0
v -112 0 0
v -96 0 0
v -112 -16 0
v -128 -16 0
v -128 0 0
v -112 0 0
v -128 -16 0
v -144 -16 0
v -144 0 0
v -128 0 0
v -144 -16 0
v -160 -16 0
v -160 0 0
v -144 0 0
v -160 -16 0
v -176 -16 0
v -176 0 0
v -160 0 0
v -176 -16 0
v -192 -16 0
v -192 0 0
v -176 0 0
v -192 -16 0
v -208 -16 0
v -208 0 0
v -192 0 0
v -208 -16 0
v -224 -16 0
v -224 0 0
v -208 0 0
v -224 -16 0
v -240 -16 0
v -240 0 0
v -224 0 0
v -240 -16 0
v -256 -16 0
v -256 0 0
v -240 0 0
v 0 -32 0
v -16 -32 0
v -16 -16 0
v 0 -16 0
v -16 -32 0
v -32 -32 0
v -32 -16 0
v -16 -16 0
v -32 -32 0
v -48 -32 0
v -48 -16 0
v -32 -16 0
v -48 -32 0
v -64 -32 0
v -64 -16 0
v -48 -16 0
v -64 -32 0
v -80 -32 0
v -80 -16 0
v -64 -16 0
v -80 -32 0
v -96 -32 0
v -96 -16 0
v -80 -16 0
v -96 -32 0
v -112 -32 0
v -112 -16 0
v -96 -16 0
v -112 -32 0
v -128 -32 0
v -128 -16 0
v -112 -16 0
v -128 -32 0
v -144 -32 0
v -144 -16 0
v -128 -16 0
v -144 -32 0
v -160 -32 0
v -160 -16 0
v -144 -16 0
v -160 -32 0
v -176 -32 0
v -176 -16 0
v -160 -16 0
v -176 -32 0
v -192 -32 0
v -192 -16 0
v -176 -16 0
v -192 -32 0
v -208 -32 0
v -208 -16 0
v -192 -16 0
v -208 -32 0
v -224 -32 0
v -224 -16 0
v -208 -16 0
v -224 -32 0
v -240 -32 0
v -240 -16 0
v -224 -16 0
v -240 -32 0
v -256 -32 0
v -256 -16 0
v -240 -16 0
v 0 -48 0
v -16 -48 0
v -16 -32 0
v 0 -32 0
v -16 -48 0
v -32 -48 0
v -32 -32 0
v -16 -32 0
v -32 -48 0
v -48 -48 0
v -48 -32 0
v -32 -32 0
v -48 -48 0
v -64 -48 0
v -64 -32 0
v -48 -32 0
v -64 -48 0
v -80 -48 0
v -80 -32 0
v -64 -32 0
v -80 -48 0
v -96 -48 0
v -96 -32 0
v -80 -32 0
v -96 -48 0
v -112 -48 0
v -112 -32 0
v -96 -32 0
v -112 -48 0
v -128 -48 0
v -128 -32 0
v -112 -32 0
v -128 -48 0
v -144 -48 0
v -144 -32 0
v -128 -32 0
v -144 -48 0
v -160 -48 0
v -160 -32 0
v -144 -32 0
v -160 -48 0
v -176 -48 0
v -176 -32 0
v -160 -32 0
v -176 -48 0
v -192 -48 0
v -192 -32 0
v -176 -32 0
v -192 -48 0
v -208 -48 0
v -208 -32 0
v -192 -32 0
v -208 -48 0
v -224 -48 0
v -224 -32 0
v -208 -32 0
v -224 -48 0
v -240 -48 0
v -240 -32 0
v -224 -32 0
v -240 -48 0
v -256 -48 0
v -256 -32 0
v -240 -32 0
v 0 -64 0
v -16 -64 0
v -16 -48 0
v 0 -48 0
v -16 -64 0
v -32 -64 0
v -32 -48 0
v -16 -48 0
v -32 -64 0
v -48 -64 0
v -48 -48 0
v -32 -48 0
v -48 -64 0
v -64 -64 0
v -64 -48 0
v -48 -48 0
v -64 -64 0
v -80 -64 0
v -80 -48 0
v -64 -48 0
v -80 -64 0
v -96 -64 0
v -96 -48 0
v -80 -48 0
v -96 -64 0
v -112 -64 0
v -112 -48 0
v -96 -48 0
v -112 -64 0
v -128 -64 0
v -128 -48 0
v -112 -48 0
v -128 -64 0
v -144 -64 0
v -144 -48 0
v -128 -48 0
v -144 -64 0
v -160 -64 0
v -160 -48 0
v -144 -48 0
v -160 -64 0
v -176 -64 0
v -176 -48 0
v -160 -48 0
v -176 -64 0
v -192 -64 0
v -192 -48 0
v -176 -48 0
v -192 -64 0
v -208 -64 0
v -208 -48 0
v -192 -48 0
v -208 -64 0
v -224 -64 0
v -224 -48 0
v -208 -48 0
v -224 -64 0
v -240 -64 0
v -240 -48 0
v -224 -48 0
v -240 -64 0
v -256 -64 0
v -256 -48 0
v -240 -48 0
v 0 -80 0
v -16 -80 0
v -16 -64 0
v 0 -64 0
v -16 -80 0
v -32 -80 0
v -32 -64 0
v -16 -64 0
v -32 -80 0
v -48 -80 0
v -48 -64 0
v -32 -64 0
v -48 -80 0
v -64 -80 0
v -64 -64 0
v -48 -64 0
v -64 -80 0
v -80 -80 0
v -80 -64 0
v -64 -64 0
v -80 -80 0
v -96 -80 0
v -96 -64 0
v -80 -64 0
v -96 -80 0
v -112 -80 0
v -112 -64 0
v -96 -64 0
v -112 -80 0
v -128 -80 0
v -128 -64 0
v -112 -64 0
v -128 -80 0
v -144 -80 0
v -144 -64 0
v -128 -64 0
v -144 -80 0
v -160 -80 0
v -160 -64 0
v -144 -64 0
v -160 -80 0
v -176 -80 0
v -176 -64 0
v -160 -64 0
v -176 -80 0
v -192 -80 0
v -192 -64 0
v -176 -64 0
v -192 -80 0
v -208 -80 0
v -208 -64 0
v -192 -64 0
v -208 -80 0
v -224 -80 0
v -224 -64 0
v -208 -64 0
v -224 -80 0
v -240 -80 0
v -240 -64 0
v -224 -64 0
v -240 -80 0
v -256 -80 0
v -256 -64 0
v -240 -64 0
v 0 -96 0
v -16 -96 0
v -16 -80 0
v 0 -80 0
v -16 -96 0
v -32 -96 0
v -32 -80 0
v -16 -80 0
v -32 -96 0
v -48 -96 0
v -48 -80 0
v -32 -80 0
v -48 -96 0
v -64 -96 0
v -64 -80 0
v -48 -80 0
v -64 -96 0
v -80 -96 0
v -80 -80 0
v -64 -80 0
v -80 -96 0
v -96 -96 0
v -96 -80 0
v -80 -80 0
v -96 -96 0
v -112 -96 0
v -112 -80 0
v -96 -80 0
v -112 -96 0
v -128 -96 0
v -128 -80 0
v -112 -80 0
v -128 -96 0
v -144 -96 0
v -144 -80 0
v -128 -80 0
v -144 -96 0
v -160 -96 0
v -160 -80 0
v -144 -80 0
v -160 -96 0
v -176 -96 0
v -176 -80 0
v -160 -80 0
v -176 -96 0
v -192 -96 0
v -192 -80 0
v -176 -80 0
v -192 -96 0
v -208 -96 0
v -208 -80 0
v -192 -80 0
v -208 -96 0
v -224 -96 0
v -224 -80 0
v -208 -80 0
v -224 -96 0
v -240 -96 0
v -240 -80 0
v -224 -80 0
v -240 -96 0
v -256 -96 0
v -256 -80 0
v -240 -80 0
v 0 -112 0
v -16 -112 0
v -16 -96 0
v 0 -96 0
v -16 -112 0
v -32 -112 0
v -32 -96 0
v -16 -96 0
v -32 -112 0
v -48 -112 0
v -48 -96 0
v -32 -96 0
v -48 -112 0
v -64 -112 0
v -64 -96 0
v -48 -96 0
v -64 -112 0
v -80 -112 0
v -80 -96 0
v -64 -96 0
v -80 -112 0
v -96 -112 0
v -96 -96 0
v -80 -96 0
v -96 -112 0
v -112 -112 0
v -112 -96 0
v -96 -96 0
v -112 -112 0
v -128 -112 0
v -128 -96 0
v -112 -96 0
v -128 -112 0
v -144 -112 0
v -144 -96 0
v -128 -96 0
v -144 -112 0
v -160 -112 0
v -160 -96 0
v -144 -96 0
v -160 -112 0
v -176 -112 0
v -176 -96 0
v -160 -96 0
v -176 -112 0
v -192 -112 0
v -192 -96 0
v -176 -96 0
v -192 -112 0
v -208 -112 0
v -208 -96 0
v -192 -96 0
v -208 -112 0
v -224 -112 0
v -224 -96 0
v -208 -96 0
v -224 -112 0
v -240 -112 0
v -240 -96 0
v -224 -96 0
v -240 -112 0
v -256 -112 0
v -256 -96 0
v -240 -96 0
v 0 -128 0
v -16 -128 0
v -16 -112 0
v 0 -112 0
v -16 -128 0
v -32 -128 0
v -32 -112 0
v -16 -112 0
v -32 -128 0
v -48 -128 0
v -48 -112 0
v -32 -112 0
v -48 -128 0
v -64 -128 0
v -64 -112 0
v -48 -112 0
v -64 -128 0
v -80 -128 0
v -80 -112 0
v -64 -112 0
v -80 -128 0
v -96 -128 0
v -96 -112 0
v -80 -112 0
v -96 -128 0
v -112 -128 0
v -112 -112 0
v -96 -112 0
v -112 -128 0
v -128 -128 0
v -128 -112 0
v -112 -112 0
v -128 -128 0
v -144 -128 0
v -144 -112 0
v -128 -112 0
v -144 -128 0
v -160 -128 0
v -160 -112 0
v -144 -112 0
v -160 -128 0
v -176 -128 0
v -176 -112 0
v -160 -112 0
v -176 -128 0
v -192 -128 0
v -192 -112 0
v -176 -112 0
v -192 -128 0
v -208 -128 0
v -208 -112 0
v -192 -112 0
v -208 -128 0
v -224 -128 0
v -224 -112 0
v -208 -112 0
v -224 -128 0
v -240 -128 0
v -240 -112 0
v -224 -112 0
v -240 -128 0
v -256 -128 0
v -256 -112 0
v -240 -112 0
v 0 -144 0
v -16 -144 0
v -16 -128 0
v 0 -128 0
v -16 -144 0
v -32 -144 0
v -32 -128 0
v -16 -128 0
v -32 -144 0
v -48 -144 0
v -48 -128 0
v -32 -128 0
v -48 -144 0
v -64 -144 0
v -64 -128 0
v -48 -128 0
v -64 -144 0
v -80 -144 0
v -80 -128 0
v -64 -128 0
v -80 -144 0
v -96 -144 0
v -96 -128 0
v -80 -128 0
v -96 -144 0
v -112 -144 0
v -112 -128 0
v -96 -128 0
v -112 -144 0
v -128 -144 0
v -128 -128 0
v -112 -128 0
v -128 -144 0
v -144 -144 0
v -144 -128 0
v -128 -128 0
v -144 -144 0
v -160 -144 0
v -160 -128 0
v -144 -128 0
v -160 -144 0
v -176 -144 0
v -176 -128 0
v -160 -128 0
v -176 -144 0
v -192 -144 0
v -192 -128 0
v -176 -128 0
v -192 -144 0
v -208 -144 0
v -208 -128 0
v -192 -128 0
v -208 -144 0
v -224 -144 0
v -224 -128 0
v -208 -128 0
v -224 -144 0
v -240 -144 0
v -240 -128 0
v -224 -128 0
v -240 -144 0
v -256 -144 0
v -256 -128 0
v -240 -128 0
v 0 -160 0
v -16 -160 0
v -16 -144 0
v 0 -144 0
v -16 -160 0
v -32 -160 0
v -32 -144 0
v -16 -144 0
v -32 -160 0
v -48 -160 0
v -48 -144 0
v -32 -144 0
v -48 -160 0
v -64 -160 0
v -64 -144 0
v -48 -144 0
v -64 -160 0
v -80 -160 0
v -80 -144 0
v -64 -144 0
v -80 -160 0
v -96 -160 0
v -96 -144 0
v -80 -144 0
v -96 -160 0
v -112 -160 0
v -112 -144 0
v -96 -144 0
v -112 -160 0
v -128 -160 0
v -128 -144 0
v -112 -144 0
v -128 -160 0
v -144 -160 0
v -144 -144 0
v -128 -144 0
v -144 -160 0
v -160 -160 0
v -160 -144 0
v -144 -144 0
v -160 -160 0
v -176 -160 0
v -176 -144 0
v -160 -144 0
v -176 -160 0
v -192 -160 0
v -192 -144 0
v -176 -144 0
v -192 -160 0
v -208 -160 0
v -208 -144 0
v -192 -144 0
v -208 -160 0
v -224 -160 0
v -224 -144 0
v -208 -144 0
v -224 -160 0
v -240 -160 0
v -240 -144 0
v -224 -144 0
v -240 -160 0
v -256 -160 0
v -256 -144 0
v -240 -144 0
v 0 -176 0
v -16 -176 0
v -16 -160 0
v 0 -160 0
v -16 -176 0
v -32 -176 0
v -32 -160 0
v -16 -160 0
v -32 -176 0
v -48 -176 0
v -48 -160 0
v -32 -160 0
v -48 -176 0
v -64 -176 0
v -64 -160 0
v -48 -160 0
v -64 -176 0
v -80 -176 0
v -80 -160 0
v -64 -160 0
v -80 -176 0
v -96 -176 0
v -96 -160 0
v -80 -160 0
v -96 -176 0
v -112 -176 0
v -112 -160 0
v -96 -160 0
v -112 -176 0
v -128 -176 0
v -128 -160 0
v -112 -160 0
v -128 -176 0
v -144 -176 0
v -144 -160 0
v -128 -160 0
v -144 -176 0
v -160 -176 0
v -160 -160 0
v -144 -160 0
v -160 -176 0
v -176 -176 0
v -176 -160 0
v -160 -160 0
v -176 -176 0
v -192 -176 0
v -192 -160 0
v -176 -160 0
v -192 -176 0
v -208 -176 0
v -208 -160 0
v -192 -160 0
v -208 -176 0
v -224 -176 0
v -224 -160 0
v -208 -160 0
v -224 -176 0
v -240 -176 0
v -240 -160 0
v -224 -160 0
v -240 -176 0
v -256 -176 0
v -256 -160 0
v -240 -160 0
v 0 -192 0
v -16 -192 0
v -16 -176 0
v 0 -176 0
v -16 -192 0
v -32 -192 0
v -32 -176 0
v -16 -176 0
v -32 -192 0
v -48 -192 0
v -48 -176 0
v -32 -176 0
v -48 -192 0
v -64 -192 0
v -64 -176 0
v -48 -176 0
v -64 -192 0
v -80 -192 0
v -80 -176 0
v -64 -176 0
v -80 -192 0
v -96 -192 0
v -96 -176 0
v -80 -176 0
v -96 -192 0
v -112 -192 0
v -112 -176 0
v -96 -176 0
v -112 -192 0
v -128 -192 0
v -128 -176 0
v -112 -176 0
v -128 -192 0
v -144 -192 0
v -144 -176 0
v -128 -176 0
v -144 -192 0
v -160 -192 0
v -160 -176 0
v -144 -176 0
v -160 -192 0
v -176 -192 0
v -176 -176 0
v -160 -176 0
v -176 -192 0
v -192 -192 0
v -192 -176 0
v -176 -176 0
v -192 -192 0
v -208 -192 0
v -208 -176 0
v -192 -176 0
v -208 -192 0
v -224 -192 0
v -224 -176 0
v -208 -176 0
v -224 -192 0
v -240 -192 0
v -240 -176 0
v -224 -176 0
v -240 -192 0
v -256 -192 0
v -256 -176 0
v -240 -176 0
v 0 -208 0
v -16 -208 0
v -16 -192 0
v 0 -192 0
v -16 -208 0
v -32 -208 0
v -32 -192 0
v -16 -192 0
v -32 -208 0
v -48 -208 0
v -48 -192 0
v -32 -192 0
v -48 -208 0
v -64 -208 0
v -64 -192 0
v -48 -192 0
v -64 -208 0
v -80 -208 0
v -80 -192 0
v -64 -192 0
v -80 -208 0
v -96 -208 0
v -96 -192 0
v -80 -192 0
v -96 -208 0
v -112 -208 0
v -112 -192 0
v -96 -192 0
v -112 -208 0
v -128 -208 0
v -128 -192 0
v -112 -192 0
v -128 -208 0
v -144 -208 0
v -144 -192 0
v -128 -192 0
v -144 -208 0
v -160 -208 0
v -160 -192 0
v -144 -192 0
v -160 -208 0
v -176 -208 0
v -176 -192 0
v -160 -192 0
v -176 -208 0
v -192 -208 0
v -192 -192 0
v -176 -192 0
v -192 -208 0
v -208 -208 0
v -208 -192 0
v -192 -192 0
v -208 -208 0
v -224 -208 0
v -224 -192 0
v -208 -192 0
v -224 -208 0
v -240 -208 0
v -240 -192 0
v -224 -192 0
v -240 -208 0
v -256 -208 0
v -256 -192 0
v -240 -192 0
v 0 -224 0
v -16 -224 0
v -16 -208 0
v 0 -208 0
v -16 -224 0
v -32 -224 0
v -32 -208 0
v -16 -208 0
v -32 -224 0
v -48 -224 0
v -48 -208 0
v -32 -208 0
v -48 -224 0
v -64 -224 0
v -64 -208 0
v -48 -208 0
v -64 -224 0
v -80 -224 0
v -80 -208 0
v -64 -208 0
v -80 -224 0
v -96 -224 0
v -96 -208 0
v -80 -208 0
v -96 -224 0
v -112 -224 0
v -112 -208 0
v -96 -208 0
v -112 -224 0
v -128 -224 0
v -128 -208 0
v -112 -208 0
v -128 -224 0
v -144 -224 0
v -144 -208 0
v -128 -208 0
v -144 -224 0
v -160 -224 0
v -160 -208 0
v -144 -208 0
v -160 -224 0
v -176 -224 0
v -176 -208 0
v -160 -208 0
v -176 -224 0
v -192 -224 0
v -192 -208 0
v -176 -208 0
v -192 -224 0
v -208 -224 0
v -208 -208 0
v -192 -208 0
v -208 -224 0
v -224 -224 0
v -224 -208 0
v -208 -208 0
v -224 -224 0
v -240 -224 0
v -240 -208 0
v -224 -208 0
v -240 -224 0
v -256 -224 0
v -256 -208 0
v -240 -208 0
v 0 -240 0
v -16 -240 0
v -16 -224 0
v 0 -224 0
v -16 -240 0
v -32 -240 0
v -32 -224 0
v -16 -224 0
v -32 -240 0
v -48 -240 0
v -48 -224 0
v -32 -224 0
v -48 -240 0
v -64 -240 0
v -64 -224 0
v -48 -224 0
v -64 -240 0
v -80 -240 0
v -80 -224 0
v -64 -224 0
v -80 -240 0
v -96 -240 0
v -96 -224 0
v -80 -224 0
v -96 -240 0
v -112 -240 0
v -112 -224 0
v -96 -224 0
v -112 -240 0
v -128 -240 0
v -128 -224 0
v -112 -224 0
v -128 -240 0
v -144 -240 0
v -144 -224 0
v -128 -224 0
v -144 -240 0
v -160 -240 0
v -160 -224 0
v -144 -224 0
v -160 -240 0
v -176 -240 0
v -176 -224 0
v -160 -224 0
v -176 -240 0
v -192 -240 0
v -192 -224 0
v -176 -224 0
v -192 -240 0
v -208 -240 0
v -208 -224 0
v -192 -224 0
v -208 -240 0
v -224 -240 0
v -224 -224 0
v -208 -224 0
v -224 -240 0
v -240 -240 0
v -240 -224 0
v -224 -224 0
v -240 -240 0
v -256 -240 0
v -256 -224 0
v -240 -224 0
v 0 -256 0
v -16 -256 0
v -16 -240 0
v 0 -240 0
v -16 -256 0
v -32 -256 0
v -32 -240 0
v -16 -240 0
v -32 -256 0
v -48 -256 0
v -48 -240 0
v -32 -240 0
v -48 -256 0
v -64 -256 0
v -64 -240 0
v -48 -240 0
v -64 -256 0
v -80 -256 0
v -80 -240 0
v -64 -240 0
v -80 -256 0
v -96 -256 0
v -96 -240 0
v -80 -240 0
v -96 -256 0
v -112 -256 0
v -112 -240 0
v -96 -240 0
v -112 -256 0
v -128 -256 0
v -128 -240 0
v -112 -240 0
v -128 -256 0
v -144 -256 0
v -144 -240 0
v -128 -240 0
v -144 -256 0
v -160 -256 0
v -160 -240 0
v -144 -240 0
v -160 -256 0
v -176 -256 0
v -176 -240 0
v -160 -240 0
v -176 -256 0
v -192 -256 0
v -192 -240 0
v -176 -240 0
v -192 -256 0
v -208 -256 0
v -208 -240 0
v -192 -240 0
v -208 -256 0
v -224 -256 0
v -224 -240 0
v -208 -240 0
v -224 -256 0
v -240 -256 0
v -240 -240 0
v -224 -240 0
v -240 -256 0
v -256 -256 0
v -256 -240 0
v -240 -240 0

# Texture cooridinates (Count = 49)
vt 0.02734375 0.453125
vt 0.03125 0.453125
vt 0.03125 0.46875
vt 0.02734375 0.46875
vt 0.01171875 0.4375
vt 0.015625 0.4375
vt 0.015625 0.453125
vt 0.01171875 0.453125
vt 0.01953125 0.421875
vt 0.0234375 0.421875
vt 0.0234375 0.4375
vt 0.01953125 0.4375
vt 0.01171875 0.46875
vt 0.015625 0.46875
vt 0.015625 0.484375
vt 0.01171875 0.484375
vt 0.01171875 0.40625
vt 0.015625 0.40625
vt 0.015625 0.421875
vt 0.01171875 0.421875
vt 0.0234375 0.46875
vt 0.02734375 0.484375
vt 0.0234375 0.484375
vt 0.01953125 0.46875
vt 0.01953125 0.484375
vt 0.0234375 0.453125
vt 0.01953125 0.453125
vt 0.0078125 0.390625
vt 0.01171875 0.390625
vt 0.0078125 0.40625
vt 0.0078125 0.46875
vt 0.0078125 0.484375
vt 0.02734375 0.421875
vt 0.02734375 0.4375
vt 0.01953125 0.40625
vt 0.0234375 0.40625
vt 0.0078125 0.453125
vt 0.0078125 0.4375
vt 0.0078125 0.421875
vt 0.03125 0.421875
vt 0.03125 0.4375
vt 0.0234375 0.390625
vt 0.02734375 0.390625
vt 0.02734375 0.40625
vt 0.01953125 0.390625
vt 0.03125 0.390625
vt 0.03125 0.40625
vt 0.015625 0.390625
vt 0.03125 0.484375

# Normal
vn 0 0 -1

# Mesh description
g TitleIntro_mesh_0052

# Faces
f 1/1/1 2/2/1 3/3/1 4/4/1
f 5/5/1 6/6/1 7/7/1 8/8/1
f 9/9/1 10/10/1 11/11/1 12/12/1
f 13/13/1 14/14/1 15/15/1 16/16/1
f 17/17/1 18/18/1 19/19/1 20/20/1
f 21/21/1 22/4/1 23/22/1 24/23/1
f 25/14/1 26/24/1 27/25/1 28/15/1
f 29/26/1 30/1/1 31/4/1 32/21/1
f 33/6/1 34/12/1 35/27/1 36/7/1
f 37/28/1 38/29/1 39/17/1 40/30/1
f 41/31/1 42/13/1 43/16/1 44/32/1
f 45/10/1 46/33/1 47/34/1 48/11/1
f 49/27/1 50/26/1 51/21/1 52/24/1
f 53/7/1 54/27/1 55/24/1 56/14/1
f 57/28/1 58/29/1 59/17/1 60/30/1
f 61/14/1 62/24/1 63/25/1 64/15/1
f 65/35/1 66/36/1 67/10/1 68/9/1
f 69/28/1 70/29/1 71/17/1 72/30/1
f 73/37/1 74/8/1 75/13/1 76/31/1
f 77/38/1 78/5/1 79/8/1 80/37/1
f 81/14/1 82/24/1 83/25/1 84/15/1
f 85/9/1 86/10/1 87/11/1 88/12/1
f 89/30/1 90/17/1 91/20/1 92/39/1
f 93/38/1 94/5/1 95/8/1 96/37/1
f 97/26/1 98/1/1 99/4/1 100/21/1
f 101/27/1 102/26/1 103/21/1 104/24/1
f 105/33/1 106/40/1 107/41/1 108/34/1
f 109/39/1 110/20/1 111/5/1 112/38/1
f 113/28/1 114/29/1 115/17/1 116/30/1
f 117/12/1 118/11/1 119/26/1 120/27/1
f 121/26/1 122/1/1 123/4/1 124/21/1
f 125/39/1 126/20/1 127/5/1 128/38/1
f 129/7/1 130/27/1 131/24/1 132/14/1
f 133/42/1 134/43/1 135/44/1 136/36/1
f 137/42/1 138/43/1 139/44/1 140/36/1
f 141/1/1 142/2/1 143/3/1 144/4/1
f 145/45/1 146/42/1 147/36/1 148/35/1
f 149/9/1 150/10/1 151/11/1 152/12/1
f 153/1/1 154/2/1 155/3/1 156/4/1
f 157/34/1 158/41/1 159/2/1 160/1/1
f 161/37/1 162/8/1 163/13/1 164/31/1
f 165/14/1 166/24/1 167/25/1 168/15/1
f 169/19/1 170/9/1 171/12/1 172/6/1
f 173/8/1 174/7/1 175/14/1 176/13/1
f 177/20/1 178/19/1 179/6/1 180/5/1
f 181/1/1 182/2/1 183/3/1 184/4/1
f 185/18/1 186/35/1 187/9/1 188/19/1
f 189/21/1 190/4/1 191/22/1 192/23/1
f 193/1/1 194/2/1 195/3/1 196/4/1
f 197/36/1 198/44/1 199/33/1 200/10/1
f 201/43/1 202/46/1 203/47/1 204/44/1
f 205/20/1 206/19/1 207/6/1 208/5/1
f 209/7/1 210/27/1 211/24/1 212/14/1
f 213/30/1 214/17/1 215/20/1 216/39/1
f 217/19/1 218/9/1 219/12/1 220/6/1
f 221/38/1 222/5/1 223/8/1 224/37/1
f 225/24/1 226/21/1 227/23/1 228/25/1
f 229/24/1 230/21/1 231/23/1 232/25/1
f 233/14/1 234/24/1 235/25/1 236/15/1
f 237/9/1 238/10/1 239/11/1 240/12/1
f 241/39/1 242/20/1 243/5/1 244/38/1
f 245/48/1 246/45/1 247/35/1 248/18/1
f 249/44/1 250/47/1 251/40/1 252/33/1
f 253/6/1 254/12/1 255/27/1 256/7/1
f 257/20/1 258/19/1 259/6/1 260/5/1
f 261/33/1 262/40/1 263/41/1 264/34/1
f 265/31/1 266/13/1 267/16/1 268/32/1
f 269/7/1 270/27/1 271/24/1 272/14/1
f 273/9/1 274/10/1 275/11/1 276/12/1
f 277/21/1 278/4/1 279/22/1 280/23/1
f 281/30/1 282/17/1 283/20/1 284/39/1
f 285/7/1 286/27/1 287/24/1 288/14/1
f 289/43/1 290/46/1 291/47/1 292/44/1
f 293/8/1 294/7/1 295/14/1 296/13/1
f 297/36/1 298/44/1 299/33/1 300/10/1
f 301/24/1 302/21/1 303/23/1 304/25/1
f 305/1/1 306/2/1 307/3/1 308/4/1
f 309/7/1 310/27/1 311/24/1 312/14/1
f 313/1/1 314/2/1 315/3/1 316/4/1
f 317/35/1 318/36/1 319/10/1 320/9/1
f 321/34/1 322/41/1 323/2/1 324/1/1
f 325/8/1 326/7/1 327/14/1 328/13/1
f 329/8/1 330/7/1 331/14/1 332/13/1
f 333/14/1 334/24/1 335/25/1 336/15/1
f 337/38/1 338/5/1 339/8/1 340/37/1
f 341/1/1 342/2/1 343/3/1 344/4/1
f 345/7/1 346/27/1 347/24/1 348/14/1
f 349/5/1 350/6/1 351/7/1 352/8/1
f 353/31/1 354/13/1 355/16/1 356/32/1
f 357/4/1 358/3/1 359/49/1 360/22/1
f 361/5/1 362/6/1 363/7/1 364/8/1
f 365/44/1 366/47/1 367/40/1 368/33/1
f 369/20/1 370/19/1 371/6/1 372/5/1
f 373/30/1 374/17/1 375/20/1 376/39/1
f 377/48/1 378/45/1 379/35/1 380/18/1
f 381/48/1 382/45/1 383/35/1 384/18/1
f 385/24/1 386/21/1 387/23/1 388/25/1
f 389/1/1 390/2/1 391/3/1 392/4/1
f 393/45/1 394/42/1 395/36/1 396/35/1
f 397/33/1 398/40/1 399/41/1 400/34/1
f 401/42/1 402/43/1 403/44/1 404/36/1
f 405/5/1 406/6/1 407/7/1 408/8/1
f 409/48/1 410/45/1 411/35/1 412/18/1
f 413/36/1 414/44/1 415/33/1 416/10/1
f 417/31/1 418/13/1 419/16/1 420/32/1
f 421/28/1 422/29/1 423/17/1 424/30/1
f 425/30/1 426/17/1 427/20/1 428/39/1
f 429/28/1 430/29/1 431/17/1 432/30/1
f 433/30/1 434/17/1 435/20/1 436/39/1
f 437/12/1 438/11/1 439/26/1 440/27/1
f 441/31/1 442/13/1 443/16/1 444/32/1
f 445/6/1 446/12/1 447/27/1 448/7/1
f 449/14/1 450/24/1 451/25/1 452/15/1
f 453/18/1 454/35/1 455/9/1 456/19/1
f 457/13/1 458/14/1 459/15/1 460/16/1
f 461/6/1 462/12/1 463/27/1 464/7/1
f 465/31/1 466/13/1 467/16/1 468/32/1
f 469/43/1 470/46/1 471/47/1 472/44/1
f 473/14/1 474/24/1 475/25/1 476/15/1
f 477/17/1 478/18/1 479/19/1 480/20/1
f 481/1/1 482/2/1 483/3/1 484/4/1
f 485/37/1 486/8/1 487/13/1 488/31/1
f 489/44/1 490/47/1 491/40/1 492/33/1
f 493/9/1 494/10/1 495/11/1 496/12/1
f 497/7/1 498/27/1 499/24/1 500/14/1
f 501/8/1 502/7/1 503/14/1 504/13/1
f 505/1/1 506/2/1 507/3/1 508/4/1
f 509/45/1 510/42/1 511/36/1 512/35/1
f 513/20/1 514/19/1 515/6/1 516/5/1
f 517/21/1 518/4/1 519/22/1 520/23/1
f 521/29/1 522/48/1 523/18/1 524/17/1
f 525/24/1 526/21/1 527/23/1 528/25/1
f 529/5/1 530/6/1 531/7/1 532/8/1
f 533/10/1 534/33/1 535/34/1 536/11/1
f 537/9/1 538/10/1 539/11/1 540/12/1
f 541/14/1 542/24/1 543/25/1 544/15/1
f 545/43/1 546/46/1 547/47/1 548/44/1
f 549/11/1 550/34/1 551/1/1 552/26/1
f 553/19/1 554/9/1 555/12/1 556/6/1
f 557/38/1 558/5/1 559/8/1 560/37/1
f 561/33/1 562/40/1 563/41/1 564/34/1
f 565/37/1 566/8/1 567/13/1 568/31/1
f 569/48/1 570/45/1 571/35/1 572/18/1
f 573/7/1 574/27/1 575/24/1 576/14/1
f 577/7/1 578/27/1 579/24/1 580/14/1
f 581/48/1 582/45/1 583/35/1 584/18/1
f 585/19/1 586/9/1 587/12/1 588/6/1
f 589/5/1 590/6/1 591/7/1 592/8/1
f 593/28/1 594/29/1 595/17/1 596/30/1
f 597/28/1 598/29/1 599/17/1 600/30/1
f 601/44/1 602/47/1 603/40/1 604/33/1
f 605/11/1 606/34/1 607/1/1 608/26/1
f 609/29/1 610/48/1 611/18/1 612/17/1
f 613/42/1 614/43/1 615/44/1 616/36/1
f 617/30/1 618/17/1 619/20/1 620/39/1
f 621/1/1 622/2/1 623/3/1 624/4/1
f 625/34/1 626/41/1 627/2/1 628/1/1
f 629/20/1 630/19/1 631/6/1 632/5/1
f 633/28/1 634/29/1 635/17/1 636/30/1
f 637/45/1 638/42/1 639/36/1 640/35/1
f 641/4/1 642/3/1 643/49/1 644/22/1
f 645/34/1 646/41/1 647/2/1 648/1/1
f 649/6/1 650/12/1 651/27/1 652/7/1
f 653/24/1 654/21/1 655/23/1 656/25/1
f 657/36/1 658/44/1 659/33/1 660/10/1
f 661/31/1 662/13/1 663/16/1 664/32/1
f 665/24/1 666/21/1 667/23/1 668/25/1
f 669/10/1 670/33/1 671/34/1 672/11/1
f 673/28/1 674/29/1 675/17/1 676/30/1
f 677/7/1 678/27/1 679/24/1 680/14/1
f 681/6/1 682/12/1 683/27/1 684/7/1
f 685/27/1 686/26/1 687/21/1 688/24/1
f 689/1/1 690/2/1 691/3/1 692/4/1
f 693/5/1 694/6/1 695/7/1 696/8/1
f 697/20/1 698/19/1 699/6/1 700/5/1
f 701/7/1 702/27/1 703/24/1 704/14/1
f 705/31/1 706/13/1 707/16/1 708/32/1
f 709/5/1 710/6/1 711/7/1 712/8/1
f 713/6/1 714/12/1 715/27/1 716/7/1
f 717/43/1 718/46/1 719/47/1 720/44/1
f 721/7/1 722/27/1 723/24/1 724/14/1
f 725/26/1 726/1/1 727/4/1 728/21/1
f 729/48/1 730/45/1 731/35/1 732/18/1
f 733/35/1 734/36/1 735/10/1 736/9/1
f 737/31/1 738/13/1 739/16/1 740/32/1
f 741/6/1 742/12/1 743/27/1 744/7/1
f 745/33/1 746/40/1 747/41/1 748/34/1
f 749/1/1 750/2/1 751/3/1 752/4/1
f 753/48/1 754/45/1 755/35/1 756/18/1
f 757/20/1 758/19/1 759/6/1 760/5/1
f 761/10/1 762/33/1 763/34/1 764/11/1
f 765/38/1 766/5/1 767/8/1 768/37/1
f 769/31/1 770/13/1 771/16/1 772/32/1
f 773/1/1 774/2/1 775/3/1 776/4/1
f 777/19/1 778/9/1 779/12/1 780/6/1
f 781/38/1 782/5/1 783/8/1 784/37/1
f 785/29/1 786/48/1 787/18/1 788/17/1
f 789/17/1 790/18/1 791/19/1 792/20/1
f 793/4/1 794/3/1 795/49/1 796/22/1
f 797/19/1 798/9/1 799/12/1 800/6/1
f 801/11/1 802/34/1 803/1/1 804/26/1
f 805/9/1 806/10/1 807/11/1 808/12/1
f 809/34/1 810/41/1 811/2/1 812/1/1
f 813/35/1 814/36/1 815/10/1 816/9/1
f 817/34/1 818/41/1 819/2/1 820/1/1
f 821/48/1 822/45/1 823/35/1 824/18/1
f 825/6/1 826/12/1 827/27/1 828/7/1
f 829/24/1 830/21/1 831/23/1 832/25/1
f 833/13/1 834/14/1 835/15/1 836/16/1
f 837/45/1 838/42/1 839/36/1 840/35/1
f 841/34/1 842/41/1 843/2/1 844/1/1
f 845/8/1 846/7/1 847/14/1 848/13/1
f 849/12/1 850/11/1 851/26/1 852/27/1
f 853/4/1 854/3/1 855/49/1 856/22/1
f 857/39/1 858/20/1 859/5/1 860/38/1
f 861/30/1 862/17/1 863/20/1 864/39/1
f 865/19/1 866/9/1 867/12/1 868/6/1
f 869/31/1 870/13/1 871/16/1 872/32/1
f 873/27/1 874/26/1 875/21/1 876/24/1
f 877/20/1 878/19/1 879/6/1 880/5/1
f 881/37/1 882/8/1 883/13/1 884/31/1
f 885/30/1 886/17/1 887/20/1 888/39/1
f 889/21/1 890/4/1 891/22/1 892/23/1
f 893/19/1 894/9/1 895/12/1 896/6/1
f 897/14/1 898/24/1 899/25/1 900/15/1
f 901/37/1 902/8/1 903/13/1 904/31/1
f 905/43/1 906/46/1 907/47/1 908/44/1
f 909/38/1 910/5/1 911/8/1 912/37/1
f 913/1/1 914/2/1 915/3/1 916/4/1
f 917/48/1 918/45/1 919/35/1 920/18/1
f 921/31/1 922/13/1 923/16/1 924/32/1
f 925/36/1 926/44/1 927/33/1 928/10/1
f 929/43/1 930/46/1 931/47/1 932/44/1
f 933/29/1 934/48/1 935/18/1 936/17/1
f 937/37/1 938/8/1 939/13/1 940/31/1
f 941/39/1 942/20/1 943/5/1 944/38/1
f 945/8/1 946/7/1 947/14/1 948/13/1
f 949/29/1 950/48/1 951/18/1 952/17/1
f 953/37/1 954/8/1 955/13/1 956/31/1
f 957/21/1 958/4/1 959/22/1 960/23/1
f 961/38/1 962/5/1 963/8/1 964/37/1
f 965/29/1 966/48/1 967/18/1 968/17/1
f 969/13/1 970/14/1 971/15/1 972/16/1
f 973/36/1 974/44/1 975/33/1 976/10/1
f 977/33/1 978/40/1 979/41/1 980/34/1
f 981/1/1 982/2/1 983/3/1 984/4/1
f 985/35/1 986/36/1 987/10/1 988/9/1
f 989/33/1 990/40/1 991/41/1 992/34/1
f 993/42/1 994/43/1 995/44/1 996/36/1
f 997/38/1 998/5/1 999/8/1 1000/37/1
f 1001/24/1 1002/21/1 1003/23/1 1004/25/1
f 1005/20/1 1006/19/1 1007/6/1 1008/5/1
f 1009/43/1 1010/46/1 1011/47/1 1012/44/1
f 1013/9/1 1014/10/1 1015/11/1 1016/12/1
f 1017/19/1 1018/9/1 1019/12/1 1020/6/1
f 1021/11/1 1022/34/1 1023/1/1 1024/26/1

