# Tiled2Unity generated file. Do not modify by hand.
# Wavefront file for 'TitleIntro_mesh_0032.obj'

# Vertices (Count = 1024)
v 0 -16 0
v -16 -16 0
v -16 0 0
v 0 0 0
v -16 -16 0
v -32 -16 0
v -32 0 0
v -16 0 0
v -32 -16 0
v -48 -16 0
v -48 0 0
v -32 0 0
v -48 -16 0
v -64 -16 0
v -64 0 0
v -48 0 0
v -64 -16 0
v -80 -16 0
v -80 0 0
v -64 0 0
v -80 -16 0
v -96 -16 0
v -96 0 0
v -80 0 0
v -96 -16 0
v -112 -16 0
v -112 0 0
v -96 0 0
v -112 -16 0
v -128 -16 0
v -128 0 0
v -112 0 0
v -128 -16 0
v -144 -16 0
v -144 0 0
v -128 0 0
v -144 -16 0
v -160 -16 0
v -160 0 0
v -144 0 0
v -160 -16 0
v -176 -16 0
v -176 0 0
v -160 0 0
v -176 -16 0
v -192 -16 0
v -192 0 0
v -176 0 0
v -192 -16 0
v -208 -16 0
v -208 0 0
v -192 0 0
v -208 -16 0
v -224 -16 0
v -224 0 0
v -208 0 0
v -224 -16 0
v -240 -16 0
v -240 0 0
v -224 0 0
v -240 -16 0
v -256 -16 0
v -256 0 0
v -240 0 0
v 0 -32 0
v -16 -32 0
v -16 -16 0
v 0 -16 0
v -16 -32 0
v -32 -32 0
v -32 -16 0
v -16 -16 0
v -32 -32 0
v -48 -32 0
v -48 -16 0
v -32 -16 0
v -48 -32 0
v -64 -32 0
v -64 -16 0
v -48 -16 0
v -64 -32 0
v -80 -32 0
v -80 -16 0
v -64 -16 0
v -80 -32 0
v -96 -32 0
v -96 -16 0
v -80 -16 0
v -96 -32 0
v -112 -32 0
v -112 -16 0
v -96 -16 0
v -112 -32 0
v -128 -32 0
v -128 -16 0
v -112 -16 0
v -128 -32 0
v -144 -32 0
v -144 -16 0
v -128 -16 0
v -144 -32 0
v -160 -32 0
v -160 -16 0
v -144 -16 0
v -160 -32 0
v -176 -32 0
v -176 -16 0
v -160 -16 0
v -176 -32 0
v -192 -32 0
v -192 -16 0
v -176 -16 0
v -192 -32 0
v -208 -32 0
v -208 -16 0
v -192 -16 0
v -208 -32 0
v -224 -32 0
v -224 -16 0
v -208 -16 0
v -224 -32 0
v -240 -32 0
v -240 -16 0
v -224 -16 0
v -240 -32 0
v -256 -32 0
v -256 -16 0
v -240 -16 0
v 0 -48 0
v -16 -48 0
v -16 -32 0
v 0 -32 0
v -16 -48 0
v -32 -48 0
v -32 -32 0
v -16 -32 0
v -32 -48 0
v -48 -48 0
v -48 -32 0
v -32 -32 0
v -48 -48 0
v -64 -48 0
v -64 -32 0
v -48 -32 0
v -64 -48 0
v -80 -48 0
v -80 -32 0
v -64 -32 0
v -80 -48 0
v -96 -48 0
v -96 -32 0
v -80 -32 0
v -96 -48 0
v -112 -48 0
v -112 -32 0
v -96 -32 0
v -112 -48 0
v -128 -48 0
v -128 -32 0
v -112 -32 0
v -128 -48 0
v -144 -48 0
v -144 -32 0
v -128 -32 0
v -144 -48 0
v -160 -48 0
v -160 -32 0
v -144 -32 0
v -160 -48 0
v -176 -48 0
v -176 -32 0
v -160 -32 0
v -176 -48 0
v -192 -48 0
v -192 -32 0
v -176 -32 0
v -192 -48 0
v -208 -48 0
v -208 -32 0
v -192 -32 0
v -208 -48 0
v -224 -48 0
v -224 -32 0
v -208 -32 0
v -224 -48 0
v -240 -48 0
v -240 -32 0
v -224 -32 0
v -240 -48 0
v -256 -48 0
v -256 -32 0
v -240 -32 0
v 0 -64 0
v -16 -64 0
v -16 -48 0
v 0 -48 0
v -16 -64 0
v -32 -64 0
v -32 -48 0
v -16 -48 0
v -32 -64 0
v -48 -64 0
v -48 -48 0
v -32 -48 0
v -48 -64 0
v -64 -64 0
v -64 -48 0
v -48 -48 0
v -64 -64 0
v -80 -64 0
v -80 -48 0
v -64 -48 0
v -80 -64 0
v -96 -64 0
v -96 -48 0
v -80 -48 0
v -96 -64 0
v -112 -64 0
v -112 -48 0
v -96 -48 0
v -112 -64 0
v -128 -64 0
v -128 -48 0
v -112 -48 0
v -128 -64 0
v -144 -64 0
v -144 -48 0
v -128 -48 0
v -144 -64 0
v -160 -64 0
v -160 -48 0
v -144 -48 0
v -160 -64 0
v -176 -64 0
v -176 -48 0
v -160 -48 0
v -176 -64 0
v -192 -64 0
v -192 -48 0
v -176 -48 0
v -192 -64 0
v -208 -64 0
v -208 -48 0
v -192 -48 0
v -208 -64 0
v -224 -64 0
v -224 -48 0
v -208 -48 0
v -224 -64 0
v -240 -64 0
v -240 -48 0
v -224 -48 0
v -240 -64 0
v -256 -64 0
v -256 -48 0
v -240 -48 0
v 0 -80 0
v -16 -80 0
v -16 -64 0
v 0 -64 0
v -16 -80 0
v -32 -80 0
v -32 -64 0
v -16 -64 0
v -32 -80 0
v -48 -80 0
v -48 -64 0
v -32 -64 0
v -48 -80 0
v -64 -80 0
v -64 -64 0
v -48 -64 0
v -64 -80 0
v -80 -80 0
v -80 -64 0
v -64 -64 0
v -80 -80 0
v -96 -80 0
v -96 -64 0
v -80 -64 0
v -96 -80 0
v -112 -80 0
v -112 -64 0
v -96 -64 0
v -112 -80 0
v -128 -80 0
v -128 -64 0
v -112 -64 0
v -128 -80 0
v -144 -80 0
v -144 -64 0
v -128 -64 0
v -144 -80 0
v -160 -80 0
v -160 -64 0
v -144 -64 0
v -160 -80 0
v -176 -80 0
v -176 -64 0
v -160 -64 0
v -176 -80 0
v -192 -80 0
v -192 -64 0
v -176 -64 0
v -192 -80 0
v -208 -80 0
v -208 -64 0
v -192 -64 0
v -208 -80 0
v -224 -80 0
v -224 -64 0
v -208 -64 0
v -224 -80 0
v -240 -80 0
v -240 -64 0
v -224 -64 0
v -240 -80 0
v -256 -80 0
v -256 -64 0
v -240 -64 0
v 0 -96 0
v -16 -96 0
v -16 -80 0
v 0 -80 0
v -16 -96 0
v -32 -96 0
v -32 -80 0
v -16 -80 0
v -32 -96 0
v -48 -96 0
v -48 -80 0
v -32 -80 0
v -48 -96 0
v -64 -96 0
v -64 -80 0
v -48 -80 0
v -64 -96 0
v -80 -96 0
v -80 -80 0
v -64 -80 0
v -80 -96 0
v -96 -96 0
v -96 -80 0
v -80 -80 0
v -96 -96 0
v -112 -96 0
v -112 -80 0
v -96 -80 0
v -112 -96 0
v -128 -96 0
v -128 -80 0
v -112 -80 0
v -128 -96 0
v -144 -96 0
v -144 -80 0
v -128 -80 0
v -144 -96 0
v -160 -96 0
v -160 -80 0
v -144 -80 0
v -160 -96 0
v -176 -96 0
v -176 -80 0
v -160 -80 0
v -176 -96 0
v -192 -96 0
v -192 -80 0
v -176 -80 0
v -192 -96 0
v -208 -96 0
v -208 -80 0
v -192 -80 0
v -208 -96 0
v -224 -96 0
v -224 -80 0
v -208 -80 0
v -224 -96 0
v -240 -96 0
v -240 -80 0
v -224 -80 0
v -240 -96 0
v -256 -96 0
v -256 -80 0
v -240 -80 0
v 0 -112 0
v -16 -112 0
v -16 -96 0
v 0 -96 0
v -16 -112 0
v -32 -112 0
v -32 -96 0
v -16 -96 0
v -32 -112 0
v -48 -112 0
v -48 -96 0
v -32 -96 0
v -48 -112 0
v -64 -112 0
v -64 -96 0
v -48 -96 0
v -64 -112 0
v -80 -112 0
v -80 -96 0
v -64 -96 0
v -80 -112 0
v -96 -112 0
v -96 -96 0
v -80 -96 0
v -96 -112 0
v -112 -112 0
v -112 -96 0
v -96 -96 0
v -112 -112 0
v -128 -112 0
v -128 -96 0
v -112 -96 0
v -128 -112 0
v -144 -112 0
v -144 -96 0
v -128 -96 0
v -144 -112 0
v -160 -112 0
v -160 -96 0
v -144 -96 0
v -160 -112 0
v -176 -112 0
v -176 -96 0
v -160 -96 0
v -176 -112 0
v -192 -112 0
v -192 -96 0
v -176 -96 0
v -192 -112 0
v -208 -112 0
v -208 -96 0
v -192 -96 0
v -208 -112 0
v -224 -112 0
v -224 -96 0
v -208 -96 0
v -224 -112 0
v -240 -112 0
v -240 -96 0
v -224 -96 0
v -240 -112 0
v -256 -112 0
v -256 -96 0
v -240 -96 0
v 0 -128 0
v -16 -128 0
v -16 -112 0
v 0 -112 0
v -16 -128 0
v -32 -128 0
v -32 -112 0
v -16 -112 0
v -32 -128 0
v -48 -128 0
v -48 -112 0
v -32 -112 0
v -48 -128 0
v -64 -128 0
v -64 -112 0
v -48 -112 0
v -64 -128 0
v -80 -128 0
v -80 -112 0
v -64 -112 0
v -80 -128 0
v -96 -128 0
v -96 -112 0
v -80 -112 0
v -96 -128 0
v -112 -128 0
v -112 -112 0
v -96 -112 0
v -112 -128 0
v -128 -128 0
v -128 -112 0
v -112 -112 0
v -128 -128 0
v -144 -128 0
v -144 -112 0
v -128 -112 0
v -144 -128 0
v -160 -128 0
v -160 -112 0
v -144 -112 0
v -160 -128 0
v -176 -128 0
v -176 -112 0
v -160 -112 0
v -176 -128 0
v -192 -128 0
v -192 -112 0
v -176 -112 0
v -192 -128 0
v -208 -128 0
v -208 -112 0
v -192 -112 0
v -208 -128 0
v -224 -128 0
v -224 -112 0
v -208 -112 0
v -224 -128 0
v -240 -128 0
v -240 -112 0
v -224 -112 0
v -240 -128 0
v -256 -128 0
v -256 -112 0
v -240 -112 0
v 0 -144 0
v -16 -144 0
v -16 -128 0
v 0 -128 0
v -16 -144 0
v -32 -144 0
v -32 -128 0
v -16 -128 0
v -32 -144 0
v -48 -144 0
v -48 -128 0
v -32 -128 0
v -48 -144 0
v -64 -144 0
v -64 -128 0
v -48 -128 0
v -64 -144 0
v -80 -144 0
v -80 -128 0
v -64 -128 0
v -80 -144 0
v -96 -144 0
v -96 -128 0
v -80 -128 0
v -96 -144 0
v -112 -144 0
v -112 -128 0
v -96 -128 0
v -112 -144 0
v -128 -144 0
v -128 -128 0
v -112 -128 0
v -128 -144 0
v -144 -144 0
v -144 -128 0
v -128 -128 0
v -144 -144 0
v -160 -144 0
v -160 -128 0
v -144 -128 0
v -160 -144 0
v -176 -144 0
v -176 -128 0
v -160 -128 0
v -176 -144 0
v -192 -144 0
v -192 -128 0
v -176 -128 0
v -192 -144 0
v -208 -144 0
v -208 -128 0
v -192 -128 0
v -208 -144 0
v -224 -144 0
v -224 -128 0
v -208 -128 0
v -224 -144 0
v -240 -144 0
v -240 -128 0
v -224 -128 0
v -240 -144 0
v -256 -144 0
v -256 -128 0
v -240 -128 0
v 0 -160 0
v -16 -160 0
v -16 -144 0
v 0 -144 0
v -16 -160 0
v -32 -160 0
v -32 -144 0
v -16 -144 0
v -32 -160 0
v -48 -160 0
v -48 -144 0
v -32 -144 0
v -48 -160 0
v -64 -160 0
v -64 -144 0
v -48 -144 0
v -64 -160 0
v -80 -160 0
v -80 -144 0
v -64 -144 0
v -80 -160 0
v -96 -160 0
v -96 -144 0
v -80 -144 0
v -96 -160 0
v -112 -160 0
v -112 -144 0
v -96 -144 0
v -112 -160 0
v -128 -160 0
v -128 -144 0
v -112 -144 0
v -128 -160 0
v -144 -160 0
v -144 -144 0
v -128 -144 0
v -144 -160 0
v -160 -160 0
v -160 -144 0
v -144 -144 0
v -160 -160 0
v -176 -160 0
v -176 -144 0
v -160 -144 0
v -176 -160 0
v -192 -160 0
v -192 -144 0
v -176 -144 0
v -192 -160 0
v -208 -160 0
v -208 -144 0
v -192 -144 0
v -208 -160 0
v -224 -160 0
v -224 -144 0
v -208 -144 0
v -224 -160 0
v -240 -160 0
v -240 -144 0
v -224 -144 0
v -240 -160 0
v -256 -160 0
v -256 -144 0
v -240 -144 0
v 0 -176 0
v -16 -176 0
v -16 -160 0
v 0 -160 0
v -16 -176 0
v -32 -176 0
v -32 -160 0
v -16 -160 0
v -32 -176 0
v -48 -176 0
v -48 -160 0
v -32 -160 0
v -48 -176 0
v -64 -176 0
v -64 -160 0
v -48 -160 0
v -64 -176 0
v -80 -176 0
v -80 -160 0
v -64 -160 0
v -80 -176 0
v -96 -176 0
v -96 -160 0
v -80 -160 0
v -96 -176 0
v -112 -176 0
v -112 -160 0
v -96 -160 0
v -112 -176 0
v -128 -176 0
v -128 -160 0
v -112 -160 0
v -128 -176 0
v -144 -176 0
v -144 -160 0
v -128 -160 0
v -144 -176 0
v -160 -176 0
v -160 -160 0
v -144 -160 0
v -160 -176 0
v -176 -176 0
v -176 -160 0
v -160 -160 0
v -176 -176 0
v -192 -176 0
v -192 -160 0
v -176 -160 0
v -192 -176 0
v -208 -176 0
v -208 -160 0
v -192 -160 0
v -208 -176 0
v -224 -176 0
v -224 -160 0
v -208 -160 0
v -224 -176 0
v -240 -176 0
v -240 -160 0
v -224 -160 0
v -240 -176 0
v -256 -176 0
v -256 -160 0
v -240 -160 0
v 0 -192 0
v -16 -192 0
v -16 -176 0
v 0 -176 0
v -16 -192 0
v -32 -192 0
v -32 -176 0
v -16 -176 0
v -32 -192 0
v -48 -192 0
v -48 -176 0
v -32 -176 0
v -48 -192 0
v -64 -192 0
v -64 -176 0
v -48 -176 0
v -64 -192 0
v -80 -192 0
v -80 -176 0
v -64 -176 0
v -80 -192 0
v -96 -192 0
v -96 -176 0
v -80 -176 0
v -96 -192 0
v -112 -192 0
v -112 -176 0
v -96 -176 0
v -112 -192 0
v -128 -192 0
v -128 -176 0
v -112 -176 0
v -128 -192 0
v -144 -192 0
v -144 -176 0
v -128 -176 0
v -144 -192 0
v -160 -192 0
v -160 -176 0
v -144 -176 0
v -160 -192 0
v -176 -192 0
v -176 -176 0
v -160 -176 0
v -176 -192 0
v -192 -192 0
v -192 -176 0
v -176 -176 0
v -192 -192 0
v -208 -192 0
v -208 -176 0
v -192 -176 0
v -208 -192 0
v -224 -192 0
v -224 -176 0
v -208 -176 0
v -224 -192 0
v -240 -192 0
v -240 -176 0
v -224 -176 0
v -240 -192 0
v -256 -192 0
v -256 -176 0
v -240 -176 0
v 0 -208 0
v -16 -208 0
v -16 -192 0
v 0 -192 0
v -16 -208 0
v -32 -208 0
v -32 -192 0
v -16 -192 0
v -32 -208 0
v -48 -208 0
v -48 -192 0
v -32 -192 0
v -48 -208 0
v -64 -208 0
v -64 -192 0
v -48 -192 0
v -64 -208 0
v -80 -208 0
v -80 -192 0
v -64 -192 0
v -80 -208 0
v -96 -208 0
v -96 -192 0
v -80 -192 0
v -96 -208 0
v -112 -208 0
v -112 -192 0
v -96 -192 0
v -112 -208 0
v -128 -208 0
v -128 -192 0
v -112 -192 0
v -128 -208 0
v -144 -208 0
v -144 -192 0
v -128 -192 0
v -144 -208 0
v -160 -208 0
v -160 -192 0
v -144 -192 0
v -160 -208 0
v -176 -208 0
v -176 -192 0
v -160 -192 0
v -176 -208 0
v -192 -208 0
v -192 -192 0
v -176 -192 0
v -192 -208 0
v -208 -208 0
v -208 -192 0
v -192 -192 0
v -208 -208 0
v -224 -208 0
v -224 -192 0
v -208 -192 0
v -224 -208 0
v -240 -208 0
v -240 -192 0
v -224 -192 0
v -240 -208 0
v -256 -208 0
v -256 -192 0
v -240 -192 0
v 0 -224 0
v -16 -224 0
v -16 -208 0
v 0 -208 0
v -16 -224 0
v -32 -224 0
v -32 -208 0
v -16 -208 0
v -32 -224 0
v -48 -224 0
v -48 -208 0
v -32 -208 0
v -48 -224 0
v -64 -224 0
v -64 -208 0
v -48 -208 0
v -64 -224 0
v -80 -224 0
v -80 -208 0
v -64 -208 0
v -80 -224 0
v -96 -224 0
v -96 -208 0
v -80 -208 0
v -96 -224 0
v -112 -224 0
v -112 -208 0
v -96 -208 0
v -112 -224 0
v -128 -224 0
v -128 -208 0
v -112 -208 0
v -128 -224 0
v -144 -224 0
v -144 -208 0
v -128 -208 0
v -144 -224 0
v -160 -224 0
v -160 -208 0
v -144 -208 0
v -160 -224 0
v -176 -224 0
v -176 -208 0
v -160 -208 0
v -176 -224 0
v -192 -224 0
v -192 -208 0
v -176 -208 0
v -192 -224 0
v -208 -224 0
v -208 -208 0
v -192 -208 0
v -208 -224 0
v -224 -224 0
v -224 -208 0
v -208 -208 0
v -224 -224 0
v -240 -224 0
v -240 -208 0
v -224 -208 0
v -240 -224 0
v -256 -224 0
v -256 -208 0
v -240 -208 0
v 0 -240 0
v -16 -240 0
v -16 -224 0
v 0 -224 0
v -16 -240 0
v -32 -240 0
v -32 -224 0
v -16 -224 0
v -32 -240 0
v -48 -240 0
v -48 -224 0
v -32 -224 0
v -48 -240 0
v -64 -240 0
v -64 -224 0
v -48 -224 0
v -64 -240 0
v -80 -240 0
v -80 -224 0
v -64 -224 0
v -80 -240 0
v -96 -240 0
v -96 -224 0
v -80 -224 0
v -96 -240 0
v -112 -240 0
v -112 -224 0
v -96 -224 0
v -112 -240 0
v -128 -240 0
v -128 -224 0
v -112 -224 0
v -128 -240 0
v -144 -240 0
v -144 -224 0
v -128 -224 0
v -144 -240 0
v -160 -240 0
v -160 -224 0
v -144 -224 0
v -160 -240 0
v -176 -240 0
v -176 -224 0
v -160 -224 0
v -176 -240 0
v -192 -240 0
v -192 -224 0
v -176 -224 0
v -192 -240 0
v -208 -240 0
v -208 -224 0
v -192 -224 0
v -208 -240 0
v -224 -240 0
v -224 -224 0
v -208 -224 0
v -224 -240 0
v -240 -240 0
v -240 -224 0
v -224 -224 0
v -240 -240 0
v -256 -240 0
v -256 -224 0
v -240 -224 0
v 0 -256 0
v -16 -256 0
v -16 -240 0
v 0 -240 0
v -16 -256 0
v -32 -256 0
v -32 -240 0
v -16 -240 0
v -32 -256 0
v -48 -256 0
v -48 -240 0
v -32 -240 0
v -48 -256 0
v -64 -256 0
v -64 -240 0
v -48 -240 0
v -64 -256 0
v -80 -256 0
v -80 -240 0
v -64 -240 0
v -80 -256 0
v -96 -256 0
v -96 -240 0
v -80 -240 0
v -96 -256 0
v -112 -256 0
v -112 -240 0
v -96 -240 0
v -112 -256 0
v -128 -256 0
v -128 -240 0
v -112 -240 0
v -128 -256 0
v -144 -256 0
v -144 -240 0
v -128 -240 0
v -144 -256 0
v -160 -256 0
v -160 -240 0
v -144 -240 0
v -160 -256 0
v -176 -256 0
v -176 -240 0
v -160 -240 0
v -176 -256 0
v -192 -256 0
v -192 -240 0
v -176 -240 0
v -192 -256 0
v -208 -256 0
v -208 -240 0
v -192 -240 0
v -208 -256 0
v -224 -256 0
v -224 -240 0
v -208 -240 0
v -224 -256 0
v -240 -256 0
v -240 -240 0
v -224 -240 0
v -240 -256 0
v -256 -256 0
v -256 -240 0
v -240 -240 0

# Texture cooridinates (Count = 49)
vt 0.0234375 0.46875
vt 0.02734375 0.46875
vt 0.02734375 0.484375
vt 0.0234375 0.484375
vt 0.02734375 0.390625
vt 0.03125 0.390625
vt 0.03125 0.40625
vt 0.02734375 0.40625
vt 0.0078125 0.453125
vt 0.01171875 0.453125
vt 0.01171875 0.46875
vt 0.0078125 0.46875
vt 0.0234375 0.453125
vt 0.02734375 0.453125
vt 0.03125 0.421875
vt 0.02734375 0.421875
vt 0.01171875 0.390625
vt 0.015625 0.390625
vt 0.015625 0.40625
vt 0.01171875 0.40625
vt 0.01171875 0.484375
vt 0.0078125 0.484375
vt 0.01953125 0.453125
vt 0.01953125 0.46875
vt 0.0234375 0.4375
vt 0.02734375 0.4375
vt 0.03125 0.4375
vt 0.03125 0.453125
vt 0.03125 0.46875
vt 0.015625 0.46875
vt 0.015625 0.484375
vt 0.01953125 0.4375
vt 0.01953125 0.390625
vt 0.01953125 0.40625
vt 0.0234375 0.390625
vt 0.0234375 0.40625
vt 0.03125 0.484375
vt 0.01953125 0.421875
vt 0.0234375 0.421875
vt 0.015625 0.4375
vt 0.015625 0.453125
vt 0.0078125 0.40625
vt 0.01171875 0.421875
vt 0.0078125 0.421875
vt 0.01953125 0.484375
vt 0.0078125 0.390625
vt 0.0078125 0.4375
vt 0.01171875 0.4375
vt 0.015625 0.421875

# Normal
vn 0 0 -1

# Mesh description
g TitleIntro_mesh_0032

# Faces
f 1/1/1 2/2/1 3/3/1 4/4/1
f 5/5/1 6/6/1 7/7/1 8/8/1
f 9/9/1 10/10/1 11/11/1 12/12/1
f 13/13/1 14/14/1 15/2/1 16/1/1
f 17/8/1 18/7/1 19/15/1 20/16/1
f 21/17/1 22/18/1 23/19/1 24/20/1
f 25/12/1 26/11/1 27/21/1 28/22/1
f 29/23/1 30/13/1 31/1/1 32/24/1
f 33/23/1 34/13/1 35/1/1 36/24/1
f 37/12/1 38/11/1 39/21/1 40/22/1
f 41/1/1 42/2/1 43/3/1 44/4/1
f 45/8/1 46/7/1 47/15/1 48/16/1
f 49/25/1 50/26/1 51/14/1 52/13/1
f 53/16/1 54/15/1 55/27/1 56/26/1
f 57/14/1 58/28/1 59/29/1 60/2/1
f 61/11/1 62/30/1 63/31/1 64/21/1
f 65/16/1 66/15/1 67/27/1 68/26/1
f 69/32/1 70/25/1 71/13/1 72/23/1
f 73/18/1 74/33/1 75/34/1 76/19/1
f 77/9/1 78/10/1 79/11/1 80/12/1
f 81/35/1 82/5/1 83/8/1 84/36/1
f 85/2/1 86/29/1 87/37/1 88/3/1
f 89/38/1 90/39/1 91/25/1 92/32/1
f 93/40/1 94/32/1 95/23/1 96/41/1
f 97/40/1 98/32/1 99/23/1 100/41/1
f 101/34/1 102/36/1 103/39/1 104/38/1
f 105/35/1 106/5/1 107/8/1 108/36/1
f 109/34/1 110/36/1 111/39/1 112/38/1
f 113/10/1 114/41/1 115/30/1 116/11/1
f 117/10/1 118/41/1 119/30/1 120/11/1
f 121/42/1 122/20/1 123/43/1 124/44/1
f 125/41/1 126/23/1 127/24/1 128/30/1
f 129/30/1 130/24/1 131/45/1 132/31/1
f 133/10/1 134/41/1 135/30/1 136/11/1
f 137/46/1 138/17/1 139/20/1 140/42/1
f 141/40/1 142/32/1 143/23/1 144/41/1
f 145/40/1 146/32/1 147/23/1 148/41/1
f 149/32/1 150/25/1 151/13/1 152/23/1
f 153/38/1 154/39/1 155/25/1 156/32/1
f 157/33/1 158/35/1 159/36/1 160/34/1
f 161/5/1 162/6/1 163/7/1 164/8/1
f 165/24/1 166/1/1 167/4/1 168/45/1
f 169/24/1 170/1/1 171/4/1 172/45/1
f 173/38/1 174/39/1 175/25/1 176/32/1
f 177/39/1 178/16/1 179/26/1 180/25/1
f 181/18/1 182/33/1 183/34/1 184/19/1
f 185/8/1 186/7/1 187/15/1 188/16/1
f 189/2/1 190/29/1 191/37/1 192/3/1
f 193/35/1 194/5/1 195/8/1 196/36/1
f 197/14/1 198/28/1 199/29/1 200/2/1
f 201/39/1 202/16/1 203/26/1 204/25/1
f 205/47/1 206/48/1 207/10/1 208/9/1
f 209/13/1 210/14/1 211/2/1 212/1/1
f 213/2/1 214/29/1 215/37/1 216/3/1
f 217/20/1 218/19/1 219/49/1 220/43/1
f 221/1/1 222/2/1 223/3/1 224/4/1
f 225/34/1 226/36/1 227/39/1 228/38/1
f 229/5/1 230/6/1 231/7/1 232/8/1
f 233/18/1 234/33/1 235/34/1 236/19/1
f 237/44/1 238/43/1 239/48/1 240/47/1
f 241/26/1 242/27/1 243/28/1 244/14/1
f 245/12/1 246/11/1 247/21/1 248/22/1
f 249/20/1 250/19/1 251/49/1 252/43/1
f 253/17/1 254/18/1 255/19/1 256/20/1
f 257/8/1 258/7/1 259/15/1 260/16/1
f 261/9/1 262/10/1 263/11/1 264/12/1
f 265/40/1 266/32/1 267/23/1 268/41/1
f 269/33/1 270/35/1 271/36/1 272/34/1
f 273/19/1 274/34/1 275/38/1 276/49/1
f 277/25/1 278/26/1 279/14/1 280/13/1
f 281/25/1 282/26/1 283/14/1 284/13/1
f 285/16/1 286/15/1 287/27/1 288/26/1
f 289/33/1 290/35/1 291/36/1 292/34/1
f 293/36/1 294/8/1 295/16/1 296/39/1
f 297/20/1 298/19/1 299/49/1 300/43/1
f 301/36/1 302/8/1 303/16/1 304/39/1
f 305/35/1 306/5/1 307/8/1 308/36/1
f 309/43/1 310/49/1 311/40/1 312/48/1
f 313/19/1 314/34/1 315/38/1 316/49/1
f 317/17/1 318/18/1 319/19/1 320/20/1
f 321/47/1 322/48/1 323/10/1 324/9/1
f 325/5/1 326/6/1 327/7/1 328/8/1
f 329/8/1 330/7/1 331/15/1 332/16/1
f 333/5/1 334/6/1 335/7/1 336/8/1
f 337/23/1 338/13/1 339/1/1 340/24/1
f 341/30/1 342/24/1 343/45/1 344/31/1
f 345/39/1 346/16/1 347/26/1 348/25/1
f 349/5/1 350/6/1 351/7/1 352/8/1
f 353/46/1 354/17/1 355/20/1 356/42/1
f 357/49/1 358/38/1 359/32/1 360/40/1
f 361/12/1 362/11/1 363/21/1 364/22/1
f 365/8/1 366/7/1 367/15/1 368/16/1
f 369/36/1 370/8/1 371/16/1 372/39/1
f 373/20/1 374/19/1 375/49/1 376/43/1
f 377/38/1 378/39/1 379/25/1 380/32/1
f 381/26/1 382/27/1 383/28/1 384/14/1
f 385/39/1 386/16/1 387/26/1 388/25/1
f 389/12/1 390/11/1 391/21/1 392/22/1
f 393/38/1 394/39/1 395/25/1 396/32/1
f 397/8/1 398/7/1 399/15/1 400/16/1
f 401/40/1 402/32/1 403/23/1 404/41/1
f 405/18/1 406/33/1 407/34/1 408/19/1
f 409/40/1 410/32/1 411/23/1 412/41/1
f 413/49/1 414/38/1 415/32/1 416/40/1
f 417/44/1 418/43/1 419/48/1 420/47/1
f 421/20/1 422/19/1 423/49/1 424/43/1
f 425/36/1 426/8/1 427/16/1 428/39/1
f 429/8/1 430/7/1 431/15/1 432/16/1
f 433/41/1 434/23/1 435/24/1 436/30/1
f 437/19/1 438/34/1 439/38/1 440/49/1
f 441/38/1 442/39/1 443/25/1 444/32/1
f 445/43/1 446/49/1 447/40/1 448/48/1
f 449/5/1 450/6/1 451/7/1 452/8/1
f 453/2/1 454/29/1 455/37/1 456/3/1
f 457/5/1 458/6/1 459/7/1 460/8/1
f 461/18/1 462/33/1 463/34/1 464/19/1
f 465/25/1 466/26/1 467/14/1 468/13/1
f 469/10/1 470/41/1 471/30/1 472/11/1
f 473/19/1 474/34/1 475/38/1 476/49/1
f 477/19/1 478/34/1 479/38/1 480/49/1
f 481/11/1 482/30/1 483/31/1 484/21/1
f 485/30/1 486/24/1 487/45/1 488/31/1
f 489/34/1 490/36/1 491/39/1 492/38/1
f 493/44/1 494/43/1 495/48/1 496/47/1
f 497/5/1 498/6/1 499/7/1 500/8/1
f 501/34/1 502/36/1 503/39/1 504/38/1
f 505/13/1 506/14/1 507/2/1 508/1/1
f 509/18/1 510/33/1 511/34/1 512/19/1
f 513/42/1 514/20/1 515/43/1 516/44/1
f 517/10/1 518/41/1 519/30/1 520/11/1
f 521/49/1 522/38/1 523/32/1 524/40/1
f 525/47/1 526/48/1 527/10/1 528/9/1
f 529/32/1 530/25/1 531/13/1 532/23/1
f 533/47/1 534/48/1 535/10/1 536/9/1
f 537/47/1 538/48/1 539/10/1 540/9/1
f 541/11/1 542/30/1 543/31/1 544/21/1
f 545/32/1 546/25/1 547/13/1 548/23/1
f 549/33/1 550/35/1 551/36/1 552/34/1
f 553/35/1 554/5/1 555/8/1 556/36/1
f 557/26/1 558/27/1 559/28/1 560/14/1
f 561/41/1 562/23/1 563/24/1 564/30/1
f 565/36/1 566/8/1 567/16/1 568/39/1
f 569/39/1 570/16/1 571/26/1 572/25/1
f 573/20/1 574/19/1 575/49/1 576/43/1
f 577/41/1 578/23/1 579/24/1 580/30/1
f 581/20/1 582/19/1 583/49/1 584/43/1
f 585/39/1 586/16/1 587/26/1 588/25/1
f 589/49/1 590/38/1 591/32/1 592/40/1
f 593/30/1 594/24/1 595/45/1 596/31/1
f 597/35/1 598/5/1 599/8/1 600/36/1
f 601/42/1 602/20/1 603/43/1 604/44/1
f 605/48/1 606/40/1 607/41/1 608/10/1
f 609/17/1 610/18/1 611/19/1 612/20/1
f 613/24/1 614/1/1 615/4/1 616/45/1
f 617/2/1 618/29/1 619/37/1 620/3/1
f 621/23/1 622/13/1 623/1/1 624/24/1
f 625/30/1 626/24/1 627/45/1 628/31/1
f 629/5/1 630/6/1 631/7/1 632/8/1
f 633/13/1 634/14/1 635/2/1 636/1/1
f 637/41/1 638/23/1 639/24/1 640/30/1
f 641/17/1 642/18/1 643/19/1 644/20/1
f 645/32/1 646/25/1 647/13/1 648/23/1
f 649/14/1 650/28/1 651/29/1 652/2/1
f 653/46/1 654/17/1 655/20/1 656/42/1
f 657/33/1 658/35/1 659/36/1 660/34/1
f 661/2/1 662/29/1 663/37/1 664/3/1
f 665/33/1 666/35/1 667/36/1 668/34/1
f 669/46/1 670/17/1 671/20/1 672/42/1
f 673/48/1 674/40/1 675/41/1 676/10/1
f 677/39/1 678/16/1 679/26/1 680/25/1
f 681/43/1 682/49/1 683/40/1 684/48/1
f 685/5/1 686/6/1 687/7/1 688/8/1
f 689/10/1 690/41/1 691/30/1 692/11/1
f 693/11/1 694/30/1 695/31/1 696/21/1
f 697/5/1 698/6/1 699/7/1 700/8/1
f 701/20/1 702/19/1 703/49/1 704/43/1
f 705/36/1 706/8/1 707/16/1 708/39/1
f 709/36/1 710/8/1 711/16/1 712/39/1
f 713/10/1 714/41/1 715/30/1 716/11/1
f 717/39/1 718/16/1 719/26/1 720/25/1
f 721/40/1 722/32/1 723/23/1 724/41/1
f 725/25/1 726/26/1 727/14/1 728/13/1
f 729/8/1 730/7/1 731/15/1 732/16/1
f 733/47/1 734/48/1 735/10/1 736/9/1
f 737/13/1 738/14/1 739/2/1 740/1/1
f 741/25/1 742/26/1 743/14/1 744/13/1
f 745/19/1 746/34/1 747/38/1 748/49/1
f 749/48/1 750/40/1 751/41/1 752/10/1
f 753/39/1 754/16/1 755/26/1 756/25/1
f 757/23/1 758/13/1 759/1/1 760/24/1
f 761/24/1 762/1/1 763/4/1 764/45/1
f 765/49/1 766/38/1 767/32/1 768/40/1
f 769/44/1 770/43/1 771/48/1 772/47/1
f 773/33/1 774/35/1 775/36/1 776/34/1
f 777/2/1 778/29/1 779/37/1 780/3/1
f 781/41/1 782/23/1 783/24/1 784/30/1
f 785/35/1 786/5/1 787/8/1 788/36/1
f 789/34/1 790/36/1 791/39/1 792/38/1
f 793/17/1 794/18/1 795/19/1 796/20/1
f 797/40/1 798/32/1 799/23/1 800/41/1
f 801/40/1 802/32/1 803/23/1 804/41/1
f 805/19/1 806/34/1 807/38/1 808/49/1
f 809/10/1 810/41/1 811/30/1 812/11/1
f 813/42/1 814/20/1 815/43/1 816/44/1
f 817/40/1 818/32/1 819/23/1 820/41/1
f 821/30/1 822/24/1 823/45/1 824/31/1
f 825/18/1 826/33/1 827/34/1 828/19/1
f 829/36/1 830/8/1 831/16/1 832/39/1
f 833/14/1 834/28/1 835/29/1 836/2/1
f 837/41/1 838/23/1 839/24/1 840/30/1
f 841/47/1 842/48/1 843/10/1 844/9/1
f 845/44/1 846/43/1 847/48/1 848/47/1
f 849/42/1 850/20/1 851/43/1 852/44/1
f 853/33/1 854/35/1 855/36/1 856/34/1
f 857/42/1 858/20/1 859/43/1 860/44/1
f 861/19/1 862/34/1 863/38/1 864/49/1
f 865/36/1 866/8/1 867/16/1 868/39/1
f 869/12/1 870/11/1 871/21/1 872/22/1
f 873/40/1 874/32/1 875/23/1 876/41/1
f 877/8/1 878/7/1 879/15/1 880/16/1
f 881/12/1 882/11/1 883/21/1 884/22/1
f 885/34/1 886/36/1 887/39/1 888/38/1
f 889/12/1 890/11/1 891/21/1 892/22/1
f 893/17/1 894/18/1 895/19/1 896/20/1
f 897/32/1 898/25/1 899/13/1 900/23/1
f 901/12/1 902/11/1 903/21/1 904/22/1
f 905/1/1 906/2/1 907/3/1 908/4/1
f 909/34/1 910/36/1 911/39/1 912/38/1
f 913/30/1 914/24/1 915/45/1 916/31/1
f 917/44/1 918/43/1 919/48/1 920/47/1
f 921/33/1 922/35/1 923/36/1 924/34/1
f 925/35/1 926/5/1 927/8/1 928/36/1
f 929/23/1 930/13/1 931/1/1 932/24/1
f 933/44/1 934/43/1 935/48/1 936/47/1
f 937/10/1 938/41/1 939/30/1 940/11/1
f 941/13/1 942/14/1 943/2/1 944/1/1
f 945/49/1 946/38/1 947/32/1 948/40/1
f 949/17/1 950/18/1 951/19/1 952/20/1
f 953/26/1 954/27/1 955/28/1 956/14/1
f 957/25/1 958/26/1 959/14/1 960/13/1
f 961/18/1 962/33/1 963/34/1 964/19/1
f 965/39/1 966/16/1 967/26/1 968/25/1
f 969/38/1 970/39/1 971/25/1 972/32/1
f 973/47/1 974/48/1 975/10/1 976/9/1
f 977/34/1 978/36/1 979/39/1 980/38/1
f 981/42/1 982/20/1 983/43/1 984/44/1
f 985/14/1 986/28/1 987/29/1 988/2/1
f 989/42/1 990/20/1 991/43/1 992/44/1
f 993/42/1 994/20/1 995/43/1 996/44/1
f 997/26/1 998/27/1 999/28/1 1000/14/1
f 1001/10/1 1002/41/1 1003/30/1 1004/11/1
f 1005/32/1 1006/25/1 1007/13/1 1008/23/1
f 1009/30/1 1010/24/1 1011/45/1 1012/31/1
f 1013/19/1 1014/34/1 1015/38/1 1016/49/1
f 1017/23/1 1018/13/1 1019/1/1 1020/24/1
f 1021/19/1 1022/34/1 1023/38/1 1024/49/1

