# Tiled2Unity generated file. Do not modify by hand.
# Wavefront file for 'TitleIntro_mesh_0092.obj'

# Vertices (Count = 64)
v 0 -16 0
v -16 -16 0
v -16 0 0
v 0 0 0
v -16 -16 0
v -32 -16 0
v -32 0 0
v -16 0 0
v -32 -16 0
v -48 -16 0
v -48 0 0
v -32 0 0
v -48 -16 0
v -64 -16 0
v -64 0 0
v -48 0 0
v -64 -16 0
v -80 -16 0
v -80 0 0
v -64 0 0
v -80 -16 0
v -96 -16 0
v -96 0 0
v -80 0 0
v -96 -16 0
v -112 -16 0
v -112 0 0
v -96 0 0
v -112 -16 0
v -128 -16 0
v -128 0 0
v -112 0 0
v -128 -16 0
v -144 -16 0
v -144 0 0
v -128 0 0
v -144 -16 0
v -160 -16 0
v -160 0 0
v -144 0 0
v -160 -16 0
v -176 -16 0
v -176 0 0
v -160 0 0
v -176 -16 0
v -192 -16 0
v -192 0 0
v -176 0 0
v -192 -16 0
v -208 -16 0
v -208 0 0
v -192 0 0
v -208 -16 0
v -224 -16 0
v -224 0 0
v -208 0 0
v -224 -16 0
v -240 -16 0
v -240 0 0
v -224 0 0
v -240 -16 0
v -256 -16 0
v -256 0 0
v -240 0 0

# Texture cooridinates (Count = 34)
vt 0.0234375 0.453125
vt 0.02734375 0.453125
vt 0.02734375 0.46875
vt 0.0234375 0.46875
vt 0.01171875 0.453125
vt 0.015625 0.453125
vt 0.015625 0.46875
vt 0.01171875 0.46875
vt 0.01953125 0.390625
vt 0.0234375 0.390625
vt 0.0234375 0.40625
vt 0.01953125 0.40625
vt 0.0234375 0.4375
vt 0.02734375 0.4375
vt 0.0234375 0.421875
vt 0.01953125 0.421875
vt 0.03125 0.4375
vt 0.03125 0.453125
vt 0.0078125 0.421875
vt 0.01171875 0.421875
vt 0.01171875 0.4375
vt 0.0078125 0.4375
vt 0.0078125 0.453125
vt 0.01953125 0.46875
vt 0.0234375 0.484375
vt 0.01953125 0.484375
vt 0.03125 0.46875
vt 0.03125 0.484375
vt 0.02734375 0.484375
vt 0.02734375 0.390625
vt 0.02734375 0.40625
vt 0.01953125 0.4375
vt 0.02734375 0.421875
vt 0.03125 0.421875

# Normal
vn 0 0 -1

# Mesh description
g TitleIntro_mesh_0092

# Faces
f 1/1/1 2/2/1 3/3/1 4/4/1
f 5/5/1 6/6/1 7/7/1 8/8/1
f 9/9/1 10/10/1 11/11/1 12/12/1
f 13/13/1 14/14/1 15/2/1 16/1/1
f 17/12/1 18/11/1 19/15/1 20/16/1
f 21/14/1 22/17/1 23/18/1 24/2/1
f 25/19/1 26/20/1 27/21/1 28/22/1
f 29/22/1 30/21/1 31/5/1 32/23/1
f 33/5/1 34/6/1 35/7/1 36/8/1
f 37/9/1 38/10/1 39/11/1 40/12/1
f 41/24/1 42/4/1 43/25/1 44/26/1
f 45/3/1 46/27/1 47/28/1 48/29/1
f 49/10/1 50/30/1 51/31/1 52/11/1
f 53/14/1 54/17/1 55/18/1 56/2/1
f 57/16/1 58/15/1 59/13/1 60/32/1
f 61/33/1 62/34/1 63/17/1 64/14/1

