# Tiled2Unity generated file. Do not modify by hand.
# Wavefront file for 'TitleIntro_mesh_0028.obj'

# Vertices (Count = 320)
v -176 -16 0
v -192 -16 0
v -192 0 0
v -176 0 0
v -192 -16 0
v -208 -16 0
v -208 0 0
v -192 0 0
v -208 -16 0
v -224 -16 0
v -224 0 0
v -208 0 0
v -224 -16 0
v -240 -16 0
v -240 0 0
v -224 0 0
v -240 -16 0
v -256 -16 0
v -256 0 0
v -240 0 0
v -176 -32 0
v -192 -32 0
v -192 -16 0
v -176 -16 0
v -192 -32 0
v -208 -32 0
v -208 -16 0
v -192 -16 0
v -208 -32 0
v -224 -32 0
v -224 -16 0
v -208 -16 0
v -224 -32 0
v -240 -32 0
v -240 -16 0
v -224 -16 0
v -240 -32 0
v -256 -32 0
v -256 -16 0
v -240 -16 0
v -176 -48 0
v -192 -48 0
v -192 -32 0
v -176 -32 0
v -192 -48 0
v -208 -48 0
v -208 -32 0
v -192 -32 0
v -208 -48 0
v -224 -48 0
v -224 -32 0
v -208 -32 0
v -224 -48 0
v -240 -48 0
v -240 -32 0
v -224 -32 0
v -240 -48 0
v -256 -48 0
v -256 -32 0
v -240 -32 0
v -176 -64 0
v -192 -64 0
v -192 -48 0
v -176 -48 0
v -192 -64 0
v -208 -64 0
v -208 -48 0
v -192 -48 0
v -208 -64 0
v -224 -64 0
v -224 -48 0
v -208 -48 0
v -224 -64 0
v -240 -64 0
v -240 -48 0
v -224 -48 0
v -240 -64 0
v -256 -64 0
v -256 -48 0
v -240 -48 0
v -176 -80 0
v -192 -80 0
v -192 -64 0
v -176 -64 0
v -192 -80 0
v -208 -80 0
v -208 -64 0
v -192 -64 0
v -208 -80 0
v -224 -80 0
v -224 -64 0
v -208 -64 0
v -224 -80 0
v -240 -80 0
v -240 -64 0
v -224 -64 0
v -240 -80 0
v -256 -80 0
v -256 -64 0
v -240 -64 0
v -176 -96 0
v -192 -96 0
v -192 -80 0
v -176 -80 0
v -192 -96 0
v -208 -96 0
v -208 -80 0
v -192 -80 0
v -208 -96 0
v -224 -96 0
v -224 -80 0
v -208 -80 0
v -224 -96 0
v -240 -96 0
v -240 -80 0
v -224 -80 0
v -240 -96 0
v -256 -96 0
v -256 -80 0
v -240 -80 0
v -176 -112 0
v -192 -112 0
v -192 -96 0
v -176 -96 0
v -192 -112 0
v -208 -112 0
v -208 -96 0
v -192 -96 0
v -208 -112 0
v -224 -112 0
v -224 -96 0
v -208 -96 0
v -224 -112 0
v -240 -112 0
v -240 -96 0
v -224 -96 0
v -240 -112 0
v -256 -112 0
v -256 -96 0
v -240 -96 0
v -176 -128 0
v -192 -128 0
v -192 -112 0
v -176 -112 0
v -192 -128 0
v -208 -128 0
v -208 -112 0
v -192 -112 0
v -208 -128 0
v -224 -128 0
v -224 -112 0
v -208 -112 0
v -224 -128 0
v -240 -128 0
v -240 -112 0
v -224 -112 0
v -240 -128 0
v -256 -128 0
v -256 -112 0
v -240 -112 0
v -176 -144 0
v -192 -144 0
v -192 -128 0
v -176 -128 0
v -192 -144 0
v -208 -144 0
v -208 -128 0
v -192 -128 0
v -208 -144 0
v -224 -144 0
v -224 -128 0
v -208 -128 0
v -224 -144 0
v -240 -144 0
v -240 -128 0
v -224 -128 0
v -240 -144 0
v -256 -144 0
v -256 -128 0
v -240 -128 0
v -176 -160 0
v -192 -160 0
v -192 -144 0
v -176 -144 0
v -192 -160 0
v -208 -160 0
v -208 -144 0
v -192 -144 0
v -208 -160 0
v -224 -160 0
v -224 -144 0
v -208 -144 0
v -224 -160 0
v -240 -160 0
v -240 -144 0
v -224 -144 0
v -240 -160 0
v -256 -160 0
v -256 -144 0
v -240 -144 0
v -176 -176 0
v -192 -176 0
v -192 -160 0
v -176 -160 0
v -192 -176 0
v -208 -176 0
v -208 -160 0
v -192 -160 0
v -208 -176 0
v -224 -176 0
v -224 -160 0
v -208 -160 0
v -224 -176 0
v -240 -176 0
v -240 -160 0
v -224 -160 0
v -240 -176 0
v -256 -176 0
v -256 -160 0
v -240 -160 0
v -176 -192 0
v -192 -192 0
v -192 -176 0
v -176 -176 0
v -192 -192 0
v -208 -192 0
v -208 -176 0
v -192 -176 0
v -208 -192 0
v -224 -192 0
v -224 -176 0
v -208 -176 0
v -224 -192 0
v -240 -192 0
v -240 -176 0
v -224 -176 0
v -240 -192 0
v -256 -192 0
v -256 -176 0
v -240 -176 0
v -176 -208 0
v -192 -208 0
v -192 -192 0
v -176 -192 0
v -192 -208 0
v -208 -208 0
v -208 -192 0
v -192 -192 0
v -208 -208 0
v -224 -208 0
v -224 -192 0
v -208 -192 0
v -224 -208 0
v -240 -208 0
v -240 -192 0
v -224 -192 0
v -240 -208 0
v -256 -208 0
v -256 -192 0
v -240 -192 0
v -176 -224 0
v -192 -224 0
v -192 -208 0
v -176 -208 0
v -192 -224 0
v -208 -224 0
v -208 -208 0
v -192 -208 0
v -208 -224 0
v -224 -224 0
v -224 -208 0
v -208 -208 0
v -224 -224 0
v -240 -224 0
v -240 -208 0
v -224 -208 0
v -240 -224 0
v -256 -224 0
v -256 -208 0
v -240 -208 0
v -176 -240 0
v -192 -240 0
v -192 -224 0
v -176 -224 0
v -192 -240 0
v -208 -240 0
v -208 -224 0
v -192 -224 0
v -208 -240 0
v -224 -240 0
v -224 -224 0
v -208 -224 0
v -224 -240 0
v -240 -240 0
v -240 -224 0
v -224 -224 0
v -240 -240 0
v -256 -240 0
v -256 -224 0
v -240 -224 0
v -176 -256 0
v -192 -256 0
v -192 -240 0
v -176 -240 0
v -192 -256 0
v -208 -256 0
v -208 -240 0
v -192 -240 0
v -208 -256 0
v -224 -256 0
v -224 -240 0
v -208 -240 0
v -224 -256 0
v -240 -256 0
v -240 -240 0
v -224 -240 0
v -240 -256 0
v -256 -256 0
v -256 -240 0
v -240 -240 0

# Texture cooridinates (Count = 49)
vt 0.02734375 0.46875
vt 0.03125 0.46875
vt 0.03125 0.484375
vt 0.02734375 0.484375
vt 0.0078125 0.4375
vt 0.01171875 0.4375
vt 0.01171875 0.453125
vt 0.0078125 0.453125
vt 0.02734375 0.421875
vt 0.03125 0.421875
vt 0.03125 0.4375
vt 0.02734375 0.4375
vt 0.015625 0.46875
vt 0.01953125 0.46875
vt 0.01953125 0.484375
vt 0.015625 0.484375
vt 0.0234375 0.421875
vt 0.0234375 0.4375
vt 0.0078125 0.390625
vt 0.01171875 0.390625
vt 0.01171875 0.40625
vt 0.0078125 0.40625
vt 0.015625 0.4375
vt 0.015625 0.453125
vt 0.015625 0.40625
vt 0.015625 0.421875
vt 0.01171875 0.421875
vt 0.015625 0.390625
vt 0.01953125 0.390625
vt 0.01953125 0.40625
vt 0.03125 0.453125
vt 0.02734375 0.453125
vt 0.01953125 0.421875
vt 0.01953125 0.4375
vt 0.01171875 0.46875
vt 0.0078125 0.46875
vt 0.02734375 0.40625
vt 0.03125 0.40625
vt 0.0234375 0.46875
vt 0.0234375 0.484375
vt 0.0234375 0.453125
vt 0.01953125 0.453125
vt 0.02734375 0.390625
vt 0.03125 0.390625
vt 0.01171875 0.484375
vt 0.0078125 0.484375
vt 0.0234375 0.40625
vt 0.0234375 0.390625
vt 0.0078125 0.421875

# Normal
vn 0 0 -1

# Mesh description
g TitleIntro_mesh_0028

# Faces
f 1/1/1 2/2/1 3/3/1 4/4/1
f 5/5/1 6/6/1 7/7/1 8/8/1
f 9/9/1 10/10/1 11/11/1 12/12/1
f 13/13/1 14/14/1 15/15/1 16/16/1
f 17/17/1 18/9/1 19/12/1 20/18/1
f 21/19/1 22/20/1 23/21/1 24/22/1
f 25/6/1 26/23/1 27/24/1 28/7/1
f 29/13/1 30/14/1 31/15/1 32/16/1
f 33/21/1 34/25/1 35/26/1 36/27/1
f 37/19/1 38/20/1 39/21/1 40/22/1
f 41/28/1 42/29/1 43/30/1 44/25/1
f 45/6/1 46/23/1 47/24/1 48/7/1
f 49/12/1 50/11/1 51/31/1 52/32/1
f 53/28/1 54/29/1 55/30/1 56/25/1
f 57/26/1 58/33/1 59/34/1 60/23/1
f 61/8/1 62/7/1 63/35/1 64/36/1
f 65/19/1 66/20/1 67/21/1 68/22/1
f 69/27/1 70/26/1 71/23/1 72/6/1
f 73/37/1 74/38/1 75/10/1 76/9/1
f 77/32/1 78/31/1 79/2/1 80/1/1
f 81/19/1 82/20/1 83/21/1 84/22/1
f 85/39/1 86/1/1 87/4/1 88/40/1
f 89/33/1 90/17/1 91/18/1 92/34/1
f 93/37/1 94/38/1 95/10/1 96/9/1
f 97/34/1 98/18/1 99/41/1 100/42/1
f 101/14/1 102/39/1 103/40/1 104/15/1
f 105/43/1 106/44/1 107/38/1 108/37/1
f 109/19/1 110/20/1 111/21/1 112/22/1
f 113/19/1 114/20/1 115/21/1 116/22/1
f 117/17/1 118/9/1 119/12/1 120/18/1
f 121/6/1 122/23/1 123/24/1 124/7/1
f 125/19/1 126/20/1 127/21/1 128/22/1
f 129/25/1 130/30/1 131/33/1 132/26/1
f 133/8/1 134/7/1 135/35/1 136/36/1
f 137/6/1 138/23/1 139/24/1 140/7/1
f 141/26/1 142/33/1 143/34/1 144/23/1
f 145/36/1 146/35/1 147/45/1 148/46/1
f 149/24/1 150/42/1 151/14/1 152/13/1
f 153/5/1 154/6/1 155/7/1 156/8/1
f 157/28/1 158/29/1 159/30/1 160/25/1
f 161/32/1 162/31/1 163/2/1 164/1/1
f 165/23/1 166/34/1 167/42/1 168/24/1
f 169/30/1 170/47/1 171/17/1 172/33/1
f 173/34/1 174/18/1 175/41/1 176/42/1
f 177/27/1 178/26/1 179/23/1 180/6/1
f 181/36/1 182/35/1 183/45/1 184/46/1
f 185/12/1 186/11/1 187/31/1 188/32/1
f 189/29/1 190/48/1 191/47/1 192/30/1
f 193/5/1 194/6/1 195/7/1 196/8/1
f 197/30/1 198/47/1 199/17/1 200/33/1
f 201/9/1 202/10/1 203/11/1 204/12/1
f 205/5/1 206/6/1 207/7/1 208/8/1
f 209/20/1 210/28/1 211/25/1 212/21/1
f 213/30/1 214/47/1 215/17/1 216/33/1
f 217/33/1 218/17/1 219/18/1 220/34/1
f 221/13/1 222/14/1 223/15/1 224/16/1
f 225/22/1 226/21/1 227/27/1 228/49/1
f 229/30/1 230/47/1 231/17/1 232/33/1
f 233/28/1 234/29/1 235/30/1 236/25/1
f 237/43/1 238/44/1 239/38/1 240/37/1
f 241/6/1 242/23/1 243/24/1 244/7/1
f 245/30/1 246/47/1 247/17/1 248/33/1
f 249/6/1 250/23/1 251/24/1 252/7/1
f 253/41/1 254/32/1 255/1/1 256/39/1
f 257/24/1 258/42/1 259/14/1 260/13/1
f 261/14/1 262/39/1 263/40/1 264/15/1
f 265/48/1 266/43/1 267/37/1 268/47/1
f 269/47/1 270/37/1 271/9/1 272/17/1
f 273/26/1 274/33/1 275/34/1 276/23/1
f 277/12/1 278/11/1 279/31/1 280/32/1
f 281/26/1 282/33/1 283/34/1 284/23/1
f 285/42/1 286/41/1 287/39/1 288/14/1
f 289/36/1 290/35/1 291/45/1 292/46/1
f 293/36/1 294/35/1 295/45/1 296/46/1
f 297/7/1 298/24/1 299/13/1 300/35/1
f 301/28/1 302/29/1 303/30/1 304/25/1
f 305/22/1 306/21/1 307/27/1 308/49/1
f 309/6/1 310/23/1 311/24/1 312/7/1
f 313/35/1 314/13/1 315/16/1 316/45/1
f 317/12/1 318/11/1 319/31/1 320/32/1

