# Tiled2Unity generated file. Do not modify by hand.
# Wavefront file for 'TestArea_mesh_0076.obj'

# Vertices (Count = 136)
v -176 -32 0
v -192 -32 0
v -192 -16 0
v -176 -16 0
v -192 -32 0
v -208 -32 0
v -208 -16 0
v -192 -16 0
v -208 -32 0
v -224 -32 0
v -224 -16 0
v -208 -16 0
v -176 -48 0
v -192 -48 0
v -192 -32 0
v -176 -32 0
v -192 -48 0
v -208 -48 0
v -208 -32 0
v -192 -32 0
v -208 -48 0
v -224 -48 0
v -224 -32 0
v -208 -32 0
v -176 -64 0
v -192 -64 0
v -192 -48 0
v -176 -48 0
v -192 -64 0
v -208 -64 0
v -208 -48 0
v -192 -48 0
v -208 -64 0
v -224 -64 0
v -224 -48 0
v -208 -48 0
v -176 -80 0
v -192 -80 0
v -192 -64 0
v -176 -64 0
v -192 -80 0
v -208 -80 0
v -208 -64 0
v -192 -64 0
v -208 -80 0
v -224 -80 0
v -224 -64 0
v -208 -64 0
v -176 -96 0
v -192 -96 0
v -192 -80 0
v -176 -80 0
v -192 -96 0
v -208 -96 0
v -208 -80 0
v -192 -80 0
v -208 -96 0
v -224 -96 0
v -224 -80 0
v -208 -80 0
v -48 -112 0
v -64 -112 0
v -64 -96 0
v -48 -96 0
v -176 -176 0
v -192 -176 0
v -192 -160 0
v -176 -160 0
v -192 -176 0
v -208 -176 0
v -208 -160 0
v -192 -160 0
v -208 -176 0
v -224 -176 0
v -224 -160 0
v -208 -160 0
v -176 -192 0
v -192 -192 0
v -192 -176 0
v -176 -176 0
v -192 -192 0
v -208 -192 0
v -208 -176 0
v -192 -176 0
v -208 -192 0
v -224 -192 0
v -224 -176 0
v -208 -176 0
v -176 -208 0
v -192 -208 0
v -192 -192 0
v -176 -192 0
v -192 -208 0
v -208 -208 0
v -208 -192 0
v -192 -192 0
v -208 -208 0
v -224 -208 0
v -224 -192 0
v -208 -192 0
v -176 -224 0
v -192 -224 0
v -192 -208 0
v -176 -208 0
v -192 -224 0
v -208 -224 0
v -208 -208 0
v -192 -208 0
v -208 -224 0
v -224 -224 0
v -224 -208 0
v -208 -208 0
v -176 -240 0
v -192 -240 0
v -192 -224 0
v -176 -224 0
v -192 -240 0
v -208 -240 0
v -208 -224 0
v -192 -224 0
v -208 -240 0
v -224 -240 0
v -224 -224 0
v -208 -224 0
v -176 -256 0
v -192 -256 0
v -192 -240 0
v -176 -240 0
v -192 -256 0
v -208 -256 0
v -208 -240 0
v -192 -240 0
v -208 -256 0
v -224 -256 0
v -224 -240 0
v -208 -240 0

# Texture cooridinates (Count = 56)
vt 0.7070313 0.40625
vt 0.7109375 0.40625
vt 0.7109375 0.421875
vt 0.7070313 0.421875
vt 0.7148438 0.40625
vt 0.7148438 0.421875
vt 0.71875 0.40625
vt 0.71875 0.421875
vt 0.7070313 0.390625
vt 0.7109375 0.390625
vt 0.7148438 0.390625
vt 0.71875 0.390625
vt 0.7070313 0.375
vt 0.7109375 0.375
vt 0.7148438 0.375
vt 0.71875 0.375
vt 0.7070313 0.359375
vt 0.7109375 0.359375
vt 0.7148438 0.359375
vt 0.71875 0.359375
vt 0.7070313 0.34375
vt 0.7109375 0.34375
vt 0.7148438 0.34375
vt 0.71875 0.34375
vt 0.7773438 0.125
vt 0.78125 0.125
vt 0.78125 0.140625
vt 0.7773438 0.140625
vt 0.109375 0.703125
vt 0.1132813 0.703125
vt 0.1132813 0.71875
vt 0.109375 0.71875
vt 0.1171875 0.703125
vt 0.1171875 0.71875
vt 0.1210938 0.703125
vt 0.1210938 0.71875
vt 0.109375 0.6875
vt 0.1132813 0.6875
vt 0.1171875 0.6875
vt 0.1210938 0.6875
vt 0.109375 0.671875
vt 0.1132813 0.671875
vt 0.1171875 0.671875
vt 0.1210938 0.671875
vt 0.109375 0.65625
vt 0.1132813 0.65625
vt 0.1171875 0.65625
vt 0.1210938 0.65625
vt 0.109375 0.640625
vt 0.1132813 0.640625
vt 0.1171875 0.640625
vt 0.1210938 0.640625
vt 0.109375 0.625
vt 0.1132813 0.625
vt 0.1171875 0.625
vt 0.1210938 0.625

# Normal
vn 0 0 -1

# Mesh description
g TestArea_mesh_0076

# Faces
f 1/1/1 2/2/1 3/3/1 4/4/1
f 5/2/1 6/5/1 7/6/1 8/3/1
f 9/5/1 10/7/1 11/8/1 12/6/1
f 13/9/1 14/10/1 15/2/1 16/1/1
f 17/10/1 18/11/1 19/5/1 20/2/1
f 21/11/1 22/12/1 23/7/1 24/5/1
f 25/13/1 26/14/1 27/10/1 28/9/1
f 29/14/1 30/15/1 31/11/1 32/10/1
f 33/15/1 34/16/1 35/12/1 36/11/1
f 37/17/1 38/18/1 39/14/1 40/13/1
f 41/18/1 42/19/1 43/15/1 44/14/1
f 45/19/1 46/20/1 47/16/1 48/15/1
f 49/21/1 50/22/1 51/18/1 52/17/1
f 53/22/1 54/23/1 55/19/1 56/18/1
f 57/23/1 58/24/1 59/20/1 60/19/1
f 61/25/1 62/26/1 63/27/1 64/28/1
f 65/29/1 66/30/1 67/31/1 68/32/1
f 69/30/1 70/33/1 71/34/1 72/31/1
f 73/33/1 74/35/1 75/36/1 76/34/1
f 77/37/1 78/38/1 79/30/1 80/29/1
f 81/38/1 82/39/1 83/33/1 84/30/1
f 85/39/1 86/40/1 87/35/1 88/33/1
f 89/41/1 90/42/1 91/38/1 92/37/1
f 93/42/1 94/43/1 95/39/1 96/38/1
f 97/43/1 98/44/1 99/40/1 100/39/1
f 101/45/1 102/46/1 103/42/1 104/41/1
f 105/46/1 106/47/1 107/43/1 108/42/1
f 109/47/1 110/48/1 111/44/1 112/43/1
f 113/49/1 114/50/1 115/46/1 116/45/1
f 117/50/1 118/51/1 119/47/1 120/46/1
f 121/51/1 122/52/1 123/48/1 124/47/1
f 125/53/1 126/54/1 127/50/1 128/49/1
f 129/54/1 130/55/1 131/51/1 132/50/1
f 133/55/1 134/56/1 135/52/1 136/51/1

