# Tiled2Unity generated file. Do not modify by hand.
# Wavefront file for 'TestArea_mesh_0082.obj'

# Vertices (Count = 228)
v -48 -16 0
v -64 -16 0
v -64 0 0
v -48 0 0
v -64 -16 0
v -80 -16 0
v -80 0 0
v -64 0 0
v -80 -16 0
v -96 -16 0
v -96 0 0
v -80 0 0
v -96 -16 0
v -112 -16 0
v -112 0 0
v -96 0 0
v -112 -16 0
v -128 -16 0
v -128 0 0
v -112 0 0
v -128 -16 0
v -144 -16 0
v -144 0 0
v -128 0 0
v -144 -16 0
v -160 -16 0
v -160 0 0
v -144 0 0
v -160 -16 0
v -176 -16 0
v -176 0 0
v -160 0 0
v -176 -16 0
v -192 -16 0
v -192 0 0
v -176 0 0
v -192 -16 0
v -208 -16 0
v -208 0 0
v -192 0 0
v -208 -16 0
v -224 -16 0
v -224 0 0
v -208 0 0
v -48 -32 0
v -64 -32 0
v -64 -16 0
v -48 -16 0
v -64 -32 0
v -80 -32 0
v -80 -16 0
v -64 -16 0
v -80 -32 0
v -96 -32 0
v -96 -16 0
v -80 -16 0
v -96 -32 0
v -112 -32 0
v -112 -16 0
v -96 -16 0
v -112 -32 0
v -128 -32 0
v -128 -16 0
v -112 -16 0
v -128 -32 0
v -144 -32 0
v -144 -16 0
v -128 -16 0
v -144 -32 0
v -160 -32 0
v -160 -16 0
v -144 -16 0
v -160 -32 0
v -176 -32 0
v -176 -16 0
v -160 -16 0
v -176 -32 0
v -192 -32 0
v -192 -16 0
v -176 -16 0
v -192 -32 0
v -208 -32 0
v -208 -16 0
v -192 -16 0
v -208 -32 0
v -224 -32 0
v -224 -16 0
v -208 -16 0
v -48 -48 0
v -64 -48 0
v -64 -32 0
v -48 -32 0
v -64 -48 0
v -80 -48 0
v -80 -32 0
v -64 -32 0
v -80 -48 0
v -96 -48 0
v -96 -32 0
v -80 -32 0
v -96 -48 0
v -112 -48 0
v -112 -32 0
v -96 -32 0
v -112 -48 0
v -128 -48 0
v -128 -32 0
v -112 -32 0
v -128 -48 0
v -144 -48 0
v -144 -32 0
v -128 -32 0
v -144 -48 0
v -160 -48 0
v -160 -32 0
v -144 -32 0
v -160 -48 0
v -176 -48 0
v -176 -32 0
v -160 -32 0
v -176 -48 0
v -192 -48 0
v -192 -32 0
v -176 -32 0
v -192 -48 0
v -208 -48 0
v -208 -32 0
v -192 -32 0
v -208 -48 0
v -224 -48 0
v -224 -32 0
v -208 -32 0
v -48 -64 0
v -64 -64 0
v -64 -48 0
v -48 -48 0
v -64 -64 0
v -80 -64 0
v -80 -48 0
v -64 -48 0
v -80 -64 0
v -96 -64 0
v -96 -48 0
v -80 -48 0
v -96 -64 0
v -112 -64 0
v -112 -48 0
v -96 -48 0
v -112 -64 0
v -128 -64 0
v -128 -48 0
v -112 -48 0
v -128 -64 0
v -144 -64 0
v -144 -48 0
v -128 -48 0
v -144 -64 0
v -160 -64 0
v -160 -48 0
v -144 -48 0
v -160 -64 0
v -176 -64 0
v -176 -48 0
v -160 -48 0
v -176 -64 0
v -192 -64 0
v -192 -48 0
v -176 -48 0
v -192 -64 0
v -208 -64 0
v -208 -48 0
v -192 -48 0
v -208 -64 0
v -224 -64 0
v -224 -48 0
v -208 -48 0
v -48 -80 0
v -64 -80 0
v -64 -64 0
v -48 -64 0
v -64 -80 0
v -80 -80 0
v -80 -64 0
v -64 -64 0
v -80 -80 0
v -96 -80 0
v -96 -64 0
v -80 -64 0
v -96 -80 0
v -112 -80 0
v -112 -64 0
v -96 -64 0
v -112 -80 0
v -128 -80 0
v -128 -64 0
v -112 -64 0
v -128 -80 0
v -144 -80 0
v -144 -64 0
v -128 -64 0
v -144 -80 0
v -160 -80 0
v -160 -64 0
v -144 -64 0
v -160 -80 0
v -176 -80 0
v -176 -64 0
v -160 -64 0
v -176 -80 0
v -192 -80 0
v -192 -64 0
v -176 -64 0
v -192 -80 0
v -208 -80 0
v -208 -64 0
v -192 -64 0
v -208 -80 0
v -224 -80 0
v -224 -64 0
v -208 -64 0
v -128 -144 0
v -144 -144 0
v -144 -128 0
v -128 -128 0
v -112 -224 0
v -128 -224 0
v -128 -208 0
v -112 -208 0

# Texture cooridinates (Count = 78)
vt 0.890625 0.859375
vt 0.8945313 0.859375
vt 0.8945313 0.875
vt 0.890625 0.875
vt 0.8984375 0.859375
vt 0.8984375 0.875
vt 0.9023438 0.859375
vt 0.9023438 0.875
vt 0.90625 0.859375
vt 0.90625 0.875
vt 0.9101563 0.859375
vt 0.9101563 0.875
vt 0.9140625 0.859375
vt 0.9140625 0.875
vt 0.9179688 0.859375
vt 0.9179688 0.875
vt 0.921875 0.859375
vt 0.921875 0.875
vt 0.9257813 0.859375
vt 0.9257813 0.875
vt 0.9296875 0.859375
vt 0.9296875 0.875
vt 0.9335938 0.859375
vt 0.9335938 0.875
vt 0.890625 0.84375
vt 0.8945313 0.84375
vt 0.8984375 0.84375
vt 0.9023438 0.84375
vt 0.90625 0.84375
vt 0.9101563 0.84375
vt 0.9140625 0.84375
vt 0.9179688 0.84375
vt 0.921875 0.84375
vt 0.9257813 0.84375
vt 0.9296875 0.84375
vt 0.9335938 0.84375
vt 0.890625 0.828125
vt 0.8945313 0.828125
vt 0.8984375 0.828125
vt 0.9023438 0.828125
vt 0.90625 0.828125
vt 0.9101563 0.828125
vt 0.9140625 0.828125
vt 0.9179688 0.828125
vt 0.921875 0.828125
vt 0.9257813 0.828125
vt 0.9296875 0.828125
vt 0.9335938 0.828125
vt 0.890625 0.8125
vt 0.8945313 0.8125
vt 0.8984375 0.8125
vt 0.9023438 0.8125
vt 0.90625 0.8125
vt 0.9101563 0.8125
vt 0.9140625 0.8125
vt 0.9179688 0.8125
vt 0.921875 0.8125
vt 0.9257813 0.8125
vt 0.9296875 0.8125
vt 0.9335938 0.8125
vt 0.890625 0.796875
vt 0.8945313 0.796875
vt 0.8984375 0.796875
vt 0.9023438 0.796875
vt 0.90625 0.796875
vt 0.9101563 0.796875
vt 0.9140625 0.796875
vt 0.9179688 0.796875
vt 0.921875 0.796875
vt 0.9257813 0.796875
vt 0.9296875 0.796875
vt 0.9335938 0.796875
vt 0.78125 0.140625
vt 0.7851563 0.140625
vt 0.7851563 0.15625
vt 0.78125 0.15625
vt 0.78125 0.125
vt 0.7851563 0.125

# Normal
vn 0 0 -1

# Mesh description
g TestArea_mesh_0082

# Faces
f 1/1/1 2/2/1 3/3/1 4/4/1
f 5/2/1 6/5/1 7/6/1 8/3/1
f 9/5/1 10/7/1 11/8/1 12/6/1
f 13/7/1 14/9/1 15/10/1 16/8/1
f 17/9/1 18/11/1 19/12/1 20/10/1
f 21/11/1 22/13/1 23/14/1 24/12/1
f 25/13/1 26/15/1 27/16/1 28/14/1
f 29/15/1 30/17/1 31/18/1 32/16/1
f 33/17/1 34/19/1 35/20/1 36/18/1
f 37/19/1 38/21/1 39/22/1 40/20/1
f 41/21/1 42/23/1 43/24/1 44/22/1
f 45/25/1 46/26/1 47/2/1 48/1/1
f 49/26/1 50/27/1 51/5/1 52/2/1
f 53/27/1 54/28/1 55/7/1 56/5/1
f 57/28/1 58/29/1 59/9/1 60/7/1
f 61/29/1 62/30/1 63/11/1 64/9/1
f 65/30/1 66/31/1 67/13/1 68/11/1
f 69/31/1 70/32/1 71/15/1 72/13/1
f 73/32/1 74/33/1 75/17/1 76/15/1
f 77/33/1 78/34/1 79/19/1 80/17/1
f 81/34/1 82/35/1 83/21/1 84/19/1
f 85/35/1 86/36/1 87/23/1 88/21/1
f 89/37/1 90/38/1 91/26/1 92/25/1
f 93/38/1 94/39/1 95/27/1 96/26/1
f 97/39/1 98/40/1 99/28/1 100/27/1
f 101/40/1 102/41/1 103/29/1 104/28/1
f 105/41/1 106/42/1 107/30/1 108/29/1
f 109/42/1 110/43/1 111/31/1 112/30/1
f 113/43/1 114/44/1 115/32/1 116/31/1
f 117/44/1 118/45/1 119/33/1 120/32/1
f 121/45/1 122/46/1 123/34/1 124/33/1
f 125/46/1 126/47/1 127/35/1 128/34/1
f 129/47/1 130/48/1 131/36/1 132/35/1
f 133/49/1 134/50/1 135/38/1 136/37/1
f 137/50/1 138/51/1 139/39/1 140/38/1
f 141/51/1 142/52/1 143/40/1 144/39/1
f 145/52/1 146/53/1 147/41/1 148/40/1
f 149/53/1 150/54/1 151/42/1 152/41/1
f 153/54/1 154/55/1 155/43/1 156/42/1
f 157/55/1 158/56/1 159/44/1 160/43/1
f 161/56/1 162/57/1 163/45/1 164/44/1
f 165/57/1 166/58/1 167/46/1 168/45/1
f 169/58/1 170/59/1 171/47/1 172/46/1
f 173/59/1 174/60/1 175/48/1 176/47/1
f 177/61/1 178/62/1 179/50/1 180/49/1
f 181/62/1 182/63/1 183/51/1 184/50/1
f 185/63/1 186/64/1 187/52/1 188/51/1
f 189/64/1 190/65/1 191/53/1 192/52/1
f 193/65/1 194/66/1 195/54/1 196/53/1
f 197/66/1 198/67/1 199/55/1 200/54/1
f 201/67/1 202/68/1 203/56/1 204/55/1
f 205/68/1 206/69/1 207/57/1 208/56/1
f 209/69/1 210/70/1 211/58/1 212/57/1
f 213/70/1 214/71/1 215/59/1 216/58/1
f 217/71/1 218/72/1 219/60/1 220/59/1
f 221/73/1 222/74/1 223/75/1 224/76/1
f 225/77/1 226/78/1 227/74/1 228/73/1

