# Tiled2Unity generated file. Do not modify by hand.
# Wavefront file for 'TestArea_mesh_0028.obj'

# Vertices (Count = 192)
v -128 -176 0
v -144 -176 0
v -144 -160 0
v -128 -160 0
v -144 -176 0
v -160 -176 0
v -160 -160 0
v -144 -160 0
v -160 -176 0
v -176 -176 0
v -176 -160 0
v -160 -160 0
v -176 -176 0
v -192 -176 0
v -192 -160 0
v -176 -160 0
v -192 -176 0
v -208 -176 0
v -208 -160 0
v -192 -160 0
v -208 -176 0
v -224 -176 0
v -224 -160 0
v -208 -160 0
v -224 -176 0
v -240 -176 0
v -240 -160 0
v -224 -160 0
v -240 -176 0
v -256 -176 0
v -256 -160 0
v -240 -160 0
v -128 -192 0
v -144 -192 0
v -144 -176 0
v -128 -176 0
v -144 -192 0
v -160 -192 0
v -160 -176 0
v -144 -176 0
v -160 -192 0
v -176 -192 0
v -176 -176 0
v -160 -176 0
v -176 -192 0
v -192 -192 0
v -192 -176 0
v -176 -176 0
v -192 -192 0
v -208 -192 0
v -208 -176 0
v -192 -176 0
v -208 -192 0
v -224 -192 0
v -224 -176 0
v -208 -176 0
v -224 -192 0
v -240 -192 0
v -240 -176 0
v -224 -176 0
v -240 -192 0
v -256 -192 0
v -256 -176 0
v -240 -176 0
v -128 -208 0
v -144 -208 0
v -144 -192 0
v -128 -192 0
v -144 -208 0
v -160 -208 0
v -160 -192 0
v -144 -192 0
v -160 -208 0
v -176 -208 0
v -176 -192 0
v -160 -192 0
v -176 -208 0
v -192 -208 0
v -192 -192 0
v -176 -192 0
v -192 -208 0
v -208 -208 0
v -208 -192 0
v -192 -192 0
v -208 -208 0
v -224 -208 0
v -224 -192 0
v -208 -192 0
v -224 -208 0
v -240 -208 0
v -240 -192 0
v -224 -192 0
v -240 -208 0
v -256 -208 0
v -256 -192 0
v -240 -192 0
v -128 -224 0
v -144 -224 0
v -144 -208 0
v -128 -208 0
v -144 -224 0
v -160 -224 0
v -160 -208 0
v -144 -208 0
v -160 -224 0
v -176 -224 0
v -176 -208 0
v -160 -208 0
v -176 -224 0
v -192 -224 0
v -192 -208 0
v -176 -208 0
v -192 -224 0
v -208 -224 0
v -208 -208 0
v -192 -208 0
v -208 -224 0
v -224 -224 0
v -224 -208 0
v -208 -208 0
v -224 -224 0
v -240 -224 0
v -240 -208 0
v -224 -208 0
v -240 -224 0
v -256 -224 0
v -256 -208 0
v -240 -208 0
v -128 -240 0
v -144 -240 0
v -144 -224 0
v -128 -224 0
v -144 -240 0
v -160 -240 0
v -160 -224 0
v -144 -224 0
v -160 -240 0
v -176 -240 0
v -176 -224 0
v -160 -224 0
v -176 -240 0
v -192 -240 0
v -192 -224 0
v -176 -224 0
v -192 -240 0
v -208 -240 0
v -208 -224 0
v -192 -224 0
v -208 -240 0
v -224 -240 0
v -224 -224 0
v -208 -224 0
v -224 -240 0
v -240 -240 0
v -240 -224 0
v -224 -224 0
v -240 -240 0
v -256 -240 0
v -256 -224 0
v -240 -224 0
v -128 -256 0
v -144 -256 0
v -144 -240 0
v -128 -240 0
v -144 -256 0
v -160 -256 0
v -160 -240 0
v -144 -240 0
v -160 -256 0
v -176 -256 0
v -176 -240 0
v -160 -240 0
v -176 -256 0
v -192 -256 0
v -192 -240 0
v -176 -240 0
v -192 -256 0
v -208 -256 0
v -208 -240 0
v -192 -240 0
v -208 -256 0
v -224 -256 0
v -224 -240 0
v -208 -240 0
v -224 -256 0
v -240 -256 0
v -240 -240 0
v -224 -240 0
v -240 -256 0
v -256 -256 0
v -256 -240 0
v -240 -240 0

# Texture cooridinates (Count = 36)
vt 0.07421875 0.203125
vt 0.078125 0.203125
vt 0.078125 0.21875
vt 0.07421875 0.21875
vt 0.08203125 0.203125
vt 0.08203125 0.21875
vt 0.0859375 0.203125
vt 0.0859375 0.21875
vt 0.08984375 0.203125
vt 0.08984375 0.21875
vt 0.08203125 0.078125
vt 0.0859375 0.078125
vt 0.0859375 0.09375
vt 0.08203125 0.09375
vt 0.08984375 0.078125
vt 0.08984375 0.09375
vt 0.07421875 0.1875
vt 0.078125 0.1875
vt 0.08203125 0.1875
vt 0.0859375 0.1875
vt 0.08984375 0.1875
vt 0.07421875 0.171875
vt 0.078125 0.171875
vt 0.08203125 0.171875
vt 0.0859375 0.171875
vt 0.08984375 0.171875
vt 0.07421875 0.15625
vt 0.078125 0.15625
vt 0.08203125 0.15625
vt 0.0859375 0.15625
vt 0.08984375 0.15625
vt 0.07421875 0.140625
vt 0.078125 0.140625
vt 0.08203125 0.140625
vt 0.0859375 0.140625
vt 0.08984375 0.140625

# Normal
vn 0 0 -1

# Mesh description
g TestArea_mesh_0028

# Faces
f 1/1/1 2/2/1 3/3/1 4/4/1
f 5/2/1 6/5/1 7/6/1 8/3/1
f 9/5/1 10/7/1 11/8/1 12/6/1
f 13/7/1 14/9/1 15/10/1 16/8/1
f 17/7/1 18/9/1 19/10/1 20/8/1
f 21/7/1 22/9/1 23/10/1 24/8/1
f 25/7/1 26/9/1 27/10/1 28/8/1
f 29/7/1 30/9/1 31/10/1 32/8/1
f 33/1/1 34/2/1 35/3/1 36/4/1
f 37/2/1 38/5/1 39/6/1 40/3/1
f 41/11/1 42/12/1 43/13/1 44/14/1
f 45/12/1 46/15/1 47/16/1 48/13/1
f 49/12/1 50/15/1 51/16/1 52/13/1
f 53/12/1 54/15/1 55/16/1 56/13/1
f 57/12/1 58/15/1 59/16/1 60/13/1
f 61/12/1 62/15/1 63/16/1 64/13/1
f 65/17/1 66/18/1 67/2/1 68/1/1
f 69/18/1 70/19/1 71/5/1 72/2/1
f 73/19/1 74/20/1 75/7/1 76/5/1
f 77/20/1 78/21/1 79/9/1 80/7/1
f 81/20/1 82/21/1 83/9/1 84/7/1
f 85/20/1 86/21/1 87/9/1 88/7/1
f 89/20/1 90/21/1 91/9/1 92/7/1
f 93/20/1 94/21/1 95/9/1 96/7/1
f 97/22/1 98/23/1 99/18/1 100/17/1
f 101/23/1 102/24/1 103/19/1 104/18/1
f 105/24/1 106/25/1 107/20/1 108/19/1
f 109/25/1 110/26/1 111/21/1 112/20/1
f 113/25/1 114/26/1 115/21/1 116/20/1
f 117/25/1 118/26/1 119/21/1 120/20/1
f 121/25/1 122/26/1 123/21/1 124/20/1
f 125/25/1 126/26/1 127/21/1 128/20/1
f 129/27/1 130/28/1 131/23/1 132/22/1
f 133/28/1 134/29/1 135/24/1 136/23/1
f 137/29/1 138/30/1 139/25/1 140/24/1
f 141/30/1 142/31/1 143/26/1 144/25/1
f 145/30/1 146/31/1 147/26/1 148/25/1
f 149/30/1 150/31/1 151/26/1 152/25/1
f 153/30/1 154/31/1 155/26/1 156/25/1
f 157/30/1 158/31/1 159/26/1 160/25/1
f 161/32/1 162/33/1 163/28/1 164/27/1
f 165/33/1 166/34/1 167/29/1 168/28/1
f 169/34/1 170/35/1 171/30/1 172/29/1
f 173/35/1 174/36/1 175/31/1 176/30/1
f 177/35/1 178/36/1 179/31/1 180/30/1
f 181/35/1 182/36/1 183/31/1 184/30/1
f 185/35/1 186/36/1 187/31/1 188/30/1
f 189/35/1 190/36/1 191/31/1 192/30/1

