# Tiled2Unity generated file. Do not modify by hand.
# Wavefront file for 'TestArea_mesh_0078.obj'

# Vertices (Count = 72)
v -48 -16 0
v -64 -16 0
v -64 0 0
v -48 0 0
v -64 -16 0
v -80 -16 0
v -80 0 0
v -64 0 0
v -80 -16 0
v -96 -16 0
v -96 0 0
v -80 0 0
v -96 -16 0
v -112 -16 0
v -112 0 0
v -96 0 0
v -112 -16 0
v -128 -16 0
v -128 0 0
v -112 0 0
v -128 -16 0
v -144 -16 0
v -144 0 0
v -128 0 0
v -144 -16 0
v -160 -16 0
v -160 0 0
v -144 0 0
v -160 -16 0
v -176 -16 0
v -176 0 0
v -160 0 0
v -176 -16 0
v -192 -16 0
v -192 0 0
v -176 0 0
v -48 -32 0
v -64 -32 0
v -64 -16 0
v -48 -16 0
v -64 -32 0
v -80 -32 0
v -80 -16 0
v -64 -16 0
v -80 -32 0
v -96 -32 0
v -96 -16 0
v -80 -16 0
v -96 -32 0
v -112 -32 0
v -112 -16 0
v -96 -16 0
v -112 -32 0
v -128 -32 0
v -128 -16 0
v -112 -16 0
v -128 -32 0
v -144 -32 0
v -144 -16 0
v -128 -16 0
v -144 -32 0
v -160 -32 0
v -160 -16 0
v -144 -16 0
v -160 -32 0
v -176 -32 0
v -176 -16 0
v -160 -16 0
v -176 -32 0
v -192 -32 0
v -192 -16 0
v -176 -16 0

# Texture cooridinates (Count = 9)
vt 0.0859375 0.078125
vt 0.08984375 0.078125
vt 0.08984375 0.09375
vt 0.0859375 0.09375
vt 0.09375 0.078125
vt 0.09375 0.09375
vt 0.0859375 0.0625
vt 0.08984375 0.0625
vt 0.09375 0.0625

# Normal
vn 0 0 -1

# Mesh description
g TestArea_mesh_0078

# Faces
f 1/1/1 2/2/1 3/3/1 4/4/1
f 5/1/1 6/2/1 7/3/1 8/4/1
f 9/1/1 10/2/1 11/3/1 12/4/1
f 13/1/1 14/2/1 15/3/1 16/4/1
f 17/1/1 18/2/1 19/3/1 20/4/1
f 21/1/1 22/2/1 23/3/1 24/4/1
f 25/1/1 26/2/1 27/3/1 28/4/1
f 29/1/1 30/2/1 31/3/1 32/4/1
f 33/2/1 34/5/1 35/6/1 36/3/1
f 37/7/1 38/8/1 39/2/1 40/1/1
f 41/7/1 42/8/1 43/2/1 44/1/1
f 45/7/1 46/8/1 47/2/1 48/1/1
f 49/7/1 50/8/1 51/2/1 52/1/1
f 53/7/1 54/8/1 55/2/1 56/1/1
f 57/7/1 58/8/1 59/2/1 60/1/1
f 61/7/1 62/8/1 63/2/1 64/1/1
f 65/7/1 66/8/1 67/2/1 68/1/1
f 69/8/1 70/9/1 71/5/1 72/2/1

