# Tiled2Unity generated file. Do not modify by hand.
# Wavefront file for 'TestArea_mesh_0080.obj'

# Vertices (Count = 72)
v 0 -16 0
v -16 -16 0
v -16 0 0
v 0 0 0
v -16 -16 0
v -32 -16 0
v -32 0 0
v -16 0 0
v -32 -16 0
v -48 -16 0
v -48 0 0
v -32 0 0
v -48 -16 0
v -64 -16 0
v -64 0 0
v -48 0 0
v -64 -16 0
v -80 -16 0
v -80 0 0
v -64 0 0
v -80 -16 0
v -96 -16 0
v -96 0 0
v -80 0 0
v -96 -16 0
v -112 -16 0
v -112 0 0
v -96 0 0
v 0 -32 0
v -16 -32 0
v -16 -16 0
v 0 -16 0
v -16 -32 0
v -32 -32 0
v -32 -16 0
v -16 -16 0
v -32 -32 0
v -48 -32 0
v -48 -16 0
v -32 -16 0
v -48 -32 0
v -64 -32 0
v -64 -16 0
v -48 -16 0
v -64 -32 0
v -80 -32 0
v -80 -16 0
v -64 -16 0
v -80 -32 0
v -96 -32 0
v -96 -16 0
v -80 -16 0
v -96 -32 0
v -112 -32 0
v -112 -16 0
v -96 -16 0
v -96 -48 0
v -112 -48 0
v -112 -32 0
v -96 -32 0
v -16 -80 0
v -32 -80 0
v -32 -64 0
v -16 -64 0
v -176 -96 0
v -192 -96 0
v -192 -80 0
v -176 -80 0
v -176 -112 0
v -192 -112 0
v -192 -96 0
v -176 -96 0

# Texture cooridinates (Count = 41)
vt 0.2226563 0.890625
vt 0.2265625 0.890625
vt 0.2265625 0.90625
vt 0.2226563 0.90625
vt 0.1054688 0.890625
vt 0.109375 0.890625
vt 0.109375 0.90625
vt 0.1054688 0.90625
vt 0.1132813 0.890625
vt 0.1132813 0.90625
vt 0.1171875 0.890625
vt 0.1171875 0.90625
vt 0.1210938 0.890625
vt 0.1210938 0.90625
vt 0.125 0.890625
vt 0.125 0.90625
vt 0.2460938 0.890625
vt 0.25 0.890625
vt 0.25 0.90625
vt 0.2460938 0.90625
vt 0.2226563 0.875
vt 0.2265625 0.875
vt 0.1054688 0.875
vt 0.109375 0.875
vt 0.1132813 0.875
vt 0.1171875 0.875
vt 0.1210938 0.875
vt 0.125 0.875
vt 0.2460938 0.875
vt 0.25 0.875
vt 0.03515625 0.359375
vt 0.0390625 0.359375
vt 0.0390625 0.375
vt 0.03515625 0.375
vt 0.7734375 0.125
vt 0.7773438 0.125
vt 0.7773438 0.140625
vt 0.7734375 0.140625
vt 0.7695313 0.140625
vt 0.7734375 0.15625
vt 0.7695313 0.15625

# Normal
vn 0 0 -1

# Mesh description
g TestArea_mesh_0080

# Faces
f 1/1/1 2/2/1 3/3/1 4/4/1
f 5/5/1 6/6/1 7/7/1 8/8/1
f 9/6/1 10/9/1 11/10/1 12/7/1
f 13/9/1 14/11/1 15/12/1 16/10/1
f 17/11/1 18/13/1 19/14/1 20/12/1
f 21/13/1 22/15/1 23/16/1 24/14/1
f 25/17/1 26/18/1 27/19/1 28/20/1
f 29/21/1 30/22/1 31/2/1 32/1/1
f 33/23/1 34/24/1 35/6/1 36/5/1
f 37/24/1 38/25/1 39/9/1 40/6/1
f 41/25/1 42/26/1 43/11/1 44/9/1
f 45/26/1 46/27/1 47/13/1 48/11/1
f 49/27/1 50/28/1 51/15/1 52/13/1
f 53/29/1 54/30/1 55/18/1 56/17/1
f 57/31/1 58/32/1 59/33/1 60/34/1
f 61/31/1 62/32/1 63/33/1 64/34/1
f 65/35/1 66/36/1 67/37/1 68/38/1
f 69/39/1 70/38/1 71/40/1 72/41/1

